<?xml version="1.0" encoding="UTF-8"?><svg id="Layer_2" xmlns="http://www.w3.org/2000/svg" viewBox="0 0 600.59 93.67"><defs><style>.cls-1{fill:#ff2700;stroke-width:0px;}</style></defs><g id="Layer_1-2"><polygon class="cls-1" points="553.22 30.46 553.22 58.1 540.84 30.46 532.26 30.46 532.26 79.07 540.84 79.07 540.84 51.44 553.22 79.07 561.8 79.07 561.8 30.46 553.22 30.46"/><polygon class="cls-1" points="381.68 30.46 381.68 58.1 369.29 30.46 360.71 30.46 360.71 79.07 369.29 79.07 369.29 51.44 381.68 79.07 390.26 79.07 390.26 30.46 381.68 30.46"/><polygon class="cls-1" points="600.59 30.32 571.04 30.32 571.04 38.9 581.53 38.9 581.53 78.93 590.1 78.93 590.1 38.9 600.59 38.9 600.59 30.32"/><polygon class="cls-1" points="523.01 38.9 523.01 30.32 493.47 30.32 493.47 78.93 523.01 78.93 523.01 70.35 502.05 70.35 502.05 55.77 523.01 55.77 523.01 47.19 502.05 47.19 502.05 38.9 523.01 38.9"/><polygon class="cls-1" points="351.47 38.9 351.47 30.32 321.92 30.32 321.92 78.93 351.47 78.93 351.47 70.35 330.5 70.35 330.5 55.77 351.47 55.77 351.47 47.19 330.5 47.19 330.5 38.9 351.47 38.9"/><path class="cls-1" d="M38.84,0L0,23.42v46.83l38.84,23.42,38.84-23.42V23.42L38.84,0ZM38.84,83.53l-30.16-18.18V28.32l30.16-18.18,30.16,18.18v10.58H11.97v6.52h57.04v8.07h-30.16v6.52h30.16v5.34l-30.16,18.18Z"/><path class="cls-1" d="M227.96,30.32v48.61h8.58v-23.16h12.39v23.16h8.58V30.32h-29.55ZM248.92,47.19h-12.39v-8.29h12.39v8.29Z"/><path class="cls-1" d="M429.05,41.56l-5.38-11.25h-24.17v48.61h24.17l5.38-8.58v-28.79ZM408.08,70.35v-31.45h12.39v31.45h-12.39Z"/><polygon class="cls-1" points="150.38 30.46 150.38 58.1 137.99 30.46 129.41 30.46 129.41 79.07 137.99 79.07 137.99 51.44 150.38 79.07 158.96 79.07 158.96 30.46 150.38 30.46"/><path class="cls-1" d="M197.75,41.56l-5.38-11.25h-24.17v48.61h24.17l5.38-8.58v-28.79ZM176.78,70.35v-31.45h12.39v31.45h-12.39Z"/><polygon class="cls-1" points="438.29 30.32 438.29 78.93 446.87 78.93 446.87 38.9 456.97 38.9 456.97 78.93 465.55 78.93 465.55 38.9 475.65 38.9 475.65 78.93 484.23 78.93 484.23 30.32 438.29 30.32"/><polygon class="cls-1" points="266.74 30.32 266.74 78.93 275.32 78.93 275.32 38.9 285.42 38.9 285.42 78.93 294 78.93 294 38.9 304.1 38.9 304.1 78.93 312.68 78.93 312.68 30.32 266.74 30.32"/><polygon class="cls-1" points="90.62 39.08 90.62 52.06 99.2 52.06 99.2 47.66 111.59 47.66 111.59 50.19 90.62 70.35 90.62 78.93 120.17 78.93 120.17 70.35 103.06 70.35 120.17 53.83 120.17 39.08 90.62 39.08"/></g></svg>