<?xml version="1.0" encoding="UTF-8"?><svg id="Layer_2" xmlns="http://www.w3.org/2000/svg" viewBox="0 0 261.22 199.87"><defs><style>.cls-1{fill:#fff;stroke-width:0px;}</style></defs><g id="Layer_1-2"><rect class="cls-1" x="107.06" y="104.85" width="18.69" height="4.13"/><rect class="cls-1" x="108.01" y="118.22" width="16.78" height="4.13" transform="translate(236.69 3.89) rotate(90)"/><rect class="cls-1" x="89.68" y="178.67" width="16.62" height="3.67"/><rect class="cls-1" x="96.15" y="184.94" width="3.67" height="14.92"/><path class="cls-1" d="M76.61,187.43h-.25v3.68h.25c1.41,0,2.55,1.14,2.55,2.53s-1.14,2.55-2.55,2.55h-10.4v3.68h10.4c3.43,0,6.23-2.78,6.23-6.23,0-1.72-.69-3.27-1.82-4.39-1.14-1.12-2.7-1.82-4.41-1.82Z"/><path class="cls-1" d="M66.21,184.9c0,1.72.69,3.27,1.82,4.39,1.12,1.12,2.68,1.82,4.39,1.82h.27v-3.68h-.27c-1.41,0-2.53-1.14-2.53-2.53s1.12-2.55,2.53-2.55h10.42v-3.68h-10.42c-3.43,0-6.21,2.78-6.21,6.23Z"/><rect class="cls-1" x="178.38" y="178.67" width="16.62" height="3.67"/><rect class="cls-1" x="184.86" y="184.94" width="3.67" height="14.92"/><rect class="cls-1" x="142.71" y="187.43" width="7.33" height="3.67"/><polygon class="cls-1" points="135.38 178.67 135.38 199.86 150.04 199.86 150.04 196.19 139.05 196.19 139.05 182.34 150.04 182.34 150.04 178.67 135.38 178.67"/><path class="cls-1" d="M125.17,189.29c1.12-1.12,1.82-2.68,1.82-4.39,0-3.45-2.78-6.23-6.21-6.23h-.29v3.68h.29c1.41,0,2.53,1.14,2.53,2.55,0,.94-.51,1.76-1.27,2.19-.37.22-.8.35-1.27.35h-.31v4.68l3.96,7.76h4.11l-4.84-9.5c.55-.29,1.04-.65,1.47-1.08Z"/><rect class="cls-1" x="113.14" y="178.67" width="3.67" height="21.19"/><rect class="cls-1" x="164.21" y="187.43" width="7.33" height="3.67"/><polygon class="cls-1" points="156.88 178.67 156.88 199.86 171.54 199.86 171.54 196.19 160.55 196.19 160.55 182.34 171.54 182.34 171.54 178.67 156.88 178.67"/><polygon class="cls-1" points="136.84 104.85 132.71 104.85 132.71 128.68 136.84 128.68 136.84 118.83 145.56 118.83 145.56 114.7 136.84 114.7 136.84 104.85"/><rect class="cls-1" x="148.83" y="104.85" width="4.13" height="23.83"/><polygon class="cls-1" points="23.73 11.56 29 28.67 47.45 28.8 32.26 39.83 38.39 56.69 23.73 46.72 9.06 56.69 15.19 39.83 0 28.8 18.45 28.67 23.73 11.56"/><polygon class="cls-1" points="23.73 77.21 29 94.32 47.45 94.45 32.26 105.48 38.39 122.34 23.73 112.38 9.06 122.34 15.19 105.48 0 94.45 18.45 94.32 23.73 77.21"/><polygon class="cls-1" points="23.73 142.87 29 159.98 47.45 160.11 32.26 171.14 38.39 188 23.73 178.04 9.06 188 15.19 171.14 0 160.11 18.45 159.98 23.73 142.87"/><polygon class="cls-1" points="237.49 11.56 242.77 28.67 261.22 28.8 246.03 39.83 252.15 56.69 237.49 46.72 222.83 56.69 228.96 39.83 213.76 28.8 232.22 28.67 237.49 11.56"/><polygon class="cls-1" points="237.49 77.21 242.77 94.32 261.22 94.45 246.03 105.48 252.15 122.34 237.49 112.38 222.83 122.34 228.96 105.48 213.76 94.45 232.22 94.32 237.49 77.21"/><polygon class="cls-1" points="237.49 142.87 242.77 159.98 261.22 160.11 246.03 171.14 252.15 188 237.49 178.04 222.83 188 228.96 171.14 213.76 160.11 232.22 159.98 237.49 142.87"/><path class="cls-1" d="M171.33,46.91l4.75-4.52,7.23,7.23,2.53-2.53-7.17-7.17,16.33-15.56L170.64,0h-35.33v32.68h21.77l14.26,14.24ZM168.18,10.34l7.54,7.54-2.53,2.53-7.54-7.54,2.53-2.53Z"/><polygon class="cls-1" points="98.89 67.4 98.89 41.15 107.37 32.68 125.91 32.68 125.91 0 93.85 0 66.21 27.63 66.21 142.58 89.07 165.43 125.91 165.43 125.91 132.76 102.59 132.76 98.89 129.06 98.89 103.57 102.38 100.08 157.08 100.08 161.73 104.71 161.73 128.59 157.57 132.76 135.31 132.76 135.31 165.43 171.11 165.43 194.41 142.13 194.41 91.19 170.64 67.4 98.89 67.4"/></g></svg>