<?xml version="1.0" encoding="UTF-8"?><svg id="Layer_2" xmlns="http://www.w3.org/2000/svg" viewBox="0 0 633.89 109.77"><defs><style>.cls-1{fill:#fff;stroke-width:0px;}</style></defs><g id="Layer_1-2"><path class="cls-1" d="M443.24,62.94c.63-3.05,1.75-6.04,3.11-8.93.21-.44.44-.86.65-1.29,5.41-3.49,10.92-7.04,16.06-11.07,5.22-4.04,10.21-8.38,14.95-13,2.36-2.32,4.69-4.69,6.87-7.24,2.18-2.55,4.31-5.15,6.16-8.13.92-1.5,1.81-3.04,2.49-4.99.33-.92.64-2.16.56-3.6l-.04-.53c-.04-.21-.09-.43-.14-.65-.07-.23-.09-.4-.22-.67-.12-.26-.25-.52-.4-.76-.31-.48-1.38-.71-3.46.22-8.26,3.71-21.85,15.76-29.91,26.26-7.76,10.12-12.3,16.97-14.84,22.21-4.92,3.46-9.94,6.8-14.98,10.09.87-.75,1.73-1.54,2.53-2.43.9-1.02,1.73-2.19,2.25-3.65.14-.36.26-.74.33-1.15.1-.39.12-.83.15-1.26,0-.88-.14-1.85-.6-2.75-.19-.46-.51-.84-.81-1.23-.33-.33-.68-.69-1.05-.92-.37-.25-.75-.49-1.13-.62-.38-.17-.76-.3-1.12-.38-1.45-.39-2.78-.46-4.17-.35-2.75.22-5.28,1.32-7.23,2.95-.1.08-.15.22-.12.36.05.19.24.31.43.26,2.39-.57,4.7-.8,6.84-.45.53.07,1.06.2,1.57.35.49.14,1.06.31,1.44.51.83.41,1.33.86,1.4,1.29.28.79-.33,2.87-1.37,4.74-.53.95-1.15,1.91-1.9,2.77-.75.87-1.62,1.63-2.54,2.32-3.69,2.77-8.27,4.44-12.67,4.14-1.1-.06-2.15-.26-2.95-.6-.82-.37-1.23-.8-1.43-1.49-.2-.71-.08-1.7.1-2.75.18-1.06.5-2.19.71-3.39h0c.14-.19.17-.43.07-.65-.15-.31-.52-.44-.83-.29l-.07.03c-4.05,1.93-8.11,3.82-12.19,5.6-2.04.88-4.1,1.72-6.18,2.45-2.07.71-4.17,1.4-6.18,1.69-.97.15-2.02.14-2.46-.08-.21-.11-.13-.09-.18-.2-.04-.12-.05-.46.04-.86.37-1.68,1.56-3.62,2.71-5.4,2.38-3.62,5.14-7.13,7.69-10.78h.01c.4-.31.52-.88.26-1.32-.28-.47-.89-.62-1.36-.34l-.31.19c-4.44,2.68-8.63,5.65-12.87,8.51-4.26,2.81-8.56,5.6-13.16,7.7-1.16.47-2.3,1.08-3.49,1.43l-1.78.62c-.59.22-1.2.3-1.81.45-.6.12-1.21.31-1.82.37l-1.82.16c-1.23.14-2.28-.03-2.97-.48-.32-.23-.53-.56-.7-.96-.15-.41-.22-.93-.23-1.47-.01-1.09.23-2.29.59-3.46.18-.58,1-2.71,1.22-3.29,12.89-9.27,23-19.29,30.05-27.1,3.53-3.9,6.39-7.24,9.24-11.84s5.64-10.54,3.8-13.32c-.5-.75-.95-1.54-1.58-2.15l-.51-.4-.26-.2c.06,0-.54-.34-.94-.39-.26-.05-.37-.04-.49-.03-.12,0-.25.02-.37.04-.29.04-.4.09-.54.14-.14.05-.3.11-.42.16l-.31.16c-.78.43-1.35.85-1.91,1.29-.56.44-1.07.88-1.58,1.33-1.01.9-1.97,1.83-2.91,2.76-1.88,1.88-3.68,3.79-5.43,5.76-3.48,3.94-6.8,7.99-10.02,12.13-3.18,4.17-6.23,8.44-9.03,12.89-2.67,4.23-5.2,8.57-7.39,13.12-.18-1.12-.49-2.24-1.01-3.32-.66-1.36-1.64-2.7-2.98-3.65-1.33-.96-2.94-1.53-4.49-1.65-3.13-.28-5.97.58-8.48,1.74-2.51,1.16-4.77,2.66-6.82,4.39-.08.04-.15.1-.2.17h0s-2.2,1.85-3.26,2.75c-1.02.74-2.08,1.45-3.13,2.15-2.27,1.49-4.64,2.86-7,4.21-4.75,2.67-9.63,5.14-14.59,7.3-2.47,1.06-5.01,2.05-7.45,2.69-.45.12-.89.2-1.3.27.13-.23.27-.47.42-.71,1.33-2.08,3.13-4.16,4.87-6.22l5.4-6.24c.91-1.07,1.81-2.14,2.7-3.35.45-.64.89-1.19,1.36-2.26.11-.28.26-.62.32-1.26.01-.2.02-.35,0-.58-.04-.28-.09-.55-.21-.83-.27-.68-.89-1.25-1.43-1.48-.22-.1-.5-.19-.7-.23-.16-.03-.33-.05-.49-.06-.28-.01-.29,0-.45,0l-.76.05c-1.87.25-3.26.83-4.65,1.42-1.35.61-2.64,1.26-3.89,1.96-4.98,2.78-9.56,5.93-14.09,9.15-.64.46,7.57-7.82,7.57-7.82h0c.3-.29.43-.74.31-1.17-.18-.63-.83-1-1.46-.82h-.03c-4.08,1.16-8.25,2.18-12.41,2.99-3.97.75-8.03,1.35-11.94,1.3.03-.77.01-1.55-.11-2.34-.09-.61-.25-1.23-.57-1.88-.15-.32-.37-.66-.7-.97-.38-.37-.62-.45-.93-.64-1.19-.64-2.51-.86-3.85-.68-.67.07-1.38.31-2.05.77-.69.44-1.25,1.46-1.21,2.37.01.22.03.45.06.67l.19.55c.12.39.32.65.5.95.18.31.39.53.6.77.21.24.41.48.64.67l.67.6c.22.2.56.4.84.59.3.16.59.29.89.43l.89.3c.45.12.9.21,1.34.28-.12.46-.27.91-.43,1.35-1.38,3.74-7.87,9.71-19.73,9.92-2.02.04-4.05-.24-5.86-.63-.92-.17-1.73-.44-2.43-.72-.7-.3-1.11-.64-1.32-.88-.18-.24-.35-.57-.35-1.25.01-.67.23-1.53.54-2.41.63-1.78,1.6-3.67,2.57-5.62h.01c.23-.22.28-.57.1-.83-.2-.29-.59-.36-.88-.16l-.03.02c-.08.06-.17.11-.25.16-.97.51-1.88,1.1-2.72,1.79-3.4,2.17-6.94,4.14-10.54,5.91-2.35,1.11-4.72,2.18-7.15,3.01-2.42.88-4.9,1.55-7.37,1.94l-1.86.25-1.84.04c-.62.04-1.2-.03-1.74-.09-.5-.08-1.06-.23-1.19-.37,0,0-.01,0-.02,0,0,0,0,0,0,0,0,0-.02,0,.02-.08.01-.2.27-.68.55-1.11.61-.89,1.46-1.8,2.36-2.66,3.65-3.42,7.99-6.45,12.27-9.24h0s.26-.21.26-.21c.86-.71,1.08-1.99.4-2.96s-1.98-1.13-2.98-.58c-.84.46-1.72.92-2.69,1.17-1,.29-2.07.48-3.17.51-1.09.05-2.22-.02-3.33-.2-1.1-.18-2.26-.48-3.26-.85h0s-.04-.02-.04-.02c-.27-.13-.59-.13-.87.02-7.88,4.28-15.83,8.45-23.58,12.98-1.9,1.06-3.89,1.97-5.92,2.68-2.02.7-4.13,1.22-6.13,1.26-.99.01-1.95-.1-2.74-.41-.58-.23-1.03-.56-1.36-.98,2.84-.94,6.56-3.05,9.11-4.74,5.86-3.87,13.45-11.25,13.24-12.58-1.21-3.15-7.25-2.23-8.61-2.02-7.06,1.05-17.1,6.77-17.15,16.41,0,.76.17,1.34.41,2.12-.71.29-1.58.58-1.96.7-4.22,1.3-8.61,2.04-13.02,2.2-2.19.1-4.43.03-6.52-.23-2.08-.28-4.16-.86-5.56-1.97-2.94-2.07-2.13-6.27-.58-10.02.68-1.64,2.28-1.91,2.28-1.91l7.61.04h.02c1.08,0,4.47-1.09,4.46-2.17,0-1.08-3.4-1.76-4.48-1.75l-5.9.03s-.84-.35.06-1.87c.71-1.19,1.49-2.35,2.27-3.51,2.45-3.6,5.04-7.16,7.8-10.6,2.71-3.48,5.56-6.87,8.43-10.26,5.76-6.75,11.71-13.4,17.64-20.04h.01s.06-.07.06-.07c.35-.34.54-.83.49-1.36-.09-.92-.91-1.59-1.83-1.5-5.99.59-11.37,2.71-16.51,5.12-5.13,2.45-9.99,5.36-14.69,8.49-9.38,6.29-17.99,13.59-25.99,21.49-2.01,1.97-3.92,4.03-5.86,6.05-1.88,2.08-3.75,4.22-5.62,6.24l-.89.97s-1.07,1.04-2.29,1.05-89.75.47-89.75.47C.56,49.93,0,50.49,0,51.18c0,.7.56,1.26,1.25,1.27l86.43.46s1.19,0,.73.47c-1.93,1.98-4.15,3.64-6.28,5.4-4.39,3.33-9.18,6.16-14.33,8.11-2.59.9-5.23,1.71-7.95,2.06-2.68.37-5.52.51-8.08-.01h-.07c-.34-.08-.67.13-.74.47-.07.34.14.67.48.75,2.92.64,5.76.5,8.59.18,2.84-.32,5.59-1.11,8.28-2,5.35-1.93,10.32-4.76,14.88-8.11,2.21-1.76,4.49-3.45,6.51-5.42.38-.36.77-.72,1.15-1.07.55-.51,1.28-.79,2.03-.79l26.6.14c-.04.11-.08.22-.11.33-.33,1.17-.64,2.35-.82,3.61-.19,1.24-.28,2.54-.13,3.89.14,1.33.5,2.73,1.25,3.98.74,1.25,1.83,2.25,2.99,2.94,2.36,1.4,4.85,1.64,7.18,1.78,2.37.08,4.62-.12,6.89-.33,4.53-.48,8.99-1.4,13.34-2.69.44-.14,2.03-.68,2.06-.64.77,1.29,3.03,3.74,6.64,3.47,2.48-.18,4.75-.86,6.92-1.7,2.16-.86,4.22-1.91,6.18-3.12,7.44-4.65,15.11-8.91,22.87-13.01,1.01.55,2.01,1,3.08,1.38,1.12.38,2.29.66,3.49.83-2.14,1.74-4.22,3.59-6.2,5.63-.95,1.02-1.87,2.07-2.68,3.39-.38.7-.81,1.39-.95,2.51-.05.24-.03.58,0,.9.01.31.12.64.28.96.14.34.34.59.57.82.11.12.23.23.35.34.12.09.23.15.35.22.97.59,1.76.64,2.55.76.76.06,1.5.09,2.19.02l2.1-.16,2.04-.37c2.69-.56,5.27-1.41,7.75-2.45,2.5-1,4.87-2.22,7.22-3.47,2.11-1.17,4.18-2.41,6.2-3.7-.35.64-.65,1.33-.85,2.13-.38,1.41-.33,3.36.61,4.97.92,1.6,2.35,2.57,3.6,3.14,1.27.57,2.53.95,3.73,1.14,2.42.41,4.7.46,6.97.35,4.56-.24,9.23-1.38,13.26-3.79,4.05-2.37,7.25-6.14,8.77-10.51.22-.65.39-1.31.54-1.98,2.15.08,4.24-.09,6.31-.35,2.18-.27,4.32-.65,6.45-1.08,2.79-.56,5.55-1.23,8.29-1.97l-20.43,20.96c-2.44,2.31-4.82,4.71-7.06,7.24l-.14.15h-.01c-.22.24-.24.61-.02.86.23.26,18.57-14.48,26.73-19.99s18.71-10.64,18.7-10.63l-7.23,8.42c-1.75,2.18-3.48,4.35-5.04,6.96-.38.67-.76,1.36-1.07,2.26-.15.46-.3.97-.31,1.72,0,.36.06.84.27,1.34.21.5.62,1,1.05,1.28.84.53,1.56.61,2.07.64.3.03.52,0,.75,0,.22-.02.48-.03.68-.06.83-.13,1.59-.31,2.3-.53,2.86-.86,5.38-2.06,7.91-3.29,5.02-2.48,9.81-5.3,14.45-8.35,1.65-1.08,3.25-2.22,4.84-3.39-.92,1.7-1.63,3.59-1.89,5.85-.09.82-.04,1.75.16,2.69.26.95.69,1.95,1.41,2.72,1.43,1.62,3.26,2.17,4.79,2.47.77.11,1.55.22,2.28.22.39,0,.7.04,1.15,0,.45-.02.89-.07,1.27-.14,1.6-.28,2.93-.77,4.23-1.31,8.88-3.72,14.3-9.95,14.41-10.03-.16.85-.51,3.34-.49,4.27.02.76.12,1.55.43,2.36.33.79.88,1.58,1.63,2.1,1.5,1.01,3.21,1.1,4.53.99l2.07-.13c.69-.04,1.34-.22,2.02-.32,2.7-.44,5.26-1.26,7.78-2.18,5.02-1.9,9.73-4.41,14.13-7.35.34-.23.67-.46,1.01-.69-.45.73-.89,1.48-1.29,2.27-.53,1.09-1.05,2.2-1.31,3.61-.12.7-.2,1.51.1,2.47.27.97,1.2,1.88,2.04,2.17,1.69.59,2.96.34,4.19.17,2.42-.45,4.59-1.25,6.71-2.14,2.11-.89,4.16-1.87,6.19-2.89,2.03-1.01,4.01-2.09,5.97-3.22.95-.54,1.87-1.12,2.81-1.67-.09.17-.18.33-.26.51-.56,1.25-.88,2.76-.51,4.44.19.83.61,1.67,1.21,2.33.6.67,1.34,1.1,2.04,1.42,1.44.63,2.84.77,4.17.8,1.06.02,2.13-.06,3.18-.21-2.24,1.67-4.4,3.45-6.5,5.28-1.21,1.06-2.4,2.14-3.57,3.24-3,1.96-6,3.93-8.96,5.98-2.7,1.85-5.36,3.78-7.95,5.83-2.58,2.09-5.06,4.37-7.14,7.07-1.03,1.35-1.97,2.81-2.68,4.44-.69,1.62-1.21,3.44-.94,5.44.14.99.52,2.05,1.34,2.91.81.85,2.19,1.37,3.41,1.08,1.23-.24,2.16-1,2.78-1.81.31-.41.57-.84.79-1.27l.57-1.08c2.83-5.71,6.5-11.03,10.62-15.96,3.88-4.64,8.18-8.94,12.71-12.98,1.34-.87,2.67-1.76,4.03-2.61l16.49-10.51,12.76-8.25c-.92,2.35-1.7,4.79-2.1,7.35-.23,1.69-.36,3.44-.03,5.18.3,1.73,1.07,3.47,2.34,4.73l.07.07c.15.15.37.21.59.16.33-.09.53-.42.44-.75h0c-.12-2.64.34-5.43,1.57-7.67,1.22-2.27,2.4-3.72,5.31-5.2,3.33-1.69,8.88-2.19,12.08-1.56.25.38.08,1.21-.19,1.71-.53,1.05-1.37,2.19-2.17,3.36-.8,1.2-1.68,2.37-2.26,4.05-.06.23-.12.45-.17.68-.03.26-.06.51-.06.78.02.56.17,1.19.51,1.7.71,1.02,1.69,1.42,2.46,1.64,1.47.41,3.78.59,4.53.55,2.96.07,6.03-.44,8.71-1.85,2.65-1.45,4.9-3.59,6.12-6.42.12-.29.01-.64-.27-.79-.3-.17-.68-.06-.86.24l-.04.07c-1.27,2.25-3.43,4.11-5.81,5.16-2.43,1.01-5.09,1.41-7.76,1.21-.67,0-2.52-.2-3.83-.62-.56-.16-.93-.46-1-.62-.08-.12-.44-1.44.97-3.69,2.27-3.6,6.28-7.17,5.11-8.76s-10.19-2.75-17.04.87c-3.27,1.73-5.19,3.66-6.39,6.51-.6,1.41-.96,2.9-1.05,4.39-.16-1.55,0-3.18.32-4.76ZM95.71,48.83c.39-.42,3.8-4.08,5.7-6.12,1.96-1.97,3.88-3.98,5.89-5.89,8.02-7.68,16.64-14.75,25.93-20.77,4.65-2.99,9.45-5.75,14.44-8.04,3.13-1.42,6.38-2.69,9.64-3.55-5.24,4.72-10.2,9.7-14.97,14.91-6.08,6.69-11.88,13.68-16.83,21.43-1.7,2.7-3.28,5.5-4.58,8.5,0,0-24.04.13-24.99.13-.49,0-.46-.36-.23-.6ZM168.9,50.1c-.01-.11.02-.11,0,0h0ZM154.31,59.48c1.33-3.5,4.7-6.18,8.21-7.74,1.75-.75,3.65-1.3,5.19-1.26.39,0,.74.04,1.02.1-.2.48-.57,1.09-.99,1.68-.53.76-1.19,1.52-1.88,2.29-1.39,1.51-2.98,2.96-4.68,4.31-2.23,1.77-4.69,3.29-7.31,4.51-.19-1.22-.01-2.68.43-3.89ZM194.75,65.79s-.02,0,.02.02c0,0,0,.01,0,.02-.01,0-.03-.01-.04-.02v-.02ZM256.62,51.64l-.64-.21-.56-.26c-.16-.12-.3-.18-.48-.33l-.54-.47c-.69-.6-1.26-1.41-1.25-1.77.02-.15-.02-.21.19-.37.22-.14.53-.31.94-.35.78-.12,1.69.02,2.39.4.44.25.43.24.63.59.16.31.29.74.36,1.19.09.58.09,1.18.06,1.78-.37-.06-.73-.11-1.07-.2ZM299.74,47.51s0,0,0,.01c.01-.04.02-.03,0-.01ZM288.49,68.26s-.03,0,0,0h0ZM360.98,40.19c3-4.19,6.08-8.33,9.24-12.4,3.13-4.1,6.38-8.12,9.75-12.01,1.68-1.95,3.37-3.89,5.12-5.74.88-.93,1.76-1.84,2.67-2.69.79-.75,1.69-1.53,2.41-2.01.23.24.45.48.58.78.38.7.48,1.69.32,2.77-.3,2.17-1.36,4.48-2.57,6.63-2.53,4.32-5.77,8.34-9.17,12.18-6.92,7.61-14.67,14.53-22.81,20.86-.68.53-1.37,1.05-2.05,1.57,2-3.4,4.22-6.7,6.52-9.93ZM344,57.59c-4.1,3.03-8.71,5.49-13.18,7.37-1.1.45-2.24.83-3.21.99-.25.05-.47.06-.66.07-.2.02-.54-.01-.8-.02-.58,0-1.08-.09-1.6-.15-1-.17-1.79-.52-2.08-.9-.19-.17-.26-.41-.37-.7-.06-.33-.12-.71-.06-1.18.16-1.9,1.21-4.17,2.19-6.4.67-1.49,2.38-4.18,5.22-6.55,1.4-1.17,2.85-2.41,5.03-3.1,1.2-.38,2.41-.66,3.59-.89,1.18-.15,2.34-.25,3.43-.12,2.17.24,3.8,1.42,5.09,3.31,2.73,4.01.35,6.11-2.58,8.27ZM395.02,87.78c-4.22,5.07-8.05,10.55-10.91,16.57l-.55,1.09c-.14.3-.31.57-.48.81-.36.48-.81.78-1.19.86-.39.1-.72-.03-1.05-.33-.32-.32-.56-.85-.65-1.47-.2-1.24.13-2.71.71-4.07.58-1.37,1.39-2.69,2.32-3.94,3.78-5,9.17-8.75,14.43-12.52,0,0,0,0,0,0-.89.99-1.77,1.98-2.62,3ZM487.91,5.08s0,.04,0,.06c0,0,0,0,0,0,0-.02,0-.05,0-.06ZM456.26,37.47c1.87-2.64,3.87-5.18,5.93-7.67,2.05-2.5,4.18-4.93,6.42-7.27,4.47-4.64,9.39-8.93,14.41-12.65,1.26-.91,2.52-1.8,3.76-2.52.23-.14.46-.25.68-.37-.39.99-.96,2.08-1.59,3.13-3.16,5.2-7.34,10.17-11.57,14.96-4.29,4.78-8.87,9.33-13.67,13.63-2.41,2.14-4.87,4.22-7.42,6.19-1.09.81-2.2,1.63-3.31,2.44,1.96-3.38,4.09-6.67,6.37-9.86Z"/><path class="cls-1" d="M391.71,42.92c-.13.46.1.95.56,1.13.99.4,1.78.38,2.5.23.72-.16,1.33-.53,1.95-.89.61-.38,1.2-.8,1.75-1.31.54-.52,1.07-1.07,1.5-1.81.05-.09.09-.19.1-.29.05-.41-.24-.79-.65-.84-.85-.11-1.61-.03-2.35.08-.74.12-1.43.33-2.11.58-.67.27-1.33.53-1.9,1-.56.48-1.06,1.09-1.35,2.12Z"/><path class="cls-1" d="M633.27,21.56l-17.78-.35c-5.93-.11-11.85-.21-17.78-.26-11.85-.1-23.71-.31-35.56-.31l-30.9-.11c5.33-6.06,10.3-12.42,14.27-19.59.12-.22.11-.51-.07-.72-.23-.27-.63-.31-.9-.08h0c-4.4,3.69-8.36,7.71-12.26,11.78-2.13,2.24-4.19,4.53-6.25,6.83-.53.59-2.98,1.78-3.67,1.78-10.45.04-20.89.27-31.34,1.03-.31.02-.56.27-.58.58-.03.35.24.65.58.68,9.57.7,19.14.94,28.71,1.01.56,0,.83.93.66,1.12-3.64,3.94-7.36,7.8-11.15,11.57-3.99,3.97-8.05,8.06-11.79,12.4-1.88,2.18-3.7,4.43-5.36,6.86-.83,1.22-1.62,2.48-2.33,3.85-.69,1.38-1.36,2.83-1.59,4.73-.09.94-.05,2.11.57,3.23.6,1.13,1.67,1.87,2.6,2.22,1.89.7,3.51.63,5.05.53,3.07-.27,5.88-1,8.65-1.8,5.53-1.64,10.8-3.8,16.02-6.03,5.21-2.24,10.34-4.65,15.4-7.19.29-.15.42-.49.3-.8-.13-.32-.49-.48-.82-.35-10.5,4.12-21.04,8.33-31.8,11.08-2.68.65-5.4,1.21-7.98,1.31-1.26.05-2.55-.06-3.31-.39-.38-.17-.5-.33-.56-.46-.07-.13-.12-.44-.06-.89.13-.92.64-2.1,1.26-3.2.63-1.12,1.37-2.23,2.16-3.32,1.6-2.18,3.39-4.29,5.23-6.35,3.72-4.14,7.7-8.01,11.8-11.93,4.08-3.97,8.03-8.06,11.92-12.21,1.23-1.31,2.45-2.63,3.66-3.95l33.89-.12c11.85,0,23.71-.21,35.56-.31,5.93-.05,11.85-.15,17.78-.26l17.78-.35c.34,0,.61-.28.62-.62,0-.35-.27-.64-.62-.64Z"/></g></svg>