<?xml version="1.0" encoding="UTF-8"?><svg id="Layer_2" xmlns="http://www.w3.org/2000/svg" viewBox="0 0 645.79 123.69"><defs><style>.cls-1{fill:#fff;stroke-width:0px;}</style></defs><g id="Layer_1-2"><path class="cls-1" d="M85.89,77.96c-.05.15-.13.28-.21.4.48-.12.96-.33,1.5-.54.68-.26,1.13-.57,2.05-.8.07-.39.14-.84.2-1.32.23-1.76.32-3.53.42-6.31.09-2.79-.05-6.36-.37-7.38-.33-1.02-.36-2.65-1.43-5.06-1.07-2.41-4.18-7.24-5.2-8.36-.76-.83-2.95-2.86-4.52-4.15-.57.15-.95.3-1.41.42,1.44,1.09,4.43,3.83,4.62,4.2.21.42.73,1.95.94,2.75.21.8.35,3.48.28,4.14-.07.66-.21.97-1.18,0-.97-.97-4.14-3.93-5.22-4.94-1.08-1.01-2.16-1.57-2.92-2.16-.57-.44-.73-1.32.66-1.08,1.39.24,2.16.21,1.81-.91-.18-.56-.31-1.16-.39-1.66-1.87.48-5.48,1.52-6.49,1.7-1.16.21-2.27-.16-5.34-.23-3.06-.07-3.5-.07-4.87-.65-1.14-.48-2.71-1.75-3.97-2.93,0,.6.04.82-.31.91-.38.1-2.51.63-4.35,1.29-1.85.66-4.04,2.37-4.67,2.89-.63.52.07-1.22.24-1.67.17-.45.35-1.29,0-1.18-.35.1-1.04.07-2.61.38-1.57.31-2.75-.03-2.96-.07s.35-.49.84-.97c.49-.49,1.85-1.57,4.28-2.96,2.44-1.39,5.92-2.19,6.37-1.98.27.12.61.27,1.04.49-.26-.52-.4-1-.63-1.54-.25-.15-.49-.27-.65-.28-.51-.05-1.53.19-6.13,2.14-3.88,1.65-6.43,4.08-7.14,4.8.92.36,1.68.65,2.44.9,1.57.52,1.95.38,2.72,1.15.77.77,1.36,1.12,2.19,1.64.91.56,2.27,1.55,3.65,3.07,1.09-.65,4.43-2.42,8.37-2.31,4.8.14,9.26.8,12.36,3.62,3.1,2.82,7.48,8.23,7.1,15.45-.2,3.7-.89,5.99-1.52,7.34.76.01,1.47.05,2.05.14,1.57.25,3.6.71,5.09,1.28-.13-.4-.67-1.06-.95-1.28-.31-.24-.1-.84.07-1.39.17-.56.84-2.82.94-4.39.1-1.57.14-2.12.31-1.78.17.35.8,1.91,1.04,3.06.24,1.15.52,2.92.8,2.96.52.07,1.81-1.57,2.12-2.33.31-.77.25.42.14,1.08-.28,1.71-.73,3.17-1.18,4.39ZM86.41,70.62c-.84,1.43-1.18,1.74-1.29,1.32-.1-.42-.91-2.26-1.46-3.59-.56-1.32-.81-1.81-.87-2.44-.31-3.13-.72-5.65-1.04-6.65-.38-1.18-.63-2.12-.24-1.78.38.35,1.18,1.43,1.57,2.12.38.7,1.4,2.25,1.46,1.53.28-3.27-.28-7.97-.28-7.97-.1-1.04,1.88,3.41,2.61,6.2.45,1.7.94,4.53.97,7.55,0,.7-.59,2.26-1.43,3.69Z"/><path class="cls-1" d="M64.3,68.25c.24.91.94,3.03,1.71,4.42.77,1.39,1.22,2.44,1.78,2.85.56.42,1.5.35,2.89.59.75.13,2.11.1,3.51.09.31-.47.58-1.03.66-1.63.09-.65-.42-.35-.77.1-.35.45-1.64-.72-1.71-2.4-.03-.84.24-4.28-.14-7.17-.38-2.89-2.92-5.74-3.41-6.37-.49-.63-.52-1.32.14-1.22.66.1.42-.49.24-.91-.17-.42-.42-1.32.24-1.46.66-.14.09-.51-.38-.87-1.74-1.32-6.48-3.24-11.24-3.2-3.58.03-6.49,1.4-7.78,2.1,1.3,1.69,2.52,3.9,3.25,6.7.1.36.62.28.94.28,3.45,0,5.74,1.15,7.24,2.09,1.5.94,1.98,1.43,2.09,1.88.1.45.52,1.15.7,1.39.17.24-.21,1.81.03,2.72Z"/><path class="cls-1" d="M53.34,85.17c.49.1,2.54.94,7.21.59,2.61-.19,4.34-.65,5.36-1.02-.18-.21-.38-.43-.62-.65-1.04-1.01-1.22-1.32-1.43-1.39-.21-.07-.87-.24-2.23-.52-1.36-.28-2.78-.78-3.9-2.4-.81-1.18-.95-1.83-.95-1.83-.14-.32-.61.15-.99.17-.37.02-1.95,0-2.9-.39-.95-.39-1.56-1.09-1.83-1.42-.28-.32-2.41-2.69-2.65-2.81-.23-.12-1.72-.49-4.32-1.09-.81-.19-1.59-.36-2.33-.52.95,1.62,2.69,4.58,3.15,5.28.59.91,1.67,1.39,1.29.52-.38-.87-.59-1.91-.1-1.36.49.56,3.55,3.52,5.47,4.87,1.91,1.36,1.64,2.4,1.5,2.68-.14.28-.21,1.18.28,1.29Z"/><path class="cls-1" d="M34.71,72.67c-.31-.42-.7.28-1.43-.21-.61-.41-.98-.25-1.43.2.54.82,1.11,1.55,1.68,2.02.51.41,1.02.8,1.52,1.15.25-.34.41-.11.63.44.77.54,1.45.99,1.89,1.38.81.72,1.35,1.86,1.76,3.2.42,1.35.58,1.76.86,2.39.21.48.17,1.26.22,2.04.87,1.09,3.11,3.14,3.42,3.58.35.49.21.52.28.84.07.31.87,1.46,1.88,2.54.56.6,1.28,1.42,1.81,2.04.25.04.5.07.77.08.26.02.57,0,.93,0-.46-.44-1-.96-1.49-1.45-1.04-1.04-1.11-2.09-.91-1.91.21.17,1.11.59,2.75,1.04,1.64.45,2.85.52,3.59.52s2.89.14,3.93.7c1.04.56-1.57.45-1.18.77.38.31.87,1.71.59,1.64-.2-.05-.44.16-.35.9,1.14,1.14,1.81,1.74,2.74,1.96,1.14.27,3.86.08,5.42,1.17,1.59-.31,5.35-1.15,8.24-2.65,1.69-.88,3.01-1.86,3.94-2.67,0,0,0,0,0,0-1.21-.42-2.13-1-2.59-1.34-.97.65-2.11,1.23-3.26,1.44-3.03.56-2.68-1.78-2.37-2.33.31-.56-1.01.21-2.47,1.25-1.46,1.04-.7,1.78.24,2.16.94.38,1.67.77,1.11,1.01-.56.24-3.31,1.22-5.57,1.43-2.26.21-3.13-1.22-2.75-1.22s.38-.42-.1-.91c-.49-.49-.1-1.18.31-1.46.42-.28,1.29-.94,1.01-1.08-.28-.14-.8-.7-.45-.7s2.51-.31,3.66-.35c1.15-.03,2.44-.42,2.61-.77.17-.35.7-.56,1.64-.63.76-.06,1.62-.5,2.23-1.25-1.01-.77-2.19-1.67-2.72-2.69-.23-.44-.43-.83-.66-1.2-3.02,1.35-8.44,1.44-9.36,1.37-1.01-.07-3.45.66-9.4-3.31-5.22-3.48-7.46-10.61-7.94-12.33-.88-.2-1.65-.39-2.29-.59-1.53-.49-2.48-1.6-3.55-2.65-.05-.05-.1-.1-.15-.15.27.52.59,1.22.74,1.79.24.94.73,2.4,1.01,3.48.12.48-.66-.28-.97-.7Z"/><path class="cls-1" d="M29.98,62.33c-.29-.82-.47-1.41-.51-1.65,0-.03-.03-.07-.07-.12-.25.53-.5,1.24-.62,2.12-.17,1.24-.07,2.61.05,3.69.17.68.39,1.4.67,2,.69-.37,2.05-1.46,2.4-1.72.24-.18.67-.02,1.04.22-.32-.48-.48-.88-.47-1.08.02-.37-.07-.77-.35-.91-.03-.02-.08-.05-.15-.09-.09.08-.18.16-.25.22-.52.45-.91.56-1.43.59-.52.03-.45-1.11-.35-2.4.02-.31.04-.59.04-.87Z"/><path class="cls-1" d="M63.05,22.99c.6.37.7.67,1.03,1.27,0,0,1-.27,1.7-.7.7-.43,1.4-.23,2.33-.67.93-.43,3.2-.9,4.93-.87,1.73.03,3.13-.1,4.4-.37,1.27-.27,1.97-.67,3.1-1.13,1.13-.47,3.2-.73,4.53-.73s2.83.1,3.9.8,2.17.7,3.87,2.83c1.7,2.13,2.63,4.1,2.87,4.83.23.73.67,1.5.63,1.97,0,0,.7.47,1.13,1.2.43.73,1.5,2.27,1.63,3,.13.73.23,1.5.87,2.27,0,0-.13-1.5-.03-2.13.1-.63-.33-1.77-.87-2.53-.53-.77-.93-1.93-1.37-2.37-.43-.43-1.03-1.03-1.07-1.3-.03-.27-.13-2.73-.77-4.07-.63-1.33-1.97-2.3-3.7-3.13-1.73-.83-2.57-1.67-5.07-2.07-2.5-.4-3.37.07-4.57.4-1.2.33-3.43,1.07-4.97,1.17-1.53.1-3.9.2-5.9.33-2,.13-3.53.87-5,1.13-1.47.27-2.13.43-3.03.17-.9-.27-1.5-.37-1.5-.37,0,0,.3.7.9,1.07Z"/><path class="cls-1" d="M171.62,9.6c.56.28,1.39-.73,2.16-1.32.77-.59.66-.63,1.64-1.04.97-.42,2.85-.28,3.76-.28s4.42.52,6.3,1.04c1.88.52,4.6,1.71,5.88,1.88,1.29.17,2.33.91,2.72,1.36.38.45,1.08,1.22,2.12,1.71,1.04.49,1.71.7,1.88.28.17-.42-.52-.87-.97-1.25-.45-.38-.59-.84-2.19-2.61-1.6-1.78-2.68-2.79-5.05-4.32-2.37-1.53-4.7-2.19-7.69-2.44-2.99-.24-4.28.73-6.06,1.95-1.78,1.22-3.9,2.58-4.46,3.31-.56.73-.59,1.46-.03,1.74ZM177.49,5.65c.37-.21,2.39-1.25,3.16-1.39.77-.14,2.16-.81,2.92-.6.77.21,1.23-.3,1.81.09.58.39,2.74,1.21,3.3,1.49s1.32.65,1.55,1.09c.23.44,1.53.93,1.9,1.21.37.28.67.95.16.77-.51-.19-.42.05-.05.28.37.23,2,1.76,1.37,1.46-.63-.3-2.16-1.32-2.83-1.46-.67-.14-2.76-.79-3.5-1.16-.74-.37-2.76-1.51-3.23-1.58-.46-.07-1.25-.23-1.76-.09-.51.14-1.74.12-2.53,0-.79-.12-1.74.02-1.93.02s-.72.09-.35-.12Z"/><path class="cls-1" d="M229.62,36.83c-2.19-2.48-5.32-3.72-9.41-3.72h-3.7c-1.48.21-2.78.36-3.91.43v64.46c2.18.21,3.8.37,4.86.48,1.06.11,2.22.16,3.49.16,5.49,0,9.2-2.59,11.1-7.76,1.9-6.1,2.85-14,2.85-23.72,0-4.75-.28-9.79-.85-15.1-.78-7.66-2.26-12.73-4.44-15.21ZM216.03,36.67c.25-.03.5-.07.76-.1h3.48c3.11,0,5.37.84,6.91,2.57.95,1.08,2.7,4.24,3.62,13.28.1.95.19,1.89.28,2.82-.33.12-.73.26-1.06.35-.7.19-1.39-.14-2.37-.93-.97-.79-1.25-1.67-3.11-6.78-1.56-4.3-6.88-5.83-8.52-6.21v-5ZM216.03,44.01c.38.15.89.39,1.58.79,1.44.84,3.99,2.74,4.34,3.34.35.6.67,1.42.95,1.9.28.49.81,1.09.88,1.49.07.39.16,2.16.39,2.51.23.35.73.81,1.18,1.36.45.56,2.37,1.67,3.38,2.02,1.01.35,1.91.28,2.37.49.06.03.13.06.2.09.17,2.39.27,4.72.32,6.98-.45.15-1,.31-1.29.28-.53-.07-.91-.02-1.49.12-.58.14-2.23.09-3.53.09s-4.08-.33-6.03-.81c-1.37-.34-2.62-1.61-3.25-2.34v-18.29ZM228.96,89.75c-1.42,3.77-3.87,5.45-7.93,5.45-1.15,0-2.22-.05-3.17-.14-.49-.05-1.09-.11-1.82-.18v-16.95c.52-.09,1.63-.32,3.53-.9,2.83-.86,3.9-1.14,4.94-1.62,1.04-.49,2.85-.74,3.32-.74s1.09-.23,1.42-.26c.24-.02,1.49-.3,2.22-.45-.34,6.24-1.18,11.53-2.51,15.78ZM231.53,72.58c-.48.32-1.1.72-1.55.86-.81.26-1.55.26-2.32.49-.77.23-1.65.26-1.95.37-.3.12-1.53.42-2.2.51-.67.09-2.83.07-3.53.16-.7.09-1.97.42-2.81.44-.55.02-.9-.17-1.14-.49v-10.06c.33.32.67.66.81.77.3.26,1.32.79,1.79,1.11.46.32,1.49.42,1.9.37.42-.05.97.16,1.95.32.97.16,3.13.12,5.55.16,1.63.03,2.94-.33,3.61-.57,0,.04,0,.08,0,.12,0,1.88-.04,3.68-.11,5.42Z"/><path class="cls-1" d="M627.17,58.42c-.42.45-2.31,1.36-3.26,2.09-.95.72-3.54,2.7-4.29,3.06-.75.36-1.98,1.36-3.34,2.84-1.36,1.48-1.36,3.04-1.45,4.18-.08,1.14-.7,1.34-1.14,3.17-.45,1.84-1.81,4.48-1.89,5.57s-.97,5.04-1.11,5.93c-.14.89-.7,1.64-1.17,2.03-.47.39-2.59,1.98-3.73,2.67s-3.7,1.59-4.6,1.92c-.89.33-3.26,1.09-4.37,1.67-1.11.58-3.01.97-4.6,1.84-1.59.86-3.51,1.7-4.48,2.48-.97.78-2.84,1.92-3.84,2.65-1,.72-2.23,1.36-3.12,2.28-.89.92-.42,1.09.22.89.64-.19,2.95-1.53,3.2-1.73.25-.19.5-.33,1.42-.31.92.03,2.98.14,5.54.19,2.56.06,5.46.03,6.8-.25s4.07-1.53,4.54-1.53,3.04-.81,4.9-1.53c1.87-.72,6.18-3.43,7.16-4.37.97-.95,2.42-3.95,2.81-4.79s.84-2.14,1.14-2.53c.31-.39.53-2.37.86-4.15.33-1.78.67-5.65.72-7.32.06-1.67,1.11-5.96,1.39-6.85.28-.89,2.34-4.37,2.53-4.6.2-.22,1.2-1.59,1.45-1.81.25-.22,1.59-1.5,2.26-2.45.67-.95,1.11-1.81.84-2.01-.28-.19-.97.31-1.39.75ZM623.33,63.38c-.7.92-3.57,7.88-4.18,9.44-.61,1.56-.67,3.4-.84,5.04-.17,1.64-.42,4.57-.89,5.38-.47.81-1.42,1.78-1.45,3.04-.03,1.25.03,2.17-.22,2.65-.25.47-1.03,1.78-1.5,2.81-.47,1.03-1.59,2.17-1.92,2.37-.33.2-2.37,1.98-3.65,2.53-1.28.56-4.01,1.53-4.76,1.75-.75.22-3.84,1.14-4.18,1.11-.33-.03-2.67.14-3.68.25-1,.11-3.48.19-4.32.17-.84-.03-2.67.08-3.29.17-.61.08-1.49.23-1.67.11-.31-.19.06-.58.95-1.09.89-.5,3.29-2.03,5.43-2.67,2.14-.64,4.43-1.14,6.07-2.17,1.64-1.03,5.04-2.26,6.04-2.81,1-.56,3.45-1.89,4.37-3.23.92-1.34,2.06-3.04,2.56-4.26.5-1.23,1.78-3.98,2.56-7.63.78-3.65,1.25-7.27,2.62-8.94,1.36-1.67,2.03-2.34,3.4-3.31,1.36-.97,2.37-1.48,2.73-1.67.36-.19.5.06-.19.97Z"/><path class="cls-1" d="M135.33,38.71c-.18-.92-.27-1.98-.27-3.19,0,1.21-.05,2.13-.16,2.77-.11.64-.34,1.63-.69,2.98l-7.36,30.1h16.7l-7.62-30.22c-.22-.71-.42-1.52-.6-2.44ZM131.27,68.01l.41-1.66c1.34.08,3.23.04,3.92,0,.92-.06,1.73.56,1.92,1,.07.16.15.41.22.66h-6.47ZM138.96,66.5c-.5-.46-.84-.45-1.1-.65-.33-.25-1.23-.5-2.42-.45-.95.04-2.47.09-3.51-.02l.94-3.82c.35-.07.76-.18,1.04-.33.43-.23,2.48-1.33,3.24-1.89l1.82,7.16ZM136.08,58.47c-.54.91-1.28,1.28-1.84,1.7-.41.3-1,.81-1.3,1.07l2.31-9.37,1.37,5.42c-.12.35-.29.75-.54,1.19Z"/><path class="cls-1" d="M99.65,49.61c.49,1.42.83,2.11.87,2.48,1-1.4.93-2.43.63-4.3-.3-1.87-1.47-3.4-2.23-4.33-.77-.93-1.97-2-4.47-2.4-2.5-.4-4.1-.47-5.97-.7-1.87-.23-4.3.17-6.1.5-1.8.33-3.43.97-4.77,1.47-1.33.5-3.53,1.33-4.67,1.63-1.13.3-3.47.9-6.53.9s-2.67.4-3.87.17c-1.2-.23-3.13-.33-5.03-1.47-1.68-1-2.4-1.83-2.97-2.97-.57-1.13-1.43-2.63-1.77-3.33-.33-.7-1.8-4.17-2.43-5.17-.63-1-1.4-2.23-1.73-2.47-.33-.23-1.77-1.23-2.87-1.73s-2.57-.87-4.57-.67c-2,.2-2.43.9-3,1.4-.57.5-1.13,1.5-1.23,2.57,0,0,.67-.67,1.17-1.17s1.53-1.53,3.6-1.43c2.07.1,4.13-.07,5.03,1,.9,1.07,1.83,1.5,2.63,3.03.8,1.53,2.3,4.93,3,6.3.7,1.37,1.73,2.73,3.33,4.2,1.6,1.47,2.97,2.13,4.9,2.53,1.93.4,2.7.2,3,.13.3-.07.73.13,2.67.13s3.37-.2,5.23-.7c1.87-.5,1.7-.63,3.37-.83,1.67-.2,3.43-1,4.3-1.3.87-.3,5.4-1.43,9.2-.9,3.8.53,7.06,2.44,8.4,3.8,1.32,1.33,2.31,2.01,2.87,3.62Z"/><path class="cls-1" d="M492.49,35.51c-1.83-1.63-4.47-2.44-7.93-2.44-5.85,0-9.37,2.12-10.57,6.37l-.64,5.1v43.33c0,.78.07,1.63.21,2.55.14.92.28,1.77.42,2.55.42,1.56,1.27,2.87,2.54,3.93,1.69,1.63,4.37,2.44,8.03,2.44,5.85,0,9.3-2.12,10.36-6.37.42-1.63.64-3.33.64-5.1v-43.33c0-1.77-.21-3.47-.64-5.1-.42-1.63-1.23-2.94-2.43-3.93ZM484.53,36.44c1.35,0,2.52.15,3.5.44-1.02.64-2.84,1.51-5.64,2-2.86.5-4.26.6-4.92.6.56-1.29,2.05-3.04,7.05-3.04ZM476.69,62.16c.12-.14.27-.29.42-.44.52-.52,2.33-.84,3.55-.7,1.22.14,3.52,1.64,4.87,2.99,1.36,1.36,2.37,5.12,2.99,7.59.63,2.47.1,4.73-.77,7.24-.87,2.51-2.92,3.97-3.9,4.67-.97.7-2.68,1.71-4.46,2.12-1.15.27-2.15-.13-2.72-.45v-23.03ZM486.22,95.66c.54-.69,1.92-2.33,3.18-2.82.95-.37,1.68-.44,2.11-.43-.36,1.14-1.32,2.87-5.29,3.25ZM492.17,87.7c0,1.02-.09,2.02-.26,2.99-.71.33-1.89.85-2.83,1.17-1.43.49-2.85,1.91-3.79,2.75-.39.35-.91.76-1.38,1.11-2.39-.07-4.15-.58-5.09-1.48-.06-.06-.12-.11-.18-.16-.71-.59-1.15-1.25-1.4-2.07-.12-.63-.24-1.36-.38-2.28-.03-.22-.06-.43-.09-.64.38.39.93.99,1.17,1.49.38.8.91,2.4,1.01,2.19.1-.21.56-1.81.28-2.44-.28-.63-1.11-1.88-1.57-2.44-.45-.56-.14-.94.7-.94s1.67-.03,2.47-.31c.8-.28,2.65-.66,3.93-1.39,1.29-.73,2.33-1.5,2.99-1.67.66-.17,2.19-1.46,2.96-1.85.46-.23,1.06-.57,1.45-.79v6.76ZM492.17,78.96c-.49.5-1.1,1.12-1.52,1.48-.8.7-1.74,1.46-2.16,1.22-.42-.24.38-1.39.52-1.78.14-.38,0-1.04.35-1.98s.49-2.19.7-2.61c.21-.42-.07-3.24-.45-5.57-.38-2.33-1.43-3.45-1.46-4.63-.03-1.18-1.71-2.58-2.51-3.38-.8-.8-2.99-1.78-4.49-1.98-1.5-.21-1.91.14-1.95-.28-.03-.42,1.43-.84,3.2-.97,1.78-.14,2.19.59,2.75.56.56-.03,1.74.21,2.47.49.73.28,1.88.8,2.68,1.08.43.15,1.21.45,1.87.71v17.65ZM492.17,60.44c-.28-.06-.56-.12-.75-.19-.59-.21-1.67-.94-2.37-1.04-.7-.1-1.81-.63-2.65-.87-.84-.24-1.78-.77-1.78-1.04s1.32-.91,2.23-1.15c.91-.24,2.23-1.01,2.75-1.25.38-.18,1.81-1.06,2.56-1.52v7.07ZM492.17,52.65c-.78.51-2.33,1.52-2.95,1.85-.84.45-3.52,1.25-4.7,1.5-1.18.24-4.28.77-5.01,1.08-.55.24-2.1,1.37-2.82,1.91v-14.3l.24-1.9c.88,0,3.33-.19,7.63-1.9,3.49-1.38,5.06-2.32,5.74-2.83.01.01.03.02.04.04.65.53,1.06,1.21,1.31,2.15.35,1.34.53,2.76.53,4.22v8.18Z"/><path class="cls-1" d="M633.11,33.86c.59-.53,2.08-2.06,2.63-3.31.55-1.25.24-1.56.51-1.65.28-.08.48-.11.69.24.21.35.73,1.57,1.57,2.51.84.94,2.3,1.18,3.55,1.46,1.25.28,2.05.14,2.96.14s.77-.8.77-1.08-.94-.59-2.33-1.29c-1.39-.7-2.16-1.39-2.51-2.09-.35-.7-.35-1.64-.77-2.37-.42-.73-1.63-1.85-1.98-2.23-.35-.38-.34-1.09-.2-1.71.14-.63.24-2.78.24-3.89s-.1-2.26-1.11-3.27c-1.01-1.01-2.69-1.96-3.38-2.3-.07-.52-1.71-1.43-4.25-2.72-2.54-1.29-5.26-.52-7.14.49-1.88,1.01-1.64.63-2.89,1.64-1.25,1.01-1.29,2.85-1.25,3.59.03.73-.38,2.05-.52,2.68-.14.63-.91,2.51-1.01,3.41-.1.91-1.57,1.98-2.44,2.61-.87.63-2.47.7-3.62.7s-2.79-.94-3.69-1.88c-.91-.94-3.69-2.33-5.19-2.85-1.5-.52-3.24-.14-4.6-.21-1.36-.07-2.54.91-3.52,1.71-.97.8-3.31,1.81-4.46,2.44-1.15.63-1.53.8-1.78,1.6-.24.8-1.29,1.57-1.43,1.67-.14.1-.07-1.43.24-1.95.31-.52-.21-1.08-.49-1.53-.28-.45-1.22-.59-1.36-.97-.14-.38-1.01-1.32-2.79-1.74-1.78-.42-4.39.17-5.85.97-1.46.8-3.66,2.75-5.26,4.46-1.6,1.71-3.1,3.66-3.41,3.93-.31.28-1.67,1.15-3.06,1.98-1.39.84-2.65,1.29-3.69,1.22-1.04-.07-1.36-.84-1.95-1.5-.59-.66-1.04-1.36-1.04-1.5s.21-.35.59-.87c.38-.52,1.11-1.08,2.23-1.74,1.11-.66,3.03-1.85,4.04-2.54,1.01-.7,2.16-1.57,3.13-2.99.97-1.43.8-2.92.28-3.13-.52-.21-.97.24-1.11,1.01-.14.77-.31,1.18-.9,1.81-.59.63-1.11.97-1.81,1.25-.7.28-1.64.84-2.58,1.11-.94.28-1.64.97-2.61,1.11-.97.14-2.44.94-3.27,1.39-.84.45-.84,1.29-.87,1.91-.03.63.1,2.96-.03,3.59-.14.63.21,1.88.07,2.3-.14.42.87,2.05,2.68,2.96,1.81.91,4.18.73,5.61.28,1.43-.45,2.37-.1,3.66-.31,1.29-.21,2.61.94,3.79,1.5,1.18.56,2.47,2.09,3.1,2.68.63.59,1.15,2.89,1.32,3.45.17.56-.24,2.4-.73,3.76-.49,1.36-2.75,3.45-3.41,4.07-.66.63-2.12,1.01-2.61,1.32-.49.31-.28,1.25.17,1.43.45.17-.31.77-1.64,1.47-1.32.7-3.66,1.98-6.03,5.12-2.01,2.66-2.13,4.78-1.71,6.45.42,1.67,1.72,3.4,2.42,3.89.7.49,1.43,1.67,1.57,2.16.14.49.97,1.15.59,1.29-.38.14-.17,1.11-.73,1.57-.56.45-.63.73-1.04.87-.42.14-1.85.24-3.13.21-1.29-.03-2.69-.8-3.6-1.29-.91-.49-1.8-1.01-3.05-1.25-1.15-.22-4.38-.51-5.95-.87-.92-1.9-2.06-3.63-3.41-5.17-1.14-1.36-2.69-2.98-4.59-4.8-1.62-1.54-4.01-3.71-7.11-6.46-3.05-2.7-5.18-4.65-6.34-5.8-.8-.8-1.86-2.06-3.16-3.74-1.47-2.13-1.89-3.06-2-3.36-.1-.27-.32-1.07-.32-3.01,0-2.21.66-3.97,2.01-5.37,1.35-1.4,3-2.04,5.2-2.04,2.9,0,4.08,1.19,4.72,2.08.85,1.19,1.87,3.83,1.87,9.6,0,1.88,1.53,3.41,3.41,3.41h5.1c1.88,0,3.41-1.53,3.41-3.41v-17.21c0-1.35-.79-2.57-2.02-3.11l-2.87-1.28s-.04-.02-.07-.03c-2.88-1.21-5.18-2.03-7.01-2.49-1.94-.49-4.03-.74-6.21-.74-6.52,0-11.95,1.94-16.12,5.78-2.17,1.99-3.79,4.29-4.86,6.9-.18-.52-.38-1.04-.6-1.57-.47-1.12-1.07-2.18-1.79-3.17-.1-.79-.24-1.86-.45-2.95-.42-2.16-.42-4.46-.42-6.09s1.04-3.06,2.23-4.28c1.18-1.22,4.8-1.43,6.09-1.39,1.29.03,1.6,1.81,1.74,2.65.14.84.66,1.91,3.9,2.23,1.93.19,3.13-.46,3.79-1.01.09,0,.17,0,.25,0,.97-.07,1.43-.94,1.36-1.32-.07-.38-1.08-.17-1.78-.31-.7-.14-1.91-.07-2.82-.14-.91-.07-1.57-1.6-1.64-2.54-.07-.94-.28-2.05-2.12-3.59-1.85-1.53-5.22-1.6-8.56-1.71-3.34-.1-4.98,1.32-5.5,1.84-.52.52-1.18.97-1.98,1.64-.8.66-.97,1.43-1.78,2.58-.8,1.15-.73,3.55-.24,5.67.28,1.24.28,2.21.23,2.8-3.2-1.41-6.79-2.12-10.74-2.12-4.87,0-9.11.96-12.6,2.85-3.7,2-6.34,4.92-7.84,8.68-1.13,2.6-1.77,5.04-1.9,7.26-.02.43-.05.91-.07,1.45-.47-2.04-1.01-3.9-1.64-5.59-1.57-4.53-4.13-8.07-7.59-10.52-.79-.56-1.61-1.05-2.47-1.48-.62-1.72-1.32-2.14-2.22-2.72-.91-.59-4.87-3.06-6.41-3.97-1.53-.91-5.33-3.73-6.51-4.6-1.18-.87-3.59-2.75-4.35-3.93-.77-1.18-2.05-2.92-3.69-4.67-1.64-1.74-4.87-2.68-7.35-2.85-2.47-.17-5.81.56-7.17.73-1.36.17-3.06.77-4.42,1.08-1.36.31-4.14.35-5.95.77-1.81.42-5.71.84-6.48,1.11-.77.28-2.54-.17-4.11-.45s-3.27-.21-4.49-.1c-1.22.1-1.81-.21-2.37-.8-.56-.59-1.22-.84-2.54-1.36-1.32-.52-2.79-1.11-5.4-2.16-2.61-1.04-4.98-1.64-8.77-1.85-3.79-.21-6.61.97-7.31,1.11-.7.14-1.25.56-2.09.7-.84.14-2.51.91-4.73,2.51-2.23,1.6-3.17,1.74-4.53,2.54-1.36.8-3.03,1.6-3.62,1.81-.59.21-2.51-.03-3.9-.38-1.39-.35-4.7-.63-6.75-.84-2.05-.21-4.84-.49-7.76.45-2.92.94-5.5,3.97-6.51,5.19-.69.83-2.02.45-3.27-.17-1.25-.63-3.1-1.74-4.91-2.99-1.81-1.25-5.6-3.17-7.9-4.42-2.3-1.25-3.86-1.29-5.15-1.91-1.29-.63-2.75-.56-3.2-.49-.45.07-1.25-.14-1.67-.42-.42-.28-1.67-.56-5.29-.8-3.62-.24-7.24.49-9.16,1.18-1.91.7-3.1,1.29-4,2.05-.91.77-2.23,1.01-2.85,1.11-.63.1-1.91.63-2.02,1.18-.1.56.63.42.63.42,0,0-1.6,1.57-2.89,3.27-1.29,1.71-.97,2.51-.97,2.85s-.28.77-1.25,2.09c-.97,1.32-2.3,3.03-4.25,4.6-.85.68-1.49,1.11-2.05,1.42.37-.55-.81-2.13-1.32-2.85-.53-.76-1.49-1.32-3.2-3.48-1.72-2.16-4.1-3.81-7.24-5.99-3.14-2.18-6.69-3.24-8.22-3.62-1.53-.38-3.1-.8-3.76-.97-.66-.17-1.4-.27-2.37-.84-.97-.56-4.05-.31-8.22.42s-8.94,2.94-9.89,3.62c-.95.68-1.56,1.09-2.51,1.67-.95.59-3.85,2.87-5.71,4.32-1.85,1.45-4.16,2.41-6.13,2.92-1.97.52-4.66,1.22-7.1,1.67-2.44.45-7.92,1.67-9.61,1.81s-3.01.07-4.04.28c-1.03.21-3.11.72-4.18.97-1.06.25-4.19,1.04-5.29,1.11-1.1.07-1.67.09-4.18-.14s-4.08.79-5.71,1.39c-1.63.61-2.7.29-3.06.42-.36.13-.39.68-1.95,1.11-.77.21-.34.88.14,1.67.48.79,0,1.43.14,2.37.14.94-.51,1.94-.56,2.65-.04.7-.83,1.51-1.25,1.67s-.96-.38-2.09-.14c-1.13.24-1.18.35-1.53-.14-.35-.49-.04-1.4.14-2.51.18-1.1.74-3.03.56-6.13-.19-3.1-3.26-6.63-6.68-8.77-3.42-2.15-6.96-1.41-7.52-1.25-.56.16-1.58.25-2.51,0-.92-.25-3.99-.56-7.66.28-3.67.84-7.16,4.93-7.52,5.85-.36.92-.93,1.41-1.25,1.53-3.87,1.52-5.71,5.06-5.85,5.71-.14.65-.43,1.02-.97.56-3.06-2.58-6.01-2.94-6.41-3.2-.39-.27-2.06-1.03-3.34-1.39-1.28-.36-2.31-.41-3.62-.97-1.31-.57-3.34-.56-3.34-.56.4.55.84,1.95.84,1.95.31.28.95.13,2.1.27,1.15.14,3.48.49,4.21.77.73.28,1.32.56,3.06,2.16,1.74,1.6,3.38,4.35,3.83,5.26.45.91,0,3.27,0,3.59s.56,1.57,1.01,2.58c.45,1.01.8,2.02-.35,4.18-1.15,2.16-2.23,2.47-3.86,2.85-1.64.38-2.51.28-2.37.42.3.3,2.44.28,3.24.1.8-.17,1.88-.52,3.72-2.54,1.85-2.02,1.5-3.83,1.04-4.87-.45-1.04-1.29-2.51-1.22-2.72.07-.21.45-1.67.17-2.96-.28-1.29-.91-2.89-1.74-3.83-.84-.94-1.85-2.23-2.02-2.54-.17-.31,1.57.35,2.92,1.25,1.36.91,1.9,1.84,3.02,2.63,1.11.79,1.67,2.14,2.27,3.16.6,1.02,1.67,2.55,1.95,2.74.28.19,1.58.42,2.23.56.65.14,1.9.74,3.34,1.72.3.2.58.4.84.6l-5.4,21.01c-.64-.15-1.72-.46-2.66-1-1.43-.82-2.1-1.71-2.37-1.95-.26-.24-.45-.62.28-.97.72-.35,1.46-1.04,1.53-1.39.07-.35-.48.26-1.39.7-.92.43-1.17.4-2.09.84-.92.43-1.67.69-3.2.84-1.54.14-2.58-.02-3.9-.28-1.32-.26-2.65-.84-2.65-.84,0,0,.61,1.49.7,1.81,0,0,1.16.86,3.76.7,2.6-.17,3.98-.46,4.6-.7.61-.23.78-.45,1.25.14.47.59,1.22,1.49,2.23,1.95,1.01.46,1.64.48,1.39,1.53-.25,1.05-1.34,3.4-2.23,4.46-.89,1.05-3.33,3.3-5.01,3.9-1.69.6-2.58.29-3.34,0-.76-.29-1.53-.84-1.53-.84v1.39s2.01.8,3.9.28c1.89-.52,3.99-1.81,5.71-3.48,1.72-1.67,3.14-3.65,3.34-4.32.21-.67.18-1.05.28-1.39.07-.25.3-.34,1.11-.23l-2.1,8.17c-.57.42-1.28.88-1.99,1.21-1.67.78-3.23,1.81-4.99,2.34-1.75.53-5.26,1.34-6.15,1.36,0,0,1.67.25,2.78.31,1.11.06,1.95.14,2.62.5.67.36,1.2.58,1.7.78,0,0,1.89-.56,3.4-1.48.59-.36,1.15-.75,1.62-1.11l-1.69,6.58c-.12-.35-.22-.63-.31-.78-.33-.61-1.71-1.93-2.68-2.35-.97-.41-1.93-1.3-3.21-1.35-1.27-.06-3.48-.28-5.44-.22-1.96.06-2.35.41-4.14.47-1.8.06-4.03.03-6.13.33-2.1.3-3.37.86-4.14,1.24-.77.39-1.44.64-1.99.55-.55-.08-1.93-.61-4.26-1.1-2.32-.5-5.17-1.05-6.82-1.1-1.66-.06-3.65-.11-4.39-.36-.75-.25-2.6-.94-3.12-1.52-.52-.58-1.49-2.1-2.13-4.09-.64-1.99-.86-3.51-1.05-4.14-.19-.64-.06-1.82-.11-2.02-.06-.19-2.74-2.46-4.34-3.04-.79-.28-1.27-.39-1.81-.55-.55-.16-1.14-.37-1.57-.42-.83-.08-2.07.03-2.43,0-.36-.03-.97-.06-1.11-.64-.14-.58-.8-4.7-3.87-7.57-3.07-2.87-3.95-3.59-5.08-4.25-1.13-.66-3.67-1.63-5.06-2.1-1.38-.47-2.13-1.16-5.39-1.05-3.26.11-3.73-.11-5.36.19-1.63.3-2.1.77-2.43,1.1-.33.33-.88.97-1.19.94-.3-.03-1.85-.22-2.9-.03-1.05.19-3.18.22-4.5.61-1.33.39-4.26,1.66-5.61,2.35-1.35.69-2.57,1.49-3.04,1.74-.47.25-1.22.64-.61-.83.61-1.46,1.77-3.51,3.4-5.33,1.63-1.82,3.48-4.2,4.12-4.75.64-.55,2.35-1.96,3.21-2.32.86-.36,2.57-1.08,3.84-1.55s2.87-.94,3.23-1.16c.36-.22-.41.08-1.63.28s-3.26.75-3.7.97c-.44.22-.72.17-.66-.36.06-.52.61-2.21.86-2.96.25-.75.83-1.85,1.82-2.65.99-.8,1.91-1.49,2.29-1.52.39-.03,2.49-.66,4.67-1.6,2.18-.94,3.81-1.93,4.5-2.71.69-.77,2.82-2.98,4.06-3.81,1.24-.83,2.32-1.46,3.18-1.49.86-.03,2.16-.06,3.15.17.99.22,2.76.77,3.76,1.24.99.47,2.13,1.1,2.35,1.13.22.03,1.66.14,2.04.08.39-.06,1.52-.39,3.37-.33,1.85.06,3.67.44,4.7,1.1,1.02.66,2.51,1.71,3.18,2.1.66.39,1.66,1.27,2.21,1.85.55.58,1.57,2.32,1.55,4.14-.03,1.82-1.82,3.4-2.49,3.73s-1.63.3-2.18.14c-.55-.17-.94-.41-1.13-.47-.19-.06.61,1.16,2.65,1.24,2.04.08,3.25-.89,3.84-1.99.91-1.69.64-2.4.72-3.09s-.36-1.85-.86-2.46c-.5-.61-.55-.8-.72-1.38-.17-.58-.99-1.6-2.21-2.32-1.22-.72-1.88-2.07-3.21-2.65-1.33-.58-2.79-.55-3.84-.75-1.05-.19-1.99-.72-2.96-.64-.97.08-2.54.52-3.37.52s-.94-.64-1.05-.8c-.11-.17-2.4-2.32-4.42-2.49-2.02-.17-3.7.06-5.44.91-1.74.86-3.32,1.33-4.42,1.71-1.11.39-2.13,1.88-3.65,3.4-1.52,1.52-4.06,3.01-5.28,3.31-1.22.3-3.95.75-5.69,2.43-1.74,1.69-2.18,2.02-2.46,2.96-.28.94-.94,2.35-1.22,3.73-.28,1.38-.25,1.49-.88,1.91-.64.41-1.82,1.13-3.12,2.13-1.3.99-3.37,2.93-5.14,5.33-1.77,2.4-2.85,4.28-3.34,5.55-.5,1.27-1.11,2.1-1.22,2.85-.11.75-.17,1.22-.39,1.49-.22.28-2.24,2.82-2.76,4.28-.53,1.46-.58,2.24-.61,3.15-.03.91-.25,3.01-.14,4.36.11,1.35.55,2.54.97,3.51.41.97,1.11,1.85.99,2.13-.11.28-.64,3.04.06,5.19.69,2.15,2.07,5.28,2.54,6.27.47.99,1.49,1.49,2.32,1.91.83.41,1.6,1.02,1.99,1.66.39.64,1.33,2.27,1.82,2.76.5.5,2.27,2.49,3.01,3.12.75.64,1.49,1.1,2.29,2.29.8,1.19,1.3,1.93,1.82,2.35.52.41.83,1.24,1.33,1.66.5.41,1.52.97,2.32,1.82.8.86,3.26,2.1,3.98,2.65.72.55,3.56,2.15,4.31,2.4.75.25,1.74.17,2.32.69.58.52,2.54,1.22,3.43,1.57.88.36,2.35.9,3.95,1.46,2.9,1.02,3.54.65,4.12.99.58.34,2.85,3.43,5.56,4.79,2.71,1.35,5.51,2.9,10.64,2.42,5.13-.48,5.51-.68,7.88-.68s5.27-.53,7.78-.68q2.51-.15,3.63-.34c1.11-.19,2.03.39,4.45.82s5.56.82,12.96,1.06c2.66.09,5.51-.05,5.51-.05,0,0-3.96-2.08-5.08-3.09,0,0-1.64.73-4.55.97-2.9.24-6.09.48-10.4-.19-4.3-.68-4.82-1.26-5.74-1.64-.92-.39-2.1-.97-2.29-1.11-.19-.15,1.13-2.35.34-4.64-.33-.97-2.43-2.14-3.55-2.19-1.11-.05-1.82.11-1,1.08.82.97,1.6,1.55,1.79,2.27.19.73-.1,3.19-2.85,4.69-2.76,1.5-5.82,2.45-11.09,2.45s-8.56-2.47-13.2-6.67c0,0-2.23-.63-4.63-1.52-2.4-.89-7.08-2.13-9.01-3.13-1.93-1.01-7-3.91-9.21-5.76-2.21-1.86-4.76-4.45-5.57-5.53-.81-1.08-1.86-2.09-2.28-3.13-.43-1.04-1.78-3.79-2.48-5.14-.7-1.35-1.88-3.22-2.35-3.56-.46-.35-.47-.73.15-.93.62-.19,1.87-.09,3.26-.96,1.6-.99,1.88-1.13,2.24-1.6.36-.47.75-1.55.77-2.07.03-.52-.03-1.22-.14-1.44-.11-.22-.19.8-.33,1.19-.14.39-1.19,2.13-1.88,2.46-.69.33-1.88,1.22-3.23,1.3-1.35.08-2.74-.22-3.76-1.52-1.02-1.3-2.54-3.84-2.54-5.33s.03-3.89-.14-4.42c-.17-.52-1.49-2.71-1.8-4.34-.3-1.63.17-4.45,1.05-5.61.88-1.16.91-2.13,1.96-3.45,1.05-1.33,2.96-2.62,4.26-3.67,1.3-1.05,4.61-2.93,6.93-3.43,2.32-.5,3.07-.61,3.73-.61s1.33.03,2.16-.06c.83-.08.91.17,2.24.64,1.33.47,1.57.28,2.29.47.72.19,1.71.44,1.69.3-.08-.38-.55-.91-.8-1.08-.25-.17-.5-.28-.08-.61.41-.33.61-.83,1.3-.83s.72-.17,1.6-.28c.88-.11,3.67-.22,5.36.11,1.69.33,1.57.3,2.18.58s.99.11,1.99.61c.99.5,1.74.75,3.29,1.8,1.55,1.05,3.15,2.29,3.76,3.01s1.55,1.77,2.1,2.35c.55.58,1.27,1.96,1.35,2.27.08.3,0,.58.3.97.3.39,1.02,1.55.8,2.79-.22,1.24-.8,2.38-1.44,2.62-.64.25-.69.66-1.3.69-.61.03-.77.25-.39.52.39.28,1.52.44,2.07.28.55-.17,1.27-.52,1.88-1.33.61-.8.77-1.22.77-1.74s.06-1.16.3-1.27c.25-.11,1.82-.25,2.57-.25s2.02-.06,3.37.77c1.35.83,3.7,2.35,3.98,3.31.28.97.58,2.24.8,2.76.22.52.19,1.05.22,1.49.03.44.52,1.16.52,1.93s.44,2.13,2.1,3.31c1.66,1.19,2.62,1.13,3.21,1.44.58.3.91.5,1.41.5s1.13.14,1.35.77c.22.64.33,2.21.08,2.6-.25.39-.83,1.55-1.71,1.82,0,0,.97.64,2.02-.39,1.05-1.02.97-1.55.88-2.32-.08-.77.03-1.27.03-1.69s-.08-.44.69-.47c.77-.03,2.27-.03,2.87.08.61.11,2.35.75,3.37.88,1.02.14,2.1.66,2.76,1.05.66.39,1.88.88,2.6,1.27.72.39,1.21.25,1.6.92.39.66.92,1.34,1.14,1.45.22.11.61.02.56-.7-.04-.51-1.02-1.42-1.29-1.58-.28-.17-.53-.8-1.58-1.44-.27-.16.06-.19.44-.39.39-.19,1.35-.8,2.38-.94,1.02-.14,3.37-.5,4.56-.39,1.19.11,2.16.33,2.98.72.83.39,1.57,1.3,2.16,1.71.58.41.72.64.99.77.28.14,1.11.22,1.11.22,0,0-.3-1.35-.61-1.91s-.86-1.22-1.11-1.41c-.25-.19.08-.25.28-.25s2.93-.25,3.95-.41c1.02-.17,3.9.06,4.81.5.91.44,2.18,1.05,3.21,2.24.74.86,1.37,1.5,1.81,2.5l-3.5,13.6c-.15.04-.3.1-.44.16-.56-1.03-1.5-1.81-1.89-2.04-.47-.28-1.44-.55-1.19-.64.25-.08,1.05-.75,1.69-1.1.64-.36,1.6-1.68,2.27-2.65.66-.97-.03-1.22.28-2.02.3-.8-.22-1.35-.22-1.35,0,0,0,.3-.06.69-.06.39-.39.72-.33,1.33.06.61-.28,1.05-1.05,2.1-.77,1.05-1.77,1.93-2.51,2.35-.75.41-1.46.17-1.8-.03-.33-.19-1.05-.66-4.03-.55-2.98.11-3.29.97-4.39,1.27-1.11.3-1.93.75-2.21,1.08-.28.33-1.13,1.02-2.43,1.38-1.3.36-2.96.14-3.95-.03-.99-.17-2.1-.11-2.32-.11s-1.63-.77-2.46-1.27c-.83-.5-.77-1.19-.61-1.44.17-.25.88-.64,1.44-.91.55-.28.19-.52-.06-.5-.25.03-.61.28-1.41.61-.8.33-1.52.28-2.51.28s-1.84-.44-2.5-.71c-.84-.34-1.35-.53-1.92-.64-.61-.12-1.44-.5-2.24-1.16-.8-.66-1.88-1.22-2.68-1.63-.8-.41-1.16-1.24-1.82-1.99-.66-.75-1.16-2.38-1.16-3.01s-.41-.94-.47-1.11c-.06-.17.48-.69.77-1.05.39-.47.52-1.05.52-1.05,0,0-.39.36-.97.58-.71.27-.86.39-2.62.28-1.77-.11-1.52-.5-2.68-.77-1.16-.28-2.85-1.74-3.37-2.73-.53-.99-.06-1.24.61-1.55.66-.3,1.33-1.08,1.63-1.57s.47-1.55.66-2.13c.19-.58.11-1.88.11-2.71s-.47-1.13-1.3-1.46c-.83-.33-1.11.11-.83.19.28.08,1.08.55,1.3,1.46.22.91.25,1.66.28,2.24.03.58-.25,1.24-.8,1.91-.55.66-2.13,1.74-3.56,2.04-1.44.3-2.49.17-3.23-.19-.75-.36-1.22-.41-1.49-.64s-1.52-1.6-1.74-1.91c-.22-.3-.55-.52-.75-1.16-.19-.64-.61-1.63-.72-1.93-.11-.3-.91-1.27-.91-1.27-.33.58.41,1.46.44,1.77.03.3.28.94.11,1.02-.17.08-.39.03-1.27-.17-.88-.19-1.85-.39-3.34-.83-1.49-.44-2.9-.94-3.81-1.1-.91-.17-1.08-.39-1.93-.86-.86-.47-2.82-2.18-3.18-2.93-.36-.75-.58-1.49-.64-2.18s-.08-.69-.77-.83c-.69-.14-.77-.3-1.6-1.74-.83-1.44-1.35-1.93-3.26-3.34-1.91-1.41-3.29-1.99-4.92-2.57-1.63-.58-2.24-.55-4.17-.55s-2.96.86-4.26,1.49c-1.3.64-1.91,1.33-2.1,2.65-.19,1.33.14,2.82.28,3.51s.08,1.41-.03,1.77c-.11.36-.39.47-.61.08-.22-.39-.77-.06-.61.03.17.08,1.11.64,1.69,1.08.58.44.52.8.5,1.16-.03.36-.17.99.28,1.55.44.55.86.75,1.3,1.08.44.33,1.08,1.8,1.82,3.62.75,1.82,1.02,4.03,1.05,5.72.03,1.69-.41,2.49-.55,3.54-.14,1.05-.33,3.65-.28,4.81.06,1.16.72,1.74,1.91,2.9,1.19,1.16,2.46,2.29,2.9,2.93.44.64,1.3,2.35,1.52,2.93.22.58.72,1.3.97,1.88.25.58,1.46,1.91,2.87,2.57,1.41.66,4.95,1.49,6.66,1.82,1.71.33,3.15,1.08,4.61,1.3,1.46.22,4.56.17,5.69.3,1.13.14,2.98.69,4.39,1.22,1.41.52,2.4,1.49,3.01,1.91.61.41,1.08,2.21,1.16,2.85.08.64-.61,1.24-1.3,1.63-.69.39-1.74.47-1.74.47.55.33,1.24.39,1.74.39s1.27-.64,1.49-.94c.22-.3.8-.8.33-2.71-.47-1.91-2.21-2.96-3.84-4.01-1.63-1.05-1.88-.66-2.93-1.16-1.05-.5-2.27-.61-2.49-.75-.22-.14-1.46-.91-2.65-2.15s-3.12-3.62-3.81-4.75c-.69-1.13-1.91-3.95-2.76-6.55-.86-2.6-2.04-3.76-2.71-4.48s-1.69-1.88-1.69-1.88c.52,1.49,1.35,2.96,1.8,3.62.44.66,1.93,3.45,2.24,4.56.3,1.11,1.27,3.84,2.21,5.33.94,1.49,3.04,3.26,3.59,4.01.55.75,1.17,1.39,1.77,1.66.88.39,1.35.66,1.35.66-.97-.06-2.68.19-3.92-.11-1.24-.3-2.24-.39-3.12-.69-.88-.3-2.35-.22-2.9-.44-.55-.22-3.48-1.63-5.36-2.98-1.88-1.35-3.21-2.71-3.81-3.87-.61-1.16-.97-2.38-1.44-2.93-.47-.55-3.01-2.65-3.81-3.37-.8-.72-.52-.8-.55-1.68-.03-.88.36-3.56.5-6.27.14-2.71-.44-5.75-.8-6.8-.36-1.05-1.41-3.45-1.91-4.34-.5-.88-1.08-1.63-1.05-2.4.03-.77-.17-1.24-.39-2.04-.22-.8-.08-1.38-.19-3.07-.11-1.69.83-1.99,1.08-3.29.25-1.3,1.77-1.77,2.24-2.02.47-.25,1.35-.17,2.87-.11,1.52.06,2.07.5,2.79.72.72.22,1.49.88,2.16,1.19s1.38.77,2.13,1.33c.75.55,1.33.83,1.55,1.38.22.55.47,1.41.86,2.32.39.91,1.16,1.19,1.55,1.19s.36.22.36.5.19.8.5,1.35c.3.55.39,1.1.91,1.63.52.52,1.27,1.35,1.71,1.71.44.36,1.96.94,3.76,1.27,1.8.33,1.55.47,3.54.86,1.99.39,2.85.72,3.51.83.66.11.99.33,1.63.61.64.28.86.5,1.24,1.02.39.52,1.27,1.33,1.41,1.74.14.41.44.58,1.02.77.58.19.58.47,1.71.64,1.13.17,2.04.06,2.57-.06.53-.11.69.06.72.22.03.17.3.83.77,1.69.47.86,1.66,1.88,2.21,2.07.55.19,1.96.52,2.43.64.47.11,1.8.55,2.38.55s.61.19.66.55c.06.36.33.44.77,1.24.44.8.64,1.57,1.16,2.38.52.8,1.8,2.46,2.38,2.85.58.39,1.74,1.02,2.32,1.38.58.36,1.08,1.22,1.99,1.71.91.5,2.76,1.41,3.7,1.66.94.25,1.99.61,2.35.77.36.17,1.77,1.13,2.65,1.46.88.33,1.08.61,1.05.73-.03.13-.32.19-.81.64-.48.45-1.29,1.26-1.81,1.77-.52.52-1.74,2.06-1.9,2.84-.11.54-.39.71-.68.23-.25-.41-1.19-1.35-2.32-1.77-1.13-.42-2.8-.16-4.67-.03-1.87.13-2.74.84-3.19,1.13-.45.29-.9.58-1.26.29s-1.68-1.42-2.93-2.09c-1.26-.68-3.26-.84-4.84-1-1.58-.16-2.42-.71-4.35-2.29-1.93-1.58-3.71-1.8-4.55-1.87-.84-.06-2.06-.1-3.87-.55-1.81-.45-2.74-.68-3.84-1.45-1.1-.77-2.29-2.8-2.74-4.38-.45-1.58-.16-3.61-.39-4.54-.23-.93-1.26-4.16-2.1-5.29-.84-1.13-2.03-1.68-2.8-1.97-.77-.29-1.74-1.16-2.68-2.42-.93-1.26-1.64-1.58-2.29-2.77-.64-1.19-.52-1.39-.9-2.58-.39-1.19-.87-3.51-.87-3.51-.13,1.22,0,4.42,0,4.42,0,0,.32,1.58.93,2.45.61.87,2.39,3.22,3.26,3.84s1.93,1.35,2.51,1.45,2.68,1.26,3.16,1.93c.48.68.77,2.35.9,3.22.13.87-.16,2.97-.1,4.58.06,1.61.35,3.55.42,4.29.06.74.48,1.68.64,1.93s1.77.71,2.51.81c.74.1,1.84.58,2.93.74,1.1.16,3.42.9,4.06,1.06.64.16,1.61.42,2.64.64s3.32,1.68,4.19,2.29c.87.61,1.64.81,3.29.77,1.64-.03,2.8.32,4.32.84,1.52.52,3.13,2.19,3.42,2.45.29.26.45.35,1,.13.55-.23,1.48-.84,3.55-1.16,2.06-.32,3.51.16,4.71.74,1.19.58,2.29,2.26,2.48,2.22.19-.03,1.68-1.29,5.06-.26s4.22,3.9,4.22,5.58-1.06,2.42-2.16,2.77c-1.1.35-1.68.39-.03.39s1.55-.55,1.9-.64c.35-.1,1.26-.13,1.61-2.13.35-2-.1-3.26-1.55-5.03-1.45-1.77-4.09-2.32-5.45-2.32s-2.1-.19-2.1-.19c0,0,.55-.13.52-.81-.03-.68.68-2.32,1.42-3.29.74-.97,2.35-1.84,2.84-2.03.48-.19,1.39-.1,2.32,0,.93.1,1.71.55,3.74.06,2.03-.48,3.38-1.71,3.74-2.19s1.39-.9,2.64-1.39c1.26-.48,4.25-.52,5.42-.35,1.16.16,1.77.84,2.26,1,.48.16,1.68.64,1.87.77.19.13.1.39.39.81.21.31.73.78,1,1.02-.84.62-1.38,1.62-1.38,2.74v1.44s-.02,0-.04-.01c-1.42-.42-1.93-.48-3.74-.9-1.81-.42-3.06-1.55-3.38-2.38-.32-.84-.84-1.77-2.03-2.58-1.19-.81-1.9.16-1.9.16,1.87.87,2.71,2.45,3.06,3.25.35.81,1.03,1.74,2.68,2.16,1.64.42,3.06.74,4.03.77.35.01.84.06,1.33.12v2.86c0,1.88,1.53,3.41,3.41,3.41h11.49c1.88,0,3.41-1.53,3.41-3.41v-4.89c0-1.12-.54-2.12-1.38-2.74l.23-.91c.6.07,1.35.2,1.81.42.84.39,2.03.75,3.06,2.14,1.03,1.39,1.56,2.51,1.59,3.06.03.56-.11.7.28.89.39.2,1.62.56,2.17.78.56.22,1.16-.14.67-.53-.28-.22-1.09-.47-1.48-.75-.39-.28-.39-.75-.42-1.48-.03-.72-.97-2.7-2.09-3.73-1.11-1.03-2.7-1.56-3.57-1.75-.73-.17-1.41-.19-1.73-.23l.42-1.62c.33-.65.78-1.37,1.23-1.86.47-.5,1.16-1.09,1.97-1.62l.04-.36c.29.04.59.06.84.02.58-.11,1.89-.75,2.42-.92.53-.17,3.54.06,4.32.08.78.03,2.12.19,2.51.28.39.08.7,1.11.97,1.17.28.06,1.73.47,2.95.92,1.23.45,1.75,1.7,2.17,1.73.42.03.7,0,1.23.11.53.11,1.03.42,1.31.42s1.28.03,1.73.03,1.59-.25,2.2-.33c.61-.08,2.76-.03,2.2-.22-.56-.19-1.78-.75-1.53-1.06.25-.31,1.14-1.14,3.68-1.59,2.53-.45,4.68.36,5.07.64.39.28,1.03.97,1.56,1.75.53.78.56.2,1.17.95.61.75.11,1.78.08,2.12-.03.33.31.11.97.22.67.11,1.73.33,2.23.61.5.28,1.67.72,2.12,1.09.45.36.81.92,1.03,1.87.22.95.53,2.4.36,3.2-.17.81-.28,1.45.17,1.03.45-.42,1.42-1.25,1.42-3.06s-.28-2.2-.81-2.45c-.53-.25-.78-.84-.86-1.53-.08-.7-1.17-1.75-1.17-1.75,0,0,1.17-.19,2.09-.08.92.11,1.5.58,2.34.56.84-.03,2.76.89,3.45,1.78.7.89,1.28,3.04,1.42,3.48.14.45.36.36,1.11,1.09s1.03,1.42,1.42,1.67c.39.25.89.28,1.78,1,.89.72.5,1.39.58,1.62.08.22.33.78.81,1.09.47.31.81.64,1.64,1.98.84,1.34,1.22.68.89-.07-.02-.05-.05-.12-.08-.19.15-.04.46.04.81.14,0,.02.01.03.02.05.11,0,.22.02.34.04.18.04.37.08.54.09.02,0,.03,0,.05,0,0,0,.01,0,.02,0,.77.14,3.03,0,5.85.03,2.82.03,4-.1,5.57-.07,1.57.03,3.1.03,3.45.03s.56.28-.1.97c-.66.7-3.03,2.89-3.97,3.06-.94.17-3.52.8-4.66,1.11-1.15.31-3.48.73-4.11.91-.63.17-1.85.77-2.51,1.36-.66.59-1.5,1.11-1.98,1.08-.49-.03-1.67-.45-2.37-.35-.7.1-1.6.91-1.6.91,0,0,1.25.52,2.3.63,1.04.1,2.3.31,3.97-.97,1.67-1.29,3.93-1.81,5.26-1.95,1.32-.14,2.61-.66,3.24-.8.63-.14,2.16.24,3.27-.49,1.11-.73,2.47-1.15,3.45-1.74.97-.59,2.78-2.16,3.13-3.24.23-.73.56-1.47.9-1.99,1.42-.13,2.32-.16,2.88-.16.72,0,1.58.05,2.53.14,1,.1,2.59.29,4.73.57,2.33.31,4.16.45,5.6.45,8.27,0,14.67-3.7,18.5-10.7,3.09-5.64,4.81-13.81,5.21-24.86v23.55c-1.19.53-2.01,1.72-2.01,3.11v4.88c0,1.88,1.52,3.4,3.4,3.4h36.48c1.88,0,3.4-1.52,3.4-3.4v-8.75c.86,2.84,2.16,5.24,3.86,7.16,2.37,2.63,5.48,4.43,9.27,5.38,1.76.58,3.31.88,4.72.93,1.13.04,2.15.06,3.04.06,3.58,0,6.75-.5,9.43-1.49,2.8-1.03,5.12-2.65,6.91-4.81v1.64c0,1.88,1.53,3.41,3.41,3.41h11.48c1.88,0,3.41-1.53,3.41-3.41v-4.89c0-.69-.2-1.33-.55-1.86.13-.2.32-.38.58-.43.59-.1,2.68.7,4.39,1.53,1.71.84,2.19,2.16,3.06,3.69s2.44,2.19,3.38,2.23c.94.03,3.48.49,4.39,1.6.91,1.11,2.05,2.16,4.04,3.69,1.98,1.53,1.22,3.62,4.04,5.4,2.82,1.78,8.01,1.5,11.66,1.53,3.66.03,6.02-1.74,6.96-2.12.94-.38,1.78-.49,3.06-.21,1.29.28,3.62-.28,5.43-.94,1.81-.66,3.38-1.36,5.33-2.3,1.16-.56,3.04-2.05,4.45-3.21.09-.08.21-.2.36-.37.34,0,.99-.01,1.46-.02h12.13c.46,0,.9-.09,1.29-.26.47.23.99.36,1.52.36.14,0,.29,0,.43-.03,3.92-.5,5.91-.61,6.88-.61.72,0,1.57.05,2.52.14,1,.1,2.58.29,4.71.57,2.32.3,4.15.45,5.58.45,8.25,0,14.63-3.69,18.45-10.66,1.32-2.4,2.38-5.26,3.2-8.61.05.77.1,1.43.17,1.99.25,2.16.89,4.45,1.9,6.79,1.12,2.6,2.9,4.81,5.29,6.58,3.96,2.97,9.01,4.48,14.97,4.48,4.81,0,9.03-.98,12.53-2.91,3.68-2.03,6.3-4.92,7.8-8.6.08-.18.15-.35.22-.53v5.15c0,1.32.77,2.53,1.97,3.09,2.3,1.07,4.05,1.77,5.33,2.14,1.17.34,2.8.72,4.98,1.17.09.02.19.03.28.05,3.26.39,4.27.47,4.74.5.75.04,1.58.06,2.47.06,4.84,0,9.06-1.02,12.62-3.03.83.1,2.94.27,8,.34,7.38.11,10.86-.47,15.23-1.14,4.37-.67,6.52-1.92,7.27-2.14.75-.22,1.73-.28,2.28-.53.56-.25,4.65-2.7,5.07-3.01.42-.31,2.59-1.39,3.45-1.87s1.98-1.31,3.62-2.37c1.64-1.06,4.65-2.98,6.27-4.4s1.89-2.31,2.14-2.51c.25-.19.97-.75,1.95-1.64.97-.89,3.04-3.12,4.4-4.73,1.36-1.62,2.37-3.45,3.23-5.24.86-1.78,1.73-3.37,3.2-6.46,1.48-3.09,2.34-6.04,2.67-7.44.33-1.39.67-2.76,1.53-5.49.86-2.73,2.67-6.04,2.92-6.8.25-.75.89-1.62,1.87-2.4.97-.78,1.2-2.12,1.45-2.62.25-.5,2.14-2.53,3.51-3.59,1.36-1.06,2.53-2.48,4.76-2.78,2.23-.31,2.98.89,3.4,1.31.42.42,1.89,1.53,2.23,2.12.33.58,1.34,2.03,3.87,2.42,2.53.39,3.48-.14,5.12-.17,1.64-.03,3.01-1.2,3.01-1.2,0,0,.39-.14,1.64-.75,1.25-.61,1.67-1.36,2.06-1.92.39-.56,1.28-1.56,1.7-3.01.42-1.45-1.23-1.89-1.92-2.03-.7-.14-.72.67-.19.81.53.14.78.56.84,1.14.06.58-.61,1.2-1.56,2.17s-1.98,1.78-2.62,2.03c-.64.25-2.48.2-3.26.11-.78-.08-2.03-.28-3.68-.92-1.64-.64-2.28-2.31-2.51-2.87s-.97-1.87-1.14-2.09c-.17-.22.25-.39.89-.7.64-.31,2.31-1.36,2.9-1.89ZM122.92,38.22s-1.16-.46-1.9-.84c-.74-.37-2.23-.32-2.69-.65-.46-.33-1.67-2.79-2-3.71s-1.16-1.3-1.86-2.04c-.7-.74-.32-1.16.14-2.69.46-1.53,2.55-3.16,3.81-3.9s3.16-1.11,4.36-1.11,1.95.51,1.62-.05c-.32-.56-1.39-.74-2.41-.6-1.02.14-.84-.05-.65-.6.19-.56,2.18-2.41,2.88-2.83.7-.42,2-1.35,2.55-1.72.56-.37,3.39-1.58,7.8-1.49,4.41.09,7.94,1.95,9.28,2.92,1.35.97,1.9.7,2.79,1.72.88,1.02,2.32,2.09,3.53,4.08,1.21,2,1.25,3.76,1.02,4.64-.23.88-.37,2.74-1.11,4.08-.74,1.35-1.11,2.09-.56,2.37.56.28.56.51,1.72.46,1.16-.05,1.4-.02,2.11-.05.71-.03,1.53-.14,1.53-.14.14.22.14.51-.56,1.25-.7.74-2.22,1.72-3.62,2.65-.98.64-2.55,1.6-3.41,2.13l-4.12-16c-.23-.91-.83-1.68-1.66-2.14-.51-.28-1.08-.42-1.65-.42-.35,0-.71.05-1.05.17-2.49.8-4.08,1.3-4.99,1.56-.57.16-1.65.4-3.62.64-1.4.17-2.55,1.17-2.9,2.54l-.2.78c-.63.64-1.62,1.85-2.75,4.02-1.95,3.76-1.44,4.97-1.44,4.97ZM140.02,87.76c-3.71-1.76-9.19-.14-9.7-.23-.04,0-.08-.02-.13-.04-.21-.2-.42-.49-.55-.7-.22-.36-1.36-1.56-1.42-2.87-.06-1.31.33-2.12.84-2.45.29-.19.76-.47,1.19-.68h11.72l1.56,6.07.87,3.6c-.92-.71-2.32-1.71-4.37-2.69ZM154.48,88.54c-1.86.79-5.25,2.41-5.57,2.79-.21.24-.56.24-.85.22l-3.64-14.22h-18.66l-5.16,20.22-.03.43c0,1.06.38,1.59,1.16,1.59h.53v4.89h-11.42v-4.89h.43c.91,0,1.51-.67,1.8-2.02l17.44-68.29c1.76-.21,3.13-.46,4.12-.74.99-.28,2.68-.81,5.07-1.59l15.7,61.35c-.32.07-.63.16-.93.29ZM161.77,87.86c-.74.08-1.77.14-2.7-.01l-1.35-5.26c.64-.23,2.31-.72,4.05-.25v5.52ZM161.77,80.31c-.35.08-.76.15-1.15.18-.84.07-2.56.16-3.36.3l-7.67-29.78c.21-.66.71-2.08,1.31-2.77.81-.92,2.17-2.12,3.4-3.12,1.23-1,3.95-2.4,4.82-2.79.86-.39,1.09-.84,2.06-1,.22-.04.42-.08.59-.12v39.09ZM161.77,39.8c-.62.38-1.44.88-1.65.98-.36.17-2.87,1.17-3.54,1.62-.67.45-3.57,2.12-4.87,3.51-.96,1.03-2.11,2.41-2.65,3.07l-1.07-4.17c1.07-.58,2.8-1.59,3.55-2.45,1.13-1.29,2.63-2.18,3.48-2.92.85-.74,1.8-2.4,1.95-3.06.15-.66.63-1.82,1.25-2.23.63-.4.64-.76.7-1.25.05-.5-.02-2.91-.14-3.48-.12-.58-.34-1.2-.42-1.67-.08-.47.47-1.38.84-1.67.31-.25.48-.15.97-.05-.33.52-.52,1.14-.52,1.8v4.88c0,1.43.88,2.65,2.12,3.15v3.95ZM431.56,12.99s.8.8,1.74,1.64c.94.84,3.06,2.65,4.77,3.72,1.71,1.08,3.31,2.09,5.19,3.17,1.88,1.08,2.51,1.71,2.51,2.12,0,.14-.1.3-.26.44-.67-.14-1.36-.25-2.07-.33-1.09-.67-2.63-1.42-4.02-2.05-1.57-.72-2.25-.9-2.94-1.18-.7-.28-2.82-1.6-3.62-3.06-.8-1.46-1.18-2.61-1.25-3.48-.07-.87-.03-.97-.03-.97ZM393.52,8.07c.52.1,2.85.38,3.31.38s2.58.14,3.31,0c.73-.14,3.31-1.01,4.87-1.5,1.57-.49,3.2-.87,5.22-1.08,2.02-.21,4.56-1.15,8.42-1.43,3.86-.28,5.81.91,8.36,2.61,2.54,1.71,2.58,3.55,3.03,4.8.45,1.25.66,4.14.97,5.43s3.41,3.76,4.32,4.11c.91.35,2.68,1.25,4,2.19.04.02.07.05.11.07l-5.28.45-1.23.07c-.73-.56-1.49-1.53-1.46-1.71.03-.24.56.1,1.01.31.45.21-.56-.8-2.23-2.3-1.67-1.5-3.79-3.83-5.74-4.87-1.95-1.04-3.38-1.15-7-1.39-3.62-.24-5.6-1.04-7.48-1.91-1.88-.87-7.69-2.26-8.77-2.37-1.08-.1-6.65-1.25-7.52-1.43-.87-.17-.73-.56-.21-.45ZM389.55,9.53c.28.01.97.07,1.88.31.91.24,2.75.49,3.76.56,1.01.07,3.9.73,6.48,1.04,2.58.31,6.3,1.01,8.39,1.57,2.09.56,4.39,1.36,6.79,1.57,2.4.21,5.08,1.5,6.3,2.3,1.22.8,4.46,3.2,5.88,4.28.9.68,1.66,2.15,2.1,3.14l-1.46.09c-1.76-2.47-5-3.97-7.88-5.01-2.99-1.08-5.78-1.64-8.7-2.54-2.92-.91-4.98-.52-7.38-.38-2.4.14-5.61.03-7.24-.38-1.64-.42-5.22-2.47-5.54-2.68-.31-.21-1.91-1.87-2.9-2.77-1.02-.93-.76-1.11-.48-1.1ZM428.37,24.47l-1.06.06-6.57-.41c-.07,0-.14,0-.21,0-.86,0-1.69.33-2.33.92-.67.63-1.06,1.51-1.07,2.43-.52-.2-1.41-.55-2.1-.8-1.04-.38-2.33-.56-2.92-.73-.59-.17-6.27-2.19-10.2-4.07-3.93-1.88-6.16-4.14-6.72-4.87-.56-.73-.52-1.22-.21-.97.31.24.56.38,2.05,1.01,1.5.63,3.13.73,5.01.73s5.57-.38,7.52-.42,4.35.45,6.06.94c1.71.49,7.21,2.65,8.98,3.73,1.27.77,2.92,1.89,3.77,2.47ZM348.71,9.18c.73-.14,1.71-.63,2.19-.94.49-.31,2.54-1.46,3.38-2.12.84-.66,2.54-1.53,3.34-1.81.8-.28,3.13-1.43,3.69-1.6.56-.17,6.51-.66,8.39-.77,1.88-.1,3.2.28,3.69.28s1.74.52,3.31.97c1.57.45,3.41,1.15,4.28,1.36.87.21,2.23.94,2.65,1.25.42.31,1.46,1.78,2.37,2.4.91.63,1.15,1.01,1.64,1.91.49.91,2.33,3.17,3.93,5.15,1.6,1.98,3.59,4.28,6.09,6.2,2.51,1.91,7.62,3.55,9.71,4.18,2.09.63,5.85,1.6,6.86,2.02.7.29,2.08.8,2.9,1.08v4.05c0,1.38.83,2.57,2.01,3.1v15.39c-1.47-.3-5.12-2.08-6.23-2.81-1.22-.8-4.63-4.07-5.71-5.33-1.08-1.25-2.85-3.13-3.55-3.86-.7-.73-1.22-1.67-3.38-4.87-1.7-2.53-3.38-4.84-4.02-5.7v-1.03c0-1.88-1.53-3.41-3.41-3.41h-2.08c-.82-.55-1.88-1.3-2.4-1.87-.94-1.01-2.4-1.43-3.55-1.95-1.15-.52-2.79-1.32-3.93-2.4-1.15-1.08-4.18-3.13-5.19-3.69-1.01-.56-4.25-1.6-4.98-1.71-.73-.1-.73-.49-.45-.56.28-.07,1.25-.31,2.19-.94.94-.63,2.58-1.04,3.45-1.04s2.44.56,3.27.91c.84.35,1.88,1.32,2.19,1.74.31.42.59-.1.42-.73-.17-.63-1.11-1.29-1.81-1.78-.7-.49-1.01-.59-1.46-.97-.45-.38-1.04-.21-2.72-.17-1.67.03-3.1.52-4.46,1.18-1.36.66-3.38,1.39-4.32,1.6-.94.21-2.82.73-5.4,1.32-2.58.59-4.04.28-4.77.1-.73-.17-3.55-.52-4.53-.94-.97-.42-3.38-1.91-4.21-2.26-.84-.35-.14-.8.59-.94ZM441.18,51.51c1.5,2.05,3.9,3.41,5.26,4.49.72.57,1.69,1.28,2.43,1.82.01.15.02.3.03.44-.34-.11-.9-.31-1.49-.6-.94-.45-2.92-1.32-5.08-3.06-2.16-1.74-3.9-4.6-5.15-7.07-.87-1.72-2.56-4.26-3.5-5.64v-4.97c.25-.03.5-.07.76-.1h3.31c.18.79.52,2.31.65,3.01.17.97.1,3.76.1,4.87s1.18,4.73,2.68,6.79ZM440.07,37c2.02.32,3.57,1.11,4.72,2.41.95,1.08,2.69,4.23,3.61,13.24.15,1.36.27,2.71.38,4.04-1.66-1.2-5.36-4.45-6.94-7.29-1.74-3.13-1.32-5.6-1.29-8.36.03-2.11-.32-3.51-.48-4.04ZM435.71,47.89c.91,1.39,2.19,4.21,3.52,5.74,1.32,1.53,3.86,3.38,5.54,4.25,1.3.68,3.38,1.61,4.24,1.99.15,2.57.23,5.07.23,7.46,0,.68,0,1.35-.02,2.02-1.67-1.5-5.1-4.35-6.02-5.24-1.18-1.15-2.92-2.79-4.18-3.59-1.03-.66-4.22-2.6-5.35-3.28v-11.9c.54.59,1.44,1.62,2.04,2.53ZM437.87,62.1c.94.52,3.13,1.98,5.36,3.93,2.23,1.95,2.89,2.37,4.28,3.45.59.46,1.18,1.07,1.67,1.61-.18,6.32-.83,11.76-1.93,16.25-.62-.55-1.41-.97-2.24-1.46-1.11-.66-2.05-1.22-3.55-1.18-1.5.03-2.16,1.11-2.33,1.53-.17.42-.7.38-1.11.24-.36-.12-3.48-1.4-4.34-1.75v-14.96c1.03.08,3.48.25,4.62.28,1.46.03,3.93.21,4.21.07.28-.14-.17-.66-1.29-.94-1.11-.28-1.74-.77-4.49-1.91-1.65-.69-2.58-1.31-3.05-1.69v-5.7c.9.48,3.43,1.8,4.2,2.23ZM437.28,88.59c-.12.32-.41.8-.73,1.67-.04.07-.07.16-.11.26-.2.57-.8,1.33-1.55,1.32-.18-.04-.35-.13-.51-.25-.27-.2-.52-.37-.72-.5v-4.71c.89.44,2.57.98,2.95,1.14.49.21.8.7.66,1.08ZM435.4,68.22c.77.31.63.66.1.56-.35-.07-1.27-.16-1.83-.2,0,0-4.97-.25-6.31-1.23-.77-.56-1.78-1.29-2.54-1.08-.77.21-1.32.66-2.23.94-2.13.66-3.45,1.12-3.45,1.12-.48.1-1.08.24-1.57.38-.97.28-3.69,1.04-5.67,1.81-1.98.77-5.33,2.02-7.94,3.31-2.29,1.13-8.12.84-9.51.75,0,0-.46-.76-1.77-.5-.7.14-.93.09-2.27-.32-1.35-.42-1.49-.46-2.27-.6-.79-.14-1.3,0-2.37-.28-1.07-.28-1.95-.93-2.32-1.11-.37-.19-1.05-.36-1.67-.37-1.27-.03-1.79-.3-1.79-.3-.44-.23-1.14-.56-1.64-.88-.77-.49-3.59-1.85-4-2.19-.32-.26-2.28-1.49-3.21-2.07,0,0-.62-.5-3.19-2.31-1.25-.88-3.2-1.58-4.13-1.86-2.01-.6-4.92-2.29-4.32-2.09-.56-.19-1.16-.19-1.76-.42-1.73-.67-3.01-.47-3.01-.47-.88-.15-2.32-.43-3.27-.76,0,0-1.65-.5-2.96-.81-.97-.32-2.65-.97-3.39-.88-.74.09-2.79.28-3.39.28-3.44,0-3.09.55-4.16.92-1.07.37-2.13.29-2.73.44-.78.2-3.48.92-5.68,1.5-2.2.58-4.29.95-5.4,1.23-1.11.28-3.82,1.03-4.73,1.17-.92.14-3.98,1.59-5.21,2.12-1.23.53-3.34,1.84-4.6,2.92-1.25,1.09-2.14,1.34-3.79,2.4-1.33.86-3.64,2.35-4.48,2.89v-.94c.58-.67,1.64-1.85,3.14-3.26,1.28-1.21,1.5-1.67,1.78-2.09.28-.42,2.01-2.03,3.23-3.51,1.23-1.48,3.31-3.93,3.76-4.37s1.95-1.62,3.09-2.42c1.14-.81,3.23-2.14,3.95-2.62.2-.13.41-.29.62-.47,1.43-1.17,5.14-2.41,5.51-2.81.37-.4,2.97-1.55,3.43-1.62,1.15-.17,4.84-1.29,6.43-1.41,1.95-.14,2.73-.31,3.23-.28.29.02.68-.22,1.28.06.6.28,3.69-.04,6.1,1.64.92.64,1.21.93,2.65,1.25,1.44.32,4.55.97,5.48,1.81.93.84,6.22,4.64,8.49,5.57,2.27.93,3.48,1.44,4.13,2.09,1.42,1.42,2.47,1.6,2.47,1.6.59.51,1.42.74,1.91,1.29.59.66,1.67,1.18,3.31,1.95,1.21.57,3.79,1.59,5.05,2.08,0,0,2.23,1,4.39,2.73.7.56,1.11.14,2.18.51,1.07.37,3.99,1.53,3.99,1.53l3.91.96c.31.05.72.08,1.09.19.7.21.38.35,1.85.59,1.46.24,4.53.49,6.2.38,1.67-.1,2.26-.45,2.82-.97.56-.52.91-.49,2.44-1.22,1.53-.73,3.83-2.47,4.63-3.03.8-.56,3.38-1.81,4.18-2.12.45-.18,1.05-.35,1.5-.47,0,0,5.02-.75,6.87-.75,1.95,0,3.93.97,5.54,1.88,2.02,1.14,3.3,2.01,3.86,2.23ZM430.18,69.15v20.12c-.43-.37-.96-.88-1.36-1.13-.45-.28-1.73-1.64-4.34-1.67-.77,0-1.44.06-2.02.15v-18.05c.12-.05.22-.1.31-.17.42-.32,1.67-.19,2.51-.28.84-.09,1.53.19,2.37.79.84.6,1.02.37,1.62.14.46-.18.52-.08.91.09ZM411.76,78.26c-1.88,0-3.41,1.53-3.41,3.41v7.32s0,0,0,0v.47s-.08,0-.11,0c-.23,0-.41.05-.54.12v-.03c-.84.28-1.96.75-2.77,1.41-1.32,1.08-2.68,1.71-3.72,1.43-1.04-.28-2.89-.38-3.48-.42-.34-.02-1.57.63-2.57,1.23-.32.17-.43.29-.69.49,0,0,0,0-.01,0l-.02-.98s0,0,.01-.01v-16.8c1.64.14,6.18.02,7.25-.29,1.18-.35,5.36-2.05,6.41-2.51,1.04-.45,1.11.1,1.6.35.49.24,1.46,1.08,3.41,2.12,1.95,1.04,3.52,1.57,4.49,1.91.64.23,1.16.61,1.53.85v.29c-.46-.23-.98-.36-1.53-.36h-5.84ZM417.57,81.69v6.33c-.6.16-1.13.3-1.33.3-.47,0-2.09.75-3.09,1.23-.48.23-.97.3-1.39.3v-8.15h5.81ZM417.33,75.64c-1.18-.35-5.5-2.92-5.57-3.24-.07-.31,1.78-1.18,2.33-1.29.56-.1,1.91-.49,2.79-.87.53-.24,1.55-.48,2.26-.64v6.39c-.4-.04-1.07-.14-1.81-.35ZM391.4,102.78c-.37.37-2.32.97-2.65,1.07-.32.09-.84-.51-2.18-1.11-1.35-.6-3.57-.37-4.73.05-.12.04-.27.09-.42.15v-3.37h.42c1.13,0,1.69-.68,1.69-2.03v-23.73c1.05.01,4.21.7,6.33,1.02.48.07.9.17,1.28.28v23.18h.49c-.22,1.56.09,4.18-.24,4.5ZM379.98,73.57v22.79c-.17.07-.32.15-.48.24-.17-.09-.35-.17-.54-.24l-7.27-28.23c.24.07.67.25,1.08.68.63.66,1.08,1.15,2.85,2.37,1.78,1.22,2.61,1.29,3.06,1.5.23.11.8.52,1.29.89ZM357.06,68.02h-8.07l1.99-8.08c.93.01,2.88.11,4.21.72l1.87,7.36ZM312.48,74.73c-.78-.31-.86-.36-.75-.64.11-.28,0-.67.39-.7.39-.03,1.45-.14,3.04-.22,1.59-.08,3.09.45,4.01.89.92.45,1.92,1.42,2.31,2.06.39.64,1.25,1.42,1.75,1.98.02.02.04.04.06.07h-3c-1.88,0-3.41,1.53-3.41,3.41v3.3c0,5.27-1.08,7.75-1.99,8.9-1.14,1.45-3.15,2.16-6.14,2.16-3.15,0-5.28-.73-6.33-2.16-.66-1.13-1.05-2.24-1.2-3.38-.13-1.01-.29-3.75-.29-11.05v-1.64c.45-.28,1.06-.67,1.25-.86.31-.31.72-.56,1.73-1.14,1-.58,1.62-.95,2.23-1.14.61-.19,1.23-.39,1.95-.5.72-.11,2.12.42,2.48.7.36.28,1.31.61,1.98.95.67.33,1.34.45,1.42.14.08-.31-.7-.81-1.48-1.11ZM321.73,74.37c-1-.95-2.2-1.64-2.9-1.98-.7-.33-1.14-.22-1.25-.81-.11-.58-1.06-.25-1.98-.08-.92.17-2.87.28-3.2.39-.33.11-1.67.89-2.26,1.06-.58.17-.95.06-1.23-.08-.28-.14-.47-.58-1.7-.47-1.23.11-2.42.84-2.98,1.14-.56.31-1.62,1.09-2.42,2.01-.3.34-.61.55-.88.69v-.72c.5-.52.98-1.45,1.47-1.92.61-.58,1.2-1.28,1.84-1.56.64-.28,2.51-1.95,3.73-2.73,1.23-.78,3.82-2.34,4.46-2.65s1.17-.86,2.84-1.56c1.67-.7,4.34-1.75,5.35-2.09,1-.33,1.81-.58,2.06-.81.25-.22.92-.31,3.04-.95,2.12-.64,5.29-1.64,8.27-2.23,1.66-.33,2.7-.4,3.29-.4l-5.21,20.25c-.29-.38-.66-.9-.98-1.47-.67-1.17-2.7-2.79-3.06-2.95-.36-.17-2.87.08-3.9.22-1.03.14-2.06,0-2.4-.31ZM308.4,32.87c-4.34,0-7.43,1.42-9.28,4.25-1.07,1.49-1.6,3.3-1.6,5.43v14.99s-.08.09-.12.13c-1.11,1.25-2.78,1.88-4.39,3.34-.77.7-1.98,1.59-3.21,2.47v-10.41c0-7.09.21-11.65.64-13.67.42-2.02,1.51-4.2,3.28-6.54,3.38-4.18,8.17-6.28,14.37-6.28,2.82,0,5.44.25,7.88.74,2.43.5,5.72,1.49,9.88,2.98v16.97c-1.22.52-2.41,1.13-3.52,1.75h-1.87c0-1.49-.06-2.61-.16-3.35-.11-.74-.3-1.97-.59-3.67-1.07-6.1-4.84-9.15-11.31-9.15ZM315.35,39.41c-1.12-.25-2.92-.51-5.32-.86-2.85-.41-6.63.08-7.86.27.82-1.12,2.4-2.45,6.31-2.45,3.41,0,5.6.94,6.88,3.04ZM300.93,42.64c0-.92.14-1.73.42-2.42.93-.29,3.2-.37,4.17-.47,1.06-.11,3.06-.03,4.85.28,1.78.31,3.26.47,4.29.81.48.16,1.04.3,1.5.42.14.45.25.93.34,1.45.27,1.58.47,2.82.57,3.57.02.13.04.35.07.67-.83.03-1.92.1-2.51.22-1.06.22-1.73.36-3.12.53-1.39.17-4.09,1.17-6.13,2.14-1.58.76-3.62,1.81-4.45,2.23v-9.42ZM303.65,53.06c.14-.36,1.45-.7,2.28-.97.84-.28,1.87-.92,2.4-.95.53-.03,2.62-1.11,3.65-1.23s2.84-.72,3.7-.78c.38-.02.97-.04,1.51-.05,0,.01,0,.03,0,.04,0,.88.33,1.68.88,2.28-.19.5-.59.95-1.08,1.09-.58.17-1.84.36-2.87.64-1.03.28-2.87.45-3.62.72-.75.28-4.37,1.42-5.65,1.98-1.28.56-1.59.03-1.7-.39-.11-.42.42-.81.64-1.09.22-.28-.28-.95-.14-1.31ZM363.52,36.4c.4-.34.96-.83,1.31-1.18.59-.59,1.39-.59,1.85-1.11.45-.52,1.08-.63,2.72-.87,1.64-.24,2.4.94,2.96,1.43.56.49,1.71.87,2.75,1.6,1.04.73,1.29,1.22,2.3,2.12.7.63,1.91,1.65,2.58,2.21v23.37c-.63-.26-1.74-.98-2.68-1.59-1.08-.7-3.27-1.91-5.22-2.65-1.28-.48-2.36-1.17-2.96-1.58l-5.6-21.74ZM365.01,55.72c-.28-.17-.56-.35-.84-.55-1.95-1.32-4.46-2.92-7.38-4.67-.21-.12-.43-.24-.66-.36l-2.24-8.9c-.22-.71-.42-1.52-.6-2.44-.18-.92-.27-1.98-.27-3.19,0,1.21-.05,2.13-.16,2.77-.1.64-.34,1.63-.69,2.98l-1.66,6.77c-1.47-.43-2.8-.82-3.68-1.25-.82-.4-1.71-.79-2.55-1.14l4.19-16.4c1.76-.21,3.13-.46,4.12-.74.99-.28,2.68-.81,5.07-1.59l7.35,28.71ZM374.61,33.52c-.17-.21-1.46-1.29-3.34-1.6-1.88-.31-3.55.52-4.77.94-.93.32-2.74,1.02-3.56,1.34l-2.07-8.05c-.23-.91-.83-1.68-1.66-2.14-.51-.28-1.07-.42-1.64-.42-.35,0-.71.05-1.05.17-2.49.8-4.07,1.3-4.98,1.56-.57.16-1.65.4-3.62.64-1.4.17-2.55,1.17-2.9,2.54l-4.08,15.89c-.61.04-1.33.11-1.66.23-.64.22-1.34.78-2.12.78s-3.95-.11-4.76,0c-.62.09-2.24.55-2.95.76v-6.26c.81-.2,2.35-1.88,3.21-2.88.87-1.01,1.46-2.75,2.12-4.42.66-1.67,1.18-2.51,1.67-3.13.95-1.23,1.32-1.64,1.53-2.58.21-.94,1.22-1.46,1.46-2.26.24-.8.49-.87,2.58-3.1,2.09-2.23,4.63-2.12,5.4-2.12s2.33-.24,2.79-.52c.45-.28,3.27-.56,7.14-.52,3.86.03,6.82,1.57,7.24,1.98.42.42,1.15,1.01,2.82,1.78,1.67.77,1.32,1.01,2.23,1.81.91.8,1.39,2.16,2.16,2.75.77.59,1.39,1.78,1.67,2.68s1.15,3.24,1.43,3.76c.28.52-.1.63-.28.42ZM381.95,32.54h-.53v-4.89h11.52v4.89h-.42c-.91,0-1.37.64-1.37,1.92v34.96c-.2-.04-.4-.09-.58-.13-1.44-.32-5.11-1.86-6.08-2.46-.23-.15-.57-.37-.95-.63v-31.74c0-1.28-.53-1.92-1.58-1.92ZM395.78,60.6c.77.87,3.93,4.42,4.98,5.33,1.04.91,3.9,3.52,4.35,4,.45.49-.07.8-1.36,1.04-1.29.24-4,.24-5.36.03-1.36-.21-1.32-.49-1.74-.66-.3-.13-1.55-.35-2.2-.46v-10.8c.38.43.91,1.02,1.33,1.51ZM394.45,57.03v-21.45c1.07-.57,1.81-1.71,1.81-3.01v-1.05c.39.58.92,1.4,1.2,2.02.49,1.08,1.29,1.32,2.19,2.33.91,1.01,2.54,3.45,4.11,5.43,1.57,1.98,3.83,4.49,5.61,6.09,1.78,1.6,5.33,3.86,7.21,4.7,1.2.53,2.09.9,2.58,1.09v10.61c-.65.29-1.56.67-2.16.83-1.01.28-1.43.45-4.49,1.6-3.06,1.15-3.83,2.33-4.98,2.79-1.15.45-1.43-.38-4-2.61-2.27-1.96-7.78-7.98-9.06-9.38ZM321.77,16.94c.91-1.04,4.39-3.59,6.3-5.05,1.91-1.46,4.49-1.88,5.33-2.12.84-.24,1.98-.1,3.79-.1s2.44.21,3.76.59c1.32.38,4.04.84,4.6.87s3.03,1.64,4.91,2.54c1.88.91,3.41.8,4.39.77.97-.03,4.07.1,6.54-.1,2.47-.21,6.86-.38,8.46-.42,1.6-.03,4.94,1.15,5.81,1.64.87.49,2.16,1.81,2.4,2.51.24.7.59,1.43,2.05,2.12,1.46.7,2.72.66,3.76.94,1.04.28,1.64.97,2.44,1.85.45.49,1,.93,1.55,1.31h-6.6c-1.88,0-3.41,1.53-3.41,3.41v4.89c0,1.43.88,2.65,2.12,3.16v.5c-.48-.13-1.06-.38-1.36-.84-.56-.87-1.46-2.26-3.24-5.88-1.78-3.62-3.48-6.44-4.18-7.38-.7-.94-1.85-1.57-4-2.75-2.16-1.18-3.9-1.46-7.21-2.05-3.31-.59-10.13-.66-12.46-.21-2.33.45-6.68,3.69-7.97,4.7-1.29,1.01-2.51,2.72-3.41,4.6-.91,1.88-2.37,3.97-2.54,4.25-.17.28.1-1.78,0-2.47-.1-.7-.59-1.88-.77-3.48-.17-1.6-.38-5.4-.1-7.1.28-1.71,1.25-1.6,1.25-1.6-.63-.17-1.39,0-1.85.77-.45.77-.66,2.4-.7,3.73-.03,1.32-.35,2.09-.59,2.99-.24.91.38,3.1.94,4.35s1.04,2.09,1.01,2.79c-.03.7-.38,1.04-.52,2.12-.14,1.08-.28,2.23-.77,3.06-.36.62-1.49,1.67-2.07,2.18v-7.58c0-1.44-.91-2.73-2.27-3.21-4.3-1.53-7.8-2.58-10.41-3.11-.62-.13-1.25-.24-1.9-.33.78-.69,1.85-1.43,2.51-1.76.84-.42,1.78-1.78,1.98-2.26.21-.49,1.5-1.74,2.4-2.79ZM262.31,21.64c.42-.24,2.65-1.74,3.41-2.51.77-.77,2.61-3.2,2.72-3.45.1-.24.59-.45,1.15-.49.56-.03,2.02-.73,4.25-2.02,2.23-1.29,4.39-2.4,4.39-2.4,0,0-1.5.1-2.96.63-1.46.52-3.24,1.53-3.83,1.01-.59-.52-.1-.91.73-2.23.84-1.32,2.72-2.99,3.59-3.59s3.9-1.25,4.77-1.43c.87-.17,3.48-.31,4.04-.63.56-.31.56-.38,3.52-.52,2.96-.14,4.98.87,5.88.87s5.47.87,7.94,1.78c2.47.91,6.72,3.38,8.67,4.42,1.95,1.04,6.06,2.96,6.93,3.13.87.17,1.85.8,1.98.8s-.73,1.46-1.36,1.98c-.63.52-1.53.1-2.96-.03-1.43-.14-3.27-.49-4.53-.97-1.25-.49-3.72-1.64-5.85-2.79-2.12-1.15-6.16-1.36-8.88-1.5-2.72-.14-5.85.17-7.1.87-1.25.7-3.27,1.74-3.59,2.54s-1.6,2.19-2.47,3.1c-.87.91-3.55,4.25-3.55,4.25,0,0,3.2-2.58,3.83-3.06.63-.49,2.61-2.54,4.35-3.55,1.74-1.01,5.01-1.5,6.23-1.64,1.22-.14,5.43-.1,7.24-.1s4.18.45,5.33.77,3.83,2.16,4.87,2.72c1.04.56,3.66.7,4.35.77.7.07.52.63.21,1.36-.31.73-1.46,1.15-2.61,1.88-.69.44-1.48,1.2-2,1.75-.93-.05-1.87-.08-2.83-.08-7.29,0-13.05,2.54-17.12,7.54-.02.03-.05.06-.07.09-2.07,2.73-3.39,5.39-3.92,7.9-.2.93-.43,2.52-.58,6.12-.18.4-.42.77-.73.93-.18.09-.34.18-.48.26v-18.3c0-1.88-1.52-3.4-3.4-3.4h-22.32c.12-.17.25-.36.36-.55.52-.84,1.98-1.98,2.4-2.23ZM280.35,60.55c.49-.33,1.08-.72,1.55-1.05,1-.7,2.65-1.92,3.65-2.79.28-.24.55-.51.79-.78v9.61c-.16.39-.34.75-.51.88-.45.33-3.93,2.4-4.68,2.9s-2.95,1.73-3.31,1.89c-.36.17-1.62,1.45-2.7,2.09-1.09.64-2.42,1.34-3.34,1.59-.92.25-3.59,1.56-5.04,2.2-1.45.64-2.62,1.31-4.12,1.67-.61.15-1.09.2-1.43.22v-8.01h15.9c1.88,0,3.4-1.52,3.4-3.4v-6.04c0-.34-.05-.67-.15-.99ZM285.02,54.65c-.81.86-1.98,1.73-2.79,2.34-.63.48-2.39,1.41-3.14,1.8-.56-.41-1.26-.66-2.01-.66h-15.9v-4.61c.63-.28,1.89-.83,2.91-1.12,1.42-.42,1.67-.58,2.23-.7.56-.11,1.09-.14,1.64-.42.56-.28,1.7-.19,2.2-.17.47.03,1.96-.37,3.55-.34.62.69,1.52,1.12,2.52,1.12h5.62c1.47,0,2.72-.94,3.2-2.24.34-.2.9-.49,1.31-.46-.02,1.19-.03,2.51-.03,3.99v.21c-.44.4-.95.87-1.32,1.27ZM265.39,40.53c-.28.47-1.67,1.67-2.45,2.12-.54.31-1.31.85-1.74,1.16v-6.44h6.73l-2.23,2.16c.19.11-.03.53-.31,1ZM264.05,43.26c1.36-1.06,2.73-3.04,3.17-3.79.27-.46,1.04-1.43,1.59-2.11h.43c1.75,0,2.45.25,2.63.33.09.12.29.42.5,1.08.24.75.37,1.6.37,2.5,0,.02,0,.03,0,.05l.11,7.21c0,.24.03.47.08.7-.33.03-.71.05-1.11.06-1.06.03-3.73.56-4.57.78-.84.22-3.23.84-4.15,1.23-.92.39-1.59.86-1.87,1.14-.01.01-.03.03-.04.04v-6.93c.44-.36,1.74-1.43,2.85-2.3ZM173.82,24.11c.89-.2,3.3-.44,4.18-.56.88-.12,1.8-.51,2.65-.7.85-.19,2.83.06,5.01-.14,2.18-.2,7.18-1.28,9.47-1.81,2.29-.53,5.39-1.3,6.54-1.53,1.15-.23,4.62-1.68,7.52-3.48,2.9-1.8,5.66-4.62,9.61-6.68,3.95-2.07,9.06-2.92,10.03-2.92.96,0,2.56-.13,2.65-.56.09-.43.93-.39,3.9-.42,2.97-.02,7.05,1.9,8.77,2.79,1.73.88,2.47,1.55,1.53,1.11-.93-.44-2.25-.79-3.62-1.25-1.37-.46-1.66-.57-4.04-1.11-2.38-.55-3.47.03-5.15.28-1.68.25-2.86-.07-3.76-.14-.9-.07-2.46.78-4.87,2.51-2.41,1.72-7.45,6.93-8.49,8.22-1.04,1.29-4.17,4-5.29,4.6-.99.53-2.6,1.2-3.65,1.74l-3.73-.23c-.07,0-.14,0-.21,0-.86,0-1.7.33-2.33.92-.69.64-1.07,1.54-1.07,2.48v3.02c-.26-.02-.55-.06-.81-.17-.61-.25-2.7-1.84-3.09-1.84s-3.4.97-4.87,1.42c-1.48.45-4.09,2.34-5.38,3.26-1.28.92-2.28,1.84-2.79,2.53-.5.7-.89,1.28-.97,1.53-.08.25-.42.17-.81.17s-1.78-.28-2.62-.36c-.5-.05-1.32-.12-1.9-.17v-.91c1.07-.57,1.8-1.7,1.8-3v-4.88c0-1.88-1.52-3.4-3.4-3.4h-1.93c.49-.13.9-.25,1.13-.3ZM176.21,82.47c.68,0,2.52-.07,4.01-.47,1.87-.5,3.31-1,4.09-1.31.78-.31,1.28-.53,1.75-.72.47-.19.81.33.14,1.06-.67.72-2.48,2.92-3.06,3.51-.58.58-2.84,2.42-3.4,2.9-.56.47-1.64,1.48-2.03,1.75-.26.18-1.01.77-1.51,1.16v-7.87ZM174.7,32.45h-.42c-.91,0-1.37.64-1.37,1.92v58.94c-1.54-.3-2.94-.24-3.85-.08-1.3.23-2.69-.42-3.02-.46-.24-.03-.23-.85-.75-1.65v-56.75c0-1.28-.53-1.92-1.58-1.92h-.53v-4.89h11.52v4.89ZM176.88,94.84c-.18-.02-.39-.05-.61-.08l-.05-.19v-1.46c.81-.78,2.81-2.67,3.9-3.52,1.39-1.09,3.15-2.59,3.76-2.81.61-.22,2.09-1.39,4.21-3.76.72-.81,1.53-1.77,2.31-2.7-.19.42-.29.89-.29,1.38v9.55c0,.97-.1,1.85-.31,2.62-.1.36-.19.58-.25.71-.31.1-1.1.28-2.79.28h-9.86ZM199.32,104.35h-14.67c-.11-.18-.22-.39-.33-.68-.42-1.11-1.53-2.69-2.79-3.62-.9-.66-1.27-1.28-1.61-1.87h6.86c2.63,0,4.34-.39,5.13-1.17.5-.5.89-1.28,1.17-2.34.28-1.06.43-2.23.43-3.51v-9.57h5.81v22.76ZM201.46,79.04c-.58-.47-1.32-.75-2.13-.75h-5.83c-.73,0-1.4.23-1.95.62.99-1.21,1.78-2.19,2.05-2.5.56-.64,1.2-3.12,1.67-4.37.47-1.25,1.14-2.45,2.51-3.23,1.36-.78,2.65-1.39,3.54-2.01.05-.04.1-.07.15-.11v12.35ZM201.46,63.03c-.64.88-1.53,2.02-2.33,2.74-1.42,1.28-2.62,1.98-3.18,2.42s-1.03.95-1.11.61c-.08-.33-.17-3.51-.5-4.82-.33-1.31-3.43-4.12-4.6-4.82-1.17-.7-2.7-1.39-4.68-1.5-1.98-.11-3.93-.47-4.37-.5-.45-.03-2.7.53-2.7.53,0,0,2.73.33,4.21.58,1.48.25,2.79.56,4.21.72,1.42.17,2.75.39,3.82,1.92,1.07,1.54,2.22,2.52,2.33,3.76.12,1.29.56,2.84.37,3.28-.19.45.25,1.5.2,1.84-.06.33,0,.97.11,1.48.11.5-.58,2.42-1.14,3.06-.56.64-3.2,2.98-3.68,3.29-.47.31-4.01,1.92-4.62,2.03-.61.11-1.84.84-2.53.97s-2.87.45-3.84.42c-.5-.01-.91-.06-1.2-.1v-43.4c.73.02,3.15.14,4.76.61,1.92.56,2.62.36,3.62,1.06,1,.7,1.63.85,2.34,1.5.57.53,1.6,1.73,2.4,3.1.28.47.53,1.19.83.52s.47-2.53.19-2.98c-.28-.45-2.2-1.64-3.37-2.42-1.17-.78-2.17-1.36-2.62-1.5-.45-.14-.78-.28-.95-.28s.11-.97.89-1.62c.78-.64,1.84-1.84,2.98-2.06,1.14-.22,2.04-.32,3.48-1,1.37-.65,1.44-.5,3.07-.6,1.22-.08,3.48-.54,4.29-.57.37-.01.88.02,1.31.06v1.15c0,1.39.83,2.58,2.02,3.11v27.39ZM238.28,96.08c-3.24,5.96-8.39,8.93-15.43,8.93-1.27,0-2.98-.14-5.13-.43-2.15-.28-3.75-.48-4.81-.59-1.06-.11-2.01-.16-2.85-.16-1.55,0-3.98.21-7.3.64v-5.21h.42c1.13,0,1.69-.67,1.69-2.02v-62.87c0-1.28-.53-1.92-1.58-1.92h-.42v-5.32l6.77.43,7.08-.43,6.13-.53c4.01,0,7.47,1.03,10.36,3.08,2.89,2.06,5,5.04,6.34,8.93,2.4,6.53,3.59,16.13,3.59,28.83s-1.62,22.66-4.86,28.61ZM246.65,61.45c-.1-3.19-.3-6.15-.58-8.89.17.03.39.06.58.08v8.81ZM246.65,50.01l-.79.68c-.63-5.19-1.6-9.55-2.93-13.15-1.58-4.54-4.14-8.09-7.61-10.56-3.49-2.46-7.65-3.71-12.39-3.71-.1,0-.2,0-.29.01l-6.12.53-6.05.36c.15-.07.28-.13.39-.2,1.38-.87,5.16-4.05,8.77-7.8,3.61-3.75,5.95-5.43,6.54-5.85.6-.42,3.49-2.47,6.68-2.65,3.19-.17,6.4.06,9.05,1.11,2.65,1.06,2.86,1.48,3.9,2.23s2.24,1.72,3.62,3.2c1.38,1.49,2.52,3.16,3.06,3.76,1.18,1.29,2.21,2.72,2.51,3.76s.79,1.46,1.53,1.25c.74-.21.07-2.04-.84-3.48-.9-1.44-2.53-3.26-3.48-4.18-.95-.92-2.32-2.4-3.34-3.2-1.02-.8-1.95-1.67-1.95-1.67,0,0,1.57.7,2.37,1.11.8.42,1.84,1.46,2.23,1.95.39.49,1.77,1.68,2.37,2.37.59.69,2.19,1.94,2.79,2.37.6.43,1.54,1.88,2.23,2.79.53.7.99,1.26,1.43,1.27-.53.25-1,.4-1.54.58-.83.29-2.26,1.06-3.07,1.52h-7.58c-1.88,0-3.4,1.52-3.4,3.4v4.88c0,1.34.78,2.5,1.91,3.06v14.26ZM284.32,104.55h-36.36v-4.89h.53c.99,0,1.48-.68,1.48-2.03v-62.96c0-1.35-.49-2.03-1.48-2.03h-.42v-4.89h33.61v20.74h-5.6l-.11-7.23c0-1.28-.18-2.46-.53-3.56-.35-1.1-.81-1.93-1.38-2.5-.85-.85-2.5-1.28-4.97-1.28h-11.41v27.66h19.24v6.06h-19.24v30.74h13.42c1.69,0,2.91-.11,3.65-.32.74-.21,1.39-.6,1.95-1.17.56-.57.99-1.56,1.27-2.98.22-1.1.35-2.32.4-3.67.38-.2.74-.38,1.13-.46,1.25-.28,2.51-.97,4.46-2.02.11-.06.23-.13.36-.19v16.99ZM261.19,93.11c.71,0,2.54-.02,3.61,0,1.34.03,1.67-.19,2.37-.17.7.03,1.06.14,1.84-.33.78-.47,1.62-.58,2.53-.61.92-.03,1.81-.56,2.7-.64.23-.02.52-.01.82,0-.06.62-.14,1.2-.25,1.74-.17.82-.34,1.18-.4,1.27-.14.13-.27.2-.44.25-.1.03-.76.19-2.72.19h-10.07v-1.7ZM287.48,81.47c-.42.73-2.12,2.85-2.68,2.99-.56.14-1.6,1.18-1.91,1.57-.31.38-.94.24-1.98,1.08-1.04.84-2.05.87-2.54.91s-.49-.03-.94.03c-1.17.18-.99.62-2.24.83-1.25.21-2.22.11-2.58.23-.5.17-.89.56-1.75.45-.86-.11-2.12.31-2.84.42-.72.11-3.51.45-4.09.5-.45.04-2.03.2-2.72.27v-9.48c.64-.13,1.96-.47,3.94-1.32,2.92-1.25,5.51-1.98,7.91-3.54,2.4-1.56,4.85-2.98,6.71-3.95,1.87-.97,4.26-2.26,5.26-2.98.5-.36.97-.74,1.32-1.03,0,0,1.3-1.74,5.91-3.68,2.58-1.08,2.75-1.6,3.59-1.95,2.84-1.18,5.09-2.32,5.09-2.32.21-.08.53-.21,1.02-.4,1.42-.56,3.23-1.39,4.18-1.7.95-.31,3.17-.67,3.68-.86.5-.19.81,0,.75.28,0,.04-.02.07-.04.11t0,0c-.07.15-.21.31-.41.52,0,0,0,0,0,0h0c-.16.16-.36.35-.58.57-.58.56-1.34,1.78-2.53,3.12-1.2,1.34-2.37,2.56-2.9,3.01-.53.45-1.09,1.36-1.7,2.14-.39.49-1.04,1.13-1.47,1.53,0,0-2.83,2.54-3.84,3.48-1.01.94-3.59,2.96-4.21,3.73-.63.77-2.58,3.2-3.48,3.73-.91.52-1.5,1.01-1.91,1.74ZM326.48,85.31c0,4.26-.26,7.38-.79,9.36-.53,1.98-1.6,3.9-3.22,5.74-1.41,1.77-3.26,3.09-5.55,3.94-2.29.85-5.02,1.28-8.19,1.28-.85,0-1.82-.02-2.9-.05-1.09-.04-2.38-.3-3.86-.8-3.17-.78-5.71-2.23-7.61-4.36-1.62-1.84-2.78-4.26-3.49-7.23-.51-2.17-.84-5.09-.98-8.76.45-.24.83-.44,1.12-.57,1.39-.63,4.32-3.48,6.2-4.32.11-.05.22-.1.32-.14,0,5.94.11,9.72.32,11.34.21,1.63.78,3.23,1.7,4.79,1.7,2.48,4.74,3.72,9.13,3.72,4.03,0,6.95-1.15,8.76-3.46,1.8-2.3,2.71-5.97,2.71-11.01v-3.3h6.34v3.83ZM326.68,78.17h-2.17c-.77-.84-.72-1.25-.33-1.6.45-.39,1.84-.92,2.95-.72,1.11.2,2.34,1.36,2.95,1.87.37.3,1.2,1.24,1.79,1.92l-1.79,6.97c0-.39,0-.78,0-1.19v-3.83c0-1.88-1.53-3.41-3.41-3.41ZM340.23,104.55h-11.42v-4.89h.43c.91,0,1.51-.67,1.8-2.02l10.01-39.19c.28.01.56.04.85.07,1.74.21,1.6.84,3.41.7.7-.05,1.58.06,2.45.22l-2.94,12.04h16.7l-2.55-10.11c.31.06.62.13.89.22,1.44.46,5.93,2.07,7.46,3.14l8.42,32.92c.28,1.35.81,2.02,1.59,2.02h.53v4.24c-.37.07-.7.1-.93.09-1.02-.05-1.07-1.11-1.16-1.86-.09-.74-.05-3.3-.51-4.41-.46-1.11-1.95-2.32-2.51-2.97-.56-.65-.56-2.51-.74-3.16-.19-.65-1.02-2-1.9-3.2-.88-1.21-3.71-2.18-4.46-2.18-.21,0-.57.02-1,.04l-2.26-8.83h-18.66l-5.16,20.22-.03.43c0,1.06.38,1.59,1.16,1.59h.53v4.89ZM361.17,86.74c-.33.07-.62.18-.91.35-.02.01-.04.03-.06.04-.78.35-1.59.76-1.87,1.05-.56.59-2.65,1.25-3.38.84-.73-.42-2.26-2.19-3.31-2.72-1.04-.52-4.39-.87-5.61-.87-.41,0-.75,0-1.04-.02l1.19-4.63h13.48l1.26,4.88.23,1.07ZM417.57,104.45h-10.86c.06-.1.1-.18.12-.23.25-.53,1.56-2.76,2.01-3.26.45-.5,2.45-1.64,3.59-1.78,1.14-.14,3.01-.78,3.79-.89.25-.04.76-.03,1.36.01v6.15ZM420.35,104.67v-5.21h.42c.09,0,.17,0,.25-.01.15.47.29,1.06.39,1.48.17.7.31,1.03.7,1.31.39.28,1.56,1.11,1.87,1.25.1.04.71.32,1.64.62-1.4.1-3.15.28-5.27.56ZM429.78,103.3c-1.98.17-5.82-1.53-6.24-1.87-.42-.33-.78-3.56-.78-4.07s-.53-.22-1.17-.19c-.64.03-2.12-.39-2.87-.28-.75.11-3.9.33-6.04.39-2.14.06-2.87.45-3.48,1-.61.56-1.39.89-1.7,1-.31.11-.92,1.53-1.78,2.84-.86,1.31-2.12,3.09-2.45,3.31-.33.22-.53,1-1,1.2-.47.2-.86.61-1.67,1.25,0,0,0,0,0,0h-.1c-.77.61-1.98,1.38-2.57,1.52-.84.21-2.51.97-4.32,1.88-1.81.91-3.1.97-4.07,1.25-.97.28-2.79.35-4,.17-1.22-.17-1.95.7-2.75,1.39-.8.7-2.19.94-5.05,1.01-2.85.07-7.28-.77-8.6-1.22-1.32-.45-1.78-1.36-2.3-2.61s-1.71-2.61-2.16-3.13c-.45-.52-2.33-1.95-3.03-2.16-.7-.21-1.46-1.25-2.26-1.85-.8-.59-4.8-1.36-5.6-1.46-.8-.1-1.71-2.23-2.19-3.13-.49-.91-2.26-2.33-3.83-2.82-1.34-.42-4.47-.98-5.36-1.14l2.24-8.72c.83-.05,4.24-.21,5.49.43,1.43.73,2.23,1.29,2.79,1.85.56.56.45.73.7,1.32.24.59.84.8,1.32.97.49.17,1.29.7,1.67,1.18.38.49.91,1.91,1.18,2.16.28.24.77.49,1.01.31.24-.17.38-.21.1-1.04-.28-.84-.8-1.64-1.11-2.05-.31-.42-.59-1.01-.42-1.11.17-.1,1.71-.94,2.37-1.15,1.49-.47,2.18-1.53,6.15-1.55,1.25,0,2.69-.09,3.11,1.25.42,1.35.42,2.32,1.02,3.16.6.84,1.25-.14,1.44,1.11.19,1.25.23,3.3.7,3.71.46.42.51.09,1.49.6.97.51,1.49,2.51,1.39,4.36-.09,1.86-.28,1.81-.19,3.11.07,1.02.09,1.7-.34,2.3h-.01s-.04.07-.04.07c-.1.13-.22.26-.37.38-.24.17-.5.29-.77.31-.63.05-1.04-.61-1.28-.69-.24-.09-.66-.28-.69,0-.03.28.55,2.22,2.11,2.08,1.46-.12,2.13-1.34,2.41-2.07h-.03c.46-.92.87-1.97.87-1.97,0,0,1.86-.65,2.83-1.25s2.74-1.07,4.32-1.02c1.58.05,2.92.32,3.71,1.44.79,1.11.93,2.14,1.3,2.46.37.32.42-.28.84-.32.42-.05.84-.14.56-.65-.28-.51-.42-1.81.23-2.18.65-.37,1.95-.37,2.18-.42s.7-.79.6-1.86c-.09-1.07-.7-3.06.05-4.5.66-1.28,1.92-2.16,2.74-2.76l.04-.03c-.18.13.45-.31.95-.57.8-.42,2.54-.45,3.66-.31,1.11.14,2.65.21,3.31-.21.66-.42,2.4-2.05,3.27-2.4.49-.2,1.06-.3,1.01-.3.84-.08,2.28.47,2.92.31.64-.17,1.48-.14,1.73-.36.25-.22,2.01-1.34,2.56-1.34s3.82-.67,4.93-.97c1.11-.31,1.84-.33,2.59-.25.75.08,2.2.06,3.18.28.97.22,1.39.17,1.67.53.28.36.39,1.53.81,1.64.42.11,1,.7,1.11.92.11.22,1.48,1.28,2.09,1.25.61-.03,2.14-.06,2.73.14.58.19,1.34-.06,2.09-.17s1.56-1.06,1.75-1.78c.02-.07.02-.15,0-.22.27-.67.49-1.35.59-1.74.21-.84,1.6-2.47,2.51-2.79.91-.31,2.68.8,3.38,1.29.39.28,1.21.92,1.84,1.42-.06.22-.13.43-.19.64-.53,1.41-1.21,2.53-2.06,3.38-.38-.13-.91-.26-1.44-.25.02,0,.03.01.03.01,0,0,0,0,0,.01-1.35.15-1.59,1-1.84,1.38-.25.39.03,1.5-.33,2.03-.36.53-.92,1.81-1.28,2.12-.36.31-1.06,1.45-2.53,2.84-1.48,1.39-5.35,1.75-7.32,1.92ZM455.87,96.27c-3.24,5.96-8.39,8.93-15.43,8.93-1.27,0-2.98-.14-5.13-.43-.54-.07-1.04-.14-1.5-.2.12-.04.25-.07.37-.12,4.6-1.56,5.99-4.73,6.68-5.49.11-.12.22-.25.34-.39,4.05-.73,6.86-3.24,8.44-7.54,1.9-6.1,2.85-14,2.85-23.72,0-4.75-.28-9.79-.85-15.1-.78-7.66-2.26-12.73-4.44-15.21-2.19-2.48-5.32-3.72-9.41-3.72h-3.7c-1.48.21-2.78.36-3.91.43v29.71c-.11-.06-.21-.12-.31-.17-1.11-.6-2.83-1.16-4.18-.93-1.21.21-2.09.57-3.23.88v-28.63c0-1.28-.53-1.92-1.58-1.92h-.42v-5.32l6.76.43,7.08-.43,6.13-.53c4.01,0,7.47,1.03,10.36,3.08,2.89,2.06,5,5.04,6.34,8.93,2.39,6.53,3.59,16.13,3.59,28.83s-1.62,22.66-4.86,28.61ZM498.66,14.86c.38-.31,1.5-2.23,1.98-2.51.49-.28,3.2-.56,6.51-.42,3.31.14,5.08,1.29,6.06,2.12.97.84,1.01,1.95,1.29,2.99.28,1.04,1.18,2.23,2.05,2.54.44.16,1.1.37,1.77.53-.93.52-2.06.38-3.2.09-1.25-.31-2.19-1.46-2.26-1.98-.07-.52-.21-1.64-1.01-2.19-.8-.56-3.69-.38-5.78-.14-2.09.24-4.35,2.58-4.8,3.62-.45,1.04-.1,3.9.07,6.44.11,1.58.2,2.87.26,3.61-.66-.68-1.38-1.32-2.18-1.92-.02-.01-.04-.03-.06-.04-.69-.49-1.4-.95-2.13-1.36.01-1.21-.1-3.4-.21-3.98-.14-.73-.17-1.43-.21-3.83-.03-2.4,1.46-3.27,1.85-3.59ZM503.48,81.28c0,4.11-.06,7.08-.16,8.92-.11,1.84-.65,3.89-1.64,6.16-1.2,2.97-3.3,5.29-6.29,6.96-2.99,1.67-6.61,2.5-10.84,2.5-5.22,0-9.51-1.27-12.89-3.82-1.9-1.42-3.29-3.15-4.18-5.2-.88-2.05-1.43-4-1.64-5.84-.21-1.84-.32-5.1-.32-9.77v-30.06c0-4.11.06-7.08.16-8.92.11-1.84.65-3.9,1.64-6.16,1.2-3.04,3.29-5.38,6.29-7.01,2.99-1.63,6.64-2.44,10.94-2.44,5,0,9.26,1.27,12.79,3.82,1.97,1.49,3.38,3.26,4.23,5.31.84,2.05,1.37,3.95,1.59,5.68.21,1.73.32,5.01.32,9.82v30.06ZM635.53,17.65c.42.47.31,1.28.31,2.12s.08,1.75.19,2.28c.11.53.28.86-.22.75-.5-.11-3.37-.58-4.21-.89-.84-.31-3.37-.78-5.21-.72-1.84.06-3.33.93-3.68,1.17-.72.5-1.5.64-1.5.64,0,0,.42-3.2.64-3.76s1.36-3.26,2.56-4.01c1.2-.75,3.06-1.75,3.9-1.81.84-.06,3.4.39,4.48,1.42,1.09,1.03,2.31,2.34,2.73,2.81ZM568.91,31.05c.95-.64,1.48-1.62,1.92-2.14s1.64-2.28,3.15-3.23c1.5-.95,3.37-2.03,4.93-2.03s2.67.08,3.68.72c1,.64,1.56,1.09,1.62,1.7.06.61.22.86.61,1.2.39.33.58.72.11,1.53-.47.81-1.45,4.04-1.81,4.93-.36.89-.67,1.78-.11,3.12.56,1.34.64,2.17,1.09,3.29,0,0-.97-.53-1.36-1.45-.39-.92-.84-2.53-3.87-4.37-3.04-1.84-5.21-2.4-6.41-2.56-1.2-.17-3.06,0-3.59.08-.53.08-.89-.14.06-.78ZM562.53,79.51c.74-.39,1.75-.81,1.98-1.48.22-.67.64-.58.5-1.78-.08-.71-.08-1.53-2.03-3.06-1.84-1.45-3.37-3.43-3.37-5.38s2.2-5.35,3.84-6.46c1.64-1.11,6.21-3.79,7.66-4.68,1.45-.89,2.79-2.7,3.76-3.87.5-.6,1.3-1.68,1.67-2.79.35-1.05.28-2.14.28-2.51,0-.75,0-3.12-2.95-6.46-.91-1.03-1.68-1.4-2.42-1.94-1.67-1.21-2.08-1.84-3.48-1.87-.8-.02-3.12.2-4.18.39-1.06.2-1.95.75-3.06.72-1.11-.03-2.28-.33-3.31-1.09-1.03-.75-1.28-1.64-1.48-2.17-.2-.53.11-1.48-.11-2.42-.22-.95-.28-1.98-.06-2.79.22-.81.75-1.28,1.17-1.45.42-.17,1.09-.39,1.31-.45.22-.06,0,.75-.47,1.2s-1.11,1.17-.84,1.84c.28.67-.28.89.47,2.01.75,1.11,1.98,2.53,3.76,2.2,1.78-.33,3.48-1.11,4.46-1.75.97-.64,2.37-1.06,4.07-1.03,1.7.03,4.26.22,5.18.81.92.58,1.48,1,2.79,1.81,1.31.81,3.56,2.65,4.4,3.9.84,1.25.64,1.67,1.31,3.01s1.53,3.43,1.34,5.63c-.2,2.2-.92,4.71-1.62,5.49-.7.78-2.26,2.14-2.59,2.31-.33.17-1.14,0-3.65,1.36-2.51,1.36-2.67,2.14-3.43,2.92s-2.79,2.48-2.59,4.73c.19,2.26.92,5.29.84,6.18-.08.89-.42,2.65-.45,3.37-.03.72-.06,1.39-.39,1.98-.33.58-2.4,3.09-4.12,3.51-1.73.42-2.23.75-3.01.89-.78.14-1.56.36-1.75.06-.19-.31,0-.58.58-.89ZM548.63,78.87c1.59.2,3.04.45,3.62.56.58.11,1.75.95,2.59,1.31.84.36,2.42.58,5.57.89,3.15.31,3.59-.11,5.63-.86s4.96-3.06,5.9-4.54c.95-1.48.75-6.91.5-7.83-.25-.92-.53-2.84-.42-4.07.11-1.23,1.84-3.48,2.79-4.54.95-1.06,2.53-1.59,2.73-1.92.2-.33.92-.92,1.75-1.14-.7.36-1.75,2.09-1.89,2.51-.14.42-.92,2.51-1.36,3.23-.45.72-.58,1.84-.25,3.15.33,1.31,1.2,4.32,1.87,6.74.67,2.42.61,5.24-.39,7.69-1,2.45-5.12,5.21-6.27,5.71-1.14.5-2.56.36-4.18.7-1.62.33-2.9.78-4.23.86-1.34.08-5.07-.03-6.43-.56-1.36-.53-2.79-1.92-3.01-1.98-.22-.06-1.67-.19-2.92-.7-.71-.28-1.64-.51-2.3-.64-.23-1.69-.64-3.35-1.22-4.95.97.03.55.22,1.94.39ZM548.04,84.51s.06.01.09.01c.61,0,2.65.58,3.29.78.64.2,1.28.08,1.45.25.17.17.45.45.95.78.5.33.42.58,0,.61-.42.03-1.5.28-2.84.45-1.04.13-2.34.45-2.86.58.02-.41.03-.82.03-1.24,0-.74-.03-1.48-.1-2.22ZM552.62,90.12c.58-.17,1.17-.45,2.67-.81,1.5-.36,3.45-.42,3.7-.11.25.31-.17.56-.86,1-.7.45-1.25.86-2.14,1.28-.89.42-2.17,1.2-2.84,1.62-.67.42-.75.25-2.09.5-1.17.22-3.4.44-3.94.49.34-1.14.6-2.33.77-3.56,1.08-.05,4.21-.26,4.73-.41ZM506.94,55.48c1.73,3.04,4.18,6.02,7.33,8.92l3.74,3.42c-1.47,0-3.53,0-5.43.05-2.46.08-4.66.25-5.65.33v-12.73ZM506.94,78.46v-9.86c1.36,0,9.27-.07,10.76-.03.39,0,.79.03,1.18.05l1.66,1.52s.05.05.08.07c2.44,2.09,4.49,3.96,6.08,5.55.59.59,1.19,1.2,1.8,1.85-1.55-.18-4.21-.45-6.21-.47-2.28-.03-7.69.63-10.14.95h-3.66c-.56,0-1.09.14-1.56.38ZM531.55,88.59c-1.04,0-.84-.56-1.15-.84-.31-.28-2.68-.91-5.08-1.64-2.4-.73-3.55-1.71-4.73-2.3-.9-.45-2.46-1.02-3.16-1.27,0-.34,0-.7,0-1.06,0-1.45-.91-2.7-2.19-3.18,1.68-.15,5.17-.45,5.77-.48.8-.03,3.59.1,5.57.52,1.05.22,2.37.55,3.38.81.17.19.35.38.52.57,1.72,2.07,2.56,4.56,2.56,7.63,0,.37-.01.72-.04,1.07-.38.08-.9.17-1.44.17ZM532.57,90.76c-.39,1.26-1.02,2.34-1.9,3.27-1.56,1.66-3.47,2.43-6.02,2.43-3.62,0-5.43-1.36-6.25-4.7-.02-.07-.04-.14-.06-.21-.35-1.11-.59-2.31-.7-3.56-.04-.37-.07-.8-.09-1.28.25.13.55.28.88.45,1.1.56,2.65,1.28,5.27,1.99,3.72,1,7.44,1.47,8.88,1.62ZM524.98,105.82c-.85,0-1.6-.02-2.27-.05-.67-.04-2.17-.2-4.49-.48-2.04-.43-3.61-.79-4.7-1.11-1.09-.32-2.7-.97-4.81-1.96v-20.65h5.5c0,3.03.07,5.31.21,6.82.14,1.52.42,2.94.85,4.28,1.2,4.86,4.37,7.3,9.51,7.3,3.45,0,6.27-1.17,8.46-3.51,2.18-2.34,3.28-5.34,3.28-9.03,0-3.9-1.13-7.19-3.38-9.88-1.34-1.48-2.64-2.87-3.91-4.14-1.62-1.63-3.7-3.54-6.24-5.74l-6.23-5.74c-6.2-5.74-9.3-11.61-9.3-17.63,0-5.24,1.76-9.49,5.28-12.74,3.52-3.26,8.1-4.89,13.74-4.89,1.9,0,3.68.21,5.34.64,1.65.43,3.82,1.21,6.5,2.34l2.85,1.28v17.23h-5.07c0-5.39-.83-9.25-2.48-11.6-1.66-2.34-4.14-3.51-7.45-3.51-3.1,0-5.64,1.03-7.61,3.08-1.97,2.05-2.96,4.63-2.96,7.75,0,1.84.17,3.24.53,4.2.35.96,1.16,2.36,2.43,4.2,1.41,1.84,2.57,3.22,3.49,4.14,1.2,1.2,3.35,3.19,6.45,5.95,3.1,2.76,5.42,4.89,6.97,6.37,1.83,1.77,3.28,3.29,4.34,4.57,1.55,1.77,2.76,3.82,3.65,6.16.88,2.34,1.32,4.78,1.32,7.33,0,5.74-1.8,10.34-5.39,13.81-3.59,3.47-8.39,5.2-14.38,5.2ZM581.47,94.24c-.67.25-3.82,2.37-5.71,3.2-1.89.84-4.73,1.98-5.63,2.23-.89.25-3.43,2.03-4.04,2.45-.61.42-4.21,1.67-6.1,2.28-1.89.61-3.2.5-4.71.81-1.5.31-3.56.11-7.21.11-3.03,0-7.52-.19-8.95-.26.9-.62,1.75-1.32,2.55-2.09,2.42-2.32,4.16-5.06,5.22-8.21.52-.05,1.39-.13,2.66-.25,2.31-.22,3.54-.67,4.07-.78.53-.11,1.59-.92,4.21-1.25,2.62-.33,6.35-.25,8.19.19,1.84.45,4.18,1.45,5.24,1.62,1.06.17,4.93-.06,5.79-.14.86-.08,2.95-.67,3.7-.89.75-.22,1.89-.33,1.95-.03.06.31-.56.75-1.23,1ZM589.99,83.96c-.58.5-1.7,1.95-3.26,3.31-1.56,1.36-3.26,3.2-4.68,3.68-1.42.47-3.76,1.09-6.88.97-3.12-.11-4.99-.36-6.24-.61s-3.76-.39-4.79-.95c-1.03-.56-1.81-.56-1.78-.89.03-.33.36-.42.78-.56.42-.14,4.48-.53,5.88-.89,1.39-.36,3.84-.61,5.04-1.09,1.2-.47,3.87-2.28,5.26-3.87,1.2-1.36,2.01-2.95,1.78-5.46-.22-2.51-.39-2.7-1.62-6.43-1.23-3.73-1.84-4.87-2.12-5.68-.28-.81.17-.97.17-1.42s-.03-1.09.25-2.34,1.14-2.37,1.87-3.17c.72-.81,2.06-2.09,2.53-2.28.47-.19,2.78-1.93,3.53-4.3.75-2.37,1.18-5.63,1.11-7.1-.09-1.94-.42-8.12-.17-10.02.25-1.89,1.2-5.47,3.84-7.89,2.65-2.42,3.6-3.3,4.8-3.86,1.2-.56,2.09-1.11,3.17-.84,1.09.28,3.15,1.03,3.95,1.87.81.84,1.5,1.14,2.65,2.79s2.51,2.7,3.76,3.09c1.25.39,1.95.58,3.17.11s3.84-2.34,4.79-3.31c.95-.97,1.53-2.17,1.75-2.76.22-.58-.08-1.84.03-2.79.11-.95.36-1.64.31-2.42-.06-.78-.03-2.7.14-3.29.17-.58,1.95-3.37,3.15-3.73,1.2-.36,3.17-1.03,4.76-1,1.59.03,2.45.2,3.82.86,1.36.67,2.2,1.36,2.17,1.64-.03.28-.56-.03-1.39-.5-.84-.47-2.59-.56-3.62-.36-1.03.2-3.51.72-5.51,3.04-2.01,2.31-2.42,2.87-2.65,3.76-.22.89-.42,1.48-.64,3.7-.22,2.23-.39,3.98-.64,4.68-.25.7-1.5,2.53-3.23,3.59-1.73,1.06-3.34,1.73-4.18,1.89-.84.17-2.98.28-4.6-.03-1.62-.31-2.76-.78-3.84-1.45-1.09-.67-2.28-1.25-3.76-1.14-1.48.11-4.29.97-5.49,2.28-1.2,1.31-2.2,3.12-1.73,6.1.47,2.98,1.11,4.87,1.45,6.35.33,1.48.75,3.09,1.09,4.01.33.92.42,2.17.81,3.76.39,1.59,1.09,6.96,1.25,9.19.17,2.23.19,5.63-.08,6.57-.28.95-.95,2.98-1.25,4.23-.31,1.25-.64,2.17-.97,2.87-.33.7-.72,1.59-.89,2.12-.17.53-.47,2.01-1.11,3.06-.64,1.06-1.36,2.4-1.95,2.9ZM606.09,35.36c-.36.45-.92,1.84-1.03,2.48-.11.64-.86,1.7-1.73,2.14-.86.45-1.78.95-2.34.97-.56.03-2.17.5-2.81.61-.64.11-1.32.97-1.39.84-.32-.63-.31-2.26-.45-2.98-.14-.72-.67-3.01-.42-3.87.25-.86.58-2.09,2.01-2.51,1.42-.42,2.73-1.06,3.45-.58.72.47,2.14,1.06,3.04,1.42.89.36,1.98.28,1.98.42s.06.61-.31,1.06ZM606.9,54.3c-.19.56-.17,1.25-.58,2.26-.42,1-.81,1.89-1.34,4.73-.53,2.84-1.23,5.1-1.98,6.93s-1.98,4.46-2.42,5.54c-.45,1.09-.61,1.73-1.62,3.23-1,1.5-2.03,3.23-2.92,4.26-.89,1.03-1.45,2.42-2.26,3.12-.81.7-1.23,1.09-1.53,1.34-.31.25-.86.47-.36-.42.5-.89,1.53-3.43,2.31-5.49.78-2.06,1.98-4.65,2.28-6.85.31-2.2.31-3.06.53-4.46.22-1.39.39-2.48.53-3.93.1-1,.28-2.2.42-4.18.14-1.98.08-3.98,0-5.01-.06-.79-.17-2.31,0-2.79.92.31,2.51,1.5,4.46,1.84,1.95.33,3.31.36,3.84-.17.53-.53.84-.53.64.03ZM611.6,45.25c-.19.95-.95,2.78-1.36,3.59-.42.81-.47.67-.81,1.45-.33.78-.84,1.67-1.5,2.12-.67.45-1.2.81-1.45,1.11-.25.31-.45.14-.92.2-.47.06-1.09.14-2.65-.39-1.56-.53-3.06-2.03-3.79-2.7-.72-.67-1.11-.72-1.34-2.4-.22-1.67-.42-2.37-.47-3.37-.06-1,.05-1.39.84-1.75,1.5-.7,2.84-.18,3.73-.42,1.28-.33,3.17-.66,3.72-3.62.45-2.45,2.71-3.9,3.02-4.04.31-.14,1.89-.39,3.93-1.14,2.03-.75,4.87-2.48,5.82-3.95.95-1.48,1.87-2.92,2.12-4.07.25-1.14.22-1.62.53-1.62s2.2-.72,2.73-.95c.53-.22,2.26-.61,4.82-.36,2.56.25,5.01.58,5.88.81.86.22,1.95.56,2.31.89.36.33,1,.11,1.31.72.31.61.84.78,1.17,1.2.33.42,1,1.7.97,2.4-.03.7.39,1.28.92,1.62.53.33.81.95,0,.81-.81-.14-1.62-.67-2.01-1.17-.39-.5-1.31-1.64-1.45-2.17-.14-.53-1.14-1.14-1.95-1.28-.81-.14-1.81-.36-2.51-.22-.7.14-4.65,1.25-5.85,1.81-1.2.56-3.79,1.75-4.57,2.03s-3.45,2.06-5.35,4.01c-1.89,1.95-2.87,3.76-3.7,6.04-.84,2.28-1.95,3.87-2.14,4.82ZM629.46,38.9c.75,1.45,1.31,2.59,3.62,3.31,2.31.72,3.56.97,4.01.92.45-.06.89.19,1.17.19s.19.67-.47.72c-.67.06-2.26.28-2.79.31-.53.03-1.81,0-2.95-.22-1.14-.22-2.12-.53-2.45-1-.33-.47-.95-1.75-1.78-2.9-.84-1.14-1.64-1.75-2.34-1.67-.7.08-2.2.08-3.9.42-1.7.33-3.06,1-3.82,1.42-.75.42-1.34,1.2-2.09,1.75-.75.56-1.03.92-1.34,1.2-.31.28-.53.58-.22-.58.31-1.17,1.31-3.82,1.98-5.15.67-1.34,2.37-3.06,2.87-3.48.5-.42.45-.53,1.48-.31,1.03.22,3.87.47,4.85.47s1.45.33,2.12,1.09,1.31,2.06,2.06,3.51ZM628.51,35.09c-.27-.08-1.64-1-2.12-1.28-.47-.28-1.42-.36-2.59-.45-1.17-.08-2.12-.11-2.4-.36-.28-.25-.11-1,1.11-1.5s2.53-1.59,4.15-2.14c1.62-.56,3.4-1.17,4.87-1.42,1.48-.25,1.95-.47,2.73-.25.78.22,1.28.36.61.67-.67.31-.86.7-1.23,1.7-.36,1-1.03,2.42-1.98,3.04-.95.61-2.53,2.2-3.17,2.01Z"/><path class="cls-1" d="M180.67,118.57c-.49.28-1.25,1.04-2.16,1.53-.91.49-4.39,1.85-5.88,1.88-1.5.03-2.05.07-2.82-.42-.77-.49-2.58-1.15-3.86-1.53-1.29-.38-3.31-1.18-4.67-2.37-1.36-1.18-2.79-3.17-2.51-4.63.28-1.46,1.01-2.3.87-3.03-.14-.73-.8-.97-.84-1.25-.02-.13.25-.48.53-.81h0c1.07-.76,1.8-.38,2.05-.8.24-.42.03-.8.7-1.15.66-.35,1.04-1.4.65-1.14-.39.26-1.76,1.07-2.18,1.11s-1,.93-2.16.93-1.76.35-2.25.63c-.49.28-2.48.46-3.53.26-1.04-.21-1.51-.35-2.14-.7-.63-.35-.91-.44-1.67-.37-.77.07-2.11.16-2.79-.44s-.44.58.19.84c.63.26,1.95.97,2.04.97.02,0,.22.02.51.06-.23.43-.62.9-1.25,1.16-1.39.56-2.51,1.59-4.85,1.64-2.34.06-4.48-.28-5.71-1.48-1.23-1.2-1.84-3.68-1.39-4.82.45-1.14.75-1.89,1.2-2.34.21-.21-.14-.58-.75-.19-.61.39-1.56,1-2.06,3.23-.5,2.23.45,4.04,1.36,4.82.92.78,1.11.86,1.48,1.11.36.25.45.81.19.81s-.7.17-.97.11c-.28-.06-.45.06-.56.25-.11.19-3.62,1.59-5.54,2.17-1.92.58-5.63,1.89-8.49,2.42-2.87.53-7.46,1.17-9.44,1.14-1.98-.03-5.63.03-6.99-.22-1.36-.25-3.45-.64-3.98-.84-.53-.19-2.67-.97-4.01-3.04-1.34-2.06-1.28-3.29-1.28-4.07,0,0-1.2,1.36-.42,3.23s1.53,2.42,2.45,3.06c.92.64,2.4,1.74,3.23,2.06,1.36.53,3.06.45,3.51.64.45.19,1.31.31,2.95.19,1.64-.11,3.9.03,6.77-.25,2.87-.28,6.18-1,7.55-1.25,1.36-.25,1.87-.28,2.48-.58.61-.31,1.39-.25,2.65-.58,1.25-.33,4.23-1,5.77-1.45,1.53-.45,3.12-.81,4.21-1.23,1.09-.42,1.45-.36,2.26-.58.81-.22,1.78-.67,2.28-.81.5-.14,1.64-.11,3.59-.89,1.95-.78,2.56-1.34,3.54-1.56.53-.12,1.03-.53,1.42-1.02.19.15.72-.02,1.29-.15.77-.17,2.54,0,3.17-.03.63-.03,1.88-.03,2.68.24.8.28.97.97.73,1.67-.24.7-.87,2.89-.66,3.66.21.77,1.5,2.96,2.65,3.76,1.15.8,1.98,1.71,2.26,2.05.28.35.63.03.94.56.31.52,2.12,1.18,2.89,1.43.77.24,3.76,1.57,5.64,1.5,1.88-.07,3.79-.21,6.09-1.98,1.27-.98,2.54-.97,3.31-1.78.77-.8,1.5-1.36,1.5-1.36,0,0-1.25-.28-1.74,0Z"/></g></svg>