<?xml version="1.0" encoding="UTF-8"?><svg id="Layer_2" xmlns="http://www.w3.org/2000/svg" viewBox="0 0 593.65 134.64"><defs><style>.cls-1{fill:#fff;stroke-width:0px;}</style></defs><g id="Layer_1-2"><path class="cls-1" d="M67.84,26.44c9.74,0,17.7,7.84,17.7,17.58v67.96h-18.66v-27.56H18.42v27.56H0V44.02c0-9.74,7.84-17.58,17.58-17.58h50.26ZM66.89,65.88v-20.92H18.42v20.92h48.47Z"/><path class="cls-1" d="M99.27,26.31h18.42v67.13h67.13v18.54h-85.55V26.31Z"/><path class="cls-1" d="M191.87,26.31h18.42v67.13h67.13v18.54h-85.55V26.31Z"/><path class="cls-1" d="M322.05,26.44l-16.58,45.57h-7.53l-10.76-29.3-4.05,11.14c-2.15,5.89-4.62,12.4-6.65,18.17h-7.53l-16.58-45.57h10.44l9.94,27.15,1.58-4.24c2.72-7.34,5.63-15.51,8.35-22.91h9.05l10,27.15,1.58-4.24c2.72-7.34,5.64-15.51,8.36-22.91h10.38Z"/><path class="cls-1" d="M361.59,26.44c5.13,0,9.37,4.17,9.37,9.36v26.84c0,5.19-4.24,9.37-9.37,9.37h-26.84c-5.19,0-9.37-4.18-9.37-9.37v-26.84c0-5.19,4.18-9.36,9.37-9.36h26.84ZM335.2,62.14h25.82v-25.83h-25.82v25.83Z"/><path class="cls-1" d="M423.46,47.65c0,5.12-4.24,9.36-9.43,9.36h-.44c3.23,3.8,6.71,7.85,9.87,11.65v3.36h-10.13l-12.6-15-13.04.07c.13,0,.19.12.19.38,0,0-.13,0-.19-.06v14.62h-9.81V26.51h36.14c5.19,0,9.43,4.24,9.43,9.36v11.78ZM387.69,47.14h25.83v-10.82h-25.83v10.82Z"/><path class="cls-1" d="M430.26,26.38h9.81v35.76h35.76v9.87h-45.57V26.38Z"/><path class="cls-1" d="M515.79,26.44c5.19,0,9.43,4.17,9.43,9.36v26.84c0,5.19-4.24,9.37-9.43,9.37h-36.14V26.44h36.14ZM489.46,62.14h25.82v-25.83h-25.82v25.83Z"/><path class="cls-1" d="M282.42,83.68h6.13v28.31h-6.13v-28.31Z"/><path class="cls-1" d="M313.16,83.68h6.17v28.31h-6.29l-15.92-18.95v18.95h-6.09v-28.31h6.29l15.84,18.87v-18.87Z"/><path class="cls-1" d="M351.86,92.13h-6.17v-2.32h-16.04v4.96h16.39c3.18,0,5.82,2.59,5.82,5.82v5.58c0,3.22-2.63,5.82-5.82,5.82h-16.67c-3.22,0-5.82-2.6-5.82-5.82v-2.63h6.09v2.32h16.04v-4.95h-16.31c-3.22,0-5.82-2.6-5.82-5.82v-5.58c0-3.22,2.59-5.82,5.82-5.82h16.67c3.18,0,5.82,2.6,5.82,5.82v2.63Z"/><path class="cls-1" d="M362.1,105.85h16.04v-22.17h6.17v22.49c0,3.22-2.63,5.82-5.82,5.82h-16.67c-3.22,0-5.82-2.6-5.82-5.82v-22.49h6.09v22.17Z"/><path class="cls-1" d="M416.92,96.85c0,3.18-2.63,5.82-5.86,5.82h-.28c2.01,2.36,4.17,4.88,6.13,7.23v2.08h-6.29l-7.82-9.32-8.1.04c.08,0,.12.08.12.23,0,0-.08,0-.12-.04v9.08h-6.09v-28.26h22.45c3.22,0,5.86,2.63,5.86,5.82v7.31ZM394.71,96.53h16.04v-6.72h-16.04v6.72Z"/><path class="cls-1" d="M443.63,83.68c3.22,0,5.86,2.6,5.86,5.82v22.49h-6.17v-9.12h-16.04v9.12h-6.09v-22.49c0-3.22,2.59-5.82,5.82-5.82h16.63ZM443.32,96.73v-6.92h-16.04v6.92h16.04Z"/><path class="cls-1" d="M476.12,83.68h6.17v28.31h-6.29l-15.92-18.95v18.95h-6.09v-28.31h6.29l15.84,18.87v-18.87Z"/><path class="cls-1" d="M492.8,89.81v16.04h22.13v6.13h-22.41c-3.22,0-5.82-2.6-5.82-5.82v-16.67c0-3.22,2.59-5.82,5.82-5.82h22.41v6.13h-22.13Z"/><path class="cls-1" d="M545.26,89.81h-19.97v4.96h16.08v6.13h-16.08v4.95h19.97v6.13h-26.14v-28.31h26.14v6.13Z"/><path class="cls-1" d="M494.32,20.64s28.26-8.51,37.87-20.64c0,0,28.66,23.52,61.27,24.24,0,0,6.76,77.79-61.27,110.4,0,0-14.06-7.22-23.87-16.74,0,0,16.18,7.99,22.61,7.99,0,0,48.1-17.51,53.03-92.94,0,0-35.03-6.44-51.76-23.09,0,0-14.93,8.66-37.87,10.78Z"/></g></svg>