<?xml version="1.0" encoding="UTF-8"?><svg id="Layer_2" xmlns="http://www.w3.org/2000/svg" viewBox="0 0 226.52 123.87"><defs><style>.cls-1{fill:#fff;stroke-width:0px;}</style></defs><g id="Layer_1-2"><circle class="cls-1" cx="113.69" cy="104.23" r="6.35"/><circle class="cls-1" cx="73.73" cy="104.23" r="6.35"/><path class="cls-1" d="M20.16,84.6L0,123.87h206.36l20.16-39.27H20.16ZM48.93,108.68h-17.52v10.78h-8.19v-18.54h25.71v7.76ZM48.93,97.94h-25.71v-7.76h25.71v7.76ZM73.73,119.45c-8.41,0-15.22-6.82-15.22-15.22s6.82-15.22,15.22-15.22,15.22,6.82,15.22,15.22-6.82,15.22-15.22,15.22ZM113.69,119.45c-8.41,0-15.22-6.82-15.22-15.22s6.82-15.22,15.22-15.22,15.22,6.82,15.22,15.22-6.82,15.22-15.22,15.22ZM149.8,119.45h-11.7s0-8.52,0-8.52h11.7c3.39,0,6.14-2.75,6.14-6.14s-2.75-6.14-6.14-6.14h-11.7s0-8.52,0-8.52h11.7c8.1,0,14.67,6.56,14.67,14.66s-6.57,14.67-14.67,14.67ZM193.86,119.46h-16.72v-8.53h16.72c.5,0,.91-.41.91-.92s-.4-.96-.89-.97h-10.75c-5.21,0-9.44-4.23-9.44-9.44s4.23-9.45,9.44-9.45h16.07v8.53h-16.07c-.5,0-.91.41-.91.92s.4.96.89.97h10.75c5.21,0,9.44,4.23,9.44,9.44s-4.23,9.45-9.44,9.45Z"/><polygon class="cls-1" points="138.57 0 117.47 0 117.47 75.52 171.11 75.52 171.11 57.18 138.57 57.18 138.57 0"/><polygon class="cls-1" points="78.05 0 58.83 0 20.62 75.52 44.11 75.52 68.44 27.44 92.77 75.52 116.26 75.52 78.05 0"/><polygon class="cls-1" points="193.98 57.18 193.98 0 172.89 0 172.89 75.52 226.52 75.52 226.52 57.18 193.98 57.18"/></g></svg>