<?xml version="1.0" encoding="UTF-8"?><svg id="Layer_2" xmlns="http://www.w3.org/2000/svg" viewBox="0 0 688.75 478.78"><defs><style>.cls-1{fill:#fff;}</style></defs><g id="Layer_1-2"><path class="cls-1" d="M156.55,335.92v25.5l-110.58,116.05-45.96,1.31,128.45-142.86h28.1ZM154.3,341.92h-22.01s-2.74,2.97-2.74,2.97l24.75.5v-3.48ZM154.31,352.92h-32.01s-3.71,3.77-3.51,3.77l35.5.12.02-3.89Z"/><polygon class="cls-1" points="236.88 297.92 222.25 315.78 216.38 315.78 230.65 297.92 225.63 297.92 203.39 322.92 251.29 322.91 269.89 308.92 306.44 308.92 306.44 297.92 279.89 297.92 279.89 291.92 306.44 291.91 306.44 285.91 236.88 285.91 236.88 297.92"/><polygon class="cls-1" points="350.89 128.15 306.67 128.41 261.89 174.92 306.39 174.92 350.89 128.15"/><path class="cls-1" d="M357.18,193.03h41.26v-35.26h-41.26v35.26ZM363.32,164.25l11.97,9.96,1.48-1.38-12.1-10.22h27.97l-29.31,25.49v-23.85Z"/><polygon class="cls-1" points="363.32 128.15 398.44 128.15 414.89 110.03 431.35 128.15 466.46 128.15 414.89 72.61 363.32 128.15"/><polygon class="cls-1" points="414.89 62.49 466.46 117.91 523.35 117.91 491 82.74 472.13 100.38 466.46 94.32 485.38 76.63 480.84 71.7 472.06 79.9 466.39 73.84 475.22 65.59 414.89 0 354.56 65.59 363.39 73.84 357.72 79.9 348.95 71.7 344.41 76.63 363.32 94.32 357.66 100.38 338.79 82.74 306.44 117.91 363.32 117.91 414.89 62.49"/><polygon class="cls-1" points="599.13 297.92 613.41 315.78 607.54 315.78 592.9 297.92 592.9 285.91 523.35 285.91 523.35 291.91 549.89 291.92 549.89 297.92 523.35 297.92 523.35 308.92 559.89 308.92 578.5 322.91 626.39 322.92 604.15 297.92 599.13 297.92"/><polygon class="cls-1" points="478.89 128.15 523.39 174.92 567.89 174.92 523.11 128.41 478.89 128.15"/><path class="cls-1" d="M472.6,157.77h-41.26v35.26h41.26v-35.26ZM466.46,188.1l-29.31-25.49h27.97l-12.1,10.22,1.48,1.38,11.97-9.96v23.85Z"/><path class="cls-1" d="M632.37,259.21l-19.17,17.91-5.67-6.06,19.29-18.02-19.29-21.45v-21l-14.63-13.68v23h-14.41v-19.5c0-.11-1.63-1.5-1.74-1.5l-53.41-.02v-15.94l-44.57-46.85h-53.57v-7.96l-10.31-11.35-10.31,11.35v7.96h-53.57l-44.57,46.85v15.94l-53.41.02c-.11,0-1.74,1.39-1.74,1.5v19.5h-14.41v-23l-14.63,13.68v21l-19.29,21.45,19.29,18.02-5.67,6.06-19.17-17.91-56.38,62.7,53.23-.17,42.61-44.62h75.01v27.29l21.5,17.5h55.5v22.2h-15.5v-13.2h-31.5l23.5,22h99l23.5-22h-31.5v13.2h-15.5v-22.2h55.5l21.5-17.5v-27.29h75.01l42.61,44.62,53.23.17-56.38-62.7ZM537.8,213.92h22.09v6h-22.09v-6ZM537.8,224.91h22.09v6h-22.09v-6ZM504.07,213.92h13.83v17h-13.83v-17ZM311.89,213.92h13.83v17h-13.83v-17ZM269.89,213.92h22.09v6h-22.09v-6ZM269.89,224.92h22.09s0,6,0,6h-22.09s0-6,0-6ZM346.89,258.92h-107c-.25,0-1.07-4.27-1-5h104c.39-5.46-2.41-9-7.5-9h-23.5c-.3,0-.3-6,0-6h30v-27c0-.25,4.16.17,5,0v47ZM350.89,198.89v-46.24h53.69v46.24h-53.69ZM425.2,305.68h-20.62v-7.77h20.62v7.77ZM478.89,198.89h-53.69v-46.24h53.69v46.24ZM589.89,258.92h-107v-47c.84.17,5-.25,5,0v27h30c.3,0,.3,6,0,6h-23.5c-5.09,0-7.89,3.54-7.5,9h104c.07.73-.75,5-1,5Z"/><polygon class="cls-1" points="163.77 335.92 163.77 412.91 129.94 412.91 118.79 424.92 163.77 424.92 163.77 478.17 183.7 478.17 183.7 424.92 183.7 412.91 183.7 335.92 163.77 335.92"/><rect class="cls-1" x="404.93" y="335.92" width="19.93" height="142.25"/><path class="cls-1" d="M196.37,467.16l9-3.36v-36.52l-9-3.36v-11.01h25.65v5.37l8.73-4.43c1.34-.67,2.42-.94,4.03-.94h13.7c1.75,0,3.09.54,4.43,1.88l5.64,5.64,13.02-6.58c1.34-.67,2.42-.94,4.03-.94h13.7c1.75,0,3.09.54,4.43,1.88l7.92,7.92c1.34,1.34,1.88,2.55,1.88,4.57v36.52l9,3.36v11.01h-34.64v-11.01l9-3.36v-30.75c0-1.07-.27-1.75-.94-2.42l-1.34-1.34c-.81-.81-1.48-1.07-2.55-1.07h-6.98c-1.21,0-2.01.13-3.22.54l-9.13,2.69v32.36l9,3.36v11.01h-34.64v-11.01l9-3.36v-30.75c0-1.07-.27-1.75-.94-2.42l-1.34-1.34c-.81-.81-1.48-1.07-2.55-1.07h-6.98c-1.21,0-2.01.13-3.22.4l-9,2.69v32.49l9,3.36v11.01h-34.64v-11.01Z"/><path class="cls-1" d="M330.78,476.29l-7.92-7.92c-1.34-1.34-1.88-2.55-1.88-4.57v-36.52l-9-3.36v-11.01h25.65v45.12c0,1.07.13,1.75.94,2.42l1.34,1.34c.81.81,1.34,1.07,2.55,1.07h13.7c1.21,0,2.01-.13,3.22-.4l9-2.69v-32.5l-9-3.36v-11.01h34.51v11.01l-8.86,3.36v36.52l8.86,3.36v11.01h-25.51v-5.37l-8.73,4.43c-1.34.67-2.42.94-4.03.94h-20.41c-1.88,0-3.09-.54-4.43-1.88Z"/><path class="cls-1" d="M448.54,476.29l-7.92-7.92c-1.34-1.34-1.88-2.55-1.88-4.57v-36.52c0-2.01.54-3.22,1.88-4.57l7.92-7.92c1.34-1.34,2.55-1.88,4.43-1.88h37.87c1.88,0,3.09.54,4.43,1.88l7.92,7.92c1.34,1.34,1.88,2.55,1.88,4.57v24.04h-49.68v6.71c0,1.07.13,1.75.94,2.42l1.34,1.34c.81.81,1.34,1.07,2.55,1.07h23.5c1.07,0,1.75-.27,2.42-1.07l4.7-4.7,14.37,9.4-9.94,9.8c-1.34,1.34-2.55,1.88-4.43,1.88h-37.87c-1.88,0-3.09-.54-4.43-1.88ZM488.55,437.35v-4.3c0-1.07-.27-1.75-1.07-2.42l-1.34-1.34c-.67-.81-1.34-1.07-2.42-1.07h-23.5c-1.21,0-1.75.27-2.55,1.07l-1.34,1.34c-.81.67-.94,1.34-.94,2.42v4.3h33.17Z"/><path class="cls-1" d="M512.99,467.16l9-3.36v-71.17l-9-3.36v-11.01h25.51v62.57l15.98-14.37-6.85-2.55v-11.01h39.48v11.01l-15.17,5.64-11.41,10.34,17.19,22.69,12.08,4.57v11.01h-19.07l-21.22-28.33-11.01,9.8v4.16l9,3.36v11.01h-34.51v-11.01Z"/></g></svg>