<?xml version="1.0" encoding="UTF-8"?><svg id="Layer_2" xmlns="http://www.w3.org/2000/svg" viewBox="0 0 395.19 127.69"><defs><style>.cls-1{fill:#fff;stroke-width:0px;}</style></defs><g id="Layer_1-2"><polygon class="cls-1" points="0 21.6 34.07 33.32 34.07 70.59 20.44 74.34 20.44 40.2 0 33.32 0 115.83 20.44 115.83 20.44 95.39 34.07 91.85 34.07 115.83 54.51 115.83 54.51 18.4 0 0 0 21.6"/><polygon class="cls-1" points="95.39 31.89 81.76 25.41 81.76 20.44 61.32 20.44 61.32 115.83 81.76 115.83 81.76 48.04 95.39 54.51 95.39 115.83 115.83 115.83 115.83 20.44 95.39 20.44 95.39 31.89"/><rect class="cls-1" x="122.64" y="20.44" width="20.44" height="95.39"/><polygon class="cls-1" points="204.41 1.02 149.9 23.51 149.9 115.83 170.34 115.83 170.34 34.07 183.97 29.98 183.97 115.83 204.41 115.83 204.41 40.88 218.03 40.88 218.03 115.83 238.48 115.83 238.48 20.44 204.41 20.44 204.41 1.02"/><polygon class="cls-1" points="245.29 21.6 279.36 33.32 279.36 70.59 265.73 74.34 265.73 40.2 245.29 33.32 245.29 115.83 265.73 115.83 265.73 95.39 279.36 91.85 279.36 115.83 299.8 115.83 299.8 18.4 245.29 0 245.29 21.6"/><polygon class="cls-1" points="395.19 55.26 395.19 20.44 340.68 20.44 340.68 70.18 374.75 81.69 374.75 95.39 361.12 95.39 361.12 87.9 340.68 81.01 340.68 89.46 327.05 95.73 327.05 20.44 306.61 20.44 306.61 127.69 340.68 112.02 340.68 115.83 395.19 115.83 395.19 66.09 361.12 54.58 361.12 40.88 374.75 40.88 374.75 48.38 395.19 55.26"/></g></svg>