<?xml version="1.0" encoding="UTF-8"?><svg id="Layer_2" xmlns="http://www.w3.org/2000/svg" viewBox="0 0 215.9 286.87"><defs><style>.cls-1{fill:#fff;}</style></defs><g id="Layer_1-2"><path class="cls-1" d="M211.6,266.11h-4.39l-29.53-89.46c-.39-1.17-.85-1.95-1.39-2.34-.54-.39-1.44-.58-2.7-.58h-42.54c-1.27,0-2.1.2-2.48.58-.39.39-.58,1.22-.58,2.49v14.62c0,1.27.19,2.1.58,2.49.39.39,1.22.58,2.48.58h3.95l-23.68,71.63h-3.54c1.16-3.26,1.78-7.05,1.78-11.44,0-4.97-.82-9.12-2.46-12.44-1.64-3.32-3.62-6.05-5.93-8.2-2.32-2.15-4.75-3.76-7.31-4.83s-4.7-1.9-6.44-2.49c1.55-.58,3.37-1.46,5.46-2.63,2.09-1.17,4.05-2.7,5.89-4.6,1.84-1.9,3.42-4.26,4.73-7.08,1.31-2.82,1.97-6.28,1.97-10.36,0-4.57-.76-8.44-2.26-11.6-1.51-3.16-3.48-5.79-5.91-7.88-2.43-2.09-5.21-3.75-8.32-4.96s-6.32-2.09-9.63-2.63c-3.31-.53-6.54-.88-9.7-1.02-3.16-.15-5.96-.22-8.39-.22H8.99c-1.27,0-2.1.2-2.49.58s-.58,1.22-.58,2.49v14.62c0,1.27.19,2.1.58,2.49.39.39,1.22.58,2.49.58h2.63v71.63h-2.78c-1.27,0-2.1.2-2.49.58-.39.39-.58,1.22-.58,2.49v14.62c0,1.27.19,2.1.58,2.49.39.39,1.22.58,2.49.58h52.19c3.01,0,6.29-.1,9.84-.29,3.54-.19,7.11-.63,10.71-1.32,3.6-.68,7.07-1.71,10.42-3.07,3.35-1.37,6.34-3.25,8.96-5.64,1.12-1.02,2.12-2.17,3.04-3.4v10.65c0,1.27.19,2.1.58,2.49.39.39,1.22.58,2.49.58h38.01c1.27,0,2.09-.19,2.49-.58.39-.39.58-1.22.58-2.49v-14.62c0-1.27-.2-2.09-.58-2.49-.39-.39-1.22-.58-2.49-.58h-3.51l2.63-9.21h29.09l2.92,9.21h-3.36c-1.27,0-2.1.2-2.48.58-.39.39-.58,1.22-.58,2.49v14.62c0,1.27.19,2.1.58,2.49.39.39,1.22.58,2.48.58h38.74c1.26,0,2.09-.19,2.48-.58.39-.39.58-1.22.58-2.49v-14.62c0-1.27-.2-2.09-.58-2.49-.39-.39-1.22-.58-2.48-.58ZM43.49,197.84h15.2c1.75,0,3.48.07,5.19.22,1.7.15,3.26.51,4.68,1.09,1.41.58,2.56,1.5,3.43,2.76.88,1.26,1.32,3,1.32,5.22s-.42,4.11-1.24,5.37c-.83,1.26-1.93,2.17-3.29,2.76-1.37.58-2.97.94-4.82,1.09-1.85.15-3.8.22-5.85.22h-14.62v-18.71ZM75.8,256.54c-1.07,1.71-2.45,3-4.15,3.87s-3.56,1.46-5.6,1.75-4.07.44-6.11.44h-16.46v-25.29h15.88c2.72,0,5.16.17,7.35.51,2.18.34,4.07.98,5.67,1.9,1.6.93,2.84,2.19,3.71,3.8s1.31,3.68,1.31,6.21c0,2.83-.54,5.09-1.6,6.8ZM151.22,233.51l5.85-22.97c.17-.67.78-1.15,1.48-1.15h0c.68,0,1.28.46,1.47,1.11l6.41,23.01h-15.2Z"/><path class="cls-1" d="M205.65,73.12c4.62-8.11,11.23-20.51,10.13-23.19-1.37-3.38-15.96,6.97-20.87,10.58-4.43-3.83-9.45-6.93-15.07-9.26-7.04-2.92-14.72-4.39-23.05-4.39s-16.35,1.51-23.48,4.53c-7.13,3.02-13.33,7.19-18.6,12.5-5.27,5.31-9.36,11.57-12.28,18.78-2.92,7.21-4.38,15.01-4.38,23.39s1.46,16.62,4.38,23.83c1.89,4.67,4.28,8.91,7.16,12.72-.46-.19-1.12-.3-2.01-.3h-4.39l-29.53-89.46c-.39-1.17-.85-1.95-1.39-2.34-.54-.39-1.44-.58-2.7-.58H27.04c-1.27,0-2.1.2-2.49.58s-.58,1.22-.58,2.49v14.62c0,1.27.19,2.1.58,2.49.39.39,1.22.58,2.49.58h3.95L7.31,142.31H3.07c-1.27,0-2.1.2-2.49.58-.39.39-.58,1.22-.58,2.49v14.62c0,1.27.19,2.1.58,2.49.39.39,1.22.58,2.49.58h38.01c1.27,0,2.09-.19,2.49-.58s.58-1.22.58-2.49v-14.62c0-1.27-.2-2.09-.58-2.49-.39-.39-1.22-.58-2.49-.58h-3.51l2.63-9.21h29.09l2.92,9.21h-3.36c-1.27,0-2.1.2-2.49.58-.39.39-.58,1.22-.58,2.49v14.62c0,1.27.19,2.1.58,2.49.39.39,1.22.58,2.49.58h38.74c1.27,0,2.09-.19,2.49-.58s.58-1.22.58-2.49v-14.62c0-.67-.06-1.21-.17-1.64,1.32,1.65,2.72,3.23,4.23,4.71,5.26,5.17,11.46,9.19,18.6,12.06,7.13,2.87,14.96,4.31,23.48,4.31s16.03-1.41,23.12-4.24c7.08-2.83,13.19-6.8,18.31-11.91,5.12-5.12,9.14-11.3,12.06-18.57,2.92-7.26,4.38-15.28,4.38-24.05s-1.46-16.49-4.38-23.75c-1.31-3.27-2.87-6.32-4.64-9.18ZM47.22,109.72l5.85-22.97c.17-.67.78-1.15,1.48-1.15s1.28.46,1.47,1.11l6.41,23.01h-15.2ZM178.28,74.23c6-1.58,15.86-7.95,20.87-11.68l-21.12,19.33-3.46-3.5,3.71-4.16ZM189.02,75.69l-18.68,20.12-1.39-1.4,20.06-18.72ZM163.21,76.49c3.63-.15,6.99-.55,10.07-1.12l-2.8,3.11,5.36,5.44-8.97,8.37-14.24-14.39c3.31-.77,6.84-1.27,10.58-1.42ZM164.68,94.33l-22.46,20.97-1.94-2.15,13.08-12.15-12.59-12.35,10.08-8.33,13.82,14ZM123.41,105.82c.46-10.38,9.29-21.21,23.8-26.34l-10.89,8.98,7.7,7.55-19.05,17.04c-1.1-2.62-1.67-5.11-1.56-7.24ZM126.33,115.84l19.83-17.74,2.89,2.84-13.16,12.21,5.84,6.67,25.05-23.39,1.52,1.55-29.58,31.88c-5.33-4.01-9.71-9.12-12.39-14.03ZM173.99,132.21l-14.12-12.51,6.93-7.83,14.98,13.79c-2.19,2.28-4.75,4.47-7.79,6.55ZM183.78,123.44l-17.2-15.82-10.9,12.33,15.7,13.91c-10.37,5.93-21.34,3.46-30.19-2.26l29.22-31.49,4.9,4.96,16.91-16.7,3.49,3.16c-1.65,10.69-3.6,22.02-11.92,31.91ZM196.23,88l-4.11-3.72-16.79,16.58-2.9-2.93,37.03-39.89c-.69,1.22-2.19,3.29-4.87,6.54-5.38,6.45-6.99,14.66-8.36,23.43Z"/><path class="cls-1" d="M66.61,8.86c-2.04,2.79-4.99,5.64-8.86,8.54v-4.19c.75-.64.64-1.02-.32-1.13h-3.38v6.93c0,6.23-3.17,11.06-9.5,14.5l2.74,3.06c7.19-4.51,10.68-10.85,10.47-19.01l2.74,2.58c4.51-3.65,8.38-7.57,11.6-11.76.86.11,1.13-.05.81-.48l-2.42-2.9-1.13.32-29.32.81.32,3.7,26.26-.97Z"/><path class="cls-1" d="M92.61,29.8l3.22,2.9c5.8-4.08,10.74-9.13,14.82-15.14v13.53c0,1.18-.64,1.88-1.93,2.09h-3.22l.64,3.54h4.51c2.47,0,3.7-1.29,3.7-3.87V14.02h13.53v-3.54h-13.53V2.9c.75-.64.64-1.07-.32-1.29h-3.38v8.86h-17.08v3.54h15.14c-3.87,6.12-9.24,11.38-16.11,15.79Z"/><path class="cls-1" d="M178.31,6.93l2.09-1.93c-2.04-2.15-3.76-3.81-5.15-4.99l-2.09,1.77c1.5,1.29,3.22,3.01,5.16,5.16Z"/><path class="cls-1" d="M174.13,9.67l2.42-1.77c-1.83-2.15-3.54-3.97-5.16-5.48l-2.26,1.77c1.72,1.5,3.38,3.33,4.99,5.48Z"/><path class="cls-1" d="M179.6,30.29c-2.26-7.52-6.07-14.66-11.44-21.43l-3.38,2.58c4.29,5.05,7.79,11.81,10.47,20.3l4.35-1.45Z"/><path class="cls-1" d="M155.6,14.02c1.07-.43,1.18-.91.32-1.45l-3.87-1.77c-1.61,7.2-4.78,13.64-9.5,19.33l3.71,2.42c4.29-5.58,7.41-11.76,9.34-18.53Z"/></g></svg>