<?xml version="1.0" encoding="UTF-8" standalone="no"?>
<!DOCTYPE svg PUBLIC "-//W3C//DTD SVG 1.1//EN" "http://www.w3.org/Graphics/SVG/1.1/DTD/svg11.dtd">
<svg width="100%" height="100%" viewBox="0 0 2805 626" version="1.1" xmlns="http://www.w3.org/2000/svg" xmlns:xlink="http://www.w3.org/1999/xlink" xml:space="preserve" xmlns:serif="http://www.serif.com/" style="fill-rule:evenodd;clip-rule:evenodd;stroke-linejoin:round;stroke-miterlimit:2;">
    <g transform="matrix(1,0,0,1,-97.752083,-3327.912841)">
        <g transform="matrix(4.166667,0,0,4.166667,0,1390.909091)">
            <g transform="matrix(1,0,0,1,232.6632,574.5135)">
                <path d="M0,-69.028C-17.633,-69.028 -35.553,-53.576 -35.553,-34.514C-35.553,-15.453 -19.636,0 0,0L16.179,0L16.179,-11.22L10.101,-17.12L0,-17.12C0,-17.12 -17.918,-19.085 -17.918,-34.514C-17.918,-49.943 0,-51.908 0,-51.908L7.558,-51.908L19.025,-40.777L19.025,0L36.661,0L36.661,-47.868L14.863,-69.028L0,-69.028Z" style="fill:white;fill-rule:nonzero;"/>
            </g>
            <g transform="matrix(1,0,0,1,384.0824,574.5135)">
                <path d="M0,-69.028C-17.633,-69.028 -35.553,-53.576 -35.553,-34.514C-35.553,-15.453 -19.636,0 0,0L16.179,0L16.179,-11.22L10.101,-17.12L0,-17.12C0,-17.12 -17.918,-19.085 -17.918,-34.514C-17.918,-49.943 0,-51.908 0,-51.908L7.558,-51.908L19.025,-40.777L19.025,0L36.661,0L36.661,-47.868L14.863,-69.028L0,-69.028Z" style="fill:white;fill-rule:nonzero;"/>
            </g>
            <g transform="matrix(1,0,0,1,674.7422,574.5135)">
                <path d="M0,-69.028L-14.863,-69.028C-32.497,-69.028 -50.417,-53.576 -50.417,-34.514C-50.417,-15.453 -34.499,0 -14.863,0L1.316,0L1.316,-11.22L-4.762,-17.12L-14.863,-17.12C-14.863,-17.12 -32.781,-19.085 -32.781,-34.514C-32.781,-49.943 -14.863,-51.908 -14.863,-51.908L-7.305,-51.908L4.162,-40.777L4.162,0L21.797,0L21.797,-47.868L0,-69.028Z" style="fill:white;fill-rule:nonzero;"/>
            </g>
            <g transform="matrix(1,0,0,1,533.2408,574.5135)">
                <path d="M0,-69.028C-17.633,-69.028 -35.553,-53.576 -35.553,-34.514C-35.553,-15.453 -19.636,0 0,0L16.179,0L16.179,-11.22L10.101,-17.12L0,-17.12C0,-17.12 -17.918,-19.085 -17.918,-34.514C-17.918,-49.943 0,-51.908 0,-51.908L7.558,-51.908L19.025,-40.777L19.025,0L36.661,0L36.661,-47.868L14.863,-69.028L0,-69.028Z" style="fill:white;fill-rule:nonzero;"/>
            </g>
            <g transform="matrix(1,0,0,1,290.3066,556.8782)">
                <path d="M0,-33.757L34.03,-33.757C40.097,-33.757 39.67,-28.735 39.67,-28.735L39.67,-21.862L57.306,-21.862L57.306,-33.949C57.306,-33.949 58.299,-51.393 42.562,-51.393L-17.636,-51.393L-17.636,-11.766L-17.624,-11.766L-10.551,-7.026L-17.636,-7.026L-17.636,4.919L0,4.919L0,0.046L26.54,17.633L58.222,17.636L0,-21.184L0,-33.757Z" style="fill:white;fill-rule:nonzero;"/>
            </g>
            <g transform="matrix(1,0,0,1,647.3611,574.5138)">
                <path d="M0,-69.029L-31.682,-69.026L-58.222,-51.439L-58.222,-69.029L-75.858,-69.029L-75.858,-29.402L-75.847,-29.402L-68.774,-24.662L-75.858,-24.662L-75.858,-12.717L-58.222,-12.717L-58.222,-17.591L-31.682,-0.003L0,0L-51.764,-34.515L0,-69.029Z" style="fill:white;fill-rule:nonzero;"/>
            </g>
            <g transform="matrix(1,0,0,1,455.0282,574.5105)">
                <path d="M0,-50.331L-31.682,-50.334L17.362,-17.633L-7.489,-17.633C-13.557,-17.633 -13.13,-22.655 -13.13,-22.655L-13.13,-29.528L-30.766,-29.528L-30.766,-17.441C-30.766,-17.441 -31.759,0.003 -16.021,0.003L44.176,0.003L44.165,-20.932L0,-50.331Z" style="fill:white;fill-rule:nonzero;"/>
            </g>
            <g transform="matrix(1,0,0,1,492.0403,511.6568)">
                <path d="M0,6.269L-15.736,-6.141L-36.973,-6.141L-36.973,12.41L0,12.41L0,6.269Z" style="fill:white;fill-rule:nonzero;"/>
            </g>
            <g transform="matrix(1,0,0,1,98.5795,475.3019)">
                <path d="M0,129.396C-35.732,129.396 -64.698,100.43 -64.698,64.698C-64.698,28.966 -35.732,0 0,0C35.732,0 64.698,28.966 64.698,64.698C64.698,100.43 35.732,129.396 0,129.396M0,-10.421C-41.487,-10.421 -75.119,23.211 -75.119,64.698C-75.119,106.185 -41.487,139.817 0,139.817C41.487,139.817 75.119,106.185 75.119,64.698C75.119,23.211 41.487,-10.421 0,-10.421" style="fill:white;fill-rule:nonzero;"/>
            </g>
            <g transform="matrix(1,0,0,1,137.0748,569.9453)">
                <path d="M0,-59.58C-13.028,-59.58 -23.59,-49.019 -23.59,-35.99C-23.59,-31.582 -22.377,-27.458 -20.272,-23.928L-32.69,-11.51L-32.69,-45.612C-22.469,-48.199 -14.906,-57.455 -14.906,-68.48C-14.906,-81.508 -25.467,-92.07 -38.495,-92.07C-51.523,-92.07 -62.085,-81.508 -62.085,-68.48C-62.085,-57.455 -54.521,-48.199 -44.301,-45.612L-44.301,-11.461L-56.736,-23.897C-54.62,-27.434 -53.401,-31.569 -53.401,-35.99C-53.401,-49.019 -63.962,-59.58 -76.991,-59.58C-90.019,-59.58 -100.58,-49.019 -100.58,-35.99C-100.58,-22.962 -90.019,-12.401 -76.991,-12.401C-72.595,-12.401 -68.483,-13.607 -64.96,-15.7L-44.301,4.959L-44.301,32.228C-42.388,32.398 -40.452,32.49 -38.495,32.49C-36.538,32.49 -34.603,32.398 -32.69,32.228L-32.69,4.91L-12.062,-15.718C-8.532,-13.613 -4.408,-12.401 0,-12.401C13.028,-12.401 23.59,-22.962 23.59,-35.99C23.59,-49.019 13.028,-59.58 0,-59.58" style="fill:white;fill-rule:nonzero;"/>
            </g>
        </g>
    </g>
</svg>
