<?xml version="1.0" encoding="UTF-8"?><svg id="Layer_2" xmlns="http://www.w3.org/2000/svg" viewBox="0 0 220.43 234.67"><defs><style>.cls-1{fill:#fff;stroke-width:0px;}</style></defs><g id="Layer_1-2"><polygon class="cls-1" points="12.47 202.73 0 234.67 6.79 234.67 15.2 212.39 19.54 223.87 14.65 223.87 12.78 228.82 21.41 228.82 23.62 234.67 30.42 234.67 17.4 202.73 12.47 202.73"/><polygon class="cls-1" points="134.37 202.73 134.37 234.65 127.14 234.65 127.14 222.75 114.64 222.75 114.64 234.65 107.41 234.65 107.41 205.88 110.81 202.73 114.64 202.73 114.64 216.96 127.14 216.96 127.14 202.73 134.37 202.73"/><path class="cls-1" d="M98.32,207.23v4.85h-7.23v-3.55h-9.9v20.3h9.9v-2.8h7.23v4.09c0,2.49-2.01,4.5-4.5,4.5h-13.48c-3.53,0-6.38-2.86-6.38-6.38v-19.11c0-3.53,2.86-6.38,6.38-6.38h13.48c2.49,0,4.5,2.01,4.5,4.5Z"/><path class="cls-1" d="M166.13,202.73h-19.95c-1.29,0-2.33,1.04-2.33,2.33v27.26c0,1.29,1.04,2.33,2.33,2.33h19.95v-5.79h-15.04v-20.34h15.04v-5.79Z"/><rect class="cls-1" x="153.92" y="216.05" width="9.45" height="5.79"/><path class="cls-1" d="M65.9,234.61h-8l-9.41-12-.09-.11v-4.84h8.02c.73,0,1.32-.59,1.32-1.32v-6.51c0-.73-.59-1.32-1.32-1.32h-10.91v26.14h-7.23v-28.77l3.4-3.16h17.76c2.72,0,4.93,2.21,4.93,4.93v10.03c0,2.72-2.21,4.93-4.93,4.93h-2.98l9.42,12Z"/><path class="cls-1" d="M201.99,234.61h-8l-9.41-12-.09-.11v-4.84h8.02c.73,0,1.32-.59,1.32-1.32v-6.51c0-.73-.59-1.32-1.32-1.32h-10.91v26.14h-7.23v-28.77l3.4-3.16h17.76c2.72,0,4.93,2.21,4.93,4.93v10.03c0,2.72-2.21,4.93-4.93,4.93h-2.98l9.42,12Z"/><polygon class="cls-1" points="220.43 138.13 72.09 123.83 112.17 59.75 137.77 114.14 123.58 123.24 176.43 126.05 113.45 0 2.38 173.88 220.43 138.13"/></g></svg>