<?xml version="1.0" encoding="UTF-8"?><svg id="Layer_2" xmlns="http://www.w3.org/2000/svg" viewBox="0 0 845.25 486.25"><defs><style>.cls-1{fill:#f1f2f2;stroke-width:0px;}</style></defs><g id="Layer_1-2"><path class="cls-1" d="M18.84,353.02c-3.05-1.34-18.84-8.25-18.84-8.25,0,0,15.84-6.72,19.8-8.3,1.74-.7,4.22,1.12,6.78,3.1s5.36,2.09,11.01,2.09,51.68-.16,51.68-.16l2.66,6.33s-33.18.05-56.63-.11c-3.57-.02-6.39.97-9.08,3.13-3.62,2.92-4.33,3.5-7.38,2.17Z"/><path class="cls-1" d="M826.41,353.02c3.05-1.34,18.84-8.25,18.84-8.25,0,0-15.84-6.72-19.8-8.3-1.74-.7-4.22,1.12-6.78,3.1s-5.36,2.09-11.01,2.09-224.06-.15-242.86-.16c-.71,0-1.29.58-1.29,1.29v3.75c0,.71.57,1.29,1.28,1.29,18.13,0,222.74.04,245.14-.11,3.57-.02,6.39.97,9.08,3.13,3.62,2.92,4.33,3.5,7.38,2.17Z"/><path class="cls-1" d="M67.6,279.9h6.09c.6,0,1.14.36,1.37.91l35.75,81.5c.42.99-.3,2.08-1.37,2.08h-5.73c-.6,0-1.14-.36-1.38-.91l-15.87-35.22h-31.62l-2.88,7.12c-.23.56-.78.93-1.39.93h-5.87c-1.07,0-1.8-1.1-1.37-2.08l22.9-53.43c.24-.55.78-.91,1.37-.91ZM82.18,318.13l-10.16-24.38c-.51-1.23-2.25-1.23-2.76,0l-10.16,24.38c-.41.98.31,2.07,1.38,2.07h20.32c1.07,0,1.79-1.08,1.38-2.07Z"/><path class="cls-1" d="M105.46,328.26h30.75c4.28,0,7.88-3.34,8.05-7.62.2-5.05-3.1-8.5-8.05-8.5h-17.05c-9.61,0-16.12-6.82-16.12-16.12,0-8.52,6.51-16.12,16.12-16.12h27.8c.83,0,1.49.67,1.49,1.49v5.07c0,.83-.67,1.49-1.49,1.49h-26.87c-4.28,0-7.88,3.34-8.05,7.62-.2,5.04,3.1,8.5,8.05,8.5h17.05c9.61,0,16.12,6.82,16.12,16.12,0,8.37-6.51,16.12-16.12,16.12h-31.68c-.83,0-1.49-.67-1.49-1.49v-5.07c0-.83.67-1.49,1.49-1.49Z"/><path class="cls-1" d="M160.54,312.45v-31.06c0-.83.67-1.49,1.49-1.49h6.16c.83,0,1.49.67,1.49,1.49v31.83c0,8.82,6.64,15.63,15.6,15.65,8.63.03,15.56-7.19,15.56-15.83v-31.66c0-.83.67-1.49,1.49-1.49h6.16c.83,0,1.49.67,1.49,1.49v31.06c0,14.88-11.47,24.65-25.11,24.65s-24.33-9.77-24.33-24.65Z"/><path class="cls-1" d="M221.4,279.9h6.16c.83,0,1.49.67,1.49,1.49v32.35c0,1.34,1.63,2,2.56,1.05l33.73-34.44c.28-.29.67-.45,1.07-.45h7.15c1.32,0,1.99,1.59,1.07,2.54l-14.27,14.67,16.14,37.12c.43.99-.29,2.09-1.37,2.09h-6.81c-.6,0-1.13-.35-1.37-.9l-13.56-31.34-23.91,24.67c-.27.28-.42.65-.42,1.04v5.03c0,.83-.67,1.49-1.49,1.49h-6.16c-.83,0-1.49-.67-1.49-1.49v-53.43c0-.83.67-1.49,1.49-1.49Z"/><path class="cls-1" d="M304.44,279.9h6.09c.6,0,1.14.36,1.37.91l22.9,53.43c.42.99-.3,2.08-1.37,2.08h-5.73c-.6,0-1.14-.36-1.38-.91l-2.64-6.24c-.23-.55-.78-.91-1.38-.91h-29.62c-.61,0-1.16.37-1.39.93l-2.5,6.19c-.23.56-.78.93-1.39.93h-5.87c-1.07,0-1.8-1.1-1.37-2.08l22.9-53.43c.24-.55.78-.91,1.37-.91ZM319.02,318.13l-10.16-24.38c-.51-1.23-2.25-1.23-2.76,0l-10.16,24.38c-.41.98.31,2.07,1.38,2.07h20.32c1.07,0,1.79-1.08,1.38-2.07Z"/><path class="cls-1" d="M336.09,310.64c-1.21-17.03,11.88-31.38,28.95-31.51,7.99-.06,14.63,2.73,19.67,7.12.66.57.71,1.58.09,2.2l-4.04,4.04c-.57.57-1.48.59-2.06.04-2.63-2.47-5.9-4.17-9.66-4.85-12.26-2.21-23.5,7.54-23.74,19.99-.23,11.68,8.37,21.22,19.99,21.22,7.67,0,14.09-4.27,17.44-10.55.52-.98-.23-2.16-1.34-2.16h-14.61c-.83,0-1.49-.67-1.49-1.49v-5.07c0-.83.67-1.49,1.49-1.49h26.1c.87,0,1.55.73,1.5,1.6-.86,15.09-13.82,27.39-29.09,27.39-16.35,0-28.08-10.64-29.21-26.46Z"/><path class="cls-1" d="M417.58,279.9h6.09c.6,0,1.14.36,1.37.91l22.9,53.43c.42.99-.3,2.08-1.37,2.08h-5.73c-.6,0-1.14-.36-1.38-.91l-2.64-6.24c-.23-.55-.78-.91-1.38-.91h-29.62c-.61,0-1.16.37-1.39.93l-2.5,6.19c-.23.56-.78.93-1.39.93h-5.87c-1.07,0-1.8-1.1-1.37-2.08l22.9-53.43c.24-.55.78-.91,1.37-.91ZM432.17,318.13l-10.16-24.38c-.51-1.23-2.25-1.23-2.76,0l-10.16,24.38c-.41.98.31,2.07,1.38,2.07h20.32c1.07,0,1.79-1.08,1.38-2.07Z"/><path class="cls-1" d="M476.43,320.51c0-5.42,2.56-9.77,6.28-12.63-3.49-3.02-5.73-7.44-5.73-12.25,0-9.37,6.44-15.77,15.58-16.45.87-.06,1.62.62,1.62,1.5v5.12c0,.75-.57,1.37-1.32,1.48-4.17.57-6.98,3.86-6.98,8.36,0,4.73,3.41,8.45,8.29,8.45v8.06c-4.96,0-8.76,3.33-8.76,8.37s3.72,8.52,8.76,8.52,8.76-3.49,8.76-8.83v-6.57c0-.83.67-1.49,1.49-1.49h13.13c.83,0,1.49.67,1.49,1.49v5.07c0,.83-.67,1.49-1.49,1.49h-5.64c0,9.92-7.6,16.9-17.75,16.9s-17.75-7.52-17.75-16.58Z"/><path class="cls-1" d="M550.36,312.14v-30.75c0-.83.67-1.49,1.49-1.49h46.61c.83,0,1.49.67,1.49,1.49v5.07c0,.83-.67,1.49-1.49,1.49h-37.47c-.83,0-1.49.67-1.49,1.49v13.13c0,.83.67,1.49,1.49,1.49h36.85c.83,0,1.49.67,1.49,1.49v5.07c0,.83-.67,1.49-1.49,1.49h-36.85c-.83,0-1.49.67-1.49,1.49v50.76c0,.83-.67,1.49-1.49,1.49h-6.01c-.82,0-1.49-.66-1.49-1.48l-.15-52.26Z"/><path class="cls-1" d="M609.36,279.9h6.16c.83,0,1.49.67,1.49,1.49v53.43c0,.83-.67,1.49-1.49,1.49h-6.16c-.83,0-1.49-.67-1.49-1.49v-53.43c0-.83.67-1.49,1.49-1.49Z"/><path class="cls-1" d="M629.04,279.9h5.61c.41,0,.8.17,1.09.47l37.59,39.74c.93.98,2.58.32,2.58-1.03v-37.69c0-.83.67-1.49,1.49-1.49h6.16c.83,0,1.49.67,1.49,1.49v53.43c0,.83-.67,1.49-1.49,1.49h-5.61c-.41,0-.8-.17-1.09-.47l-37.59-39.74c-.93-.98-2.58-.32-2.58,1.03v37.69c0,.83-.67,1.49-1.49,1.49h-6.16c-.83,0-1.49-.67-1.49-1.49v-53.43c0-.83.67-1.49,1.49-1.49Z"/><path class="cls-1" d="M694.44,310.64c-1.21-17.03,11.88-31.38,28.95-31.51,7.99-.06,14.63,2.73,19.67,7.12.66.57.71,1.58.09,2.2l-4.04,4.04c-.57.57-1.48.59-2.06.04-2.63-2.47-5.9-4.17-9.66-4.85-12.26-2.21-23.5,7.54-23.74,19.99-.23,11.67,8.37,21.22,19.99,21.22,5.22,0,9.92-2.05,13.41-5.34.58-.55,1.5-.53,2.06.04l3.9,3.9c.61.61.57,1.61-.08,2.19-5.15,4.62-11.96,7.42-19.3,7.42-16.35,0-28.08-10.64-29.21-26.46Z"/><path class="cls-1" d="M753.51,279.9h6.16c.83,0,1.49.67,1.49,1.49v21.19c0,.83.67,1.49,1.49,1.49h28.17c.83,0,1.49-.67,1.49-1.49v-21.19c0-.83.67-1.49,1.49-1.49h6.16c.83,0,1.49.67,1.49,1.49v53.43c0,.83-.67,1.49-1.49,1.49h-6.16c-.83,0-1.49-.67-1.49-1.49v-21.19c0-.83-.67-1.49-1.49-1.49h-28.17c-.83,0-1.49.67-1.49,1.49v21.19c0,.83-.67,1.49-1.49,1.49h-6.16c-.83,0-1.49-.67-1.49-1.49v-53.43c0-.83.67-1.49,1.49-1.49Z"/><path class="cls-1" d="M545.07,347.83H110.59c-1.1,0-2.44-1.65-3.61-4.32-.28-.64-.82-1.95.29-1.95h437.8c1.1,0,2,.9,2,2v2.27c0,1.1-.9,2-2,2Z"/><path class="cls-1" d="M422.63,446.18h0c-2.45,0-4.46-21.8-4.46-24.26v-28.78c0-2.45,2.01-4.46,4.46-4.46h0c2.45,0,4.46,2.01,4.46,4.46v28.78c0,2.45-2.01,24.26-4.46,24.26Z"/><path class="cls-1" d="M443.26,388.69c-2.45,0-4.46,2.01-4.46,4.46v42.13c0,2.22-13.47,35.62-16.18,35.62s-16.18-33.46-16.18-35.62v-42.13c0-2.45-2.01-4.46-4.46-4.46s-4.46,2.01-4.46,4.46v42.13c0,2.45,19.3,50.97,25.09,50.97s25.09-48.52,25.09-50.97v-42.13c0-2.45-2.01-4.46-4.46-4.46Z"/><path class="cls-1" d="M421.71,139.23c-9.48,0-18.96.03-28.43-.01-4.3-.02-4.31-.08-4.3-4.51,0-.83.04-1.66.03-2.49-.02-1.4.6-2.19,2.05-2.22,1-.02,1.99-.05,2.99-.05,19.12-.01,38.24-.03,57.37-.03,1,0,2,.02,2.99.04,1.19.03,1.85.65,1.88,1.84.03,1.49,0,2.99,0,4.49.01,2.12-1.14,2.95-3.14,2.94-3.16,0-6.32.03-9.48.03-7.32,0-14.63,0-21.95,0v-.02Z"/><rect class="cls-1" x="397.53" y="154.79" width="8.91" height="115.08" rx="4.46" ry="4.46"/><rect class="cls-1" x="418.17" y="154.79" width="8.91" height="115.08" rx="4.46" ry="4.46"/><rect class="cls-1" x="438.8" y="154.79" width="8.91" height="115.08" rx="4.46" ry="4.46"/><rect class="cls-1" x="291.33" y="142.04" width="262.59" height="9.1" rx="1.62" ry="1.62"/><rect class="cls-1" x="389.15" y="130.03" width="66.96" height="9.1" rx="1.62" ry="1.62"/><rect class="cls-1" x="407.8" y="116.9" width="29.66" height="9.1" rx="1.62" ry="1.62"/><rect class="cls-1" x="407.8" y="104.6" width="29.66" height="9.1" rx="1.62" ry="1.62"/><rect class="cls-1" x="407.8" y="92.3" width="29.66" height="9.1" rx="1.62" ry="1.62"/><rect class="cls-1" x="407.8" y="79.99" width="29.66" height="9.1" rx="1.62" ry="1.62"/><path class="cls-1" d="M443.14,39.1L424.75.88c-.58-.58-1.35-.88-2.12-.88s-1.54.29-2.12.88l-18.4,38.22c-1.17,1.17-1.17,3.08,0,4.24l13.94,24.35h-6.63c-.89,0-1.62.73-1.62,1.62v5.86c0,.89.73,1.62,1.62,1.62h26.42c.89,0,1.62-.73,1.62-1.62v-5.86c0-.89-.73-1.62-1.62-1.62h-6.63l13.94-24.35c1.17-1.17,1.17-3.08,0-4.24ZM422.63,61.07l-11.47-20.03,11.47-23.82,11.47,23.82-11.47,20.03Z"/><path class="cls-1" d="M313.32,169.14l13.13,22.74h-26.26l13.13-22.74M313.32,152.69c-.52,0-1.04.26-1.34.78l-26.03,45.09c-.6,1.03.15,2.33,1.34,2.33h52.06c1.19,0,1.94-1.29,1.34-2.33l-26.03-45.09c-.3-.52-.82-.78-1.34-.78h0Z"/><rect class="cls-1" x="279.15" y="203.02" width="67.69" height="9.31" rx="1.7" ry="1.7"/><rect class="cls-1" x="298.43" y="217.21" width="29.13" height="9.31" rx="1.69" ry="1.69"/><path class="cls-1" d="M532.57,169.14l13.13,22.74h-26.26l13.13-22.74M532.57,152.67c-.52,0-1.03.25-1.32.76l-26.07,45.15c-.59,1.02.15,2.29,1.32,2.29h52.13c1.18,0,1.91-1.27,1.32-2.29l-26.07-45.15c-.29-.51-.81-.76-1.32-.76h0Z"/><rect class="cls-1" x="498.41" y="203.02" width="67.69" height="9.31" rx="1.72" ry="1.72"/><rect class="cls-1" x="517.69" y="217.21" width="29.13" height="9.31" rx="1.66" ry="1.66"/><path class="cls-1" d="M129.41,367.05l-3.15,8.1h-1.69l8.95-22.96h1.89l9.29,22.96h-1.79l-3.24-8.1h-10.25ZM139.08,365.54c-2.77-6.94-4.17-10.32-4.64-11.78h-.03c-.48,1.52-2.15,5.87-4.4,11.78h9.07Z"/><path class="cls-1" d="M147.63,358.86h3.13v-5.23h1.53v5.23h4.06v1.41h-4.06v10.73c0,1.91.43,2.97,2.15,2.97.48,0,1.16-.03,1.65-.19v1.32c-.56.23-1.27.27-1.94.27-2.31,0-3.39-1.11-3.39-3.91v-11.19h-3.13v-1.41Z"/><path class="cls-1" d="M159.76,358.86h3.13v-5.23h1.53v5.23h4.06v1.41h-4.06v10.73c0,1.91.43,2.97,2.15,2.97.48,0,1.16-.03,1.65-.19v1.32c-.56.23-1.27.27-1.94.27-2.31,0-3.39-1.11-3.39-3.91v-11.19h-3.13v-1.41Z"/><path class="cls-1" d="M187.83,366.98c0,4.56-2.58,8.58-7.61,8.58-4.59,0-7.42-3.69-7.42-8.54s2.84-8.58,7.57-8.58,7.45,3.56,7.45,8.54ZM174.41,367.02c0,3.85,2.19,7.12,5.91,7.12s5.9-3.05,5.9-7.12-2.13-7.14-5.95-7.14-5.86,3.21-5.86,7.15Z"/><path class="cls-1" d="M194.48,363.46c0-2.53-.02-3.78-.03-4.6h1.49c.04.54.07,1.89.07,3.87.97-2.55,3.25-4.19,6.02-4.28v1.62c-3.48.15-6.02,2.73-6.02,6.82v8.25h-1.53v-11.69Z"/><path class="cls-1" d="M207.55,362.99c0-1.51,0-2.97-.03-4.13h1.49c.06.57.09,2.5.07,3.36.69-1.71,2.19-3.77,5.74-3.77,3.1,0,5.69,1.8,5.69,6.36v10.34h-1.53v-10.08c0-3.04-1.28-5.14-4.35-5.14-3.93,0-5.55,3.23-5.55,6.98v8.24h-1.53v-12.16Z"/><path class="cls-1" d="M228.7,367.19c.07,4.25,2.36,6.94,5.72,6.94,3.06,0,4.35-1.63,5.09-3.22h1.55c-.76,2.21-2.64,4.64-6.73,4.64-5.08,0-7.19-4.28-7.19-8.45,0-4.84,2.64-8.64,7.3-8.64,5.31,0,6.98,4.43,6.98,7.67,0,.37,0,.72-.02,1.08h-12.7ZM239.82,365.85c-.06-3.14-1.74-5.98-5.44-5.98-3.5,0-5.27,2.48-5.61,5.98h11.04Z"/><path class="cls-1" d="M247.92,358.86c3.61,9.37,5.27,13.46,5.8,15.05h.03c.63-1.79,2.15-5.92,5.56-15.05h1.61l-6.42,16.93c-2.08,5.37-3.23,6.51-6.23,6.51-.57,0-1.08-.04-1.57-.12v-1.53c.49.07,1.07.12,1.56.12,2.28,0,3.15-1.1,4.66-4.95l-6.67-16.96h1.68Z"/><path class="cls-1" d="M266.86,370.59c.59,2.27,2.24,3.58,5.09,3.58,3.14,0,4.45-1.38,4.45-3.27s-.79-2.86-4.79-3.69c-4.52-.93-5.57-2.32-5.57-4.43s1.64-4.33,5.61-4.33,5.76,2.41,5.99,4.58h-1.54c-.28-1.37-1.29-3.19-4.53-3.19s-3.96,1.5-3.96,2.82c0,1.58.85,2.4,4.38,3.14,4.85,1.01,6.03,2.55,6.03,4.99,0,2.92-2.34,4.77-6.1,4.77-4.02,0-6.13-1.98-6.61-4.97h1.56Z"/><path class="cls-1" d="M326.76,360.37l-6.02,8.93c-2.74,4.07-4.72,6.19-8.48,6.19-4.02,0-6.16-3.07-6.16-5.92s1.52-5,6.17-7.4c3.66-2.08,4.95-3.15,4.95-5.32,0-1.69-1.05-3.64-3.55-3.64-2.25,0-3.73,1.47-3.73,3.8,0,1.62.99,3,3.07,4.89l13.93,13.25h-2.3l-12.9-12.29c-2.08-1.95-3.35-3.49-3.35-5.83,0-2.69,1.88-5.21,5.34-5.21,3.18,0,5.07,2.36,5.07,5.02,0,2.44-1.47,3.96-5.54,6.24-4.6,2.44-5.52,4.17-5.52,6.38,0,2.44,2.02,4.55,4.52,4.55,2.86,0,4.6-1.29,7.46-5.65l5.26-8.01h1.79Z"/><path class="cls-1" d="M374.73,368.97c-1.18,3.66-3.84,6.51-9.09,6.51-6.78,0-10.43-5.23-10.43-11.75s3.74-11.9,10.5-11.9c5.26,0,8.2,2.88,9.05,6.72h-1.67c-1.09-3.08-3.21-5.2-7.46-5.2-5.86,0-8.68,4.97-8.68,10.34s2.81,10.27,8.75,10.27c4.15,0,6.14-2.07,7.37-4.99h1.65Z"/><path class="cls-1" d="M395.47,366.98c0,4.56-2.58,8.58-7.61,8.58-4.59,0-7.42-3.69-7.42-8.54s2.84-8.58,7.57-8.58,7.45,3.56,7.45,8.54ZM382.05,367.02c0,3.85,2.19,7.12,5.91,7.12s5.9-3.05,5.9-7.12-2.13-7.14-5.95-7.14-5.86,3.21-5.86,7.15Z"/><path class="cls-1" d="M414.78,370.42c0,1.6.03,3.88.03,4.73h-1.46c-.06-.42-.1-1.75-.1-3.14-.74,2.1-2.42,3.54-5.56,3.54-2.63,0-5.6-1.15-5.6-6.1v-10.58h1.51v10.28c0,2.51.93,4.92,4.27,4.92,3.77,0,5.38-2.22,5.38-7.04v-8.16h1.53v11.55Z"/><path class="cls-1" d="M422.71,362.99c0-1.51,0-2.97-.03-4.13h1.49c.06.57.09,2.5.07,3.36.69-1.71,2.19-3.77,5.74-3.77,3.1,0,5.69,1.8,5.69,6.36v10.34h-1.53v-10.08c0-3.04-1.28-5.14-4.35-5.14-3.93,0-5.55,3.23-5.55,6.98v8.24h-1.53v-12.16Z"/><path class="cls-1" d="M443.43,370.59c.59,2.27,2.24,3.58,5.09,3.58,3.14,0,4.45-1.38,4.45-3.27s-.79-2.86-4.79-3.69c-4.52-.93-5.57-2.32-5.57-4.43s1.64-4.33,5.61-4.33,5.76,2.41,5.99,4.58h-1.54c-.28-1.37-1.29-3.19-4.53-3.19s-3.96,1.5-3.96,2.82c0,1.58.85,2.4,4.38,3.14,4.85,1.01,6.03,2.55,6.03,4.99,0,2.92-2.34,4.77-6.1,4.77-4.02,0-6.13-1.98-6.61-4.97h1.56Z"/><path class="cls-1" d="M461.47,367.19c.07,4.25,2.36,6.94,5.72,6.94,3.06,0,4.35-1.63,5.09-3.22h1.55c-.76,2.21-2.64,4.64-6.73,4.64-5.08,0-7.19-4.28-7.19-8.45,0-4.84,2.64-8.64,7.3-8.64,5.31,0,6.98,4.43,6.98,7.67,0,.37,0,.72-.02,1.08h-12.7ZM472.59,365.85c-.06-3.14-1.74-5.98-5.44-5.98-3.5,0-5.27,2.48-5.61,5.98h11.04Z"/><path class="cls-1" d="M480.87,375.15v-24.26h1.53v24.26h-1.53Z"/><path class="cls-1" d="M504.05,366.98c0,4.56-2.58,8.58-7.61,8.58-4.59,0-7.42-3.69-7.42-8.54s2.84-8.58,7.57-8.58,7.45,3.56,7.45,8.54ZM490.63,367.02c0,3.85,2.19,7.12,5.91,7.12s5.9-3.05,5.9-7.12-2.13-7.14-5.95-7.14-5.86,3.21-5.86,7.15Z"/><path class="cls-1" d="M510.69,363.46c0-2.53-.02-3.78-.03-4.6h1.49c.04.54.07,1.89.07,3.87.97-2.55,3.25-4.19,6.02-4.28v1.62c-3.48.15-6.02,2.73-6.02,6.82v8.25h-1.53v-11.69Z"/><path class="cls-1" d="M524.07,370.59c.59,2.27,2.24,3.58,5.09,3.58,3.14,0,4.45-1.38,4.45-3.27s-.79-2.86-4.79-3.69c-4.52-.93-5.57-2.32-5.57-4.43s1.64-4.33,5.61-4.33,5.76,2.41,5.99,4.58h-1.54c-.28-1.37-1.29-3.19-4.53-3.19s-3.96,1.5-3.96,2.82c0,1.58.85,2.4,4.38,3.14,4.85,1.01,6.03,2.55,6.03,4.99,0,2.92-2.34,4.77-6.1,4.77-4.02,0-6.13-1.98-6.61-4.97h1.56Z"/><path class="cls-1" d="M575.87,371.83c0,1.48.12,2.84.2,3.32h-1.47c-.12-.47-.21-1.43-.25-2.72-.67,1.58-2.29,3.13-5.71,3.13-4.03,0-5.65-2.53-5.65-4.93,0-3.71,3.04-5.19,7.81-5.19,1.71,0,2.85,0,3.55,0v-1.6c0-1.84-.66-4-4.51-4-3.44,0-4.13,1.73-4.49,3.35h-1.53c.2-1.99,1.44-4.75,6.05-4.75,4.12,0,5.99,1.91,5.99,5.18v8.2ZM574.37,366.75c-.69,0-2.08,0-3.6,0-3.87,0-6.17.97-6.17,3.81,0,2.1,1.54,3.59,4.12,3.59,4.71,0,5.65-3.03,5.65-6.55v-.85Z"/><path class="cls-1" d="M581.16,358.86h3.13v-5.23h1.53v5.23h4.06v1.41h-4.06v10.73c0,1.91.43,2.97,2.15,2.97.48,0,1.16-.03,1.65-.19v1.32c-.56.23-1.27.27-1.94.27-2.31,0-3.39-1.11-3.39-3.91v-11.19h-3.13v-1.41Z"/><path class="cls-1" d="M618.59,352.19h1.63v21.44h12.96l-.32,1.52h-14.27v-22.96Z"/><path class="cls-1" d="M650.97,371.83c0,1.48.12,2.84.2,3.32h-1.47c-.12-.47-.21-1.43-.25-2.72-.67,1.58-2.29,3.13-5.71,3.13-4.03,0-5.65-2.53-5.65-4.93,0-3.71,3.04-5.19,7.81-5.19,1.71,0,2.85,0,3.55,0v-1.6c0-1.84-.66-4-4.51-4-3.44,0-4.13,1.73-4.49,3.35h-1.53c.2-1.99,1.44-4.75,6.05-4.75,4.12,0,5.99,1.91,5.99,5.18v8.2ZM649.47,366.75c-.69,0-2.08,0-3.6,0-3.87,0-6.17.97-6.17,3.81,0,2.1,1.54,3.59,4.12,3.59,4.71,0,5.65-3.03,5.65-6.55v-.85Z"/><path class="cls-1" d="M658.3,358.86c2.74,8.92,4.05,13.21,4.36,14.72h.03c.33-1.38,1.68-5.49,4.77-14.72h1.63c3.27,10.07,4.3,13.16,4.59,14.38h.03c.44-1.66,1.41-4.63,4.52-14.38h1.6l-5.41,16.29h-1.63c-1.89-5.81-4.19-12.93-4.59-14.48h-.03c-.36,1.53-2.34,7.45-4.68,14.48h-1.77l-5.07-16.29h1.62Z"/></g></svg>