<?xml version="1.0" encoding="UTF-8"?><svg id="Layer_2" xmlns="http://www.w3.org/2000/svg" viewBox="0 0 598.89 156.85"><defs><style>.cls-1{fill:#fff;stroke-width:0px;}</style></defs><g id="Layer_1-2"><polygon class="cls-1" points="588.98 91.74 598.89 70.04 577.19 70.04 567.28 91.74 588.98 91.74"/><polygon class="cls-1" points="545.58 91.74 535.67 113.44 557.37 113.44 567.28 91.74 545.58 91.74"/><polygon class="cls-1" points="569.16 135.15 579.07 113.44 557.37 113.44 547.46 135.15 569.16 135.15"/><polygon class="cls-1" points="513.97 113.44 504.06 135.15 525.76 135.15 535.67 113.44 513.97 113.44"/><polygon class="cls-1" points="515.85 156.85 537.55 156.85 547.46 135.15 525.76 135.15 515.85 156.85"/><path class="cls-1" d="M124.12,94.93v-17.42h-23.68l10.56-19.28h12.08v-10.68h-14.16l-24.73,47.37h-29.14L88.25,28.05h55.51c2.09,1.32,3.48,2.4,4.18,3.25.7.86,1.24,2.09,1.63,3.72v59.91h-25.43Z"/><path class="cls-1" d="M232.34,28.28v18.35h-26.94v29.96h10.8v18.35h-33.21c-2.01-.54-3.41-2.4-4.18-5.58v-42.73h-21.95v-18.35h75.48Z"/><path class="cls-1" d="M278.26,48.34L300.34,0H56.15L0,122.98h236.22l-15.47,33.87h273.4l9.91-21.7h-21.7l9.91-21.7h21.7l9.91-21.7h21.7l9.91-21.7h21.7l9.91-21.7h-308.84ZM239.52,115.74H11.26L60.8,7.23h228.28l-49.56,108.51ZM371.7,136.04h-25.43v-17.42h-23.68l10.56-19.28h12.08v-10.68h-14.16l-24.73,47.37h-29.14l33.2-66.88h55.51c2.09,1.32,3.48,2.4,4.18,3.25.7.86,1.24,2.09,1.63,3.72v59.91ZM461.81,90.99l-19.51,12.88,19.51,10.45v21.71h-25.78v-14.05l-13.12-5.23h-18.35v19.28h-25.55v-66.65h25.55v22.76h18.35l13.35-9.17v-13.59h25.55v21.6Z"/></g></svg>