<?xml version="1.0" encoding="UTF-8"?><svg id="Layer_2" xmlns="http://www.w3.org/2000/svg" viewBox="0 0 312.03 183.9"><defs><style>.cls-1{fill:#fff;stroke-width:0px;}</style></defs><g id="Layer_1-2"><path class="cls-1" d="M92.47,58.4h3.77c2,0,3.55-1.73,3.34-3.72l-2.54-23.39c-.19-1.74-1.69-3.05-3.44-2.99l-38.05,1.15c-1.93.06-3.41,1.73-3.24,3.65l2.09,23.36c.16,1.77,1.67,3.11,3.45,3.06l10.19-.31c.61-.02,1.14.44,1.2,1.05l4.3,43.48-36.2-58.42c-.7-1.14-2.02-1.75-3.34-1.55l-20.39,2.97c-1.46.21-2.62,1.36-2.84,2.82L.04,120.89c-.33,2.22,1.57,4.14,3.79,3.82l15.87-2.25c1.51-.21,2.68-1.41,2.86-2.92l.5-4.17,15.74-2.23,2.4,4.09c.69,1.18,2.02,1.82,3.37,1.62l30-4.33,1.08,10.95c.18,1.79,1.74,3.13,3.54,3.02l15.18-.89c1.9-.11,3.33-1.78,3.14-3.67l-6.22-64.25c-.07-.69.47-1.28,1.16-1.28ZM24.48,103.63l1.49-12.34,6.58,11.2-8.06,1.14Z"/><path class="cls-1" d="M75.19,22.1l27.66.58c.64.01,1.15.54,1.14,1.18l-.71,92.99c-.01,1.83,1.44,3.33,3.26,3.38l33.99.97c1.87.05,3.42-1.43,3.45-3.3l1.6-93.14c.01-.65.55-1.16,1.19-1.15l19.1.4c1.88.04,3.43-1.47,3.43-3.36V5.27c0-1.83-1.46-3.32-3.29-3.36L75.34,0c-1.88-.04-3.43,1.47-3.43,3.36v15.39c0,1.83,1.46,3.32,3.29,3.36Z"/><path class="cls-1" d="M152.02,42.09l-3.26,62.2c0,.08,0,.15,0,.22.05,4.08,2.66,15.45,26.86,16.79,24.42,1.35,30.97-8.42,31.48-14.2l4.25-61.19c.13-1.83-1.24-3.42-3.06-3.58l-13.65-1.17c-1.89-.16-3.54,1.27-3.64,3.16l-.6,11.13c-.1,1.92-1.8,3.36-3.71,3.16l-2.86-.3c-1.76-.19-3.07-1.71-3-3.47l.45-11.06c.07-1.83-1.33-3.37-3.15-3.49l-22.55-1.38c-1.86-.11-3.46,1.31-3.56,3.17Z"/><path class="cls-1" d="M245.64,56.11l-6.47-.87c-1.83-.25-3.51,1.03-3.77,2.85l-.48,3.37c-.08.53-.75.71-1.08.28l-4.39-5.69c-1.19-1.55-2.96-2.56-4.9-2.81l-3.15-.4c-1.84-.23-3.52,1.07-3.75,2.91l-7.17,56.69c-.24,1.87,1.11,3.57,2.98,3.76l3.07.32c1.81.19,3.44-1.1,3.68-2.91l.36-2.82c.07-.55.77-.72,1.09-.28l3.25,4.5c1.2,1.67,3.05,2.75,5.09,2.99l7.65.91c1.83.22,3.49-1.08,3.73-2.91l7.13-56.15c.23-1.83-1.06-3.5-2.88-3.75Z"/><path class="cls-1" d="M271.4,115.17l.8-4.46c.32-1.82-.88-3.55-2.69-3.89-.6-.11-.99-.7-.87-1.29l2.53-12.42c.12-.58.68-.97,1.27-.86l2.31.42c1.79.33,3.52-.84,3.89-2.62l2.51-12.05c.39-1.88-.86-3.7-2.76-4l-2.1-.33c-.62-.1-1.02-.69-.9-1.3l1.62-7.94c.12-.58.68-.96,1.27-.86l5.97,1.07c1.78.32,3.5-.83,3.88-2.6l4.55-21.28c.4-1.89-.87-3.73-2.78-4.02l-25.37-3.81c-1.78-.27-3.46.92-3.8,2.69l-14.42,75.41c-.36,1.86.9,3.65,2.77,3.95l18.51,2.93c1.81.29,3.51-.93,3.83-2.73Z"/><path class="cls-1" d="M304.59,80.43l-15.82-3.15c-1.73-.34-3.43.71-3.89,2.41l-14.39,52.71c-.52,1.9.7,3.84,2.64,4.19,3.82.68,9.71,1.73,12.85,2.24,6.3,1.03,14.84-.77,17.93-12.85l7.61-28.21c1.45-5.83-.05-15.81-6.94-17.35ZM296.86,113.94c-.01.06-.02.13-.04.19l-1.84,8.2c-.64,2.76-1.9,3.62-3.05,3.42-.57-.1-1.55-.29-2.24-.43-.44-.09-.72-.53-.62-.97l3.43-14.56c.1-.44.55-.7.98-.59l2.86.75c1.26.43.83,2.11.52,4Z"/><path class="cls-1" d="M117.2,129.68h-16.6c-1.91,0-3.44,1.59-3.35,3.5l1.73,40.03c.08,1.8,1.56,3.21,3.35,3.21h15.36c1.87,0,3.38-1.53,3.36-3.4l-.5-40.03c-.02-1.84-1.52-3.32-3.36-3.32Z"/><path class="cls-1" d="M204.94,129.51l-13.75-.67c-1.86-.09-3.44,1.35-3.52,3.21l-.45,10.53c-.02.51-.62.77-1.01.43l-16.02-13.95c-1.24-1.08-2.82-1.72-4.46-1.8l-35.25-1.76c-1.89-.09-3.49,1.4-3.52,3.29l-.9,48.31c-.03,1.8,1.36,3.31,3.16,3.41l31.25,1.79c1.87.11,3.47-1.34,3.55-3.21l.41-9.75c.02-.5.61-.76,1-.44l14.71,12.4c1.23,1.03,2.76,1.64,4.36,1.72l16.61.86c1.82.09,3.39-1.29,3.52-3.11l3.49-47.68c.14-1.88-1.3-3.51-3.19-3.6Z"/></g></svg>