<?xml version="1.0" encoding="UTF-8"?><svg id="Layer_2" xmlns="http://www.w3.org/2000/svg" viewBox="0 0 463.66 104.49"><defs><style>.cls-1{fill:#fff;stroke-width:0px;}</style></defs><g id="Layer_1-2"><polygon class="cls-1" points="294.41 42.11 262.97 0 258.76 0 258.76 51.08 262.97 51.08 262.97 8.41 294.41 51.08 298.63 51.08 298.63 0 294.41 0 294.41 42.11"/><polygon class="cls-1" points="341.62 0 341.62 3.76 360.03 3.76 360.03 51.08 364.25 51.08 364.25 3.76 382.66 3.76 382.66 0 341.62 0"/><path class="cls-1" d="M463.66,3.76V0h-37.04c-.64,0-1.15.52-1.15,1.15v48.77c0,.64.52,1.15,1.15,1.15h37.04v-3.75h-33.99v-19.91h25.01v-3.75h-25.01V3.76h33.99Z"/><polygon class="cls-1" points="216.51 49.04 194.06 0 194.05 0 193.25 0 193.24 0 192.46 .84 191.68 0 191.66 0 190.87 0 190.85 0 168.41 49.04 169.13 49.04 168.2 51.08 172.51 51.08 192.46 7.5 212.41 51.08 216.72 51.08 215.78 49.04 216.51 49.04"/><polygon class="cls-1" points="48.31 49.04 25.86 0 25.85 0 25.05 0 25.04 0 24.26 .84 23.48 0 23.47 0 22.67 0 22.65 0 .21 49.04 .93 49.04 0 51.08 4.31 51.08 24.26 7.5 44.21 51.08 48.52 51.08 47.59 49.04 48.31 49.04"/><polygon class="cls-1" points="128.31 0 108.36 43.58 88.41 0 84.1 0 85.03 2.04 84.31 2.04 106.75 51.08 106.77 51.08 107.57 51.08 107.58 51.08 108.36 50.24 109.14 51.08 109.15 51.08 109.95 51.08 109.96 51.08 132.41 2.04 131.69 2.04 132.62 0 128.31 0"/><path class="cls-1" d="M119.37,96.08v3.71c0,1.73,1.2,2.72,2.64,2.72s2.68-.99,2.68-2.72v-5.65c0-4.62-7.62-2.64-7.62-9.03v-5.15c0-2.97,2.22-4.66,4.95-4.66s4.99,1.69,4.99,4.66v3.75h-2.35v-3.75c0-1.69-1.2-2.68-2.64-2.68s-2.6.99-2.6,2.68v5.15c0,4.66,7.62,2.68,7.62,9.03v5.65c0,3.01-2.27,4.7-5.03,4.7s-4.99-1.69-4.99-4.7v-3.71h2.35Z"/><path class="cls-1" d="M137.05,75.48h2.35v28.85h-2.35v-28.85Z"/><path class="cls-1" d="M162.61,75.48h4.74c2.76,0,5.03,1.73,5.03,4.74v7.58c0,3.01-2.27,4.7-5.03,4.7h-2.39v11.83h-2.35v-28.85ZM167.35,90.52c1.48,0,2.68-.99,2.68-2.72v-7.58c0-1.73-1.19-2.76-2.68-2.76h-2.39v13.06h2.39Z"/><path class="cls-1" d="M183.87,75.48h3.09l4.29,28.85h-2.39l-1.11-7.75h-4.7l-1.07,7.75h-2.39l4.29-28.85ZM187.62,94.6l-2.14-16.28h-.08l-2.18,16.28h4.41Z"/><path class="cls-1" d="M205.02,91.76h-2.35v12.57h-2.35v-28.85h4.74c2.76,0,5.03,1.73,5.03,4.74v6.84c0,2.27-1.28,3.71-3.05,4.2l3.83,13.06h-2.43l-3.42-12.57ZM205.06,89.78c1.48,0,2.68-.99,2.68-2.72v-6.84c0-1.73-1.19-2.76-2.68-2.76h-2.39v12.32h2.39Z"/><path class="cls-1" d="M220.1,75.48h2.35v26.87h6.59v1.98h-8.94v-28.85Z"/><path class="cls-1" d="M241.37,75.48h3.09l4.29,28.85h-2.39l-1.11-7.75h-4.7l-1.07,7.75h-2.39l4.29-28.85ZM245.12,94.6l-2.14-16.28h-.08l-2.18,16.28h4.41Z"/><path class="cls-1" d="M270.68,75.48h3.5l4.2,25.26h.08l4.33-25.26h3.46v28.85h-2.27v-24.69h-.08l-4.08,24.69h-2.72l-4.08-24.69h-.08v24.69h-2.27v-28.85Z"/><path class="cls-1" d="M306.33,80.05v19.74c0,3.01-2.27,4.7-5.03,4.7s-4.99-1.69-4.99-4.7v-19.74c0-3.01,2.23-4.74,4.99-4.74s5.03,1.73,5.03,4.74ZM298.66,99.79c0,1.73,1.2,2.72,2.64,2.72s2.68-.99,2.68-2.72v-19.74c0-1.73-1.19-2.76-2.68-2.76s-2.64,1.03-2.64,2.76v19.74Z"/><path class="cls-1" d="M316.34,75.48h4.86c2.76,0,5.03,1.73,5.03,4.74v19.41c0,3.01-2.27,4.7-5.03,4.7h-4.86v-28.85ZM321.21,102.35c1.48,0,2.68-.99,2.68-2.72v-19.41c0-1.73-1.2-2.76-2.68-2.76h-2.51v24.89h2.51Z"/><path class="cls-1" d="M339.26,75.48h3.09l4.29,28.85h-2.39l-1.11-7.75h-4.7l-1.07,7.75h-2.39l4.29-28.85ZM343.01,94.6l-2.14-16.28h-.08l-2.18,16.28h4.41Z"/></g></svg>