<?xml version="1.0" encoding="UTF-8"?><svg id="Layer_2" xmlns="http://www.w3.org/2000/svg" viewBox="0 0 311.64 110.98"><defs><style>.cls-1{fill:#fff;stroke-width:0px;}</style></defs><g id="Layer_1-2"><path class="cls-1" d="M41.89,49.9c3.49-2.56,5.23-6.12,5.23-10.69v-.15c0-3.56-.94-6.34-2.83-8.32-1.89-1.98-4.44-3.5-7.66-4.55,2.35-1,4.28-2.45,5.8-4.33,1.53-1.88,2.28-4.35,2.28-7.41v-.15c0-1.81-.3-3.41-.9-4.82-.6-1.4-1.43-2.66-2.48-3.76-1.56-1.51-3.51-2.66-5.86-3.46-2.35-.8-5.19-1.2-8.49-1.2H0v52.69h27.17c6.32,0,11.23-1.28,14.71-3.84ZM14.3,12.8h9.51c4.39,0,6.59,1.5,6.59,4.51v.15c0,1.56-.6,2.71-1.79,3.46-1.2.75-2.92,1.13-5.17,1.13h-9.14v-9.26ZM14.3,42v-9.71h11.09c2.44,0,4.24.43,5.4,1.28,1.15.85,1.72,2.01,1.72,3.46v.15c0,1.56-.6,2.75-1.79,3.58-1.2.83-2.93,1.24-5.18,1.24h-11.24Z"/><polygon class="cls-1" points="68.29 103.01 55.92 84.2 53.02 84.2 53.02 109.92 125.08 109.92 125.08 84.26 80.66 84.2 68.29 103.01"/><polygon class="cls-1" points="170.51 40.95 144.99 40.95 144.99 1.05 130.39 1.05 130.39 53.74 170.51 53.74 170.51 40.95"/><path class="cls-1" d="M180.14,46.82c2.51,2.46,5.49,4.4,8.96,5.83,3.47,1.43,7.23,2.14,11.3,2.14s7.82-.71,11.29-2.14c3.46-1.43,6.47-3.39,9.03-5.87s4.56-5.39,5.98-8.73c1.43-3.34,2.14-6.89,2.14-10.65v-.15c0-3.76-.71-7.3-2.14-10.61-1.43-3.31-3.4-6.2-5.9-8.66-2.51-2.46-5.49-4.4-8.96-5.83-3.46-1.43-7.22-2.14-11.29-2.14s-7.83.71-11.29,2.14c-3.46,1.43-6.47,3.39-9.04,5.87-2.55,2.48-4.55,5.39-5.98,8.73-1.43,3.34-2.14,6.89-2.14,10.65v.15c0,3.76.72,7.3,2.14,10.61,1.43,3.31,3.4,6.2,5.91,8.66ZM186.99,27.25c0-1.91.32-3.71.98-5.42.65-1.71,1.56-3.2,2.71-4.48,1.16-1.28,2.56-2.3,4.21-3.05,1.66-.75,3.49-1.13,5.5-1.13s3.83.37,5.49,1.13c1.65.75,3.07,1.78,4.25,3.09,1.18,1.3,2.09,2.82,2.74,4.55.66,1.73.98,3.55.98,5.45v.15c0,1.91-.32,3.71-.98,5.42-.65,1.71-1.56,3.2-2.71,4.48-1.16,1.28-2.55,2.3-4.18,3.05-1.63.75-3.45,1.13-5.46,1.13s-3.84-.39-5.49-1.17c-1.65-.77-3.09-1.82-4.29-3.12-1.21-1.3-2.14-2.81-2.79-4.51-.66-1.71-.98-3.51-.98-5.42v-.15Z"/><polygon class="cls-1" points="296.51 1.05 287.32 31.54 277.16 .9 264.59 .9 254.43 31.54 245.25 1.05 229.82 1.05 247.43 54.12 260.15 54.12 270.77 23.79 281.3 54.12 294.03 54.12 311.64 1.05 296.51 1.05"/><path class="cls-1" d="M42.27,64.54c-2.54-2.31-5.65-4.1-9.34-5.38-3.69-1.28-7.87-1.92-12.53-1.92H0v52.69h20.1c4.72,0,8.93-.66,12.64-1.99,3.71-1.33,6.85-3.17,9.41-5.53,2.56-2.36,4.51-5.15,5.87-8.39,1.35-3.24,2.03-6.76,2.03-10.58v-.15c0-3.81-.66-7.31-1.99-10.5-1.33-3.19-3.26-5.94-5.79-8.24ZM35.15,83.65c0,4.27-1.33,7.55-3.99,9.86-2.66,2.31-6.2,3.46-10.62,3.46h-5.94v-26.87h5.94c4.42,0,7.96,1.17,10.62,3.5,2.66,2.33,3.99,5.63,3.99,9.9v.15Z"/><path class="cls-1" d="M167.39,93.85c-.83.78-1.71,1.45-2.63,2.03-.93.58-1.96,1.01-3.09,1.32-1.13.3-2.37.45-3.72.45-1.86,0-3.55-.36-5.08-1.09-1.53-.73-2.85-1.72-3.95-2.97-1.1-1.25-1.97-2.75-2.6-4.48-.62-1.73-.94-3.58-.94-5.53v-.15c0-1.91.31-3.71.94-5.42.62-1.71,1.49-3.2,2.6-4.48,1.1-1.28,2.42-2.28,3.95-3.01,1.53-.73,3.22-1.09,5.08-1.09,2.55,0,4.74.56,6.55,1.69,1.81,1.13,3.46,2.62,4.97,4.48l10.99-8.51c-1.16-1.6-2.47-3.07-3.95-4.4-1.48-1.33-3.14-2.48-4.97-3.46-1.84-.98-3.85-1.73-6.06-2.26-2.21-.53-4.66-.79-7.38-.79-4.01,0-7.7.7-11.06,2.11s-6.28,3.35-8.77,5.83c-2.48,2.48-4.42,5.39-5.79,8.73-1.38,3.34-2.07,6.91-2.07,10.73v.15c0,3.91.72,7.54,2.14,10.88,1.43,3.34,3.36,6.22,5.8,8.66,2.43,2.43,5.3,4.33,8.62,5.68,3.31,1.35,6.85,2.03,10.61,2.03,2.91,0,5.52-.3,7.83-.9,2.31-.6,4.4-1.43,6.28-2.48,1.88-1.05,3.57-2.31,5.04-3.76,1.48-1.45,2.85-3.04,4.1-4.74l-10.99-7.83c-.8.96-1.62,1.82-2.44,2.6Z"/><polygon class="cls-1" points="237.19 57.23 219.96 57.23 201.75 78.61 201.75 57.23 187.14 57.23 187.14 109.92 201.75 109.92 201.75 96.22 207.09 90.35 220.41 109.92 237.87 109.92 217.25 79.82 237.19 57.23"/><polygon class="cls-1" points="60.94 71.88 54.63 71.88 68.29 92.65 81.95 71.88 75.64 71.88 75.64 67 118.73 67 118.73 43.2 83.56 43.2 83.56 26.56 124.3 26.56 124.3 1.05 53.02 1.05 53.02 67 60.94 67 60.94 71.88"/></g></svg>