<?xml version="1.0" encoding="UTF-8"?><svg id="Layer_2" xmlns="http://www.w3.org/2000/svg" viewBox="0 0 206.33 133.34"><defs><style>.cls-1{fill:#00a651;}.cls-1,.cls-2{stroke-width:0px;}.cls-2{fill:#143c46;}</style></defs><g id="Layer_1-2"><rect class="cls-1" x="21.61" y="109.42" width="8.05" height="23.91"/><polygon class="cls-2" points="144.22 120.19 140.95 109.42 133.24 109.42 133.24 133.34 141.29 133.34 141.29 122.57 144.56 133.34 152.27 133.34 152.27 109.42 144.22 109.42 144.22 120.19"/><polygon class="cls-2" points="122.51 118.85 119.55 118.85 119.55 109.42 111.51 109.42 111.51 133.34 119.55 133.34 119.55 122.5 122.51 122.5 122.51 133.34 130.55 133.34 130.55 109.42 122.51 109.42 122.51 118.85"/><rect class="cls-2" x="154.92" y="109.42" width="8.05" height="23.91"/><path class="cls-1" d="M32.34,112.13v18.49c0,1.5,1.21,2.71,2.71,2.71h13.63c1.5,0,2.71-1.21,2.71-2.71v-18.49c0-1.5-1.21-2.71-2.71-2.71h-13.63c-1.5,0-2.71,1.21-2.71,2.71ZM43.34,129.69h-2.95v-16.62h2.95v16.62Z"/><path class="cls-2" d="M89.72,112.13v18.49c0,1.5,1.21,2.71,2.71,2.71h13.63c1.5,0,2.71-1.21,2.71-2.71v-5.34h-8.05v4.4h-2.95v-16.62h2.95v6.36h8.05v-7.3c0-1.5-1.21-2.71-2.71-2.71h-13.63c-1.5,0-2.71,1.21-2.71,2.71Z"/><path class="cls-2" d="M187.28,112.13v21.2h8.05v-10.84h2.95v10.84h8.05v-23.91h-16.34c-1.5,0-2.71,1.21-2.71,2.71ZM198.28,118.85h-2.95v-5.78h2.95v5.78Z"/><path class="cls-2" d="M165.61,112.13v18.49c0,1.5,1.21,2.71,2.71,2.71h13.63c1.5,0,2.71-1.21,2.71-2.71v-5.34h-8.05v4.4h-2.95v-16.62h2.95v6.36h8.05v-7.3c0-1.5-1.21-2.71-2.71-2.71h-13.63c-1.5,0-2.71,1.21-2.71,2.71Z"/><polygon class="cls-2" points="72.69 109.42 72.69 133.34 87.57 133.34 87.57 129.69 80.74 129.69 80.74 122.5 85.72 122.5 85.72 118.85 80.74 118.85 80.74 113.07 87.57 113.07 87.57 109.42 72.69 109.42"/><polygon class="cls-2" points="52.84 109.42 52.84 113.07 57.81 113.07 57.81 133.34 65.86 133.34 65.86 113.07 70.83 113.07 70.83 109.42 52.84 109.42"/><path class="cls-1" d="M8.05,109.42v-7.15H0v31.07h16.34c1.5,0,2.71-1.21,2.71-2.71v-18.49c0-1.5-1.21-2.71-2.71-2.71h-8.29ZM11,129.69h-2.95v-16.62h2.95v16.62Z"/><path class="cls-1" d="M152.95,49.79c0,20.39-12.26,37.92-29.81,45.61-6.12,2.69-12.88,4.18-19.98,4.18-2.1,0-4.16-.13-6.19-.39-1.7-.21-3.37-.5-5.01-.88-22.11-5.08-38.59-24.88-38.59-48.52C53.37,22.29,75.66,0,103.16,0c2.29,0,4.53.16,6.74.46,11,1.48,20.86,6.57,28.36,14.02.1.1.2.2.3.3,8.89,8.99,14.39,21.36,14.39,35.01Z"/><path class="cls-2" d="M94.03,90.69c-.16-.66-.29-1.32-.4-1.96-.89-5.31-.76-11.24.39-17.78.02-.11.11-.58.13-.69,2.18-11,13.13-16.25,19.03-18.31,4.64-1.18,9.41-3,12.56-5.82,10.49-9.4,12.54-28.1,12.82-31.35-.1-.1-.2-.2-.3-.3-1.39.75-7.03,3.59-17.19,5.97-6.79,1.59-10.75,5.41-13.33,10.01,1.82-8.07,2.3-16.63,2.3-23.48,0-2.42-.06-4.62-.14-6.52-2.21-.3-4.45-.46-6.74-.46-27.5,0-49.79,22.29-49.79,49.79,0,23.64,16.48,43.44,38.59,48.52,1.64.38,3.31.67,5.01.88,2.03.26,4.09.39,6.19.39,7.1,0,13.86-1.49,19.98-4.18,9.66-12.98,10.9-32.81,10.9-32.81,0,0-6.7,3.99-20.63,7.25-12.2,2.86-16.65,11.83-19.38,20.85ZM70.64,56.54c-10.57-9.47-11.81-29.24-11.81-29.24,0,0,5.23,3.11,16.1,5.65,17.17,4.02,14.65,23.59,20.14,30.86,0,0-17.06-.66-24.43-7.27Z"/></g></svg>