<?xml version="1.0" encoding="UTF-8"?><svg id="Layer_2" xmlns="http://www.w3.org/2000/svg" viewBox="0 0 660.47 88.81"><defs><style>.cls-1{fill:#fff;stroke-width:0px;}</style></defs><g id="Layer_1-2"><path class="cls-1" d="M75.98,13.18c-.09-.09-.18-.18-.27-.27C69.02,6.27,60.22,1.73,50.42.41c-1.97-.27-3.97-.41-6.01-.41C19.88,0,0,19.88,0,44.41c0,21.09,14.7,38.74,34.41,43.27,1.46.34,2.95.6,4.47.79,1.81.23,3.65.34,5.52.34,6.34,0,12.37-1.33,17.82-3.72,15.65-6.86,26.59-22.49,26.59-40.68,0-12.17-4.9-23.2-12.83-31.22ZM74.18,14.45h0c-1.16.63-5.93,3.04-14.58,5.06-5.76,1.35-9.12,4.59-11.31,8.5,0,0,0,0,0,0,2.08-9.27,2.11-19.29,1.83-25.45,9.33,1.26,17.7,5.57,24.06,11.9ZM6.79,25.32s4.44,2.64,13.66,4.8c14.57,3.41,12.43,20.01,17.09,26.18,0,0-14.47-.57-20.73-6.17C7.84,42.1,6.79,25.32,6.79,25.32ZM61.35,83.11c8.2-11.01,9.25-27.84,9.25-27.84,0,0-5.68,3.38-17.5,6.15-10.35,2.42-14.12,10.04-16.44,17.69-.14-.56-.25-1.12-.34-1.67-.75-4.5-.64-9.54.33-15.08.02-.1.09-.5.11-.59,1.85-9.34,11.14-13.79,16.15-15.54,3.93-1,7.98-2.55,10.66-4.94,8.91-7.98,10.64-23.87,10.87-26.6h0c7.55,7.63,12.21,18.12,12.21,29.7,0,17.3-10.4,32.18-25.29,38.7Z"/><rect class="cls-1" x="158.16" y="21.62" width="21.89" height="65.03"/><polygon class="cls-1" points="491.58 50.9 482.68 21.62 461.72 21.62 461.72 86.64 483.61 86.64 483.61 57.37 492.51 86.64 513.47 86.64 513.47 21.62 491.58 21.62 491.58 50.9"/><polygon class="cls-1" points="432.54 47.25 424.51 47.25 424.51 21.62 402.62 21.62 402.62 86.65 424.51 86.65 424.51 57.17 432.54 57.17 432.54 86.65 454.42 86.65 454.42 21.62 432.54 21.62 432.54 47.25"/><rect class="cls-1" x="520.67" y="21.62" width="21.89" height="65.03"/><path class="cls-1" d="M187.35,28.99v50.29c0,4.07,3.3,7.37,7.37,7.37h37.06c4.07,0,7.37-3.3,7.37-7.37V28.99c0-4.07-3.3-7.37-7.37-7.37h-37.06c-4.07,0-7.37,3.3-7.37,7.37ZM217.26,76.73h-8.03V31.54h8.03v45.19Z"/><path class="cls-1" d="M343.38,28.99v50.29c0,4.07,3.3,7.37,7.37,7.37h37.06c4.07,0,7.37-3.3,7.37-7.37v-14.52h-21.89v11.97h-8.03V31.54h8.03v17.29h21.89v-19.84c0-4.07-3.3-7.37-7.37-7.37h-37.06c-4.07,0-7.37,3.3-7.37,7.37Z"/><path class="cls-1" d="M608.67,28.99v57.66h21.89v-29.48h8.03v29.48h21.89V21.62h-44.43c-4.07,0-7.37,3.3-7.37,7.37ZM638.58,47.25h-8.03v-15.71h8.03v15.71Z"/><path class="cls-1" d="M549.76,28.99v50.29c0,4.07,3.3,7.37,7.37,7.37h37.06c4.07,0,7.37-3.3,7.37-7.37v-14.52h-21.89v11.97h-8.03V31.54h8.03v17.29h21.89v-19.84c0-4.07-3.3-7.37-7.37-7.37h-37.06c-4.07,0-7.37,3.3-7.37,7.37Z"/><polygon class="cls-1" points="297.08 21.62 297.08 86.65 337.54 86.65 337.54 76.73 318.96 76.73 318.96 57.17 332.5 57.17 332.5 47.25 318.96 47.25 318.96 31.54 337.54 31.54 337.54 21.62 297.08 21.62"/><polygon class="cls-1" points="243.09 21.62 243.09 31.54 256.61 31.54 256.61 86.65 278.5 86.65 278.5 31.54 292.02 31.54 292.02 21.62 243.09 21.62"/><path class="cls-1" d="M121.29,21.62V2.16h-21.89v84.49h44.43c4.07,0,7.37-3.3,7.37-7.37V28.99c0-4.07-3.3-7.37-7.37-7.37h-22.54ZM129.32,76.73h-8.03V31.54h8.03v45.19Z"/></g></svg>