<?xml version="1.0" encoding="UTF-8"?><svg id="Layer_2" xmlns="http://www.w3.org/2000/svg" viewBox="0 0 474.72 127.69"><defs><style>.cls-1{fill:#fff;stroke-width:0px;}</style></defs><g id="Layer_1-2"><path class="cls-1" d="M119.71,95.56l-8.19,7.16h-36.27l7.56-53.93h43.51l-2.07,14.4h-29.11l-.8,5.97h21.87l6.2,7.24-2.7,19.17ZM106.99,83.55h-14.72l-.64,4.77h14.72l.64-4.77Z"/><path class="cls-1" d="M169.59,91.9l-12.25,10.82h-23.15l-9.31-10.82,4.53-32.37,12.33-10.82h23.15l9.23,10.82-4.53,32.37ZM152.09,88.33l4.06-3.66,2.55-17.98-3.1-3.58h-8.67l-4.14,3.58-2.55,17.98,3.18,3.66h8.67Z"/><path class="cls-1" d="M173.25,102.72l7.56-53.93h14.4l-5.57,39.53h7.24l.87-6.05h14.4l-2.86,20.44h-36.03Z"/><path class="cls-1" d="M252.95,102.72h-39.37l1.99-14.4h19.81l-17.34-17.82,3.1-21.79h39.38l-2.07,14.4h-24.98l21.95,21.56-2.47,18.06Z"/><path class="cls-1" d="M301.23,102.72h-14.4l2.47-17.98h-13.92l-2.47,17.98h-14.4l7.56-54.01h14.4l-3.02,21.64h13.92l3.02-21.64h14.4l-7.56,54.01Z"/><path class="cls-1" d="M350.39,102.72h-43.51l7.56-53.93h43.51l-3.02,21.56h-14.4l.95-7.16h-14.72l-.72,5.41h11.14l-2.07,14.4h-11.14l-.72,5.33h14.72l1.03-7.16h14.4l-3.02,21.56Z"/><path class="cls-1" d="M404.08,77.43l-18.69,25.3h-15.35l-11.77-25.3,4.06-28.72h14.4l-3.5,24.74,6.52,14.08,10.5-14.08,3.5-24.74h14.4l-4.06,28.72Z"/><path class="cls-1" d="M419.67,102.72h-14.4l7.56-54.01h14.4l-7.56,54.01Z"/><path class="cls-1" d="M467.16,102.72h-14.4l1.83-13.36-5.57-6.44h-6.52l-2.7,19.81h-14.4l7.56-54.01h14.4l-2.78,19.81h6.52l7.32-6.44,1.91-13.36h14.4l-2.7,19.25-8.75,7.72,6.6,7.72-2.71,19.33Z"/><path class="cls-1" d="M6.39,82.69l3.55-3.2h7.25l4.12.5,5.9,2.7,3.27-2.06-3.98-6.04h-2.56l-3.55-3.41-3.27-.64-1.49-2.13h3.84l1.49-3.62-5.97-.88-5.33,3.36-2.98-2.09.49,3.3,1.92,1.49-5.83,7.89,3.13,4.83ZM10.08,74.87h4.69l8.38,4.05-8.74-3.2-2.42,1.56-2.06-1.35-2.91,2.42,3.05-3.48Z"/><polygon class="cls-1" points="59.03 75.48 61.69 72.76 65.64 72.07 63.18 67.8 64.41 65.51 66.49 66.9 68.19 64.93 69.1 70.79 71.23 64.18 69.1 61.57 61.53 63.01 59.03 66.79 62.81 64.39 58.18 73.3 59.03 75.48"/><polygon class="cls-1" points="61.66 74.87 61.3 76.9 63.08 76.08 63.58 74.87 66.77 73.3 65.85 72.46 61.66 74.87"/><path class="cls-1" d="M27.33,47.08l-8.36,4.37,4.19,5.06,2.42-2.34-.32,2.34,8.63-.69,5.33,1.44,4.64-4.8-5.01-4.74-5.33-1.44,2.77-5.06-8.95,5.86ZM38.89,53.58l-2.18.75-9.48-1.97,5.33-3.28,6.34,4.51Z"/><path class="cls-1" d="M71.5,106.38l-.74,5.44-.53,3.19-1.28.64-.75-3.62-2.77-1.28-4.37,2.66-.32,2.56,2.88,2.77-3.19,2.13-5.65.53,1.5-4.9-2.77-2.46h-4.04l-4.26,3.95,3.19,4.58-13.12-.11,3.42-4.04-.53-3.09-3.73-2.03-4.05.74-1.38,1.07-.7,2.53,1.54,3.56-2.76-1.72-3.26-2.09.67-2.09-.46-2.13-2.3-2.55-4.85,2.26-.62.41c-.62-.21-1.2-.41-1.67-.57l.51-.47-.97-4,11.03,2.81s25.97,7.66,42.81-1.92c-.4.1-6.83,1.74-11.1,1.92l9.79-5.97,1.9-19.85,7.95-16.2.57-12.64-2.7-11.94-7.1-10.65,4.04-9.16-9.23,4.19-2.77-2.2,2.77-13.28-8.89,9.1-1.92-.43.14-16.27-8.31,13.85-.78-.57L37.08,0l-3.55,19.53-12.43-15.34,3.83,20.36L8.1,13.99l5.97,13-2.56,2.66-5.22,14.6-.53,3.3-1.6,1.5H0l5.01,4.8h2.98l1.17,1.71-1.81,2.56.11,3.41,7.13-7.56-1.17-2.88-6.46-1.49,1.1-2.13.29-2.62,4.81-14.16,2.08-1.86,2.98,5.06,2.67-.2,4.04-3.83.5-2.84.5-2.2,4.41-.22,2.41-1.84.92-2.28,7.6.29,9.23,2.2,8.31,6.25-8.88-5.19-1.71.43.78,6.39,7.17,11.3-.07,3.19-3.98-2.98,7.25,13v2.42l-3.98-5.33,1.85,6.96-3.13-2.63,1.14,12.79,5.75-7.25,8.1-1.35,4.98-1.64-3.91,11.87,1.28,4.4-2.77-2.84-1.42.57,2.2,5.11-3.83-3.14-1.77.3.5,2.84-2.49.57.43,5.62-2.49-6.97-1.35,1.99-3.27,1.07,5.97,5.68-13.5,24.22-5.82-2.13,13.7-32.9-8.59,12.58-14.99,8.67,2.7-12.58-11.79,9.45.92-5.19-2.91.5-5.9,6.4-.14-8.1,4.12-5.4-5.26-.92-5.18,2.2,1.35,3.05-6.53,14.49,2.35,1.92,5.04.78,4.26-.08,3.63,4.39h-5.73l-8.3,2.78,8.3,3.73.64-.58,1.34.53-7.23,4.81,13.13-.43,8.55,4.43,2.21,1.46.66,2.05,1.24-1.61,4.81,1.27,11.51-.85,1.71,2.35,1.81-2.35,8.03-1.06,4.97-4.58,4.16.11v-3.3l1.38-.53.22-3.62,6.39-4.05-6.92-1.92ZM60.15,96.09l4.95-11.56-1.81,21.1-4.26,1.49,1.12-11.03Z"/></g></svg>