<?xml version="1.0" encoding="UTF-8"?><svg id="Layer_2" xmlns="http://www.w3.org/2000/svg" viewBox="0 0 274 262.27"><defs><style>.cls-1{fill:#fff;stroke-width:0px;}</style></defs><g id="Layer_1-2"><path class="cls-1" d="M201.76,161.6h13.21c1.68,0,3.37-1.36,3.79-3.04l1.9-7.74c.79-3.22-1.18-5.83-4.4-5.83h-33.67c-3.22,0-6.47,2.61-7.26,5.83l-6.43,26.16c-.61,2.46.9,4.46,3.36,4.46h21.59l-5.79,23.54h-6.76l1.75-7.11c.41-1.68-.62-3.04-2.3-3.04h-13.2c-1.68,0-3.37,1.36-3.79,3.04l-1.9,7.74c-.79,3.22,1.18,5.83,4.39,5.83h33.67c3.22,0,6.47-2.61,7.27-5.83l6.43-26.16c.61-2.46-.9-4.46-3.36-4.46h-21.59l4.37-17.77c.04-.18.85-5.79-1.14-5.79h9.33s-1.75,7.12-1.75,7.12c-.41,1.68.61,3.04,2.29,3.04Z"/><path class="cls-1" d="M57.62,135.63l6.04-24.6c.59-2.39-.87-4.32-3.26-4.32,2.39,0,4.8-1.93,5.38-4.32l4.34-17.68c.68,1.83,1.43,3.65,2.26,5.47l-11.61,47.23c-.34,1.39.52,2.53,1.91,2.53h14.23c1.4,0,2.81-1.14,3.15-2.53l3.42-13.92h6.67l-3.42,13.92c-.34,1.4.51,2.53,1.9,2.53h14.23c1.4,0,2.81-1.13,3.15-2.53l2.82-11.46c.77-3.14-1.15-5.69-4.29-5.69,3.14,0,6.31-2.54,7.08-5.69l8.71-35.41c.77-3.14-1.15-5.69-4.29-5.69h-30.22c-2.93-23.27,3.81-47.06,33.41-49.11,19.57-3.69,45.89,5.65,60.11,18.38-10.26-9.24-22.61-18.36-35.29-24.47,3.87.76,9.99,2.86,13.96,3.53-2.37-.52-4.33-2.12-6.41-3.9,6.86,1.82,16.54,5.04,22.26,7.23,14.09,7.05,27.37,18.5,38.39,29.76-11.82-14.35-30.65-32.19-46.14-42.61-7.53-5.87-15.95-9.43-25.08-10.92-2.29-.38-6.21.82-8.59.7-6.53-1.02-11.12-2.59-16.88-1.93-35.68,4.1-55.69,38.23-48.65,73.33H30.17c-1.4,0-2.81,1.14-3.15,2.53l-15.09,61.4c-.34,1.39.52,2.53,1.91,2.53h38.41c2.39,0,4.8-1.94,5.38-4.32ZM100.87,79.95l-9.12,37.1h-6.67s7.46-30.35,7.7-31.31c.24-.96.6-5.79-1.15-5.79h9.24ZM75.4,51.69c.27,2.85.69,5.63,1.26,8.36-.43-2.15.29-6.83,1.29-9.35,1.31,7.3,3.74,15.06,6.26,22.79h-5.18c-1.4,0-2.81,1.13-3.15,2.53l-1.57,6.38c-1.15-9.44-.86-21.52,1.09-30.72ZM69.81,51.55c-.34,9.82,2,21.45,4.43,31.12l-1.74,7.06c-.68-2.15-1.33-4.45-1.92-6.86l1.24-5.06c.57-2.3-.78-4.17-3.02-4.29-1.06-7.74-1.08-15.65,1-21.97ZM38.86,133.49h-6.67l4.36-17.75s.61-5.79-1.14-5.79h9.24l-5.79,23.54ZM46.23,103.49h-6.67l4.37-17.76s.6-5.79-1.15-5.79h9.24l-5.79,23.55Z"/><path class="cls-1" d="M130.77,139.95h14.18c1.54,0,3.06-1.37,3.22-2.89l5.89-58.51c.29-2.91-1.67-5.06-4.6-5.06h-13.8c-1.25,0-2.55.92-3.03,2.16l-24,61.39c-.6,1.52.25,2.89,1.79,2.89h1.52c1.25,0,2.55-.92,3.03-2.16l5.58-14.28h9.69l-1.44,14.28c-.13,1.24.71,2.17,1.97,2.17ZM123.06,117.05l10.53-26.95-2.14,21.18v.13c-.02.06-.02.13-.03.22,0,.02,0,.03,0,.05-.1,1.34-.28,5.36,1.18,5.36h-9.54Z"/><path class="cls-1" d="M154.32,139.94h14.23c1.4,0,2.81-1.13,3.15-2.53l14.63-59.5c.6-2.44-.89-4.42-3.34-4.42h-12.34c-1.4,0-2.81,1.13-3.15,2.53l-15.09,61.4c-.34,1.4.51,2.53,1.91,2.53Z"/><path class="cls-1" d="M196.24,73.49c-1.4,0-2.81,1.13-3.15,2.53l-15.09,61.4c-.34,1.4.51,2.53,1.91,2.53h1.09c1.4,0,2.81-1.13,3.15-2.53l12.94-52.63-4.97,49.4c-.33,3.31,1.9,5.76,5.24,5.76h10.94c1.4,0,2.81-1.13,3.15-2.53l8.16-33.18h12.98c.31,1.77,1.86,3.12,3.72,3.12,2.09,0,3.78-1.69,3.78-3.78s-1.69-3.78-3.78-3.78c-1.81,0-3.32,1.27-3.69,2.96h-12.65l6.57-26.74c.34-1.4-.51-2.53-1.91-2.53h-1.09c-1.4,0-2.81,1.13-3.15,2.53l-5.3,21.57,1.8-17.9c.36-3.56-2.04-6.2-5.64-6.2h-15.01Z"/><path class="cls-1" d="M140.17,211.45h14.18c1.54,0,3.06-1.37,3.21-2.89l5.89-58.51c.29-2.91-1.67-5.06-4.6-5.06h-13.8c-1.25,0-2.55.92-3.03,2.16l-24.01,61.4c-.6,1.52.26,2.89,1.8,2.89h1.51c1.26,0,2.55-.92,3.03-2.17l5.59-14.28h9.69l-1.44,14.28c-.12,1.24.72,2.16,1.97,2.16ZM132.47,188.55l10.53-26.95-2.13,21.18v.13c-.02.06-.03.13-.03.22,0,.02,0,.03,0,.05-.1,1.34-.28,5.36,1.18,5.36h-9.54Z"/><path class="cls-1" d="M272.25,171.61c1.75,16.75,1.75,37.42-6.41,54.41,9.09-30.28,3.99-46.06,3.19-51.37.25,2.37,2.8,21.37-2.54,34.97-1.09,2.77-2.11,5.31-3.25,7.65,2.63-10.58,1.35-25.3-.02-35.03l8.54-34.73c.34-1.4-.51-2.53-1.91-2.53h-14.23c-1.4,0-2.81,1.13-3.15,2.53l-5.34,21.68s0,.01,0,.03h0c-.09.5-.78,5.76,1.15,5.76h-9.33l6.75-27.47c.34-1.4-.51-2.53-1.91-2.53h-14.22c-1.4,0-2.81,1.13-3.15,2.53l-15.09,61.4c-.34,1.4.51,2.53,1.91,2.53h14.23c1.4,0,2.8-1.14,3.15-2.53l5.35-21.76s0-.02,0-.03c.12-.84.69-5.67-1.17-5.67h9.33s-6.75,27.47-6.75,27.47c-.34,1.4.51,2.53,1.9,2.53h14.23c1.4,0,2.81-1.13,3.15-2.53l4.87-19.79c-.08,3.31-.25,6.45-.53,8.7-.98,7.7-1.58,19.77-16.12,29.33-40.66,26.73-90.7-14.43-90.7-14.43,0,0,15.28,13.84,29.71,21.27-9.4-4.04-14.49-4.52-14.49-4.52,0,0,9.71,3.79,11.43,6.38-5.56-3.54-14.5-2.85-17.38-4.18-4.81-1.97-20.66-9.26-35.52-21.94,5.19,7.64,11.12,14.47,17.64,20.46h-40.99c-.3-1.5-1.47-2.67-2.97-2.97v-15.78h5.09c1.26,0,2.55-.92,3.03-2.17l24-61.4c.6-1.52-.25-2.89-1.79-2.89h-1.52c-1.26,0-2.55.92-3.03,2.17l-17.37,44.42,4.18-41.53c.29-2.91-1.67-5.06-4.6-5.06h-7.41c-1.26,0-2.55.92-3.03,2.17l-5.33,13.62-12.04,30.8h0s4.18-41.53,4.18-41.53c.29-2.91-1.67-5.06-4.6-5.06h-11.26c-1.43,0-2.84,1.19-3.15,2.58h-11.49c-.41,0-.74.33-.74.74s.33.74.74.74h11.31l-6.06,60.23c-.13,1.24.71,2.17,1.97,2.17h15.78c1.26,0,2.55-.92,3.03-2.16l10.04-25.67-2.59,25.67c-.13,1.24.71,2.17,1.97,2.17h9.21s0,15.78,0,15.78c-1.74.34-3.04,1.87-3.04,3.71,0,2.09,1.69,3.78,3.78,3.78,1.84,0,3.36-1.31,3.71-3.04h42.63c12.23,10.85,26.41,18.85,41.53,23.86,3.21,1.06,6.93,3.55,10.21,4.34,2.81.68,5.17-.3,8.02.18,5.73.96,13.3,2.58,18.9,2.15,6.92-.53,11.79-3.52,18.2-6.66,30.77-17.95,32.51-52.36,28.19-83.93Z"/><path class="cls-1" d="M50.81,147.58h-8.28c-.41,0-.74.33-.74.74s.33.74.74.74h8.28c.41,0,.74-.33.74-.74s-.33-.74-.74-.74Z"/><path class="cls-1" d="M37.85,147.58h-8.28c-.41,0-.74.33-.74.74s.33.74.74.74h8.28c.41,0,.74-.33.74-.74s-.33-.74-.74-.74Z"/><path class="cls-1" d="M25.48,147.58H4.52v-25.93c1.73-.34,3.04-1.87,3.04-3.71,0-2.09-1.69-3.78-3.78-3.78s-3.78,1.69-3.78,3.78c0,1.84,1.31,3.36,3.04,3.71v27.41h22.43c.41,0,.74-.33.74-.74s-.33-.74-.74-.74Z"/></g></svg>