<?xml version="1.0" encoding="UTF-8"?><svg id="Layer_2" xmlns="http://www.w3.org/2000/svg" viewBox="0 0 632.09 54.29"><defs><style>.cls-1{fill:#fff;stroke-width:0px;}</style></defs><g id="Layer_1-2"><path class="cls-1" d="M0,54.29L8.57,20h49.44l1.43-5.81H10L3.62,0h74.3l-5.05,20.38c0,.13-.16.48-.48,1.05-.32.57-.68,1.21-1.1,1.9-.41.7-.84,1.37-1.29,2-.45.64-.83,1.08-1.14,1.33.19.45.36.97.52,1.57.16.6.27,1.19.33,1.76.06.57.11,1.09.14,1.57.03.48.01.81-.05,1l-2.48,9.91c-.45,1.78-1.16,3.38-2.14,4.81-.99,1.43-2.08,2.67-3.29,3.71-1.21,1.05-2.46,1.86-3.76,2.43-1.3.57-2.52.86-3.67.86H0ZM19.91,34.2l-1.52,5.91h34.58l1.52-5.91H19.91Z"/><path class="cls-1" d="M143.92,0c3.68,0,6.05,1.02,7.1,3.05,1.05,2.03,1.16,4.67.33,7.91l-3.43,13.81c-.89,3.62-2.67,6.41-5.33,8.38-2.67,1.97-5.97,2.99-9.91,3.05l10.1,18.1h-18.48l-10.19-17.72h-14.48l-4.38,17.72h-14.86l8-31.91h45.34l2-8.19h-45.34l-6.38-14.19h59.91Z"/><path class="cls-1" d="M177.17,0h24.38l15.62,54.29h-16.76l-4.38-14.29h-21.24l-11.53,14.29h-16.76l22.48-28.48h23.24l-2.1-7.24h-15.34l6.76-8.67-4.38-9.91Z"/><path class="cls-1" d="M226.13,0h24.76l-13.53,54.29h-14.86l10-40.1-6.38-14.19Z"/><path class="cls-1" d="M257.08,0h21.34l25.72,29.53,7.33-29.53h14.95l-13.53,54.29h-11.14l-26.1-29.24-7.33,29.24h-14.86l10-40.1-6.38-14.19Z"/><path class="cls-1" d="M396.63,22.1l-8,32.19h-64.49l10.76-43.34c.82-3.24,2.33-5.87,4.52-7.91,2.19-2.03,5.29-3.05,9.29-3.05h53.44l-3.52,14.19h-49.44l-6.48,25.81h34.58l4.48-17.91h14.86Z"/><path class="cls-1" d="M425.49,0h24.38l15.62,54.29h-16.76l-4.38-14.29h-21.24l-11.53,14.29h-16.77l22.48-28.48h23.24l-2.1-7.24h-15.34l6.76-8.67-4.38-9.91Z"/><path class="cls-1" d="M483.21,33.72c-1.14-.38-2.08-1.02-2.81-1.91-.73-.89-1.21-2.05-1.43-3.48-.22-1.43-.08-3.19.43-5.29l3.62-14.57c.19-.89.68-1.82,1.48-2.81.79-.98,1.7-1.9,2.72-2.76,1.01-.86,2.06-1.55,3.14-2.1,1.08-.54,2.03-.81,2.86-.81h53.91l-3.52,14.29h-47.15l-1.43,5.72h36.77c1.33,0,2.57.19,3.72.57,1.14.38,2.08,1.02,2.81,1.9.73.89,1.22,2.03,1.48,3.43.25,1.4.13,3.14-.38,5.24l-3.71,14.76c-.19.89-.67,1.83-1.43,2.81-.76.99-1.64,1.89-2.62,2.71-.99.83-2.03,1.51-3.14,2.05-1.11.54-2.11.81-3,.81h-53.91l3.52-14.29h47.15l1.43-5.72h-36.86c-1.27,0-2.48-.19-3.62-.57Z"/><path class="cls-1" d="M553.7,0h21.53l16.48,24.48,28.67-24.48h11.72l-13.53,54.29h-14.96l7.05-28.1-24.67,21.05-14.1-21.05-7.05,28.1h-14.86l10-40.29-6.29-14Z"/></g></svg>