<?xml version="1.0" encoding="UTF-8"?><svg id="Layer_2" xmlns="http://www.w3.org/2000/svg" viewBox="0 0 311.13 186.42"><defs><style>.cls-1{fill:#fff;stroke-width:0px;}</style></defs><g id="Layer_1-2"><path class="cls-1" d="M71.83,157.5h7.5c2.37,0,4.17.18,5.39.55,1.22.37,2.21,1.12,2.96,2.24s1.13,2.94,1.13,5.44c0,1.69-.27,2.87-.8,3.54s-1.57,1.18-3.14,1.54c1.74.39,2.92,1.05,3.54,1.96s.93,2.31.93,4.19v2.68c0,1.96-.22,3.4-.67,4.34-.45.94-1.16,1.59-2.14,1.93s-2.98.52-6,.52h-8.7v-28.93ZM79.36,162.44v6.43c.32-.01.57-.02.75-.02.74,0,1.21-.18,1.41-.55.2-.36.3-1.4.3-3.12,0-.91-.08-1.54-.25-1.9s-.38-.59-.65-.69c-.27-.1-.79-.15-1.56-.16ZM79.36,173.38v8.09c1.06-.04,1.74-.2,2.03-.5.29-.3.44-1.03.44-2.2v-2.7c0-1.24-.13-1.99-.39-2.25-.26-.26-.95-.41-2.07-.45Z"/><path class="cls-1" d="M98.26,157.5h5.33c3.55,0,5.95.14,7.21.41,1.26.27,2.28.97,3.07,2.1.79,1.13,1.19,2.92,1.19,5.39,0,2.25-.28,3.76-.84,4.54-.56.78-1.66,1.24-3.31,1.39,1.49.37,2.49.86,3,1.48.51.62.83,1.19.96,1.71s.19,1.95.19,4.28v7.63h-6.99v-9.61c0-1.55-.12-2.51-.37-2.88-.24-.37-.88-.55-1.92-.55v13.04h-7.52v-28.93ZM105.79,162.44v6.43c.85,0,1.44-.12,1.78-.35s.51-.99.51-2.26v-1.59c0-.92-.16-1.52-.49-1.81-.33-.29-.93-.43-1.8-.43Z"/><path class="cls-1" d="M124.19,157.5h12.54v5.79h-5.02v5.49h4.7v5.5h-4.7v6.36h5.52v5.79h-13.04v-28.93Z"/><path class="cls-1" d="M162.42,157.5v28.93h-6.59l-3.91-13.15v13.15h-6.29v-28.93h6.29l4.22,13.03v-13.03h6.29Z"/><path class="cls-1" d="M188.45,157.5v28.93h-6.59l-3.91-13.15v13.15h-6.29v-28.93h6.29l4.22,13.03v-13.03h6.29Z"/><path class="cls-1" d="M210.7,157.5l4.3,28.93h-7.69l-.4-5.2h-2.69l-.45,5.2h-7.78l3.84-28.93h10.87ZM206.71,176.1c-.38-3.28-.76-7.33-1.15-12.15-.77,5.54-1.25,9.59-1.44,12.15h2.59Z"/><path class="cls-1" d="M239.3,157.5v28.93h-6.59l-3.91-13.15v13.15h-6.29v-28.93h6.29l4.22,13.03v-13.03h6.29Z"/><path class="cls-1" d="M149.77,142.26c1.64,1.72-.13,3.51-.13,3.51-.33-1.83-2-1.78-2-1.78.68,2.44-1.79,3.89-1.79,3.89,1.19-2.34-4.25-2.58-4.25-2.58h-4.27c-2.37,1.08.34,3.6.34,3.6,0,0-4.48,0-4.48-2.38s1.9-3.39,1.9-3.39h-9.83l-.55,3.39-40.11-5.2,6.2,5.2h-26.41c-4.73-2.69-9.14-5.49-13.24-8.38,7.32,1.42,15.47,2.08,24.4,1.51,0,0-15.95-1.07-32.74-7.82-5.08-4.13-9.6-8.41-13.62-12.78,9.73,4.22,21.68,7.39,35.84,7.67,0,0-25.01-3.77-44.3-17.96,0,0,0,0,0,0-2.58-3.54-4.88-7.11-6.91-10.71,10.31,6.41,24.12,12.15,41.61,13.67-1.16-.26-28.93-6.67-46.98-24.58-1.67-3.92-3.05-7.83-4.18-11.71,9.99,8.71,24.85,17.87,45.46,21.51-1.22-.39-32.49-10.57-48.19-33.22h0c-.75-4.24-1.22-8.38-1.46-12.4,8.51,10.79,22.74,23.78,45.03,30.93-1.03-.49-33.97-16.34-45.1-43.43.25-4.97.81-9.61,1.59-13.85,0-.04.02-.09.02-.13,6.18,12.43,18.63,30.13,42.47,41.9-1.12-.76-34.33-23.36-39.07-53.96C8.51,3.96,12.65,0,12.65,0c60.77,85.74,93.7,91.52,93.7,91.52l4.16-3.43h22.79l5.24,3.43s7.6-.04,10.22-.02c5.93.05-.72,10.74-.72,10.74,0-3.98-3.93-2.26-3.93-2.26l-8.01,3.8-13.29,22.25,11.8,14.16c2.01.17,13.38.23,15.16,2.08Z"/><path class="cls-1" d="M161.36,142.26c-1.64,1.72.13,3.51.13,3.51.33-1.83,2-1.78,2-1.78-.68,2.44,1.79,3.89,1.79,3.89-1.19-2.34,4.25-2.58,4.25-2.58h4.27c2.37,1.08-.34,3.6-.34,3.6,0,0,4.48,0,4.48-2.38,0-2.38-1.9-3.39-1.9-3.39h9.83s.55,3.39.55,3.39l40.11-5.2-6.2,5.2h26.41c4.73-2.69,9.14-5.49,13.24-8.38-7.32,1.42-15.47,2.08-24.4,1.51,0,0,15.95-1.07,32.74-7.82,5.08-4.13,9.6-8.41,13.62-12.78-9.73,4.22-21.68,7.39-35.84,7.67,0,0,25.01-3.77,44.3-17.96,0,0,0,0,0,0,2.58-3.54,4.88-7.11,6.91-10.71-10.31,6.41-24.12,12.15-41.61,13.67,1.16-.26,28.93-6.67,46.98-24.58,1.67-3.92,3.05-7.83,4.18-11.71-9.99,8.71-24.85,17.87-45.46,21.51,1.22-.39,32.49-10.57,48.19-33.22h0c.75-4.24,1.22-8.38,1.46-12.4-8.51,10.79-22.74,23.78-45.03,30.93,1.03-.49,33.97-16.34,45.1-43.43-.25-4.97-.81-9.61-1.59-13.85,0-.04-.02-.09-.02-.13-6.18,12.43-18.63,30.13-42.47,41.9,1.12-.76,34.33-23.36,39.07-53.96C302.62,3.96,298.48,0,298.48,0c-60.77,85.74-93.7,91.52-93.7,91.52l-4.16-3.43h-22.79s-5.24,3.43-5.24,3.43c0,0-7.6-.04-10.22-.02-5.93.05.72,10.74.72,10.74,0-3.98,3.93-2.26,3.93-2.26l8.01,3.8,13.29,22.25-11.8,14.16c-2.01.17-13.38.23-15.16,2.08Z"/></g></svg>