<?xml version="1.0" encoding="UTF-8"?><svg id="Layer_2" xmlns="http://www.w3.org/2000/svg" viewBox="0 0 462.81 151.51"><defs><style>.cls-1{fill:#fff;stroke-width:0px;}</style></defs><g id="Layer_1-2"><path class="cls-1" d="M146.16,30.31c5.21-1.1,10.99-4.82,10.99-15.78C157.15-.5,149.25,0,149.25,0h-32.66s0,45.88,0,45.88c-4.74-1.64-9.78-2.89-15.03-3.84,1.94-4.12,3.03-8.7,3.03-13.56C104.6,9.69,93.62.02,75.97.02h-3.32S0,.03,0,.03v12.87h72.65c3.69,0,9.73.76,12.93,3.85,3.69,3.56,4.2,7.77,4.2,11.45,0,6.94-5.94,11.02-5.94,11.02-3.69-.05-28.39-.17-32.66-.13v-18.88h-17.41v75.09H0v12.89h33.77v38.44c2.02.44,119.87,26.59,119.87-46.63,0-25.39-10.25-40.39-25.81-49.11v-20.15h5.26l11.73,24.32c.67,1.35,1.41,1.35,3.87,1.35h7.78c.92,0,1.56-.81,1.24-1.58l-11.57-24.5ZM51.18,138.16V50.24h27.88c22.16,0,58.49,3.69,58.49,48.76s-47.46,44.42-86.36,39.16ZM140.56,20.88h-12.72v-11.76h13.13c6.29,0,5.55,11.76-.41,11.76Z"/><path class="cls-1" d="M196.55.02h-11.97c-12.53,0-12.53,12.06-12.53,12.06v31.81s0,12.47,12.53,12.47h11.97c12.53,0,12.53-12.47,12.53-12.47V12.4S209.08.02,196.55.02ZM198.53,42.63c0,3.64,0,6.34-7.96,6.34s-7.96-2.71-7.96-6.34V13.71c0-3.64,0-6.29,7.96-6.29s7.96,2.65,7.96,6.29v28.92Z"/><path class="cls-1" d="M247.62.02h-11.97c-12.53,0-12.53,12.06-12.53,12.06v31.81s0,12.47,12.53,12.47h11.97c12.53,0,12.53-12.47,12.53-12.47V12.4S260.16.02,247.62.02ZM249.6,42.63c0,3.64,0,6.34-7.96,6.34s-7.96-2.71-7.96-6.34V13.71c0-3.64,0-6.29,7.96-6.29s7.96,2.65,7.96,6.29v28.92Z"/><path class="cls-1" d="M381.35,28v26.94c0,1.25,3.16,1.43,5.61,1.45,2.46-.02,5.61-.2,5.61-1.45v-26.94l13.14-26.39c.49-.77.03-1.58-.89-1.58h-4.99c-2.46,0-3.21,0-4.17,1.35l-8.7,17.78-8.7-17.78c-.97-1.35-1.71-1.35-4.17-1.35h-4.99c-.92,0-1.38.81-.89,1.58l13.14,26.39Z"/><path class="cls-1" d="M388.08,56.39c-.34,0-.73,0-1.12,0-.4,0-.78,0-1.12,0h2.25Z"/><path class="cls-1" d="M302.4,56.37h10.31c.61,0,.92-.73.49-1.17l-26.52-26.99s0,0,0,0h0s0,0,0,0l26.59-27.06c.4-.41.11-1.1-.46-1.1h-10.42c-.17,0-.33.07-.45.18l-16.52,16.06V1.48c0-1.25-3.16-1.43-5.61-1.45-2.46.02-5.61.2-5.61,1.45v53.45c0,1.25,3.16,1.43,5.61,1.45,2.46-.02,5.61-.2,5.61-1.45v-14.81l16.51,16.05c.13.12.3.19.48.19Z"/><path class="cls-1" d="M280.93,56.39c-.34,0-.73,0-1.12,0-.4,0-.78,0-1.12,0h2.25Z"/><path class="cls-1" d="M278.68.02c.34,0,.73,0,1.12,0,.4,0,.78,0,1.12,0h-2.25Z"/><path class="cls-1" d="M368.01,54.53v-5.44c0-1.02-.82-1.84-1.84-1.84h-26.3V1.48c0-1.25-3.16-1.43-5.61-1.45-2.46.02-5.61.2-5.61,1.45v54.89h37.53c1.02,0,1.84-.82,1.84-1.84Z"/><path class="cls-1" d="M335.38.02h-2.25c.34,0,.73,0,1.12,0,.4,0,.78,0,1.12,0Z"/><path class="cls-1" d="M456.86.03c-2.6.02-5.94.2-5.94,1.45v33.38L428.48.32c-1.18-.23-4.9-.27-5.32-.27-2.32.08-4.72.36-4.72,1.43v53.45c0,1.25,3.35,1.43,5.95,1.45,2.6-.02,5.94-.2,5.94-1.45V21.56l22.44,34.54c1.18.23,4.9.27,5.32.27,2.32-.08,4.72-.36,4.72-1.43V1.48c0-1.25-3.35-1.43-5.95-1.45Z"/><path class="cls-1" d="M185.6,70.3c-.37-.98-.97-1.72-1.68-2.19-.03-.02-.06-.05-.09-.07-.06-.04-.12-.05-.18-.09-.13-.07-.27-.14-.41-.19-.11-.04-.22-.07-.34-.1-.13-.03-.25-.06-.38-.08-.12-.02-.24-.02-.37-.02-.12,0-.24,0-.37.02-.13.02-.26.04-.38.08-.11.03-.22.06-.34.1-.14.05-.27.12-.41.19-.06.03-.12.05-.18.09h0s-.06.05-.09.07c-.7.47-1.3,1.2-1.68,2.19l-12.16,31.99h-2.68c-2.13,0-3.86,1.69-3.86,3.77h0c0,2.02,1.63,3.66,3.68,3.75l-4.66,12.26c-.6,1.8,1.17,1.85,3.53,1.85h2.61c2.75,0,4.52,0,5.61-2.22l4.4-11.87h13.95l4.4,11.87c1.1,2.22,2.86,2.22,5.61,2.22h2.61c2.37,0,4.13-.04,3.53-1.84l-19.68-51.77ZM177.97,102.29l4.18-11.28,4.18,11.28h-8.36Z"/><path class="cls-1" d="M418.36,71.22c-.37-.98-.97-1.72-1.68-2.19-.03-.02-.06-.05-.09-.07-.06-.04-.12-.05-.18-.09-.13-.07-.27-.14-.41-.19-.11-.04-.22-.07-.34-.1-.13-.03-.25-.06-.38-.08-.12-.02-.24-.02-.37-.02-.12,0-.24,0-.37.02-.13.02-.26.04-.38.08-.11.03-.22.06-.34.1-.14.05-.27.12-.41.19-.06.03-.12.05-.18.09h0s-.06.05-.09.07c-.7.47-1.3,1.2-1.68,2.19l-12.16,31.99h-2.68c-2.13,0-3.86,1.69-3.86,3.77h0c0,2.02,1.63,3.66,3.68,3.75l-4.66,12.26c-.6,1.8,1.17,1.85,3.53,1.85h2.61c2.75,0,4.52,0,5.61-2.22l4.4-11.87h13.95l4.4,11.87c1.1,2.22,2.86,2.22,5.61,2.22h2.61c2.37,0,4.13-.04,3.53-1.84l-19.68-51.77ZM410.73,103.22l4.18-11.28,4.18,11.28h-8.36Z"/><path class="cls-1" d="M224.22,123.92c-.34,0-.73,0-1.12,0-.4,0-.78,0-1.12,0h2.25Z"/><path class="cls-1" d="M247.04,97.84c5.21-1.1,10.99-4.82,10.99-15.78,0-15.04-7.9-14.53-7.9-14.53h-32.66s0,54.93,0,54.93c0,1.24,1.28,1.43,3.73,1.45h3.57c2.46-.02,3.95-.2,3.95-1.45v-24.21h5.26l11.73,24.32c.67,1.35,1.41,1.35,3.87,1.35h7.78c.92,0,1.56-.81,1.24-1.58l-11.57-24.5ZM241.44,88.41h-12.72v-11.76h13.13c6.29,0,5.55,11.76-.41,11.76Z"/><path class="cls-1" d="M278.68,67.56c.34,0,.73,0,1.12,0,.4,0,.78,0,1.12,0h-2.25Z"/><path class="cls-1" d="M279.81,67.57c-2.46.02-5.61.2-5.61,1.45v53.48c0,1.25,3.16,1.43,5.61,1.45,2.46-.02,5.61-.2,5.61-1.45v-53.48c0-1.25-3.16-1.43-5.61-1.45Z"/><path class="cls-1" d="M398.25,75.77v-5.44c0-1.02-.82-1.84-1.84-1.84h-26.09c-.41-.01-.81-.02-1.19-.03-.39,0-.79.01-1.19.03h-26.09c-1.02,0-1.84.82-1.84,1.84v5.44c0,1.02.82,1.84,1.84,1.84h21.67v45.78c0,1.25,3.16,1.43,5.61,1.45,2.46-.02,5.61-.2,5.61-1.45v-45.78h21.67c1.02,0,1.84-.82,1.84-1.84Z"/><path class="cls-1" d="M368.01,68.46c.34,0,.73,0,1.12,0,.4,0,.78,0,1.12,0h-2.25Z"/><path class="cls-1" d="M319.26,91.91c-3.68-1.61-7.53-3.58-7.53-3.58-2.08-1.44-2.99-2.19-2.99-5.48s3.41-5.12,7.47-5.12c5.39,0,6.98,3.48,7.43,5.84.24,1.25,1.18,2.14,2.29,2.18l5.64.21c1.54.06,2.73-1.54,2.48-3.29-1.35-9.17-8.23-14.34-17.19-14.34-10.01,0-18.77,3.28-18.77,15.64,0,10.88,7.29,12.52,16.43,16.5,4,1.74,6.98,3.43,6.98,3.43,2.17,1.5,3.1,2.28,3.1,5.7s-3.55,5.32-7.77,5.32c-5.67,0-7.29-3.7-7.74-6.15-.23-1.25-1.18-2.14-2.29-2.18l-6.07-.23c-1.53-.06-2.7,1.51-2.48,3.26,1.25,9.68,8.03,15.34,18.61,15.34,9.13,0,18.82-3.81,18.82-16.53,0-10.83-8.62-13.12-16.41-16.52Z"/></g></svg>