<?xml version="1.0" encoding="UTF-8"?><svg id="Layer_2" xmlns="http://www.w3.org/2000/svg" viewBox="0 0 514.21 104.77"><defs><style>.cls-1{fill:#fff;stroke-width:0px;}</style></defs><g id="Layer_1-2"><path class="cls-1" d="M32.99,103.15H0v-50.75h32.36c7.37,0,13.48,4.98,13.48,12.64,0,5.62-3.37,10.18-8.7,11.93,6.11,1.54,10.04,6.46,10.04,12.78,0,8.14-6.32,13.41-14.18,13.41ZM24.29,65.03h-7.02v6.32h7.02c1.68,0,3.16-1.4,3.16-3.16s-1.47-3.16-3.16-3.16ZM25.41,83.99h-8.14v6.53h8.14c1.76,0,3.23-1.54,3.23-3.3s-1.47-3.23-3.23-3.23Z"/><path class="cls-1" d="M74.06,103.36c-13.2,0-23.52-6.25-23.52-20.57v-30.4h17.48v29.97c0,3.44,2.67,5.83,6.04,5.83s6.11-2.39,6.11-5.83v-29.97h17.41v30.4c0,14.32-10.25,20.57-23.52,20.57Z"/><path class="cls-1" d="M129.02,104.77c-14.67,0-28.08-11.02-28.08-26.18s13.41-26.18,28.08-26.18c10.81,0,21.34,6.04,25.83,16.08l-16.57,5.62c-1.62-3.65-5.27-6.18-9.27-6.18-5.76,0-10.18,4.77-10.18,10.39s4.42,10.39,10.18,10.39c4,0,7.65-2.46,9.27-6.18l17.27,4.42c-3.93,11.02-15.02,17.83-26.53,17.83Z"/><path class="cls-1" d="M190.87,103.15l-13.97-22.88v22.88h-17.97v-50.75h17.97v22.04l13.34-22.04h19.87l-16.07,23.17,18.25,27.59h-21.41Z"/><path class="cls-1" d="M205.68,87.29v-14.74h24.15v14.74h-24.15Z"/><path class="cls-1" d="M267.39,103.15l-2.18-4.49h-20.29l-2.18,4.49h-19.16l31.73-52.51,31.17,52.51h-19.09ZM255.17,77.88l-4,8.07h7.93l-3.93-8.07Z"/><path class="cls-1" d="M280.23,87.29v-14.74h24.15v14.74h-24.15Z"/><path class="cls-1" d="M327.55,103.92c-8.21,0-17.27-3.16-19.79-11.79l12.77-4.91c.14,3.09,3.93,5.34,6.74,5.34,2.39,0,4.84-1.05,4.84-3.86,0-.63-.49-1.19-.91-1.61-2.25-1.83-5.69-1.97-8.43-2.39-8.28-1.26-14.67-6.95-14.67-15.72,0-11.23,11.3-17.41,21.34-17.41,7.51,0,16.78,3.37,19.44,11.02l-12.99,5.19c-.28-3.16-3.44-4.91-6.32-4.91-1.83,0-4.98.84-4.98,3.09,0,2.6,3.79,3.58,5.83,3.93,5.12.84,10.11,1.47,14.32,4.98,3.23,2.67,4.92,6.18,4.92,10.39,0,12.35-10.81,18.67-22.11,18.67Z"/><path class="cls-1" d="M353.03,103.15v-50.75h17.97v38.05h21.27v12.71h-39.24Z"/><path class="cls-1" d="M395.64,103.15v-39.1s5.98.97,11.25-1.92c5.43-2.98,6.72-5.1,6.72-5.1v46.12h-17.97Z"/><path class="cls-1" d="M445.06,104.77c-14.67,0-28.08-11.02-28.08-26.18s13.41-26.18,28.08-26.18c10.81,0,21.34,6.04,25.83,16.08l-16.57,5.62c-1.61-3.65-5.27-6.18-9.26-6.18-5.76,0-10.18,4.77-10.18,10.39s4.42,10.39,10.18,10.39c4,0,7.65-2.46,9.26-6.18l17.27,4.42c-3.93,11.02-15.02,17.83-26.53,17.83Z"/><path class="cls-1" d="M474.97,103.15v-50.75h39.24v12.64h-21.27v6.39h19.73v12.64h-19.73v6.39h21.27v12.71h-39.24Z"/><path class="cls-1" d="M399.8,61.26l2.58-1.36,4.83-2.54,25.76-13.56,3.29-1.73,10.65-5.61-42.49-28.24-4.62,53.04ZM436.59,40.38c-.08-.86-.51-1.66-1.26-2.15-1.34-.89-3.2-.47-4.14.96-.85,1.27-.68,2.9.32,3.87l-24.79,13.05c-.18-.25-.4-.48-.68-.66-1.26-.84-3.01-.44-3.89.89-.49.74-.62,1.62-.41,2.4l-.39.2,2.97-34.01c.13.71.52,1.36,1.15,1.78,1.27.85,3.03.44,3.93-.91s.59-3.13-.68-3.97-3.03-.44-3.93.91c-.15.22-.25.46-.34.7l1.12-12.79,38.68,25.71-7.65,4.03Z"/><ellipse class="cls-1" cx="412.16" cy="45.42" rx="2.81" ry="2.65" transform="translate(146.18 363.53) rotate(-56.39)"/><ellipse class="cls-1" cx="419.84" cy="24.99" rx="2.81" ry="2.65" transform="translate(166.62 360.8) rotate(-56.39)"/><polygon class="cls-1" points="405.16 0 404.86 3.47 451.13 34.22 454.21 32.6 405.16 0"/></g></svg>