<?xml version="1.0" encoding="UTF-8"?><svg id="Layer_2" xmlns="http://www.w3.org/2000/svg" viewBox="0 0 527.34 199.02"><defs><style>.cls-1{fill:#fff;stroke-width:0px;}</style></defs><g id="Layer_1-2"><path class="cls-1" d="M269.77,21.38c1.58-2.17,2.37-4.87,2.37-8.12,0-1.89-.23-3.65-.68-5.28-.46-1.62-1.18-3.02-2.18-4.19-1-1.17-2.27-2.09-3.81-2.74-1.54-.65-3.37-.98-5.5-.98h-25.7c-4.08,0-6.12,2.35-6.12,7.04s2.06,7.04,6.18,7.04h20.88c1.78,0,2.67.7,2.67,2.1s-.89,2.17-2.67,2.17h-20.69c-4.25,0-6.38,2.32-6.38,6.97v19.02h.02c.2,4.24,2.34,6.36,6.42,6.36h25.5c2.08,0,3.88-.33,5.4-.98,1.52-.65,2.77-1.57,3.74-2.74.98-1.17,1.7-2.55,2.18-4.13.48-1.58.72-3.32.72-5.21,0-3.38-.82-6.15-2.47-8.29-1.65-2.14-3.97-3.48-6.96-4.03,3.12-.5,5.47-1.83,7.06-3.99ZM255.23,36.67h-13.6v-4.26h13.6c1.78,0,2.67.72,2.67,2.17s-.89,2.1-2.67,2.1Z"/><path class="cls-1" d="M321.68,46.28V7.44C321.68,2.48,319.41,0,314.85,0c-2.34,0-4.03.6-5.07,1.79-1.04,1.2-1.56,3.08-1.56,5.65v27.54c-.09,1.04-.65,1.56-1.69,1.56h-16.39c-1.13,0-1.69-.61-1.69-1.83V7.44c0-4.92-2.26-7.38-6.77-7.38s-6.7,2.46-6.7,7.38v38.84c.04,2.98,1.45,4.47,4.23,4.47h38.32c2.69,0,4.08-1.49,4.16-4.47Z"/><path class="cls-1" d="M332.36,50.75h11.65c3.64-.18,6.99-.94,10.05-2.27,3.06-1.33,5.69-3.11,7.9-5.35,2.21-2.23,3.94-4.87,5.17-7.92,1.24-3.04,1.85-6.37,1.85-9.98s-.61-6.66-1.82-9.71c-1.21-3.05-2.95-5.72-5.2-8.02-2.26-2.3-4.99-4.12-8.2-5.45-3.21-1.33-6.81-2-10.8-2h-10.6c-.87,0-1.72.2-2.57.61s-1.59.95-2.24,1.62c-.65.68-1.18,1.43-1.59,2.27-.41.84-.62,1.68-.62,2.54v36.6c0,2.21.65,3.94,1.95,5.18,1.3,1.24,2.99,1.86,5.07,1.86ZM338.8,14.28h5.2c.91,0,1.39-.02,1.43-.07,1.43.09,2.74.44,3.94,1.05,1.19.61,2.23,1.42,3.12,2.44.89,1.02,1.58,2.18,2.08,3.48.5,1.31.75,2.71.75,4.2,0,1.67-.29,3.19-.88,4.57-.59,1.38-1.38,2.56-2.37,3.55-1,.99-2.19,1.77-3.58,2.33-1.39.56-2.86.85-4.42.85h-5.27V14.28Z"/><path class="cls-1" d="M387.5,50.68h22.05c3.12,0,5.35-.58,6.67-1.73,1.32-1.15,1.98-2.88,1.98-5.18v-17.19c0-2.25-.66-3.98-1.98-5.18-1.32-1.19-2.87-1.79-4.65-1.79-1.87,0-3.46.59-4.78,1.76-1.32,1.17-1.98,2.91-1.98,5.21v9.81h-16.92c-1.34,0-2.02-.7-2.02-2.1v-18.13c.04-1.26.72-1.89,2.02-1.89h21.66c2.86,0,5.01-.58,6.44-1.73,1.43-1.15,2.15-2.94,2.15-5.38s-.72-4.23-2.15-5.38-3.58-1.73-6.44-1.73h-22.05c-10.06,0-15.09,5.46-15.09,16.37v17.86c0,10.92,5.03,16.37,15.09,16.37Z"/><path class="cls-1" d="M454.76,14.14c2.12,0,3.78-.7,4.98-2.1,1.19-1.4,1.79-3.04,1.79-4.94s-.6-3.6-1.79-4.97c-1.19-1.38-2.85-2.06-4.98-2.06h-26.87c-4.47,0-6.7,2.35-6.7,7.04v36.6c0,4.69,2.23,7.04,6.7,7.04h26.87c2.12,0,3.78-.69,4.98-2.06,1.19-1.38,1.79-3.03,1.79-4.97s-.6-3.6-1.79-4.97c-1.19-1.38-2.85-2.06-4.98-2.06h-20.17v-4.26h20.17c2.12,0,3.78-.69,4.98-2.06,1.19-1.38,1.79-3.03,1.79-4.97s-.6-3.53-1.79-4.91c-1.19-1.38-2.85-2.06-4.98-2.06h-20.17v-4.26h20.17Z"/><path class="cls-1" d="M470.68,14.14h4.75v29.57c0,2.3.66,4.04,1.98,5.21,1.32,1.17,2.9,1.76,4.72,1.76s3.4-.59,4.75-1.76c1.34-1.17,2.02-2.91,2.02-5.21V14.14h4.55c2.12,0,3.78-.7,4.98-2.1,1.19-1.4,1.79-3.04,1.79-4.94s-.6-3.6-1.79-4.97c-1.19-1.38-2.85-2.06-4.98-2.06h-22.77c-2.08,0-3.73.69-4.94,2.06-1.21,1.38-1.82,3.03-1.82,4.97s.61,3.54,1.82,4.94c1.21,1.4,2.86,2.1,4.94,2.1Z"/><path class="cls-1" d="M360.77,99.84l-14.77-36.88c-.56-1.58-1.39-2.74-2.47-3.48-1.08-.74-2.26-1.12-3.51-1.12-.91,0-1.79.17-2.64.51s-1.61.81-2.28,1.42c-.67.61-1.2,1.33-1.59,2.17-.39.84-.59,1.75-.59,2.74-.04.86.11,1.76.46,2.71l8.72,21.79h-6.57l.78-1.89c.35-.86.52-1.78.52-2.77s-.19-1.83-.59-2.64c-.39-.81-.92-1.52-1.59-2.13-.67-.61-1.44-1.08-2.31-1.42-.87-.34-1.78-.51-2.73-.51-1.26,0-2.42.37-3.48,1.12-1.06.74-1.88,1.91-2.44,3.48l-7.35,16.92c-.22.45-.35.91-.39,1.39-.04.47-.07.91-.07,1.32,0,1.04.2,1.96.62,2.77.41.81.94,1.52,1.59,2.13.65.61,1.41,1.07,2.28,1.39.87.32,1.76.47,2.67.47,1.26,0,2.42-.36,3.48-1.08,1.06-.72,1.88-1.87,2.44-3.45l1.11-2.44h17.11l.98,2.44c.61,1.53,1.37,2.67,2.28,3.42s2.06,1.12,3.45,1.12c.91,0,1.81-.16,2.7-.47.89-.31,1.68-.77,2.37-1.35.69-.59,1.25-1.3,1.66-2.13.41-.83.62-1.77.62-2.81,0-.41-.02-.83-.07-1.29-.04-.45-.17-.92-.39-1.42Z"/><path class="cls-1" d="M386.31,58.5h-18.27c-4.54,0-6.82,2.28-6.82,6.83,0,2.44.59,4.25,1.77,5.45,1.18,1.2,2.89,1.79,5.11,1.79h18.95c1.86,0,2.79.7,2.79,2.1s-.93,2.17-2.79,2.17h-17.79c-5.27,0-7.91,2.8-7.91,8.39,0,1.89,1.84,4.29,5.52,7.17l14.79,14.55c2.18,1.76,4.16,2.64,5.93,2.64.86,0,1.7-.23,2.52-.68s1.54-1.03,2.18-1.73c.64-.7,1.16-1.49,1.57-2.37.41-.88.61-1.73.61-2.54,0-.9-.23-1.84-.68-2.81-.45-.97-1.14-1.91-2.05-2.81l-6.07-5.82h1.43c10.04-.27,15.06-5.66,15.06-16.17s-5.29-16.17-15.88-16.17Z"/><path class="cls-1" d="M450.72,63.85c-.26-1.08-.65-1.97-1.17-2.67-.52-.7-1.11-1.25-1.76-1.66s-1.32-.68-2.02-.81c-.69-.13-1.35-.2-1.95-.2h-34.03c-2.86,0-4.29,1.49-4.29,4.47v39.18c0,2.3.66,4.04,1.98,5.21,1.32,1.17,2.92,1.76,4.78,1.76s3.33-.6,4.65-1.79c1.32-1.19,1.98-2.92,1.98-5.18v-29.57h3.19v29.57c0,2.3.67,4.04,2.02,5.21,1.34,1.17,2.93,1.76,4.75,1.76s3.39-.59,4.72-1.76c1.32-1.17,1.98-2.91,1.98-5.21v-29.57h3.51l8.52,31.6c.48,1.71,1.27,3,2.37,3.86,1.11.86,2.35,1.29,3.74,1.29.95,0,1.86-.16,2.73-.47.87-.31,1.63-.77,2.28-1.35.65-.59,1.17-1.29,1.56-2.1.39-.81.59-1.74.59-2.77,0-.81-.09-1.51-.26-2.1l-9.89-36.67Z"/><path class="cls-1" d="M489.83,76.84h-11.94c-1.98,0-2.97-.72-2.97-2.17s.99-2.1,2.97-2.1h16.96c2.26,0,4-.59,5.23-1.76,1.22-1.17,1.84-2.93,1.84-5.28s-.55-4.1-1.66-5.28c-1.11-1.17-2.89-1.76-5.34-1.76h-16.04c-11.12,0-16.68,5.39-16.68,16.17s5.18,15.9,15.55,16.17h12.01c1.93,0,2.9.72,2.9,2.17s-.97,2.1-2.9,2.1h-19.64c-2.26,0-4.02.59-5.26,1.76-1.25,1.17-1.87,2.93-1.87,5.28s.56,4.11,1.7,5.28c1.13,1.17,2.9,1.76,5.3,1.76h18.94c10.98,0,16.46-5.39,16.46-16.17s-5.18-15.9-15.55-16.17Z"/><polygon class="cls-1" points="107.86 144.46 104.77 151.3 285.71 151.3 288.81 144.46 107.86 144.46"/><polygon class="cls-1" points="196.98 166.25 193.47 174 275.43 174 278.94 166.25 196.98 166.25"/><path class="cls-1" d="M102.93,155.35l-3.3,7.29h82.99l2.98-6.58h7.84c1.34,0,2.39.51,2.92,1.43l1.75,3.01c.35.6.45,1.34.32,2.14h82.15l3.3-7.29H102.93Z"/><polygon class="cls-1" points="97.99 166.25 94.48 174 177.47 174 180.98 166.25 97.99 166.25"/><polygon class="cls-1" points="112.8 133.56 109.91 139.95 290.85 139.95 293.75 133.56 112.8 133.56"/><path class="cls-1" d="M148.83,71.85h164.79c-1.08-1.49-2.51-2.74-4.25-3.68h-152.95c-2.59.94-5.15,2.18-7.58,3.68Z"/><path class="cls-1" d="M136.4,83.2h179.36c.26-1.44.35-2.82.29-4.13h-176.19c-1.25,1.31-2.41,2.69-3.46,4.13Z"/><polygon class="cls-1" points="172.33 185.35 176.05 177.15 93.06 177.15 89.34 185.35 172.33 185.35"/><polygon class="cls-1" points="274 177.15 192.04 177.15 188.33 185.35 270.29 185.35 274 177.15"/><polygon class="cls-1" points="203.18 117.25 205.66 111.76 122.67 111.76 120.19 117.25 203.18 117.25"/><polygon class="cls-1" points="226.6 100.86 224.32 105.9 306.27 105.9 308.55 100.86 226.6 100.86"/><path class="cls-1" d="M88.12,188.05l-3.06,6.75c-1.06,2.33.04,4.22,2.45,4.22h74.26c2.41,0,5.22-1.89,6.28-4.22l3.06-6.75h-82.99Z"/><path class="cls-1" d="M187.11,188.05l-3.06,6.75c-1.06,2.33.04,4.22,2.45,4.22h73.23c2.41,0,5.22-1.89,6.28-4.22l3.06-6.75h-81.96Z"/><path class="cls-1" d="M132.55,89.96l-2.08,4.58h85.31c2.09-1.41,4.49-2.29,6.71-2.29h0c2.22,0,3.83.88,4.64,2.29h84.28l2.08-4.58h-180.94Z"/><polygon class="cls-1" points="127.61 100.86 125.33 105.9 208.32 105.9 210.6 100.86 127.61 100.86"/><polygon class="cls-1" points="198.04 128.6 200.73 122.66 117.74 122.66 115.05 128.6 198.04 128.6"/><polygon class="cls-1" points="221.66 111.76 219.18 117.25 301.13 117.25 303.62 111.76 221.66 111.76"/><polygon class="cls-1" points="216.72 122.66 214.03 128.6 295.99 128.6 298.68 122.66 216.72 122.66"/><polygon class="cls-1" points="114.2 49.15 116.65 43.66 37.68 43.66 35.23 49.15 114.2 49.15"/><polygon class="cls-1" points="42.54 32.76 40.29 37.8 119.27 37.8 121.51 32.76 42.54 32.76"/><polygon class="cls-1" points="109.14 60.5 111.79 54.56 32.81 54.56 30.16 60.5 109.14 60.5"/><polygon class="cls-1" points="104.07 71.85 106.92 65.46 27.95 65.46 25.1 71.85 104.07 71.85"/><path class="cls-1" d="M103.34,98.15c-2.01,2.28-4.19,3.95-6.32,4.35-.82.15-1.61.23-2.41.23h-4.32l2.05-4.58H13.36l-3.46,7.75h173.71l3.46-7.75h-83.73Z"/><path class="cls-1" d="M55.92,2.79l-.43.96h165.16c-1.23-1.55-2.85-2.79-4.82-3.68H58.14c-.96.74-1.76,1.68-2.23,2.72Z"/><polygon class="cls-1" points="99.01 83.2 102.06 76.36 23.08 76.36 20.03 83.2 99.01 83.2"/><path class="cls-1" d="M50.42,15.1h172.78c.22-1.44.27-2.82.17-4.13H52.27l-1.84,4.13Z"/><path class="cls-1" d="M8.49,109.05l-3.66,8.2h171.95c2.2-2.54,4.04-5.3,5.41-8.2H8.49Z"/><path class="cls-1" d="M3.63,119.95l-3.23,7.25c-1.04,2.33.04,4.22,2.41,4.22h146.08c8.64,0,18.23-4.62,25.32-11.47H3.63Z"/><polygon class="cls-1" points="117.32 54.56 114.67 60.5 200.02 60.5 206.43 54.56 117.32 54.56"/><path class="cls-1" d="M129.13,43.66c-1.12,2.21-2.42,4.16-3.72,5.49h83.52l2.45-5.49h-82.25Z"/><path class="cls-1" d="M132.38,32.76c-.07,1.53-.4,3.26-.92,5.03h82.54l2.25-5.03h-83.87Z"/><polygon class="cls-1" points="47.4 21.86 45.36 26.45 219.07 26.45 221.11 21.86 47.4 21.86"/><polygon class="cls-1" points="93.94 94.55 97.2 87.25 18.22 87.25 14.97 94.55 93.94 94.55"/><path class="cls-1" d="M109.89,87.25c-.94,2.35-2.27,4.93-3.83,7.29h82.61l3.25-7.29h-82.04Z"/><polygon class="cls-1" points="112.45 65.46 109.6 71.85 196.45 71.85 195.26 65.46 112.45 65.46"/><path class="cls-1" d="M108.2,76.36l3.07,3.98c.2.67.15,1.66-.1,2.87h82.57l3.05-6.84h-88.6Z"/><path class="cls-1" d="M516.6,0c-5.93,0-10.74,4.81-10.74,10.74s4.81,10.74,10.74,10.74,10.74-4.81,10.74-10.74-4.81-10.74-10.74-10.74ZM515.05,7.34h-2.56v7.77h-1.1v-7.77h-2.55v-.96h6.21v.96ZM523.29,15.1l-.2-3.83c-.06-1.22-.14-2.69-.14-3.77h-.02c-.3,1.01-.63,2.11-1.06,3.31l-1.48,4.23h-.82l-1.37-4.16c-.4-1.24-.72-2.36-.96-3.39h-.02c-.02,1.09-.09,2.54-.16,3.86l-.22,3.74h-1.03l.59-8.73h1.38l1.43,4.22c.35,1.07.62,2.03.85,2.94h.02c.22-.88.52-1.84.9-2.94l1.49-4.22h1.38l.52,8.73h-1.07Z"/></g></svg>