<?xml version="1.0" encoding="UTF-8"?><svg id="Layer_2" xmlns="http://www.w3.org/2000/svg" viewBox="0 0 428.66 163.31"><defs><style>.cls-1{fill:#fff;stroke-width:0px;}</style></defs><g id="Layer_1-2"><path class="cls-1" d="M255.35.06c-1.77-.34-3.48.82-3.81,2.59l-1.8,9.4-1.41-9.24C248.1,1.2,246.72,0,245.1,0h-3.05c-1.8,0-2.94,1.02-2.94,2.58s1.24,2.57,3.04,2.57h0l3.92,28.14c.22,1.58,1.55,2.77,3.15,2.81.03,0,.06,0,.09,0,1.56,0,2.91-1.11,3.2-2.65l5.44-29.59c.34-1.77-.82-3.48-2.59-3.81Z"/><path class="cls-1" d="M122.51,29.59h-3.96V3.26C118.55,1.46,117.09,0,115.29,0s-3.26,1.46-3.26,3.26v29.59c0,1.8,1.46,3.26,3.26,3.26h7.22c1.8,0,3.26-1.46,3.26-3.26s-1.46-3.26-3.26-3.26Z"/><path class="cls-1" d="M280.22,0h-6.03c-2.59,0-4.69,2.1-4.69,4.69v26.73c0,2.59,2.1,4.69,4.69,4.69h6.03c2.59,0,4.69-2.1,4.69-4.69V4.69C284.91,2.1,282.8,0,280.22,0ZM278.39,29.59h-2.38V6.52h2.38v23.07Z"/><path class="cls-1" d="M95.85,0h-6.03c-2.59,0-4.69,2.1-4.69,4.69v26.73c0,2.59,2.1,4.69,4.69,4.69h6.03c2.59,0,4.69-2.1,4.69-4.69V4.69C100.54,2.1,98.44,0,95.85,0ZM94.02,29.59h-2.38V6.52h2.38v23.07Z"/><path class="cls-1" d="M68.87,0h-9.71c-1.48,0-2.67,1.2-2.67,2.67,0,1.14.72,2.11,1.73,2.49v27.68c0,1.8,1.46,3.26,3.26,3.26s3.26-1.46,3.26-3.26v-5.23h4.13c2.63,0,4.77-2.14,4.77-4.77V4.77C73.63,2.14,71.5,0,68.87,0ZM67.11,21.1h-2.38V6.52h2.38v14.58Z"/><path class="cls-1" d="M309.04,0h-9.46c-1.48,0-3.18.61-3.18,2.67,0,1.67,1.34,2.54,2.2,2.82v25.65c0,2.74,2.23,4.97,4.97,4.97h5.48c2.74,0,4.97-2.23,4.97-4.97V4.97C314.01,2.23,311.78,0,309.04,0ZM307.49,29.59h-2.38V6.52h2.38v23.07Z"/><path class="cls-1" d="M335.05,13.37l6.64-8.03c1.15-1.39.95-3.44-.44-4.59-1.38-1.15-3.44-.95-4.59.44l-4.64,5.62v-3.54c0-1.8-1.46-3.26-3.26-3.26s-3.26,1.46-3.26,3.26v29.59c0,1.8,1.46,3.26,3.26,3.26s3.26-1.46,3.26-3.26v-9.65l4.14,10.88c.52,1.26,1.73,2.03,3.02,2.03.41,0,.83-.08,1.23-.24,1.67-.68,2.47-2.58,1.79-4.25l-7.14-18.25Z"/><path class="cls-1" d="M369.49,2.96c-.15-1.68-1.56-2.96-3.25-2.96h-8.65c-1.48,0-2.67,1.2-2.67,2.67,0,1.25.86,2.29,2.02,2.58l-3,27.24c-.2,1.79,1.09,3.4,2.88,3.6.12.01.24.02.36.02,1.64,0,3.05-1.23,3.24-2.9l.16-1.14h4.98l.15,1.08c.16,1.79,1.75,3.13,3.54,2.95,1.79-.16,3.11-1.75,2.95-3.54l-2.72-29.59ZM361.48,25.54l1.59-11.58,1.59,11.58h-3.19Z"/><path class="cls-1" d="M166.1,16.03c-.08-.1-.17-.17-.25-.26l-3.14-3.96c-.91-1.1-1.21-3.34-.61-4.61.24-.51.52-.68,1.13-.68.68,0,.85.18.9.25.45.5.58,1.88.5,2.65-.2,1.78,1.07,3.39,2.85,3.61,1.78.22,3.41-1.05,3.63-2.84.06-.48.5-4.81-2.09-7.74C168.02,1.33,166.22,0,163.23,0c-3.15,0-5.72,1.62-7.04,4.43-1.67,3.55-1.02,8.52,1.46,11.49l3.3,4.16c.07.08.15.15.22.22l3.17,4c.91,1.1,1.21,3.34.61,4.61-.24.51-.52.68-1.13.68-.68,0-.85-.19-.9-.25-.45-.5-.58-1.88-.5-2.65.2-1.78-1.07-3.39-2.85-3.61-1.78-.22-3.41,1.05-3.63,2.84-.06.48-.5,4.81,2.09,7.74.99,1.12,2.8,2.45,5.79,2.45,3.15,0,5.72-1.62,7.04-4.43,1.67-3.55,1.02-8.52-1.46-11.49l-3.3-4.16Z"/><path class="cls-1" d="M140.52,0c-1.8,0-3.26,1.46-3.26,3.26v29.59c0,1.8,1.46,3.26,3.26,3.26s3.26-1.46,3.26-3.26V3.26C143.78,1.46,142.32,0,140.52,0Z"/><path class="cls-1" d="M196.44,0c-1.8,0-3.26,1.46-3.26,3.26v7.68h-3.39V3.26C189.79,1.46,188.33,0,186.53,0s-3.26,1.46-3.26,3.26v29.59c0,1.8,1.46,3.26,3.26,3.26s3.26-1.46,3.26-3.26v-15.39h3.39v15.39c0,1.8,1.46,3.26,3.26,3.26s3.26-1.46,3.26-3.26V3.26C199.7,1.46,198.24,0,196.44,0Z"/><polygon class="cls-1" points="137.44 104.04 136.61 100.27 147.74 49.86 145.34 49.86 135.41 94.84 125.48 49.86 109.04 49.86 109.04 61.64 109.04 61.64 109.04 151.81 111.38 151.81 111.38 151.81 111.38 151.81 111.38 61.63 112.96 61.63 112.96 151.81 127.1 151.81 127.1 103.75 137.44 144.18 143.79 119.34 143.79 151.81 146.13 151.81 146.13 110.19 147.78 103.75 147.78 151.81 165.83 151.81 165.83 49.86 149.37 49.86 137.44 104.04"/><polygon class="cls-1" points="180.91 151.81 216.59 151.81 216.59 134.77 197.95 134.77 197.95 118.5 214.4 118.5 214.4 101.46 197.95 101.46 197.95 85.18 216.59 85.18 216.59 85.18 216.59 68.14 180.91 68.14 180.91 151.81"/><polygon class="cls-1" points="244.77 49.86 227.74 49.86 227.74 61.64 227.73 61.64 227.73 151.81 230.07 151.81 230.07 151.81 230.08 151.81 230.08 61.63 231.65 61.63 231.65 151.81 264.86 151.81 264.86 134.77 244.77 134.77 244.77 49.86"/><path class="cls-1" d="M275.3,49.86v11.77h6.08l-.19,1.7-9.9,88.47h2.16l10.3-90.17h1.59l-10.3,90.17h13.54l.65-8.58h6.24l1.41,20.08,2.26-1.26-1.32-18.83h1.8l1.32,17.82,16.58-9.24-11.37-101.94h-30.86ZM290.36,128.04l2.03-28.88,2.02,28.88h-4.05ZM296.76,128.04l-3.2-45.66.28-4.04v-.08h1.17l3.48,49.78h-1.74Z"/><polygon class="cls-1" points="373.5 49.86 356.47 49.86 356.47 98.5 354.84 93.47 354.84 49.86 352.49 49.86 352.49 86.24 340.71 49.86 326.9 49.86 326.9 151.81 329.24 151.81 329.24 61.63 330.83 61.63 330.83 151.81 343.94 151.81 343.94 114.47 356.03 151.81 358.49 151.81 343.94 106.87 343.94 101.71 359.96 151.81 373.5 151.81 373.5 134.77 373.51 134.77 373.51 49.86 373.5 49.86 373.5 49.86"/><polygon class="cls-1" points="428.66 24.73 380.39 24.73 380.39 41.77 380.39 41.77 391.97 41.77 391.97 151.81 394.31 151.81 394.31 41.77 395.93 41.77 395.93 151.81 412.97 151.81 412.97 41.77 428.66 41.77 428.66 41.77 428.66 24.73 428.66 24.73"/><path class="cls-1" d="M80.35,61.64h0v75.59h0v.02h-4.67c-1.4,0-2.5-.72-3.29-2.15-.14-.24-.19-.52-.19-.79V49.86h-17.05v84.61c0,2.53.49,4.91,1.46,7.14.97,2.23,2.29,4.18,3.93,5.82s3.59,2.97,5.82,3.93,4.61,1.46,7.14,1.46h6.84v7.44l2.34-1.02v-6.39h1.59v5.7l13.1-5.73V49.86h-17.03v11.77ZM84.28,61.63v75.6h-1.59s0,0,0,0V61.64h0s1.59,0,1.59,0Z"/><rect class="cls-1" x="176.98" y="68.14" width="2.34" height="83.67"/><rect class="cls-1" x="176.98" y="49.86" width="39.61" height="11.77"/><path class="cls-1" d="M40.3,30.12c-1.65-1.66-3.59-2.97-5.82-3.93-2.23-.98-4.61-1.46-7.13-1.46H0v127.07h2.34V40.31h1.58v111.49h23.47c2.5,0,4.87-.48,7.09-1.46,2.23-.97,4.18-2.27,5.82-3.93,1.66-1.65,2.97-3.59,3.93-5.82.98-2.23,1.46-4.61,1.46-7.14v-46.68c0-2.23-.34-4.27-1.02-6.12-.68-1.84-1.69-3.44-3.05-4.8s-3.12-2.42-5.25-3.21c2.04-.97,3.8-2.23,5.25-3.78,2.71-3.01,4.07-6.75,4.07-11.21v-14.57c0-2.52-.48-4.9-1.46-7.13-.97-2.23-2.27-4.18-3.93-5.82ZM25.01,133.63c0,.83-.3,1.47-.97,2.03-.19.17-.42.33-.71.49-.08.04-.19.06-.29.07h-6v-55.28h6.02c.1,0,.2.02.28.06.26.14.49.3.73.52.64.54.95,1.19.95,2v50.1ZM25.01,62.32c0,.88-.32,1.56-1.03,2.16-.2.18-.44.35-.76.52-.08.04-.19.06-.3.07h-5.89v-24.76h5.93c.09,0,.18.02.23.05.34.2.58.37.8.56.69.59,1.01,1.27,1.01,2.14v19.26ZM28.65,132.73c0,1.09-.42,1.99-1.27,2.69-.26.23-.54.42-.88.61-.06.03-.12.05-.18.07.47-.72.73-1.54.73-2.47v-50.1c0-.92-.27-1.75-.74-2.47.07.03.14.04.2.08.33.18.61.38.87.61.84.71,1.27,1.61,1.27,2.68v48.3ZM28.65,61.58c0,1.09-.42,1.99-1.27,2.69-.26.23-.54.42-.88.61-.08.04-.18.07-.27.1.53-.77.82-1.65.82-2.66v-19.26c0-1.01-.29-1.9-.83-2.68.1.03.2.06.3.12.33.19.61.38.87.61.84.72,1.27,1.62,1.27,2.69v17.77Z"/></g></svg>