<?xml version="1.0" encoding="UTF-8"?><svg id="Layer_2" xmlns="http://www.w3.org/2000/svg" viewBox="0 0 548.67 111.14"><defs><style>.cls-1{fill:#fff;}</style></defs><g id="Layer_1-2"><path class="cls-1" d="M80.84,16.26v16.5c0,2.34-.39,4.33-1.17,5.97,3.04,3.2,4.56,6.9,4.56,11.11v18.13c0,4.52-1.6,8.36-4.8,11.52-3.2,3.16-7.06,4.74-11.58,4.74H0V0h64.58c4.45,0,8.27,1.58,11.47,4.74,3.2,3.16,4.8,7,4.8,11.52ZM64.58,15.44H16.26c-.55,0-.82.27-.82.82v16.5c0,.55.27.82.82.82h48.32c.47,0,.7-.27.7-.82v-16.5c0-.54-.23-.82-.7-.82ZM68.67,67.97v-18.13c0-.47-.27-.7-.82-.7H16.26c-.55,0-.82.23-.82.7v18.13c0,.55.27.82.82.82h51.59c.54,0,.82-.27.82-.82Z"/><path class="cls-1" d="M150.21,16.38h15.33v51.71c0,4.45-1.58,8.25-4.74,11.41-3.16,3.16-6.96,4.74-11.41,4.74h-36.62c-4.52,0-8.35-1.58-11.47-4.74-3.12-3.16-4.68-6.96-4.68-11.41V16.38h15.33v51.71c0,.55.27.82.82.82h36.62c.54,0,.82-.27.82-.82V16.38Z"/><path class="cls-1" d="M193.96,16.38h37.67v15.33h-37.67c-.55,0-.82.27-.82.82v51.71h-15.33v-51.71c0-4.45,1.58-8.25,4.74-11.41s6.96-4.74,11.41-4.74Z"/><path class="cls-1" d="M307.32,94.99c0,4.45-1.56,8.25-4.68,11.41-3.12,3.16-6.9,4.74-11.35,4.74h-41.53v-15.44h41.53c.47,0,.7-.23.7-.7v-10.76h-37.44c-4.45,0-8.25-1.58-11.41-4.74-3.16-3.16-4.74-6.96-4.74-11.41V16.61h15.33v51.47c0,.55.27.82.82.82h36.73c.47,0,.7-.27.7-.82V16.61h15.33v78.38Z"/><path class="cls-1" d="M404.42,16.26v6.55h-15.56v-6.55c0-.54-.27-.82-.82-.82h-51.59c-.55,0-.82.27-.82.82v51.71c0,.55.27.82.82.82h51.59c.55,0,.82-.27.82-.82v-15.91h-19.07v-15.44h34.63v31.35c0,4.52-1.6,8.36-4.8,11.52-3.2,3.16-7.06,4.74-11.58,4.74h-51.59c-4.52,0-8.36-1.58-11.52-4.74-3.16-3.16-4.74-7-4.74-11.52V16.26c0-4.52,1.58-8.36,4.74-11.52,3.16-3.16,7-4.74,11.52-4.74h51.59c4.52,0,8.38,1.58,11.58,4.74,3.2,3.16,4.8,7,4.8,11.52Z"/><path class="cls-1" d="M469.47,16.38c4.45,0,8.25,1.58,11.41,4.74,3.16,3.16,4.74,6.96,4.74,11.41v25.5h-53.58v10.06c0,.55.27.82.82.82h52.76v15.33h-52.76c-4.45,0-8.25-1.58-11.41-4.74-3.16-3.16-4.74-6.96-4.74-11.41v-35.56c0-4.45,1.58-8.25,4.74-11.41,3.16-3.16,6.96-4.74,11.41-4.74h36.62ZM432.03,42.58h38.25v-10.06c0-.54-.27-.82-.82-.82h-36.62c-.55,0-.82.27-.82.82v10.06Z"/><path class="cls-1" d="M511,16.38h37.67v15.33h-37.67c-.55,0-.82.27-.82.82v51.71h-15.33v-51.71c0-4.45,1.58-8.25,4.74-11.41,3.16-3.16,6.96-4.74,11.41-4.74Z"/></g></svg>