<?xml version="1.0" encoding="UTF-8"?><svg id="Layer_2" xmlns="http://www.w3.org/2000/svg" viewBox="0 0 316.47 223.43"><defs><style>.cls-1{fill:#fff;}</style></defs><g id="Layer_1-2"><path class="cls-1" d="M243.37,109.57l-36.25-9.14s-5.74,28.27-26.29,40.99c-5.82,3.4-12.29,5.53-19.14,5.98-.28.02-.57.04-.85.05-.1,0-.2,0-.31,0-.51.02-1.02.03-1.54.03h0c-27.16.01-45.19-25.93-45.19-55.41s18.03-55.43,45.19-55.43c7.94,0,15.43,2.28,22.07,6.21,20.37,12.78,26.06,40.84,26.06,40.84l36.25-9.14c-.56-2.56-1.17-5.02-1.84-7.41-1.34-5.13-3.09-10.09-5.2-14.82-11.74-27.15-31.04-40.24-47.44-46.53-7.77-3.11-16.08-5.05-24.73-5.62-3.36-.25-5.34-.18-5.34-.18C111.37.01,72.91,41.23,72.91,92.07s38.46,92.06,85.91,92.06c.11,0,.22,0,.33,0,.61,0,2.06.01,4.18-.13,9.09-.5,17.8-2.52,25.92-5.82,16.29-6.33,35.35-19.38,47.01-46.22,2.16-4.81,3.94-9.86,5.3-15.09.65-2.35,1.26-4.79,1.81-7.31Z"/><path class="cls-1" d="M13.62,223.43c-1.97,0-3.78-.36-5.43-1.09-1.66-.72-3.09-1.71-4.31-2.97-1.22-1.25-2.17-2.74-2.85-4.44-.69-1.71-1.03-3.53-1.03-5.47v-.08c0-1.91.34-3.72,1.03-5.43.68-1.71,1.64-3.2,2.85-4.48,1.22-1.28,2.66-2.29,4.34-3.03,1.68-.74,3.52-1.11,5.51-1.11,1.24,0,2.36.1,3.36.31,1,.21,1.92.5,2.77.87.85.38,1.64.83,2.37,1.36.72.53,1.42,1.12,2.09,1.77l-2.09,2.25c-1.16-1.09-2.41-1.98-3.74-2.68-1.33-.7-2.93-1.05-4.79-1.05-1.5,0-2.89.29-4.17.85-1.28.57-2.39,1.36-3.34,2.37-.94,1.01-1.68,2.19-2.21,3.55-.53,1.36-.8,2.81-.8,4.36v.08c0,1.58.26,3.05.8,4.4.53,1.36,1.27,2.54,2.21,3.55.94,1.01,2.06,1.8,3.34,2.39s2.67.87,4.17.87c1.86,0,3.47-.34,4.81-1.03,1.34-.68,2.66-1.65,3.96-2.89l2.02,1.98c-.7.72-1.43,1.38-2.19,1.96-.76.58-1.58,1.08-2.46,1.49-.88.41-1.82.74-2.83.97-1.01.23-2.13.35-3.37.35Z"/><path class="cls-1" d="M42.79,195.62h2.87l12.38,27.35h-3.3l-3.18-7.18h-14.78l-3.22,7.18h-3.14l12.38-27.35ZM50.35,213l-6.17-13.81-6.21,13.81h12.38Z"/><path class="cls-1" d="M66.3,195.81h3.06v24.32h15.28v2.83h-18.35v-27.16Z"/><path class="cls-1" d="M93.49,195.81h3.06v27.16h-3.06v-27.16Z"/><path class="cls-1" d="M121.96,195.81h19.63v2.79h-16.56v9.27h14.82v2.79h-14.82v9.5h16.76v2.79h-19.82v-27.16Z"/><path class="cls-1" d="M172.98,195.81l-10.01,13.31,10.4,13.85h-3.65l-8.69-11.72-8.69,11.72h-3.53l10.4-13.85-10.01-13.31h3.61l8.3,11.17,8.3-11.17h3.57Z"/><path class="cls-1" d="M181.9,195.81h10.14c1.52,0,2.91.2,4.16.6,1.25.4,2.32.97,3.21,1.71s1.57,1.64,2.05,2.7c.48,1.06.72,2.26.72,3.61v.08c0,1.47-.28,2.76-.85,3.86-.57,1.1-1.34,2.02-2.3,2.77-.97.75-2.1,1.31-3.39,1.69-1.29.38-2.66.56-4.1.56h-6.58v9.58h-3.06v-27.16ZM191.68,210.59c1.11,0,2.13-.14,3.04-.43.92-.28,1.71-.69,2.37-1.22.66-.53,1.16-1.16,1.51-1.88.35-.72.52-1.54.52-2.44v-.08c0-1.94-.67-3.41-2-4.4-1.33-.99-3.1-1.49-5.29-1.49h-6.87v11.95h6.71Z"/><path class="cls-1" d="M210.72,195.81h11.66c1.68,0,3.17.24,4.47.72,1.3.48,2.38,1.14,3.23,2,.67.67,1.19,1.46,1.55,2.37.36.91.54,1.9.54,2.99v.08c0,1.14-.18,2.15-.54,3.05-.36.89-.87,1.67-1.53,2.33-.66.66-1.44,1.2-2.34,1.63-.9.43-1.88.73-2.94.91l8.34,11.1h-3.76l-7.87-10.55h-7.74v10.55h-3.06v-27.16ZM222.13,209.66c1.01,0,1.94-.13,2.79-.39.85-.26,1.59-.63,2.21-1.11s1.11-1.06,1.45-1.75c.35-.68.52-1.47.52-2.35v-.08c0-1.68-.61-2.99-1.82-3.94-1.22-.94-2.92-1.42-5.12-1.42h-8.38v11.02h8.34Z"/><path class="cls-1" d="M241.68,195.81h19.63v2.79h-16.56v9.27h14.82v2.79h-14.82v9.5h16.76v2.79h-19.82v-27.16Z"/><path class="cls-1" d="M279.89,223.36c-2.17,0-4.16-.36-5.95-1.07-1.8-.71-3.51-1.8-5.14-3.28l1.9-2.25c1.42,1.29,2.86,2.26,4.31,2.89s3.12.95,5,.95,3.3-.43,4.4-1.3c1.1-.87,1.65-1.97,1.65-3.32v-.08c0-.62-.1-1.18-.31-1.69-.21-.5-.57-.96-1.09-1.38-.52-.41-1.24-.79-2.15-1.12-.92-.34-2.09-.66-3.51-.97-1.55-.34-2.9-.72-4.05-1.16-1.15-.44-2.1-.97-2.85-1.59-.75-.62-1.31-1.34-1.67-2.17-.36-.83-.54-1.8-.54-2.91v-.08c0-1.06.22-2.04.66-2.95s1.06-1.69,1.86-2.35,1.75-1.18,2.83-1.55c1.09-.37,2.28-.56,3.57-.56,1.99,0,3.73.28,5.22.83,1.49.56,2.93,1.39,4.33,2.5l-1.78,2.37c-1.27-1.03-2.54-1.78-3.82-2.25-1.28-.47-2.62-.7-4.01-.7-1.78,0-3.19.42-4.23,1.26-1.03.84-1.55,1.88-1.55,3.12v.08c0,.65.1,1.22.31,1.73.21.5.58.97,1.12,1.4.54.43,1.29.81,2.25,1.16s2.18.68,3.68.99c3.02.67,5.24,1.6,6.68,2.79,1.43,1.19,2.15,2.82,2.15,4.89v.08c0,1.16-.23,2.22-.69,3.16-.46.94-1.09,1.75-1.9,2.42s-1.78,1.19-2.92,1.55c-1.14.36-2.38.54-3.72.54Z"/><path class="cls-1" d="M307.24,223.36c-2.17,0-4.16-.36-5.95-1.07-1.8-.71-3.51-1.8-5.14-3.28l1.9-2.25c1.42,1.29,2.86,2.26,4.31,2.89s3.12.95,5,.95,3.3-.43,4.4-1.3c1.1-.87,1.65-1.97,1.65-3.32v-.08c0-.62-.1-1.18-.31-1.69-.21-.5-.57-.96-1.09-1.38-.52-.41-1.24-.79-2.15-1.12-.92-.34-2.09-.66-3.51-.97-1.55-.34-2.9-.72-4.05-1.16-1.15-.44-2.1-.97-2.85-1.59-.75-.62-1.31-1.34-1.67-2.17-.36-.83-.54-1.8-.54-2.91v-.08c0-1.06.22-2.04.66-2.95s1.06-1.69,1.86-2.35,1.75-1.18,2.83-1.55c1.09-.37,2.28-.56,3.57-.56,1.99,0,3.73.28,5.22.83,1.49.56,2.93,1.39,4.33,2.5l-1.78,2.37c-1.27-1.03-2.54-1.78-3.82-2.25-1.28-.47-2.62-.7-4.01-.7-1.78,0-3.19.42-4.23,1.26-1.03.84-1.55,1.88-1.55,3.12v.08c0,.65.1,1.22.31,1.73.21.5.58.97,1.12,1.4.54.43,1.29.81,2.25,1.16s2.18.68,3.68.99c3.02.67,5.24,1.6,6.68,2.79,1.43,1.19,2.15,2.82,2.15,4.89v.08c0,1.16-.23,2.22-.69,3.16-.46.94-1.09,1.75-1.9,2.42s-1.78,1.19-2.92,1.55c-1.14.36-2.38.54-3.72.54Z"/></g></svg>