<?xml version="1.0" encoding="UTF-8"?><svg id="Layer_2" xmlns="http://www.w3.org/2000/svg" viewBox="0 0 402 141.81"><defs><style>.cls-1{fill:#fff;stroke-width:0px;}</style></defs><g id="Layer_1-2"><path class="cls-1" d="M188.14,14.97c0,.16.69.23,2.06.23,1.65,0,2.48-.85,2.48-2.56,0-1.82-.86-2.73-2.59-2.73-1.22,0-1.86.07-1.92.21-.05.1-.08,1-.08,2.7,0,.24,0,.6.03,1.07.02.47.03.83.03,1.07Z"/><path class="cls-1" d="M174.48,11.65c-.16.34-.43,1.09-.81,2.24-.41,1.22-.62,1.93-.62,2.14,0,.14.23.22.69.23.24.02.62.02,1.17.02.5,0,.78-.06.83-.19.02-.04.02-.09.02-.16,0-.26-.18-.97-.53-2.13-.34-1.12-.59-1.84-.75-2.15Z"/><path class="cls-1" d="M77.02,75.17c4.5-.02,6.76-.03,11.27-.05-1.89-11.15-3.76-22.29-5.61-33.45-1.9,11.16-3.79,22.33-5.66,33.5Z"/><path class="cls-1" d="M224.02,11.65c-.16.34-.43,1.09-.81,2.24-.41,1.22-.62,1.93-.62,2.14,0,.14.23.22.69.23.24.02.62.02,1.17.02.5,0,.78-.06.83-.19.02-.04.02-.09.02-.16,0-.26-.17-.97-.53-2.13-.34-1.12-.59-1.84-.75-2.15Z"/><path class="cls-1" d="M402,60.23V4.45l-11.8,2.15c-13.35,2.44-26.95,4.64-40.43,6.56l-2.77.39-.62.08c-18.15,2.41-36.6,4.48-54.84,6.15l-.66.06-2.77.23c-7.71.63-11.49.91-19.22,1.41l-9.36.6-4.38.21c.86-1.86,1.35-3.91,1.35-6.08v-1.57c0-8.05-6.59-14.64-14.64-14.64h-81.71c-8.05,0-14.64,6.59-14.64,14.64v1.57c0,2.18.5,4.24,1.36,6.1l-9.36-.56c-8.91-.54-13.25-.84-22.11-1.56l-10.81-.88-2.14-.23-7.43-.75c-9.02-.91-13.44-1.4-22.5-2.51l-9.34-1.14s-18.6-2.63-25.93-3.78c-3.41-.54-5.12-.81-8.53-1.38-1.3-.22-2.61-.33-3.88-.33-4.8,0-11.75,1.56-17.64,9C2.42,24.25,0,31.94,0,41.06v64.14c0,9.07,2.42,16.73,7.19,22.76,5.93,7.5,12.89,9.07,17.69,9.07,1.26,0,2.54-.11,3.83-.32,3.41-.56,5.11-.84,8.52-1.38,2.06-.32,7.07-1.15,7.07-1.15l11.38-1.58c7.8-1.08,11.61-1.57,19.41-2.51l8.63-1.03,8.59-.89c7.88-.81,11.73-1.17,19.6-1.84l2.87-.24.56-.04c13.95-1.06,28.12-1.92,42.11-2.57l.74-.03,2.7-.1c8.66-.33,12.9-.44,21.61-.6l1.62-.03,1.88-.03c4.98-.07,10.04-.11,15.02-.11,8.63,0,17.39.11,26.01.32l1.91.05,1.58.04c7.83.22,11.65.36,19.48.72l8.35.39,8.43.52c8.54.53,12.71.83,21.23,1.53l10.82.89,1.84.19,8.98.93c7.5.77,11.17,1.19,18.7,2.1l11.2,1.36,1.66.25,8.59,1.22c13.48,1.92,27.08,4.12,40.43,6.56l11.8,2.15v-55.79l-6.83-.49v-24.82l6.83-.49ZM52.83,52.58c-5.5-.32-8.25-.49-13.74-.83v-7.93c0-1.22-.32-2.35-.98-3.28-.65-.92-1.46-1.36-2.42-1.54-3.47-.41-3.13-.53-6.57-.91-.93-.1-2.58.26-3.22,1.08-.66.83-.78,1.96-.78,3.23v61.42c0,1.28.12,2.4.78,3.23.65.82,2.29,1.18,3.22,1.08,3.44-.37,3.28-.37,6.57-.91,1.03-.17,1.77-.62,2.42-1.54.66-.93.98-2.06.98-3.28v-7.93c5.49-.35,8.24-.52,13.74-.83v7.62c0,5.95-1.67,11.17-5.01,15.86-3.38,4.74-7.42,7.57-12.13,8.31-3.45.54-5.17.82-8.61,1.39-4.71.78-8.71-.88-12.04-5.09-3.32-4.19-5.03-9.79-5.03-16.56V41.06c0-6.77,1.68-12.39,5.03-16.63,3.32-4.2,7.33-5.79,12.04-5.01,3.44.57,5.16.85,8.61,1.39,4.71.74,8.79,3.55,12.13,8.24,3.35,4.7,5.01,9.98,5.01,15.93v7.62ZM91.28,118.23c0-6.28,0-9.42,0-15.69.7-.05,1.05-.07,1.74-.12-.81-4.62-1.22-6.95-2.03-11.61-6.67.27-10.01.42-16.67.73-.81,4.93-1.21,7.41-2.02,12.39.64-.05.96-.08,1.6-.13v16.37c-7.85.94-11.77,1.45-19.59,2.53,0-6.9,0-10.35,0-17.25,1.13-.1,1.69-.15,2.81-.25,4.58-26.5,9.3-52.98,14.18-79.43,9.07,1.11,13.62,1.62,22.71,2.53,4.65,24.42,9.42,48.81,14.31,73.18,1.1-.06,1.65-.09,2.75-.15,0,6.02,0,9.03,0,15.05-7.92.67-11.88,1.04-19.79,1.85ZM233.42,10.58c-.07-1.79-.11-3.12-.11-4.01,0-.17.15-.26.45-.26.44,0,.99-.03,1.63-.09.15-.02.45-.07.9-.15.38-.07.68-.11.9-.11.09,0,.23.13.42.4l4.26,5.98c.38.54.96,1.33,1.73,2.36.19.24.35.36.49.36.1,0,.15-.3.15-.91,0-.82-.04-2.05-.13-3.7-.09-1.65-.13-2.88-.13-3.71,0-.29.08-.43.24-.43.46,0,1.15-.02,2.07-.06s1.61-.06,2.07-.06c.14,0,.22.12.22.36,0,.89-.04,2.23-.11,4.01-.07,1.78-.11,3.12-.11,4.02v7.71c0,.21-.11.32-.33.32-.18,0-.46,0-.83.02-.37.02-.65.02-.83.02-.2,0-.5-.02-.89-.05s-.69-.05-.89-.05c-.14,0-.3-.13-.49-.39-.55-.76-1.78-2.43-3.7-5.03-.53-.73-1.33-1.79-2.4-3.21-.03-.05-.09-.09-.17-.14-.06.05-.09.14-.09.26,0,.91.02,2.26.07,4.07.05,1.81.07,3.17.07,4.07,0,.27-.1.41-.31.41h-3.95c-.22,0-.33-.12-.33-.36,0-.84.04-2.11.12-3.82s.12-2.98.12-3.83c0-.9-.04-2.24-.11-4.03ZM205.36,9.1c.12-.55.19-.88.21-1,.02-.37.05-.73.08-1.1.05-.59.14-.88.27-.88.02,0,.07,0,.16.01,1.23.16,3.06.25,5.47.25.69,0,1.95-.07,3.79-.22.99-.08,1.49-.12,1.5-.12.15,0,.24,0,.26.03.02.02.04.1.04.23,0,.21,0,.5-.02.88-.02.41-.02.71-.02.88,0,.2.02.48.07.86.05.38.07.66.07.85,0,.16-.08.23-.25.23-.29,0-1.44-.06-3.44-.17-.05,1.97-.07,3.35-.07,4.13,0,.92.04,2.31.11,4.15.07,1.85.11,3.23.11,4.15,0,.15-.03.24-.1.28-.02.02-.13.04-.32.06-.46.06-1.13.09-2.01.09-.98,0-1.67-.03-2.07-.09-.21-.04-.32-.16-.32-.36,0-.92.04-2.3.11-4.14.08-1.84.11-3.22.11-4.14,0-.61-.03-1.97-.09-4.07-1.52.16-2.74.23-3.65.23-.12,0-.18-.04-.18-.12,0-.1.05-.4.16-.9ZM198.83,20.19c.14-3.16.21-5.23.21-6.23,0-.83-.03-2.09-.08-3.76-.05-1.67-.08-2.92-.08-3.76,0-.17.09-.26.26-.26.24,0,.59.01,1.07.04s.83.04,1.07.04.58-.01,1.05-.04.81-.04,1.05-.04c.22,0,.33.09.33.26,0,.83-.04,2.09-.13,3.76-.09,1.67-.13,2.92-.13,3.76,0,.92.02,2.31.07,4.15.05,1.85.07,3.23.07,4.15,0,.16-.03.25-.1.29-.01,0-.11.02-.3.05-.5.06-1.16.09-1.99.09-1.11,0-1.82-.03-2.13-.09-.22-.05-.33-.17-.33-.36,0,.01,0,.01,0,0,0,0,0,0,0,0,0-.08.04-.76.1-2.07ZM114.58,116.09v-14.95c1.68-.09,2.52-.13,4.2-.22v-55.59c-1.68-.08-2.52-.13-4.2-.22v-14.95c8.92.72,13.38,1.04,22.32,1.57v14.4c-1.7-.07-2.55-.1-4.25-.17v54.32c4.17-.17,6.26-.25,10.44-.4v-10.68c5.55-.12,8.33-.17,13.89-.26,0,9.82,0,14.73,0,24.56-14.15.66-28.27,1.52-42.4,2.59ZM154.66,20.53c-1.44-1.61-2.16-3.64-2.16-6.09s.71-4.38,2.11-6.04c1.47-1.73,3.34-2.6,5.61-2.6,2.47,0,4.4.78,5.81,2.33.15.17.23.32.23.46,0,.15-.27.7-.79,1.65-.53.95-.86,1.49-1,1.6-.06.06-.14.09-.23.09-.04,0-.23-.16-.57-.47-.41-.37-.81-.67-1.21-.88-.6-.31-1.23-.47-1.87-.47-1.12,0-2.02.43-2.69,1.29-.62.79-.93,1.78-.93,2.95s.31,2.18.93,2.98c.67.87,1.57,1.31,2.69,1.31.66,0,1.29-.15,1.89-.44.39-.2.78-.47,1.19-.82.34-.3.52-.44.56-.44.08,0,.15.04.23.13.12.14.45.63.99,1.46.56.87.83,1.34.83,1.43,0,.12-.08.29-.24.49-1.4,1.71-3.27,2.56-5.59,2.56s-4.31-.83-5.78-2.49ZM182.31,98.97c0,5.52,0,8.27,0,13.79-8.73.15-13.09.27-21.82.6,0-5.6,0-8.4,0-14,1.57-.04,2.36-.06,3.93-.09v-52.28c-1.57-.03-2.36-.05-3.93-.09,0-5.6,0-8.4,0-14,8.72.33,13.09.45,21.82.6,0,5.52,0,8.27,0,13.79-1.59-.02-2.39-.03-3.98-.05v51.78c1.59-.02,2.39-.03,3.98-.05ZM182.3,22.61c-.23.06-.94.09-2.13.09-1.09,0-1.79-.03-2.1-.09-.26-.05-.42-.23-.49-.53-.26-1.12-.46-1.72-.61-1.8-.12-.05-1.14-.08-3.06-.08-1.3,0-1.98.04-2.07.11-.13.12-.27.54-.43,1.25-.15.65-.32,1-.53,1.05-.26.06-1.13.09-2.61.09-1.17,0-1.75-.11-1.75-.34,0-.2.86-2.7,2.58-7.48,1.87-5.17,2.88-8.02,3.04-8.53.09-.3.2-.45.32-.45.21,0,.52.02.95.06s.75.06.97.06.51-.01.91-.04.7-.04.9-.04c.15,0,.28.13.4.39.37.82,1.46,3.63,3.27,8.43,1.81,4.83,2.72,7.35,2.72,7.56,0,.14-.1.24-.29.29ZM184.03,22.61c-.22,0-.33-.11-.33-.34,0-.87.01-2.17.04-3.9s.04-3.04.04-3.9c0-2.45-.1-5.02-.31-7.72v-.16c-.03-.15.09-.24.33-.27.59-.08,1.9-.12,3.93-.12,1.2,0,2.34.02,3.44.05,1.81.05,3.26.64,4.37,1.74,1.13,1.14,1.69,2.63,1.69,4.47s-.48,3.42-1.45,4.59c-1.04,1.24-2.46,1.86-4.29,1.86-.3,0-.76-.02-1.38-.05s-1.07-.05-1.38-.05c-.33,0-.49.14-.49.43,0,.36.03.89.1,1.6.07.71.1,1.24.1,1.59,0,.18-.08.27-.24.27-.46,0-1.16-.01-2.09-.04s-1.63-.04-2.09-.04ZM202.89,47.39c0,7.54,0,11.31,0,18.84,6.97,0,10.45,0,17.41-.03v13.79c-6.96-.02-10.45-.03-17.41-.03,0,7.56,0,11.34,0,18.9,4.18,0,6.27.01,10.46.05v-10.29c5.56.03,8.35.04,13.91.1,0,9.68,0,14.52,0,24.2-13.8-.34-27.61-.41-41.42-.21,0-5.51,0-8.26,0-13.77,1.26-.01,1.89-.02,3.14-.03,0-17.19,0-34.37,0-51.56-1.26,0-1.89-.01-3.14-.03,0-5.51,0-8.26,0-13.77,13.81.2,27.61.12,41.42-.21,0,9.68,0,14.52,0,24.2-5.56.05-8.34.07-13.91.1v-10.29c-4.18.03-6.27.04-10.46.05ZM229.71,22.7c-1.09,0-1.79-.03-2.1-.09-.26-.05-.42-.23-.49-.53-.26-1.12-.46-1.72-.61-1.8-.12-.05-1.14-.08-3.06-.08-1.3,0-1.99.04-2.07.11-.13.12-.27.54-.43,1.25-.15.65-.32,1-.53,1.05-.26.06-1.13.09-2.61.09-1.17,0-1.75-.11-1.75-.34,0-.2.86-2.7,2.58-7.48,1.87-5.17,2.88-8.02,3.04-8.53.09-.3.2-.45.32-.45.21,0,.52.02.95.06s.75.06.97.06.51-.01.91-.04c.4-.03.7-.04.9-.04.14,0,.28.13.4.39.37.82,1.46,3.63,3.27,8.43,1.81,4.83,2.72,7.35,2.72,7.56,0,.14-.09.24-.29.29-.23.06-.94.09-2.13.09ZM288.94,45.04c-1.12.06-1.68.09-2.8.15v55.89c1.07.06,1.6.08,2.67.14v14.99c-8.57-.71-12.85-1.01-21.44-1.55,0-5.78,0-8.67,0-14.45,1.1.04,1.65.07,2.76.11-7.37-12.93-14.87-25.77-22.5-38.55,0,12.58,0,25.17,0,37.75,1.12.03,1.69.05,2.81.08,0,5.65,0,8.48,0,14.13-7.86-.36-11.79-.51-19.66-.73,0-5.55,0-8.33,0-13.88,1.18.02,1.77.03,2.95.06v-52.12c-1.18.02-1.77.03-2.95.06,0-5.55,0-8.33,0-13.88,6.74-.19,10.11-.31,16.85-.6,8.36,15.25,16.59,30.56,24.64,45.98,0-10.93,0-21.85,0-32.78-1.09.05-1.64.07-2.74.12v-14.5c7.77-.5,11.65-.78,19.4-1.42v14.99ZM347.69,53.71c-5.5.3-8.26.44-13.78.71,0-4.97,0-7.46,0-12.43-2.76.23-4.14.34-6.9.55v61.18c1,.08,1.5.12,2.5.2v16.43c-7.54-.91-11.32-1.34-18.87-2.12v-15.69c1.02.07,1.54.1,2.56.17v-59.16c-2.76.19-4.15.28-6.91.46v11.62c-5.53.21-8.3.31-13.84.5,0-10.55,0-15.83,0-26.38,18.47-1.69,36.86-3.75,55.24-6.2v30.15ZM392,50.92c-5.46.39-8.2.58-13.67.94v-14.13c-4.12.45-6.18.67-10.3,1.1v25.11c6.87-.19,10.3-.29,17.15-.5v19.3c-6.85-.21-10.28-.31-17.15-.5v25.18c4.12.43,6.19.65,10.3,1.1v-14.13c5.48.36,8.21.55,13.67.94v34.48c-13.56-2.48-27.17-4.68-40.82-6.62v-17.42c1.24.12,1.86.17,3.11.29V40.19c-1.24.12-1.86.18-3.11.29v-17.42c13.65-1.94,27.26-4.15,40.82-6.62v34.48Z"/></g></svg>