<?xml version="1.0" encoding="UTF-8"?><svg id="Layer_2" xmlns="http://www.w3.org/2000/svg" viewBox="0 0 291.1 149.54"><defs><style>.cls-1{fill:#fff;}</style></defs><g id="Layer_1-2"><path class="cls-1" d="M57.71,34.48c.71.74,1.07,1.57,1.07,2.56v26.21c0,1.24.53,1.74,1.87,1.74h23.02c1.24,0,1.78-.5,1.78-1.65v-5.13c0-1.16-.53-1.65-1.87-1.65-1.96-.08-3.91,0-5.96,0-2.58,0-5.24,0-7.91-.08-1.07,0-1.6-.58-1.69-1.57v-17.77c0-1.49.53-1.9,2.13-1.9h8.8c1.33,0,1.87-.58,1.96-1.82,0-1.57-.09-3.22,0-4.79,0-1.32-.71-1.9-2.04-1.9-2.93.08-5.87.08-8.8,0-1.51,0-2.04-.41-2.04-1.9,0-4.71.09-9.42,0-14.14,0-1.32.89-1.9,2.04-1.9,4.53.08,9.07,0,13.6,0,1.24,0,1.78-.5,1.78-1.65,0-1.65-.09-3.39,0-5.04.09-1.16-.8-1.9-1.96-1.9-3.64.08-7.38.08-11.02.08-3.91,0-7.73,0-11.56-.08-1.69,0-2.13.41-2.13,2.07v25.13c0,.99-.36,1.82-1.07,2.48-.44.41-.8.83-1.16,1.24-.71.83-.8,1.24,0,2.15l1.16,1.24Z"/><path class="cls-1" d="M103.22,64.41c.36-.41.36-.91.36-1.32v-15.38c0-1.74-.09-3.55-.09-5.37.09-3.89.09-7.77,0-11.74,0-.5,0-.91.09-1.41.09-.33.27-.58.62-.58.44,0,.36.25.44.5.89,2.48,1.6,5.04,2.4,7.52l3.2,10.17c1.78,5.62,3.47,11.24,5.25,16.86.18.74.89,1.32,1.69,1.32h7.29c.71,0,1.33-.5,1.42-1.16.09-.33.09-.74.09-1.07v-26.21c0-.74.18-1.41.71-1.98l1.6-1.65c.62-.83.62-1.24,0-2.07-.53-.58-1.07-1.16-1.69-1.74-.44-.58-.62-1.16-.62-1.82,0-1.41-.09-2.73-.09-4.05.09-7.11.09-14.22.09-21.33,0-1.16-.53-1.74-1.87-1.74-1.78,0-3.64.08-5.42,0-1.33-.08-2.04.66-2.04,1.98v33.4c0,.33-.18.58-.62.58-.36.08-.62-.08-.71-.41-.09-.58-.27-1.07-.44-1.65-1.42-4.38-2.76-8.76-4.09-13.14-2.04-6.37-4-12.65-5.96-19.01-.36-1.24-.98-1.65-2.4-1.74h-6.22c-1.42,0-1.96.5-1.96,1.82v14.8c0,3.47-.09,6.86.09,10.33,0,.74-.18,1.49-.62,2.15-.53.66-1.16,1.16-1.69,1.82-.71.83-.71,1.32,0,2.23l1.24,1.24c.71.74.98,1.49.98,2.48v26.37c0,.91.62,1.57,1.6,1.57h6.05c.62,0,.98-.17,1.33-.58Z"/><path class="cls-1" d="M140.65,8.52c1.16,0,1.69.5,1.78,1.57v16.86c0,1.07-.36,1.9-1.16,2.65-.36.5-.8.91-1.16,1.32-.62.66-.62,1.24,0,1.9.44.58.89.99,1.42,1.57.44.5.89,1.07.89,1.82v13.48c0,.25.09.5.09.66-.18,4.22-.09,8.51-.09,12.73,0,1.16.53,1.65,1.78,1.65h5.78c1.16,0,1.78-.58,1.78-1.65v-3.72c-.09-4.96,0-9.92-.09-14.88,0-2.65.09-5.37.09-8.02,0-1.07.36-1.9,1.07-2.73.44-.41.89-.83,1.24-1.24.53-.66.53-1.24,0-1.9l-1.33-1.41c-.62-.66-.98-1.41-.98-2.4V10.34c0-1.07.71-1.9,1.96-1.9,2.04.08,4.18.08,6.22.08,1.42,0,1.96-.5,1.96-1.82.09-1.65,0-3.31.09-4.88,0-1.07-.71-1.9-1.96-1.82-3.38.08-6.67,0-10.05,0h-15.82c-1.24-.08-2.04.58-1.96,1.9.09,1.57.09,3.14,0,4.71-.09,1.24.71,1.9,1.96,1.9,2.13-.08,4.36,0,6.49,0Z"/><path class="cls-1" d="M193.01,63.41v-5.37c0-.99-.62-1.49-1.69-1.49-2.67-.08-12,0-14.05-.08-.98,0-1.51-.58-1.16-1.57.8-2.31,4.62-12.48,5.51-15.29.62-1.74,1.51-3.22,3.47-3.97.36-.17.71-.41,1.07-.74.44-.41.62-.91.27-1.49-.27-.66-.62-1.32-.89-1.98-.36-.74-.36-1.49-.09-2.23l3.2-8.68c1.33-3.55,2.58-7.11,3.91-10.66.27-.66.44-1.41.44-2.15V2.16c0-1.41-.53-1.9-2.04-1.9h-21.69c-.98,0-1.51.58-1.6,1.49v5.54c.09.91.71,1.49,1.6,1.49,4.09-.08,8.18-.08,12.27-.08,1.16,0,1.69.74,1.33,1.74-1.87,5.29-3.82,10.5-5.78,15.79-.36,1.07-1.07,1.82-2.04,2.31l-1.6.91c-.8.5-.98,1.16-.62,1.98.36.66.62,1.32.89,1.98.36.66.36,1.41.09,2.07-.53,1.41-1.07,2.81-1.51,4.13-1.96,5.21-3.82,10.42-5.78,15.54-.27.91-.44,1.74-.44,2.65v5.37c0,1.32.53,1.82,1.96,1.82h23.29c1.07,0,1.69-.58,1.69-1.57Z"/><path class="cls-1" d="M214.96,64.98h6.05c.98,0,1.78-.33,2.49-.99,1.6-1.49,3.2-3.06,4.89-4.55,1.07-.91,1.51-1.98,1.51-3.31-.09-3.47,0-7.03,0-10.58v-9.01c0-.83.27-1.57.8-2.15.44-.5.89-.99,1.42-1.49.62-.83.71-1.24,0-1.98-.27-.41-.53-.74-.89-1.07-.98-.91-1.42-1.98-1.42-3.39.18-4.13.09-8.27.09-12.32,0-1.74-.09-3.39,0-5.13,0-1.24-.44-2.23-1.42-3.14-1.69-1.49-3.38-3.06-5.07-4.63-.71-.66-1.51-1.07-2.67-1.07h-11.73c-.89,0-1.6.25-2.22.83-1.96,1.74-3.82,3.55-5.78,5.37-.71.66-.98,1.41-.98,2.4.09,3.06,0,6.12,0,9.26v9.26c.09.99-.27,1.74-.89,2.4-.44.5-.89.99-1.33,1.41-.62.74-.71,1.32-.09,2.07l1.42,1.49c.62.66.89,1.41.89,2.31v7.77c.09,3.89,0,7.77.09,11.66,0,1.24.36,2.07,1.16,2.89,1.78,1.57,3.47,3.14,5.16,4.79.71.58,1.51.91,2.49.91h6.05ZM209.36,52.01c.09-4.38.09-8.68.09-12.98V11.99c0-1.98,1.33-3.22,3.47-3.22h4.36c1.78,0,3.2,1.32,3.29,2.98v20.83c0,4.05.09,8.1,0,12.07v8.93c.09,1.57-1.69,2.98-3.02,2.98-1.69,0-3.38,0-4.98-.08-1.6,0-2.93-1.07-3.11-2.56-.18-.58-.09-1.24-.09-1.9Z"/><path class="cls-1" d="M261.99,64.98h7.29c.71,0,1.33-.5,1.42-1.16.09-.33.09-.74.09-1.07v-26.21c0-.74.18-1.41.71-1.98l1.6-1.65c.62-.83.62-1.24,0-2.07-.53-.58-1.07-1.16-1.69-1.74-.44-.58-.62-1.16-.62-1.82,0-1.41-.09-2.73-.09-4.05.09-7.11.09-14.22.09-21.33,0-1.16-.53-1.74-1.87-1.74-1.78,0-3.64.08-5.42,0-1.33-.08-2.04.66-2.04,1.98v33.4c0,.33-.18.58-.62.58-.36.08-.62-.08-.71-.41-.09-.58-.27-1.07-.44-1.65-1.42-4.38-2.76-8.76-4.09-13.14-2.04-6.37-4-12.65-5.96-19.01-.36-1.24-.98-1.65-2.4-1.74h-6.22c-1.42,0-1.96.5-1.96,1.82v14.8c0,3.47-.09,6.86.09,10.33,0,.74-.18,1.49-.62,2.15-.53.66-1.16,1.16-1.69,1.82-.71.83-.71,1.32,0,2.23l1.24,1.24c.71.74.98,1.49.98,2.48v26.37c0,.91.62,1.57,1.6,1.57h6.05c.62,0,.98-.17,1.33-.58.36-.41.36-.91.36-1.32v-15.38c0-1.74-.09-3.55-.09-5.37.09-3.89.09-7.77,0-11.74,0-.5,0-.91.09-1.41.09-.33.27-.58.62-.58.44,0,.36.25.44.5.89,2.48,1.6,5.04,2.4,7.52l3.2,10.17c1.78,5.62,3.47,11.24,5.24,16.86.18.74.89,1.32,1.69,1.32Z"/><path class="cls-1" d="M26.19,87.86c-3.18.08-6.27,0-9.45,0H1.85c-1.17-.08-1.92.55-1.84,1.81.08,1.49.08,2.98,0,4.47-.08,1.18.67,1.81,1.84,1.81,2.01-.08,4.1,0,6.11,0,1.09,0,1.59.47,1.67,1.49v16.01c0,1.02-.33,1.8-1.09,2.51-.33.47-.75.86-1.09,1.26-.59.63-.59,1.18,0,1.81.42.55.84.94,1.34,1.49.42.47.84,1.02.84,1.73v12.79c0,.24.08.47.08.63-.17,4-.08,8.08-.08,12.08,0,1.1.5,1.57,1.67,1.57h5.44c1.09,0,1.67-.55,1.67-1.57v-3.53c-.08-4.71,0-9.42-.08-14.13,0-2.51.08-5.1.08-7.61,0-1.02.33-1.81,1-2.59.42-.39.84-.78,1.17-1.18.5-.63.5-1.18,0-1.81l-1.25-1.33c-.59-.63-.92-1.33-.92-2.28v-15.62c0-1.02.67-1.8,1.84-1.8,1.92.08,3.93.08,5.86.08,1.34,0,1.84-.47,1.84-1.73.08-1.57,0-3.14.08-4.63,0-1.02-.67-1.81-1.84-1.73Z"/><path class="cls-1" d="M62.82,116.19c-.92-.86-1.34-1.88-1.34-3.22.17-3.92.08-7.85.08-11.69,0-1.65-.08-3.22,0-4.87,0-1.18-.42-2.12-1.34-2.98-1.59-1.41-3.18-2.9-4.77-4.4-.67-.63-1.42-1.02-2.51-1.02h-11.04c-.84,0-1.51.24-2.09.78-1.84,1.65-3.6,3.37-5.44,5.1-.67.63-.92,1.33-.92,2.28.08,2.9,0,5.81,0,8.79v8.79c.08.94-.25,1.65-.84,2.28-.42.47-.84.94-1.25,1.33-.59.71-.67,1.26-.08,1.96l1.34,1.41c.59.63.84,1.33.84,2.2v7.38c.08,3.69,0,7.38.08,11.06,0,1.18.33,1.96,1.09,2.75,1.67,1.49,3.26,2.98,4.85,4.55.67.55,1.42.86,2.34.86h11.38c.92,0,1.67-.31,2.34-.94,1.51-1.41,3.01-2.9,4.6-4.32,1-.86,1.42-1.88,1.42-3.14-.08-3.3,0-6.67,0-10.04v-8.55c0-.78.25-1.49.75-2.04.42-.47.84-.94,1.34-1.41.59-.78.67-1.18,0-1.88-.25-.39-.5-.71-.84-1.02ZM52.79,130.24v8.47c.08,1.49-1.59,2.83-2.84,2.83-1.59,0-3.18,0-4.68-.08-1.51,0-2.76-1.02-2.93-2.43-.17-.55-.08-1.18-.08-1.81.08-4.16.08-8.24.08-12.32v-25.66c0-1.88,1.25-3.06,3.26-3.06h4.1c1.67,0,3.01,1.26,3.09,2.82v19.78c0,3.85.08,7.69,0,11.46Z"/><path class="cls-1" d="M93.18,87.86c-3.18.08-6.27,0-9.45,0h-14.89c-1.17-.08-1.92.55-1.84,1.81.08,1.49.08,2.98,0,4.47-.08,1.18.67,1.81,1.84,1.81,2.01-.08,4.1,0,6.11,0,1.09,0,1.59.47,1.67,1.49v16.01c0,1.02-.33,1.8-1.09,2.51-.33.47-.75.86-1.09,1.26-.59.63-.59,1.18,0,1.81.42.55.84.94,1.34,1.49.42.47.84,1.02.84,1.73v12.79c0,.24.08.47.08.63-.17,4-.08,8.08-.08,12.08,0,1.1.5,1.57,1.67,1.57h5.44c1.09,0,1.67-.55,1.67-1.57v-3.53c-.08-4.71,0-9.42-.08-14.13,0-2.51.08-5.1.08-7.61,0-1.02.33-1.81,1-2.59.42-.39.84-.78,1.17-1.18.5-.63.5-1.18,0-1.81l-1.25-1.33c-.59-.63-.92-1.33-.92-2.28v-15.62c0-1.02.67-1.8,1.84-1.8,1.92.08,3.93.08,5.86.08,1.34,0,1.84-.47,1.84-1.73.08-1.57,0-3.14.08-4.63,0-1.02-.67-1.81-1.84-1.73Z"/><path class="cls-1" d="M129.82,116.19c-.92-.86-1.34-1.88-1.34-3.22.17-3.92.08-7.85.08-11.69,0-1.65-.08-3.22,0-4.87,0-1.18-.42-2.12-1.34-2.98-1.59-1.41-3.18-2.9-4.77-4.4-.67-.63-1.42-1.02-2.51-1.02h-11.04c-.84,0-1.51.24-2.09.78-1.84,1.65-3.6,3.37-5.44,5.1-.67.63-.92,1.33-.92,2.28.08,2.9,0,5.81,0,8.79v8.79c.08.94-.25,1.65-.84,2.28-.42.47-.84.94-1.25,1.33-.59.71-.67,1.26-.08,1.96l1.34,1.41c.59.63.84,1.33.84,2.2v7.38c.08,3.69,0,7.38.08,11.06,0,1.18.33,1.96,1.09,2.75,1.67,1.49,3.26,2.98,4.85,4.55.67.55,1.42.86,2.34.86h11.38c.92,0,1.67-.31,2.34-.94,1.51-1.41,3.01-2.9,4.6-4.32,1-.86,1.42-1.88,1.42-3.14-.08-3.3,0-6.67,0-10.04v-8.55c0-.78.25-1.49.75-2.04.42-.47.84-.94,1.34-1.41.59-.78.67-1.18,0-1.88-.25-.39-.5-.71-.84-1.02ZM119.78,130.24v8.47c.08,1.49-1.59,2.83-2.84,2.83-1.59,0-3.18,0-4.68-.08-1.51,0-2.76-1.02-2.93-2.43-.17-.55-.08-1.18-.08-1.81.08-4.16.08-8.24.08-12.32v-25.66c0-1.88,1.25-3.06,3.26-3.06h4.1c1.67,0,3.01,1.26,3.09,2.82v19.78c0,3.85.08,7.69,0,11.46Z"/><path class="cls-1" d="M163.69,93.59l-5.02-4.71c-.67-.55-1.42-.86-2.34-.86h-11.04c-.92,0-1.67.31-2.26.86-1.84,1.65-3.6,3.3-5.35,5.02-.5.47-.84,1.02-.84,1.8v1.96c0,2.35-.08,4.71-.08,7.06v9.1c0,.71-.17,1.33-.59,1.96-.25.31-.59.63-.92.94-1.42,1.57-1.42,1.81.08,3.3,1,1.02,1.59,2.12,1.51,3.61-.17,2.28-.08,4.55,0,6.83v5.26c0,1.8,0,3.69-.08,5.49,0,.94.17,1.88,1,2.67,1.67,1.57,3.35,3.22,5.1,4.79.59.55,1.34.86,2.17.86h11.38c1,0,1.84-.39,2.51-1.02,1.67-1.49,3.26-3.06,4.94-4.63.67-.63,1-1.33,1-2.28v-9.73c0-.78,0-1.57-.08-2.43-.08-1.02-.5-1.33-1.67-1.33h-5.1c-1.51,0-1.92.39-1.92,1.73v8.55c0,1.57-1.42,2.83-3.01,2.9h-4.52c-1.59-.08-2.93-1.33-2.93-2.83-.17-2.9-.08-5.89-.08-8.79v-7.16c.05-.56.22-1.09.56-1.61.25-.32.59-.63.92-.94,1.42-1.57,1.42-1.81-.09-3.29-.7-.72-1.2-1.47-1.4-2.37v-4.87c0-3.37.08-6.67,0-10.04,0-1.33,1.42-3.14,3.18-2.98h4.18c1.67,0,2.93,1.1,3.18,2.67.08.71,0,1.33,0,1.96v6.91c0,1.18.5,1.65,1.76,1.65,1.67,0,3.43-.08,5.1,0,1.25.08,1.92-.71,1.92-1.73-.08-3.85-.08-7.69,0-11.54,0-1.1-.42-1.96-1.17-2.75Z"/><path class="cls-1" d="M201.75,115.72c-.42-.55-.84-1.18-.84-1.96v-24.09c0-1.18-.5-1.65-1.76-1.65-1.76,0-3.51.08-5.19,0-1.09-.08-1.92.71-1.76,1.73v.47c0,7.45-.08,14.83,0,22.21,0,1.18-.59,1.96-2.09,1.88-2.17-.08-4.27,0-6.44,0-1.59,0-2.01-.47-2.01-1.88v-22.84c0-1.02-.5-1.49-1.59-1.49-1.92-.08-3.76-.08-5.6-.08-.92,0-1.42.55-1.51,1.33-.08.24,0,.47,0,.71-.08,7.85-.08,15.69,0,23.62,0,.94-.33,1.73-1,2.43l-1.17,1.26c-.75.78-.75,1.26,0,2.04.33.39.75.78,1.17,1.18.67.71,1,1.49,1,2.51-.08,4.08,0,8.16,0,12.24v3.92c0,2.9-.08,5.81,0,8.71,0,.94.42,1.49,1.25,1.49,2.01.08,4.01.08,6.02.08.84-.08,1.34-.55,1.42-1.41v-.63c0-7.69,0-15.3-.08-22.99,0-1.57.5-2.28,2.34-2.2,2.09.08,4.27,0,6.36,0,1.34,0,1.92.47,1.92,1.73v7.06c0,5.57,0,11.22-.08,16.79,0,1.02.75,1.65,1.76,1.65,1.84-.08,3.68,0,5.44,0,1,0,1.59-.55,1.59-1.49v-25.27c0-.86.25-1.65.84-2.35l1.25-1.26c.75-.78.75-1.33,0-2.12l-1.25-1.33Z"/><path class="cls-1" d="M233.03,87.86c-3.18.08-6.27,0-9.45,0h-14.89c-1.17-.08-1.92.55-1.84,1.81.08,1.49.08,2.98,0,4.47-.08,1.18.67,1.81,1.84,1.81,2.01-.08,4.1,0,6.11,0,1.09,0,1.59.47,1.67,1.49v16.01c0,1.02-.33,1.8-1.09,2.51-.33.47-.75.86-1.09,1.26-.59.63-.59,1.18,0,1.81.42.55.84.94,1.34,1.49.42.47.84,1.02.84,1.73v12.79c0,.24.08.47.08.63-.17,4-.08,8.08-.08,12.08,0,1.1.5,1.57,1.67,1.57h5.44c1.09,0,1.67-.55,1.67-1.57v-3.53c-.08-4.71,0-9.42-.08-14.13,0-2.51.08-5.1.08-7.61,0-1.02.33-1.81,1-2.59.42-.39.84-.78,1.17-1.18.5-.63.5-1.18,0-1.81l-1.25-1.33c-.59-.63-.92-1.33-.92-2.28v-15.62c0-1.02.67-1.8,1.84-1.8,1.92.08,3.93.08,5.86.08,1.34,0,1.84-.47,1.84-1.73.08-1.57,0-3.14.08-4.63,0-1.02-.67-1.81-1.84-1.73Z"/><path class="cls-1" d="M251.52,116.98l-1.09-1.18c-.59-.63-.92-1.33-.92-2.2v-23.78c0-1.26-.5-1.81-1.84-1.81-1.67,0-3.35.08-4.94,0-1.42-.08-1.92.78-1.92,1.88v23.62c0,1.1-.33,1.96-1.09,2.67l-1.25,1.33c-.5.63-.5,1.02,0,1.65.33.39.67.78,1.09,1.18.84.86,1.25,1.81,1.25,3.06-.08,6.04,0,12.08,0,18.21v6.36c0,1.02.5,1.57,1.67,1.57h5.52c.92,0,1.42-.47,1.51-1.41v-25.35c0-1.02.33-1.81,1.09-2.59.33-.31.67-.63,1-1.02.84-1.1.67-1.49-.08-2.2Z"/><path class="cls-1" d="M290.66,117.14c-.5-.55-1-1.1-1.59-1.65-.42-.55-.58-1.1-.58-1.73,0-1.33-.08-2.59-.08-3.85.08-6.75.08-13.5.08-20.25,0-1.1-.5-1.65-1.76-1.65-1.67,0-3.43.08-5.1,0-1.25-.08-1.92.63-1.92,1.88v31.7c0,.31-.17.55-.59.55-.33.08-.59-.08-.67-.39-.08-.55-.25-1.02-.42-1.57-1.34-4.16-2.59-8.32-3.85-12.48-1.92-6.04-3.76-12.01-5.6-18.05-.33-1.18-.92-1.57-2.26-1.65h-5.86c-1.34,0-1.84.47-1.84,1.73v14.05c0,3.3-.08,6.51.08,9.81,0,.71-.17,1.41-.59,2.04-.5.63-1.09,1.1-1.59,1.73-.67.78-.67,1.26,0,2.12l1.17,1.18c.67.71.92,1.41.92,2.35v25.03c0,.86.59,1.49,1.51,1.49h5.69c.59,0,.92-.16,1.25-.55.33-.39.33-.86.33-1.26v-14.6c0-1.65-.08-3.37-.08-5.1.08-3.69.08-7.38,0-11.14,0-.47,0-.86.08-1.33.08-.31.25-.55.58-.55.42,0,.33.24.42.47.84,2.35,1.51,4.79,2.26,7.14l3.01,9.65c1.67,5.34,3.26,10.67,4.94,16.01.17.71.84,1.26,1.59,1.26h6.86c.67,0,1.25-.47,1.34-1.1.08-.31.08-.71.08-1.02v-24.88c0-.71.17-1.33.67-1.88l1.51-1.57c.59-.78.59-1.18,0-1.96Z"/><path class="cls-1" d="M44.02,63.91c1.78-1.57,3.47-3.22,5.24-4.88.71-.66,1.07-1.41,1.07-2.4v-10.25c0-.83,0-1.65-.09-2.56-.09-1.07-.53-1.41-1.78-1.41h-5.42c-1.6,0-2.04.41-2.04,1.82v9.01c0,1.65-1.51,2.98-3.2,3.06h-4.8c-1.69-.08-3.11-1.41-3.11-2.98-.18-3.06-.09-6.2-.09-9.26v-21.33c0-3.55.09-7.03,0-10.58,0-1.41,1.51-3.31,3.38-3.14h4.44c1.78,0,3.11,1.16,3.38,2.81.09.74,0,1.41,0,2.07v7.27c0,1.24.53,1.74,1.87,1.74,1.78,0,3.64-.08,5.42,0,1.33.08,2.04-.74,2.04-1.82-.09-4.05-.09-8.1,0-12.15,0-1.16-.44-2.07-1.24-2.89l-5.33-4.96c-.71-.58-1.51-.91-2.49-.91h-11.73c-.98,0-1.78.33-2.4.91-1.96,1.74-3.82,3.47-5.69,5.29-.53.5-.89,1.07-.89,1.9v2.07c0,2.48-.09,4.96-.09,7.44v9.59c0,.74-.18,1.41-.62,2.07-.27.33-.62.66-.98.99-1.51,1.65-1.51,1.9.09,3.47,1.07,1.07,1.69,2.23,1.6,3.8-.18,2.4-.09,4.79,0,7.19v5.54c0,1.9,0,3.89-.09,5.79,0,.99.18,1.98,1.07,2.81,1.78,1.65,3.56,3.39,5.42,5.04.62.58,1.42.91,2.31.91h12.09c1.07,0,1.96-.41,2.67-1.07Z"/><rect class="cls-1" x="39.42" y="79.31" width="16.18" height="4.85" rx="1.58" ry="1.58"/><rect class="cls-1" x="106.42" y="79.31" width="16.18" height="4.85" rx="1.58" ry="1.58"/></g></svg>