<?xml version="1.0" encoding="UTF-8"?><svg id="Layer_2" xmlns="http://www.w3.org/2000/svg" viewBox="0 0 287.44 279.15"><defs><style>.cls-1{fill:none;}.cls-1,.cls-2{stroke:#fff;stroke-miterlimit:10;}.cls-3{stroke-width:0px;}.cls-3,.cls-2{fill:#fff;}</style></defs><g id="Layer_1-2"><path class="cls-1" d="M243.25,66.64l5.66-8.17c-12.87-17.32-29.92-31.35-49.66-40.6v10.45c17.59,9.04,32.69,22.25,43.99,38.32Z"/><path class="cls-1" d="M265.74,179.11h-6.7v-38.38l-28.53,41.15h-28.28l37.38-53.92,19.9-28.71c-3.78-11.75-9.3-22.72-16.25-32.62l-15.67,22.59-23.17,33.43c1.01,4.46,1.55,9.09,1.55,13.85,0,21.02-10.42,39.61-26.39,50.88-1.11.78-2.25,1.53-3.41,2.24-3.33,2.04-6.88,3.78-10.59,5.16h0c-4.3,1.62-8.82,2.77-13.52,3.39l9.6-13.85,6-8.65,1.82-2.63,34.94-50.4c-4.83-21.26-20.54-38.38-40.97-45.2-6.2-2.07-12.83-3.19-19.72-3.19-3.08,0-6.12.23-9.08.66v-34.26c2.99-.29,6.02-.43,9.08-.43,10.66,0,20.91,1.73,30.49,4.94,9.01,3,17.44,7.31,25.04,12.69,0,0,0,0,0,0v-29.57s0,0,0,0c-5.44-2.81-11.13-5.21-17.01-7.17-12.1-4.04-25.06-6.23-38.52-6.23-3.06,0-6.08.11-9.08.33-10.52.78-20.68,2.89-30.28,6.18-1.66.57-3.3,1.17-4.92,1.8-1.67.65-3.31,1.34-4.94,2.06v112.28l22.08-17.22,5.41-4.22,1.4-1.09,4.68-3.65,4.46-3.47,1.11-.87,1-.78h0c2.87-.87,5.92-1.33,9.08-1.33,3.5,0,6.86.57,10,1.62,12.54,4.19,21.58,16.02,21.58,29.97,0,10.67-5.29,20.1-13.39,25.82-.56.4-1.14.77-1.73,1.14-1.7,1.04-3.5,1.92-5.38,2.61h0c-3.45,1.3-7.18,2.01-11.08,2.01-1.36,0-2.69-.09-4-.26-11.42-1.44-20.94-8.98-25.18-19.26l-24.63,19.21c9.53,16.36,26.3,27.99,45.93,30.47,2.59.32,5.21.49,7.89.49,2.82,0,5.6-.19,8.32-.56l-8.32,12.01h81.28v16.75c-3.56,3.21-7.32,6.2-11.24,8.98-2.17,1.53-4.38,2.99-6.65,4.37-6.52,4-13.44,7.39-20.7,10.11-13.28,4.98-27.67,7.7-42.69,7.7-5.22,0-10.36-.33-15.42-.97-59.87-7.57-106.18-58.7-106.18-120.63,0-32.19,12.51-61.45,32.93-83.21,1.65-1.76,3.36-3.47,5.1-5.13,5.91-5.59,12.37-10.58,19.29-14.91,4.8-3,9.83-5.67,15.06-7.98v-10.19c-6.99,2.84-13.68,6.26-20.01,10.2-7.47,4.66-14.42,10.05-20.79,16.07-1.89,1.78-3.72,3.62-5.49,5.52-22,23.43-35.47,54.96-35.47,89.63,0,66.71,49.87,121.77,114.37,129.93,5.43.69,10.98,1.04,16.61,1.04,16.18,0,31.67-2.93,45.98-8.3,7.81-2.93,15.28-6.58,22.3-10.88,2.45-1.49,4.83-3.06,7.16-4.71,21.03-14.84,37.48-35.69,46.86-60.08h0c.16-.44.32-.87.48-1.3v-3.11h-.76Z"/><path class="cls-2" d="M189.1.63l-3.1,9.29c-13.29-4.44-27.5-6.84-42.28-6.84-3.05,0-6.07.1-9.08.31-11.86.79-23.3,3.14-34.12,6.84l-1.48-4.34-1.68-4.93c-1.95.67-3.89,1.37-5.79,2.12l2.94,7.51.63,1.61c-.21.08-.42.16-.63.25-7.45,2.96-14.59,6.57-21.31,10.77l-5.18-8.32c-8.16,5.09-15.78,10.98-22.72,17.57l6.73,7.11c-1.92,1.82-3.79,3.69-5.6,5.63l-7.15-6.71C15.23,64.13.5,98.6.5,136.52c0,72.95,54.53,133.16,125.06,142.07l1.24-9.71c5.55.71,11.19,1.06,16.91,1.06,16.48,0,32.26-2.99,46.84-8.45l3.44,9.17c8.55-3.2,16.7-7.2,24.38-11.91l-5.1-8.36c2.49-1.52,4.92-3.12,7.29-4.8l5.65,8.01c36.73-25.93,60.73-68.71,60.73-117.1,0-63.24-40.98-116.9-97.84-135.88ZM219.16,243.6c-2.33,1.65-4.72,3.22-7.16,4.71-7.02,4.3-14.48,7.95-22.3,10.88-14.31,5.37-29.8,8.3-45.98,8.3-5.63,0-11.17-.35-16.61-1.04-64.5-8.16-114.37-63.22-114.37-129.93,0-34.67,13.47-66.2,35.47-89.63,1.78-1.89,3.61-3.73,5.49-5.52,6.36-6.02,13.32-11.41,20.79-16.07,6.33-3.94,13.02-7.37,20.01-10.2v10.19c1.62-.73,3.27-1.41,4.94-2.06,1.62-.63,3.26-1.23,4.92-1.8,9.61-3.29,19.76-5.41,30.28-6.18,3-.22,6.02-.33,9.08-.33,13.46,0,26.42,2.19,38.52,6.23,5.88,1.96,11.57,4.36,17.01,7.17,0,0,0,0,0,0v-10.45c19.73,9.25,36.78,23.28,49.66,40.6l-5.66,8.17c6.96,9.89,12.48,20.87,16.25,32.62l-19.9,28.71c.25,2.81.37,5.67.37,8.55,0,16.41-4.11,31.86-11.35,45.38h1.87l28.53-41.15v38.38h7.46v3.11c-.16.43-.32.86-.48,1.29h0c-9.38,24.4-25.83,45.26-46.86,60.09Z"/><path class="cls-2" d="M227.58,89.23l15.67-22.59c-11.3-16.07-26.4-29.28-43.99-38.32v29.57c11.6,8.2,21.31,18.92,28.33,31.35Z"/><path class="cls-2" d="M169.47,173.06l-1.82,2.63-6,8.65-9.6,13.85c4.7-.62,9.22-1.77,13.52-3.39h0c3.71-1.39,7.26-3.13,10.59-5.17,1.16-.71,2.3-1.46,3.41-2.24,15.97-11.27,26.39-29.86,26.39-50.88,0-4.76-.54-9.39-1.55-13.85l-34.94,50.4Z"/><path class="cls-3" d="M74.35,213.17c.1-.39.14-1.77-.16-2.1-.05-.04-.09-.09-.14-.13l-4.61-4.41-4.3,4.49,4.61,4.41c.42.4,1.73.41,2.2.25.07-.02.22-.19.27-.23l1.9-1.99s.22-.23.22-.28Z"/><path class="cls-3" d="M60.71,195.42l-2.73-3.95c-.07-.11-.15-.17-.22-.2-.5-.28-2.27-.69-2.72-.38l-8.59,5.93c-.4.27-.64,2.12-.55,2.64,0,.07.04.17.11.27l2.73,3.95c.07.11.15.17.22.2.5.28,2.2.7,2.64.39l8.59-5.93c.11-.07.17-.15.2-.22.33-.65.49-1.94.42-2.43-.01-.07-.04-.17-.11-.27Z"/><path class="cls-3" d="M224.96,210.2h-19.31c-2.09,1.76-4.25,3.43-6.49,5.01-1.71,1.21-3.47,2.36-5.26,3.46-5.16,3.17-10.64,5.85-16.39,8.01-10.52,3.94-21.9,6.1-33.79,6.1-4.14,0-8.21-.26-12.21-.76-31.33-3.97-57.96-22.99-72.41-49.58l53.27-42.09h12.13c1.62,8.2,8.35,14.54,16.73,15.6.82.11,1.65.16,2.48.16,2.42,0,4.74-.44,6.87-1.25,1.17-.43,2.28-.98,3.33-1.62.37-.22.73-.46,1.07-.71,5.02-3.55,8.31-9.39,8.31-16.01,0-8.65-5.6-15.99-13.38-18.57h0c-1.95-.66-4.04-1.01-6.21-1.01s-4.35.37-6.34,1.06c-.26.08-.54.18-.79.29-1.13.44-2.2.98-3.22,1.62-1.12.69-2.16,1.49-3.11,2.4-.29.26-.57.54-.82.83-2.47,2.62-4.21,5.91-4.94,9.57h-15.88l-25.13,19.6-28.31,22.09c-4.98-11.63-7.73-24.43-7.73-37.87,0-25.48,9.9-48.65,26.07-65.87,1.31-1.4,2.65-2.75,4.04-4.05,4.67-4.43,9.79-8.39,15.28-11.81.55-.35,1.1-.68,1.66-1.01v-28.48c-5.22,2.31-10.25,4.98-15.06,7.98-6.93,4.33-13.39,9.32-19.29,14.91-1.75,1.66-3.45,3.37-5.1,5.13-20.42,21.75-32.93,51.02-32.93,83.21,0,61.93,46.31,113.06,106.18,120.63,5.05.64,10.19.97,15.42.97,15.02,0,29.41-2.72,42.69-7.7,7.26-2.72,14.18-6.11,20.7-10.11,2.27-1.38,4.49-2.84,6.65-4.37,3.93-2.78,7.66-5.75,11.22-8.96l-.02-16.77ZM27.26,113.52l16.07-4.71-14.32-3.17.56-2.53,18.76,4.16-.67,3.03-16.21,4.61,14.48,3.21-.56,2.53-18.76-4.16.66-2.97ZM25.28,126.63l19.21.48-.29,11.78-2.5-.06.23-9.16-5.86-.15-.22,8.64-2.5-.06.22-8.64-5.86-.15-.23,9.16-2.5-.06.29-11.78ZM26.15,152.76l16.51-2.59-.85-5.41,2.47-.39,2.11,13.41-2.47.39-.85-5.41-16.51,2.59-.41-2.59ZM34.17,182.24l12.64-8.65-15.16,2.24-1.21-3.07,16.27-11.15,1,2.53-13.41,8.89,15.94-2.45,1.11,2.83-13.34,9.07,15.87-2.63,1,2.53-19.5,2.92-1.21-3.07ZM51.4,207.03c-.69.01-2.47-.32-3.16-.62-.53-.26-1.16-.72-1.5-1.22l-2.87-4.16c-.35-.5-.54-1.23-.59-1.81-.05-.75.26-2.55.52-3.2.22-.58.69-1.02,1.14-1.33l8.67-5.98c.45-.31,1.03-.59,1.65-.59.69-.01,2.52.32,3.2.63.53.26,1.14.69,1.48,1.19l2.87,4.16c.35.5.55,1.25.61,1.84.05.75-.33,2.56-.56,3.19-.22.58-.65,1.03-1.12,1.36l-8.67,5.98c-.47.33-1.05.57-1.67.57ZM70.05,218.27c-.48-.06-1.09-.29-1.44-.58l-2.2,9.07-2.06-1.97,2.27-8.91-3.19-3.06-5.54,5.79-1.9-1.82,13.29-13.89,6.53,6.24c.53.51.96,1.27,1.09,1.97.1.54.13,1.95.05,2.4-.12.64-.43,1.23-.87,1.7l-1.99,2.08c-.44.46-1,.77-1.63.92-.45.1-1.85.13-2.4.05ZM85.72,240.27l-2.92-1.86-1.85-11.1-.24-.15-4.5,7.05-2.21-1.41,10.34-16.2,2.21,1.41-4.52,7.07.24.16,10.83-3.04,2.92,1.86-12.54,3.39,2.23,12.82ZM117.45,252.4l-2.93-.82-3.84-16.3-3.94,14.13-2.5-.7,5.16-18.51,2.99.83,3.73,16.43,3.98-14.28,2.5.7-5.16,18.51ZM140.6,238.52l-9.13-.71-.45,5.84,8.62.67-.19,2.49-8.62-.67-.45,5.84,9.13.71-.19,2.49-11.75-.91,1.49-19.16,11.75.91-.19,2.49ZM165.94,253.24l-3.27.45-5.45-14.31-1.37,15.26-3.27.45-7.02-18.43,2.7-.37,5.49,15.12,1.36-16.07,3.01-.42,5.68,15.09,1.17-16.04,2.7-.37-1.74,19.64ZM190.84,242.74c-.15.68-.92,2.34-1.38,2.93-.38.45-.94.94-1.51,1.16l-4.99,1.92c-1.58.61-3.38-.21-4.64-1-.37-.24-.75-.61-1.41-1.24l2.12-1.54c.21.19.48.43.48.43.65.54,1.81.95,2.35,1.02.14.01.23-.02.29-.04l4.78-1.84c.09-.03.17-.1.22-.15.39-.42,1.23-1.98,1.03-2.49l-.7-1.82c-.18-.48-.68-.8-1.08-.75l-8.94,1.03c-1.51.17-2.79-.92-3.29-2.23l-.7-1.82c-.2-.51-.34-1.14-.19-1.75.15-.68.91-2.37,1.37-2.96.38-.45.94-.94,1.51-1.16l4.4-1.69c1.55-.6,3.35.22,4.61,1.01.35.21.77.56,1.42,1.2l-2.13,1.61c-.42-.39-.53-.48-.53-.48-.58-.53-1.81-.95-2.35-1.02,0,0-.1,0-.22.05l-4.16,1.6c-.12.05-.17.1-.25.16-.37.38-1.21,2.04-1.03,2.49l.65,1.7c.17.45.63.75,1.03.7l8.93-.96c1.48-.16,2.83.84,3.33,2.15l.78,2.03c.2.51.33,1.14.19,1.75Z"/></g></svg>