<?xml version="1.0" encoding="UTF-8"?><svg id="Layer_2" xmlns="http://www.w3.org/2000/svg" viewBox="0 0 598.57 127.92"><defs><style>.cls-1{fill:#fff;}</style></defs><g id="Layer_1-2"><path class="cls-1" d="M273.84,23.72h-19.73l-.45.87-252.53-.19-1.13,1.24,9.28,13.3c.56.8,1.46,1.28,2.43,1.29l245.34,2.69,16.79-19.2Z"/><path class="cls-1" d="M335.63,44.21l-15.54-18.9c-.33-.4-.82-.64-1.35-.64h-.94v11.24s-12.93.37-12.93-13.92v-.31h8.05v-4.26h-7.85l.08-1.89h6.89l-12.77-15.53-12.77,15.53h6.89l.08,1.89h-7.85v4.26h8.03v.31c.01,14.28-12.92,13.92-12.92,13.92v-11.24h-.94c-.52,0-1.02.23-1.35.64l-15.54,18.9c-.44.53-.47,1.28-.08,1.84,1.63,2.39,6.54,8.27,15.53,8.27,11.29,0,16.3-14.27,16.3-14.27,0,6.4-.6,9.03-3.31,11.9-2.71,2.86-6.1,6.1-6.1,6.1l14,13.78,14-13.78s-3.39-3.24-6.1-6.1c-2.71-2.86-3.31-5.5-3.31-11.9,0,0,5.01,14.27,16.3,14.27,9,0,13.91-5.88,15.53-8.27.39-.57.35-1.32-.08-1.84Z"/><path class="cls-1" d="M324.73,23.72h19.73s.45.87.45.87l252.53-.19,1.13,1.24-9.28,13.3c-.56.8-1.46,1.28-2.43,1.29l-245.34,2.69-16.79-19.2Z"/><path class="cls-1" d="M125.31,102.8c-1.7-.33-3.4-.6-4.59-.62h-.12c-.24,0-.49,0-.73.01-3.25.07-6.02.79-8.19,2.11-3.64,2.09-5.68,5.69-5.68,10.37,0,.08,0,.17,0,.25,0,.08,0,.17,0,.25,0,4.69,2.04,8.28,5.68,10.38,2.18,1.32,4.94,2.03,8.19,2.11.21.01.42.01.64.01h.21c1.2-.03,2.89-.29,4.59-.62,3.23-.63,6.5-1.5,6.5-1.5v-8.58h-1.03c-.64,3.12-1.28,4.81-2.34,6.21-1.23,1.67-3.18,2.83-5.31,3.24-.57.12-1.15.18-1.73.18-2.45,0-4.51-1.08-5.83-3.06-1.24-1.9-1.78-4.28-1.78-8.08,0-.18,0-.36,0-.54,0-.18,0-.36,0-.54,0-3.81.54-6.18,1.78-8.08,1.32-1.97,3.38-3.05,5.83-3.05.57,0,1.14.05,1.69.16,2.15.4,4.11,1.57,5.35,3.25,1.06,1.4,1.71,3.09,2.34,6.21h1.03v-8.58s-3.27-.87-6.5-1.5Z"/><path class="cls-1" d="M150.07,125.98h3.93v-21.62h-3.93v-1.15h14.15v1.15h-3.86v9.91h10.89v-9.91h-3.58v-1.15h14.03l-.06,1.15h-3.67v21.62h3.67v1.19h-13.96v-1.19h3.58v-10.45h-10.89v10.45h3.86v1.19h-14.15v-1.19Z"/><path class="cls-1" d="M200.5,125.98h3.96v-21.87h-3.96v-.9h26.5v9.55h-1.2c-.03-5.6-3.74-8.83-9.88-8.65h-4.53v10.34h2.22c3.29.04,4.81-1.76,4.75-5.67h1.17v12.6h-1.17c.06-3.41-2-5.93-4.75-5.78h-2.22v10.49h5.79c1.81,0,2.82-.18,4.02-.75,2.69-1.29,4.56-4.31,4.56-7.4v-.54h1.17v9.77h-26.44v-1.19Z"/><path class="cls-1" d="M248.55,104.4h-2.07v-1.19h12.37v1.19h-3.43l6.84,15.48,5.19-10.95c.47-1.01.61-1.47.61-2.15,0-.75-.36-1.54-.89-1.97-.42-.36-.56-.4-2.37-.4v-1.19h7.65v1.19c-.53,0-.98.14-1.42.5-.42.36-.75.75-.98,1.15l-1.56,2.8c-.14.25-.22.39-.28.5l-8.79,18.49-.47.07-10.38-23.52Z"/><path class="cls-1" d="M291.25,126.05h3.83v-21.76h-3.83v-1.08h14.31v1.08h-3.7v21.76h3.7v1.11h-14.31v-1.11Z"/><path class="cls-1" d="M325.2,125.98h3.93v-21.83l-3.93-.04v-.9h15.99v.97h-4.91l-.03,21.8h3.83c2.63.11,5.32-.75,6.9-2.23,1.46-1.33,2.34-4.13,2.34-7.4h1.17v10.81h-25.3v-1.19Z"/><path class="cls-1" d="M370.28,125.98h3.93v-21.83l-3.93-.04v-.9h15.99v.97h-4.91l-.03,21.8h3.83c2.63.11,5.32-.75,6.9-2.23,1.46-1.33,2.34-4.13,2.34-7.4h1.17v10.81h-25.3v-1.19Z"/><path class="cls-1" d="M440.73,106.3c2.26,2.15,3.42,5.06,3.42,8.65,0,7.68-5.71,12.71-14.46,12.71-4.42,0-8.52-1.51-11-4.09-2.23-2.26-3.32-5.21-3.32-8.91,0-7.36,5.84-12.5,14.2-12.5,4.45,0,8.39,1.47,11.16,4.13ZM424.21,106.48c-1.03,1.87-1.74,5.39-1.74,8.55,0,4.24.81,7.58,2.29,9.41,1.23,1.51,3,2.33,4.97,2.33,2.52,0,4.36-1.04,5.55-3.2,1.1-1.9,1.81-5.46,1.81-8.87,0-3.7-.74-6.97-2.03-9.01-1.06-1.69-2.84-2.55-5.16-2.55-2.68,0-4.45,1.04-5.68,3.34Z"/><path class="cls-1" d="M462.85,125.98c.19-.04.34-.04.41-.07,2.71-.18,3.36-1.15,3.55-5.17v-15.01l-1.68-1.33h-2.27v-1.19h11.37l13.93,13.54v-8.12c-.06-3.77-.69-4.38-4.49-4.24v-1.19h8.44v1.19h-.37c-2.21-.07-2.71.72-2.74,4.31v18.82h-.94l-20.22-20.72v13.93c0,4.02.87,4.99,4.55,5.24v1.19h-9.53v-1.19Z"/></g></svg>