<?xml version="1.0" encoding="UTF-8"?><svg id="Layer_2" xmlns="http://www.w3.org/2000/svg" viewBox="0 0 596.97 106.44"><defs><style>.cls-1{fill:#fff;stroke-width:0px;}</style></defs><g id="Layer_1-2"><path class="cls-1" d="M39.17,104.4l-2.61-2.72-1.36-5.45-3.29-2.72-.91-2.27-3.41-1.36-1.7-3.97-3.18-2.84-3.52-1.02-4.2-8.86-2.04-1.82.45-4.43-3.97-3.75L0,43.2v-3.07c1.06-2.5,2.02-4.69,2.9-6.59.87-1.89,1.68-4.31,2.44-7.27l1.7-1.7c.6-1.14,1.29-2.63,2.04-4.48.76-1.85,1.17-3.42,1.25-4.71l3.63-6.24,2.16-1.59,3.41-6.81,16.58.57.91-.79c.38.15,1.04.36,1.99.62.95.27,1.61.32,1.99.17,0,.76-.11,1.78-.34,3.07-.23,1.29-.51,2.61-.85,3.97s-.76,2.61-1.25,3.75c-.49,1.14-1,1.97-1.53,2.5.15.53.17,1.19.06,1.99s-.28,1.61-.51,2.44c-.23.83-.47,1.63-.74,2.38-.27.76-.51,1.44-.74,2.04-.23-.3-.57-.45-1.02-.45h-.68l-3.63-9.42c-.23,0-.49-.04-.79-.11-.61-.15-.95-.26-1.02-.34-1.06,1.82-2.03,3.77-2.9,5.85-.87,2.08-1.61,4.14-2.21,6.19l-1.02.79,1.25.91-1.02.79c-.68,2.57-1.33,5.11-1.93,7.61-.61,2.5-1.48,4.92-2.61,7.27.76,1.97,1.48,3.82,2.16,5.56.68,1.74,1.31,3.48,1.87,5.22.57,1.74,1.08,3.52,1.53,5.34.45,1.82.83,3.75,1.14,5.79,1.06,1.06,1.8,2.1,2.21,3.12.41,1.02.74,2.04.97,3.07.23,1.02.43,2.06.62,3.12.19,1.06.55,2.16,1.08,3.29.6,1.29,1.27,2.46,1.99,3.52.72,1.06,1.42,2.12,2.1,3.18.68,1.06,1.31,2.18,1.87,3.35.57,1.17,1,2.55,1.31,4.14h1.93l5.68,15.21-4.77-2.04Z"/><path class="cls-1" d="M93.1,47.52c.07,1.51.07,3.05,0,4.6-.08,1.55-.04,3.09.11,4.6.07.53.09,1.27.06,2.21-.04.95-.1,1.93-.17,2.95-.08,1.02-.17,2.01-.28,2.95-.11.95-.17,1.76-.17,2.44l-.68.79.91.91.23,20.21-1.48.57-5.56-4.77-2.38-.57-2.04-2.84-.11-2.61-1.02-.91.91-11.35-1.25-3.29.79-.79-.23-2.5-.91-.91.68-1.59-.34-3.29-6.36-1.7c-.76.38-1.91.64-3.46.79-1.55.15-2.74.15-3.58,0l-1.14-.79-2.27,1.7-.68,2.38,1.48,5-1.36,14.19.91,2.27c-.08.83-.11,1.87-.11,3.12s-.04,2.44-.11,3.58c-.08,1.36-.11,2.72-.11,4.09l-1.36.91-4.54-4.31-4.09-2.38-1.14-2.61c-.3-.45-.51-.85-.62-1.19-.11-.34-.17-.66-.17-.97s-.02-.62-.06-.97c-.04-.34-.13-.66-.28-.96l.57-12.26-1.02-.79v-7.95l-.45-5.9-.23-4.43c.38-3.25.51-6.6.4-10.05-.11-3.44-.36-6.79-.74-10.05l.79-.68-1.14-4.09-3.75-6.24.23-2.84c2.65-.38,5.35-.66,8.12-.85,2.76-.19,5.43.02,8,.62l.91.91.68,28.38c.38.53.79,1.1,1.25,1.7.45.61.98,1.14,1.59,1.59,1.44-.38,2.97-.66,4.6-.85,1.63-.19,3.2-.21,4.71-.06l1.02.91,2.5-1.82,1.14-4.77c-.98-2.42-1.51-4.81-1.59-7.15-.08-2.35.15-4.73.68-7.15l-.57-4.88-1.59-5,1.48-1.82,11.24-.68,2.16,1.48c1.06,4.01,1.57,8.02,1.53,12.04-.04,4.01-.25,8.06-.62,12.15l.91.91.23,2.61-1.59,1.48,1.25,3.29.91.91-1.59,2.38Z"/><path class="cls-1" d="M142.94,89.64c-.3-.15-.76-.44-1.36-.85-.61-.42-1.44-.89-2.5-1.42-.15-.15-.34-.38-.57-.68-.23-.3-.42-.49-.57-.57-.3-.15-.51-.15-.62,0-.11.15-.32.19-.62.11-.45-.23-.91-.57-1.36-1.02s-.87-.95-1.25-1.48c-.45-.6-.91-1.25-1.36-1.93l-2.16-.91.68-1.25-1.82-1.82c-.61-1.89-1.29-3.82-2.04-5.79-.61-1.66-1.27-3.42-1.99-5.28-.72-1.85-1.38-3.54-1.99-5.05l-.11-1.7-1.82-1.59-3.97,2.61-1.25,1.82,1.14,2.38c-.23,1.74-.49,2.97-.79,3.69-.3.72-.57,1.27-.79,1.65-.23.38-.36.81-.4,1.31-.04.49.09,1.38.4,2.67l-1.7,1.93,1.82.57-.11,12.04-2.61-.34-1.93-1.93-1.7-2.16-2.61-.45c0-.15-.11-.4-.34-.74-.23-.34-.45-.7-.68-1.08-.3-.45-.61-.91-.91-1.36l-.23-8.52-.91-.79c.6-1.44.72-3.03.34-4.77l-.91-.79,1.36-4.43c-.23-.83-.51-1.82-.85-2.95-.34-1.14-.51-2.12-.51-2.95-.15-1.74-.1-3.54.17-5.39.26-1.85.43-3.65.51-5.39.07-3.63.06-7.23-.06-10.79-.11-3.56-.21-7.15-.28-10.79l.79-.79-1.25-1.14-2.04-9.31,3.52-1.36,3.41.79,8.17-.79,1.82.79c1.74-.38,3.22-.57,4.43-.57s2.35.08,3.41.23c1.06.15,2.12.28,3.18.4,1.06.11,2.27.1,3.63-.06l.68-.79c.6.3,1.15.78,1.65,1.42.49.64,1,1.36,1.53,2.16.53.79,1.1,1.57,1.7,2.33.6.76,1.29,1.36,2.04,1.82l-.34,4.31-.79.91.91.79-.34,9.2,1.25,4.09-1.25,3.07.79,1.7c-.08.68-.36,1.44-.85,2.27-.49.83-1.04,1.67-1.65,2.5-.61.83-1.23,1.59-1.87,2.27-.64.68-1.19,1.25-1.65,1.7l-.57,2.5,3.63,12.38.23,2.5,2.04,3.86-.34,1.36,1.36,1.02,3.41,12.72-1.36,1.93ZM126.37,26.12c-.3-.72-.53-1.27-.68-1.65l.57-2.61-1.8-1.48h-2.02l-1.57.79-2.13-.79h-.79l-1.57,1.48c-.08,1.52-.13,3.09-.17,4.71-.04,1.63.17,3.12.62,4.48l-1.48,2.61.91.79c-.15.76-.25,1.61-.28,2.55-.04.95-.04,1.93,0,2.95.04,1.02.17,2.01.4,2.95.23.95.49,1.76.79,2.44l-.79.79.45,4.2c.6-.76,1.29-1.48,2.08-2.16.78-.68,1.61-1.32,2.47-1.93.86-.6,1.7-1.25,2.52-1.93.82-.68,1.5-1.4,2.02-2.16l.57-3.29-.91-.79.68-.91c-.15-.68-.21-1.4-.17-2.16.04-.76.09-1.51.17-2.27l-1.02-3.29,1.48-1.7c.07-.38-.04-.93-.34-1.65Z"/><path class="cls-1" d="M189.04,71.93l-.68.91.79.68-.79,9.08-1.7,1.82-6.36,1.93-8.74-.11-1.59.45-5-1.59-2.61,1.48c-1.06-.15-2.35-.3-3.86-.45-1.51-.15-2.76-.3-3.75-.45l-3.63-3.63-.68-5.79-1.02-1.82.45-3.41-.91-3.97c.15-2.27.26-4.45.34-6.53.07-2.08.3-4.26.68-6.53l-1.14-1.59.45-5.79-1.02-.91,1.14-11.69c-.76-3.86-.97-7.42-.62-10.67.34-3.25.62-5.71.85-7.38l3.29-3.29,4.88-1.14c.91-.07,1.82-.15,2.72-.23.83-.07,1.7-.19,2.61-.34.91-.15,1.82-.3,2.72-.45l1.02,1.02,3.18-1.02,7.49,1.02.91-1.02,3.41,1.02.68-1.02,4.77,3.18,1.14,5.34.79.79-1.36,2.5,1.14,2.61-.45,8.63,1.02.91-.91,9.88.91.91-.68,5.22c.23.38.4.91.51,1.59.11.68.19,1.38.23,2.1.04.72.06,1.44.06,2.16v1.76l-.79.79.91.68-.79,12.38ZM176.32,58.99c-.15-.91-.42-1.87-.79-2.9-.38-1.02-.61-1.99-.68-2.9-.08-1.44.02-2.97.28-4.6.26-1.63.47-3.2.62-4.71l-.91-.68.45-12.49-.79-.79.68-.91-1.14-4.09.68-.79-.8-1.02.69-.79-.23-1.59-.8-.91-5.84.91-3.55-.91-2.06,3.29.91,1.02-.91,19.07.91.68c.07.23.09.59.06,1.08-.04.49-.08,1-.11,1.53-.04.53-.1,1.04-.17,1.53-.08.49-.11.85-.11,1.08l.91.79c.15,2.42.15,4.86,0,7.32-.15,2.46-.38,4.86-.68,7.21l.8.79c.15,1.06.21,2.08.17,3.07-.04.98-.08,1.97-.12,2.95-.04.98,0,1.93.12,2.84.11.91.44,1.82.97,2.72h1.72c.53-.38,1.09-.59,1.66-.62.57-.04,1.12.02,1.66.17.61.23,1.26.49,1.95.79l3.67-1.25c.07-1.36.17-2.86.28-4.48.11-1.63.23-3.24.34-4.82.11-1.59.19-3.07.23-4.43.04-1.36.02-2.42-.06-3.18Z"/><path class="cls-1" d="M258.86,1.19c-.3.53-.7,1.44-1.19,2.72-.49,1.29-.93,2.65-1.31,4.09-.38,1.44-.66,2.78-.85,4.03s-.17,2.18.06,2.78l-.79.91,1.59,2.73-.79,2.72,1.02,2.95-.91,1.7,1.14,7.49-.91.91-1.25,3.52.91.91c-.61,1.67-.89,3.62-.85,5.85.04,2.23.19,4.56.45,6.98.26,2.42.47,4.86.62,7.32.15,2.46.04,4.79-.34,6.98l.91,2.84c-.68,2.57-1,5.39-.96,8.46.04,3.07.11,6.11.22,9.14.11,3.03.19,5.9.23,8.63.04,2.72-.28,5.11-.96,7.15l-3.15-3.63-2.81-7.04-3.15-3.52-.45-3.63-1.8-3.18c-.3-1.29-.43-2.82-.39-4.6.04-1.78.36-3.24.96-4.37l.9-.79-.9-1.02c-.83-2.42-1.37-5.17-1.64-8.23-.27-3.07-.1-5.85.51-8.35l.79-1.02-1.02-4.66.91-.91-1.02-4.77.91-.68c.07-1.06.02-2.14-.17-3.24-.19-1.1-.36-2.18-.51-3.24-1.07.91-2.08,2.54-3.03,4.88-.95,2.35-1.89,4.79-2.8,7.32-.92,2.54-1.81,4.86-2.69,6.98-.88,2.12-1.74,3.41-2.57,3.86l1.37,2.73-5.49,9.88c-.98-1.29-1.95-2.67-2.9-4.14-.95-1.48-1.76-3.01-2.44-4.6-.68-1.59-1.19-3.22-1.53-4.88-.34-1.66-.4-3.33-.17-5l-3.07-4.88v-5.22l-2.95-2.5-1.7-5-1.14-.91c-.76,4.01-.93,7.95-.51,11.81.41,3.86.81,7.83,1.19,11.92.23,3.25.09,6.45-.4,9.59-.49,3.14-.7,6.38-.62,9.71.07,1.97.21,3.82.4,5.56.19,1.74.34,3.46.45,5.17.11,1.7.15,3.46.11,5.28-.04,1.82-.17,3.78-.4,5.9l-6.7-8.06c-.38-2.8-1.16-5.68-2.33-8.63-1.17-2.95-2.48-5.64-3.92-8.06.68-1.97,1.04-4.01,1.08-6.13.04-2.12-.02-4.29-.17-6.53-.15-2.23-.25-4.48-.28-6.76-.04-2.27.24-4.47.85-6.59-.53-1.14-.91-2.84-1.14-5.11-.23-2.27-.32-4.69-.28-7.27.04-2.57.15-5.01.34-7.32.19-2.31.4-4.07.62-5.28l-1.02-.91c.23-.6.41-1.38.57-2.33.15-.95.11-1.76-.11-2.44l1.02-.79-1.14-.91.23-5.56-2.95-7.04,3.41-1.93,14.87.57,1.02-.91h2.61l2.16,1.93-.79,2.72,2.16,3.75-.57,2.72.91,1.14-.57,2.61,2.04,3.75-.79.91c.45.91.91,2.08,1.36,3.52.45,1.44.64,2.69.57,3.75l1.02.91-.79,1.82c.6,1.06,1.04,1.99,1.31,2.78.26.79.47,1.59.62,2.38.15.79.34,1.63.57,2.5.23.87.61,1.87,1.14,3.01l.92-2.95-.46-2.04c.99-2.65,1.81-5.09,2.46-7.32.65-2.23,1.24-4.33,1.78-6.3.08-.15.29-.32.63-.51.34-.19.55-.36.63-.51.15-.38.11-.7-.12-.97-.23-.26-.31-.59-.23-.97.38-1.59.74-3.22,1.09-4.88.34-1.66.74-3.44,1.2-5.34l-1.14-.79,1.37-6.7,4.58-.91.8.91c2.55-.98,5.29-1.49,8.22-1.53,2.93-.04,5.68.36,8.25,1.19Z"/><path class="cls-1" d="M306.77,89.53l-5.34-3.29-2.72-3.07-2.73-1.25-2.27-5.34v-2.72l-3.07-7.27-1.93-1.59h-1.7l-.91.79-1.7-.79-6.36.79-1.02-.79-2.04,13.4-1.36,11.47-2.04.57-2.16-3.63-1.7-3.07-1.93-3.07c-.3-1.21-.49-2.5-.57-3.86-.08-1.14-.06-2.46.06-3.97.11-1.51.47-3.07,1.08-4.66l-.91-.91,1.36-3.41.57-4.77,1.02-5.22v-5.56l2.38-4.2.79-9.99,1.02-4.2-.57-3.18,2.5-5.22c-.45-1.36-.78-3.12-.97-5.28-.19-2.16-.21-3.92-.06-5.28,3.63-.38,7-.53,10.11-.45,3.1.08,6.47.19,10.1.34l.79,1.02,4.77,29.52.91.79-.57,2.73,1.93,11.58.79.79-.68.79,2.95,11.58-.45,2.61,1.93,2.38c.07.38.19,1.31.34,2.78.15,1.48.3,3.05.45,4.71.15,1.67.28,3.16.4,4.48.11,1.32.17,2.02.17,2.1l-.68.79ZM288.1,47.57c-.42-2.08-.78-4.14-1.08-6.19-.23-1.51-.34-3.03-.34-4.54s-.11-3.03-.34-4.54c0-.07-.1-.3-.28-.68-.19-.38-.38-.78-.57-1.19-.19-.42-.36-.83-.51-1.25-.15-.41-.27-.66-.34-.74l-4.09,11.69-.34,2.38v2.04c-.53,1.51-.91,3.1-1.14,4.77-.23,1.67-.42,3.26-.57,4.77l5.11.91,5.68-1.25c-.38-2.04-.78-4.1-1.19-6.19Z"/><path class="cls-1" d="M351.39,89.64l-4.09-2.27-3.07-4.2-3.41-1.14-4.2-9.08-2.84-3.97-3.41-4.2-5.68-10.67-1.48.45v7.04l.91.79c-.23,2.5-.46,4.77-.68,6.81-.15,1.74-.27,3.46-.34,5.17s-.04,2.86.11,3.46l1.02.91c-.08.91-.15,1.89-.23,2.95-.08,1.06-.15,2.08-.23,3.07-.08,1.14-.15,2.27-.23,3.41l-1.02,1.14-4.88-2.61-3.41-1.25-1.82-2.5-.23-6.47.91-2.16-1.25-4.31.79-.79-1.02-2.61,1.59-7.38-.91-.91c0-.91.06-2.12.17-3.63.11-1.51.19-3.07.23-4.65.04-1.59.06-3.1.06-4.54s-.08-2.54-.23-3.29l-.91-.91,1.36-3.29-1.02-2.61c.3-1.44.45-2.54.45-3.29s-.15-1.82-.45-3.18l.79-1.02-1.02-.79.79-4.2-3.07-6.36-1.14-4.77,9.08-1.14,3.52.91.68-.91,2.61.91c.83,1.36,1.44,2.84,1.82,4.43.38,1.59.72,3.2,1.02,4.82.3,1.63.7,3.22,1.19,4.77.49,1.55,1.23,2.93,2.21,4.14l-.57,2.61c.83,1.97,1.53,3.58,2.1,4.82s1.23,2.9,1.99,4.94l.46,3.52,1.82,1.59-.57,2.72,3.07,5.34.91.79.68-3.63-1.14-3.41,1.48-2.5-1.02-2.61.46-3.07.79-.91-1.14-2.61.45-3.41-1.02-2.5.57-3.52.8-.79-1.36-5,1.25-2.84-2.95-5-.23-1.82,1.48-1.82,3.29.91,5.91-.91,3.18,1.25-.46,22.71.91.91-.23,22.82,1.02.91-1.48,2.5,1.02,2.61-.57,10.79,1.02,13.96-1.02.57Z"/><path class="cls-1" d="M395.56,15.5l-1.82,1.59-.34,3.41-4.31.34-1.02-.91-4.09,1.14c-.08,2.42-.17,4.9-.28,7.44-.11,2.54-.1,5.02.06,7.44,0,.23.06.53.17.91.11.38.26.79.45,1.25.19.45.34.87.45,1.25.11.38.17.64.17.79.07,2.65-.11,5.51-.57,8.57-.45,3.07-.76,5.96-.91,8.69l.8.79-.11,5.79.79.79c-.53,1.97-.83,3.65-.91,5.05-.08,1.4-.08,2.72,0,3.97.07,1.25.19,2.55.34,3.92.15,1.36.15,3.03,0,5-.08.83-.06,1.84.06,3.01.11,1.17-.02,2.17-.4,3.01l-2.04.91-9.31-5.34-.57-2.61.11-6.13-.8-3.18c.07-.3.19-.68.34-1.14.3-.98.49-2.04.57-3.18l-1.25-2.27c.07-.76.17-1.8.28-3.12.11-1.32.21-2.69.28-4.09.07-1.4.11-2.74.11-4.03s-.08-2.23-.23-2.84l.79-.68-2.04-11.81,1.14-4.88-.91-1.59v-10.67l-4.66-.23h-3.86l-3.07-4.09.79-.91-1.93-3.18.68-1.48,6.47.57c.45-.38,1-.7,1.65-.96.64-.26,1.23-.47,1.76-.62l2.61.79,5.11-.91.91.79,3.29-.79c1.74.38,3.88.55,6.42.51,2.53-.04,4.67-.36,6.41-.97l3.18,1.02-.79,3.86Z"/><path class="cls-1" d="M420.31,82.94c-.15,1.89-.19,3.37-.11,4.43.07,1.66-.34,2.57-1.25,2.72-.91.15-2.16-.3-3.75-1.36-.15-.15-.38-.49-.68-1.02-.3-.53-.53-.87-.68-1.02-.38-.23-.68-.23-.91,0-.23.23-.53.26-.91.11-1.29-.68-2.33-1.31-3.12-1.87-.8-.57-1.5-1.61-2.1-3.12l1.02-4.88-.91-8.63.34-23.96-.91-.68,1.48-2.61-1.59-10.9.8-.68-.11-.91-.91-.91,1.59-2.38-.11-1.82-.91-.79.8-.57c-.53-1.59-1.19-3.14-1.99-4.66-.79-1.51-1.57-2.99-2.33-4.43l1.36-1.59,9.99-.34c.68.38,1.49.66,2.44.85.95.19,1.83.21,2.67.06l.34,11.69-.68.91,1.14,4.2-.8.91v.68l.91.91-.79,9.99.91,2.61-.57,2.38-.91.91,1.02.91-.57,3.97,1.25,5-1.48,4.2,1.14,3.41-.57,9.42.91.91c-.15,3.41-.3,6.06-.45,7.95Z"/><path class="cls-1" d="M460.27,81.92l-1.59,1.7-5.22,3.18-5.45-1.25-3.75,1.7-12.04-.79-2.04-6.59.91-3.63-1.02-2.38-.23-14.99.23-10.9-.11-3.75c.07-1.66.09-3.52.06-5.56-.04-2.04-.1-4.01-.17-5.9-.08-2.19-.11-4.39-.11-6.59l1.48-1.7-1.59-3.07,1.02-7.72,1.93-1.36,6.7-.34,18.17-.57,2.72.45,1.48,1.82-4.43,13.85-1.36-.23c-.68-.83-1.4-1.66-2.16-2.5-.61-.76-1.23-1.55-1.87-2.38-.64-.83-1.23-1.55-1.76-2.16-.23-.15-.61-.25-1.14-.28-.53-.04-1.1-.02-1.7.06-.68.08-1.44.19-2.27.34-.53,1.21-.99,2.46-1.36,3.75-.38,1.06-.64,2.23-.79,3.52-.15,1.29-.15,2.46,0,3.52l.57,2.38c-.3,1.21-.51,2.23-.62,3.07-.11.83-.17,1.63-.17,2.38s.04,1.57.11,2.44c.07.87.15,1.91.23,3.12.15,1.59.21,3.5.17,5.73-.04,2.23-.1,4.79-.17,7.66,0,.3-.15.78-.45,1.42-.3.64-.45,1.08-.45,1.31,0,.3.19.59.57.85.38.27.53.55.45.85,0,1.74.06,3.35.17,4.83.11,1.48.24,2.82.4,4.03.15,1.36.3,2.65.45,3.86l1.59,2.16,10.79.91,5.11-.45,1.59,1.36-2.84,2.84Z"/><path class="cls-1" d="M508.75,71.93l-.68.91.8.68-.8,9.08-1.7,1.82-6.36,1.93-8.74-.11-1.59.45-5-1.59-2.61,1.48c-1.06-.15-2.35-.3-3.86-.45-1.51-.15-2.76-.3-3.75-.45l-3.63-3.63-.68-5.79-1.02-1.82.45-3.41-.91-3.97c.15-2.27.26-4.45.34-6.53.07-2.08.3-4.26.68-6.53l-1.14-1.59.45-5.79-1.02-.91,1.14-11.69c-.76-3.86-.97-7.42-.62-10.67.34-3.25.62-5.71.85-7.38l3.29-3.29,4.88-1.14c.91-.07,1.82-.15,2.72-.23.83-.07,1.7-.19,2.61-.34.91-.15,1.82-.3,2.72-.45l1.02,1.02,3.18-1.02,7.49,1.02.91-1.02,3.41,1.02.68-1.02,4.77,3.18,1.14,5.34.79.79-1.36,2.5,1.14,2.61-.45,8.63,1.02.91-.91,9.88.91.91-.68,5.22c.23.38.4.91.51,1.59.11.68.19,1.38.23,2.1.04.72.06,1.44.06,2.16v1.76l-.79.79.91.68-.8,12.38ZM496.04,58.99c-.15-.91-.42-1.87-.79-2.9-.38-1.02-.61-1.99-.68-2.9-.08-1.44.02-2.97.28-4.6.26-1.63.47-3.2.62-4.71l-.91-.68.45-12.49-.8-.79.68-.91-1.14-4.09.68-.79-.8-1.02.69-.79-.23-1.59-.8-.91-5.84.91-3.55-.91-2.06,3.29.91,1.02-.91,19.07.91.68c.07.23.09.59.06,1.08-.04.49-.08,1-.11,1.53-.04.53-.1,1.04-.17,1.53-.08.49-.11.85-.11,1.08l.91.79c.15,2.42.15,4.86,0,7.32-.15,2.46-.38,4.86-.68,7.21l.8.79c.15,1.06.21,2.08.17,3.07-.04.98-.08,1.97-.12,2.95-.04.98,0,1.93.12,2.84.11.91.44,1.82.97,2.72h1.72c.53-.38,1.09-.59,1.66-.62.57-.04,1.13.02,1.66.17.61.23,1.26.49,1.95.79l3.67-1.25c.07-1.36.17-2.86.28-4.48.11-1.63.23-3.24.34-4.82.11-1.59.19-3.07.23-4.43.04-1.36.02-2.42-.06-3.18Z"/><path class="cls-1" d="M556.89,89.64c-.3-.15-.76-.44-1.36-.85-.61-.42-1.44-.89-2.5-1.42-.15-.15-.34-.38-.57-.68s-.42-.49-.57-.57c-.3-.15-.51-.15-.62,0-.11.15-.32.19-.62.11-.45-.23-.91-.57-1.36-1.02-.45-.45-.87-.95-1.25-1.48-.45-.6-.91-1.25-1.36-1.93l-2.16-.91.68-1.25-1.82-1.82c-.61-1.89-1.29-3.82-2.04-5.79-.61-1.66-1.27-3.42-1.99-5.28-.72-1.85-1.38-3.54-1.99-5.05l-.11-1.7-1.82-1.59-3.97,2.61-1.25,1.82,1.14,2.38c-.23,1.74-.49,2.97-.8,3.69-.3.72-.57,1.27-.79,1.65-.23.38-.36.81-.4,1.31-.04.49.09,1.38.4,2.67l-1.7,1.93,1.82.57-.11,12.04-2.61-.34-1.93-1.93-1.7-2.16-2.61-.45c0-.15-.11-.4-.34-.74-.23-.34-.45-.7-.68-1.08-.3-.45-.61-.91-.91-1.36l-.23-8.52-.91-.79c.6-1.44.72-3.03.34-4.77l-.91-.79,1.36-4.43c-.23-.83-.51-1.82-.85-2.95-.34-1.14-.51-2.12-.51-2.95-.15-1.74-.09-3.54.17-5.39.26-1.85.43-3.65.51-5.39.07-3.63.06-7.23-.06-10.79-.11-3.56-.21-7.15-.28-10.79l.8-.79-1.25-1.14-2.04-9.31,3.52-1.36,3.41.79,8.17-.79,1.82.79c1.74-.38,3.22-.57,4.43-.57s2.34.08,3.41.23c1.06.15,2.12.28,3.18.4,1.06.11,2.27.1,3.63-.06l.68-.79c.6.3,1.15.78,1.65,1.42.49.64,1,1.36,1.53,2.16s1.1,1.57,1.7,2.33c.6.76,1.29,1.36,2.04,1.82l-.34,4.31-.79.91.91.79-.34,9.2,1.25,4.09-1.25,3.07.79,1.7c-.08.68-.36,1.44-.85,2.27-.49.83-1.04,1.67-1.65,2.5-.61.83-1.23,1.59-1.87,2.27-.64.68-1.19,1.25-1.65,1.7l-.57,2.5,3.63,12.38.23,2.5,2.04,3.86-.34,1.36,1.36,1.02,3.41,12.72-1.36,1.93ZM540.32,26.12c-.3-.72-.53-1.27-.68-1.65l.57-2.61-1.8-1.48h-2.02l-1.57.79-2.13-.79h-.79l-1.57,1.48c-.08,1.52-.13,3.09-.17,4.71-.04,1.63.17,3.12.62,4.48l-1.48,2.61.91.79c-.15.76-.25,1.61-.28,2.55-.04.95-.04,1.93,0,2.95.04,1.02.17,2.01.4,2.95.23.95.49,1.76.79,2.44l-.79.79.45,4.2c.6-.76,1.29-1.48,2.08-2.16.78-.68,1.61-1.32,2.47-1.93.86-.6,1.7-1.25,2.52-1.93.82-.68,1.5-1.4,2.02-2.16l.57-3.29-.91-.79.68-.91c-.15-.68-.21-1.4-.17-2.16.04-.76.09-1.51.17-2.27l-1.02-3.29,1.48-1.7c.07-.38-.04-.93-.34-1.65Z"/><path class="cls-1" d="M595.38,81.13l-3.18,1.93-1.14,1.7-5.22,1.93-1.93-1.02-1.59.91h-12.83l-2.38-1.59-.34-6.81-.8-4.54c.15-.68.3-1.51.45-2.5.15-.98.26-2,.34-3.07.07-1.06.11-2.1.11-3.12s-.11-1.87-.34-2.55l-.91-.79,1.14-6.7c-.23-2.27-.34-3.82-.34-4.66,0-.53.04-.95.11-1.25l-.23-2.61.11-5.56-1.14-.91c.38-3.1.6-6.02.68-8.74.07-2.72-.27-5.56-1.02-8.52l-3.52-8.63,1.48-2.27c1.06-.15,2.23-.24,3.52-.28,1.29-.04,2.59-.06,3.92-.06s2.57-.06,3.75-.17c1.17-.11,2.18-.28,3.01-.51l1.93.79,6.81-.79,1.02.79c.38-.15.87-.28,1.48-.4.6-.11,1.25-.19,1.93-.23.68-.04,1.32-.06,1.93-.06s1.1.04,1.48.11l1.36,1.48-2.5,5.11c-.38.3-.98.79-1.82,1.48-.83.68-1.4,1.25-1.7,1.7-1.21-.38-2.67-.51-4.37-.4-1.7.11-3.2.25-4.49.4l-1.7,4.2.91.79.23,1.7-.79.79.91.91-.57,7.83c.15.3.4.85.74,1.65.34.79.47,1.34.4,1.65l1.93,1.7,7.83-.79,2.04.79-1.25,5.9-2.04,2.04-4.09.45-.8.91-.91-.91-3.07,3.29v7.49l.57,5.11-.79,2.38,1.25,3.75-.91.91.34,3.97,4.31.79,5.68-.79.91.79c.53-.15,1.44-.3,2.72-.45.68-.07,1.4-.15,2.16-.23l.8,1.25-1.59,2.5Z"/></g></svg>