<?xml version="1.0" encoding="UTF-8"?><svg id="Layer_2" xmlns="http://www.w3.org/2000/svg" viewBox="0 0 293.23 83.94"><defs><style>.cls-1{fill:#fff;}</style></defs><g id="Layer_1-2"><path class="cls-1" d="M89.51,26.53V0h-32.56c-7.98,0-14.47,6.49-14.47,14.47v26.53h32.56c7.98,0,14.47-6.49,14.47-14.47ZM80.6,8.14v16.1c0,6.6-2.01,8.61-8.61,8.61h-20.6v-16.1c0-6.04,2.58-8.61,8.61-8.61h20.6Z"/><path class="cls-1" d="M35.53,32.85h-18.01c-5.8,0-8.61-2.82-8.61-8.61V8.14h26.62V0H0v26.53c0,7.98,6.49,14.47,14.47,14.47h21.06v-8.14Z"/><path class="cls-1" d="M16.08,69.47c0,7.98,6.49,14.47,14.47,14.47h21.06v-8.14h-18.01c-5.8,0-8.61-2.82-8.61-8.61v-16.1h26.62v-8.14H16.08v26.53Z"/><polygon class="cls-1" points="104.41 15.57 96.27 7.42 96.27 41 104.41 41 104.41 15.57"/><polygon class="cls-1" points="222.79 15.57 214.65 7.42 214.65 41 222.79 41 222.79 26.96 228.18 26.96 228.18 18.82 222.79 18.82 222.79 15.57"/><polygon class="cls-1" points="113.77 0 197.71 83.94 209.22 83.94 125.28 0 113.77 0"/><polygon class="cls-1" points="93.5 0 177.44 83.94 188.96 83.94 105.02 0 93.5 0"/><polygon class="cls-1" points="211.88 0 252.88 41 264.39 41 223.4 0 211.88 0"/><polygon class="cls-1" points="72.48 58.51 64.34 50.37 64.34 83.94 72.48 83.94 72.48 69.91 77.87 69.91 77.87 61.76 72.48 61.76 72.48 58.51"/><polygon class="cls-1" points="61.58 42.94 102.57 83.94 114.09 83.94 73.09 42.94 61.58 42.94"/><path class="cls-1" d="M138.67,58.47h-.49v-1.05c0-7.98-6.49-14.47-14.47-14.47h-21.22v19.67l8.94,8.94-.02-3.98c0-.11,0-.2-.01-.3v-.1s0-16.1,0-16.1h9.26c5.61,0,8.22,2.23,8.57,7.38h-5.39v8.14h11.78c4.8,0,8.14,2.55,8.14,4.85,0,2.52-3.42,4.34-8.14,4.34h-19.94l8.14,8.14h14.86c5.62,0,14.29-5.39,14.29-12.56s-7.86-12.91-14.29-12.91Z"/><path class="cls-1" d="M167.22,24.64c0-.11,0-.2-.01-.3v-.1s0-16.1,0-16.1h9.26c5.61,0,8.22,2.23,8.57,7.38h-5.39v8.14h11.78c4.8,0,8.14,2.55,8.14,4.85,0,2.52-3.42,4.34-8.14,4.34h-19.94l8.14,8.14h14.86c5.62,0,14.29-5.39,14.29-12.56s-7.86-12.91-14.29-12.91h-.49v-1.05c0-7.98-6.49-14.47-14.47-14.47h-21.22v19.67l8.94,8.94-.02-3.98Z"/><polygon class="cls-1" points="285.47 0 250.91 0 250.91 8.14 277.53 8.14 277.5 41 286.44 41 286.44 8.02 293.23 8.03 285.47 0"/></g></svg>