<?xml version="1.0" encoding="UTF-8"?><svg id="Layer_2" xmlns="http://www.w3.org/2000/svg" viewBox="0 0 246 246"><defs><style>.cls-1{fill:#fff;stroke-width:0px;}</style></defs><g id="Layer_1-2"><path class="cls-1" d="M123,0C55.18,0,0,55.18,0,123s55.18,123,123,123,123-55.18,123-123S190.82,0,123,0ZM123,242c-65.62,0-119-53.38-119-119S57.38,4,123,4s119,53.38,119,119-53.38,119-119,119Z"/><path class="cls-1" d="M212.17,123c0-49.17-40-89.17-89.17-89.17S33.83,73.83,33.83,123s40,89.17,89.17,89.17,89.17-40,89.17-89.17ZM123,209.17c-47.51,0-86.17-38.66-86.17-86.17S75.49,36.83,123,36.83s86.17,38.66,86.17,86.17-38.66,86.17-86.17,86.17Z"/><path class="cls-1" d="M226.87,100.72l.25-.04c.46-.07,1,.42,1.63,1.47.63,1.05,1.04,2.13,1.21,3.24.24,1.55.05,2.93-.59,4.12-.63,1.2-1.65,1.91-3.06,2.13-1.42.22-2.61-.14-3.57-1.08-.96-.94-1.56-2.19-1.81-3.76-.14-.89-.14-1.76,0-2.62s.33-1.5.57-1.92c.24-.42.42-.66.52-.72.1-.06.28-.11.52-.15l.14-.3-3.14-1.5-.14.28c.03.05.07.13.12.23.05.1.09.21.11.34-.02.16-.08.38-.15.64-.08.27-.21.69-.41,1.28-.19.59-.33,1.35-.42,2.29-.09.94-.05,1.89.09,2.85.37,2.37,1.27,4.26,2.7,5.68,1.43,1.42,3.21,1.96,5.35,1.62,2.12-.33,3.66-1.39,4.59-3.19s1.22-3.87.85-6.22c-.17-1.09-.5-2.11-.98-3.06-.48-.96-.93-1.72-1.36-2.28-.43-.56-.66-.88-.71-.96-.04-.08-.07-.15-.08-.23-.02-.1,0-.19.05-.28.05-.09.09-.17.13-.25l-.24-.22-2.4,2.37.2.25Z"/><path class="cls-1" d="M218.18,80.68c-1.18.42-2.17,1.14-2.95,2.16-.79,1.02-1.24,2.03-1.35,3.02-.11.99-.11,1.86.01,2.59s.31,1.48.58,2.24c.77,2.18,2,3.81,3.68,4.89,1.68,1.08,3.51,1.27,5.49.57,1.18-.42,2.17-1.14,2.95-2.16.79-1.02,1.24-2.03,1.35-3.03.12-1,.11-1.87-.01-2.59-.12-.73-.32-1.47-.59-2.22-.77-2.18-2-3.81-3.68-4.89-1.68-1.08-3.51-1.27-5.49-.57ZM222.82,83.94c1.13.62,1.93,1.6,2.4,2.94.48,1.36.47,2.63-.03,3.81s-1.37,1.99-2.61,2.43c-1.27.45-2.46.37-3.58-.25-1.12-.61-1.92-1.6-2.4-2.96-.48-1.37-.49-2.64,0-3.81.48-1.17,1.36-1.98,2.64-2.43,1.25-.44,2.45-.36,3.57.26Z"/><path class="cls-1" d="M203.98,67.7c-.15-.05-.3-.15-.45-.31l-.27.16,2.1,3.63.28-.16c-.14-.45-.05-.76.26-.94l6.8-3.92-2.64,10.62c-.03.1-.07.2-.12.29s-.11.16-.19.21c-.11.07-.22.08-.31.04-.09-.04-.19-.11-.29-.21l-.28.16,2.43,4.21.28-.16c-.07-.22-.08-.41-.05-.55.04-.15.14-.27.32-.37l9.7-5.6c.17-.1.33-.13.48-.08.15.05.3.15.45.31l.27-.16-2.1-3.63-.27.16c.07.22.08.41.05.55s-.14.27-.32.37l-6.97,4.02,2.64-10.74c.06-.25.11-.43.15-.55.05-.12.12-.21.22-.27.1-.04.18-.05.25-.03.07.02.16.09.28.22l.27-.16-2.24-3.88-.27.16c.07.22.08.41.04.55-.04.15-.14.27-.31.37l-9.7,5.59c-.17.1-.33.13-.48.08Z"/><path class="cls-1" d="M194.47,55.34c.12.03.23.06.32.11.09.05.16.1.2.15.1.16.18.33.24.52.06.19.17.54.33,1.06s.43,1.15.8,1.9c.38.75.82,1.43,1.33,2.04,1.1,1.33,2.31,2.27,3.62,2.81s2.53.35,3.67-.59c1.26-1.04,1.67-2.13,1.22-3.27-.45-1.14-1.29-2.64-2.52-4.5-1.24-1.86-1.58-3.02-1.05-3.46s1.15-.46,1.84-.04,1.34,1,1.94,1.72c.64.77,1.19,1.75,1.65,2.92.46,1.18.41,2-.16,2.48l.11.32,3.47-.87-.07-.33c-.21-.05-.37-.13-.47-.25-.08-.1-.14-.23-.18-.4s-.13-.53-.27-1.08c-.14-.55-.43-1.22-.86-2.01-.43-.79-.94-1.55-1.54-2.28-1.11-1.34-2.35-2.31-3.73-2.9-1.37-.59-2.63-.42-3.77.52-1.32,1.09-1.71,2.32-1.17,3.68.54,1.36,1.29,2.73,2.23,4.12.94,1.39,1.46,2.27,1.55,2.66.09.39-.04.73-.38,1.01-.55.37-1.12.34-1.71-.07-.58-.42-1.18-.99-1.79-1.73-.96-1.15-1.49-2.15-1.6-2.98s-.15-1.32-.12-1.47c.03-.14.12-.28.26-.4l-.08-.34-3.39.66.07.3Z"/><path class="cls-1" d="M193.93,39.67l-6.61,7.54-3.33-2.92c-.16-.14-.25-.29-.27-.44-.02-.16.02-.33.11-.51l-.26-.23-2.25,2.56.26.23c.25-.15.44-.22.56-.19.13.03.26.1.4.22l9,7.89c.16.14.25.29.27.44.02.15-.02.33-.11.51l.26.23,2.25-2.56-.26-.23c-.25.15-.44.22-.56.19-.13-.03-.26-.1-.4-.22l-3.33-2.92,6.61-7.54c.13-.15.27-.23.43-.23.16,0,.33.04.53.15l.21-.24-3.33-2.92-.21.24c.17.26.25.45.24.58-.02.13-.08.25-.19.38Z"/><path class="cls-1" d="M176.63,41.5l-.18.26,3.66,2.54.18-.26c-.16-.17-.25-.33-.28-.48-.03-.15.01-.3.13-.47l6.38-9.21c.11-.16.25-.26.4-.28.15-.02.33,0,.54.08l.18-.26-3.66-2.54-.18.26c.32.35.37.67.17.96l-6.38,9.21c-.2.29-.52.35-.96.18Z"/><path class="cls-1" d="M162.57,34.6c.21-.2.38-.31.51-.31s.28.04.44.12l10.55,5.65c.19.1.31.22.36.37.05.15.05.32.01.52l.3.16,1.61-3.01-.3-.16c-.21.2-.38.31-.51.31s-.28-.04-.44-.12l-3.91-2.09,4.73-8.84c.09-.17.21-.28.37-.32.15-.04.33-.03.55.02l.15-.28-3.91-2.09-.15.28c.23.21.35.38.36.51s-.02.27-.1.42l-4.73,8.84-3.91-2.09c-.19-.1-.31-.23-.36-.37-.05-.15-.05-.32-.01-.52l-.3-.16-1.61,3.01.3.16Z"/><path class="cls-1" d="M150.5,29.34c-.2-.12-.33-.25-.4-.39s-.07-.3,0-.49l2.08-6.23.09-.28c.4-1.19.97-1.9,1.73-2.15.76-.24,1.81-.14,3.17.31.69.23,1.29.5,1.79.82.5.31.87.67,1.08,1.08s.31.78.28,1.12c-.03.34-.13.77-.3,1.27l-.13.39-2.08,6.23c-.06.19-.17.32-.32.38-.15.07-.33.1-.54.08l-.1.3,4.22,1.41.1-.3c-.2-.12-.33-.25-.4-.39-.07-.14-.07-.3,0-.49l2.33-7c.62-1.86.46-3.32-.48-4.36s-2.48-1.92-4.64-2.64c-2.18-.73-3.95-.95-5.32-.67s-2.36,1.35-2.97,3.2l-2.33,7c-.12.35-.41.5-.88.46l-.1.3,4,1.33.1-.3Z"/><path class="cls-1" d="M131.49,26.04c.12-.05.28-.06.46-.03l11.83,1.81c.21.03.37.11.46.23.1.12.16.28.18.49l.34.05.52-3.37-.34-.05c-.13.26-.25.42-.37.46-.12.05-.28.06-.46.03l-4.38-.67,1.52-9.91c.03-.2.11-.34.24-.42s.3-.14.52-.16l.05-.31-4.38-.67-.05.31c.28.12.45.24.51.36.05.12.07.26.04.43l-1.52,9.91-4.38-.67c-.21-.03-.37-.11-.46-.23-.1-.12-.16-.29-.18-.49l-.34-.05-.52,3.37.34.05c.13-.26.25-.42.37-.46Z"/><path class="cls-1" d="M129.04,25.64c-.23-.06-.39-.15-.49-.26-.1-.11-.15-.26-.14-.46l.43-11.19c0-.2.07-.35.19-.45.12-.1.29-.17.5-.22v-.32s-4.44-.17-4.44-.17v.32c.44.12.66.36.65.72l-.43,11.19c-.01.36-.25.58-.71.67v.32s4.44.17,4.44.17v-.32Z"/><path class="cls-1" d="M107.21,23.66c.79,1.02,1.65,1.71,2.58,2.06.93.36,1.77.57,2.51.64.74.07,1.51.07,2.31,0,2.3-.2,4.19-.97,5.66-2.33,1.47-1.36,2.11-3.08,1.93-5.17-.11-1.25-.55-2.38-1.34-3.4-.79-1.02-1.65-1.71-2.59-2.07s-1.78-.58-2.51-.64-1.5-.06-2.3,0c-2.3.2-4.19.97-5.66,2.33-1.47,1.36-2.11,3.08-1.93,5.17.11,1.25.55,2.38,1.34,3.4ZM110.2,16.6c.88-.94,2.03-1.46,3.45-1.59,1.44-.12,2.66.21,3.68.99,1.02.78,1.58,1.83,1.7,3.14.11,1.34-.26,2.47-1.14,3.4-.87.93-2.03,1.45-3.46,1.58-1.45.12-2.68-.19-3.69-.96-1.01-.76-1.57-1.82-1.69-3.17-.11-1.33.27-2.46,1.15-3.39Z"/><path class="cls-1" d="M86.51,19.06c.13.07.22.21.28.4l2.97,10.8c.05.19.04.35-.04.48-.08.13-.22.25-.41.36l.08.31,4.04-1.11-.08-.31c-.47.02-.75-.14-.84-.49l-2.08-7.57,9.61,5.23c.09.06.17.12.25.19s.13.15.15.24c.04.13.02.23-.04.31-.06.08-.15.16-.28.23l.08.31,4.68-1.29-.08-.31c-.23,0-.42-.02-.55-.1-.13-.07-.22-.21-.28-.4l-2.97-10.8c-.05-.19-.04-.35.04-.48.08-.13.22-.25.41-.36l-.08-.31-4.04,1.11.08.31c.23,0,.42.02.55.1.13.07.22.21.28.4l2.14,7.76-9.73-5.26c-.22-.12-.39-.21-.49-.29s-.17-.17-.2-.28c-.01-.11,0-.19.03-.25.04-.06.13-.13.29-.21l-.08-.31-4.31,1.19.08.31c.23-.01.42.02.55.1Z"/><path class="cls-1" d="M67.45,27.98c.23.09.51.26.86.51l9.4,6.73c.13.11.23.2.3.27.07.07.12.14.15.21.08.17.08.31,0,.45-.09.13-.19.25-.3.34l.14.28,4.53-2.23-.14-.28c-.41.07-.69-.04-.84-.34-.05-.11-.08-.23-.09-.36-.01-.14-.01-.27,0-.41l.21-11.44c0-.37.04-.66.11-.85.06-.19.22-.38.46-.56l-.14-.28-4.23,2.08.14.28c.22-.05.4-.06.55-.03.15.03.26.12.33.26.04.08.06.16.07.24,0,.08.01.2.02.38l-.04,2.1-5.82,2.86-1.71-1.24c-.2-.12-.36-.29-.46-.5-.08-.15-.08-.29,0-.42.07-.12.2-.25.38-.36l-.14-.28-4.71,2.32.14.28c.32-.1.59-.1.82-.02ZM78.92,27.36l-.03,5.27-4.16-3.21,4.19-2.06Z"/><path class="cls-1" d="M54.18,40.04c-.17-.42-.09-.74.22-.97l7.09-5.21,5.93,8.08c.21.29.16.61-.14.96l.19.26,3.59-2.63-.19-.26c-.29.11-.49.15-.61.11-.12-.04-.23-.13-.33-.27l-6.63-9.03c-.12-.16-.16-.32-.13-.47s.11-.31.26-.48l-.19-.26-10.13,7.43c-.17.13-.33.18-.49.17-.15-.01-.31-.08-.47-.2l-.28.2,2.03,2.76.28-.2Z"/><path class="cls-1" d="M33.79,58.55c.24-.01.57.03,1,.12l11.31,2.37c.17.05.3.09.38.13.09.04.16.08.22.13.14.12.2.26.17.41s-.07.3-.13.43l.24.2,3.25-3.87-.24-.2c-.35.23-.65.24-.9.03-.09-.08-.17-.17-.23-.29-.06-.12-.12-.24-.16-.38l-4.41-10.56c-.14-.34-.22-.62-.24-.82-.02-.2.05-.44.2-.7l-.24-.2-3.03,3.61.24.2c.18-.13.34-.21.49-.25.15-.03.28,0,.41.1.07.06.12.12.16.19.04.07.09.18.17.34l.81,1.94-4.17,4.97-2.06-.44c-.23-.03-.44-.12-.62-.27-.13-.11-.19-.24-.17-.38.02-.14.08-.31.2-.49l-.24-.2-3.37,4.02.24.2c.25-.22.5-.33.74-.34ZM44.03,53.36l2.1,4.84-5.1-1.26,3-3.57Z"/><path class="cls-1" d="M23.97,75.09c.31-.09.81-.17,1.51-.25l4.56-.62c-.44,1.13-.57,2.14-.38,3.04.18.9.75,1.61,1.69,2.15,1.39.79,2.58.86,3.56.23.98-.63,1.92-1.75,2.83-3.36l4.39-7.77-.28-.16c-.16.17-.31.28-.45.32-.15.04-.3.01-.48-.08l-9.75-5.5c-.17-.1-.28-.22-.31-.37-.04-.15-.02-.33.04-.55l-.28-.16-2.19,3.88.28.16c.32-.35.63-.43.94-.26l3.81,2.15-1.88,3.33-4.79.58c-.07.01-.22.04-.46.07-.24.04-.42.02-.53-.04-.12-.06-.16-.16-.14-.28.02-.12.05-.23.1-.34l-.28-.16-2.54,4.49.28.16c.2-.35.45-.57.76-.65ZM32.13,75.33c.1-.59.37-1.29.84-2.11l2.38-4.21,3.02,1.71-2.38,4.21c-.47.83-.93,1.44-1.38,1.82-.45.38-1,.38-1.66.01-.64-.36-.92-.84-.82-1.42Z"/><path class="cls-1" d="M16.1,96.09c.13-.07.3-.07.48,0l10.62,3.57c.19.06.31.17.38.31.06.14.09.32.07.54l.3.1,1.72-5.11-.3-.1c-.11.34-.33.45-.66.34-.08-.04-.17-.12-.27-.24-.1-.12-.16-.19-.18-.21l-4.94-5.79,7.54-1.58c.17-.05.35-.04.54.02.12.07.19.15.23.25s.05.22.04.37l.3.1,1.75-5.21-.3-.1c-.12.2-.25.33-.39.4s-.3.07-.48,0l-10.61-3.57c-.19-.06-.31-.17-.38-.31-.06-.14-.09-.32-.07-.54l-.3-.1-1.34,3.98.3.1c.12-.2.25-.33.38-.4.13-.07.29-.07.48,0l7.63,2.57-10.09,2.14,6.64,8.1-7.64-2.57c-.34-.11-.48-.4-.43-.87l-.3-.1-1.42,4.22.3.1c.12-.2.25-.33.39-.4Z"/><path class="cls-1" d="M16.73,114.4c1.7.25,2.87-.29,3.51-1.6.64-1.31,1.16-2.78,1.56-4.41s.71-2.61.93-2.94c.23-.33.56-.46,1.01-.4.64.16,1.01.6,1.09,1.31.08.71.06,1.54-.08,2.49-.21,1.48-.59,2.55-1.14,3.19-.54.64-.88,1-1,1.08-.13.08-.28.1-.47.07l-.2.29,2.76,2.07.18-.25c-.06-.11-.11-.21-.14-.31-.03-.1-.03-.18-.02-.25.05-.18.13-.36.23-.53s.29-.49.56-.96.57-1.09.87-1.87.51-1.56.62-2.35c.25-1.71.13-3.23-.34-4.57-.47-1.34-1.44-2.11-2.9-2.32-1.62-.23-2.7.19-3.24,1.29-.54,1.09-1.09,2.72-1.65,4.89-.55,2.17-1.18,3.2-1.87,3.1s-1.11-.55-1.27-1.34c-.15-.8-.16-1.66-.02-2.59.14-.99.5-2.05,1.06-3.19.56-1.13,1.21-1.65,1.94-1.54l.16-.3-2.98-1.99-.2.27c.11.19.15.36.13.52-.02.13-.08.26-.18.41-.1.14-.31.45-.62.93-.31.47-.62,1.14-.92,1.99-.3.85-.52,1.74-.65,2.67-.25,1.72-.13,3.29.35,4.71.48,1.42,1.45,2.23,2.92,2.44Z"/><path class="cls-1" d="M19.08,145.03l-.25.04c-.46.07-1-.42-1.63-1.47-.63-1.05-1.03-2.13-1.2-3.25-.24-1.55-.04-2.92.6-4.12s1.66-1.9,3.07-2.12c1.42-.22,2.61.14,3.57,1.09.96.94,1.56,2.2,1.8,3.76.14.89.13,1.76,0,2.62-.14.86-.33,1.5-.58,1.92-.24.42-.42.66-.52.72s-.28.11-.52.15l-.14.3,3.14,1.51.14-.28c-.03-.05-.07-.13-.12-.23-.05-.1-.09-.21-.1-.34.02-.16.08-.38.16-.64s.22-.69.41-1.28.33-1.35.42-2.28c.09-.94.06-1.89-.09-2.85-.36-2.37-1.26-4.26-2.69-5.68s-3.21-1.96-5.35-1.63c-2.13.33-3.66,1.39-4.6,3.18-.94,1.79-1.23,3.86-.86,6.22.17,1.09.49,2.11.97,3.07.48.96.93,1.72,1.35,2.28.42.56.66.88.7.96s.07.15.08.23c.02.1,0,.19-.05.28s-.09.17-.13.25l.23.22,2.4-2.36-.2-.25Z"/><path class="cls-1" d="M27.71,165.09c1.18-.41,2.17-1.13,2.96-2.15.79-1.02,1.24-2.02,1.35-3.02.11-.99.11-1.86,0-2.59-.12-.74-.31-1.48-.57-2.24-.76-2.18-1.99-3.81-3.67-4.9-1.68-1.08-3.51-1.28-5.49-.58-1.18.42-2.17,1.13-2.96,2.15-.79,1.02-1.24,2.03-1.36,3.03-.12,1-.11,1.87,0,2.59.12.73.32,1.47.58,2.22.76,2.18,1.99,3.81,3.67,4.9,1.68,1.08,3.51,1.28,5.49.58ZM23.08,161.81c-1.12-.62-1.92-1.6-2.4-2.95-.48-1.36-.46-2.63.04-3.81.5-1.18,1.37-1.99,2.62-2.43,1.27-.44,2.46-.36,3.58.25,1.12.61,1.91,1.6,2.39,2.96.48,1.37.48,2.64,0,3.81s-1.37,1.98-2.65,2.43c-1.26.44-2.45.35-3.57-.27Z"/><path class="cls-1" d="M41.88,178.1c.15.05.3.15.45.31l.28-.16-2.09-3.64-.28.16c.14.45.05.76-.26.94l-6.81,3.9,2.67-10.61c.03-.1.07-.2.12-.29.05-.09.11-.16.19-.21.11-.07.22-.08.31-.04.09.04.19.11.29.21l.27-.16-2.42-4.21-.28.16c.07.22.08.41.04.55s-.14.27-.32.37l-9.71,5.57c-.17.1-.33.12-.48.08-.15-.05-.3-.15-.45-.31l-.28.16,2.09,3.64.27-.16c-.07-.22-.08-.41-.04-.55s.14-.27.32-.37l6.98-4-2.66,10.73c-.06.25-.11.43-.16.55-.05.12-.12.21-.23.27-.1.04-.18.05-.25.03-.06-.02-.16-.1-.28-.22l-.28.16,2.23,3.88.28-.16c-.07-.22-.08-.41-.04-.55.04-.15.14-.27.32-.37l9.71-5.57c.17-.1.33-.12.48-.08Z"/><path class="cls-1" d="M51.37,190.48c-.12-.03-.23-.06-.32-.11-.09-.05-.16-.1-.2-.15-.1-.16-.18-.33-.24-.53-.06-.19-.17-.54-.33-1.06-.16-.52-.42-1.15-.8-1.9-.37-.75-.81-1.43-1.32-2.05-1.1-1.33-2.3-2.27-3.61-2.82-1.31-.55-2.53-.35-3.67.58-1.26,1.04-1.67,2.13-1.23,3.27.44,1.14,1.28,2.64,2.51,4.51,1.23,1.87,1.58,3.02,1.04,3.47-.54.45-1.15.46-1.84.03s-1.34-1-1.94-1.73c-.64-.77-1.19-1.75-1.64-2.93-.46-1.18-.4-2,.17-2.47l-.11-.32-3.47.87.07.33c.21.05.37.13.47.25.08.1.14.23.18.4s.13.53.27,1.08c.14.55.42,1.22.85,2.02.43.79.94,1.55,1.54,2.28,1.11,1.34,2.35,2.31,3.72,2.91,1.37.6,2.63.43,3.77-.51,1.32-1.09,1.71-2.32,1.18-3.67-.54-1.36-1.28-2.73-2.22-4.12-.94-1.39-1.46-2.28-1.54-2.67s.04-.73.38-1.01c.55-.36,1.12-.34,1.71.08.58.42,1.18.99,1.79,1.73.95,1.16,1.48,2.15,1.59,2.99.11.83.15,1.32.12,1.47-.03.14-.12.28-.27.4l.08.34,3.39-.65-.07-.3Z"/><path class="cls-1" d="M51.87,206.15l6.63-7.52,3.32,2.93c.16.14.25.29.26.44.02.16-.02.33-.11.51l.26.23,2.25-2.56-.26-.23c-.25.15-.44.21-.57.19-.13-.03-.26-.1-.4-.22l-8.98-7.91c-.16-.14-.25-.29-.26-.44-.02-.15.02-.33.11-.51l-.26-.23-2.25,2.56.26.23c.25-.15.44-.21.57-.19.13.03.26.1.4.22l3.32,2.93-6.63,7.52c-.13.15-.27.23-.43.23s-.33-.04-.53-.15l-.21.24,3.32,2.93.21-.24c-.17-.26-.25-.45-.23-.58.02-.13.08-.25.19-.38Z"/><path class="cls-1" d="M69.16,204.36l.18-.26-3.65-2.54-.18.26c.16.17.25.33.28.48.03.15-.02.3-.13.47l-6.4,9.19c-.11.16-.25.25-.4.28-.15.02-.33,0-.54-.09l-.18.26,3.65,2.54.18-.26c-.31-.35-.37-.67-.17-.96l6.4-9.19c.2-.29.52-.35.96-.18Z"/><path class="cls-1" d="M83.22,211.31c-.21.2-.38.31-.51.31-.13,0-.28-.04-.44-.13l-10.54-5.67c-.19-.1-.31-.23-.36-.37-.05-.15-.05-.32-.01-.52l-.3-.16-1.62,3,.3.16c.21-.2.38-.31.51-.31.13,0,.28.04.44.13l3.9,2.1-4.75,8.83c-.09.17-.22.28-.37.32-.15.04-.33.03-.55-.02l-.15.28,3.9,2.1.15-.28c-.23-.21-.35-.38-.36-.51s.02-.27.1-.42l4.75-8.83,3.9,2.1c.19.1.31.23.36.37.05.15.05.32,0,.52l.3.16,1.62-3-.3-.16Z"/><path class="cls-1" d="M95.24,216.59c.2.12.33.25.4.4.07.14.07.3,0,.49l-2.09,6.23-.09.28c-.4,1.19-.98,1.9-1.74,2.14s-1.81.13-3.17-.32c-.69-.23-1.29-.51-1.79-.82-.5-.32-.86-.68-1.08-1.08-.22-.41-.31-.78-.28-1.13s.13-.76.3-1.27l.13-.39,2.09-6.23c.06-.19.17-.32.32-.38.15-.07.33-.09.54-.08l.1-.3-4.22-1.42-.1.3c.2.12.33.25.4.4.07.14.07.3,0,.49l-2.35,7c-.63,1.86-.47,3.32.46,4.36.94,1.05,2.48,1.93,4.63,2.65,2.18.73,3.95.96,5.32.68,1.37-.28,2.36-1.34,2.98-3.19l2.35-7c.12-.35.41-.5.88-.46l.1-.3-4-1.34-.1.3Z"/><path class="cls-1" d="M114.27,219.93c-.12.05-.28.06-.46.03l-11.82-1.84c-.21-.03-.37-.11-.46-.23-.1-.12-.16-.29-.18-.49l-.34-.05-.52,3.37.34.05c.13-.26.25-.42.38-.46.12-.05.28-.06.46-.03l4.38.68-1.54,9.91c-.03.2-.11.34-.24.42-.13.09-.3.14-.52.16l-.05.31,4.38.68.05-.31c-.28-.12-.45-.24-.51-.36-.05-.12-.07-.26-.04-.43l1.54-9.91,4.38.68c.21.03.37.11.46.23s.16.29.18.49l.34.05.52-3.37-.34-.05c-.13.26-.25.42-.38.46Z"/><path class="cls-1" d="M116.72,220.35c.23.06.39.15.49.26.1.11.15.26.14.46l-.46,11.19c0,.2-.07.35-.19.45-.12.1-.29.17-.5.22v.32s4.44.18,4.44.18v-.32c-.44-.12-.66-.36-.64-.72l.46-11.19c.01-.36.25-.58.71-.67v-.32s-4.44-.18-4.44-.18v.32Z"/><path class="cls-1" d="M138.55,222.37c-.79-1.02-1.65-1.71-2.58-2.07s-1.77-.57-2.51-.65c-.74-.07-1.51-.07-2.31,0-2.3.19-4.19.96-5.66,2.32-1.47,1.35-2.12,3.08-1.95,5.17.1,1.25.55,2.38,1.34,3.4.79,1.02,1.65,1.71,2.59,2.08s1.78.58,2.51.64,1.5.06,2.3,0c2.3-.19,4.19-.96,5.66-2.32,1.47-1.35,2.12-3.08,1.94-5.17-.1-1.25-.55-2.38-1.33-3.4ZM135.55,229.43c-.88.93-2.03,1.46-3.46,1.58-1.44.12-2.66-.21-3.68-.99-1.02-.78-1.58-1.83-1.69-3.14-.11-1.34.27-2.47,1.15-3.4s2.03-1.45,3.47-1.57c1.45-.12,2.68.2,3.69.96,1.01.76,1.57,1.82,1.68,3.17.11,1.33-.28,2.46-1.16,3.39Z"/><path class="cls-1" d="M159.23,227.04c-.13-.07-.22-.21-.27-.4l-2.94-10.8c-.05-.19-.04-.35.04-.48.08-.13.22-.25.41-.36l-.08-.31-4.05,1.1.08.31c.47-.02.75.14.84.49l2.06,7.57-9.6-5.25c-.09-.06-.17-.12-.25-.19-.08-.07-.13-.15-.15-.24-.03-.13-.02-.23.04-.31.06-.08.15-.16.28-.23l-.08-.31-4.69,1.28.08.31c.23,0,.42.02.55.1.13.07.22.21.28.4l2.94,10.8c.05.19.04.35-.04.49-.08.13-.22.25-.41.36l.08.31,4.05-1.1-.08-.31c-.23,0-.42-.02-.55-.1-.13-.07-.22-.21-.28-.4l-2.12-7.76,9.71,5.28c.22.12.39.21.49.29.1.08.17.17.2.28.01.11,0,.19-.03.25-.04.06-.13.13-.29.21l.08.31,4.32-1.18-.08-.31c-.23,0-.42-.02-.55-.1Z"/><path class="cls-1" d="M178.32,218.16c-.23-.09-.51-.26-.86-.52l-9.38-6.75c-.13-.11-.23-.2-.3-.27s-.12-.14-.15-.21c-.08-.17-.08-.31,0-.45s.19-.25.3-.34l-.14-.29-4.54,2.22.14.29c.41-.07.69.05.83.34.05.11.08.23.09.36.01.13,0,.27,0,.41l-.24,11.44c0,.37-.05.65-.11.85-.06.19-.22.38-.47.56l.14.29,4.23-2.07-.14-.29c-.22.05-.4.06-.55.03-.15-.03-.26-.12-.33-.26-.04-.08-.06-.16-.07-.24,0-.08-.01-.2-.02-.38l.05-2.1,5.83-2.85,1.7,1.24c.2.12.36.29.46.5.08.15.08.29,0,.42-.07.12-.2.25-.38.36l.14.29,4.71-2.3-.14-.29c-.32.1-.59.1-.82.01ZM166.85,218.75l.04-5.27,4.15,3.22-4.19,2.05Z"/><path class="cls-1" d="M191.6,206.14c.17.42.09.74-.22.97l-7.11,5.19-5.91-8.1c-.21-.29-.16-.61.14-.96l-.19-.26-3.6,2.62.19.26c.29-.11.49-.15.61-.1.12.04.23.13.33.27l6.6,9.04c.12.16.16.32.13.47-.03.15-.12.31-.26.48l.19.26,10.15-7.41c.17-.13.33-.18.49-.17.15.02.31.08.47.21l.28-.2-2.02-2.77-.28.2Z"/><path class="cls-1" d="M212.04,187.68c-.24.01-.57-.03-1-.13l-11.31-2.4c-.17-.05-.29-.09-.38-.13-.09-.04-.16-.08-.22-.13-.14-.12-.2-.26-.17-.41.03-.15.07-.3.13-.43l-.24-.21-3.26,3.86.24.21c.35-.23.65-.24.9-.02.09.08.17.17.23.29s.12.24.16.38l4.39,10.57c.14.34.22.62.24.82.02.2-.05.44-.2.7l.24.2,3.04-3.6-.24-.2c-.18.13-.34.21-.49.24-.15.03-.28,0-.4-.1-.07-.06-.12-.12-.16-.19-.04-.07-.09-.18-.17-.34l-.8-1.94,4.18-4.96,2.06.45c.23.03.44.12.62.27.13.11.19.24.17.38-.02.14-.08.31-.2.49l.24.2,3.38-4.01-.24-.21c-.25.22-.5.33-.74.34ZM201.78,192.85l-2.08-4.84,5.1,1.28-3.01,3.57Z"/><path class="cls-1" d="M221.91,171.15c-.31.09-.81.17-1.51.25l-4.56.61c.44-1.13.57-2.14.39-3.04-.18-.9-.74-1.62-1.69-2.15-1.39-.79-2.58-.87-3.56-.24-.98.63-1.93,1.75-2.84,3.35l-4.41,7.76.28.16c.16-.17.31-.28.46-.32.14-.04.3-.01.48.09l9.74,5.53c.17.1.28.22.31.37.04.15.02.33-.04.54l.28.16,2.2-3.87-.28-.16c-.32.35-.63.43-.94.25l-3.81-2.16,1.89-3.32,4.79-.57c.07-.01.22-.04.46-.07s.42-.02.53.05c.12.06.16.16.14.28-.02.12-.05.23-.1.34l.28.16,2.55-4.49-.28-.16c-.2.35-.45.56-.76.65ZM213.75,170.9c-.1.58-.38,1.29-.84,2.11l-2.39,4.21-3.02-1.71,2.39-4.21c.47-.83.93-1.44,1.38-1.81s1-.38,1.66,0c.64.37.92.84.82,1.43Z"/><path class="cls-1" d="M229.83,150.18c-.13.07-.3.07-.48,0l-10.61-3.59c-.19-.06-.31-.17-.38-.31-.06-.14-.09-.32-.07-.54l-.3-.1-1.73,5.11.3.1c.11-.34.33-.45.66-.34.08.04.17.12.27.24s.16.19.18.21l4.92,5.8-7.54,1.56c-.17.05-.35.04-.54-.02-.12-.07-.19-.15-.23-.25-.04-.1-.05-.22-.04-.36l-.3-.1-1.77,5.21.3.1c.12-.2.25-.33.39-.4s.29-.07.48,0l10.61,3.59c.19.06.31.17.38.31s.09.32.07.54l.3.1,1.35-3.97-.3-.1c-.12.2-.25.33-.38.4-.13.07-.29.07-.48,0l-7.63-2.58,10.09-2.12-6.62-8.12,7.63,2.58c.33.11.48.4.43.87l.3.1,1.43-4.22-.3-.1c-.12.2-.25.33-.39.4Z"/><path class="cls-1" d="M232.15,134.32c-.48-1.42-1.45-2.24-2.91-2.45-1.7-.25-2.87.28-3.51,1.59-.65,1.31-1.17,2.78-1.57,4.41-.4,1.63-.71,2.61-.94,2.93-.23.33-.56.46-1.01.39-.64-.17-1-.61-1.09-1.32-.08-.71-.05-1.54.09-2.49.22-1.48.6-2.54,1.14-3.19.54-.64.88-1,1.01-1.07s.29-.1.47-.07l.2-.29-2.76-2.08-.18.25c.06.11.11.21.13.31.03.1.03.18.02.25-.05.18-.13.36-.23.53-.1.17-.29.49-.57.96-.28.46-.57,1.08-.87,1.86-.3.78-.51,1.56-.63,2.35-.25,1.71-.14,3.23.33,4.57s1.43,2.12,2.9,2.33c1.62.24,2.7-.19,3.25-1.28s1.1-2.72,1.66-4.88c.56-2.17,1.18-3.2,1.88-3.1.69.1,1.11.55,1.26,1.35.15.8.16,1.66.02,2.59-.15.99-.5,2.05-1.07,3.18-.57,1.13-1.22,1.64-1.95,1.53l-.16.3,2.97,2,.2-.27c-.11-.19-.15-.36-.12-.52.02-.13.08-.26.18-.41.1-.14.31-.45.62-.93s.62-1.13.92-1.98c.3-.85.52-1.74.66-2.67.25-1.72.14-3.29-.34-4.71Z"/><path class="cls-1" d="M151.51,115.24c.43.62.85,1.2,1.28,1.72,3.58,4.17,8.25,3.66,8.25,3.66,0,0,1.12-3.86-2.19-5.43,1.44-.8,2.92-2.31,3.53-3.4.13-.23.21-.48.28-.74,4.83,1.65,6.22-1.42,8.91-2.18,1.69-.48,3.08-.05,3.08-.05-9.56-8.91-11.87,0-11.87,0,0,0-.03,0-.09,0-.12-.8-.31-1.39-.31-1.39-6.24-1.63-7.05,5.29-7.15,7.12-1.28.02-2.52.26-3.72.7Z"/><path class="cls-1" d="M106.78,147.35c.51.02,1.04.03,1.57.03,2.28,0,4.44-.3,6.5-.83,2.8-.72,5.4-1.88,7.83-3.34,3.65-2.18,6.93-5.02,9.94-8.04,3.34-3.33,6.36-6.88,9.22-9.96l-.83-1.97c-3.64,3.83-7.35,8.27-11.53,11.93-4.8,4.2-10.2,7.37-16.82,7.37-1.51,0-2.88-.07-4.14-.23-6.15-.74-9.56-3.34-13.36-8.16-.02-.03-.02-.06,0-.08,5.07-3.95,14.61-10.36,14.61-26.19,0-8.44.08-31.46.11-40.5,0-.93.43-1.81,1.16-2.39l9.97-7.95c1.05-.84,2.52-.95,3.67-.24,6.44,3.98,12.29,9.05,10.78,19.46,0,0,3.74-1.24,4.67-6.46,2.94,1.87,10.63,1.81,10.63,1.81,0,0,.37-5.25-3.32-8.27,0,0,2.63.45,4.09-2.77,0,0-5.12-5.88-9.51-5.51-1.94.16-.56,7.78-3.36,5.23-1.24-1.13-9.52-9.56-26.35-9.56-27.05,0-37.44,21.73-39.99,36.93-1.91,11.4-8.48,12.64-8.48,12.64,0,0,7.86,3.89,9.9,14.99,1.99,10.85,8.31,31.26,33.05,32.08ZM85.01,80.82c.13-.76.3-1.54.5-2.35,4.19-16.91,15.89-24.96,26.79-24.96,3.21,0,5.31.35,6.56.67.68.17.86,1.04.32,1.48l-32.81,25.97c-.61.48-1.49-.04-1.35-.8ZM86.4,84.45l11.19-8.83c.67-.53,1.66-.06,1.66.8,0,7.9.02,26.26.02,30.76,0,16.33-7.14,22.68-7.14,22.68,0,0-6.25-9.48-6.78-17.42-.65-9.63,4.64-12.07,4.64-12.07,0,0-4.77-1.67-5.64-11.11-.17-1.85.59-3.67,2.05-4.82Z"/><path class="cls-1" d="M161.26,147.93c-6.09-14.02.96-22.54.96-22.54,0,0-4.62.99-10.4-5.52-.24-.26-.48-.54-.72-.83-.24-.3-.49-.61-.72-.93-.17-.21-.33-.43-.49-.66-.21-.28-.41-.58-.62-.88-.56-.81-1.12-1.7-1.68-2.68-.59-1.01-1.19-2.12-1.78-3.32l-9.75-23c-5.7-13.45-18.61-5.31-19.06-5.02,6.86-2.89,10.89,3.25,12.12,5.56.27.5.31,1.09.13,1.63l-17.17,50.19c.19,0,.38,0,.57,0,2.9,0,5.7-.7,8.55-2.15h-3.36c-1.36,0-2.33-1.34-1.89-2.63l13.79-40.66c.33-.96,1.67-1.01,2.06-.07l12.4,29.7.69,1.64,4.12,9.86c.43,1.03-.33,2.17-1.45,2.17h-13.87c-1.04,1.01-2.06,1.96-3.06,2.82h18.37c1.26,0,2.4.76,2.89,1.92l2.98,7.13c.5,1.2.14,2.59-.89,3.39l-15.81,12.25c-.97.75-2.3.79-3.3.08-3.34-2.34-11.76-7.29-24.37-8.14-1-.07-1.66-1.06-1.34-2l1.82-5.37c-.78.07-1.55.12-2.33.12l-1.81,5.29c-.36,1.06-1.31,1.81-2.42,1.93-20.41,2.29-24.39,21.36-15.7,28.54,9.15,7.56,13.46,9.54,13.46,9.54.97-1.29-1.55-1.69-.1-2.7,1.16-.81,5.02-2.59,2.42-8.29-1.29-2.82-6.5-3.11-6.5-3.11,0,0-1.95,4.72,1.31,8.39-3.27-.46-9.72-4.75-11.11-10.14-1.35-5.25,2.68-15.57,18.33-15.4,9.95.11,20.23,7.46,24.27,10.67,1.04.83,2.52.76,3.48-.16l20.32-19.61c.85-.82,2.26-.53,2.72.56l.74,1.77c6.36,15.45-1.62,21.84-1.62,21.84,8.06,4.09,9.82-3.16,9.82-3.16,3.38,4.02,7.59,3.72,7.59,3.72,1.69-3.38.16-7.25.16-7.25,6.6,2.01,8.17-4.62,8.17-4.62-6.83,1.93-12.92-1.45-20.92-19.87Z"/></g></svg>