<?xml version="1.0" encoding="UTF-8"?><svg id="Layer_2" xmlns="http://www.w3.org/2000/svg" viewBox="0 0 529.39 59.76"><defs><style>.cls-1{fill:#fff;}</style></defs><g id="Layer_1-2"><path class="cls-1" d="M59.6,12.95H12.87v33.87h46.73v12.95H12.29c-3.43,0-6.34-1.19-8.72-3.57-2.38-2.38-3.57-5.28-3.57-8.72V12.28c0-3.43,1.19-6.34,3.57-8.72C5.95,1.19,8.85,0,12.29,0h47.31v12.95Z"/><path class="cls-1" d="M80.35,0h35.19c3.37,0,6.27,1.2,8.67,3.61s3.61,5.3,3.61,8.67v35.19c0,3.38-1.2,6.27-3.61,8.67-2.41,2.41-5.3,3.61-8.67,3.61h-35.19c-3.43,0-6.34-1.19-8.72-3.57-2.38-2.38-3.57-5.28-3.57-8.72V12.28c0-3.43,1.19-6.34,3.57-8.72,2.38-2.38,5.28-3.57,8.72-3.57ZM80.93,12.95v33.87h33.87V12.95h-33.87Z"/><path class="cls-1" d="M196.64,12.37v15.44c0,3.38-1.22,6.27-3.65,8.67-2.44,2.41-5.34,3.61-8.72,3.61h-.58l12.95,15.27v4.4h-13.28l-16.52-19.67-17.1.08c.17,0,.25.17.25.5-.11,0-.19-.03-.25-.08v19.17h-12.87V.08h47.4c3.37,0,6.28,1.2,8.72,3.61,2.43,2.41,3.65,5.3,3.65,8.67ZM149.74,12.95v14.19h33.87v-14.19h-33.87Z"/><path class="cls-1" d="M205.43.08h47.39c3.38,0,6.28,1.2,8.72,3.61,2.43,2.41,3.65,5.3,3.65,8.67v15.44c0,3.38-1.22,6.27-3.65,8.67-2.44,2.41-5.34,3.61-8.72,3.61l-34.53.08c.17,0,.25.17.25.5-.11,0-.19-.03-.25-.08v19.17h-12.87V.08ZM218.3,12.95v14.19h33.87v-14.19h-33.87Z"/><path class="cls-1" d="M315.87,28.89v12.7h-34.61v-12.7h34.61Z"/><path class="cls-1" d="M389.37,12.28v11.21c0,1.55-.19,2.82-.58,3.82,1.94,2.44,2.9,5.04,2.9,7.8v12.37c0,3.38-1.2,6.27-3.61,8.67-2.41,2.41-5.33,3.61-8.76,3.61h-47.4V0h45.15c3.37,0,6.27,1.2,8.67,3.61,2.41,2.41,3.61,5.3,3.61,8.67ZM344.8,12.95v9.96h31.54v-9.96h-31.54ZM344.8,35.86v10.96h33.87v-10.96h-33.87Z"/><path class="cls-1" d="M413.44,0v46.81h33.87V0h13.03v47.48c0,3.38-1.2,6.27-3.61,8.67-2.41,2.41-5.3,3.61-8.67,3.61h-35.19c-3.43,0-6.34-1.19-8.72-3.57-2.38-2.38-3.57-5.28-3.57-8.72V0h12.87Z"/><path class="cls-1" d="M469.63,0h47.4c3.43,0,6.35,1.2,8.76,3.61s3.61,5.3,3.61,8.67v35.19c0,3.38-1.2,6.27-3.61,8.67-2.41,2.41-5.33,3.61-8.76,3.61h-47.4V0ZM482.5,12.95v33.87h33.87V12.95h-33.87Z"/></g></svg>