<?xml version="1.0" encoding="UTF-8"?><svg id="Layer_2" xmlns="http://www.w3.org/2000/svg" viewBox="0 0 456.19 135.65"><defs><style>.cls-1{fill:#fff;}</style></defs><g id="Layer_1-2"><polygon class="cls-1" points="140.01 98.89 115.65 98.89 111.26 113.98 136.07 113.98 140.01 98.89"/><polygon class="cls-1" points="194.55 98.89 170.17 98.89 174.11 113.98 198.93 113.98 194.55 98.89"/><rect class="cls-1" x="213.94" y="98.89" width="24.62" height="15.09"/><polygon class="cls-1" points="293.89 98.89 264.31 98.89 274.03 113.98 303.74 113.98 293.89 98.89"/><rect class="cls-1" x="431.57" y=".23" width="24.62" height="74.88"/><polygon class="cls-1" points="261.44 94.43 290.98 94.43 281.12 79.34 251.72 79.34 261.44 94.43"/><polygon class="cls-1" points="213.94 94.43 238.55 94.43 238.55 84.96 243.59 79.34 213.94 79.34 213.94 94.43"/><polygon class="cls-1" points="116.94 94.43 141.17 94.43 141.18 94.39 169 94.39 169.01 94.43 193.25 94.43 188.87 79.34 121.33 79.34 116.94 94.43"/><rect class="cls-1" y="79.34" width="24.62" height="15.09"/><path class="cls-1" d="M76.15,94.43h27.49c1.71-4.77,2.97-9.83,3.73-15.09h-26.7c-.86,5.57-2.37,10.68-4.52,15.09Z"/><path class="cls-1" d="M92.95,113.98c3.52-4.5,6.53-9.57,8.92-15.09h-28.29c-4.97,7.35-12.23,11.89-21.83,11.89h-27.12v-11.89H0v15.09h92.95Z"/><path class="cls-1" d="M187.58,74.88L165.85.02h-21.49l-21.75,74.86h64.96ZM155.09,41.17l8.2,31.4h-16.4l8.2-31.4Z"/><rect class="cls-1" x="431.57" y="99.12" width="24.62" height="15.09"/><rect class="cls-1" x="213.94" y="118.44" width="24.62" height="16.98"/><rect class="cls-1" x="431.57" y="118.67" width="24.62" height="16.96"/><polygon class="cls-1" points="175.28 118.44 179.71 135.41 205.15 135.41 200.22 118.44 175.28 118.44"/><polygon class="cls-1" points="276.89 118.44 287.83 135.41 317.74 135.41 306.65 118.44 276.89 118.44"/><polygon class="cls-1" points="109.97 118.44 105.03 135.41 130.47 135.41 134.9 118.44 109.97 118.44"/><polygon class="cls-1" points="358.05 99.12 333.69 99.12 329.3 114.21 354.11 114.21 358.05 99.12"/><polygon class="cls-1" points="412.59 99.12 388.21 99.12 392.15 114.21 416.97 114.21 412.59 99.12"/><polygon class="cls-1" points="334.98 94.66 359.21 94.66 359.22 94.62 387.04 94.62 387.05 94.66 411.29 94.66 406.91 79.57 339.37 79.57 334.98 94.66"/><path class="cls-1" d="M405.62,75.11L383.89.25h-21.49l-21.75,74.86h64.96ZM373.13,41.4l8.2,31.4h-16.4l8.2-31.4Z"/><polygon class="cls-1" points="393.32 118.67 397.75 135.65 423.19 135.65 418.26 118.67 393.32 118.67"/><polygon class="cls-1" points="328.01 118.67 323.07 135.65 348.51 135.65 352.94 118.67 328.01 118.67"/><polygon class="cls-1" points="247.59 74.88 248.32 74.06 248.85 74.88 278.21 74.88 265.3 55.11 314.67 .02 279.96 .02 238.55 47.11 238.55 .02 213.94 .02 213.94 74.88 247.59 74.88"/><rect class="cls-1" x="431.57" y="79.57" width="24.62" height="15.09"/><path class="cls-1" d="M0,118.44v16.96h51.74c14.34,0,27.42-6.41,37.38-16.96H0Z"/><path class="cls-1" d="M24.62,74.88V24.62h27.12c19.85,0,29.81,19.29,29.81,43.08,0,2.45-.13,4.84-.34,7.18h26.69c.21-2.36.32-4.76.32-7.18C108.23,30.31,82.94,0,51.74,0H0v74.88h24.62Z"/></g></svg>