<?xml version="1.0" encoding="UTF-8"?><svg id="Layer_2" xmlns="http://www.w3.org/2000/svg" viewBox="0 0 525.87 119.31"><defs><style>.cls-1{fill:#fff;}</style></defs><g id="Layer_1-2"><path class="cls-1" d="M180.65,0l-15.9,74.68h55.84c5,0,9.92-4.05,10.98-9.05l12.04-56.58C244.68,4.06,241.49,0,236.49,0h-55.84ZM212.2,57.36h-26.42l8.52-40.03h26.42c3.25,0,5.33,2.64,4.64,5.89l-6.01,28.24c-.69,3.25-3.89,5.89-7.15,5.89Z"/><polygon class="cls-1" points="296.28 0 278.64 0 235.06 74.68 252.39 74.68 282.18 24.83 290.74 74.68 308.06 74.68 296.28 0"/><polygon class="cls-1" points="514.09 0 496.45 0 452.87 74.68 470.2 74.68 499.99 24.83 508.55 74.68 525.87 74.68 514.09 0"/><path class="cls-1" d="M377.32,74.68l-6.48-28.94c6.81-1.01,13.07-6.68,14.53-13.56l3.93-18.45C390.92,6.15,386.08,0,378.5,0h-47.52l-15.9,74.68h15.25l6.12-28.76h16.13l7.42,28.76h17.33ZM342.53,17.33h25.39c3.68,0,6.04,2.99,5.25,6.67s-4.41,6.67-8.09,6.67h-25.39l2.84-13.34Z"/><path class="cls-1" d="M446.92,74.68l-6.48-28.94c6.81-1.01,13.07-6.68,14.53-13.56l3.93-18.45C460.51,6.15,455.67,0,448.09,0h-47.52l-15.9,74.68h15.25l6.12-28.76h16.13l7.42,28.76h17.33ZM412.12,17.33h25.39c3.68,0,6.04,2.99,5.25,6.67s-4.41,6.67-8.09,6.67h-25.39l2.84-13.34Z"/><path class="cls-1" d="M25.4,0L0,119.31h76.29c14.5,0,28.75-11.75,31.84-26.25l4.1-19.24h-20.53l-3.32,15.6c-1.1,5.17-6.18,9.36-11.35,9.36H24.9L41.56,20.53h52.11c5.17,0,8.47,4.19,7.37,9.36l-3.32,15.6h20.53l5.31-24.96h8.57c5.17,0,8.47,4.19,7.37,9.36l-1.96,9.23c-1.1,5.17-6.18,9.36-11.35,9.36h-47.37l4.97-23.33h-20.53l-14.69,69.01h20.53l5.35-25.15h51.01c14.5,0,28.75-11.75,31.84-26.25l3.51-16.51c3.09-14.5-6.16-26.25-20.66-26.25H25.4Z"/><path class="cls-1" d="M155.27,119.26l7.88-37h20.08c2.22,0,4.03.81,5.45,2.43,1.41,1.62,1.9,3.45,1.47,5.5l-1.13,5.29c-.44,2.04-1.71,3.88-3.81,5.5-2.07,1.62-4.23,2.43-6.48,2.43h-14.34l-3.38,15.86h-5.74ZM165.51,98.11h14.34c.65,0,1.35-.29,2.11-.87.76-.58,1.2-1.17,1.32-1.77l1.13-5.29c.13-.6-.06-1.19-.57-1.77-.51-.58-1.09-.87-1.74-.87h-14.34l-2.25,10.57Z"/><path class="cls-1" d="M190.42,111.33l4.5-21.14c.43-2.01,1.69-3.82,3.8-5.45,2.15-1.66,4.32-2.49,6.5-2.49h11.47c2.22,0,4.03.81,5.45,2.43,1.41,1.62,1.9,3.45,1.47,5.5l-4.5,21.14c-.44,2.04-1.71,3.88-3.81,5.5-2.07,1.62-4.23,2.43-6.48,2.43h-11.47c-2.26,0-4.09-.81-5.51-2.43-1.38-1.62-1.85-3.45-1.41-5.5ZM196.16,111.33c-.13.6.06,1.19.57,1.77.51.58,1.09.87,1.74.87h11.47c.65,0,1.35-.29,2.11-.87.76-.58,1.2-1.17,1.32-1.77l4.5-21.14c.13-.6-.06-1.19-.57-1.77-.51-.58-1.09-.87-1.74-.87h-11.47c-.65,0-1.35.29-2.11.87-.75.58-1.2,1.17-1.32,1.77l-4.5,21.14Z"/><path class="cls-1" d="M222.08,119.26l7.88-37h5.74l-6.75,31.72h22.95l-1.13,5.29h-28.69Z"/><path class="cls-1" d="M260.65,90.13l1.68-7.88h5.74l-1.44,6.77,6.89,8.03,10.32-8.03,1.44-6.77h5.74l-1.68,7.88c-.16.74-.56,1.36-1.2,1.85l-12.78,9.89-3.71,17.44h-5.74l3.71-17.44-8.51-9.89c-.47-.49-.62-1.11-.47-1.85Z"/><path class="cls-1" d="M295.44,87.54l1.13-5.29h28.69l-1.13,5.29h-11.47l-6.75,31.72h-5.74l6.75-31.72h-11.47Z"/><path class="cls-1" d="M322.37,119.26l7.88-37h28.69l-1.13,5.29h-22.95l-2.25,10.57h17.21l-1.13,5.29h-17.21l-2.25,10.57h22.95l-1.13,5.29h-28.69Z"/><path class="cls-1" d="M357.44,111.33l4.5-21.14c.44-2.04,1.69-3.88,3.75-5.5,2.1-1.62,4.28-2.43,6.54-2.43h11.47c2.22,0,4.03.81,5.45,2.43,1.41,1.62,1.9,3.45,1.47,5.5l-.56,2.64h-5.74l.56-2.64c.13-.6-.06-1.19-.57-1.77-.51-.58-1.09-.87-1.74-.87h-11.47c-.65,0-1.35.29-2.11.87-.75.58-1.2,1.17-1.32,1.77l-4.5,21.14c-.13.6.06,1.19.57,1.77s1.09.87,1.74.87h11.47c.65,0,1.35-.29,2.11-.87.76-.58,1.2-1.17,1.32-1.77l.56-2.64h5.74l-.56,2.64c-.44,2.04-1.71,3.88-3.81,5.5-2.07,1.62-4.23,2.43-6.48,2.43h-11.47c-2.22,0-4.03-.81-5.45-2.43-1.41-1.62-1.9-3.45-1.47-5.5Z"/><path class="cls-1" d="M388.36,119.26l7.88-37h5.74l-3.38,15.86h17.21l3.38-15.86h5.74l-7.88,37h-5.74l3.38-15.86h-17.21l-3.38,15.86h-5.74Z"/><path class="cls-1" d="M422.41,119.26l7.88-37h5.39l11.79,27.07,5.76-27.07h5.74l-7.88,37h-5.34l-11.85-27.07-5.76,27.07h-5.74Z"/><polygon class="cls-1" points="486.88 87.99 488.1 82.25 466.08 82.25 464.86 87.99 473 87.99 467.56 113.52 459.42 113.52 458.2 119.26 480.22 119.26 481.44 113.52 473.3 113.52 478.74 87.99 486.88 87.99"/><path class="cls-1" d="M490.4,111.33l4.5-21.14c.44-2.04,1.69-3.88,3.75-5.5,2.1-1.62,4.28-2.43,6.54-2.43h11.47c2.22,0,4.03.81,5.45,2.43,1.41,1.62,1.9,3.45,1.47,5.5l-.56,2.64h-5.74l.56-2.64c.13-.6-.06-1.19-.57-1.77-.51-.58-1.09-.87-1.74-.87h-11.47c-.65,0-1.35.29-2.11.87-.75.58-1.2,1.17-1.32,1.77l-4.5,21.14c-.13.6.06,1.19.57,1.77s1.09.87,1.74.87h11.47c.65,0,1.35-.29,2.11-.87.76-.58,1.2-1.17,1.32-1.77l.56-2.64h5.74l-.56,2.64c-.44,2.04-1.71,3.88-3.81,5.5-2.07,1.62-4.23,2.43-6.48,2.43h-11.47c-2.22,0-4.03-.81-5.45-2.43-1.41-1.62-1.9-3.45-1.47-5.5Z"/></g></svg>