<?xml version="1.0" encoding="UTF-8"?><svg id="Layer_2" xmlns="http://www.w3.org/2000/svg" viewBox="0 0 612 59.99"><defs><style>.cls-1{fill:#fff;}</style></defs><g id="Layer_1-2"><rect class="cls-1" x="399.31" width="14.82" height="59.99"/><polygon class="cls-1" points="245.58 0 230.76 0 230.76 0 200.21 0 200.21 14.83 230.76 14.83 230.76 59.99 245.58 59.99 245.58 14.83 276.13 14.83 276.13 0 245.58 0 245.58 0"/><polygon class="cls-1" points="480.42 39.88 434.14 2.04 431.25 0 423.51 0 419.33 0 419.33 5.69 419.33 9.73 419.33 59.99 434.14 59.99 434.14 20.16 480.42 58 483.25 59.99 491.09 59.99 495.25 59.99 495.25 54.35 495.25 50.32 495.25 0 480.42 0 480.42 39.88"/><rect class="cls-1" x="577.8" y="45.17" width="14.82" height="14.82"/><path class="cls-1" d="M79.31,0H0v14.82h79.31c9.53,0,17.29,4.8,17.29,15.34s-7.76,15.01-17.29,15.01h-36.49v-24.37h-14.82v39.19h51.31c17.95,0,32.5-10.87,32.5-29.83S97.26,0,79.31,0Z"/><path class="cls-1" d="M532.69,0c-17.95,0-32.5,11.21-32.5,30.16s14.55,29.83,32.5,29.83h36.15v-14.82h-36.15c-9.53,0-17.29-4.47-17.29-15.01s7.76-15.34,17.29-15.34h79.31V0h-79.31Z"/><path class="cls-1" d="M157.4,0C116.33,0,117.27,27.18,117.27,27.18h0v14.82h0v17.99h14.82v-17.99h50.63v17.99h14.82v-17.99h0v-14.82h0S198.48,0,157.4,0ZM132.09,27.18s0-15.17,25.32-15.17,25.32,15.17,25.32,15.17h-50.63Z"/><path class="cls-1" d="M318.93,0c-41.07,0-40.14,27.18-40.14,27.18h0v14.82h0v17.99h14.82v-17.99h50.63v17.99h14.82v-17.99h0v-14.82h0S360.01,0,318.93,0ZM293.62,27.18s0-15.17,25.32-15.17,25.32,15.17,25.32,15.17h-50.63Z"/></g></svg>