<?xml version="1.0" encoding="UTF-8"?><svg id="Layer_2" xmlns="http://www.w3.org/2000/svg" viewBox="0 0 304.64 159.98"><defs><style>.cls-1,.cls-2{stroke-width:0px;}.cls-2{fill:#fff;}</style></defs><g id="Layer_1-2"><path class="cls-2" d="M18.06,81.87H0v10.22h20.27v22.26H0v10.43h18.06c6.77,0,12.26-5.49,12.26-12.26v-18.38c0-6.77-5.49-12.26-12.26-12.26Z"/><rect class="cls-2" x="34.52" y="81.87" width="24.18" height="10.22"/><rect class="cls-2" x="34.52" y="98.21" width="24.18" height="10.22"/><rect class="cls-2" x="34.52" y="114.56" width="24.18" height="10.22"/><path class="cls-2" d="M278.66,81.87h-18.06v10.22h20.27v22.26h-20.27v10.43h18.06c6.77,0,12.26-5.49,12.26-12.26v-18.38c0-6.77-5.49-12.26-12.26-12.26Z"/><rect class="cls-2" x="232.22" y="81.87" width="24.18" height="10.22"/><polygon class="cls-2" points="196.16 92.01 213.42 92.01 196.16 115.05 196.16 124.86 226.49 124.86 226.49 114.64 209.23 114.64 226.49 91.61 226.49 81.79 196.16 81.79 196.16 92.01"/><rect class="cls-2" x="232.22" y="98.21" width="24.18" height="10.22"/><rect class="cls-2" x="232.22" y="114.56" width="24.18" height="10.22"/><path class="cls-2" d="M194.13,96.22c-.16-6.01-3.55-10.89-9.14-13.26l-.58-5.73-1.14-10.04c1.88-18.31-7.19-25.45-10.75-27.51-2.32-3.97-5.35-6.4-9.01-7.22-.85-.19-1.73-.28-2.61-.28-2.04,0-3.88.51-5.31,1.08-3.16-3.02-7.21-3.7-10.19-3.7-.3,0-.61,0-.91.02-2.47-3.28-7.36-10.28-10.43-18.07l-4.55-11.51-3.05,11.99c-.41,1.62-.65,3.17-.72,4.62-1.02-1.41-2.11-3.23-3.05-5.49L118.2.3l-3.06,11.31c-1.28,4.71-2.13,11.25.25,17.36-3.34-.54-8.83-1.62-14.1-3.55l-9.51-3.48,4.56,9.03c1.66,3.29,4.23,7.46,7.74,10.53l-29.78,7.07,25.01,8.66-16.43,18.89,13.99-2.31-9.51,9.87c-1.86-1.14-4.05-1.81-6.4-1.81h-18.06v10.22h20.27v22.26h-20.27v10.43h18.06c6.77,0,12.26-5.49,12.26-12.26v-18.38c0-4.01-1.93-7.56-4.91-9.8l12.48.58c-1.84,2.09-3.84,5.65-3.99,11.31-.44,16.71,7.1,20.85,12.73,21.62-.28,6.62,1.73,16.68,10.75,20.19,1.11,2.54,4.94,10.15,12.18,13.16,3.88,1.62,6.86,2.44,8.83,2.44,0,0,1.17.03,1.17.03.9.36,1.91.56,2.97.56.55,0,1.05-.05,1.5-.13.07.19.14.38.21.57.53,1.3,1.26,2.41,2.18,3.3,1.17,1.15,2.83,1.9,4.44,2,.24.02.47.03.69.03,1.15,0,2.23-.22,3.44-.71,1.41-.6,2.68-1.67,3.46-2.9.69-1.04,1.15-2.21,1.42-3.57.2-.97.29-2.01.29-3.16,0-.41,0-.82-.03-1.23,4.32-3.55,6.78-8.48,7.61-10.37,9.11-3.54,11.04-13.83,10.77-20.19,5.63-.78,13.16-4.92,12.73-21.62Z"/><path class="cls-1" d="M192.34,96.27c-.18-6.64-4.53-10.46-9.02-12.03l-.69-6.81-1.16-10.24c1.94-18.24-7.4-24.67-10.25-26.19-2.09-3.78-4.82-6.06-8.09-6.79-3.19-.71-6.11.28-7.96,1.2-3.5-4.19-8.94-4.23-11.51-3.97-2.47-3.19-7.88-10.7-11.26-19.27l-2.5-6.33-1.68,6.6c-.92,3.62-.91,6.75.03,9.31l.07.19-.16-.13s-4.28-3.16-7.11-10.01l-2.47-5.96-1.69,6.22c-1.41,5.19-2.28,12.7,1.56,19.03l.07.11h-.13c-.37-.05-9.27-1.01-17.7-4.1l-5.23-1.91,2.51,4.97c2.02,4.01,5.44,9.36,10.26,12.09l.14.08-27.62,6.55,21.69,7.51-14.9,17.13,14.41-2.38-11.08,11.5,13.13.61.14,1.07c-2.46,1.66-5.35,5.35-5.53,11.94-.43,16.17,6.72,19.76,12.79,19.92h.08v.08c-.09.67-1.77,16.36,10.14,20.33l.04.04c.15.39,3.74,9.66,11.5,12.89,4.57,1.91,6.96,2.3,8.15,2.3h.03l1.53.04c.57.28,1.43.55,2.57.55s2.03-.28,2.6-.55h.13c.16.7.36,1.4.65,2.11.37.92.92,1.87,1.77,2.69.84.82,2.11,1.42,3.31,1.5,1.22.09,2.22-.11,3.3-.54,1.06-.45,2.06-1.28,2.67-2.24.64-.96.97-1.97,1.16-2.94.19-.96.26-1.9.26-2.81,0-.7-.03-1.38-.09-2.06,5.42-4.01,7.98-10.62,8.1-10.94l.04-.04c11.91-3.97,10.24-19.67,10.16-20.33v-.08s.06,0,.06,0c6.07-.16,13.22-3.75,12.8-19.92ZM149.49,36.56c1.59.12,2.31,1.44,3.08,2.86l1.23,2.25,2.04-1.55s3.13-2.33,6.34-1.6c2.11.48,3.95,2.21,5.46,5.16l.38.72.74.31c.41.18,9.66,4.27,8.44,20.64h0c-1.13.05-2.57.04-4.26-.12.55-1.97,1.26-6.74-3-10.68,0,0-.8-4.23-4.09-6.57,0,0,2.8,4.05.63,7.02,0,0,7.03,3.18,2.46,9.6-2.51-.55-5.28-1.46-8.12-2.93,1.33-.86,2.92-2.62.96-5.64,0,0,2.62-4.4-3.38-8.72.39.35,5,4.62-.03,7.94,0,0,2.82,3.26-.35,4.79-5.67-3.71-11.33-9.91-15.37-20.2,0,0,3.5-3.53,6.82-3.28ZM107.2,93.8c.4,1.48,1.89,1.51,2.88,3.54,1.55,3.16,1.74,7.37,2.45,9.31-3.23-.17-10.52-1.72-5.33-12.85ZM120.86,127.36c-.67.06-2.62-1.04-4.28-2.08-.7-2.28-.87-4.61-.87-6.25,0-1.26.09-2.12.11-2.25l.39-3.35c1.84.23,4.13,1.08,4.37,3.86.42,4.72,1.53,9.96.27,10.07ZM157.43,152.56c-1.63,2.28-5.64,4.21-6.4-2.18-.21-1.78-.78-4.94.03-8.28.41-1.69.38-3.07.33-4.42-.01-.41-.03-.81-.03-1.22-2.99.33-6.78.13-9.26-.07-13.09-1.09-12.47-1.99-12.47-2.52s.56-.57,4.5-.14c3.28.35,4.64.73,9.26,1.03,1.79.11,5.73.09,7.95.08-.07-4.84.11-7.03-.11-8.74-.31-2.41-.78-3.77,1.26-3.87,2.04-.11,3.07,2.59,3.56,5.14s-.02,3.81.25,7.24c2.11-.08,5.5-.16,5.5.15,0,.19-5.17,2.38-4.91,4.84.55,5.21,3.29,9.13.53,12.97ZM129.73,128.32c.3-1.26,1-2.69,2.4-2.53.6.07.82.38.52,2.23-.2,1.23-.38,1.75-1.78,1.75s-1.31-.72-1.14-1.46ZM139.08,127.08c.16,2.33-.29,2.7-1.99,2.8-1.42.09-3.09.33-3.09-2.62,0-3.96,1.81-5.82,4.45-6.53,1.57-.42.47,4.08.63,6.35ZM145.45,120.86c2.38.01,3.32,5.33,3.38,6.92.08,2.23-.79,2.68-3.38,2.57-1.69-.08-3.28-.62-3.59-3.35-.21-1.88.73-6.15,3.59-6.13ZM160.27,124.39c.58,0,1.1,1.91,1.31,4.23.11,1.27.14,2.07-1.2,2.31-1.45.26-2-.22-2.46-1.57-.13-.36-.21-.7-.28-1.01-.03-.26-.06-.53-.1-.79v-.03c-.11-2.23,1.38-3.13,2.73-3.13ZM160.32,142.49c-.22-1.01-.47-2.01-.72-3.01-.03-.09-.05-.18-.07-.26,1.95-.68,3.61-1.54,4.89-2.55-.78,1.52-2.15,3.84-4.1,5.81ZM174.33,125.32h0c-1.65,1.03-3.55,2.1-4.21,2.04-1.26-.1.27-6.37.69-11.08.25-2.76,2.67-5.96,4.5-6.19,0,0,.29,11.18-.98,15.23ZM175.6,100.67c-2.47,9.43-7.4,8.16-7.72,8.07,3.33,1.5-1.41,14.74-1.09,20.18,0,0,0,0,0,0-3.65-8.59-14.62-11.69-25.13-11.75-11.22-.08-14.82,6.22-14.9,10.76-.18,9.89,4.79,12.16,17.83,13,1.43.09,2.83.12,4.19.09l-.24.87c-.13.45-.24.9-.33,1.34-.27,1.31-.4,2.61-.44,3.92-.73.05-1.49.08-2.27.08h0c-4.62,0-8.47-1.03-10.32-1.62-.11-.04-.22-.09-.33-.14-5.94-2.47-9.04-10.31-9.08-10.39l-.51-1.35s0,0,0,0c0,0-6.74-24.5,3.18-27.47,0,0-9.08.63-13.06-5.59-2.18-3.41-3.84-6.48-3.77-17.2.1-15.89,9.64-25.55,9.93-25.86l-6.35,3.38s2.79-4.26,6.72-7.75l-5.87-1.99,12.42-3.93-3.87-6.3,7.8,2.52,1.16-6.65s11.25,38.37,43.99,34.79h0s.7,6.21.7,6.21l1.05,9.67c-.17,3.74-.87,6.18-1.65,8.09-.77,1.91-1.61,3.32-2.05,5ZM178.45,106.64c.72-1.93,1.68-5.53,1.88-8.06s2.97-3.08,3.38-4.51c2.42,5.33,2.06,12.58.55,14.36s-4.16-1.9-5.81-1.79Z"/><path class="cls-1" d="M145.98,107.31c2.87.42,9.01,4.47,9.01,4.47,0,0-3.07-6.08-3.14-8.46l-1.68.7-1.05-1.79s-4.49,3.92-8.6-.73c0,0-2.17,8.32-3.56,9.92,0,0,6.15-4.54,9.01-4.12Z"/><path class="cls-1" d="M133.2,93.62c1.64-.49-3.55,5.52-3.83,5.84.26-.23,4.43-3.99,5.51-4.6l.65,1.47s2.49-3.77,2.42-5.73c-.07-1.96-.56-4.4,0-5.17l-.45-1.39c-.08-.23-.22-.44-.41-.59l-1.22-.96c-.23-.18-.5-.27-.79-.26l-15.82.46c-.37,0-.71.21-.89.53l-2.64,4.72,1.47-.97-.74,1.54s.74.27,1.68,1.42c.94,1.16,3.67,9.96,7.96,8.7,4.3-1.26,5.42-4.52,7.09-5.02ZM125.42,94.81c-3.93-.16-4.74-4.45-4.74-4.45l9.75.49s.36,4.18-5.01,3.96Z"/><path class="cls-1" d="M155.77,95.08s4.54,4.96,8.6,4.4c2.96-.41,5.64-4.23,6.85-6.25.49-.81,1.25-1.42,2.16-1.72l.42-3.25c.09-.69-.11-1.39-.55-1.93l-1.89-2.32c-.31-.39-.79-.62-1.28-.64l-15.79-.48c-.9-.03-1.74.43-2.2,1.21l-1.49,2.52s2.79,8.03,2.79,10.69c0,0,1.54-2.03,2.38-2.24ZM168.24,88.94s-1.3,3.21-6.47,3.88c-4.35.56-6.51-3.76-6.51-3.76l12.98-.12Z"/><path class="cls-2" d="M296.12,82.54v5.95h-.72v-5.95h-1.8v-.67h4.15v.67h-1.63ZM303.92,88.49v-5.98h-.12l-1.75,3.5h-.53l-1.61-3.48h-.12v5.95h-.72v-6.62h1.3l1.42,3.12,1.51-3.12h1.34v6.62h-.72Z"/></g></svg>