<?xml version="1.0" encoding="UTF-8"?><svg id="Layer_2" xmlns="http://www.w3.org/2000/svg" viewBox="0 0 616.25 52.87"><defs><style>.cls-1{fill:#fff;stroke-width:0px;}</style></defs><g id="Layer_2-2"><path class="cls-1" d="M59,52.87H0V0h59c5.7,0,10.46,2.1,14.29,6.3,3.34,3.71,5,8.04,5,13v14.21c0,5.76-2.13,10.55-6.38,14.37-3.66,3.34-7.96,5-12.91,5ZM59.08,42.29c2.53,0,4.71-1.18,6.54-3.55,1.18-1.51,1.78-3.09,1.78-4.76v-15.09c0-2.58-1.21-4.79-3.63-6.62-1.51-1.13-3.07-1.7-4.68-1.7H10.82v31.72h48.27Z"/><path class="cls-1" d="M127.77,20.18L150.94,0h16.22l-33.98,29.7v23.17h-10.74v-23.17L89.03,0h16.22l22.52,20.18Z"/><path class="cls-1" d="M246.18,34.87V0h10.9v52.87l-68.28-34.87v34.87h-10.9V0l68.28,34.87Z"/><path class="cls-1" d="M338.03,0c3.77,0,6.4,1.51,7.91,4.52.65,1.29.97,2.74.97,4.36v43.99h-10.9v-20.66h-57.15v20.66h-11.06V8.88c0-3.71,1.51-6.32,4.52-7.83,1.29-.7,2.77-1.05,4.44-1.05h61.26ZM334.48,10.57h-54.08c-.86,0-1.37.4-1.53,1.21-.05.16-.08.3-.08.4,0,.54.03,3.69.08,9.44h57.15v-9.36c0-.86-.4-1.4-1.21-1.61-.11-.05-.22-.08-.32-.08Z"/><path class="cls-1" d="M357.64,0h10.81v42.21h67.48v10.65h-78.29V0Z"/><path class="cls-1" d="M516.89,0c3.77,0,6.4,1.51,7.91,4.52.65,1.29.97,2.74.97,4.36v43.99h-10.9v-20.66h-57.15v20.66h-11.06V8.88c0-3.71,1.51-6.32,4.52-7.83,1.29-.7,2.77-1.05,4.44-1.05h61.26ZM513.34,10.57h-54.08c-.86,0-1.37.4-1.53,1.21-.06.16-.08.3-.08.4,0,.54.03,3.69.08,9.44h57.15v-9.36c0-.86-.4-1.4-1.21-1.61-.11-.05-.22-.08-.32-.08Z"/><path class="cls-1" d="M581.95,32.2h-34.63v20.66h-10.81V0h69.41c3.77,0,6.4,1.51,7.91,4.52.65,1.29.97,2.74.97,4.36v14.37c0,3.77-1.48,6.4-4.44,7.91-1.35.7-2.83,1.05-4.44,1.05h-10.25l20.58,20.66h-13.72l-20.58-20.66ZM602.53,21.55c.86,0,1.37-.4,1.54-1.21.05-.16.08-.3.08-.4v-7.75c0-.86-.4-1.4-1.21-1.62-.16-.05-.3-.08-.4-.08h-55.05v11.06h55.05Z"/></g></svg>