<?xml version="1.0" encoding="UTF-8"?><svg id="Layer_2" xmlns="http://www.w3.org/2000/svg" viewBox="0 0 366.13 156.44"><defs><style>.cls-1{fill:#fff;stroke-width:0px;}</style></defs><g id="Layer_1-2"><path class="cls-1" d="M102.18,8.69H0V0h102.18v8.69ZM102.18,25.54H0v-8.69h102.18v8.69ZM104.09,105.83H0v-8.69h104.09v8.69ZM104.09,122.68H0v-8.51h104.09v8.51ZM49.52,41.01H16.68v-7.47h32.84v7.47ZM74.55,56.48H16.68v-7.65h57.86v7.65ZM74.55,71.42H16.68v-7.99h57.86v7.99ZM49.52,88.8H16.68v-9.73h32.84v9.73ZM102.18,41.01h-27.98v-7.47h27.98v7.47ZM104.09,88.8h-29.89v-9.73h29.89v9.73Z"/><path class="cls-1" d="M202.27,8.69h-94.01V0h69.51c9.96,0,18.13,2.9,24.5,8.69ZM211.65,25.54h-103.39v-8.69h100.26c1.39,2.78,2.43,5.68,3.13,8.69ZM211.65,97.14c-.7,3.01-1.74,5.91-3.13,8.69h-100.26v-8.69h103.39ZM202.27,114.17c-6.02,5.68-14.08,8.51-24.15,8.51h-69.85v-8.51h94.01ZM152.92,41.53h-27.8v-7.99h27.8v7.99ZM208.17,49.35c-2.2,3.48-4.63,6.14-7.3,7.99h-75.76v-7.99h83.06ZM208.17,73.16h-83.06v-7.82h76.28c2.78,2.09,5.04,4.69,6.78,7.82ZM152.92,88.8h-27.8v-7.99h27.8v7.99ZM212.35,33.54c0,2.78-.35,5.45-1.04,7.99h-33.71v-7.99h34.75ZM212.35,88.8h-34.75v-7.99h33.71c.69,2.67,1.04,5.33,1.04,7.99Z"/><path class="cls-1" d="M267.77,8.69h-55.26V.35h51.09l4.17,8.34ZM275.77,25.54h-63.25v-8.69h59.08l4.17,8.69ZM259.96,105.83h-47.44v-8.69h47.44v8.69ZM259.96,122.68h-47.44v-8.51h47.44v8.51ZM283.42,41.01h-54.04v-7.47h50.39l3.65,7.47ZM349.45,56.48h-31.63v-5.21l-2.08,5.21h-53.52l-2.26-5.73v5.73h-30.58v-7.65h57.69l2.61,5.39,2.43-5.39h57.34v7.65ZM259.96,71.42h-30.58v-7.99h30.58v7.99ZM259.96,88.8h-30.58v-9.73h30.58v9.73ZM312.95,63.43l-3.13,7.99h-41.53l-3.3-7.99h47.96ZM306.87,79.06l-4,9.73h-27.46l-4-9.73h35.45ZM299.58,97.14l-3.3,8.69h-13.9l-3.48-8.69h20.68ZM292.97,114.17l-3.48,8.51-3.65-8.51h7.12ZM349.45,41.18h-53.87l3.48-7.47h50.39v7.47ZM366.13,25.72h-63.43l4-8.69h59.43v8.69ZM366.13,8.86h-55.61l3.82-8.51h51.78v8.51ZM349.45,71.59h-31.63v-7.99h31.63v7.99ZM349.45,88.97h-31.63v-9.73h31.63v9.73ZM366.13,106h-48.31v-8.69h48.31v8.69ZM366.13,122.68h-48.31v-8.34h48.31v8.34Z"/><path class="cls-1" d="M11.03,139.12h-6.76v4.66h2.91c.26,0,.48.1.67.28.19.19.28.41.28.67,0,.27-.09.5-.28.69-.19.19-.41.28-.68.28h-2.91v4.69h6.78c.26,0,.48.09.67.28.19.19.28.41.28.68s-.1.49-.29.68-.42.28-.69.28H2.35v-15.13h8.67c.27,0,.5.1.69.29s.29.42.29.69-.1.48-.29.67c-.19.19-.42.28-.69.28Z"/><path class="cls-1" d="M20.99,150.38l3.21-2.05v-6.04c0-.27.09-.5.28-.69.19-.19.41-.29.68-.29s.49.1.68.29c.19.19.28.42.28.69v9.07c0,.26-.09.48-.28.67-.19.19-.41.28-.67.28s-.48-.09-.67-.28-.28-.41-.28-.67v-.75l-1.66,1.08c-.65.42-1.31.63-1.98.63h-.89c-.78,0-1.45-.27-2.01-.82s-.86-1.21-.9-2l-.28-7.21c-.02-.25.07-.47.27-.67.19-.19.42-.29.69-.29s.48.09.67.28c.19.19.28.41.29.67l.26,7.07c.02.68.41,1.02,1.17,1.02h1.16Z"/><path class="cls-1" d="M30.52,151.36v-9.07c0-.27.09-.5.28-.69.19-.19.41-.29.68-.29s.49.1.68.28c.19.19.28.42.28.69v1.2l1.56-1.33c.65-.55,1.27-.82,1.89-.82h1.4c.79,0,1.46.28,2.03.84.56.56.84,1.24.84,2.03v.51c0,.27-.09.5-.28.69-.19.19-.41.28-.68.28s-.49-.09-.68-.28-.28-.41-.28-.68v-.54c0-.27-.09-.49-.28-.68s-.41-.28-.68-.28h-1.24c-.27,0-.56.14-.89.42l-2.72,2.36v5.34c0,.27-.1.49-.28.68-.19.19-.41.28-.67.28s-.49-.09-.68-.28-.28-.41-.28-.68Z"/><path class="cls-1" d="M54.23,144.78v4.04c0,.86-.4,1.65-1.21,2.38s-1.64,1.09-2.5,1.09h-2.24c-.87,0-1.71-.37-2.5-1.11-.8-.74-1.2-1.53-1.2-2.36v-4.04c0-.83.39-1.62,1.17-2.36.78-.74,1.62-1.11,2.53-1.11h2.24c.86-.02,1.69.34,2.5,1.07s1.21,1.53,1.21,2.4ZM46.51,144.86v3.87c0,.35.12.63.38.83l.72.61c.16.14.38.21.67.21h2.22c.33,0,.62-.12.89-.35l.58-.51c.24-.18.35-.44.35-.76v-3.87c0-.38-.12-.66-.35-.84l-.67-.54c-.23-.19-.49-.28-.8-.28h-1.98c-.43,0-.77.1-1,.31l-.65.56c-.24.2-.35.46-.35.77Z"/><path class="cls-1" d="M60.62,151.23v4.23c0,.27-.09.5-.28.69-.19.19-.41.28-.68.28s-.5-.1-.69-.28c-.19-.19-.29-.42-.29-.69v-13.64c0-.26.09-.48.28-.67.19-.19.42-.28.69-.28.26,0,.48.09.67.28s.28.41.28.67v.61c.93-1.03,1.84-1.55,2.74-1.55h.44c.68,0,1.3.25,1.87.75l1.59,1.38c.7.61,1.05,1.38,1.05,2.31v2.98c0,.94-.38,1.73-1.13,2.38l-1.56,1.34c-.52.47-1.17.71-1.96.71h-.42c-.74,0-1.37-.26-1.89-.77l-.74-.74ZM63.32,150.8h.49c.24,0,.49-.12.75-.35l1.49-1.31c.25-.2.38-.47.38-.81v-3.08c0-.3-.14-.57-.42-.81l-1.6-1.38c-.18-.16-.38-.24-.59-.24h-.56c-.21,0-.49.17-.83.52l-1.42,1.41c-.25.25-.38.53-.38.84v2.45c0,.3.14.58.42.87l1.38,1.38c.34.34.64.51.9.51Z"/><path class="cls-1" d="M82.4,144.93v2.31c0,.26-.1.48-.28.67s-.41.28-.67.28h-6.76v.56c0,.33.14.6.42.83l.56.47c.3.24.59.35.87.35h4.92c.26,0,.48.09.67.28.19.19.28.41.28.68s-.1.48-.29.67c-.19.19-.42.28-.67.28h-5.04c-.33,0-.69-.07-1.05-.21-.37-.14-.64-.29-.81-.44l-.85-.75c-.27-.21-.49-.51-.67-.89s-.27-.73-.27-1.05v-4.38c0-.25.1-.59.29-1.01.19-.42.44-.75.73-.99l.8-.63c.52-.42,1.1-.64,1.74-.64h2.69c.68,0,1.31.28,1.91.84l.72.68c.52.46.77,1.15.77,2.07ZM74.7,144.78v1.48h5.81v-1.33c0-.36-.11-.63-.33-.82l-.56-.49c-.29-.24-.55-.35-.77-.35h-2.4c-.3,0-.57.1-.81.31l-.56.47c-.25.19-.38.44-.38.74Z"/><path class="cls-1" d="M89.7,145.42h3.75c.21,0,.5.05.89.14l-.02-1.35c0-.27-.09-.49-.28-.68-.19-.19-.41-.28-.68-.28h-3.64c-.26,0-.48-.1-.67-.28-.19-.19-.29-.41-.29-.67s.09-.49.28-.68c.19-.19.41-.28.68-.28h3.64c.79,0,1.46.28,2.02.83.56.55.85,1.23.87,2.04l.24,7.16c0,.27-.09.49-.28.68-.19.19-.41.28-.67.28-.27,0-.5-.09-.69-.28-.19-.19-.28-.41-.28-.68l-1.62.96h-3.24c-.81,0-1.49-.28-2.05-.84-.56-.56-.84-1.24-.84-2.05v-1.12c0-.8.28-1.48.85-2.04.57-.56,1.25-.85,2.05-.85ZM94.48,149.14l-.06-.81c0-.27-.1-.5-.28-.68-.18-.18-.41-.27-.67-.27h-3.77c-.27,0-.49.09-.68.28s-.28.41-.28.68v1.07c0,.26.09.48.28.67.19.19.41.28.67.28h2.7l2.09-1.22Z"/><path class="cls-1" d="M105.45,143.55l-2.61,1.7v6.11c0,.26-.1.48-.28.67s-.41.28-.67.28-.48-.09-.67-.28c-.19-.19-.28-.41-.28-.67v-9.07c0-.27.09-.5.28-.69.19-.19.41-.29.68-.29s.48.1.67.29c.19.19.28.42.28.69v.64l1.75-1.06c.59-.37,1.25-.56,1.98-.56h.89c.76,0,1.42.27,1.97.81.55.54.85,1.2.88,1.99l.26,7.25c0,.26-.08.48-.27.67s-.42.28-.68.28c-.25,0-.47-.09-.66-.26-.19-.17-.29-.4-.3-.7l-.28-7.14c-.02-.67-.37-1-1.05-1h-.94c-.29,0-.6.11-.94.33Z"/><path class="cls-1" d="M138.72,147.63v.84c0,1.05-.37,1.96-1.12,2.71-.75.76-1.65,1.13-2.7,1.13h-5.85v-15.13h5.85c1.06,0,1.96.38,2.7,1.13.75.75,1.12,1.66,1.12,2.72v.81c0,1.13-.44,2.09-1.31,2.89.87.81,1.31,1.78,1.31,2.89ZM136.76,141.82v-.79c0-.53-.19-.99-.56-1.37-.38-.38-.83-.57-1.35-.57h-3.89v4.63h3.89c.52,0,.96-.19,1.34-.56s.57-.83.57-1.35ZM136.76,148.47v-.8c0-.53-.19-.99-.56-1.37-.38-.38-.83-.57-1.35-.57h-3.87v4.65h3.87c.52,0,.96-.19,1.34-.56.38-.38.57-.83.57-1.35Z"/><path class="cls-1" d="M147.72,150.38l3.21-2.05v-6.04c0-.27.09-.5.28-.69.19-.19.41-.29.68-.29s.49.1.68.29c.19.19.28.42.28.69v9.07c0,.26-.09.48-.28.67-.19.19-.41.28-.67.28s-.48-.09-.67-.28-.28-.41-.28-.67v-.75l-1.66,1.08c-.65.42-1.31.63-1.98.63h-.89c-.78,0-1.45-.27-2.01-.82s-.86-1.21-.9-2l-.28-7.21c-.02-.25.07-.47.27-.67.19-.19.42-.29.69-.29s.48.09.67.28c.19.19.28.41.29.67l.26,7.07c.02.68.41,1.02,1.17,1.02h1.16Z"/><path class="cls-1" d="M159.93,141.33h4.38c.68,0,1.29.2,1.81.61.52.41.79.8.79,1.19,0,.27-.1.5-.29.67-.19.17-.41.26-.64.26-.3,0-.58-.14-.83-.41-.25-.27-.51-.41-.79-.41h-4.33c-.43,0-.64.18-.64.53,0,.25.14.44.43.56l5.08,2.26c.52.23.94.59,1.27,1.1.33.5.5,1.06.5,1.68,0,.82-.29,1.51-.87,2.08-.58.57-1.24.85-1.98.85h-3.87c-.67,0-1.29-.2-1.86-.6-.57-.4-.86-.79-.86-1.17,0-.25.09-.47.28-.67.19-.19.43-.29.72-.29.24,0,.5.14.78.41.28.27.68.41,1.2.41h3.56c.28,0,.52-.11.71-.32.19-.22.28-.46.28-.75,0-.43-.21-.74-.64-.93l-5.13-2.31c-.49-.22-.87-.54-1.14-.96-.27-.42-.4-.84-.4-1.27,0-.68.24-1.28.71-1.78.47-.5,1.06-.75,1.76-.75Z"/><path class="cls-1" d="M179.06,152.3h-5.83c-.27,0-.49-.09-.68-.28s-.28-.41-.28-.68.09-.48.28-.67c.19-.19.41-.28.68-.28h1.96v-7.14h-1.94c-.27,0-.49-.1-.68-.28-.19-.19-.28-.41-.28-.67s.09-.5.28-.69c.19-.19.41-.29.68-.29h2.91c.27,0,.49.1.68.29.19.19.28.42.28.69v8.09h1.91c.27,0,.5.09.69.28s.29.41.29.68-.09.49-.28.68c-.19.19-.41.28-.67.28ZM175.16,136.35h1c.27,0,.49.09.68.28.19.19.28.41.28.68v.82c0,.27-.09.5-.28.69-.19.19-.41.29-.68.29h-1.02c-.27,0-.5-.1-.69-.3s-.27-.42-.27-.66l.02-.84c0-.27.09-.49.28-.68.19-.19.41-.28.68-.28Z"/><path class="cls-1" d="M189.94,143.55l-2.61,1.7v6.11c0,.26-.1.48-.28.67s-.41.28-.67.28-.48-.09-.67-.28c-.19-.19-.28-.41-.28-.67v-9.07c0-.27.09-.5.28-.69.19-.19.41-.29.68-.29s.48.1.67.29c.19.19.28.42.28.69v.64l1.75-1.06c.59-.37,1.25-.56,1.98-.56h.89c.76,0,1.42.27,1.97.81.55.54.85,1.2.88,1.99l.26,7.25c0,.26-.08.48-.27.67s-.42.28-.68.28c-.25,0-.47-.09-.66-.26-.19-.17-.29-.4-.3-.7l-.28-7.14c-.02-.67-.37-1-1.05-1h-.94c-.29,0-.6.11-.94.33Z"/><path class="cls-1" d="M209.13,144.93v2.31c0,.26-.1.48-.28.67s-.41.28-.67.28h-6.76v.56c0,.33.14.6.42.83l.56.47c.3.24.59.35.87.35h4.92c.26,0,.48.09.67.28.19.19.28.41.28.68s-.1.48-.29.67c-.19.19-.42.28-.67.28h-5.04c-.33,0-.69-.07-1.05-.21-.37-.14-.64-.29-.81-.44l-.85-.75c-.27-.21-.49-.51-.67-.89s-.27-.73-.27-1.05v-4.38c0-.25.1-.59.29-1.01.19-.42.44-.75.73-.99l.8-.63c.52-.42,1.1-.64,1.74-.64h2.69c.68,0,1.31.28,1.91.84l.72.68c.52.46.77,1.15.77,2.07ZM201.44,144.78v1.48h5.81v-1.33c0-.36-.11-.63-.33-.82l-.56-.49c-.29-.24-.55-.35-.77-.35h-2.4c-.3,0-.57.1-.81.31l-.56.47c-.25.19-.38.44-.38.74Z"/><path class="cls-1" d="M216.26,141.33h4.38c.68,0,1.29.2,1.81.61.52.41.79.8.79,1.19,0,.27-.1.5-.29.67-.19.17-.41.26-.64.26-.3,0-.58-.14-.83-.41-.25-.27-.51-.41-.79-.41h-4.33c-.43,0-.64.18-.64.53,0,.25.14.44.43.56l5.08,2.26c.52.23.94.59,1.27,1.1.33.5.5,1.06.5,1.68,0,.82-.29,1.51-.87,2.08-.58.57-1.24.85-1.98.85h-3.87c-.67,0-1.29-.2-1.86-.6-.57-.4-.86-.79-.86-1.17,0-.25.09-.47.28-.67.19-.19.43-.29.72-.29.24,0,.5.14.78.41.28.27.68.41,1.2.41h3.56c.28,0,.52-.11.71-.32.19-.22.28-.46.28-.75,0-.43-.21-.74-.64-.93l-5.13-2.31c-.49-.22-.87-.54-1.14-.96-.27-.42-.4-.84-.4-1.27,0-.68.24-1.28.71-1.78.47-.5,1.06-.75,1.76-.75Z"/><path class="cls-1" d="M230.34,141.33h4.38c.68,0,1.29.2,1.81.61.52.41.79.8.79,1.19,0,.27-.1.5-.29.67-.19.17-.41.26-.64.26-.3,0-.58-.14-.83-.41-.25-.27-.51-.41-.79-.41h-4.33c-.43,0-.64.18-.64.53,0,.25.14.44.43.56l5.08,2.26c.52.23.94.59,1.27,1.1.33.5.5,1.06.5,1.68,0,.82-.29,1.51-.87,2.08-.58.57-1.24.85-1.98.85h-3.87c-.67,0-1.29-.2-1.86-.6-.57-.4-.86-.79-.86-1.17,0-.25.09-.47.28-.67.19-.19.43-.29.72-.29.24,0,.5.14.78.41.28.27.68.41,1.2.41h3.56c.28,0,.52-.11.71-.32.19-.22.28-.46.28-.75,0-.43-.21-.74-.64-.93l-5.13-2.31c-.49-.22-.87-.54-1.14-.96-.27-.42-.4-.84-.4-1.27,0-.68.24-1.28.71-1.78.47-.5,1.06-.75,1.76-.75Z"/><path class="cls-1" d="M259.68,143.13v-.49l-1.98-2.82v11.54c0,.27-.09.49-.28.68s-.41.28-.68.28-.49-.09-.68-.28c-.19-.19-.28-.41-.28-.67v-14.17h2.47l2.35,3.43,2.43-3.43h2.43v14.17c0,.27-.1.49-.29.68s-.42.28-.69.28-.48-.09-.67-.28c-.19-.19-.29-.41-.29-.67v-11.5l-1.94,2.73v.53c0,.26-.09.48-.28.67-.19.19-.41.28-.67.28s-.49-.09-.68-.28c-.19-.19-.28-.41-.28-.67Z"/><path class="cls-1" d="M272.76,145.42h3.75c.21,0,.5.05.89.14l-.02-1.35c0-.27-.09-.49-.28-.68s-.41-.28-.68-.28h-3.64c-.26,0-.48-.1-.67-.28-.19-.19-.29-.41-.29-.67s.09-.49.28-.68c.19-.19.41-.28.68-.28h3.64c.79,0,1.46.28,2.02.83.56.55.85,1.23.87,2.04l.24,7.16c0,.27-.1.49-.29.68s-.41.28-.67.28c-.27,0-.5-.09-.69-.28s-.28-.41-.28-.68l-1.62.96h-3.24c-.81,0-1.49-.28-2.05-.84s-.84-1.24-.84-2.05v-1.12c0-.8.28-1.48.85-2.04.57-.56,1.25-.85,2.05-.85ZM277.54,149.14l-.06-.81c0-.27-.1-.5-.29-.68s-.41-.27-.67-.27h-3.77c-.27,0-.49.09-.68.28-.19.19-.28.41-.28.68v1.07c0,.26.09.48.29.67.19.19.41.28.67.28h2.7l2.08-1.22Z"/><path class="cls-1" d="M292.69,152.32h-4.09c-.72,0-1.34-.22-1.84-.65l-1.86-1.62c-.59-.49-.89-1.16-.89-2v-2.49c-.03-.81.3-1.52,1-2.12l1.67-1.45c.54-.44,1.12-.66,1.73-.66h4.29c.27,0,.49.09.68.28.19.19.28.41.28.68s-.09.5-.28.68c-.19.18-.41.27-.68.27h-4.11c-.26,0-.5.1-.74.31l-1.54,1.31c-.25.21-.38.5-.38.85v2.33c0,.25.1.46.3.64l1.68,1.43c.21.19.49.28.84.28h3.92c.26,0,.48.09.67.28.19.19.28.41.28.68s-.09.49-.28.68c-.19.19-.41.28-.68.28Z"/><path class="cls-1" d="M298.05,151.36v-13.22c0-.26.09-.48.28-.66.19-.18.41-.27.68-.27s.49.09.68.28c.19.19.28.41.28.68v4.83l1.54-1c.7-.44,1.32-.66,1.87-.66h1.18c.78,0,1.45.28,2.01.84.56.56.85,1.24.88,2.03l.24,7.16c0,.27-.08.49-.27.68s-.42.28-.68.28-.49-.1-.67-.29c-.18-.19-.28-.42-.29-.67l-.24-7.18c0-.26-.11-.48-.3-.67-.19-.19-.42-.28-.68-.28h-1.07c-.24,0-.51.09-.8.28l-2.72,1.78v6.08c0,.27-.09.49-.28.68-.19.19-.41.28-.68.28s-.49-.09-.68-.28c-.19-.19-.28-.41-.28-.68Z"/><path class="cls-1" d="M319.88,152.3h-5.83c-.27,0-.49-.09-.68-.28-.19-.19-.28-.41-.28-.68s.09-.48.28-.67c.19-.19.41-.28.68-.28h1.96v-7.14h-1.94c-.27,0-.49-.1-.68-.28-.19-.19-.28-.41-.28-.67s.09-.5.28-.69c.19-.19.41-.29.68-.29h2.92c.27,0,.49.1.68.29.19.19.28.42.28.69v8.09h1.91c.27,0,.5.09.69.28.19.19.29.41.29.68s-.1.49-.29.68-.41.28-.67.28ZM315.98,136.35h1c.27,0,.49.09.68.28.19.19.28.41.28.68v.82c0,.27-.09.5-.28.69-.19.19-.41.29-.68.29h-1.03c-.27,0-.5-.1-.69-.3-.19-.2-.28-.42-.27-.66l.02-.84c0-.27.09-.49.28-.68.19-.19.41-.28.68-.28Z"/><path class="cls-1" d="M330.76,143.55l-2.61,1.7v6.11c0,.26-.09.48-.28.67-.19.19-.41.28-.67.28s-.48-.09-.67-.28c-.19-.19-.28-.41-.28-.67v-9.07c0-.27.09-.5.28-.69.19-.19.41-.29.68-.29s.48.1.67.29c.19.19.28.42.28.69v.64l1.75-1.06c.58-.37,1.25-.56,1.98-.56h.89c.76,0,1.42.27,1.97.81.55.54.85,1.2.88,1.99l.26,7.25c0,.26-.08.48-.27.67-.19.19-.42.28-.68.28-.25,0-.47-.09-.66-.26-.19-.17-.29-.4-.3-.7l-.28-7.14c-.02-.67-.37-1-1.05-1h-.94c-.29,0-.6.11-.94.33Z"/><path class="cls-1" d="M349.95,144.93v2.31c0,.26-.09.48-.28.67-.19.19-.41.28-.67.28h-6.76v.56c0,.33.14.6.42.83l.56.47c.3.24.59.35.87.35h4.92c.26,0,.48.09.67.28.19.19.28.41.28.68s-.1.48-.29.67c-.19.19-.42.28-.67.28h-5.04c-.33,0-.69-.07-1.05-.21-.37-.14-.64-.29-.81-.44l-.85-.75c-.27-.21-.49-.51-.67-.89-.18-.38-.27-.73-.27-1.05v-4.38c0-.25.1-.59.29-1.01.19-.42.44-.75.73-.99l.8-.63c.52-.42,1.1-.64,1.74-.64h2.69c.68,0,1.31.28,1.91.84l.72.68c.52.46.77,1.15.77,2.07ZM342.26,144.78v1.48h5.81v-1.33c0-.36-.11-.63-.33-.82l-.56-.49c-.29-.24-.55-.35-.77-.35h-2.4c-.3,0-.57.1-.81.31l-.56.47c-.25.19-.38.44-.38.74Z"/><path class="cls-1" d="M357.08,141.33h4.38c.68,0,1.29.2,1.81.61.52.41.79.8.79,1.19,0,.27-.1.5-.29.67-.19.17-.41.26-.64.26-.3,0-.58-.14-.83-.41-.25-.27-.51-.41-.79-.41h-4.33c-.42,0-.64.18-.64.53,0,.25.14.44.42.56l5.08,2.26c.52.23.94.59,1.27,1.1.33.5.5,1.06.5,1.68,0,.82-.29,1.51-.87,2.08-.58.57-1.24.85-1.98.85h-3.87c-.67,0-1.29-.2-1.86-.6-.57-.4-.86-.79-.86-1.17,0-.25.09-.47.28-.67.19-.19.43-.29.72-.29.24,0,.5.14.78.41.28.27.68.41,1.2.41h3.56c.28,0,.52-.11.71-.32s.29-.46.29-.75c0-.43-.21-.74-.64-.93l-5.13-2.31c-.49-.22-.87-.54-1.14-.96s-.4-.84-.4-1.27c0-.68.24-1.28.71-1.78.47-.5,1.06-.75,1.76-.75Z"/></g></svg>