<?xml version="1.0" encoding="UTF-8"?><svg id="Layer_2" xmlns="http://www.w3.org/2000/svg" viewBox="0 0 262.78 198.3"><defs><style>.cls-1{fill:#fff;}</style></defs><g id="Layer_1-2"><path class="cls-1" d="M26.23,105.27c-1.54,1.5-2.31,3.37-2.31,5.59v39.73c0,2.23.77,4.11,2.31,5.66s3.39,2.31,5.53,2.31,4.11-.77,5.66-2.32c1.54-1.55,2.31-3.44,2.31-5.68v-31.86h23.79v79.59h-23.79v-15.94h-7.97c-8.74,0-16.22-3.11-22.44-9.32-6.22-6.21-9.32-13.69-9.32-22.44v-39.73c0-8.74,3.11-16.22,9.32-22.44,6.21-6.21,13.69-9.32,22.44-9.32h31.76v23.92h-31.76c-2.14,0-3.99.75-5.53,2.25Z"/><path class="cls-1" d="M75.1,178.2c-4.41-4.41-6.61-9.74-6.61-15.98v-50.89h16.9v50.89c0,1.53.55,2.85,1.65,3.95,1.1,1.1,2.45,1.65,4.04,1.65s2.94-.55,4.04-1.65c1.1-1.1,1.65-2.42,1.65-3.95v-50.89h16.9v50.89c0,6.25-2.2,11.57-6.61,15.98-4.41,4.41-9.74,6.61-15.98,6.61s-11.57-2.2-15.98-6.61Z"/><path class="cls-1" d="M157.83,117.95c4.41,4.41,6.61,9.74,6.61,15.98v50.89h-16.99v-28.29h-11.3v28.29h-16.9v-50.89c0-6.25,2.2-11.57,6.61-15.98,4.41-4.41,9.74-6.61,15.98-6.61s11.57,2.2,15.98,6.61ZM136.15,139.44h11.3v-5.56c0-1.58-.55-2.92-1.65-4.01-1.1-1.09-2.42-1.64-3.95-1.64s-2.86.55-4,1.64c-1.13,1.09-1.7,2.43-1.7,4.01v5.56Z"/><path class="cls-1" d="M208.11,118.04c4.41,4.41,6.61,9.74,6.61,15.98s-2.2,11.57-6.61,15.98c-4.41,4.41-9.74,6.61-15.98,6.61h-5.6v28.29h-16.99v-73.48h22.6c6.25,0,11.57,2.2,15.98,6.61ZM196.17,137.94c1.1-1.12,1.65-2.45,1.65-3.96s-.55-2.82-1.65-3.92c-1.1-1.09-2.45-1.64-4.04-1.64h-5.6v11.21h5.6c1.59,0,2.94-.56,4.04-1.69Z"/><path class="cls-1" d="M256.16,118.04c4.41,4.41,6.61,9.74,6.61,15.98v28.29c0,6.25-2.2,11.57-6.61,15.98-4.41,4.41-9.74,6.61-15.98,6.61s-11.57-2.2-15.98-6.61c-4.41-4.41-6.61-9.74-6.61-15.98v-28.29c0-6.25,2.2-11.57,6.61-15.98,4.41-4.41,9.74-6.61,15.98-6.61s11.57,2.2,15.98,6.61ZM245.79,134.02c0-1.59-.54-2.92-1.61-4-1.07-1.07-2.4-1.61-4-1.61s-2.94.55-4.04,1.65c-1.1,1.1-1.65,2.42-1.65,3.95v28.29c0,1.53.55,2.85,1.65,3.95,1.1,1.1,2.45,1.65,4.04,1.65s2.92-.55,4-1.65c1.07-1.1,1.61-2.42,1.61-3.95v-28.29Z"/><path class="cls-1" d="M88.92,61.85v7.59c0,2.16.75,3.98,2.26,5.48,1.51,1.49,3.3,2.24,5.39,2.24h30.86v23.21h-30.86c-8.53,0-15.81-3.03-21.83-9.1-6.02-6.06-9.03-13.36-9.03-21.89V30.86c0-8.53,3.01-15.81,9.03-21.83,6.02-6.02,13.3-9.03,21.83-9.03h30.86v23.08h-30.86c-2.09,0-3.89.75-5.39,2.24-1.5,1.49-2.26,3.32-2.26,5.47v7.59h38.51v23.46h-38.51Z"/><path class="cls-1" d="M197.06,77.15v23.21h-30.86c-8.53,0-15.81-3.03-21.83-9.1-6.02-6.06-9.03-13.36-9.03-21.89V0h23.08v69.37c0,2.09.77,3.91,2.32,5.46,1.55,1.55,3.37,2.32,5.46,2.32h30.86Z"/></g></svg>