<?xml version="1.0" encoding="UTF-8"?><svg id="Layer_2" xmlns="http://www.w3.org/2000/svg" viewBox="0 0 620.19 144.1"><defs><style>.cls-1{fill:#fff;}</style></defs><g id="Layer_1-2"><path class="cls-1" d="M61.98,60.25H26.27c-2.89,0-5.52-.37-7.89-1.11-2.38-.74-4.4-1.76-6.06-3.08-1.67-1.31-2.95-2.9-3.85-4.76-.9-1.86-1.35-3.95-1.35-6.26,0-1.41.13-2.66.38-3.75l.58-2.6H0l3.46-16.46h8.08l.58-2.5c1.16-5.52,4.27-10.04,9.34-13.57C26.53,2.5,32.37.67,38.98.67h16.17c2.89,0,5.49.37,7.8,1.11,2.31.74,4.28,1.77,5.92,3.08,1.64,1.32,2.9,2.89,3.8,4.72.9,1.83,1.35,3.87,1.35,6.11,0,1.41-.13,2.73-.38,3.95-1.28,5.58-4.36,10.14-9.24,13.67-4.94,3.59-10.72,5.39-17.32,5.39h-19.25l-.58,2.6c-.06.19-.1.51-.1.96,0,1.03.87,1.54,2.6,1.54h35.8l-3.56,16.46ZM50.53,22.23c2.05,0,3.24-.87,3.56-2.6,0-.13.02-.24.05-.34.03-.1.05-.21.05-.34,0-1.22-.87-1.83-2.6-1.83h-16.17c-2.12,0-3.3.87-3.56,2.6l-.58,2.5h19.25Z"/><path class="cls-1" d="M141.86,60.25h-35.71c-12.96,0-19.44-4.43-19.44-13.28,0-.9.05-1.81.14-2.74.1-.93.27-1.91.53-2.94l4.62-21.56c1.28-6.16,4.23-10.87,8.85-14.15S111.48.67,118.86.67h6.64l-3.56,16.46h-6.64c-1.15,0-1.99.15-2.5.43-.51.29-.87,1.01-1.06,2.17l-4.62,21.56c-.06.32-.11.61-.14.87-.03.26-.05.45-.05.58,0,.71.9,1.06,2.69,1.06h35.8l-3.56,16.46Z"/><path class="cls-1" d="M254.18,18.48c0-.9-.9-1.35-2.7-1.35h-100.38l3.47-16.46h100.38c2.95,0,5.65.35,8.08,1.06,2.44.71,4.52,1.72,6.26,3.03,1.73,1.32,3.06,2.89,3.99,4.72.93,1.83,1.4,3.9,1.4,6.21,0,1.41-.13,2.66-.39,3.75-1.28,5.71-4.46,10.33-9.53,13.86-5.13,3.59-11.1,5.39-17.9,5.39h-39.27c-6.03,0-10.23,1.38-12.61,4.14-.58.71-1.3,1.56-2.17,2.55-.86,1-1.84,2.17-2.93,3.51-3.59,4.17-7.64,7.16-12.12,8.95-4.04,1.6-9.11,2.41-15.21,2.41h-20.69l3.56-16.46h20.6c1.22,0,2.2-.01,2.94-.05.74-.03,1.27-.08,1.59-.14,1.09-.26,2.28-1.12,3.56-2.6,1.09-1.48,2.16-2.92,3.22-4.33,1.06-1.41,2.13-2.82,3.22-4.23,2.38-3.34,4.75-5.74,7.12-7.22,3.14-1.99,6.93-2.98,11.36-2.98h51.4c1.92,0,3.08-.7,3.46-2.12.19-.64.29-1.19.29-1.64Z"/><path class="cls-1" d="M300.37,60.15h-19.73L293.25.67h19.73l-12.61,59.48Z"/><path class="cls-1" d="M396.04,52.07c-.45,2.31-1.83,4.4-4.14,6.26-2.44,1.92-5.04,2.89-7.8,2.89-1.73,0-3.14-.55-4.23-1.64l-33.2-33.97-7.31,34.65h-19.73l10.88-51.3c.58-2.82,2.25-5.04,5-6.64,2.57-1.54,5.52-2.31,8.85-2.31,3.01,0,5.26.67,6.74,2.02l29.55,29.74,6.64-31.09h19.73l-10.97,51.39Z"/><path class="cls-1" d="M454.65,60.25h-16.27c-6.03,0-10.75-1.3-14.15-3.9-3.4-2.6-5.1-6.21-5.1-10.83,0-1.22.16-2.63.48-4.23l4.52-21.56c1.28-6.03,4.28-10.71,9-14.05,4.72-3.34,10.67-5,17.85-5h16.36l-3.56,16.46h-16.26c-2.05,0-3.27.87-3.66,2.6l-4.52,21.56c-.19.77-.29,1.28-.29,1.54,0,.64.93.96,2.79.96h16.36l-3.56,16.46Z"/><path class="cls-1" d="M530.2,60.15h-19.63l3.66-17.42c.06-.32.11-.61.15-.87.03-.26.05-.51.05-.77,0-1.6-1.12-2.41-3.37-2.41h-13.47l-4.52,21.46h-19.73L485.93.67h19.73l-4.52,21.56c5.2,0,9.29.02,12.27.05,2.98.03,4.89.08,5.73.14,5.26.26,9.11,1.28,11.55,3.08,2.7,2.05,4.04,5.39,4.04,10.01,0,2.44-.38,5.39-1.15,8.85l-3.37,15.78Z"/><path class="cls-1" d="M608.15,60.25h-35.71c-2.89,0-5.52-.37-7.89-1.11-2.38-.74-4.4-1.76-6.06-3.08-1.67-1.31-2.95-2.9-3.85-4.76-.9-1.86-1.35-3.95-1.35-6.26,0-1.41.13-2.66.39-3.75l.58-2.6h-8.08l3.47-16.46h8.08l.58-2.5c1.16-5.52,4.27-10.04,9.34-13.57,5.07-3.66,10.91-5.49,17.52-5.49h16.17c2.89,0,5.49.37,7.8,1.11,2.31.74,4.28,1.77,5.92,3.08,1.64,1.32,2.9,2.89,3.8,4.72.9,1.83,1.35,3.87,1.35,6.11,0,1.41-.13,2.73-.39,3.95-1.28,5.58-4.36,10.14-9.24,13.67-4.94,3.59-10.72,5.39-17.32,5.39h-19.25l-.58,2.6c-.06.19-.1.51-.1.96,0,1.03.87,1.54,2.6,1.54h35.8l-3.56,16.46ZM596.7,22.23c2.05,0,3.24-.87,3.56-2.6,0-.13.01-.24.05-.34.03-.1.05-.21.05-.34,0-1.22-.87-1.83-2.6-1.83h-16.17c-2.12,0-3.3.87-3.56,2.6l-.58,2.5h19.25Z"/><path class="cls-1" d="M101.11,106.5c0-.81-.81-1.21-2.43-1.21H8.32l3.12-14.82h90.37c2.66,0,5.08.32,7.28.95,2.19.64,4.07,1.55,5.63,2.73,1.56,1.18,2.76,2.6,3.6,4.24.84,1.65,1.26,3.51,1.26,5.59,0,1.27-.12,2.4-.35,3.38-1.16,5.14-4.02,9.3-8.58,12.48-4.62,3.23-9.99,4.85-16.12,4.85h-35.35c-5.43,0-9.21,1.24-11.35,3.72-.52.64-1.17,1.4-1.95,2.3-.78.9-1.66,1.95-2.64,3.16-3.24,3.76-6.87,6.44-10.92,8.06-3.64,1.45-8.2,2.17-13.69,2.17H0l3.21-14.82h18.54c1.1,0,1.98-.01,2.64-.04.66-.03,1.14-.07,1.43-.13.98-.23,2.05-1.01,3.21-2.34.98-1.33,1.95-2.63,2.9-3.9.95-1.27,1.92-2.54,2.9-3.81,2.14-3,4.27-5.17,6.41-6.5,2.83-1.79,6.24-2.69,10.22-2.69h46.27c1.73,0,2.77-.63,3.12-1.91.17-.58.26-1.07.26-1.47Z"/><path class="cls-1" d="M241.39,127.04c-1.16,5.43-3.86,9.63-8.1,12.61s-9.6,4.46-16.07,4.46h-69.83c-5.6,0-9.89-1.14-12.87-3.42-2.98-2.28-4.46-5.5-4.46-9.66,0-.63.04-1.28.13-1.95.09-.66.19-1.34.3-2.04l4.16-19.41c.98-4.79,3.81-8.84,8.49-12.13,4.74-3.35,9.93-5.03,15.6-5.03h69.92c5.43,0,9.66,1.2,12.69,3.6,3.03,2.4,4.55,5.68,4.55,9.83,0,.58-.03,1.18-.09,1.82-.06.64-.15,1.27-.26,1.91l-4.16,19.41ZM223.62,127.04l4.16-19.41c.06-.29.1-.55.13-.78.03-.23.04-.4.04-.52,0-.69-.81-1.04-2.43-1.04h-69.92c-1.91,0-2.98.78-3.21,2.34l-4.16,19.41c-.06.23-.09.52-.09.87,0,.92.78,1.39,2.34,1.39h69.92c1.85,0,2.92-.75,3.21-2.25Z"/><path class="cls-1" d="M363.12,144.1h-90.37c-11.67,0-17.5-3.99-17.5-11.96,0-.81.04-1.63.13-2.47.09-.84.25-1.72.48-2.64l4.16-19.41c1.16-5.55,3.81-9.79,7.97-12.74,4.16-2.95,9.53-4.42,16.11-4.42h20.53l-3.12,14.82h-20.54c-1.16,0-1.88.12-2.17.35-.46.23-.84.9-1.13,1.99l-4.07,19.41c-.17.64-.26,1.07-.26,1.3,0,.64.84.95,2.51.95h90.37l-3.12,14.82Z"/><path class="cls-1" d="M485.72,144.1h-90.37c-11.67,0-17.5-3.99-17.5-11.96,0-.81.04-1.63.13-2.47.09-.84.25-1.72.48-2.64l4.16-19.41c1.16-5.55,3.81-9.79,7.97-12.74,4.16-2.95,9.53-4.42,16.11-4.42h20.53l-3.12,14.82h-20.54c-1.16,0-1.88.12-2.17.35-.46.23-.84.9-1.13,1.99l-4.07,19.41c-.17.64-.26,1.07-.26,1.3,0,.64.84.95,2.51.95h90.37l-3.12,14.82Z"/><path class="cls-1" d="M615.68,127.04c-1.16,5.43-3.86,9.63-8.1,12.61s-9.6,4.46-16.07,4.46h-69.84c-5.6,0-9.89-1.14-12.87-3.42-2.98-2.28-4.46-5.5-4.46-9.66,0-.63.04-1.28.13-1.95.09-.66.19-1.34.3-2.04l4.16-19.41c.98-4.79,3.81-8.84,8.49-12.13,4.74-3.35,9.94-5.03,15.6-5.03h69.92c5.43,0,9.66,1.2,12.69,3.6,3.03,2.4,4.55,5.68,4.55,9.83,0,.58-.03,1.18-.09,1.82-.06.64-.15,1.27-.26,1.91l-4.16,19.41ZM597.92,127.04l4.16-19.41c.06-.29.1-.55.13-.78.03-.23.04-.4.04-.52,0-.69-.81-1.04-2.43-1.04h-69.92c-1.91,0-2.98.78-3.21,2.34l-4.16,19.41c-.06.23-.09.52-.09.87,0,.92.78,1.39,2.34,1.39h69.92c1.85,0,2.92-.75,3.21-2.25Z"/></g></svg>