<?xml version="1.0" encoding="UTF-8"?><svg id="Layer_2" xmlns="http://www.w3.org/2000/svg" viewBox="0 0 441.4 179.54"><defs><style>.cls-1{opacity:.97;}.cls-1,.cls-2{fill:#fff;stroke-width:0px;}</style></defs><g id="Layer_1-2"><g id="Abbr"><path class="cls-2" d="M277.3,101.7c-.94,0-1.72-.94-1.29-1.48,2.57-3.27,5.2-6.5,7.75-9.78,1.12-1.45,2.5-1.77,4.29-1.76,11.82.08,23.65.04,35.47.04,1.17,0,2.35.14,3.49-.03,2.45-.37,3.96-1.97,3.95-3.98,0-2-1.54-3.59-3.98-3.96-.98-.15-1.99-.02-2.99-.02-10.49,0-20.99-.1-31.47-.1-15.21,0-15.37-9.44-15.37-17.66s1.89-14.18,20.34-14.18c14.66,0,29.31-.02,43.97-.02,1,0,4.65.06,3.46,1.25s-5.85,8.48-9.67,12.02c-1.05.98-2.13.69-3.22.69-10.83.03-34.48-.05-35.47.03-2.63.21-3.66,1.33-3.57,3.79.09,2.45.72,3.16,3.18,3.17,6.16.04,25.83.11,29.47.11,20.22,0,21.31,8.59,21.37,14.54.06,5.28-.83,16.4-12.5,17.32-5.57.44-48.23.01-57.22,0Z"/><path class="cls-2" d="M234.05,48.77c9.48,0,18.97.01,28.45-.01,1.53,0,1.59.15.64,1.46-1.59,2.19-5.68,8.28-6.75,9.66-1.59,2.04-3.44,3.04-6.29,2.97-9.31-.24-18.63-.03-27.95-.14-1.86-.02-2.4.5-2.13,2.23.1.65.09,1.34,0,1.99-.23,1.61.55,1.87,1.97,1.86,9.29-.04,38.48.08,36.59.08s2.46.15,1.67,1.25c-1.25,1.76-4.14,6.26-6.22,8.93-1.41,1.81-3.08,2.88-5.77,2.8-8.48-.27-16.97-.11-25.46-.09-2.76,0-2.76.03-2.78,3,0,.33,0,.67,0,1,.02,2.95.02,2.98,2.79,2.98,13.15.01,26.29,0,39.44.03.57,0,.96,1.18.67,1.57-2.65,3.56-5.24,7.15-7.96,10.66-.37.48-1.35.7-2.04.7-6.49.05-38.44,0-47.92.06-1.42,0-2.01-.24-2-1.85.06-16.46.06-32.92,0-49.39,0-1.76.81-1.75,2.1-1.75,9.65.03,19.3.02,28.95.02Z"/><path class="cls-2" d="M382.49,101.72c-1.3,0-1.81.01-.7-1.43,2.39-3.11,4.53-6.42,6.75-9.67,1.16-1.7,2.75-1.98,4.71-1.94,5.82.12,11.65.02,17.47.02,1.72,0,1.04-1.5.8-1.87-3.98-6.01-7.98-12-11.99-17.99-.64-.96-1.26-1.28-2.13-.08-2.05,2.83-19.22,26.37-21.09,29.19s-3.42,3.66-6.9,3.8-8.65-.06-12.98-.06c-1.59,0-1.42-1.39-1.19-1.7,3.61-5,31.63-45.01,32.72-46.33,5.5-6.63,12.15-7.54,16.95-1.55,3.83,4.79,35.03,46.73,35.46,47.56.87,1.65.7,2.02-.95,2.03-4.49.03-47.43,0-56.92.02Z"/></g><g id="Text"><path class="cls-2" d="M298.98,127.58c0,1.33-1.92,1.2-3.02.26-.64-.55-2.05-1.79-2.67-2.33-.29-.26-1.06-.76-1.06.21s.11,1.61.07,2.34-3.23,1.02-3.3.04.11-3.4.11-5.96,1.28-2.21,2.6-1.23c.49.36,2.09,1.43,2.58,1.79,1.01.74,1.86,1.49,1.75-.69-.02-.42.02-1.67.39-1.72.85-.12,2.58-.53,2.54,1.2-.02.99.01,4.78.01,6.1Z"/><path class="cls-2" d="M416.94,127.58c0,1.33-1.92,1.2-3.02.26-.64-.55-2.05-1.79-2.67-2.33-.29-.26-1.06-.76-1.06.21s.11,1.61.07,2.34-3.23,1.02-3.3.04.11-3.4.11-5.96,1.28-2.21,2.6-1.23c.49.36,2.09,1.43,2.58,1.79,1.01.74,1.86,1.49,1.75-.69-.02-.42.02-1.67.39-1.72.85-.12,2.58-.53,2.54,1.2-.02.99.01,4.78.01,6.1Z"/><path class="cls-2" d="M307.76,128.63c-.73,0-2.34-1.91.02-1.91,1.99,0,3.97-.01,5.96-.07.97,0,1.46-.95-.09-.95-1.32-.06-2.65.03-3.97-.03-2.57,0-2.67-.95-2.67-2.64s.04-2.35,2.49-2.35,3.97.07,5.96.04c2.59-.04,1.17,1.91-.03,1.91-1.82,0-3.64.07-5.46.07-1.03,0-1,.95.1.95,1.49,0,2.03.05,4.47.05s2.44.86,2.44,2.4-.55,2.56-2.27,2.56-5.8-.03-6.95-.03Z"/><path class="cls-2" d="M234.03,120.71c3.09,0,3.57,2.9,2.39,4.08-.44.44-.89.57-.89,1.42,0,.66.92,1.69,1.13,2.33-.6,0-1.1.14-1.61.14-1.21,0-.51.14-1.67-1.02-.53-.53-.65-.83-2.66-.83-.83,0-1.61-.14-1.61,1.03s-1.28.75-1.99.8c-1.3.1-1.06-.89-1.09-1.67-.07-2.26-.07-2.27,1.96-2.3,1.82-.03,3.65-.06,5.47-.06,1.33,0,1.01-1.91.06-1.91-1.82,0-3.65-.07-5.47-.07-2.04,0-1.51-1.91.03-1.91.98,0,4.97-.03,5.95-.03Z"/><path class="cls-2" d="M259.91,120.71c3.09,0,2.39,1.39,2.39,3.06,0,3.25-.44,3.05-5.7,3.05-.83,0-1.61-.14-1.61,1.03s-1.28.75-1.99.8c-1.3.1-1.06-.89-1.09-1.67-.07-2.26-.07-2.27,1.96-2.3,1.82-.03,3.65-.09,5.47-.06,1.13.02,1.1-1.91.06-1.91-1.82,0-3.65-.07-5.47-.07-2.04,0-1.51-1.91.03-1.91.98,0,4.97-.03,5.95-.03Z"/><path class="cls-2" d="M326.88,120.71c3.09,0,2.39,1.39,2.39,3.06,0,3.25-.44,3.05-5.7,3.05-.83,0-1.61-.14-1.61,1.03s-1.28.75-1.99.8c-1.3.1-1.06-.89-1.09-1.67-.07-2.26-.07-2.27,1.96-2.3,1.82-.03,3.65-.09,5.47-.06,1.13.02,1.1-1.91.06-1.91-1.82,0-3.65-.07-5.47-.07-2.04,0-1.51-1.91.03-1.91.98,0,4.97-.03,5.95-.03Z"/><path class="cls-2" d="M218.56,128.67c-5.46,0-5.46-.72-5.46-7.24,0-.85,2.87-1.23,2.87.11,0,6.14.37,5.14,2.72,5.14s2.39-.03,2.39-4.98c0-1.34,2.95-1.28,2.95.05,0,6.89-.01,6.92-5.47,6.92Z"/><path class="cls-2" d="M209.67,122.68c-.66,0-2.1.03-3.47.03s-.17.95-.05.95c1.16.02,1.73.11,2.88.06,2.34-.11.91,1.92-.17,1.91-.8,0-1.41.03-2.47.07-1.56.05-.45.96-.12.96s3.54,0,4.28,0,.19,1.84-.27,1.85-4.2.15-6.5.12c-.25,0-.68-.64-.7-1.01-.08-1.49-.05-2.98-.03-4.48.02-2.41.03-2.42,2.31-2.46.83-.01,4.73,0,5.56,0,.01-.07.38,2-1.24,2Z"/><path class="cls-2" d="M271.67,122.68c-.66,0-2.1.03-3.47.03s-.17.95-.05.95c1.16.02,1.73.11,2.88.06,2.34-.11.91,1.92-.17,1.91-.8,0-1.41.03-2.47.07-1.56.05-.45.96-.12.96s3.54,0,4.28,0,.19,1.84-.27,1.85-4.2.15-6.5.12c-.25,0-.68-.64-.7-1.01-.08-1.49-.05-2.98-.03-4.48.02-2.41.03-2.42,2.31-2.46.83-.01,4.73,0,5.56,0,.01-.07.38,2-1.24,2Z"/><path class="cls-2" d="M360.2,122.68c-.66,0-2.1.03-3.47.03s-.17.95-.05.95c1.16.02,1.73.11,2.88.06,2.34-.11.91,1.92-.17,1.91-.8,0-1.41.03-2.47.07-1.56.05-.45.96-.12.96s3.54,0,4.28,0,.19,1.84-.27,1.85-4.2.15-6.5.12c-.25,0-.68-.64-.7-1.01-.08-1.49-.05-2.98-.03-4.48.02-2.41.03-2.42,2.31-2.46.83-.01,4.73,0,5.56,0,.01-.07.38,2-1.24,2Z"/><path class="cls-2" d="M402.55,122.68c-.66,0-2.1.03-3.47.03s-.17.95-.05.95c1.16.02,1.73.11,2.88.06,2.34-.11.91,1.92-.17,1.91-.8,0-1.41.03-2.47.07-1.56.05-.45.96-.12.96s3.54,0,4.28,0,.19,1.84-.27,1.85-4.2.15-6.5.12c-.25,0-.68-.64-.7-1.01-.08-1.49-.05-2.98-.03-4.48.02-2.41.03-2.42,2.31-2.46.83-.01,4.73,0,5.56,0,.01-.07.38,2-1.24,2Z"/><path class="cls-2" d="M345.63,128.65c-2.12,0-3.35-.88-3.35-3.92s1.63-3.93,2.93-3.93h6.34c1.26,0,.58,1.99-1.7,1.99s-2.61-.07-3.91-.07-1.27,1.11-1.27,2-.18,1.92,1.16,1.92c1.15,0,3.81.09,4.96.09,2.17,0,.99,1.93-.51,1.93s-2.53,0-4.65,0Z"/><path class="cls-2" d="M422.16,128.65c-2.12,0-3.35-.88-3.35-3.92s1.63-3.93,2.93-3.93h6.34c1.26,0,.58,1.99-1.7,1.99s-2.61-.07-3.91-.07-1.27,1.11-1.27,2-.18,1.92,1.16,1.92c1.15,0,3.81.09,4.96.09,2.17,0,.99,1.93-.51,1.93s-2.53,0-4.65,0Z"/><path class="cls-2" d="M393.95,127.3c-.11-1.12.13-3.05-.32-3.22-1.04-.39-4.01-.26-4.27-.24-.24.02-.35.06-.65.5-.33.5-.87.94.23.94.39,0,1.84.04,2.59.04s.71.32.71.78c0,.15-.02.73-.83.73h-3.74c-1.83,0-1.47-2.48-1.47-3.16s.24-1.54,2.06-1.54,4.46.11,4.89.11c.58,0,2.14-1.96-.32-1.96h-6.95c-1.93,0-1.93,2.09-1.93,4.58,0,2.71.58,3.72,3.08,3.81,1.33.05,4.19-.05,5.51.02,1.05.05,1.51-.32,1.41-1.39Z"/><path class="cls-2" d="M285.93,125.59c-1.21-1.98-1.16-1.81-2.53-3.87-1.29-1.92-2.64-1.92-3.95.02-.88,1.3-1.64,2.29-2.75,3.8-1.74,2.38-2.27,3.15.36,3.11.99-.01,7.51-.05,9.15-.05,1.26,0,.91-1.07-.28-3.02ZM278.26,126.82c-.38.02-.38-.35.1-.96.66-.83,1.43-2.03,2.23-3.18s1.41-.2,1.8.35c.2.28,1.63,2.73,2.08,3.33s-.75.46-1.38.46-3.78-.05-4.83,0Z"/><path class="cls-2" d="M340.81,125.59c-1.21-1.98-1.16-1.81-2.53-3.87-1.29-1.92-2.64-1.92-3.95.02-.88,1.3-1.64,2.29-2.75,3.8-1.74,2.38-2.27,3.15.36,3.11.99-.01,7.51-.05,9.15-.05,1.26,0,.91-1.07-.28-3.02ZM333.13,126.82c-.38.02-.38-.35.1-.96.66-.83,1.43-2.03,2.23-3.18s1.41-.2,1.8.35c.2.28,1.63,2.73,2.08,3.33s-.75.46-1.38.46-3.78-.05-4.83,0Z"/><path class="cls-2" d="M381.76,125.59c-1.21-1.98-1.16-1.81-2.53-3.87-1.29-1.92-2.64-1.92-3.95.02-.88,1.3-1.64,2.29-2.75,3.8-1.74,2.38-2.27,3.15.36,3.11.99-.01,7.51-.05,9.15-.05,1.26,0,.91-1.07-.28-3.02ZM374.09,126.82c-.38.02-.38-.35.1-.96.66-.83,1.43-2.03,2.23-3.18s1.41-.2,1.8.35c.2.28,1.63,2.73,2.08,3.33s-.75.46-1.38.46-3.78-.05-4.83,0Z"/><path class="cls-2" d="M246.96,120.71c-2.25,0-3.66-.02-5.42-.02-4.38,0-3.96,7.97-.11,7.97,1.7,0,4.55-.07,5.42-.07,5.37,0,4.36-7.89.11-7.89ZM246.24,126.68c-.33,0-3.27,0-3.6,0-3.31,0-2.73-4,.06-4,.33,0,3.34,0,3.67,0,1.99,0,2.6,4-.13,4Z"/><path class="cls-1" d="M440.95,120.82h-1.55c-.37,0-2.41,2.58-2.8,3.09-.21.28-.39.46-.56.56v-.02c-.17-.1-.35-.28-.56-.56-.38-.51-2.42-3.09-2.8-3.09h-1.55c-.62,0-.5.6-.21,1.04.72,1.07,2.07,2.47,2.98,3.44.51.54.62.94.62,1.54,0,1.68.12.74.09,1.18-.02.38.7.59,1.42.62v.02c.72-.02,1.45-.24,1.42-.62-.03-.44.09.5.09-1.18,0-.6.12-1.01.62-1.54.91-.97,2.26-2.37,2.98-3.44.3-.44.41-1.04-.21-1.04Z"/></g><g id="Globe"><path class="cls-2" d="M185.03,36.08c-.02-.44-.29-.87-.48-1.29-2.75-5.88-6.96-10.08-13.32-12.06-1.71-.53-3.52-.51-5.05-1.07-1.91-.7-3.73-.94-5.63-.83-2.87.16-5.69,0-8.64.74-2.68.66-5.68.73-8.52,1.23-2.33.41-4.79.47-6.97,1.27-5.37,1.97-11.03,3.04-16.3,5.28-1.18.5-1.93.38-3.1-.05-7.78-2.82-15.75-4.77-24.12-4.5-3.22.1-6.4.45-9.6.82-5.4.62-10.39,2.3-15.28,4.26-5.64,2.26-10.63,5.83-15.65,9.24-2.12,1.44-4.07,3.17-5.94,4.94-1.01.96-1.67,2.28-2.51,3.43-.93,1.28-1.72,2.73-2.86,3.79-2.74,2.55-4.15,5.91-5.99,9.03-2.07,3.51-3.18,7.33-4.31,11.21-1.28,4.41-2.8,8.74-2.56,13.39.09,1.88-.66,3.03-1.93,4.23-5.1,4.81-9.56,10.16-13.87,15.69-3.88,4.98-7.09,10.32-9.76,15.97-2.43,5.15-3.05,10.82-2.37,16.43.28,2.35,1.43,4.82,2.85,6.75,3.75,5.12,9.39,7.33,15.36,8.61,3.23.69,18.68-.24,22.06-.95,1.45-2.22,3.9-.78,5.86-1.5,3.74-1.37,7.71-2.29,11.58-3.42.95-.28,2.23.13,3.22.55,3.12,1.32,6.08,3.06,9.27,4.14,4.59,1.54,9.17,3.33,14.16,3.24,2.83-.05,5.66,0,8.49,0,3.33,0,6.66,0,9.99,0,.83,0,1.84.3,2.46-.06,3.56-2.03,7.69-2.15,11.45-3.74,7.19-3.06,13.9-6.58,19.47-12.1,2.48-2.46,5-4.89,7.39-7.44.85-.9,1.62-1.88,2.32-2.99,2.72-4.35,5.44-8.61,7.36-13.46,2.58-6.52,4.33-13.11,4.49-20.11.06-2.5.04-4.99,0-7.49-.02-1.31-.17-2.45,1.69-2.8.81-.15,1.67-1.2,2.1-2.05,2.16-4.28,6.22-6.91,9.01-10.7,4.39-5.96,8.41-12.03,11.56-18.73,2.55-5.42,2.94-11.08,2.62-16.88ZM68.61,31.79c.12.22.24.43.36.64-.13.13-.24.24-.36.36-.06-.11-.12-.22-.18-.33-.06-.11-.11-.22-.13-.34-.02-.08.2-.22.31-.33ZM64.56,33.78c.38-.29.66-.82,1.07-.94.37-.11.91.09,1.29.31.17.1.28.66.16.85-.22.33-.59.65-.96.76-.45.13-.97.03-1.81.03-.11-.03-.55-.16-.99-.29.41-.24.86-.43,1.24-.72ZM60.04,56.31c1.7-1.73,3.4-3.36,6.02-3.59.55-.05,1.26-.53,1.52-1.01.36-.65.24-1.56.55-2.26.63-1.47,1.29.61,1.56.14.37-.64.1-1.63.45-2.29.11-.21.24-.42.39-.63.45-.66,1-1.31,1.46-1.94.54-.75.96-1.48.9-2.17-.14-1.58.85-2.37,1.61-3.31.11-.14.22-.28.32-.43.02-.02.03-.05.04-.07.11-.17.2-.35.28-.54,0-.01,0-.03.01-.04.08-.2.14-.42.17-.66.18-1.48,2.03-3.25,4.14-3.71.14-.03.38-.17.37-.25-.02-.24-.13-.47-.21-.71-2.08.89-2.14-1.78-3.57-2.02-.94-.16-1.89-.26-2.84-.38.94-.35,1.85-.78,2.81-1.04,2.1-.57,4.2-1.24,6.34-1.54,3.67-.51,7.37-.77,10.32-1.06,2.67.06,4.6.05,6.53.81.11.04.22.08.32.12,1.83.8,4.28-.89,6.04,1.09,3.14-.44,5.87.93,8.65,2,.29.11.54.31.81.47-.24.18-.47.38-.73.52-.13.07-.34-.03-.49.02-1.61.52-3.43.74-4.78,1.66-1.6,1.08-3.03,2.08-5.03,2.41-1.62.27-3.17,1.16-4.66,1.95-.95.5-1.66,1.47-2.61,1.93-1.66.8-3.55,1.15-5.12,2.07-7.5,4.41-15.15,8.54-22.5,13.23-5.17,3.3-10.1,6.9-15.16,10.34-.25.17-.56.24-.85.36,0-.33.02-.67,0-1-.1-1.71,1.15-2.85,1.72-4.28.64-1.6,1.24-2.86,3.32-2.79.62.02,1.33-.81,1.88-1.37ZM56.14,38.71c.38.21.64.35.89.49-.44.18-.87.37-1.32.51,0,0,0,0,0,0h0s-.09.03-.14.05c-.08.02-.21-.14-.33-.29-.04-.05-.09-.1-.13-.14.36-.21.73-.43,1.03-.61ZM54.36,40.09c.21-.16.5-.21.76-.3,0,.15,0,.3,0,.45-.2.15-.39.31-.59.46-.06-.21-.23-.56-.17-.6ZM34.96,65.17c.57-.93,1.27-1.09,1.79-1.67.55-.61.27-2,.83-2.58,1.11-1.14,1.79-2.26,1.55-3.88-.17-1.17.57-1.28,1.5-1.33.37-.02.71-.56,1.06-.86.14.61.54,1.3.37,1.8-.4,1.15-.8,2.66-1.7,3.21-1.84,1.13-.47,2.1-.24,3.13.29,1.3.84.49,1.2.04,1.09-1.37,2.2-2.73,3.15-4.19.4-.62.56-1.47.61-2.22.09-1.49.24-3.03-.01-4.48-.69-3.9,3.07-5.33,4.36-8.11.09-.2.9-.22,1.29-.09.43.14.79.81,1.14.78.68-.06,1.87-.73,1.9-.66.55,1.07.23,1.94-.39,3.05-1.78,3.23-1.93,7.09-4.13,10.29-.13.19-.22.41-.3.64-.02.07-.04.14-.05.2-.05.19-.09.39-.11.6,0,.06-.02.12-.02.19-.04.58,0,1.21.08,1.84.04.28.08.56.14.84.07.37.15.72.23,1.05.37,1.49,1.46,2.9,3.4,3.01.06,0,.24.7.13.79-2.99,2.38-5.98,4.78-9.06,7.05-1.08.79-2.51-.16-2.56-1.55-.03-1,.03-2-.02-2.99,0-.06,0-.13,0-.2,0-.21-.01-.44-.05-.61,0,0,0,0,0,0-.03-.11-.07-.21-.13-.26,0,0,0,0,0,0-.07-.06-.15-.08-.27-.04h0c-.21.06-.51.27-.96.72-.19-.26-.43-.47-.53-.73,0,0,0-.02-.01-.03-.24-.74-.32-1.53-.63-2.23-.15-.35-.67-.53-1.02-.79-.12.28-.24.56-.35.85-.84,2.17-2.14,4.21-1.98,6.65.11,1.68-1.05,1.44-1.95,1.28-.41-.07-1.08-1.04-1.01-1.14,1.64-2.17,1.34-5.05,2.78-7.38ZM55.29,144.95c-1.22.64-2.48,1.51-3.79,1.64-5.98.6-11.6,3.01-17.71,3.23-2.63.1-5.32,1.01-8.1.98-3.52-.39-7.05-.67-10.54-1.18-4.11-.6-11.34-6.51-11.84-10.44-.56-4.43-.46-8.96,1.13-13.39,2.02-5.64,5.24-10.54,8.54-15.41,2.71-4,5.58-7.86,9.12-11.21,1.61-1.53,2.83-3.48,4.3-5.17.22-.25.88-.22,1.31-.15.18.03.39.51.39.79.08,2.89.25,5.7.88,8.59,1.09,5.08,4.98,15.14,7.39,19.43,4.15,7.4,10.29,12.87,16.05,18.75.86.88,2.06,1.43,3.09,2.14.9.61.26,1.12-.23,1.38ZM153.49,109.93c-1.63,5.78-4.46,10.94-7.94,15.69-7.22,9.83-16.08,17.85-27.52,22.52-6.25,2.55-12.64,4.88-19.62,4.54-1.23-.06-2.49-.37-3.73.7-.64.55-2.52.52-3.18-.03-1.1-.92-2.17-.74-3.24-.68-5.84.36-11.35-1.39-16.67-3.24-4.91-1.71-9.44-4.53-14.09-6.96-.84-.44-1.43-1.37-2.14-2.08.24-.24.47-.67.74-.7,1.25-.14,1.13-.86.85-1.71-.29-.88-.89-1.83-.76-2.65.65-4.04.7-3.98-2.82-5.95-2.04-1.14-3.97-2.47-5.97-3.69-.25-.15-.87-.09-.89-.18-.51-4.01-4.83-5.06-6.41-8.25-.32-.66-1.18-1.05-1.79-1.57-1.6-1.37-3.31-2.64-4.72-4.18-.46-.5-.3-2.47-.09-2.53,2.94-.79.96-.8-.05-1.59-1.85-1.44-1.85-3.87-2.29-5.99-.75-3.61.82-7.02,1.09-10.56.13-1.74,2.27-2.92,2.43-5,.02-.3,2.05.05,3-1,.39-.43,1.54-.14,1.47-1.35-.11-2.08.58-2.33,2.24-1.07,1.1.83,1.7.29,1.77-1.09.11-2.54.22-2.48,2.31-4.45,3.85-3.62,8.24-6.51,12.53-9.55,2.1-1.49,3.83-3.52,6.01-4.84,2.08-1.26,3.78-3.4,6.87-2.89,1.14.19,3.63-.36,3.24-2.95,1.55-1.29,2.94-2.91,4.69-3.83,8.61-4.51,17.28-8.92,26-13.2,4-1.96,8.22-3.47,12.26-5.36,2.33-1.09,4.47-.49,6.35.59,3.26,1.87,6.32,4.08,9.42,6.22,1.46,1.01,1.77,3.23.68,4.73-.57.79-1.28,1.52-2.42.56-.4-.33-1.11-.29-1.68-.42-.11.78-.49,1.67-.25,2.32.26.71,1.18,1.15,1.66,1.82.22.31.28,1.02.07,1.29-.23.29-1.08.53-1.26.36-.93-.86-1.49-1.16-2.89-.34-1.25.73-3.18.33-4.82.37-1.01.03-1.77-.1-1.97,1.44-.12.93-.68.25-.93-.44-.15-.43-.96-1.03-1.25-.92-1.03.37-.88,1.1-.29,1.89.18.24.07.69.09,1.04-.5,0-1,0-1.5,0-1.3.06-.32.09-.06.53.66,1.15-.4,3.16-1.81,3.41-.78.14-2.07.59-2.16-1.09-.02-.4-.57-.74-.75-1.17-.35-.82-.46-1.62.8-1.68.66-.03,1.33,0,2.49,0,.34-1.89-.9-2.94-2.58-3.54-.18-.06-.37-.13-.55-.18-.03,0-.06-.02-.09-.02-.27-.07-.55-.14-.83-.2-2.3-.47-3.96-2.38-6.64-2.14-4.45.39-7.21,2.09-8.81,6.36-.72,1.91-1.97,3.51-3.64,4.88-1.55,1.28-2.64,2.66-2.43,5,.29,3.2.16,3.42,3.2,2.09,1.72-.75,2.37.46,2.69,1.2.54,1.25.84,2.75,2.42,2.46,1.77-.33,1.52-2.07,1.86-3.52.39-1.66.47-2.99.01-4.7-.75-2.81,1.96-4.45,3.32-6.49.23-.34,1.7-.3,2.22.08.88.64.18,1.37-.41,2-1.09,1.15-2.93,2.05-2.2,4.03.81,2.22,2.89,1.65,4.64,1.69.5.01,1.04-.12,1.48.04.35.13.77.6.78.93,0,.34-.39.9-.71.98-.62.16-1.35-.08-1.97.09-.48.13-1.23.68-1.2.99.19,2.19-2.97,2.59-2.56,4.9.05.26-.92.93-1.48,1.01-1.25.2-2.44-.08-3.64.95-.87.75-3.89-.76-4.36-1.82-.27-.62-.44-1.3-.65-1.95-.12.78-.23,1.56-.37,2.34-.08.46-.19,1.29-.33,1.3-2.78.24-3.58,3.08-5.66,4.22-.49,2.1-2.58,2.1-3.99,2.94-.62.36-1.23.3-.47,1.09.58.6,1.2,1.15,1.76,1.77,1.03,1.15.38,2.98-1.19,3.16-1.32.15-2.71-.18-3.98.11-.8.18-1.92,1.02-2.03,1.71-.29,1.78-.41,3.73.05,5.44.2.73,1.99,1.34,3.11,1.43,1.1.1,2.41-.3,3.36-.9.69-.43.92-1.57,1.39-2.37.47-.81.95-2.22,1.49-2.26,1.49-.1,1.48-.82,1.55-1.91.03-.43.62-1.11,1.03-1.17,1.56-.22,3.09.08,4.65-.93.94-.61,1.84.75,2.29,1.91.86,2.24,2.89,2.71,4.98,2.95.27.03.57-.21.85-.33-.14-.24-.22-.54-.42-.69-1.26-.96-2.6-1.83-3.78-2.87-.38-.33-.38-1.1-.55-1.67.78-.13,2.06-.62,2.25-.35,1.07,1.56,2.28,2.74,4.22,3.04.18.03.48.58.41.78-.77,2.31,1.25,3.5,2.06,5.16.21.43.87.64,1.32.96.18-.53.55-1.08.5-1.6-.07-.7-.83-1.56-.61-2.03.5-1.07,1.55-1.63,2.87-1.38,1.52.29,2.04-.38,1.92-1.89-.12-1.45-.1-2.78,1.25-4.01,1.16-1.06,2.29-1.06,3.59-1.08.33,0,.69.08.99-.02.88-.29,1.73-.65,2.59-.98.18.91.42,1.82.54,2.74.16,1.31.86,2.06,2.13,2.25,1.32.2.81,1.2.86,1.92.1,1.32-.91,1.06-1.69,1.08-.5.02-1.15.21-1.48-.03-3.1-2.21-5.56.04-8.32.9-1.26.39-1.61.74-1.5,1.88.13,1.31.85,2.14,2.14,2.22,1.83.1,3.66.07,5.49,0,1.09-.04,1.43.39,1.39,1.44-.05,1.14-.04,2.14-.92,3.17-.43.5-.26,1.38-1.4,1.44-1.5.09-3,.73-4.47.61-1.5-.12-2.93-.91-4.42-1.32-.76-.21-1.57-.23-2.36-.33-1.03-.14-1.52.25-1.45,1.35.1,1.55-.23,1.96-1.98,1.28-2.05-.79-3.18-3.27-5.8-3.01-.34.03-.91-1.19-1.19-1.9-1.06-2.77-1.04-2.88-3.67-2.67-1.71.14-3.57.29-5.04,1.05-1.87.96-3.71.86-5.63.91-2.32.06-3.7,1.99-4.42,3.48-1.06,2.2-2.65,3.57-4.13,5.28-1.59,1.83-4.9,4.18-2.21,7.76.35.47-.34,1.75-.59,2.64-.75,2.58-.55,3.52,1.66,4.75,1.06.59,1.52,1.3,2.12,2.31,1.45,2.43,3.72,4.03,6.76,3.7,1.87-.2,3.7.43,5.7-.75,1.33-.79,3.88-.95,5.35,1.13.29.41,1.12.62,1.7.61,1.08,0,1.52.39,1.38,1.45-.27,2.1.41,3.68,1.98,5.22,1.03,1,1.42,2.7,1.97,4.13.12.31-.19,1-.51,1.23-2.06,1.53-1.65,3.17-.47,5.01.49.76.72,1.7,1.02,2.57.85,2.46,2.04,3.17,4.56,3.44,4.01.43,6.95-1.41,9.4-4.18,1.06-1.2,2.93-1.38,3.42-3.5.27-1.17,2.45-1.84,3.61-2.9.53-.48.85-1.33.97-2.06.16-.97.19-2.02,0-2.98-.29-1.55.52-2.45,1.52-3.39,1.81-1.72,3.61-3.46,5.29-5.3,1.73-1.9,3.34-3.92,4.94-5.95.24-.3.32-1.02.12-1.29-.21-.3-.89-.5-1.27-.39-.58.16-1.06.88-1.6.91-1.81.1-3.79.58-4.64-2-.22-.66-2.12-.86-2.23-1.46-.77-4.24-3.49-7.56-5.08-11.4-.09-.22.1-.77.28-.83.41-.14,1.13-.28,1.3-.07.8.96,1.49,2.02,2.15,3.09.98,1.59,2.25,3.11,2.74,4.84.53,1.88,2.86,2.66,2.56,4.98-.17,1.29,1.19,1.02,1.82.85,4.26-1.12,7.12-4.24,9.89-7.36.39-.44.02-1.85-.38-2.61-.45-.85-1.32-1.58-2.35-.51-.7.73-1.38.76-2.06,0-.66-.72-1.48-1.36-1.93-2.2-.47-.89-1.11-2.5-.74-2.88,1.29-1.29,1.88.47,2.65,1.1,1.38,1.12,5.24,2.4,7.96,2.51,1.27.05,2.8-.47,3.55,1.02.82,1.63,3.15,2.45,2.55,4.87-.2.78-.2,1.7.02,2.47.16.56.83.98,1.28,1.46.24-.46.47-.92.71-1.38,1.32-2.62,2.63-5.24,3.97-7.84.11-.21.41-.31.62-.47.12.28.36.58.34.85-.1,1.09-.25,2.14-.56,3.24ZM128.04,86.36c-.2-.82-1.71-1.38-.62-2.43,1.01-.98,1.72-2.63,3.56-2.15.44.11,1.08,1.08,1.04,1.12-2.07,2.26-.25,4.04.65,5.95.73,1.55,1.8,3.05,1.36,4.9-.11.46-.67.81-1.31,1.53-1.06-.91-2.61-1.7-2.53-2.25.4-2.67-1.61-4.41-2.16-6.67ZM182.44,44.99c-2.67,10.82-5.76,13.41-10.65,21.54-2.78,4.62-6.39,8.51-10.23,12.23-.92.89-1.67,1.96-2.5,2.95-.23.28-.46.55-.69.83-.1-.29-.22-.57-.31-.87-.67-2.38-1.47-4.74-1.98-7.16-1.82-8.69-5.8-16.26-11.02-23.4-3.24-4.43-7.19-8.09-11.1-11.78-2.58-2.44-5.92-4.07-8.91-6.09-.36-.25-.59-.69-.89-1.04.44-.14.89-.26,1.33-.41,6.33-2.12,12.69-4.13,19.29-5.24.59-.1,1.1-.67,1.68-.72,4.51-.46,9.02-.84,13.53-1.25,0,.07.02.15.02.22,1.83,0,3.67-.13,5.49.04,1.71.16,3.5.36,5.06,1.01,4.13,1.73,8.65,2.89,10.75,7.65,1.66,3.77,2.13,7.37,1.11,11.49Z"/><path class="cls-2" d="M83.61,77.74c-.33,0-.67-.05-.99,0-1.5.25-1.85-.76-1.46-1.75.67-1.69,1.39-3.13-.65-4.47-.44-.29-.44-1.5-.36-2.26.08-.85-.71-2.15.73-2.49,1.82-.43.76,1.94,1.96,2.2-.2.47-.67,1.06-.53,1.38.25.57.94.92,1.33,1.44.64.88,1.27,1.78,1.76,2.75,1.41,2.77,1.14,3.22-1.78,3.18Z"/><path class="cls-2" d="M120.08,45.37c0-1.66-.07-2.49.02-3.31.2-1.85,2.79-3.12,4.5-2.23.16.08.29.62.23.65-2.4,1.67-3.24,3.95-2.8,6.8.02.11-.6.41-.95.46-.26.03-.79-.16-.81-.32-.15-.95-.19-1.93-.2-2.06Z"/><path class="cls-2" d="M126.08,139.07c0,.41.14.85-.02,1.04-.63.75-1.29,1.48-2.05,2.09-.78.61-1.35,2.35-2.61,1.08-.36-.36.36-1.88.7-2.83.6-1.63,1.9-2.04,3.49-1.77.2.03.36.28.49.39Z"/><path class="cls-2" d="M79.43,73.81c-.46.8-.91,1.75-1.53,2.57-.21.28-.85.33-1.29.31-.18,0-.5-.49-.47-.72.1-1.08.1-2.23.53-3.18.25-.53,1.27-.71,1.94-1.05.22.56.44,1.12.82,2.07Z"/><path class="cls-2" d="M124.49,48.38c-.88.2-1.35.46-1.7.35-.31-.1-.48-.62-.71-.95.31,0,.63-.05.93.01.36.08.7.27,1.48.59Z"/><path class="cls-2" d="M126.69,136.26c.2.88.46,1.35.35,1.7-.1.31-.62.48-.95.7,0-.31-.05-.63.01-.93.08-.36.27-.7.59-1.48Z"/><path class="cls-2" d="M96.37,33.79c1.77,0,2.44-.05,3.1.03.19.02.36.37.49.6.02.04-.2.3-.34.33-.32.06-.66.07-.98.04-1.65-.15-3-.05-2.58,2.26.1.53-.32,1.16-.5,1.74-.56-.24-1.19-.41-1.68-.75-.54-.38-1-.89-1.42-1.4-.64-.76-.69-1.49.43-1.84,1.49-.46,2.99-.87,3.48-1.01Z"/></g><g id="Stars"><path class="cls-2" d="M49.98,158.51l.83,1.69c.14.28.41.48.72.52l1.86.27c.79.11,1.1,1.08.53,1.63l-1.35,1.31c-.23.22-.33.54-.28.85l.32,1.86c.13.78-.69,1.38-1.39,1.01l-1.67-.88c-.28-.15-.61-.15-.89,0l-1.67.88c-.7.37-1.52-.23-1.39-1.01l.32-1.86c.05-.31-.05-.63-.28-.85l-1.35-1.31c-.57-.55-.25-1.52.53-1.63l1.86-.27c.31-.05.58-.24.72-.52l.83-1.69c.35-.71,1.37-.71,1.72,0Z"/><path class="cls-2" d="M94.58,170.28l.83,1.69c.14.28.41.48.72.52l1.86.27c.79.11,1.1,1.08.53,1.63l-1.35,1.31c-.23.22-.33.54-.28.85l.32,1.86c.13.78-.69,1.38-1.39,1.01l-1.67-.88c-.28-.15-.61-.15-.89,0l-1.67.88c-.7.37-1.52-.23-1.39-1.01l.32-1.86c.05-.31-.05-.63-.28-.85l-1.35-1.31c-.57-.55-.25-1.52.53-1.63l1.86-.27c.31-.05.58-.24.72-.52l.83-1.69c.35-.71,1.37-.71,1.72,0Z"/><path class="cls-2" d="M138.49,158.95l.83,1.69c.14.28.41.48.72.52l1.86.27c.79.11,1.1,1.08.53,1.63l-1.35,1.31c-.23.22-.33.54-.28.85l.32,1.86c.13.78-.69,1.38-1.39,1.01l-1.67-.88c-.28-.15-.61-.15-.89,0l-1.67.88c-.7.37-1.52-.23-1.39-1.01l.32-1.86c.05-.31-.05-.63-.28-.85l-1.35-1.31c-.57-.55-.25-1.52.53-1.63l1.86-.27c.31-.05.58-.24.72-.52l.83-1.69c.35-.71,1.37-.71,1.72,0Z"/><path class="cls-2" d="M167.28,127.28l.83,1.69c.14.28.41.48.72.52l1.86.27c.79.11,1.1,1.08.53,1.63l-1.35,1.31c-.23.22-.33.54-.28.85l.32,1.86c.13.78-.69,1.38-1.39,1.01l-1.67-.88c-.28-.15-.61-.15-.89,0l-1.67.88c-.7.37-1.52-.23-1.39-1.01l.32-1.86c.05-.31-.05-.63-.28-.85l-1.35-1.31c-.57-.55-.25-1.52.53-1.63l1.86-.27c.31-.05.58-.24.72-.52l.83-1.69c.35-.71,1.37-.71,1.72,0Z"/><path class="cls-2" d="M178.44,84.99l.83,1.69c.14.28.41.48.72.52l1.86.27c.79.11,1.1,1.08.53,1.63l-1.35,1.31c-.23.22-.33.54-.28.85l.32,1.86c.13.78-.69,1.38-1.39,1.01l-1.67-.88c-.28-.15-.61-.15-.89,0l-1.67.88c-.7.37-1.52-.23-1.39-1.01l.32-1.86c.05-.31-.05-.63-.28-.85l-1.35-1.31c-.57-.55-.25-1.52.53-1.63l1.86-.27c.31-.05.58-.24.72-.52l.83-1.69c.35-.71,1.37-.71,1.72,0Z"/><path class="cls-2" d="M138.49,11.06l.83,1.69c.14.28.41.48.72.52l1.86.27c.79.11,1.1,1.08.53,1.63l-1.35,1.31c-.23.22-.33.54-.28.85l.32,1.86c.13.78-.69,1.38-1.39,1.01l-1.67-.88c-.28-.15-.61-.15-.89,0l-1.67.88c-.7.37-1.52-.23-1.39-1.01l.32-1.86c.05-.31-.05-.63-.28-.85l-1.35-1.31c-.57-.55-.25-1.52.53-1.63l1.86-.27c.31-.05.58-.24.72-.52l.83-1.69c.35-.71,1.37-.71,1.72,0Z"/><path class="cls-2" d="M94.58.53l.83,1.69c.14.28.41.48.72.52l1.86.27c.79.11,1.1,1.08.53,1.63l-1.35,1.31c-.23.22-.33.54-.28.85l.32,1.86c.13.78-.69,1.38-1.39,1.01l-1.67-.88c-.28-.15-.61-.15-.89,0l-1.67.88c-.7.37-1.52-.23-1.39-1.01l.32-1.86c.05-.31-.05-.63-.28-.85l-1.35-1.31c-.57-.55-.25-1.52.53-1.63l1.86-.27c.31-.05.58-.24.72-.52l.83-1.69c.35-.71,1.37-.71,1.72,0Z"/><path class="cls-2" d="M49.98,11.53l.83,1.69c.14.28.41.48.72.52l1.86.27c.79.11,1.1,1.08.53,1.63l-1.35,1.31c-.23.22-.33.54-.28.85l.32,1.86c.13.78-.69,1.38-1.39,1.01l-1.67-.88c-.28-.15-.61-.15-.89,0l-1.67.88c-.7.37-1.52-.23-1.39-1.01l.32-1.86c.05-.31-.05-.63-.28-.85l-1.35-1.31c-.57-.55-.25-1.52.53-1.63l1.86-.27c.31-.05.58-.24.72-.52l.83-1.69c.35-.71,1.37-.71,1.72,0Z"/><path class="cls-2" d="M21.46,41.9l.83,1.69c.14.28.41.48.72.52l1.86.27c.79.11,1.1,1.08.53,1.63l-1.35,1.31c-.23.22-.33.54-.28.85l.32,1.86c.13.78-.69,1.38-1.39,1.01l-1.67-.88c-.28-.15-.61-.15-.89,0l-1.67.88c-.7.37-1.52-.23-1.39-1.01l.32-1.86c.05-.31-.05-.63-.28-.85l-1.35-1.31c-.57-.55-.25-1.52.53-1.63l1.86-.27c.31-.05.58-.24.72-.52l.83-1.69c.35-.71,1.37-.71,1.72,0Z"/><path class="cls-2" d="M9.22,84.99l.83,1.69c.14.28.41.48.72.52l1.86.27c.79.11,1.1,1.08.53,1.63l-1.35,1.31c-.23.22-.33.54-.28.85l.32,1.86c.13.78-.69,1.38-1.39,1.01l-1.67-.88c-.28-.15-.61-.15-.89,0l-1.67.88c-.7.37-1.52-.23-1.39-1.01l.32-1.86c.05-.31-.05-.63-.28-.85l-1.35-1.31c-.57-.55-.25-1.52.53-1.63l1.86-.27c.31-.05.58-.24.72-.52l.83-1.69c.35-.71,1.37-.71,1.72,0Z"/></g></g></svg>