<?xml version="1.0" encoding="UTF-8" standalone="no"?>
<!DOCTYPE svg PUBLIC "-//W3C//DTD SVG 1.1//EN" "http://www.w3.org/Graphics/SVG/1.1/DTD/svg11.dtd">
<svg width="100%" height="100%" viewBox="0 0 2319 1074" version="1.1" xmlns="http://www.w3.org/2000/svg" xmlns:xlink="http://www.w3.org/1999/xlink" xml:space="preserve" xmlns:serif="http://www.serif.com/" style="fill-rule:evenodd;clip-rule:evenodd;stroke-linejoin:round;stroke-miterlimit:2;">
    <g transform="matrix(1,0,0,1,0,-2703)">
        <g id="Everest-VentureWare_wt" transform="matrix(1,0,0,1,0,2703.004135)">
            <rect x="0" y="0" width="2319" height="1074" style="fill:none;"/>
            <clipPath id="_clip1">
                <rect x="0" y="0" width="2319" height="1074"/>
            </clipPath>
            <g clip-path="url(#_clip1)">
                <g transform="matrix(2.255859,0,0,2.255859,9,0)">
                    <g>
                        <path d="M142.5,456.999L140.5,456.999C137.575,446.315 62.376,263.512 58.775,257.365C55.904,252.464 59.838,253.128 65.5,253.138C113.997,253.224 114.843,252.579 115.589,254.451C115.832,255.062 140.615,319.19 140.74,319.237C143.209,320.164 180.837,219.949 182.548,218.556C183.712,217.608 935.255,218.427 1022.54,218.107C1023.962,226.274 1022.69,235.507 1022.484,237.005C1019.153,236.889 1019.151,236.901 244.5,236.901C234.674,236.901 232.553,235.585 231.012,240.387C230.251,242.76 143.846,447.363 142.5,456.999Z" style="fill:white;"/>
                        <path d="M140.5,0C140.756,-0.615 142.242,-0.615 142.5,0C156.459,33.27 219.534,191.993 224.255,199.62C224.395,199.846 226.186,202.739 223.607,202.881C219.444,203.109 219.474,202.78 171.5,202.844C169.698,202.847 167.015,203.875 166.153,199.587C165.522,196.447 143.364,137.038 141.575,137.008C140.48,136.99 101.803,236.019 101.415,236.416C100.558,237.293 100.279,236.831 2.471,236.909C2.279,236.368 1.511,236.17 1.32,235.629C1.236,235.392 1.253,219.454 1.3,219.323C1.49,218.796 2.288,218.651 2.477,218.124C51.145,218.218 51.297,218.047 51.597,217.601C51.858,217.212 51.712,217.209 54.084,212.307C55.849,208.658 125.764,35.385 140.5,0Z" style="fill:white;"/>
                    </g>
                    <g>
                        <g id="Proper-E" serif:id="Proper E" transform="matrix(1,0,0,1,771.363951,0)">
                            <path d="M202.126,449.911C201.226,449.903 200.392,449.18 200.388,448.521C200.33,439.845 200.351,367.211 200.349,364.001C200.348,362.85 200.987,362.589 201.714,362.59C207.378,362.597 242.077,362.629 245.648,362.612C246.359,362.609 246.917,363.158 246.917,363.902C246.917,366.334 246.93,372.597 246.931,375.03C246.932,376.025 246.491,376.34 245.568,376.343C241.095,376.358 216.236,376.374 213.984,376.366C213.338,376.363 213.228,376.497 213.228,377.242C213.228,378.448 213.214,393.821 213.214,395.027C213.214,395.487 213.66,395.857 214.377,395.857C217.408,395.857 242.787,395.835 245.818,395.859C246.583,395.865 246.883,396.057 246.883,396.822C246.883,399.975 246.902,406.972 246.891,408.171C246.885,408.777 246.723,409.14 245.908,409.144C240.945,409.164 216.293,409.173 213.939,409.155C213.722,409.153 213.227,409.422 213.227,410.159C213.227,413.857 213.215,432.693 213.218,436.39C213.218,436.811 213.809,437.084 214.23,437.086C219.328,437.105 240.045,437.09 246.016,437.085C246.581,437.084 246.899,437.714 246.901,438.191C246.907,440.066 246.927,445.45 246.92,448.279C246.916,449.779 246.607,449.921 244.829,449.923C240.912,449.925 209.811,449.975 202.126,449.911Z" style="fill:white;"/>
                        </g>
                        <g id="Proper-R" serif:id="Proper R" transform="matrix(1,0,0,1,577.637778,107.011036)">
                            <path d="M364.498,342.939C364.108,342.94 363.389,342.753 362.833,342.044C358.566,336.609 335.444,306.922 334.48,305.557C333.632,304.356 333.578,305.484 333.575,306.194C333.561,310.872 333.572,336.584 333.575,341.603C333.576,342.279 333.025,342.944 332.225,342.928C330.153,342.887 322.028,342.928 321.842,342.928C320.819,342.928 320.275,342.513 320.277,341.49C320.286,336.992 320.273,262.722 320.277,257.094C320.277,256.056 320.634,255.602 321.583,255.6C323.077,255.598 347.378,255.6 352.635,255.6C362.579,255.6 369.676,269.418 369.676,279.362C369.676,289.306 364.638,302.145 349.324,302.146C348.637,302.146 348.802,302.456 349.095,302.874C356.073,312.805 374.386,337.241 377.892,341.552C378.475,342.268 378.738,342.934 377.639,342.928C374.131,342.91 368.123,342.936 364.498,342.939ZM334.955,269.342C348.347,269.345 356.621,269.811 356.621,279.823C356.621,288.074 353.265,291.95 334.722,291.95C333.876,291.95 333.576,291.739 333.575,290.687C333.573,287.711 333.573,272.547 333.575,270.623C333.576,269.655 333.828,269.342 334.955,269.342Z" style="fill:white;"/>
                        </g>
                        <path id="Proper-A" serif:id="Proper A" d="M836.643,359.473C837.079,359.473 837.133,359.91 837.565,360.898C840.849,368.412 873.54,443.785 875.851,449.079C876.264,450.026 875.809,449.924 875.58,449.939C874.6,450.004 866.11,449.941 864.424,449.939C864.252,449.939 863.975,449.701 863.836,449.407C862.879,447.376 854.685,429.313 853.095,425.286C852.605,424.043 852.142,423.787 851.252,423.785C847.372,423.776 841.738,423.776 836.643,423.779C831.549,423.776 825.915,423.776 822.034,423.785C821.145,423.787 820.682,424.043 820.191,425.286C818.602,429.313 810.407,447.376 809.45,449.407C809.312,449.701 809.034,449.939 808.863,449.939C807.176,449.941 798.686,450.004 797.707,449.939C797.477,449.924 797.022,450.026 797.435,449.079C799.747,443.785 832.438,368.412 835.721,360.898C836.153,359.91 836.207,359.473 836.643,359.473ZM836.643,412.703C841.143,412.735 843.959,412.694 846.381,412.703C846.885,412.705 848.802,412.925 847.927,410.487C845.417,403.49 840.028,390.529 837.535,384.647C837.282,384.048 836.866,383.819 836.643,383.839C836.42,383.819 836.005,384.048 835.751,384.647C833.258,390.529 827.87,403.49 825.36,410.487C824.485,412.925 826.401,412.705 826.906,412.703C829.327,412.694 832.144,412.735 836.643,412.703Z" style="fill:white;"/>
                        <g id="Proper-W" serif:id="Proper W" transform="matrix(1,0,0,1,4.4329,0)">
                            <path d="M737.948,391.799C737.169,391.799 737.144,392.499 736.784,393.664C734.874,399.859 723.911,435.7 718.866,450.069C717.698,453.396 716.033,454.363 714.398,450.051C711.585,442.629 681.919,365.965 681.077,363.885C680.859,363.349 680.854,362.614 681.899,362.611C686.179,362.598 689.096,362.583 693.062,362.611C693.572,362.615 693.996,362.684 694.4,363.812C696.878,370.741 711.312,411.805 714.839,420.331C715.141,421.062 716.947,421.195 717.21,420.449C720.746,410.432 731.666,375.043 736.051,360.23C736.469,358.815 737.258,359.037 737.948,359.037C738.638,359.037 739.426,358.815 739.845,360.23C744.23,375.043 755.15,410.432 758.686,420.449C758.949,421.195 760.754,421.062 761.057,420.331C764.584,411.805 779.017,370.741 781.496,363.812C781.899,362.684 782.324,362.615 782.834,362.611C786.8,362.583 789.717,362.598 793.997,362.611C795.042,362.614 795.036,363.349 794.819,363.885C793.977,365.965 764.311,442.629 761.497,450.051C759.863,454.363 758.198,453.396 757.03,450.069C751.985,435.7 741.022,399.859 739.111,393.664C738.752,392.499 738.727,391.799 737.948,391.799Z" style="fill:white;"/>
                        </g>
                        <g id="Proper-E1" serif:id="Proper E" transform="matrix(1,0,0,1,420.123407,0)">
                            <path d="M202.126,449.911C201.226,449.903 200.392,449.18 200.388,448.521C200.33,439.845 200.351,367.211 200.349,364.001C200.348,362.85 200.987,362.589 201.714,362.59C207.378,362.597 242.077,362.629 245.648,362.612C246.359,362.609 246.917,363.158 246.917,363.902C246.917,366.334 246.93,372.597 246.931,375.03C246.932,376.025 246.491,376.34 245.568,376.343C241.095,376.358 216.236,376.374 213.984,376.366C213.338,376.363 213.228,376.497 213.228,377.242C213.228,378.448 213.214,393.821 213.214,395.027C213.214,395.487 213.66,395.857 214.377,395.857C217.408,395.857 242.787,395.835 245.818,395.859C246.583,395.865 246.883,396.057 246.883,396.822C246.883,399.975 246.902,406.972 246.891,408.171C246.885,408.777 246.723,409.14 245.908,409.144C240.945,409.164 216.293,409.173 213.939,409.155C213.722,409.153 213.227,409.422 213.227,410.159C213.227,413.857 213.215,432.693 213.218,436.39C213.218,436.811 213.809,437.084 214.23,437.086C219.328,437.105 240.045,437.09 246.016,437.085C246.581,437.084 246.899,437.714 246.901,438.191C246.907,440.066 246.927,445.45 246.92,448.279C246.916,449.779 246.607,449.921 244.829,449.923C240.912,449.925 209.811,449.975 202.126,449.911Z" style="fill:white;"/>
                        </g>
                        <g id="Proper-R1" serif:id="Proper R" transform="matrix(1,0,0,1,224.970036,107.011036)">
                            <path d="M364.498,342.939C364.108,342.94 363.389,342.753 362.833,342.044C358.566,336.609 335.444,306.922 334.48,305.557C333.632,304.356 333.578,305.484 333.575,306.194C333.561,310.872 333.572,336.584 333.575,341.603C333.576,342.279 333.025,342.944 332.225,342.928C330.153,342.887 322.028,342.928 321.842,342.928C320.819,342.928 320.275,342.513 320.277,341.49C320.286,336.992 320.273,262.722 320.277,257.094C320.277,256.056 320.634,255.602 321.583,255.6C323.077,255.598 347.378,255.6 352.635,255.6C362.579,255.6 369.676,269.418 369.676,279.362C369.676,289.306 364.638,302.145 349.324,302.146C348.637,302.146 348.802,302.456 349.095,302.874C356.073,312.805 374.386,337.241 377.892,341.552C378.475,342.268 378.738,342.934 377.639,342.928C374.131,342.91 368.123,342.936 364.498,342.939ZM334.955,269.342C348.347,269.345 356.621,269.811 356.621,279.823C356.621,288.074 353.265,291.95 334.722,291.95C333.876,291.95 333.576,291.739 333.575,290.687C333.573,287.711 333.573,272.547 333.575,270.623C333.576,269.655 333.828,269.342 334.955,269.342Z" style="fill:white;"/>
                        </g>
                        <path id="Proper-U" serif:id="Proper U" d="M480.901,452.153C471.754,452.16 446.836,444.678 446.836,423.785C446.836,417.093 446.833,366.162 446.836,363.668C446.838,362.791 447.445,362.608 448.163,362.611C450.911,362.622 455.428,362.607 459.511,362.617C460.747,362.62 461.016,363.155 461.022,363.96C461.027,364.844 461.022,404.617 461.022,423.785C461.022,433.766 470.92,439.057 480.901,439.057C490.882,439.057 500.781,433.766 500.781,423.785C500.781,404.617 500.775,364.844 500.781,363.96C500.786,363.155 501.055,362.62 502.291,362.617C506.375,362.607 510.891,362.622 513.639,362.611C514.357,362.608 514.965,362.791 514.966,363.668C514.97,366.162 514.966,417.093 514.966,423.785C514.966,444.678 490.048,452.16 480.901,452.153Z" style="fill:white;"/>
                        <path id="Proper-T" serif:id="Proper T" d="M392.449,449.943C391.711,449.938 390.976,449.23 390.982,448.523C391.002,446.132 390.995,379.88 390.982,377.77C390.976,376.755 390.569,376.352 389.65,376.353C387.449,376.356 371.01,376.35 368.387,376.353C367.201,376.355 367.072,375.502 367.074,375.032C367.08,373.894 367.074,364.284 367.074,363.978C367.074,363.179 367.469,362.605 368.536,362.611C373.875,362.641 413.236,362.606 425.558,362.611C426.362,362.612 426.88,363.147 426.88,363.95C426.88,364.277 426.867,373.391 426.88,375.029C426.888,376.035 426.47,376.343 425.569,376.353C424.288,376.368 408.321,376.348 404.861,376.353C404.105,376.354 403.838,376.953 403.837,377.718C403.832,381.642 403.84,446.955 403.84,448.603C403.84,449.408 403.564,449.933 402.598,449.934C399.916,449.935 398.42,449.988 392.449,449.943Z" style="fill:white;"/>
                        <path id="Proper-N" serif:id="Proper N" d="M273.96,448.619C273.972,443.839 273.889,375.533 273.953,362.61C273.961,361.057 273.595,358.533 277.486,362.611C285.205,370.7 329.697,417.374 332.772,420.767C333.911,422.024 333.793,421.105 333.797,420.215C333.828,414.009 333.797,364.563 333.797,363.93C333.797,363.234 333.935,362.608 335.334,362.61C339.276,362.616 341.681,362.605 344.578,362.611C345.276,362.613 345.767,363.228 345.761,363.948C345.694,371.115 345.763,401.385 345.766,449.939C345.766,453.907 344.698,453.158 341.76,449.939C329.658,436.685 289.266,393.212 287.234,390.866C285.771,389.178 285.921,391.087 285.922,391.841C285.925,394.263 285.939,447.327 285.922,448.608C285.911,449.46 285.357,449.942 284.678,449.939C281.453,449.928 276.829,449.939 275.162,449.939C274.48,449.939 273.959,449.294 273.96,448.619Z" style="fill:white;"/>
                        <path id="Proper-E2" serif:id="Proper E" d="M202.126,449.911C201.226,449.903 200.392,449.18 200.388,448.521C200.33,439.845 200.351,367.211 200.349,364.001C200.348,362.85 200.987,362.589 201.714,362.59C207.378,362.597 242.077,362.629 245.648,362.612C246.359,362.609 246.917,363.158 246.917,363.902C246.917,366.334 246.93,372.597 246.931,375.03C246.932,376.025 246.491,376.34 245.568,376.343C241.095,376.358 216.236,376.374 213.984,376.366C213.338,376.363 213.228,376.497 213.228,377.242C213.228,378.448 213.214,393.821 213.214,395.027C213.214,395.487 213.66,395.857 214.377,395.857C217.408,395.857 242.787,395.835 245.818,395.859C246.583,395.865 246.883,396.057 246.883,396.822C246.883,399.975 246.902,406.972 246.891,408.171C246.885,408.777 246.723,409.14 245.908,409.144C240.945,409.164 216.293,409.173 213.939,409.155C213.722,409.153 213.227,409.422 213.227,410.159C213.227,413.857 213.215,432.693 213.218,436.39C213.218,436.811 213.809,437.084 214.23,437.086C219.328,437.105 240.045,437.09 246.016,437.085C246.581,437.084 246.899,437.714 246.901,438.191C246.907,440.066 246.927,445.45 246.92,448.279C246.916,449.779 246.607,449.921 244.829,449.923C240.912,449.925 209.811,449.975 202.126,449.911Z" style="fill:white;"/>
                    </g>
                    <g>
                        <g id="Proper-T1" serif:id="Proper T" transform="matrix(1,0,0,1,165.955678,-107.741038)">
                            <path d="M392.449,449.943C391.711,449.938 390.976,449.23 390.982,448.523C391.002,446.132 390.995,379.88 390.982,377.77C390.976,376.755 390.569,376.352 389.65,376.353C387.449,376.356 371.01,376.35 368.387,376.353C367.201,376.355 367.072,375.502 367.074,375.032C367.08,373.894 367.074,364.284 367.074,363.978C367.074,363.179 367.469,362.605 368.536,362.611C373.875,362.641 413.236,362.606 425.558,362.611C426.362,362.612 426.88,363.147 426.88,363.95C426.88,364.277 426.867,373.391 426.88,375.029C426.888,376.035 426.47,376.343 425.569,376.353C424.288,376.368 408.321,376.348 404.861,376.353C404.105,376.354 403.838,376.953 403.837,377.718C403.832,381.642 403.84,446.955 403.84,448.603C403.84,449.408 403.564,449.933 402.598,449.934C399.916,449.935 398.42,449.988 392.449,449.943Z" style="fill:white;"/>
                        </g>
                        <g id="Proper-S" serif:id="Proper S" transform="matrix(1,0,0,1,0.076041,0.032019)">
                            <path d="M492.716,343.911C481.34,344.296 472.102,339.528 463.381,323.527C463.17,323.139 463.103,322.177 464.509,321.519C466.358,320.653 471.089,318.187 472.452,317.593C474.451,316.723 474.992,316.582 475.704,318.452C477.135,322.209 481.358,332.307 492.168,332.307C502.977,332.307 505.024,323.065 505.136,321.461C506.117,307.447 500.38,306.255 487.626,302.247C471.794,297.271 464.726,290.217 466.656,273.815C467.333,268.062 475.191,254.127 491.189,254.127C503.495,254.127 510.934,263.1 513.871,267.87C515.492,270.503 515.613,270.401 513.167,271.843C511.261,272.967 508.858,274.389 506.363,275.229C504.319,275.917 502.734,274.76 502.188,273.6C499.42,267.719 497.248,264.688 491.013,265.059C486.827,265.308 480.823,267.721 479.92,274.212C477.809,289.396 495.312,290.014 499.242,291.825C511.938,297.678 518.978,307.061 518.978,318.935C518.977,336.287 503.294,343.553 492.716,343.911Z" style="fill:white;"/>
                        </g>
                        <g id="Proper-E3" serif:id="Proper E" transform="matrix(1,0,0,1,196.098961,-107.357975)">
                            <path d="M202.126,449.911C201.226,449.903 200.392,449.18 200.388,448.521C200.33,439.845 200.351,367.211 200.349,364.001C200.348,362.85 200.987,362.589 201.714,362.59C207.378,362.597 242.077,362.629 245.648,362.612C246.359,362.609 246.917,363.158 246.917,363.902C246.917,366.334 246.93,372.597 246.931,375.03C246.932,376.025 246.491,376.34 245.568,376.343C241.095,376.358 216.236,376.374 213.984,376.366C213.338,376.363 213.228,376.497 213.228,377.242C213.228,378.448 213.214,393.821 213.214,395.027C213.214,395.487 213.66,395.857 214.377,395.857C217.408,395.857 242.787,395.835 245.818,395.859C246.583,395.865 246.883,396.057 246.883,396.822C246.883,399.975 246.902,406.972 246.891,408.171C246.885,408.777 246.723,409.14 245.908,409.144C240.945,409.164 216.293,409.173 213.939,409.155C213.722,409.153 213.227,409.422 213.227,410.159C213.227,413.857 213.215,432.693 213.218,436.39C213.218,436.811 213.809,437.084 214.23,437.086C219.328,437.105 240.045,437.09 246.016,437.085C246.581,437.084 246.899,437.714 246.901,438.191C246.907,440.066 246.927,445.45 246.92,448.279C246.916,449.779 246.607,449.921 244.829,449.923C240.912,449.925 209.811,449.975 202.126,449.911Z" style="fill:white;"/>
                        </g>
                        <g id="Proper-R2" serif:id="Proper R" transform="matrix(1,0,0,1,-0.503023,-0.719532)">
                            <path d="M364.498,342.939C364.108,342.94 363.389,342.753 362.833,342.044C358.566,336.609 335.444,306.922 334.48,305.557C333.632,304.356 333.578,305.484 333.575,306.194C333.561,310.872 333.572,336.584 333.575,341.603C333.576,342.279 333.025,342.944 332.225,342.928C330.153,342.887 322.028,342.928 321.842,342.928C320.819,342.928 320.275,342.513 320.277,341.49C320.286,336.992 320.273,262.722 320.277,257.094C320.277,256.056 320.634,255.602 321.583,255.6C323.077,255.598 347.378,255.6 352.635,255.6C362.579,255.6 369.676,269.418 369.676,279.362C369.676,289.306 364.638,302.145 349.324,302.146C348.637,302.146 348.802,302.456 349.095,302.874C356.073,312.805 374.386,337.241 377.892,341.552C378.475,342.268 378.738,342.934 377.639,342.928C374.131,342.91 368.123,342.936 364.498,342.939ZM334.955,269.342C348.347,269.345 356.621,269.811 356.621,279.823C356.621,288.074 353.265,291.95 334.722,291.95C333.876,291.95 333.576,291.739 333.575,290.687C333.573,287.711 333.573,272.547 333.575,270.623C333.576,269.655 333.828,269.342 334.955,269.342Z" style="fill:white;"/>
                        </g>
                        <g id="Proper-E4" serif:id="Proper E" transform="matrix(1,0,0,1,46.542475,-107.357975)">
                            <path d="M202.126,449.911C201.226,449.903 200.392,449.18 200.388,448.521C200.33,439.845 200.351,367.211 200.349,364.001C200.348,362.85 200.987,362.589 201.714,362.59C207.378,362.597 242.077,362.629 245.648,362.612C246.359,362.609 246.917,363.158 246.917,363.902C246.917,366.334 246.93,372.597 246.931,375.03C246.932,376.025 246.491,376.34 245.568,376.343C241.095,376.358 216.236,376.374 213.984,376.366C213.338,376.363 213.228,376.497 213.228,377.242C213.228,378.448 213.214,393.821 213.214,395.027C213.214,395.487 213.66,395.857 214.377,395.857C217.408,395.857 242.787,395.835 245.818,395.859C246.583,395.865 246.883,396.057 246.883,396.822C246.883,399.975 246.902,406.972 246.891,408.171C246.885,408.777 246.723,409.14 245.908,409.144C240.945,409.164 216.293,409.173 213.939,409.155C213.722,409.153 213.227,409.422 213.227,410.159C213.227,413.857 213.215,432.693 213.218,436.39C213.218,436.811 213.809,437.084 214.23,437.086C219.328,437.105 240.045,437.09 246.016,437.085C246.581,437.084 246.899,437.714 246.901,438.191C246.907,440.066 246.927,445.45 246.92,448.279C246.916,449.779 246.607,449.921 244.829,449.923C240.912,449.925 209.811,449.975 202.126,449.911Z" style="fill:white;"/>
                        </g>
                        <g id="Proper-E5" serif:id="Proper E" transform="matrix(1,0,0,1,-192.375563,-107.357975)">
                            <path d="M202.126,449.911C201.226,449.903 200.392,449.18 200.388,448.521C200.33,439.845 200.351,367.211 200.349,364.001C200.348,362.85 200.987,362.589 201.714,362.59C207.378,362.597 242.077,362.629 245.648,362.612C246.359,362.609 246.917,363.158 246.917,363.902C246.917,366.334 246.93,372.597 246.931,375.03C246.932,376.025 246.491,376.34 245.568,376.343C241.095,376.358 216.236,376.374 213.984,376.366C213.338,376.363 213.228,376.497 213.228,377.242C213.228,378.448 213.214,393.821 213.214,395.027C213.214,395.487 213.66,395.857 214.377,395.857C217.408,395.857 242.787,395.835 245.818,395.859C246.583,395.865 246.883,396.057 246.883,396.822C246.883,399.975 246.902,406.972 246.891,408.171C246.885,408.777 246.723,409.14 245.908,409.144C240.945,409.164 216.293,409.173 213.939,409.155C213.722,409.153 213.227,409.422 213.227,410.159C213.227,413.857 213.215,432.693 213.218,436.39C213.218,436.811 213.809,437.084 214.23,437.086C219.328,437.105 240.045,437.09 246.016,437.085C246.581,437.084 246.899,437.714 246.901,438.191C246.907,440.066 246.927,445.45 246.92,448.279C246.916,449.779 246.607,449.921 244.829,449.923C240.912,449.925 209.811,449.975 202.126,449.911Z" style="fill:white;"/>
                        </g>
                    </g>
                </g>
            </g>
        </g>
    </g>
</svg>
