<?xml version="1.0" encoding="UTF-8" standalone="no"?>
<!DOCTYPE svg PUBLIC "-//W3C//DTD SVG 1.1//EN" "http://www.w3.org/Graphics/SVG/1.1/DTD/svg11.dtd">
<svg width="100%" height="100%" viewBox="0 0 1866 758" version="1.1" xmlns="http://www.w3.org/2000/svg" xmlns:xlink="http://www.w3.org/1999/xlink" xml:space="preserve" xmlns:serif="http://www.serif.com/" style="fill-rule:evenodd;clip-rule:evenodd;stroke-linejoin:round;stroke-miterlimit:2;">
    <g transform="matrix(1,0,0,1,0,-1658)">
        <g id="FederatedArms-wt" transform="matrix(1,0,0,1,0,1658)">
            <rect x="0" y="0" width="1866" height="758" style="fill:none;"/>
            <clipPath id="_clip1">
                <rect x="0" y="0" width="1866" height="758"/>
            </clipPath>
            <g clip-path="url(#_clip1)">
                <g>
                    <g id="Target">
                        <path d="M1399.049,55.833C1577.409,55.833 1722.215,200.639 1722.215,379C1722.215,557.361 1577.409,702.167 1399.049,702.167L1399.049,693.833C1572.81,693.833 1713.882,552.761 1713.882,379C1713.882,205.239 1572.81,64.167 1399.049,64.167L1399.049,55.833Z" style="fill:white;stroke:white;stroke-width:4.17px;"/>
                        <g transform="matrix(0.682627,0,0,0.682627,444.020596,120.284463)">
                            <path d="M1399.049,53.896C1578.478,53.896 1724.152,199.57 1724.152,379C1724.152,558.43 1578.478,704.104 1399.049,704.104L1399.049,691.896C1571.741,691.896 1711.945,551.692 1711.945,379C1711.945,206.308 1571.741,66.104 1399.049,66.104L1399.049,53.896Z" style="fill:white;stroke:white;stroke-width:6.1px;"/>
                        </g>
                        <g transform="matrix(0.304075,0,0,0.304075,973.632548,263.755486)">
                            <path d="M1399.049,46.297C1582.672,46.297 1731.751,195.376 1731.751,379C1731.751,562.624 1582.672,711.703 1399.049,711.703L1399.049,684.297C1567.547,684.297 1704.346,547.498 1704.346,379C1704.346,210.502 1567.547,73.703 1399.049,73.703L1399.049,46.297Z" style="fill:white;stroke:white;stroke-width:13.7px;"/>
                        </g>
                        <path d="M-0,383.167C-2.3,383.167 -4.167,381.3 -4.167,379C-4.167,376.7 -2.3,374.833 0,374.833L1866,374.833C1868.3,374.833 1870.167,376.7 1870.167,379C1870.167,381.3 1868.3,383.167 1866,383.167L-0,383.167Z" style="fill:white;stroke:white;stroke-width:4.17px;"/>
                        <path d="M1394.882,0C1394.882,-2.3 1396.749,-4.167 1399.049,-4.167C1401.348,-4.167 1403.215,-2.3 1403.215,0L1403.215,758C1403.215,760.3 1401.348,762.167 1399.049,762.167C1396.749,762.167 1394.882,760.3 1394.882,758L1394.882,0Z" style="fill:white;stroke:white;stroke-width:4.17px;"/>
                    </g>
                    <g id="ARMS">
                        <g transform="matrix(1.822266,0,0,1.822266,0,0)">
                            <path d="M730.402,414.999L671.5,414.999L671.718,387.752C671.718,387.752 715.029,388.051 715.778,387.354C715.934,387.21 716.172,387.137 716.268,386.948C716.449,386.59 716.472,339.201 716.174,338.708C715.594,337.75 715.292,337.925 698.5,337.917C675.447,337.907 672.628,339.167 672.922,320.661C673.012,314.985 672.289,261.884 672.227,246.034C672.199,238.911 671.105,232.109 688.463,232.142C693.128,232.151 734.874,232.017 739.507,232.034C740.021,232.036 742.185,231.763 742.495,233.501C742.511,233.595 742.679,257.918 742.398,258.461C742.294,258.663 742.003,258.695 741.839,258.854C741.684,259.005 741.651,259.283 741.456,259.377C741.092,259.552 739.543,259.492 713.5,259.498C702.369,259.501 701.851,259.27 701.498,260.499C701.416,260.786 701.356,260.776 701.37,298.5C701.375,309.841 701.095,310.451 702.607,311.056C703.142,311.27 727.788,311.216 730.53,311.248C736.046,311.313 745.92,310.699 746.704,322.458C746.99,326.755 746.117,397.356 746.252,402.464C746.511,412.246 738.36,414.999 730.402,414.999Z" style="fill:white;fill-opacity:1;"/>
                        </g>
                        <g transform="matrix(1.822266,0,0,1.822266,0,0)">
                            <path d="M660.5,414.999L630.5,414.999C630.465,411.208 630.577,264.546 630.48,263.06C630.454,262.363 630.205,259.727 629.388,259.725C628.081,259.681 619.63,259.433 616.5,259.497C613.547,259.558 613.714,263.085 613.714,263.5C613.713,266.188 613.606,413.249 613.5,414.999L583.5,414.999C583.464,414.5 583.886,283.936 583.9,261.357C583.901,260.559 582.279,259.065 581.498,258.97C581.313,258.948 568.846,258.927 568.504,258.98C567.391,259.15 566.977,260.48 566.973,260.631C566.772,268.762 567.107,414.617 567.049,414.999L536.5,414.999C536.494,414.548 537.017,281.739 536.61,250.507C536.47,239.774 540.54,232.355 554.465,232.111C556.708,232.072 556.701,231.964 582.503,232.035C584.137,232.04 594.327,232.113 597.468,239.523C597.571,239.767 597.529,240.119 597.749,240.266C597.958,240.406 599.049,240.381 599.274,240.256C599.424,240.172 599.584,240.217 600.284,238.362C602.53,232.415 607.73,232.584 612.171,232.583C623.824,232.582 640.114,232.799 647.52,232.996C660.73,233.349 660.447,234.241 660.919,253.488C661.025,257.807 660.753,408.309 660.5,414.999Z" style="fill:white;fill-opacity:1;"/>
                        </g>
                        <path d="M959.423,756.238L902.933,756.238C902.861,737.232 902.954,637.796 902.899,636.885C902.752,634.456 902.067,634.169 900.947,633.701C900.25,633.41 895.046,633.474 888.355,633.472C869.286,633.465 868.462,633.146 867.361,635.348C866.871,636.328 866.581,755.327 866.487,756.238L811.819,756.238C811.798,749.626 811.719,435.968 811.815,429.321C811.896,423.646 814.479,423.825 826.399,423.828C928.058,423.847 927.947,424.199 935.592,424.233C947.232,424.284 958.43,440.469 958.884,460.146C959.039,466.849 959.043,507.828 958.92,584.946C958.88,610.068 939.853,607.82 939.721,608.007C939.383,608.482 939.563,610.436 939.825,610.62C940.162,610.856 958.262,611.372 958.446,633.158C958.863,682.507 959.423,756.238 959.423,756.238ZM873.177,583.873C875.913,583.875 900.896,583.673 900.967,583.641C901.299,583.496 902.783,581.806 902.903,580.389C902.921,580.181 902.914,476.612 902.908,476.525C902.783,474.683 902.715,473.032 899.288,472.876C899.24,472.874 872.29,472.872 871.954,472.877C871.548,472.883 867.341,473.837 867.15,476.568C867.128,476.885 867.143,484.909 867.143,485.634C867.133,581.588 867.322,579.554 867.346,579.944C867.494,582.306 866.759,583.87 873.177,583.873Z" style="fill:white;fill-opacity:1;"/>
                        <g transform="matrix(1.822266,0,0,1.822266,0,0)">
                            <path d="M432.5,414.999L402.5,414.999C402.448,414.624 402.278,351.883 402.035,349.754C401.877,348.37 402.096,347.632 399.573,347.63C399.259,347.63 385.472,347.703 383.573,347.728C382.838,347.737 382.447,348.576 382.436,349.493C382.42,350.756 382.432,412.4 382.5,414.999L351.5,414.999C351.642,413.236 351.784,252.501 351.784,252.501C351.683,246.779 355.5,232.79 366.775,232.259C373.224,231.955 423.876,232.153 429.499,231.964C432.928,231.85 432.701,233.067 432.701,236.5C432.703,413.039 432.541,414.502 432.5,414.999ZM402.044,317.708C402.161,315.892 402.158,263.446 402.152,261.524C402.146,259.925 400.198,259.501 398.951,259.499C397.674,259.497 394.6,259.306 384.082,259.596C382.584,259.637 382.428,262.614 382.429,264.5C382.433,270.883 382.422,318.336 382.432,318.507C382.491,319.569 383.381,320.237 383.562,320.311C383.896,320.448 396.384,320.414 398.28,320.412C401.486,320.408 401.898,319.988 402.044,317.708Z" style="fill:white;fill-opacity:1;"/>
                        </g>
                    </g>
                    <g>
                        <g transform="matrix(1.822266,0,0,1.822266,936.905652,0)">
                            <path d="M150.049,0L216.5,0C223.823,0.342 230.484,8.564 230.392,15.528C230.375,16.809 230.322,166.58 230.37,168.463C230.494,173.28 227.479,182.979 214.463,183.351C213.575,183.376 150.26,183.721 150.26,183.721C150.26,183.721 150.067,0.125 150.049,0ZM180.598,29.512C180.565,40.177 180.556,152.528 180.616,154.481C180.658,155.806 181.123,155.987 182.463,155.984C187.042,155.976 195.622,156.032 197.09,155.975C198.592,155.916 199.232,154.686 199.249,153.663C199.672,128.506 199.508,37.012 199.469,29.504C199.464,28.466 199.102,27.926 198.405,27.871C198.19,27.855 182.083,27.895 181.624,27.906C180.967,27.923 180.601,28.523 180.598,29.512Z" style="fill:white;fill-opacity:1;"/>
                        </g>
                        <g transform="matrix(1.822266,0,0,1.822266,941.514452,0)">
                            <path d="M74.951,0L139.951,0C139.951,0 139.97,22.665 139.967,24.503C139.963,27.013 140.032,27.776 137.507,27.814C135.267,27.849 134.172,27.806 108.403,27.814C107.077,27.814 105.661,29.051 105.656,30.502C105.642,34.26 105.486,75.355 105.658,77.484C105.683,77.783 106.457,79.078 106.623,79.156C107.224,79.439 135.719,79.148 136.544,79.329C137.404,79.517 137.727,79.842 137.84,81.75C137.94,83.434 137.912,102.14 137.852,104.015C137.796,105.755 137.658,106.039 137.336,106.318C136.802,106.779 106.956,106.651 106.616,106.816C106.445,106.9 105.886,107.44 105.792,107.617C105.589,108.002 105.669,108.735 105.657,151.5C105.657,151.989 105.378,155.199 106.374,155.681C107.21,156.085 135.117,155.952 137.423,156.047C139.058,156.114 140.051,157.009 140.047,158.473C140.045,159.549 139.967,160.46 139.965,178.5C139.964,181.885 140.636,183.505 137.501,183.551C132.861,183.619 75.697,183.262 75.697,183.262L74.951,0Z" style="fill:white;fill-opacity:1;"/>
                        </g>
                        <g transform="matrix(1.822266,0,0,1.822266,0,0)">
                            <path d="M500.049,0L582.5,0C582.5,0 582.67,24.095 582.67,25.695C582.67,26.984 581.763,28.165 581.199,28.107C580.139,27.997 562.228,28.022 557.617,28.107C557.457,28.11 556.641,28.498 556.569,29.508C556.545,29.84 556.283,183.831 556.283,183.831L525.706,183.844C525.706,183.844 526.026,68.285 526.015,30.951C526.015,29.623 525.092,28.162 524.395,28.107C523.898,28.068 502.05,28.238 501.442,28.107C499.66,27.723 500.035,27.394 500.034,26.281C500.033,24.679 500.049,0 500.049,0Z" style="fill:white;fill-opacity:1;"/>
                        </g>
                        <g transform="matrix(1.822266,0,0,1.822266,2,0)">
                            <path d="M423.5,0L475.5,0C484.755,0.219 489.771,12.58 489.788,18.497C489.85,41.32 489.796,176.871 489.658,182.566C489.651,182.876 489.248,183.444 488.507,183.527C488.413,183.538 464.563,183.567 460.493,183.53C458.88,183.515 459.148,182.557 459.151,181.024C459.16,176.946 459.164,118.881 459.15,118.522C459.059,116.252 457.152,116.527 456.5,116.524C455.3,116.518 442.474,116.503 441.502,116.518C440.089,116.538 439.758,117.379 439.75,117.576C439.568,121.796 439.604,182.539 439.604,182.539C439.604,182.539 439.296,183.937 438.51,183.946C437.32,183.961 409.691,183.946 409.691,183.946C409.691,183.946 409.061,21.515 409.093,17.489C409.162,8.753 414.795,0.216 423.5,0ZM439.694,30.502C439.692,30.821 439.693,86.341 439.696,86.497C439.72,88.268 439.654,88.696 441.417,88.967C441.623,88.999 452.994,88.958 456.495,89.06C459.235,89.14 459.151,88.237 459.151,85.5L459.149,31.501C459.144,29.869 459.427,29.797 458.636,28.37C458.267,27.706 455.844,27.813 442.305,27.813C439.802,27.813 439.7,29.057 439.694,30.502Z" style="fill:white;fill-opacity:1;"/>
                        </g>
                        <g transform="matrix(1,0,0,1.009025,-230.557151,-428.153368)">
                            <path d="M959.423,756.238L902.933,756.238C902.861,737.232 902.954,637.796 902.899,636.885C902.752,634.456 902.067,634.169 900.947,633.701C900.25,633.41 895.046,633.474 888.355,633.472C869.286,633.465 868.462,633.146 867.361,635.348C866.871,636.328 866.581,755.327 866.487,756.238L811.819,756.238C811.798,749.626 811.719,435.968 811.815,429.321C811.896,423.646 814.479,423.825 826.399,423.828C928.058,423.847 927.947,424.199 935.592,424.233C947.232,424.284 958.43,440.469 958.884,460.146C959.039,466.849 959.043,507.828 958.92,584.946C958.88,610.068 939.853,607.82 939.721,608.007C939.383,608.482 939.563,610.436 939.825,610.62C940.162,610.856 958.262,611.372 958.446,633.158C958.863,682.507 959.423,756.238 959.423,756.238ZM873.177,583.873C875.913,583.875 900.896,583.673 900.967,583.641C901.299,583.496 902.783,581.806 902.903,580.389C902.921,580.181 902.914,476.612 902.908,476.525C902.783,474.683 902.715,473.032 899.288,472.876C899.24,472.874 872.29,472.872 871.954,472.877C871.548,472.883 867.341,473.837 867.15,476.568C867.128,476.885 867.143,484.909 867.143,485.634C867.133,581.588 867.322,579.554 867.346,579.944C867.494,582.306 866.759,583.87 873.177,583.873Z" style="fill:white;fill-opacity:1;"/>
                        </g>
                        <g transform="matrix(1.822266,0,0,1.822266,307.177647,0)">
                            <path d="M74.951,0L139.951,0C139.951,0 139.97,22.665 139.967,24.503C139.963,27.013 140.032,27.776 137.507,27.814C135.267,27.849 134.172,27.806 108.403,27.814C107.077,27.814 105.661,29.051 105.656,30.502C105.642,34.26 105.486,75.355 105.658,77.484C105.683,77.783 106.457,79.078 106.623,79.156C107.224,79.439 135.719,79.148 136.544,79.329C137.404,79.517 137.727,79.842 137.84,81.75C137.94,83.434 137.912,102.14 137.852,104.015C137.796,105.755 137.658,106.039 137.336,106.318C136.802,106.779 106.956,106.651 106.616,106.816C106.445,106.9 105.886,107.44 105.792,107.617C105.589,108.002 105.669,108.735 105.657,151.5C105.657,151.989 105.378,155.199 106.374,155.681C107.21,156.085 135.117,155.952 137.423,156.047C139.058,156.114 140.051,157.009 140.047,158.473C140.045,159.549 139.967,160.46 139.965,178.5C139.964,181.885 140.636,183.505 137.501,183.551C132.861,183.619 75.697,183.262 75.697,183.262L74.951,0Z" style="fill:white;fill-opacity:1;"/>
                        </g>
                        <g transform="matrix(1.822266,0,0,1.822266,4,0)">
                            <path d="M150.049,0L216.5,0C223.823,0.342 230.484,8.564 230.392,15.528C230.375,16.809 230.322,166.58 230.37,168.463C230.494,173.28 227.479,182.979 214.463,183.351C213.575,183.376 150.26,183.721 150.26,183.721C150.26,183.721 150.067,0.125 150.049,0ZM180.598,29.512C180.565,40.177 180.556,152.528 180.616,154.481C180.658,155.806 181.123,155.987 182.463,155.984C187.042,155.976 195.622,156.032 197.09,155.975C198.592,155.916 199.232,154.686 199.249,153.663C199.672,128.506 199.508,37.012 199.469,29.504C199.464,28.466 199.102,27.926 198.405,27.871C198.19,27.855 182.083,27.895 181.624,27.906C180.967,27.923 180.601,28.523 180.598,29.512Z" style="fill:white;fill-opacity:1;"/>
                        </g>
                        <g transform="matrix(1.822266,0,0,1.822266,0,0)">
                            <path d="M74.951,0L139.951,0C139.951,0 139.97,22.665 139.967,24.503C139.963,27.013 140.032,27.776 137.507,27.814C135.267,27.849 134.172,27.806 108.403,27.814C107.077,27.814 105.661,29.051 105.656,30.502C105.642,34.26 105.486,75.355 105.658,77.484C105.683,77.783 106.457,79.078 106.623,79.156C107.224,79.439 135.719,79.148 136.544,79.329C137.404,79.517 137.727,79.842 137.84,81.75C137.94,83.434 137.912,102.14 137.852,104.015C137.796,105.755 137.658,106.039 137.336,106.318C136.802,106.779 106.956,106.651 106.616,106.816C106.445,106.9 105.886,107.44 105.792,107.617C105.589,108.002 105.669,108.735 105.657,151.5C105.657,151.989 105.378,155.199 106.374,155.681C107.21,156.085 135.117,155.952 137.423,156.047C139.058,156.114 140.051,157.009 140.047,158.473C140.045,159.549 139.967,160.46 139.965,178.5C139.964,181.885 140.636,183.505 137.501,183.551C132.861,183.619 75.697,183.262 75.697,183.262L74.951,0Z" style="fill:white;fill-opacity:1;"/>
                        </g>
                        <g transform="matrix(1.822266,0,0,1.822266,0,0)">
                            <path d="M65.5,0C65.5,0 65.469,18.869 65.266,25.647C65.24,26.51 64.321,27.161 61.726,27.221C58.361,27.3 51.461,27.805 34.5,27.813C31.231,27.814 29.869,27.792 29.966,30.505C30.148,35.653 30.011,63.621 30.035,74.768C30.044,78.808 29.891,78.572 30.783,79.052C31.804,79.602 64.016,79.021 64.547,79.381C64.794,79.549 65.413,80.294 65.513,80.496C65.58,80.633 65.19,103.571 65.276,105.743C65.298,106.298 63.999,106.7 63.695,106.699C61.375,106.692 38.433,106.634 32.503,106.7C30.666,106.72 30.294,106.731 29.974,108.534C29.956,108.635 29.599,183.509 29.599,183.509L0,183.5L0,0L65.5,0Z" style="fill:white;fill-opacity:1;"/>
                        </g>
                    </g>
                    <g>
                        <g transform="matrix(1.822266,0,0,1.822266,0,0)">
                            <path d="M98.497,298.479C96.709,298.444 86.524,298.405 86.436,289.343C86.403,285.993 86.296,285.925 86.436,274.414C86.454,272.901 86.123,273.232 90.817,273.233C329.483,273.249 337.952,273.233 337.952,273.233L337.952,298.479C337.952,298.479 99.04,298.49 98.497,298.479ZM90.972,277.806C90.892,285.957 90.98,286.332 91.009,289.298C91.035,292.019 93.02,292.995 94.685,293.44C96.418,293.903 98.029,293.896 98.588,293.907C99.085,293.917 300.313,293.908 333.379,293.907L333.379,277.808C320.506,277.812 271.988,277.818 90.972,277.806Z" style="fill:white;"/>
                        </g>
                        <g transform="matrix(1.822266,0,0,1.822266,0,-70.57561)">
                            <path d="M12.341,298.479C10.553,298.444 0.368,298.405 0.279,289.343C0.247,285.993 0.139,285.925 0.279,274.414C0.298,272.901 -0.033,273.232 4.661,273.233C243.327,273.249 337.952,273.233 337.952,273.233L337.952,298.479C337.952,298.479 12.883,298.49 12.341,298.479Z" style="fill:white;fill-opacity:1;"/>
                        </g>
                        <g transform="matrix(1.822266,0,0,1.822266,0,0)">
                            <path d="M167.882,334.109C167.4,333.539 167.573,333.434 167.095,332.869C166.863,332.595 166.748,332.767 166.512,332.489C166.333,332.28 166.316,331.965 166.143,331.75C166.018,331.594 165.76,331.577 165.646,331.412C165.479,331.17 165.497,330.833 165.338,330.585C165.246,330.441 164.977,330.447 164.924,330.285C164.862,330.099 165.106,329.898 165.048,329.711C165,329.559 164.729,329.578 164.657,329.437C163.931,328.001 164.083,318.45 164.084,316.5C164.084,313.446 163.437,312.209 166.484,312.116C167.766,312.077 321.059,312.112 334.5,312.115C337.526,312.116 338.788,311.44 338.861,314.482C338.863,314.526 338.866,334.228 338.861,334.509C338.835,336.152 339.01,336.52 337.426,337.002C337.414,337.006 172.587,337.15 170.711,336.086C170.567,336.004 170.529,335.792 170.385,335.711C169.905,335.443 169.332,335.357 168.872,335.058C168.683,334.936 168.669,334.647 168.507,334.492C168.331,334.323 168.058,334.278 167.882,334.109Z" style="fill:white;fill-opacity:1;"/>
                        </g>
                        <g transform="matrix(1.822266,0,0,1.822266,0,0)">
                            <path d="M239.5,350.965C295.67,350.975 337.221,350.936 337.426,350.998C339.012,351.48 338.838,351.848 338.864,353.49C338.89,355.092 339.043,364.678 338.865,373.515C338.803,376.567 337.543,375.913 334.501,375.915C327.22,375.918 245.784,375.953 243.488,375.902C243.092,375.893 239.46,375.812 238.568,375.336C238.42,375.257 238.459,374.961 238.299,374.912C238.108,374.853 237.912,375.144 237.724,375.077C237.551,375.016 237.581,374.721 237.437,374.607C237.223,374.438 236.909,374.432 236.696,374.263C236.567,374.161 236.69,374.047 235.255,372.794C232.277,370.193 232.324,369.132 232.128,368.655C231.007,365.933 231.133,365.861 231.13,354.5C231.13,351.954 230.924,351.106 233.472,351.036C236.496,350.953 236.486,351.07 239.5,350.965Z" style="fill:white;fill-opacity:1;"/>
                        </g>
                        <g transform="matrix(1.822266,0,0,1.822266,0,0)">
                            <path d="M338.5,414.999L308.5,414.999C308.049,414.781 307.852,414.193 307.401,413.974C307.389,413.968 305.531,414.342 302.358,411.668C301.807,411.205 301.823,411.209 301.287,410.74C300.725,410.25 300.764,410.242 300.296,409.639C300.185,409.496 299.981,409.433 299.893,409.274C297.757,405.45 298.113,403.566 298.114,395.5C298.114,394.301 297.907,390.338 298.701,389.741C299.067,389.466 299.115,389.461 334.5,389.465C336.886,389.465 337.716,389.067 337.954,391.442C337.973,391.63 337.948,412.874 338.027,413.47C338.097,413.999 338.43,414.47 338.5,414.999Z" style="fill:white;fill-opacity:1;"/>
                        </g>
                    </g>
                </g>
            </g>
        </g>
    </g>
</svg>
