<?xml version="1.0" encoding="UTF-8"?><svg id="Layer_2" xmlns="http://www.w3.org/2000/svg" viewBox="0 0 519.36 107.3"><defs><style>.cls-1{fill:#fff;}</style></defs><g id="Layer_1-2"><path class="cls-1" d="M56.69,0H5.96c-1.68,0-3.12.61-4.26,1.8C.57,2.97,0,4.37,0,5.96v69.9c0,1.58.57,2.98,1.7,4.16,1.14,1.19,2.58,1.8,4.26,1.8s3.11-.61,4.26-1.8c1.13-1.18,1.7-2.58,1.7-4.16v-32.04h42.41c1.69,0,3.13-.63,4.28-1.88,1.11-1.21,1.68-2.66,1.68-4.31s-.57-2.98-1.7-4.16c-1.14-1.19-2.58-1.8-4.26-1.8H11.92V12.14h44.78c1.69,0,3.13-.63,4.28-1.88,1.11-1.21,1.68-2.66,1.68-4.31s-.57-2.98-1.7-4.16c-1.14-1.19-2.58-1.8-4.26-1.8Z"/><path class="cls-1" d="M124.59,25.14c-1.68,0-3.12.61-4.26,1.8-1.13,1.18-1.7,2.58-1.7,4.16v28.75c0,1.29-.24,2.47-.72,3.52-.5,1.09-1.19,2.12-2.05,3.04-1.06,1.12-2.18,1.94-3.34,2.42-1.17.49-2.35.73-3.5.73h-29.22V31.1c0-1.58-.57-2.98-1.7-4.16-1.14-1.19-2.58-1.8-4.26-1.8s-3.12.61-4.26,1.8c-1.13,1.18-1.7,2.58-1.7,4.16v50.61h40.91c5.93,0,11.1-2.15,15.34-6.4,4.25-4.25,6.4-9.48,6.4-15.57v-28.64c0-1.58-.57-2.98-1.7-4.16-1.15-1.19-2.58-1.8-4.26-1.8Z"/><path class="cls-1" d="M192.37,25.25c-1.7,0-3.12.61-4.23,1.82-1.08,1.17-1.62,2.57-1.62,4.14v38.46h-29.22c-2.11,0-3.89-.57-5.43-1.75l-.99-.99c-1.99-1.99-2.96-4.27-2.96-6.98v-28.75c0-1.59-.6-3-1.78-4.18-1.18-1.18-2.62-1.78-4.29-1.78s-3.12.61-4.26,1.8c-1.13,1.18-1.7,2.58-1.7,4.16v28.86c0,6.01,2.15,11.21,6.4,15.46,4.17,4.17,9.37,6.29,15.46,6.29h28.75c-.03,1.61-.09,2.97-.21,4.04-.14,1.32-.35,2.39-.61,3.19-.25.75-.54,1.36-.87,1.8-.37.51-.8,1.04-1.3,1.61-1.91,1.89-4.07,2.81-6.61,2.81h-35.18c-1.68,0-3.12.61-4.26,1.8-1.13,1.18-1.7,2.61-1.7,4.27s.58,3.1,1.72,4.24c1.14,1.14,2.57,1.72,4.24,1.72h34.84c6.01,0,11.17-2.12,15.34-6.29,4.25-4.25,6.4-9.45,6.4-15.46V31.21c0-1.58-.57-2.98-1.7-4.16-1.14-1.19-2.58-1.8-4.26-1.8Z"/><path class="cls-1" d="M260.27,25.14c-1.68,0-3.12.61-4.26,1.8-1.13,1.18-1.7,2.58-1.7,4.16v28.75c0,1.29-.24,2.47-.72,3.51-.5,1.09-1.19,2.12-2.05,3.05-1.06,1.12-2.18,1.94-3.33,2.42-1.17.49-2.35.73-3.5.73h-29.22V31.1c0-1.58-.57-2.98-1.7-4.16-1.14-1.19-2.58-1.8-4.26-1.8s-3.12.61-4.26,1.8c-1.13,1.18-1.7,2.58-1.7,4.16v50.61h40.91c5.93,0,11.1-2.15,15.34-6.4,4.25-4.25,6.4-9.48,6.4-15.57v-28.64c0-1.58-.57-2.98-1.7-4.16-1.14-1.19-2.58-1.8-4.26-1.8Z"/><path class="cls-1" d="M292.87,36.52c1.65,0,3.06-.6,4.19-1.77,1.11-1.16,1.67-2.57,1.67-4.2s-.56-2.93-1.67-4.09c-1.13-1.17-2.54-1.77-4.19-1.77h-9.68V5.86c0-1.57-.59-2.95-1.75-4.11-1.16-1.16-2.58-1.75-4.22-1.75s-3.07.6-4.16,1.79c-1.06,1.15-1.59,2.52-1.59,4.07v52.91c0,5.89,2.11,10.98,6.27,15.13,4.08,4.09,9.18,6.16,15.13,6.16,1.65,0,3.06-.59,4.19-1.77,1.11-1.16,1.67-2.53,1.67-4.09s-.58-3.06-1.73-4.26c-1.16-1.21-2.66-1.82-4.46-1.82-2.49,0-4.57-.87-6.36-2.66-2.01-2.01-2.99-4.24-2.99-6.8v-22.14h9.68Z"/><path class="cls-1" d="M428.45,25.14c-1.68,0-3.12.61-4.26,1.8-1.13,1.18-1.7,2.58-1.7,4.16v28.75c0,1.29-.24,2.47-.72,3.52-.49,1.09-1.18,2.11-2.05,3.04-1.05,1.12-2.18,1.93-3.34,2.42-1.17.49-2.34.73-3.5.73h-29.22V31.1c0-1.58-.57-2.98-1.7-4.16-1.14-1.19-2.58-1.8-4.26-1.8s-3.12.61-4.26,1.8c-1.13,1.18-1.7,2.58-1.7,4.16v50.61h40.91c5.93,0,11.1-2.15,15.34-6.4,4.25-4.25,6.4-9.48,6.4-15.57v-28.64c0-1.58-.57-2.98-1.7-4.16-1.15-1.19-2.58-1.8-4.26-1.8Z"/><path class="cls-1" d="M489.49,46.18l-2.36-1.22c.09-.51.18-1,.27-1.47.15-.79.32-1.7.51-2.72.18-1,.43-2.19.73-3.56.3-1.39.67-3.09,1.14-5.17.15-.82.32-1.72.51-2.69.18-.93.45-2.02.81-3.24l.06-.2v-.89c0-1.4-.5-2.69-1.49-3.83-.94-1.08-2.08-1.81-3.4-2.19l-.2-.06h-.99c-1.41,0-2.7.5-3.83,1.48-1.08.94-1.81,2.08-2.19,3.4l-2.17,11.19c-.4,2.22-1.36,4.28-2.84,6.1-.97,1.16-2.01,1.97-3.09,2.4-1.14.46-2.45.69-3.92.69h-15.35V5.96c0-1.6-.6-3-1.78-4.18-1.18-1.18-2.62-1.78-4.29-1.78s-3.12.61-4.26,1.8c-1.13,1.18-1.7,2.58-1.7,4.16v69.9c0,1.58.57,2.98,1.7,4.16,1.14,1.19,2.58,1.8,4.26,1.8s3.11-.6,4.29-1.78c1.18-1.18,1.78-2.59,1.78-4.18v-19.52h29.1c.99,0,2.16.3,3.46.89,1.32.59,2.53,1.47,3.54,2.54,1.67,2.01,2.48,4.14,2.48,6.51v9.58c0,1.58.57,2.98,1.7,4.16,1.14,1.19,2.58,1.8,4.26,1.8s3.11-.6,4.26-1.8c1.13-1.18,1.7-2.58,1.7-4.16v-9.58c0-5.93-2.19-11.13-6.51-15.46-1.82-1.82-3.9-3.38-6.19-4.64Z"/><path class="cls-1" d="M513.4,12.14c1.7,0,3.14-.63,4.28-1.88,1.12-1.21,1.68-2.66,1.68-4.31s-.57-2.98-1.7-4.16c-1.14-1.19-2.58-1.8-4.26-1.8s-3.12.61-4.26,1.8c-1.13,1.18-1.7,2.58-1.7,4.16s.57,3.1,1.68,4.31c1.14,1.25,2.58,1.88,4.28,1.88Z"/><path class="cls-1" d="M513.4,25.25c-1.68,0-3.12.61-4.26,1.8-1.13,1.18-1.7,2.58-1.7,4.16v44.65c0,1.58.57,2.98,1.7,4.16,1.14,1.19,2.58,1.8,4.26,1.8s3.12-.61,4.26-1.8c1.13-1.18,1.7-2.58,1.7-4.16V31.21c0-1.58-.57-2.98-1.7-4.16-1.14-1.19-2.58-1.8-4.26-1.8Z"/><path class="cls-1" d="M319.18,37.29h41.37c1.68,0,3.11-.61,4.26-1.8,1.13-1.18,1.7-2.61,1.7-4.27s-.57-2.98-1.7-4.16c-1.15-1.19-2.58-1.8-4.26-1.8h-41.2c-8.48,0-15.39,6.9-15.39,15.38s6.9,15.39,15.39,15.39h27.81c3.76,0,6.82,3.06,6.82,6.83s-3.06,6.83-6.82,6.83h-37.24c-1.68,0-3.11.61-4.26,1.8-1.13,1.18-1.7,2.61-1.7,4.27s.57,2.98,1.7,4.16c1.15,1.19,2.58,1.8,4.26,1.8h37.73c10.39,0,18.85-8.46,18.85-18.86s-8.45-18.86-18.85-18.86h-28.38c-1.85,0-3.36-1.5-3.36-3.36s1.47-3.31,3.25-3.34Z"/></g></svg>