<?xml version="1.0" encoding="UTF-8"?><svg id="Layer_2" xmlns="http://www.w3.org/2000/svg" viewBox="0 0 792.81 254.34"><defs><style>.cls-1{fill:#fff;}</style></defs><g id="Layer_1-2"><path class="cls-1" d="M61.8,8.04C61.8,4.21,62.41.03,68.31.03h20.22c5.86,0,9.61,3.95,12.38,6.72s23.69,28.8,28.53,33.64c4.84,4.84,8.52,4.95,13.47,0s19.14-29.33,23.46-33.64C170.67,2.43,172.14.03,178.1.03s14.28-.06,22.91,0c4.15.03,6.42-.18,6.42,5.18s-.06,110.04-.06,114.5-2.18,7.43-7.32,7.43-17.81-.25-22.52-.25-5.26.15-5.26-4.46-.05-47.18-.05-52.64.52-12.47-4.37-7.58c-4.89,4.89-22.34,26.2-24.95,29.43-3.82,4.74-8.15,5.21-12.34.84-7.01-7.32-25.77-28.6-28.22-31.05-5.29-5.29-5.35-.93-5.35,1.72s.03,56.58.03,60.32-1.23,3.7-3.76,3.7-20.62-.51-25.12-.51-6.36-.37-6.36-4.25V8.04Z"/><path class="cls-1" d="M232.47,62.51c0-18.94.02-54.26.02-58.38s.11-3.93,3.93-3.93h97.58c16.08,0,25.63,9.21,25.63,25.63v38.43c0,13.85-11.9,24.42-25.63,24.42h-62.59q-5.45,0-5.46,5.31c0,5.3.02,18.94-.02,28.41-.02,4.4.04,4.5-3.48,4.5-7.38.04-19.44,0-23.3,0s-6.66-1.36-6.67-6.31c-.04-19.36-.02-38.71-.02-58.07ZM296.87,33.48c-8.91,0-24.9.02-27.38.02s-3.54,1.44-3.54,3.13-.02,14.34-.02,15.79,1.29,2.79,3.59,2.79,36.47-.05,54.71,0c2.78,0,3.55-1.26,3.55-3.71v-14.82c0-1.91-1.78-3.17-3.78-3.17s-18.36-.02-27.13-.02Z"/><path class="cls-1" d="M1.68,2.08c0-1.82.03-1.84,1.98-1.84s21.54-.04,25.84-.04,8.8,2.6,8.8,7.64v116.85c0,2.08-.6,2.2-2.94,2.2H7.82c-3.75,0-6.15-4.24-6.15-7.62V2.08Z"/><path class="cls-1" d="M607.03,181.67c0-1.06.02-1.07,1.15-1.07s12.52-.02,15.02-.02,5.11,1.51,5.11,4.44v67.92c0,1.21-.35,1.28-1.71,1.28h-16c-2.18,0-3.57-2.47-3.57-4.43v-68.11Z"/><path class="cls-1" d="M729.76,254.21c-7.05,0-11.6-3.17-11.61-10.33,0-2.79,0-7.52,0-10.27s0-3.47,3.13-3.47,12.14,0,13.79,0,3.18.36,3.18,2.56,1.2,2.42,3.28,2.42,16.72-.04,25.08.02c2.93.02,3.37-2.68,3.4-5.07.03-2.58-.47-4.3-3.61-4.28-11.98.07-30.04,0-36.95,0s-11.41-4.33-11.41-11.15v-21.03c0-8.65,3.5-12.92,11.02-12.92s38.99-.07,50.82-.07c8.92,0,11.92,3.62,11.92,7.88s-.02,11.45-.02,13.41-1.4,3.85-4.07,3.85h-12.12c-1.9,0-3.94-.57-3.94-3.55s-1.33-3.16-3.41-3.16-17.21.07-25.99-.03c-3.09-.03-4.05.1-4.05,4.21s.33,5.17,3.75,5.17,28.48.05,35.54.05c9.31,0,14.3,3.99,14.3,11.12s0,18.1-.05,24.51c-.06,6.94-5.74,10.13-13.09,10.13s-41.85,0-48.9,0Z"/><path class="cls-1" d="M425.96,216.8c0,10.72.02,21.44-.01,32.17-.01,4.25-.36,4.58-4.46,4.65-3.2.05-6.41.06-9.61,0-3.9-.07-4.31-.44-4.32-4.35-.05-10.3,0-20.61-.05-30.91,0-1.31-.46-2.61-.71-3.92-1.09.75-2.36,1.33-3.24,2.27-4.36,4.65-8.53,9.49-12.95,14.09-3.77,3.92-7.41,3.93-11.15.1-2.21-2.27-4.07-4.89-6.18-7.28-3.11-3.53-6.29-6.99-9.49-10.43-.1-.1-1.17.34-1.21.62-.18,1.09-.16,2.21-.16,3.33,0,10.58.02,21.17-.02,31.75-.01,4.4-.34,4.69-4.78,4.74-2.78.03-5.57.02-8.36,0-5.03-.03-5.24-.22-5.26-5.11-.03-7.24,0-14.48,0-21.72,0-13.93-.01-27.85.01-41.78,0-4.75.24-4.94,4.95-5,.42,0,.85.07,1.25-.01,11.72-2.32,18.6,4.23,24.59,12.97,2.33,3.4,5.58,6.19,8.53,9.13,1.86,1.86,3.78,1.47,5.37-.5,3.65-4.53,7.18-9.16,10.91-13.62,2.05-2.44,4.38-4.65,6.65-6.9.46-.46,1.22-.84,1.85-.86,5.15-.1,10.3-.19,15.44-.1,2.29.04,2.4,1.92,2.4,3.67,0,6.41.01,12.81.01,19.22,0,4.6,0,9.19,0,13.79Z"/><path class="cls-1" d="M504.27,25.83c0-.14-.01-.26-.01-.39,0-10.67-13.83-25.23-25.61-25.23h-75.91c-11.78,0-25.61,14.56-25.61,25.23,0,.13-.01.26-.01.39v38.43c0,.06,0,.12,0,.18,0,18.71-.02,37.43.02,56.14.01,4.95,2.81,6.31,6.67,6.31s15.92.04,23.3,0c3.51,0,3.46-.1,3.48-4.5.04-9.47.02-23.11.02-28.41s0-5.31,5.46-5.31h49.27q5.45,0,5.46,5.31c0,5.3-.02,18.94.02,28.41.02,4.4-.04,4.5,3.48,4.5,7.38.04,19.44,0,23.3,0s6.66-1.36,6.67-6.31c.04-18.71.02-37.43.02-56.14,0-.06,0-.12,0-.18V25.83ZM440.69,55.18c-9.18,0-19.04,0-26.61.02-2.25-.03-3.51-1.36-3.51-2.78s.02-14.1.02-15.79,1.06-3.13,3.54-3.13,17.52-.02,26.55-.02c9.04,0,24.15.02,26.55.02s3.54,1.44,3.54,3.13.02,14.34.02,15.79-1.26,2.75-3.51,2.78c-7.57-.02-17.43-.02-26.61-.02Z"/><path class="cls-1" d="M792.81,25.83c0-.14-.01-.26-.01-.39,0-10.67-13.83-25.23-25.61-25.23h-75.91c-11.78,0-25.61,14.56-25.61,25.23,0,.13-.01.26-.01.39v38.43c0,.06,0,.12,0,.18,0,18.71-.02,37.43.02,56.14.01,4.95,2.81,6.31,6.67,6.31s15.92.04,23.3,0c3.51,0,3.46-.1,3.48-4.5.04-9.47.02-23.11.02-28.41s0-5.31,5.46-5.31h49.27q5.45,0,5.46,5.31c0,5.3-.02,18.94.02,28.41.02,4.4-.04,4.5,3.48,4.5,7.38.04,19.44,0,23.3,0s6.66-1.36,6.67-6.31c.04-18.71.02-37.43.02-56.14,0-.06,0-.12,0-.18V25.83ZM729.23,55.18c-9.18,0-19.04,0-26.61.02-2.25-.03-3.51-1.36-3.51-2.78s.02-14.1.02-15.79,1.06-3.13,3.54-3.13,17.52-.02,26.55-.02c9.04,0,24.15.02,26.55.02s3.54,1.44,3.54,3.13.02,14.34.02,15.79-1.26,2.75-3.51,2.78c-7.57-.02-17.43-.02-26.61-.02Z"/><path class="cls-1" d="M78.61,196.89c0-.08,0-.16,0-.24,0-6.6-8.55-15.6-15.83-15.6H15.84C8.56,181.05.01,190.05,0,196.65c0,.08,0,.16,0,.24v23.76s0-4.97,0-4.93c0,11.57-.01,23.14.01,34.71,0,3.06,1.74,3.9,4.12,3.9s9.84.02,14.4,0c2.17,0,2.14-.06,2.15-2.78.02-5.85.01-9.24.01-12.52s0-3.28,3.37-3.28h30.46q3.37,0,3.37,3.28c0,3.27-.01,6.66.01,12.52.01,2.72-.02,2.78,2.15,2.78,4.56.02,12.02,0,14.4,0s4.12-.84,4.12-3.9c.02-11.57.01-18.09.01-29.66,0-.04,0-.07,0-.11v-23.76ZM39.31,215.04c-5.67,0-11.77,0-16.45,0-1.39-.02-2.17-.84-2.17-1.72s.01-8.72.01-9.76.66-1.93,2.19-1.93,10.83-.01,16.41-.01c5.59,0,14.93.01,16.41.01s2.19.89,2.19,1.93.01,8.87.01,9.76-.78,1.7-2.17,1.72c-4.68-.01-10.77-.01-16.45,0Z"/><path class="cls-1" d="M514.29,196.89c0-.08,0-.16,0-.24,0-6.6-8.55-15.6-15.83-15.6h-46.93c-7.28,0-15.83,9-15.83,15.6,0,.08,0,.16,0,.24v23.76s0-4.97,0-4.93c0,11.57-.01,23.14.01,34.71,0,3.06,1.74,3.9,4.12,3.9s9.84.02,14.4,0c2.17,0,2.14-.06,2.15-2.78.02-5.85.01-9.24.01-12.52s0-3.28,3.37-3.28h30.46q3.37,0,3.37,3.28c0,3.27-.01,6.66.01,12.52.01,2.72-.02,2.78,2.15,2.78,4.56.02,12.02,0,14.4,0s4.12-.84,4.12-3.9c.02-11.57.01-18.09.01-29.66,0-.04,0-.07,0-.11v-23.76ZM474.98,215.04c-5.67,0-11.77,0-16.45,0-1.39-.02-2.17-.84-2.17-1.72s.01-8.72.01-9.76.66-1.93,2.19-1.93,10.83-.01,16.41-.01c5.59,0,14.93.01,16.41.01s2.19.89,2.19,1.93.01,8.87.01,9.76-.78,1.7-2.17,1.72c-4.68-.01-10.77-.01-16.45,0Z"/><path class="cls-1" d="M552.77,92.94V2.27c0-1.18-.96-2.13-2.13-2.13h-26.71c-1.18,0-2.13.96-2.13,2.13v123.61c0,.24.6.24.32.24s122.98,0,122.98,0c1.18,0,2.13-.96,2.13-2.13v-26.79c0-1.18-.96-2.13-2.13-2.13h-90.19c-1.18,0-2.13-.96-2.13-2.13Z"/><path class="cls-1" d="M165.93,219.67c0-11.57.01-23.14-.01-34.71,0-3.06-1.74-3.9-4.12-3.9s-9.84-.02-14.4,0c-2.17,0-2.14.06-2.15,2.78-.02,5.85-.01,14.29-.01,17.56s0,29.37,0,30.42-.66,1.93-2.19,1.93-10.83.01-16.41.01c-5.59,0-14.93-.01-16.41-.01s-2.19-.89-2.19-1.93.01-42.12-.01-47.98c-.01-2.72.02-2.78-2.15-2.78-4.56-.02-12.02,0-14.4,0s-4.12.84-4.12,3.9c-.02,11.57-.01,23.14-.01,34.71,0,.04,0,.07,0,.11v18.72c0,.08,0,.16,0,.24,0,6.6,8.55,15.6,15.83,15.6h46.93c7.28,0,15.83-9,15.83-15.6,0-.08,0-.16,0-.24v-18.72s0-.07,0-.11Z"/><path class="cls-1" d="M671.69,252.58c11.57,0,23.14.01,34.71-.01,3.06,0,3.9-1.59,3.9-3.78s.02-9.01,0-13.19c0-1.99-.06-1.96-2.78-1.97-5.85-.02-14.29-.01-17.56-.01s-29.37,0-30.42,0-1.93-.6-1.93-2-.01-9.92-.01-15.03c0-5.12.01-13.67.01-15.03s.89-2,1.93-2,42.12,0,47.98-.01c2.72,0,2.78.02,2.78-1.97.02-4.18,0-11.01,0-13.19s-.84-3.77-3.9-3.78c-11.57-.02-23.14-.01-34.71-.01-.04,0-.07,0-.11,0h-18.72c-.08,0-.16,0-.24,0-6.6,0-15.6,7.83-15.6,14.5v42.98c0,6.67,9,14.5,15.6,14.5.08,0,.16,0,.24,0h18.72s.07,0,.11,0Z"/><path class="cls-1" d="M334.28,193.25c0-8.83-7.45-12.62-15.2-12.62h-46.58c-11,0-15.82,5.85-15.82,16.27s0,22.12,0,22.78c0,.04,0,10.47,0,19.09s8.14,15.58,15.81,15.58,36.45-.13,46.11-.13,15.67-7.94,15.67-15.47v-45.49ZM311.4,233.75c-1.49,0-10.83.01-16.41.01-5.59,0-13.93-.01-15.41-.01s-2.19-.89-2.19-1.93c0-.62,0-15.23,0-28.28.01-1.03.67-1.91,2.19-1.91s9.83-.01,15.41-.01c5.59,0,14.93.01,16.41.01s2.19.89,2.19,1.93c0,.62,0,15.23,0,28.28-.01,1.03-.67,1.91-2.19,1.91Z"/><path class="cls-1" d="M246.12,181.05h-67.64c-2.12,0-3.85,1.72-3.85,3.85v10.71c0,2.12,1.72,3.85,3.85,3.85h20.78c2.12,0,3.85,1.72,3.85,3.85v49.88c0,.57.46,1.03,1.03,1.03h16.33c.57,0,1.03-.46,1.03-1.03v-49.88c0-2.12,1.72-3.85,3.85-3.85h20.78c2.12,0,3.85-1.72,3.85-3.85v-10.71c0-2.12-1.72-3.85-3.85-3.85Z"/><path class="cls-1" d="M593.48,181.05h-67.64c-2.12,0-3.85,1.72-3.85,3.85v10.71c0,2.12,1.72,3.85,3.85,3.85h20.78c2.12,0,3.85,1.72,3.85,3.85v49.88c0,.57.46,1.03,1.03,1.03h16.33c.57,0,1.03-.46,1.03-1.03v-49.88c0-2.12,1.72-3.85,3.85-3.85h20.78c2.12,0,3.85-1.72,3.85-3.85v-10.71c0-2.12-1.72-3.85-3.85-3.85Z"/><rect class="cls-1" y="138.14" width="791.81" height="23.6" rx="6.31" ry="6.31"/></g></svg>