<?xml version="1.0" encoding="UTF-8"?><svg id="Layer_2" xmlns="http://www.w3.org/2000/svg" viewBox="0 0 520.67 109.25"><defs><style>.cls-1{fill:#fff;stroke-width:0px;}</style></defs><g id="Layer_1-2"><path class="cls-1" d="M49.69,15.79l.63-3.48-17.32-.03-2.03,11.16h17.29l.57-3.12h-13.63l.82-4.54h13.65ZM52.89,27.64l-.63,3.31h9.82l.6-3.31h-9.8ZM54.24,20.33l-.57,3.12h9.82l.57-3.12h-9.82ZM51.5,35.24l-.11.47c.88,2.11,2.52,4.32,4.49,6.49,2.76-1.78,6.46-4.46,10.37-6.95h-14.75ZM51.5,35.24l-.11.47c.88,2.11,2.52,4.32,4.49,6.49,2.76-1.78,6.46-4.46,10.37-6.95h-14.75ZM64.06,20.33h-9.82l-.57,3.12h9.82l.57-3.12ZM62.69,27.64h-9.8l-.63,3.31h9.82l.6-3.31ZM30.98,23.45h17.29l.57-3.12h-13.63l.82-4.54h13.65l.63-3.48-17.32-.03-2.03,11.16ZM209.03,0h-15.3l-26.82,25.75s4.32-18.88,6.02-25.75H10.64L0,60.5h158.77c1.29-5.91,2.63-11.66,4.05-17.27l9.6-8.48c3.45,8.46,6.54,17.02,9.19,25.75h15.9c-5.23-12.72-11.19-24.05-14.97-35.33L209.03,0ZM75.69,12.31h-19.98l-.66,3.48h15.05l-1.4,7.66h5.39l-.77,4.19h-5.39l-1.37,7.47,2.6,3.64c-2.82,1.92-6.24,4.27-9.91,6.87,3.23,3.01,6.51,5.53,8.07,6.81l-4.1,3.67c-2.46-1.92-9.36-7.5-13.27-12.59l-1.37,7.44c-.38,2.13-1.23,3.64-2.52,4.51-1.26.88-3.15,1.31-5.64,1.31-.99,0-2.08-.03-3.28-.08l-.57-4.98c1.31.05,2.38.08,3.17.08,1.56.03,2.52-.08,2.87-.27.36-.22.6-.6.68-1.15l.68-3.61c-5.61,3.09-13.55,7.47-17.35,8.89l-1.89-4.35c4.3-1.48,14.83-7.39,20.28-10.32l1.07-5.75h-13.63l.77-4.32,13.65.03.6-3.31h-17.32c-1.53,8.62-3.2,15-5.01,19.21-1.81,4.19-3.69,7.53-5.66,9.96l-3.67-3.17c3.8-5.25,6.73-13.57,8.84-24.93l3.91-21.26h20.99l-.16-3.83,6.16-1.01c.05,2.16.22,4.84.22,4.84h20.8l-.9,4.87ZM29.42,40.64l3.78-4.19c3.97,1.29,7.09,2.49,9.36,3.69l-3.75,4.19c-2.96-1.42-6.07-2.65-9.39-3.69ZM111.04,36.83c-.38,2.02-.93,3.53-1.72,4.52-.77.99-1.64,1.67-2.68,2.08-1.01.38-2.65.57-4.87.57l-.55-5.2c.55.03,1.56.05,3.04.05.88,0,1.45-.79,1.72-2.38.88-4.65.47-9.22-1.23-13.68,1.83-3.37,3.91-7.63,6.18-12.75h-4.98l-8.65,46.98h-5.12l9.6-52.27h15.49l-.96,5.28c-.08.38-2.13,4.46-6.21,12.18,1.45,5.28,1.75,10.15.93,14.61ZM121.8,44.63l1.72-9.39h-10.89l.82-4.54h10.92l1.07-5.83h-2.71c-2.05,2.13-3.72,3.69-4.98,4.65l-3.39-2.93c4.43-3.8,7.85-7.53,10.29-11.11l4.19,1.53c-.49.74-1.23,1.83-2.24,3.2h13.03l-.85,4.65h-8.51l-1.07,5.83h10.29l-.82,4.57-10.29-.03-1.72,9.39h3.72l1.26-6.79h4.76l-2.11,11.44h-22.22l2.11-11.44h4.76l-1.26,6.79h4.13ZM145.77,35.3c-1.42,6.24-2.57,10.75-3.42,13.55-.85,2.79-1.86,4.62-3.01,5.53-1.18.9-2.22,1.53-3.17,1.92-.93.38-3.15.57-6.68.57-1.23,0-2.49-.03-3.78-.08l-.93-4.9c1.34.03,2.74.05,4.16.05,3.48,0,5.55-.16,6.24-.52.66-.36,1.2-.88,1.64-1.59.41-.71,1.61-5.36,3.61-13.96,2-8.59,3.5-15.82,4.49-21.67h-21.02c-2.63,2.9-4.95,5.12-6.98,6.62l-3.15-3.5c4.87-3.94,9-8.7,12.4-14.31l4.95,1.18-3.45,5.28h23.29c-2.02,10.97-3.75,19.57-5.2,25.83ZM51.39,35.71c.88,2.11,2.52,4.32,4.49,6.49,2.76-1.78,6.46-4.46,10.37-6.95h-14.75l-.11.47ZM53.66,23.45h9.82l.57-3.12h-9.82l-.57,3.12ZM62.69,27.64h-9.8l-.63,3.31h9.82l.6-3.31ZM30.98,23.45h17.29l.57-3.12h-13.63l.82-4.54h13.65l.63-3.48-17.32-.03-2.03,11.16Z"/><path class="cls-1" d="M243.51,14.83c-.77,2.24-1.51,4.9-2.22,7.99h-.57c-1.56-5.94-6.13-8.89-13.76-8.89-3.26,0-6.27.66-9,2-2.76,1.34-5.03,3.04-6.87,5.12-1.81,2.08-3.37,4.49-4.68,7.2-1.29,2.74-2.27,5.45-2.96,8.13-.66,2.68-1.07,5.36-1.26,8.02-.44,5.66.68,9.88,3.31,12.59,2.63,2.71,6.38,4.08,11.25,4.08,7.5,0,13.38-2.98,17.65-8.98h.36c-.47,2.11-.79,4.82-1.04,8.07h11.9c.9-4.62,2.68-12.12,5.28-22.49,2.05-9.11,3.83-16.72,5.42-22.82h-12.81ZM238.23,32.73c-.27,1.7-.68,3.58-1.26,5.69-.6,2.11-1.45,4.24-2.6,6.46-1.15,2.19-2.68,4.05-4.6,5.53-1.94,1.48-4.08,2.22-6.4,2.22-5.86,0-8.56-3.04-8.1-9.14.14-2,.49-4.1,1.07-6.32.55-2.19,1.37-4.46,2.44-6.84,1.07-2.35,2.57-4.27,4.54-5.77,1.94-1.53,4.16-2.27,6.62-2.27,2.76,0,4.9.93,6.4,2.79,1.5,1.86,2.11,4.43,1.89,7.66Z"/><path class="cls-1" d="M302.97,17.02c-1.86-2.05-5.04-3.09-9.52-3.09-7.28,0-13.11,3.5-17.49,10.51h-.38c.77-5.2,1.15-8.4,1.18-9.6h-11.82c-.82,4.9-2.33,12.4-4.57,22.52-1.97,10.29-3.5,17.9-4.6,22.79h12.94c.52-3.64,1.81-10.23,3.89-19.84,1.2-5.45,3.01-9.74,5.42-12.92,2.41-3.17,5.12-4.76,8.15-4.76,4.16,0,6.13,1.94,5.83,5.8-.08,1.2-.22,2.13-.38,2.82-2.63,12.31-4.87,21.95-6.73,28.9h13.65c1.09-6.54,3.2-16.94,6.27-31.25.27-1.09.47-2.3.55-3.64.25-3.45-.55-6.18-2.38-8.24Z"/><path class="cls-1" d="M350.23,14.83c-.63,2.27-1.23,4.95-1.83,8.05l-.36-.05c-1.53-5.94-6.1-8.89-13.68-8.89-4.05,0-7.66.99-10.84,2.9-3.17,1.94-5.72,4.49-7.61,7.66-1.89,3.17-3.34,6.4-4.35,9.74-1.01,3.31-1.64,6.68-1.89,10.04-.41,5.64.68,9.8,3.28,12.51,2.6,2.74,6.27,4.08,11,4.08,7.25,0,13.16-3.31,17.79-9.96l.27-.05c-.93,3.64-1.64,6.76-2.11,9.3-1.78,8.46-7.55,12.67-17.27,12.67-6.54,0-12.29-1.23-17.29-3.69l-1.94,8.87c5.88,2.3,12.12,3.45,18.77,3.45,17.1-.03,27.36-7.63,30.81-22.79l2.68-11.82c2.19-10.26,4.62-20.93,7.25-31.99h-12.7ZM345.83,32.7c-.19,2.35-.77,4.95-1.78,7.83s-2.71,5.58-5.09,8.15c-2.38,2.57-5.06,3.86-8.07,3.86-5.8,0-8.46-3.06-8.02-9.17.14-2,.49-4.08,1.07-6.29.55-2.19,1.37-4.49,2.44-6.84s2.57-4.3,4.49-5.8c1.94-1.5,4.13-2.24,6.59-2.24,2.82,0,4.98.93,6.49,2.79,1.51,1.89,2.13,4.43,1.89,7.72Z"/><path class="cls-1" d="M388.08,0l-2.22,9.25h18.94c-.66,2.82-1.29,5.58-1.89,8.24-.63,2.65-1.2,5.25-1.78,7.74-.57,2.49-1.01,4.3-1.26,5.42-3.09,13.68-5.39,23.64-6.87,29.85h14.28c2.35-11.11,4.62-21.02,6.84-29.74,1.4-6.76,3.04-13.93,4.93-21.51h18.94l2.22-9.25h-52.13Z"/><path class="cls-1" d="M460.02,14.83c-.77,2.24-1.5,4.9-2.22,7.99h-.57c-1.53-5.94-6.13-8.89-13.76-8.89-3.26,0-6.27.66-9,2-2.76,1.34-5.03,3.04-6.84,5.12-1.83,2.08-3.39,4.49-4.71,7.2-1.29,2.74-2.27,5.45-2.93,8.13s-1.09,5.36-1.29,8.02c-.41,5.66.68,9.88,3.31,12.59,2.63,2.71,6.38,4.08,11.25,4.08,7.53,0,13.41-2.98,17.65-8.98h.38c-.47,2.11-.82,4.82-1.07,8.07h11.9c.93-4.62,2.68-12.12,5.28-22.49,2.05-9.11,3.86-16.72,5.42-22.82h-12.81ZM454.73,32.73c-.25,1.7-.68,3.58-1.26,5.69-.57,2.11-1.45,4.24-2.6,6.46-1.15,2.19-2.68,4.05-4.6,5.53-1.94,1.48-4.05,2.22-6.4,2.22-5.86,0-8.54-3.04-8.1-9.14.14-2,.49-4.1,1.07-6.32.55-2.19,1.37-4.46,2.44-6.84,1.07-2.35,2.57-4.27,4.54-5.77,1.97-1.53,4.16-2.27,6.62-2.27,2.79,0,4.93.93,6.4,2.79,1.5,1.86,2.13,4.43,1.89,7.66Z"/><path class="cls-1" d="M516.17,18.28c-3.37-2.9-8.26-4.35-14.72-4.35-8.7,0-15.6,2.63-20.71,7.88-5.14,5.25-8.05,12.67-8.76,22.19-.38,5.45,1.09,9.66,4.49,12.61,3.37,2.96,8.29,4.43,14.78,4.43,8.62,0,15.49-2.65,20.61-7.96,5.14-5.34,8.07-12.78,8.76-22.38.41-5.39-1.07-9.52-4.43-12.42ZM507.68,30.51c-.52,7.25-2.05,12.81-4.6,16.66-2.52,3.89-5.88,5.8-10.07,5.8-2.76,0-4.87-.74-6.29-2.27-1.42-1.5-2.03-3.69-1.83-6.59.52-7.06,2.08-12.53,4.62-16.42,2.57-3.86,5.94-5.77,10.12-5.77,2.79,0,4.87.74,6.27,2.22,1.4,1.48,2,3.61,1.78,6.38Z"/><path class="cls-1" d="M111.35,92.57l-.47,2c-1.04-.1-2.23-.2-3.96-.25-.09.2-.18.4-.28.58,1.08.68,2.56,1.8,3.27,2.51l-1.41,1.48c-.78-1.03-1.59-1.83-2.74-2.68-1.17,1.48-2.88,2.78-5.18,4.08-.21-.55-.53-1.1-1-1.55,3.03-1.3,4.84-2.78,5.68-4.41-2.09.03-3.52.15-4.74.25l.46-1.98c1.23.1,2.67.15,4.88.15.22-.68.43-1.38.68-2.38h-2.13c-.6.75-1.08,1.28-1.54,1.78-.17-.35-.73-.88-1.19-1.03,1.82-1.6,2.99-3.26,3.87-5.13.42.38,1.13.73,1.71.88.28.07.26.25-.15.35-.2.05-.62.38-1.47,1.58h2.89c1.28,0,2.46-.08,3.15-.18l-.43,1.83c-.66-.07-1.8-.13-3.02-.07-.29,1.08-.5,1.78-.7,2.38,1.62-.03,2.8-.07,3.8-.18ZM102.55,107.72l-.36,1.53h-1.89c.41-1.1.62-1.83.88-2.96l1.21-5.19c.2-.88.34-1.48.41-2.03.66.07,3.59.13,5.99.13s5.35-.05,5.96-.13c-.17.48-.33,1.05-.56,2.03l-1.21,5.19c-.26,1.13-.42,1.98-.5,2.96h-1.98l.36-1.53h-8.31ZM112.06,102.62l.41-1.78h-8.31l-.41,1.78h8.31ZM111.24,106.12l.45-1.95h-8.31l-.45,1.95h8.31ZM114.13,97.63c-2.06,0-2.38,0-3.39.13.31-.98.77-2.76,1.19-4.58s.78-3.53.92-4.51c.67.13,1.24.15,3.33.15s2.69-.05,3.37-.15c-.28,1-.72,2.73-1.13,4.51s-.8,3.63-.98,4.56c-.83-.07-1.25-.1-3.32-.1ZM117.31,90.64h-3.06l-1.21,5.21h3.06l1.21-5.21Z"/><path class="cls-1" d="M147.16,94.32c-.82.1-1.37.2-1.96.5.05-.7.05-1.5,0-2.13.59-.3.88-.5,1.36-1.05,1.17-1.35,2.45-3.38,3.16-4.74.63.53,1.04.75,1.42.85.42.1.44.25-.14.68-.27.2-.63.55-1.26,1.3-1.09,1.3-1.56,1.85-2.51,2.96l4.13-.1c-.2-.88-.45-1.75-.66-2.31l1.32-.8c.57,1.55,1.02,2.96,1.38,4.41l-1.58,1.05c-.02-.25-.09-.65-.18-1.13l-4.48.5ZM144.14,108.73h-1.61c.5-1.78.74-2.83.97-3.93l1.39-6.69c.19-.93.3-1.65.35-2.3.84.15,2.18.2,3.35.2s2.63-.05,3.45-.2c-.23.65-.42,1.38-.61,2.3l-1.8,8.69c-.31,1.48-.78,1.85-3,2.1.12-.78.08-1.48-.15-2.2,1.19.3,1.67.18,1.83-.6l.36-1.73h-3.62l-.9,4.36ZM149.66,99.53l.41-1.95h-3.62l-.41,1.95h3.62ZM145.75,100.94l-.41,1.98h3.62l.41-1.98h-3.62ZM157.96,99.11c.21.73.45,1.23.73,1.68.18.25.02.48-.24.43-.2-.05-1.79.58-4.99,2.13l-.52,2.53c-.13.63-.08.83,1.8.83,1.25,0,1.87-.53,2.5-2.81.28.85.73,1.25,1.28,1.43-1.22,2.88-1.52,3.13-4.12,3.13-3.17,0-3.32-.18-2.86-2.41l1.18-5.69c.23-1.1.37-2.08.42-2.76.56.12,1.16.18,1.73.15.34,0,.38.18-.03.53-.27.22-.41.4-.49.8l-.55,2.65c1.69-.83,3.2-1.8,4.17-2.63ZM160.19,88.61c.21.7.49,1.3.83,1.68.2.23.07.5-.3.45-.31-.05-1.52.4-4.89,2l-.28,1.35c-.13.63-.05.98,1.79.98,1.29,0,1.59-.25,2.3-2.43.19.65.68,1.13,1.23,1.3-1.18,2.61-1.53,2.71-3.84,2.71-3.17,0-3.34-.15-2.88-2.38l.91-4.39c.23-1.13.38-2.03.44-2.76.56.13,1.14.18,1.71.15.34,0,.38.18-.03.53-.27.23-.42.45-.49.8l-.55,2.63c1.49-.7,3.12-1.78,4.05-2.63Z"/><path class="cls-1" d="M246.75,96.33l-.56,2.43c-1.98-.15-4.34-.23-7.87-.25l-1.79,7.77c-.35,1.53-1.46,2.43-4.57,2.48.15-.73.12-1.45-.13-2.53,2.4.25,2.89-.15,3.1-1.03l1.54-6.69c-3.68,0-6.18.08-8.28.25l.56-2.43c2.04.18,4.48.25,8.16.25l.78-3.41c1.83-.9,2.9-1.55,4.97-3.23h-7.38c-1.32,0-2.17.03-3.14.1l.51-2.2c2.03.13,3.32.18,7,.18,4.48,0,6.05-.05,7.08-.18l-.5,2.18c-.7.03-1.3.28-1.88.68l-5.08,3.61-.52,2.28c3.54-.03,5.93-.1,7.99-.25Z"/><path class="cls-1" d="M272.53,94.77c-.09-.63-.43-1.15-.84-1.5,1.84-1.38,3.87-3.73,5.62-6.71.5.35,1.03.65,1.29.75.37.15.37.33-.07.58-.18.1-.69.63-1.3,1.4,3.18,0,4.01-.05,4.88-.2l-3.03,3.98c1.06-.03,2.05-.07,2.9-.15-.25.65-.39,1.03-.52,1.58l-2.84,11.6c-.42,1.73-.65,2-3.02,2.55.15-.78.08-1.35-.22-2.2,1.25.2,1.65-.07,1.8-.68l.82-3.36h-1.86c-.62,2.55-.97,4.33-1.07,5.01h-1.63c.25-.65.72-2.38,1.36-5.01h-1.77c-.67,2.08-2.01,4.76-3.44,6.66-.29-.63-.65-1-1.15-1.25,1.63-1.73,2.88-4.28,3.75-7.84l1.6-6.54c-.46.53-.88.95-1.26,1.33ZM274.1,93.09h3.33l1.68-2.38h-2.97c-.55.68-1.3,1.55-2.04,2.38ZM276.09,97.13l.64-2.61h-1.72l-.64,2.61h1.72ZM274.03,98.51l-.6,2.46h1.72l.6-2.46h-1.72ZM279.29,97.13l.64-2.61h-1.86l-.64,2.61h1.86ZM277.1,98.51l-.6,2.46h1.86l.6-2.46h-1.86ZM282.56,96.38c-.2-.55-.54-.98-1.14-1.35,2.5-1.43,3.45-2.23,4.38-5.11-1.07,0-2.31.1-2.77.18l.46-1.88c.75.13,1.68.18,4.21.18,2.97,0,3.57-.05,4.58-.18-.43,1.13-.79,2.13-1.67,4.71-.68,2.03-1.18,2.36-4.12,2.58.16-.83.09-1.28-.2-2.1,2.09.5,2.54.02,2.9-.98l.79-2.51h-2.68c-.98,3.11-2.23,4.64-4.73,6.46ZM285.82,96.23c.56.1,1.37.15,1.89.15.25,0,.26.12.01.32-.14.13-.36.45-.42.73l-.43,1.75c1.19,0,2.39-.08,3.17-.18l-.42,1.73c-.74-.1-1.9-.18-3.09-.18l-.69,2.81c1.3-.03,2.75-.07,3.53-.18l-.46,1.88c-.74-.07-2.15-.15-3.45-.18-.37,1.53-.69,2.93-.9,4.31h-1.92c.48-1.4.84-2.78,1.21-4.31-1.64.02-3.33.07-4.27.18l.46-1.88c.93.12,2.57.18,4.18.18l.69-2.81h-2.48c-.44.8-.89,1.45-1.29,1.98-.4-.48-.63-.63-1.23-.75,1.22-1.4,1.96-2.63,2.87-4.86.53.3,1,.48,1.32.55.3.05.29.18-.08.5-.11.1-.51.63-.88,1.2h2.1c.28-1.15.55-2.61.57-2.96Z"/><path class="cls-1" d="M315.85,104.27c-.86,1.35-1.72,2.86-2.49,4.36-.49-.75-.88-1.23-1.42-1.85.9-1.05,1.65-2.03,2.86-3.73.91-1.2,1.76-2.51,2.52-3.86.24.53.55.88,1.13,1.1-.64.85-1.5,2.23-2.59,3.98ZM318.32,94.25c-.42-.88-1.85-2.35-2.79-3.06l1.58-1.63c1.27.95,2,1.63,2.92,2.78l-1.71,1.9ZM316.27,109.18c-.22-.55-.56-1.1-1.19-1.65,4.63-2.25,6.81-4.13,8.33-7.99-2.59.05-3.64.1-4.37.23l.48-2.03c.79.15,1.79.23,4.26.23h.2c.47-1.43,1-3.51,1.49-5.56-1.5.02-2.97.1-3.75.2l.49-2.05c.6.1,2.15.15,3.64.18.32-1.53.63-3.03.84-4.28.8.1,1.73.13,2.27.1.35-.03.39.18,0,.45-.38.25-.71.9-1.45,3.76,2.23,0,4.3-.05,5.28-.23-.36.95-.65,1.9-1.06,3.38l-1.11,4.03c.92-.03,1.71-.1,2.32-.2l-.48,2.03c-.79-.15-2.35-.23-6.08-.23.09,3.81,1.83,5.74,5.13,6.59-.89.9-1.51,1.88-1.85,2.78-3.75-2.66-4.87-4.76-4.5-9.37h-.09c-1.69,4.66-3.75,6.69-8.81,9.65ZM325.6,97.95h3.36l1.51-5.56h-3.36c-.6,2.43-1.09,4.23-1.51,5.56Z"/><path class="cls-1" d="M370.97,96.08c.91,0,1.78-.05,2.35-.13l-3,9.14c-.87,2.68-1.45,3.28-5.4,3.93.13-.98-.13-2.13-.72-3.03,2.49.68,3.63.1,4.14-1.33l2.35-6.64h-6.24c-1.79,4.91-3.53,7.09-8.33,10.9-.25-.9-.93-1.48-1.77-1.75,3.78-1.8,6.69-5.21,8.18-9.19.54-1.45,1.04-3.11,1.58-5.09-2.91.03-4.78.08-6.71.18l.56-2.26c2.31.13,5.47.18,9.69.18s7.52-.05,9.8-.18l-.56,2.26c-2.19-.13-6.4-.18-10.66-.18-.37,1.13-.71,2.13-1.08,3.18h5.83ZM366.93,90.69c.04-1.08-.19-2.63-.4-3.41l2.66-.85c-.04.9.11,2.38.36,3.31l-2.62.95Z"/><path class="cls-1" d="M417.83,101.46l-.45,1.9c-1.64-.13-3.7-.2-6.51-.23.98,1.53,3.43,3.08,6.67,3.21-.48.58-1.05,1.53-1.34,2.26-2.75-.53-5.71-2.48-6.67-5.49h-.28l-.71,2.98c-.28,1.18-.48,2.23-.61,3.13h-1.95c.36-.98.65-2,.91-3.13l.71-2.98h-.15c-2.15,2.68-5.69,4.84-8.86,5.89-.06-.68-.31-1.35-.81-1.8,3.55-1,6.1-2.28,8.15-4.08-2.88.03-5.24.1-6.88.25l.45-1.9c1.89.18,4.77.25,8.4.25.16-.75.25-1.4.26-1.83.58.1,1.48.15,1.99.1.44-.05.47.03.02.45-.31.3-.42.48-.51.88l-.09.4c3.71-.02,6.24-.1,8.24-.25ZM401.88,94.52l.43-1.8c1.72.15,3.28.23,5.31.23.74-.85,1.19-1.45,1.77-2.35.5.25,1.12.5,1.41.63.53.23.47.38-.07.68-.18.1-.63.48-1.25,1.05h5.28c1.88,0,3.44-.07,4.73-.23l-.43,1.83c-.94-.13-2.25-.2-3.76-.23-.6.98-1.17,1.58-2.58,2.66,1.87.5,3.69,1.05,5.11,1.55-.44.38-1.05,1.13-1.45,1.75-1.76-.88-3.37-1.58-5.17-2.2-1.88,1.1-5.76,2.1-9.5,2.45-.09-.63-.29-1.25-.61-1.9,2.1.07,6.11-.4,8.22-1.15-1.49-.4-3.15-.78-5.12-1.15.87-.75,1.54-1.38,2.14-2-1.52.03-2.88.08-4.46.2ZM411.09,86.81l2.01-.28c-.11.73-.17,1.7-.17,2.26,4.07,0,5.67-.08,7.55-.25l-.72,3.06h-1.99l.32-1.35h-13.12l-.39,1.63h-1.9l.79-3.33c1.78.18,3.38.25,7.45.25.1-.7.17-1.53.17-1.98ZM408.07,94.32c-.37.38-.75.78-1.13,1.2,1.2.25,2.65.6,4.11,1,.95-.63,1.76-1.33,2.47-2.2h-5.45Z"/><path class="cls-1" d="M202.54,103.87s-.19.66-.96,1.74c-.35.49-1.51,1.29-2.87,1.74-1.03.34-4.86.59-5.15-.49-.15-.56.06-1.41.06-1.41l.77-3.26h4.96l-.2.85h1.97c.15-1.09.35-2.11.63-3.28l1.79-7.55c.18-.76.51-1.88.73-2.42-1.67.12-3.11.16-6.96.16l.5-2.1c.14-.58.35-1.01.55-1.12.45-.25.42-.39,0-.39-.76.02-1.67.02-2.29-.02-.11,1.03-.31,2.21-.62,3.63-2.81,0-5.16-.04-6.76-.16-.03.6-.18,1.42-.42,2.42l-1.88,7.94c-.28,1.16-.57,2.23-.92,3.26h1.95l.29-1.22h4.85l-.77,3.26s-.83,2.39.78,3.13c1.64.76,5.69.39,7.17-.19.98-.38,2.56-1.49,3.29-2.2.48-.47.97-.7.97-.7l-1.42-1.61ZM196.95,91.37h4.96l-.89,3.74h-4.96l.89-3.74ZM195.73,96.53h4.96l-1,4.21h-4.96l1-4.21ZM190.24,91.37h4.85l-.89,3.74h-4.85l.89-3.74ZM188.02,100.74l1-4.21h4.85l-1,4.21h-4.85Z"/><rect class="cls-1" x="2.04" y="92.92" width="85.28" height="3.61" rx=".65" ry=".65"/><rect class="cls-1" x="429.27" y="92.92" width="85.28" height="3.61" rx=".65" ry=".65"/></g></svg>