<?xml version="1.0" encoding="UTF-8"?><svg id="Layer_2" xmlns="http://www.w3.org/2000/svg" viewBox="0 0 376.69 168.42"><defs><style>.cls-1{fill:#fff;}</style></defs><g id="Layer_1-2"><polygon class="cls-1" points="160.32 37.45 160.69 38.73 163.84 40.01 162.68 37.65 160.32 37.45"/><path class="cls-1" d="M4.89,4.89v97.99h183.46V4.89H4.89ZM62.54,97.3h-11.83l-4.79-6.98v-4.37l8.55-13.54,20.39-2.73-19.35,19.47,7.03,8.15ZM125.35,97.23l-8.1-8.04-9.74-14.34,16.68-15.93,5.3,28.67,9.91,9.64h-14.06ZM179.58,46.73l-3.31,4.85-1.54-2.4h-11.88l-3.57,4.05,5.54,4.53,3.88-1.59-3.78,3.88-16.14-6.2-27.92,3.97-16.66,15.88-11.73,16.62,6.45,6.92h-13.32l-7.19-7.51,5.05-21.15-2.76-2.82-26,3.51-13.42,13.42-12.09,1.18-5.11,6.65,4.58,6.71h-10.6l-5.7-6.23.9-8.84,12.36-12.68v-27.7l6.07-10.87,22.7-9.47h24.18l26.11-10.98,43.46,16.19,8.31-5.86v7.03l10.22,4.05,3.31,6.5h10.86l-1.28,8.36Z"/><path class="cls-1" d="M195.83,38.37l1.28,8.36,3.31,4.85,1.54-2.4h11.88s3.57,4.05,3.57,4.05l-5.54,4.53-3.88-1.59,3.78,3.88,16.14-6.2,27.92,3.97,16.66,15.88,11.73,16.62-6.45,6.92h13.32s7.19-7.51,7.19-7.51l-5.05-21.15,2.76-2.82,26,3.51,13.42,13.42,12.09,1.18,5.11,6.65-4.58,6.71h10.6s5.7-6.23,5.7-6.23l-.9-8.84-12.36-12.68v-27.7s-6.07-10.87-6.07-10.87l-22.7-9.47h-24.18s-26.11-10.98-26.11-10.98l-43.46,16.19-8.31-5.86v7.03s-10.22,4.05-10.22,4.05l-3.31,6.5h-10.86ZM212.85,40.01l1.16-2.36,2.36-.2-.36,1.28-3.15,1.28Z"/><polygon class="cls-1" points="322.22 72.41 301.83 69.68 321.18 89.15 314.15 97.3 325.97 97.3 330.77 90.32 330.77 85.96 322.22 72.41"/><polygon class="cls-1" points="252.49 58.92 269.17 74.85 259.43 89.19 251.34 97.23 237.27 97.23 247.18 87.59 252.49 58.92"/><path class="cls-1" d="M376.69,107.76H0V0h376.69v107.76ZM1.92,105.84h372.86V1.92H1.92v103.92Z"/><path class="cls-1" d="M127.51,129.48v37.92c0,.57.49,1.03,1.1,1.03h7.82c.61,0,1.1-.46,1.1-1.03v-7.72c0-.43.38-.79.84-.79h4.2c.46,0,.84.35.84.79v7.72c0,.57.49,1.03,1.1,1.03h7.82c.61,0,1.1-.46,1.1-1.03v-37.92c0-4.14-3.59-7.5-8.02-7.5h-9.89c-4.43,0-8.02,3.36-8.02,7.5ZM142.51,150.84h-4.07c-.5,0-.91-.38-.91-.85v-19.12c0-.47.41-.85.91-.85h4.07c.5,0,.91.38.91.85v19.12c0,.47-.41.85-.91.85Z"/><path class="cls-1" d="M227.99,129.48v37.92c0,.57.49,1.03,1.1,1.03h7.82c.61,0,1.1-.46,1.1-1.03v-7.72c0-.43.38-.79.84-.79h4.2c.46,0,.84.35.84.79v7.72c0,.57.49,1.03,1.1,1.03h7.82c.61,0,1.1-.46,1.1-1.03v-37.92c0-4.14-3.59-7.5-8.02-7.5h-9.89c-4.43,0-8.02,3.36-8.02,7.5ZM243,150.84h-4.07c-.5,0-.91-.38-.91-.85v-19.12c0-.47.41-.85.91-.85h4.07c.5,0,.91.38.91.85v19.12c0,.47-.41.85-.91.85Z"/><path class="cls-1" d="M271.17,159.58l11.33-29.98c.37-.98.56-2,.56-3.04v-3.57c0-.57-.49-1.03-1.1-1.03h-21.6c-.61,0-1.1.46-1.1,1.03v5.99c0,.57.49,1.03,1.1,1.03h10.46c.56,0,.95.52.76,1.01l-12.27,32.47c-.03.09-.05.18-.05.28v3.81c0,.46.4.83.89.83h21.6c.57,0,1.05-.41,1.1-.95l.48-5.99c.05-.6-.46-1.11-1.1-1.11h-10.46c-.44,0-.74-.4-.6-.79Z"/><path class="cls-1" d="M176.59,122.85v36.86c0,.37-.32.67-.71.67h-4.46c-.39,0-.71-.3-.71-.67v-36.86c0-.48-.42-.88-.94-.88h-8.15c-.52,0-.94.39-.94.88v38.64c0,3.83,3.31,6.93,7.4,6.93h11.12c4.09,0,7.4-3.1,7.4-6.93v-38.64c0-.48-.42-.88-.94-.88h-8.15c-.52,0-.94.39-.94.88Z"/><path class="cls-1" d="M114.61,168.42h7.92c.58,0,.98-.54.79-1.05l-9.49-24.31c-.22-.56-.22-1.17,0-1.73l7.19-18.4c.18-.47-.19-.96-.72-.96h-7.7c-.74,0-1.39.43-1.65,1.08l-6.51,16.67c-.08.2-.28.33-.51.33h0c-.3,0-.54-.23-.54-.51v-15.92c0-.91-.79-1.64-1.75-1.64h-6.52c-.97,0-1.75.73-1.75,1.64v44.01c0,.44.38.8.86.8h8.31c.47,0,.86-.36.86-.8v-18.78c0-.56.47-1.01,1.07-1.02h0c.71-.01,1.36.4,1.6,1.03l7.32,18.77c.19.48.68.8,1.22.8Z"/><path class="cls-1" d="M215.22,168.42h7.92c.58,0,.98-.54.79-1.05l-9.49-24.31c-.22-.56-.22-1.17,0-1.73l7.19-18.4c.18-.47-.19-.96-.72-.96h-7.7c-.74,0-1.39.43-1.65,1.08l-6.51,16.67c-.08.2-.28.33-.51.33h0c-.3,0-.54-.23-.54-.51v-15.92c0-.91-.79-1.64-1.75-1.64h-6.52c-.97,0-1.75.73-1.75,1.64v44.01c0,.44.38.8.86.8h8.31c.47,0,.86-.36.86-.8v-18.78c0-.56.47-1.01,1.07-1.02h0c.71-.01,1.36.4,1.6,1.03l7.32,18.77c.19.48.68.8,1.22.8Z"/></g></svg>