<?xml version="1.0" encoding="UTF-8"?><svg id="Layer_2" xmlns="http://www.w3.org/2000/svg" viewBox="0 0 639.22 76.38"><defs><style>.cls-1{fill:#fff;}</style></defs><g id="Layer_1-2"><polygon class="cls-1" points="227.24 36.42 242.54 36.42 253.26 20.29 237.96 20.29 227.24 36.42"/><polygon class="cls-1" points="518.96 20.29 508.24 36.42 563.93 36.42 574.65 20.29 559.35 20.29 552.41 30.73 527.33 30.73 534.26 20.29 518.96 20.29"/><polygon class="cls-1" points="187.48 36.42 202.78 36.42 206.07 31.48 205.5 36.42 222.42 36.42 224.49 20.29 198.2 20.29 187.48 36.42"/><path class="cls-1" d="M360.32,36.42h16c4.73-4.67,9.47-9.34,14.14-13.97l-4.36,13.97h16l5.16-16.13h-30.62l-16.31,16.13Z"/><polygon class="cls-1" points="273.29 36.42 288.6 36.42 299.32 20.29 284.01 20.29 273.29 36.42"/><polygon class="cls-1" points="119.69 20.29 108.97 36.42 157.26 36.42 161.13 30.6 128.14 30.6 135 20.29 119.69 20.29"/><path class="cls-1" d="M431.21,57.06l11.45-17.23h-15.3l-11.54,17.36c-.24.36-.47.73-.69,1.1h16.16c-.12-.68-.12-1.18-.08-1.23Z"/><path class="cls-1" d="M472.31,57.69l-11.97-3.51c-1.84,1.5-3.66,2.88-5.47,4.11h16.79c.21-.2.43-.39.64-.6Z"/><polygon class="cls-1" points="286.33 39.83 271.03 39.83 258.76 58.29 274.06 58.29 286.33 39.83"/><polygon class="cls-1" points="200.51 39.83 185.21 39.83 172.94 58.29 188.24 58.29 200.51 39.83"/><polygon class="cls-1" points="240.27 39.83 224.97 39.83 221.27 45.4 221.99 39.83 205.1 39.83 202.98 58.29 228 58.29 240.27 39.83"/><polygon class="cls-1" points="444.94 36.42 455.66 20.29 440.35 20.29 429.63 36.42 444.94 36.42"/><path class="cls-1" d="M326.84,39.83h-15.3l-10.95,16.48c-.9.76-1.77,1.4-2.62,1.98h16.53c.39-.51.75-1.02,1.06-1.48l11.29-16.98Z"/><path class="cls-1" d="M401.01,39.83h-15.97l-2.13,6.82h-16.93c2.29-2.27,4.59-4.54,6.9-6.82h-16l-18.67,18.46h56.91l5.9-18.46Z"/><polygon class="cls-1" points="151.38 45.27 155 39.83 106.71 39.83 94.44 58.29 109.74 58.29 118.39 45.27 151.38 45.27"/><path class="cls-1" d="M490.92,20.29h-9.26c-.05.7-.16,1.45-.31,2.28l9.57-2.28Z"/><polygon class="cls-1" points="628.33 16.88 639.22 .5 623.79 .5 612.91 16.88 628.33 16.88"/><polygon class="cls-1" points="549.39 58.29 561.66 39.83 505.97 39.83 493.7 58.29 509 58.29 517.57 45.4 542.66 45.4 534.09 58.29 549.39 58.29"/><path class="cls-1" d="M313.81,36.42h15.3l10.72-16.13h-15.31s0,.02,0,.02l-10.7,16.1Z"/><path class="cls-1" d="M55.04,39.83h-31.16l-12.27,18.46h15.3l9.07-13.64h1.25l.78,13.64h18.37c-.5-7.27-1.04-14.83-1.34-18.46Z"/><polygon class="cls-1" points="613.08 39.83 597.65 39.83 585.38 58.29 600.81 58.29 613.08 39.83"/><path class="cls-1" d="M36.86,20.29l-10.72,16.13h30.38l22.76-16.13h-17.67c-8.24,5.89-15.17,10.81-15.38,10.81h-1.25l7.18-10.81h-15.3Z"/><polygon class="cls-1" points="491.43 61.7 482.1 75.75 497.4 75.75 506.74 61.7 491.43 61.7"/><polygon class="cls-1" points="170.67 61.7 161.34 75.75 176.64 75.75 185.98 61.7 170.67 61.7"/><polygon class="cls-1" points="202.59 61.7 200.97 75.75 216.4 75.75 225.74 61.7 202.59 61.7"/><path class="cls-1" d="M256.49,61.7l-9.34,14.05h36.5c2.88,0,6.73-1.25,9.61-2.38,3.84-1.63,11.78-6.4,15.2-8.9,1.11-.86,2.15-1.8,3.09-2.76h-55.06Z"/><path class="cls-1" d="M38.21,61.7l.8,14.05h18.56s-.43-6.45-.96-14.05h-18.41Z"/><polygon class="cls-1" points="92.17 61.7 82.83 75.75 132.25 75.75 141.59 61.7 92.17 61.7"/><path class="cls-1" d="M448.95,61.7s0,0,0,0h-15.93s0,0,0,0h-19.52c-.41,1.13-.68,2.24-.71,3.26.17,2.38,1.6,7.4,3.15,9.03,1.3,1.25,3.68,2.38,6.69,2.38h16.43c7.65,0,17.8-6.4,23.64-10.66,1.69-1.22,3.42-2.56,5.15-4.01h-18.91Z"/><polygon class="cls-1" points="583.11 61.7 573.77 75.75 589.2 75.75 598.54 61.7 583.11 61.7"/><polygon class="cls-1" points="531.82 61.7 522.48 75.75 537.79 75.75 547.12 61.7 531.82 61.7"/><path class="cls-1" d="M334.75,61.7l-14.21,14.05h16.3c4.59-4.52,9.73-9.5,14.35-14.05h-16.44Z"/><polygon class="cls-1" points="610.64 20.29 599.92 36.42 615.35 36.42 626.06 20.29 610.64 20.29"/><polygon class="cls-1" points="9.34 61.7 0 75.75 15.3 75.75 24.64 61.7 9.34 61.7"/><polygon class="cls-1" points="377.67 61.7 373.22 75.75 389.52 75.75 394.02 61.7 377.67 61.7"/><path class="cls-1" d="M460.29,16.88c1.56-.94,3.06-1.76,3.99-2.21h15.68c.6.74,1.01,1.47,1.28,2.21h17.38c.49-2.08.78-4.17.64-6.35-.26-4.14-1.78-10.53-9.43-10.53h-16.43c-3.01,0-6.98,1.25-9.74,2.38-4.05,1.76-12.44,7.02-15.28,9.03-2.31,1.71-4.11,3.55-5.63,5.47h17.53Z"/><polygon class="cls-1" points="408.34 16.88 413.58 .5 396.65 .5 380.08 16.88 408.34 16.88"/><path class="cls-1" d="M301.58,16.88l1.13-1.71h20.57c.5.5.93,1.04,1.2,1.71h17.42c.87-1.69,1.42-3.35,1.36-4.97-.17-2.01-1.23-7.4-2.82-9.16-1.38-1.5-4.15-2.26-6.78-2.26h-36.5l-10.89,16.38h15.3Z"/><polygon class="cls-1" points="54.43 16.88 65.32 .5 50.02 .5 39.13 16.88 54.43 16.88"/><polygon class="cls-1" points="536.53 16.88 547.42 .5 532.11 .5 521.23 16.88 536.53 16.88"/><polygon class="cls-1" points="576.92 16.88 587.8 .5 572.5 .5 561.61 16.88 576.92 16.88"/><path class="cls-1" d="M84.1,16.88L107.21.5h-18.06s-11.62,8.39-22.78,16.38h17.72Z"/><polygon class="cls-1" points="137.26 16.88 138.4 15.17 172.51 15.17 182.27 .5 132.85 .5 121.96 16.88 137.26 16.88"/><polygon class="cls-1" points="224.93 16.88 227.03 .5 211.36 .5 200.47 16.88 224.93 16.88"/><polygon class="cls-1" points="255.53 16.88 266.42 .5 251.12 .5 240.23 16.88 255.53 16.88"/></g></svg>