<?xml version="1.0" encoding="UTF-8"?><svg id="Layer_2" xmlns="http://www.w3.org/2000/svg" viewBox="0 0 464 120.89"><defs><style>.cls-1{fill:#531c96;stroke-width:0px;}</style></defs><g id="Layer_1-2"><path class="cls-1" d="M0,104.74c0-9.31,7.25-16.14,16.24-16.14s16.24,6.83,16.24,16.14-7.21,16.14-16.24,16.14S0,114.01,0,104.74ZM3.56,104.74c0,7.16,5.66,12.87,12.68,12.87s12.68-5.71,12.68-12.87-5.66-12.87-12.68-12.87-12.68,5.71-12.68,12.87Z"/><path class="cls-1" d="M84.27,89.12c3.13,0,5.75.37,7.86,2.2,2.29,1.97,2.85,4.73,2.85,6.69,0,4.4-2.76,8.75-9.87,8.75h-3.04v13.57h-3.46v-31.21h5.66ZM82.07,103.48h2.85c4.12,0,6.6-2.06,6.6-5.66,0-4.96-4.63-5.43-6.88-5.43h-2.57v11.09Z"/><path class="cls-1" d="M147.4,92.39v27.93h-3.46v-27.93h-7.58v-3.27h18.62v3.27h-7.58Z"/><path class="cls-1" d="M202.9,89.12v31.21h-3.46v-31.21h3.46Z"/><path class="cls-1" d="M274.58,95.99c-.98-.98-2.48-2.15-4.07-2.9-1.64-.75-3.56-1.22-5.38-1.22-7.21,0-12.54,5.8-12.54,13.01,0,8.47,6.88,12.73,12.59,12.73,2.11,0,4.16-.61,5.8-1.45,1.78-.89,3.04-2.06,3.6-2.62v4.3c-3.46,2.48-7.06,3.04-9.4,3.04-9.26,0-16.14-7.02-16.14-16.05s6.97-16.24,16.33-16.24c1.87,0,5.47.23,9.22,3.09v4.3Z"/><path class="cls-1" d="M337.94,111.53h-13.29l-3.74,8.8h-3.84l14.36-32.7,13.99,32.7h-3.84l-3.65-8.8ZM336.58,108.25l-5.24-12.49-5.33,12.49h10.57Z"/><path class="cls-1" d="M393.06,89.12v27.93h8.61v3.27h-12.07v-31.21h3.46Z"/><path class="cls-1" d="M460.07,95.29c-.42-.84-1.12-1.78-1.83-2.34-.61-.47-1.73-1.08-3.51-1.08-3.09,0-5.24,1.92-5.24,4.82,0,1.22.33,1.92,1.17,2.71.94.94,2.11,1.45,3.27,1.96l2.99,1.31c1.83.8,3.51,1.64,4.82,2.95,1.59,1.59,2.25,3.42,2.25,5.66,0,5.76-4.26,9.59-9.87,9.59-2.06,0-4.63-.42-6.78-2.53-1.54-1.5-2.48-3.65-2.9-5.52l3.37-.94c.23,1.64.98,3.04,1.87,3.98,1.36,1.36,2.9,1.73,4.49,1.73,4.26,0,6.27-3.04,6.27-6.18,0-1.4-.42-2.62-1.54-3.65-.89-.84-2.11-1.4-3.74-2.15l-2.81-1.31c-1.22-.56-2.76-1.22-4.16-2.57-1.36-1.31-2.15-2.76-2.15-5.1,0-4.82,3.7-8.05,8.75-8.05,1.92,0,3.46.37,5.01,1.4,1.26.84,2.34,2.11,3.04,3.46l-2.76,1.82Z"/><path class="cls-1" d="M0,20.28h10.04v20.09h32.46l20.16-20.09h13.79l-25.26,25.49,23.69,23.61h-13.27l-19.04-19.19H10.04v19.19H0V20.28Z"/><path class="cls-1" d="M85.76,20.28h9.97v49.1h-9.97V20.28Z"/><path class="cls-1" d="M147.83,50.19h-32.16v19.19h-10.04V20.28h64.47c3.5,0,5.95,1.4,7.35,4.2.6,1.2.9,2.55.9,4.05v13.34c0,3.5-1.37,5.95-4.12,7.35-1.25.65-2.62.97-4.12.97h-9.52l19.12,19.19h-12.74l-19.12-19.19ZM166.94,40.3c.8,0,1.27-.37,1.42-1.12.05-.15.07-.27.07-.37v-7.2c0-.8-.37-1.3-1.12-1.5-.15-.05-.28-.07-.37-.07h-51.12v10.27h51.12Z"/><path class="cls-1" d="M350.81,69.38h-64.47v-9.82l61.24-.15c.8,0,1.27-.4,1.42-1.2.05-.15.07-.27.07-.37l-.07-7.5v-.15h-62.67v-21.66c0-3.45,1.4-5.87,4.2-7.27,1.2-.65,2.57-.97,4.12-.97h64.32v9.89l-61.09-.07c-.8,0-1.27.37-1.42,1.12-.05.15-.07.28-.07.37v8.77h62.67v20.69c0,3.5-1.37,5.95-4.12,7.35-1.25.65-2.62.97-4.12.97Z"/><path class="cls-1" d="M369.02,20.28h10.04v20.09h52.62v-20.09h10.04v49.1h-10.04v-19.19h-52.62v19.19h-10.04V20.28Z"/><path class="cls-1" d="M454.03,20.28h9.97v49.1h-9.97V20.28Z"/><path class="cls-1" d="M195.36,73.73H0v7.83h203.82c-3.13-2.26-5.97-4.89-8.46-7.83Z"/><path class="cls-1" d="M268.64,73.73c-2.5,2.93-5.34,5.56-8.46,7.83h203.82v-7.83h-195.36Z"/><path class="cls-1" d="M272.03,28.03c3.5-7.11,2.31-15.97-3.6-21.88-5.91-5.91-14.77-7.1-21.88-3.6-4.54-1.65-9.44-2.55-14.55-2.55-23.52,0-42.58,19.06-42.58,42.58s19.06,42.58,42.58,42.58,42.58-19.06,42.58-42.58c0-5.11-.9-10.01-2.55-14.55ZM242.81,6.73c.18-.17.37-.34.56-.5.74-.54,1.69-.81,2.82-.81,3.92,0,9.8,3.06,14.86,8.12,6.5,6.5,9.69,14.35,7.33,17.66-.17.19-.34.38-.52.57-3.14,2.75-11.25-.44-17.93-7.12-6.68-6.68-9.87-14.79-7.12-17.92ZM267.51,7.07c5.2,5.2,6.49,12.86,3.86,19.28-4.32-10.46-12.68-18.82-23.14-23.14,6.42-2.63,14.08-1.34,19.28,3.86ZM232,76.85c-18.93,0-34.27-15.34-34.27-34.27s15.34-34.27,34.27-34.27c2.94,0,5.79.39,8.52,1.09-.22,4.34,2.9,10.59,8.49,16.17,5.4,5.4,11.42,8.51,15.74,8.51.15,0,.28-.02.43-.03.7,2.73,1.1,5.58,1.1,8.53,0,18.93-15.34,34.27-34.27,34.27Z"/><path class="cls-1" d="M256.54,26.17c.74,0,1.37-.22,1.83-.68,1.52-1.52.42-4.9-2.55-7.87-1.33-1.33-2.84-2.35-4.24-2.87-1.56-.57-2.85-.46-3.63.32-.78.78-.89,2.07-.32,3.63.51,1.4,1.53,2.9,2.87,4.24,2.07,2.07,4.34,3.23,6.04,3.23Z"/></g></svg>