<?xml version="1.0" encoding="UTF-8"?><svg id="Layer_2" xmlns="http://www.w3.org/2000/svg" viewBox="0 0 403.54 196.53"><defs><style>.cls-1{fill:#fff;}</style></defs><g id="Layer_1-2"><path class="cls-1" d="M303.67,47.81c.43.19,36.32,14.8,36.32,14.8,6.16,2.7,9.1,9.79,13.33,14.61,2.3,2.62,4.38,3.03,7.55,4.08,12.06,3.97,24.6,7.11,36.59,11.22,6.58,2.25,6.85,4.79,5.29,11.35-3.41,14.33-12.12,23.86-24.03,31.84-3.02,2.02-5.95,3.55-9.73,3.04l-41.41-2.77c-1.19-.08-2.24.77-2.4,1.95l-7.94,56.66c-.16,1.12-1.12,1.96-2.25,1.96h-43.95c-1.26,0-2.27-1.02-2.27-2.27V45.8c.03-2.38,1.54-4.08,2.78-5.94,6.64-9.86,25.29-36.01,27.52-38.68.74-.89,1.33-1.34,2.56-1.13,1.11.18,1.56,1.39,1.39,2.33-2.68,14.07-1.4,44.53.66,45.44ZM315.39,74.97c-.25.08-.48.54-.36.78.16.32,2.15,2.17,2.59,2.59,4.77,4.64,9.75,9.1,14.53,13.73.58.42,1.15-.09,1.23-.73.28-2.17.01-7.84-.54-9.97-.34-1.31-1.11-1.29-2.29-1.74-2.2-.84-4.65-1.58-6.91-2.3-1.07-.34-7.77-2.52-8.25-2.36Z"/><path class="cls-1" d="M25.46,69.94l12.73-12.41c.48-.47.75-1.11.75-1.77V2.75c0-1.37,1.11-2.48,2.48-2.48h16.37c1.37,0,2.48,1.11,2.48,2.48v61.42c0,.65-.26,1.28-.72,1.75l-21.66,21.77c-.95.95-.96,2.49-.03,3.46l21.68,22.6c.44.46.69,1.07.69,1.71l.04,78.6c0,1.37-1.11,2.48-2.48,2.48h-16.37c-1.37,0-2.48-1.11-2.48-2.48v-69.73c0-.64-.25-1.25-.69-1.71l-12.73-13.32c-1.54-1.61-4.27-.52-4.27,1.71v83.06c0,1.37-1.11,2.48-2.48,2.48H2.48c-1.37,0-2.48-1.11-2.48-2.48V2.75C0,1.39,1.11.28,2.48.28h16.3c1.37,0,2.48,1.11,2.48,2.48v65.42c0,2.19,2.64,3.3,4.21,1.77Z"/><path class="cls-1" d="M148.06,180.29v14.4c0,1.02-.83,1.84-1.84,1.84h-29.79c-1.02,0-1.84-.83-1.84-1.84V2.2c0-1.02.82-1.84,1.84-1.84l29.79-.07c1.02,0,1.85.82,1.85,1.84v14.31c0,1.02-.83,1.84-1.84,1.84h-8.53c-1.02,0-1.84.82-1.84,1.84v58.95c0,1.02.83,1.84,1.84,1.84h8.53c1.02,0,1.84.83,1.84,1.84v14.39c0,1.02-.83,1.84-1.84,1.84h-8.53c-1.02,0-1.84.83-1.84,1.84v75.75c0,1.02.83,1.84,1.84,1.84h8.53c1.02,0,1.84.83,1.84,1.84Z"/><path class="cls-1" d="M175.89,20.13v156.47c0,1.02.83,1.84,1.85,1.84h9.87s.01,11.65,0,16.25c0,1.02-.83,1.84-1.84,1.84h-29.44c-1.02,0-1.84-.83-1.84-1.84V2.12c0-1.02.83-1.84,1.84-1.84h29.43c1.02,0,1.84.83,1.84,1.84v14.32c0,1.02-.83,1.84-1.84,1.84h-8.02c-1.02,0-1.84.83-1.84,1.84Z"/><path class="cls-1" d="M98.04,20.13v174.55c0,1.02-.83,1.84-1.84,1.84h-17.63c-1.02,0-1.84-.83-1.84-1.84V20.13c0-1.02-.83-1.84-1.84-1.84h-6.02c-1.02,0-1.84-.83-1.84-1.84V2.12c0-1.02.83-1.84,1.84-1.84h37.2c1.02,0,1.84.83,1.84,1.84v14.32c0,1.02-.83,1.84-1.84,1.84h-6.17c-1.02,0-1.84.83-1.84,1.84Z"/><path class="cls-1" d="M230.32,79.08V2.12c0-1.02.83-1.84,1.84-1.84h17.63c1.02,0,1.84.83,1.84,1.84v192.56c0,1.02-.83,1.84-1.84,1.84h-17.63c-1.02,0-1.84-.83-1.84-1.84v-93.83c0-1.02-.83-1.84-1.84-1.84h-7.44c-1.02,0-1.84-.83-1.84-1.84v-14.39c0-1.02.83-1.84,1.84-1.84h7.44c1.02,0,1.84-.83,1.84-1.84Z"/><rect class="cls-1" x="194.47" y=".28" width="21.33" height="196.25" rx="1.84" ry="1.84"/></g></svg>