<?xml version="1.0" encoding="UTF-8"?><svg id="Layer_2" xmlns="http://www.w3.org/2000/svg" viewBox="0 0 429.14 149.23"><defs><style>.cls-1{fill:#fff;stroke-width:0px;}</style></defs><g id="Layer_1-2"><path class="cls-1" d="M247.63,75.67c-.13-4.98-1.86-31.57-2.27-32.69s-1.26-.23-1.35.22c-1.6,7.96-14.95,35.35-18.38,48.48-.74,2.83-1.26,5.73-1.93,8.57-.32,1.37-3.17,6.31-6.97,3.47-1.18-.88-2.19-2.38-2.52-3.74-1.12-4.63.96-8.84.62-14.12-.41-6.44-.7-12.95-.74-19.47-.04-7.65-2.18-15.01-4.38-22.22-1.71-5.6-2.52-11.41-4.36-17.05-1.52-4.64,1.24-12.39,7.34-12.61,6.44-.24,11.02,7.69,10.71,13-.31,5.28-.82,41.45.7,41.77s6.62-14.41,9.23-19.52c2.62-5.13,9.52-24.08,10.11-26.13.78-2.68,2.32-3.42,5.49-3.05,2.2.25,3.66,2.44,4.27,7.57.97,8.22,2.43,37.01,2.62,44.75.02.67.33,1.34.5,2.01.48-.38,1.17-.66,1.4-1.17,3.81-8.72,15.51-36.32,17.9-40.33,2.16-3.62,9.11-23.37,8.41-27.3-.42-2.37.68-5.99,2.66-6.1,1.87-.1,3.94.72,5.02,2.46,1.74,2.79,1.62,5.92-1.28,11.33-2.27,4.22-6.65,18.34-8.13,22.52-1.45,4.08-11.22,26.07-14.07,32.99-2.05,4.96-5.29,13.01-8.01,20.63-2.63,7.37-2.88,13.97-6.84,14.41-2.49.27-5.06-2.93-5.15-5.85-.24-7.55-.4-15.15-.6-22.82Z"/><path class="cls-1" d="M156,83.93c-.76-6.13-3.35-23.06-8.12-34.2-.87-2.03-1.69-4.16-1.97-6.43-.28-2.27.77-5.13,3.52-5.58,2.75-.46,6.79,3.35,7.51,7.63,1.41,8.4,3.36,13.84,4.48,23.92.5,4.51,1.94,2.23,2.35,1.49.86-1.53,3.21-7.54,4.68-11.4.73-1.92,5.42-14.51,6.87-18.94,1.38-4.23,4.06-7.84,4.21-12.77.07-2.35,4.26-3.61,6.45-2.42,2.36,1.28,4.77,5.41,3.68,7.85-2.07,4.65-4.59,29.55-8.09,47.83-3.65,19.08-9.42,63.14-10.1,66.02-.46,1.93-1.9,2.38-4.01,2.29-2.34-.1-4.42-2.8-3.87-5.36,1.8-8.52,3.35-17.16,4.78-25.93,1.17-7.16,8.6-55.32,7.37-55.42-.69-.06-6.58,17.23-8.08,21.75s-3.78,9.89-5.49,10.1c-6.06.73-5.41-4.33-6.17-10.43Z"/><path class="cls-1" d="M52.15,78.63c.33,8.4,1.82,24.1,1.75,25.74-.13,2.58-1.47,4.75-3.97,4.38-2.5-.37-3.38-1.97-3.81-4.88-.67-4.51-1.19-9.04-1.82-13.59-.14-1.03-.21-1.78-1.61-.92-3.31,2.04-16,11.11-19.34,13.32-1.4.92-12.18,10.54-14.24,12.05-4.78,3.54-8.59-1.21-8.91-3.88-.26-2.16-.33-4.11.4-6.24,1.73-5.09,1.62-10.48,1.67-16.16.05-5.73,2.9-49.66,2.75-52.57-.24-4.75-1.38-8.35-2.19-13.26-.44-2.65,1.35-7.08,4.47-7.08s4.08,2.09,4.77,3.35c2.07,3.76,1.93,6.45,1.88,14.06-.06,9.38-1.34,37.29-1.51,43.09-.17,5.59-3.48,19.41-.95,21.23.11.08,1.09.47,1.35.29,7.63-5.39,25.16-16.04,25.9-16.52,5.37-3.5,5.27-3.5,4.55-10.12-.43-3.96-1.72-15.11-2.19-18.28-.43-2.93-2.06-11.48,3.36-11.71,2.58.36,4.89,2.86,5.29,4.82,2.51,12.27,2.08,24.36,2.42,32.88Z"/><path class="cls-1" d="M289.92,102.55c.6-1.33,4.6-7.89,9.62-14.9,4.83-6.74,10.64-13.87,13.76-18.28,1.12-1.58,2.94-3.35,1.24-3.42-1.86-.08-6.42.59-9.72-1.86s-2.21-11.11,2.16-11.03c8.38.16,14.52-2.84,21.67-6.84,2.08-1.17,5.59-1.86,7.48.22,3.38,3.72.8,7.64-1.36,10.6-5.97,8.21-12.04,14.72-18.07,22.71-3.86,5.12-12.55,17.35-12.45,17.4.35.2,1.74-.65,2.08-.79,9.27-3.76,17.56-6.73,26.82-10.54,3.67-1.51,9.06-4.08,12.93-5.24,2.41-.72,4.34.36,5.23,2.88.92,2.61-1.29,6.15-4.09,7.18-5.45,2-24.17,7.92-49.96,21.81-6.19,4.73-10.16-3.68-7.35-9.89Z"/><path class="cls-1" d="M152.35,98.77c.43,2.51.45,3.65-1.68,4.81-12.74,5.85-22.54,14.47-34.59,23.04-1.77,1.35-4.41,1.97-6.47.19-3.12-2.69-1.9-6.39-1.44-7.36,2.24-4.75,4.22-9.62,4.67-15.14.68-8.23,3.51-15.88,4.58-24.18.79-6.17,1.97-12.38,3.1-18.59.13-.68.32-1.36.54-2.01,3.1-9.12-2.62-4.45-4.21-3.93-2.94.96-6.31,3.01-9.35,3.55-3.81.67-6.79-2.75-8.43-6.97-.64-1.65-.1-4.05,2.41-5.25s6.66-.07,7.64,0c4.14.11,7.6-1.76,10.59-3.78,2.82-1.9,5.71-3.1,8.27-3.2s4.28,1.01,4.79,3.71c.7,3.65-1.4,7.57-2.16,10.78-2.63,11.08-10.44,51.17-10.8,53.61-.6,4.04,1.22,2.24,2.26,1.69,6.5-3.23,21.37-12.4,25.58-15.47,1.96-1.43,4.62,3.49,4.69,4.48Z"/><path class="cls-1" d="M83.66,41.89c6.03-.02,8.28,3.91,6.56,9.01-2.51,7.45-5.17,14.78-7.96,21.99-2.29,5.93-8.04,20.39-8.49,21.34-.52,1.12-1.52,3.98-.06,4.86.85.51,3.49-1.8,4.41-2.24,3.5-1.68,7.2-3.28,10.67-5.04,4.81-2.44,11.81-6.62,14.58-6.53s5.49,7.79,3.52,10.04c-.39.44-1.16.7-1.79.69-3.53-.05-6.27.96-9.1,2.49-4.92,2.64-10.51,5.65-15.15,8.84-3.65,2.51-7,3.6-11.19,5.24-2.64,1.04-5.53.67-7.55-1.85s-1-4.41-.27-6.34c2.03-5.36,3.41-11.06,5.52-16.47,2.12-5.43,4.14-10.95,6.05-16.54,1.4-4.09,2.6-8.3,3.68-12.56.12-.46,1.59-3.75-2.32-1.94-5.61,2.6-10.88-3.56-9.15-9.45.57-1.95,8.4-2.69,11.3-3.42,2.66-.66,5.45-1.78,6.75-2.1Z"/><path class="cls-1" d="M284.24,55.12c.25-3.89,2.32-4.71,3.45-4.93,2.33-.47,4.78.4,5.73,3.66.8,2.35.24,6.95-1.55,15.95-2.44,12.26-4.69,41.47-7.75,44-1.21,1-3.17.83-4.9-.62-3.92-3.27.49-16.58,2.24-30.97,1.74-14.26,2.7-25.81,2.78-27.08Z"/><path class="cls-1" d="M48.47,19.67c-1.75,0-3.82.83-3.36,4.36.58,4.54,3.12,6.21,4.87,6.13,1.75-.08,3.56-3.7,3.26-6.36s-3.02-4.14-4.77-4.13Z"/><path class="cls-1" d="M292.91,25.51c-3.52.02-5.02,2.36-5,5.2.02,4.38,1.76,7.65,5.27,7.62,3.1-.02,4.88-4.14,4.88-6.42s-1.63-6.42-5.15-6.41Z"/><path class="cls-1" d="M399.04,85.77c-1.06-1.81-2.57-1.65-2.98-1.27-.62.58-7.35,5.76-15.57,11.13-12.13,7.91-27.5,17.04-31.23,19.06-.4.21-.91.15-1.37.22,0-.46-.17-1.03.02-1.37,2.52-4.62,10.79-19.53,19.52-38.58,3.67-7.51,7.47-14.98,10.52-22.96.75-1.96,1.08-3.7,1.11-5.55.06-3.66-4.5-4.19-6.64-3.34-1.58.63-4.19,2.81-7.72,4.95-5.55,3.37-10.63,6.49-14.24,5.23-2.26-.79-4.68,2.2-4.71,3.86-.02,1.47,1.43,4.55,2.68,5.51,3.46,3.76,7.65-.22,11.86-2.25,2.49-1.2,3.97-2.13,5.21-2.58.93-.34.74.71.59,1.02-9.37,23.48-27.05,57.24-30.28,63.1-1.57,2.85-1.28,5.38-1.15,7.89.18,3.62,5.16,5.32,7.82,2.94,10.27-9.21,21.87-16.31,32.95-24.47,7.43-5.47,16.14-10.47,22.98-17.09.83-.81,1.68-3.64.62-5.45Z"/><path class="cls-1" d="M426.04,20.28c-1.91.14-5.26,1.96-6.47,8.24-1.38,7.12-10.22,26.76-12.24,34.07-1.43,5.15-1.15,3.16-1.31.62-.19-3.08-1.15-7.73-1.44-13.05-.48-8.72-1.45-14.71-2.63-16.06-1.36-1.55-3.47-2.7-5.26-1.36-2.57,1.93-3.31,4.86-2.53,7.24,2.66,8.11,4.68,39.42,5.35,42.98.33,1.74.96,3.73,2.39,5.18s2.71,1.08,3.42.53c2.27-1.79,1.97.44,1.6,2.57-.95,5.42-6.13,33.64-6.41,34.46-.91,2.64.15,6.44,2.68,6.51,4.11.11,5.13-4.35,5.23-5.58,1.18-14.73,7.55-46.83,8.58-51.65,1.84-8.54,3.01-13.17,5.03-22.21,2.28-10.18,5.54-20.3,6.93-26.83.79-3.72-1.09-5.79-2.91-5.66Z"/></g></svg>