<?xml version="1.0" encoding="UTF-8"?><svg id="Layer_2" xmlns="http://www.w3.org/2000/svg" viewBox="0 0 465.11 132.84"><defs><style>.cls-1{fill:#fff;stroke-width:0px;}</style></defs><g id="Layer_1-2"><path class="cls-1" d="M14.76,132.84c-1.68,0-3.39-.51-5.13-1.53-1.74-1.02-3.33-2.31-4.77-3.87-1.44-1.56-2.61-3.27-3.51-5.13-.9-1.86-1.35-3.63-1.35-5.31V0h15.48v117.54h6.3v-13.14h15.3v28.44H14.76Z"/><path class="cls-1" d="M76.5,132.84c-1.44,0-2.97-.48-4.59-1.44-1.62-.96-3.12-2.16-4.5-3.6-1.38-1.44-2.49-3.03-3.33-4.77-.84-1.74-1.26-3.39-1.26-4.95V15.84c0-1.68.45-3.45,1.35-5.31.9-1.86,2.07-3.57,3.51-5.13,1.44-1.56,3.03-2.85,4.77-3.87,1.74-1.02,3.45-1.53,5.13-1.53h7.74c1.56,0,3.21.51,4.95,1.53,1.74,1.02,3.33,2.31,4.77,3.87,1.44,1.56,2.61,3.27,3.51,5.13.9,1.86,1.35,3.63,1.35,5.31v102.24c0,1.56-.42,3.21-1.26,4.95-.84,1.74-1.92,3.33-3.24,4.77-1.32,1.44-2.79,2.64-4.41,3.6-1.62.96-3.21,1.44-4.77,1.44h-9.72ZM78.3,117.36h6.3V15.3h-6.3v102.06Z"/><path class="cls-1" d="M158.4,132.84h-23.94L123.3,0h15.48l7.56,87.48L153.72,0h15.66l-10.98,132.84Z"/><path class="cls-1" d="M229.68,0v43.02h-15.3V15.3h-6.3v43.2h9.72v15.66h-9.72v43.2h6.3v-27.9h15.3v43.38h-23.4c-1.44,0-2.97-.48-4.59-1.44-1.62-.96-3.12-2.16-4.5-3.6-1.38-1.44-2.49-3.03-3.33-4.77-.84-1.74-1.26-3.39-1.26-4.95V15.84c0-1.68.45-3.45,1.35-5.31.9-1.86,2.07-3.57,3.51-5.13,1.44-1.56,3.03-2.85,4.77-3.87,1.74-1.02,3.45-1.53,5.13-1.53h22.32Z"/><path class="cls-1" d="M317.87,58.5h6.3V0h15.3v132.84h-15.3v-58.68h-6.3v58.68h-15.48V0h15.48v58.5Z"/><path class="cls-1" d="M402.29,132.84h-23.4c-1.44,0-2.97-.48-4.59-1.44-1.62-.96-3.12-2.16-4.5-3.6-1.38-1.44-2.49-3.03-3.33-4.77-.84-1.74-1.26-3.39-1.26-4.95V0h15.48v117.36h6.3V0h15.3v132.84Z"/><path class="cls-1" d="M428.03,0h22.5c1.56,0,3.21.51,4.95,1.53,1.74,1.02,3.33,2.31,4.77,3.87,1.44,1.56,2.61,3.27,3.51,5.13.9,1.86,1.35,3.63,1.35,5.31v43.2c0,1.2-.33,2.43-.99,3.69-.66,1.26-1.41,2.49-2.25,3.69.84,1.32,1.59,2.61,2.25,3.87.66,1.26.99,2.43.99,3.51v43.2c0,1.68-.45,3.45-1.35,5.31-.9,1.86-2.07,3.57-3.51,5.13-1.44,1.56-3.03,2.85-4.77,3.87-1.74,1.02-3.39,1.53-4.95,1.53h-22.5V0ZM443.51,58.5h6.3V15.3h-6.3v43.2ZM443.51,117.54h6.3v-43.38h-6.3v43.38Z"/></g></svg>