<?xml version="1.0" encoding="UTF-8"?><svg id="Layer_2" xmlns="http://www.w3.org/2000/svg" viewBox="0 0 507.56 67.95"><defs><style>.cls-1{fill:#fff;stroke-width:0px;}</style></defs><g id="Layer_1-2"><polygon class="cls-1" points="59.39 15.13 59.39 0 36.82 0 0 67.95 23.04 67.95 40.02 36.99 40.02 50.86 30.76 67.95 53.81 67.95 70.79 36.99 70.79 67.95 90.16 67.95 90.16 0 67.59 0 59.39 15.13"/><polygon class="cls-1" points="175.92 42.17 191.72 42.17 191.72 25.78 175.92 25.78 175.92 16.39 188.04 16.39 175.92 0 156.55 0 156.55 67.95 194.1 67.95 194.1 51.55 175.92 51.55 175.92 42.17"/><path class="cls-1" d="M106.84,43.36h-13.71v16.39h4.57l-4.57,8.2h24.11l4.1-8.2h12.88v8.2h19.37V0h-22.57l-24.18,43.36ZM134.22,43.36h-4.69l4.69-9.38v9.38Z"/><polygon class="cls-1" points="484.52 67.95 507.56 67.95 470.74 0 448.17 0 448.17 15.13 439.98 0 417.41 0 417.41 67.95 436.78 67.95 436.78 36.99 453.76 67.95 476.8 67.95 467.54 50.86 467.54 36.99 484.52 67.95"/><polygon class="cls-1" points="245.6 25.78 245.6 25.78 252.38 16.39 263.11 16.39 263.14 16.39 263.14 16.35 275.22 0 243.77 0 243.74 0 243.74 .04 231.65 16.39 231.65 42.17 261.27 42.17 254.5 51.55 238.34 51.55 226.23 67.95 263.11 67.95 275.22 51.55 275.22 25.78 275.22 25.78 245.6 25.78"/><polygon class="cls-1" points="279.2 0 267.09 16.39 282.83 16.39 282.83 67.95 302.2 67.95 302.2 16.39 310.74 16.39 310.74 0 279.2 0"/><polygon class="cls-1" points="216.43 51.55 216.43 0 197.06 0 197.06 67.95 197.06 67.95 197.06 67.95 222.27 67.95 234.38 51.55 216.43 51.55"/><path class="cls-1" d="M356.65,26.82V6L352.02,0h-38.31v67.94h19.37v-27.74l14.48,27.74h21.97l-19.07-33.97,6.18-7.16ZM342.68,18.43l-2.88,3.22h-.88l-4.82-6.71h7.42l1.16,1.46v2.04Z"/><path class="cls-1" d="M372.75,0l-3.21,5.49v56.96l3.21,5.49h38.49l3.21-5.49V5.5L411.23,0h-38.49ZM397.72,51.56h-11.47V16.39h11.47v35.17Z"/></g></svg>