<?xml version="1.0" encoding="UTF-8"?><svg id="Layer_2" xmlns="http://www.w3.org/2000/svg" viewBox="0 0 291 161.75"><defs><style>.cls-1{fill:#fff;}</style></defs><g id="Layer_1-2"><path class="cls-1" d="M280.7,113.14c3.95-1.35,6.79-5.1,6.79-9.51v-16.75h-44.34s0,35.36,0,35.36h9.13v-27.25h26.08v7.73c0,1.59-1.29,2.87-2.87,2.87h-9.37l-7.81,8.11h9.22l9.68,8.55h13.8l-10.3-9.09Z"/><rect class="cls-1" x="213.02" y="86.87" width="9.13" height="35.36"/><polygon class="cls-1" points="177.78 103.82 156.48 103.82 156.48 86.87 147.34 86.87 147.34 122.23 156.48 122.23 156.48 111.93 177.78 111.93 177.78 122.23 186.92 122.23 186.92 86.87 177.78 86.87 177.78 103.82"/><polygon class="cls-1" points="43.71 86.87 28.71 106.96 13.72 86.87 0 86.87 0 122.23 9.13 122.23 9.13 97.26 10.08 97.26 28.13 121.45 29.29 121.45 47.35 97.26 48.3 97.26 48.3 122.23 57.43 122.23 57.43 86.87 43.71 86.87"/><polygon class="cls-1" points="96.89 86.87 77.1 122.23 87.56 122.23 102.77 95.08 117.97 122.23 128.44 122.23 108.64 86.87 96.89 86.87"/><polygon class="cls-1" points="151 0 145.03 1.76 139.06 0 132.04 20.37 145.03 54.27 158.03 20.37 151 0"/><polygon class="cls-1" points="82.95 56.11 84.71 62.08 137.22 62.08 103.32 49.08 82.95 56.11"/><polygon class="cls-1" points="186.74 49.08 152.85 62.08 205.36 62.08 207.11 56.11 186.74 49.08"/><polygon class="cls-1" points="105.36 13.96 102.38 19.42 96.91 22.41 106.35 41.78 139.51 56.55 124.73 23.4 105.36 13.96"/><polygon class="cls-1" points="193.15 22.41 187.69 19.42 184.71 13.96 165.34 23.4 150.56 56.55 183.71 41.78 193.15 22.41"/><path class="cls-1" d="M87.49,161.57v-16.61h1.66c.2,0,.35.02.46.05.11.04.21.14.32.32l5.74,10.22c.11.2.2.39.28.59.08.2.16.4.23.62.07-.21.15-.42.24-.62.09-.2.19-.39.3-.59l5.63-10.22c.09-.18.19-.29.3-.32.11-.04.27-.05.48-.05h1.64v16.61h-1.96v-12.21c0-.16,0-.33.01-.52,0-.19.02-.38.04-.58l-5.71,10.41c-.2.34-.46.51-.8.51h-.32c-.34,0-.61-.17-.8-.51l-5.82-10.44c.02.2.03.39.04.59s.01.38.01.54v12.21h-1.96Z"/><path class="cls-1" d="M112.05,153.28c0-1.25.2-2.4.59-3.43s.95-1.93,1.66-2.68c.71-.75,1.57-1.34,2.58-1.76s2.12-.63,3.35-.63,2.33.21,3.34.63,1.87,1.01,2.59,1.76c.72.75,1.27,1.65,1.66,2.68.39,1.04.59,2.18.59,3.43s-.2,2.37-.59,3.41c-.39,1.04-.95,1.93-1.66,2.68-.71.75-1.58,1.33-2.59,1.74s-2.12.62-3.34.62-2.35-.21-3.35-.62-1.86-.99-2.58-1.74c-.72-.75-1.27-1.65-1.66-2.68s-.59-2.17-.59-3.41ZM114.33,153.28c0,1.02.14,1.93.43,2.74s.68,1.48,1.19,2.04,1.13.98,1.85,1.29c.72.3,1.53.46,2.43.46s1.7-.15,2.43-.46c.72-.3,1.34-.73,1.85-1.29s.9-1.23,1.18-2.04c.28-.8.42-1.72.42-2.74s-.14-1.94-.42-2.75c-.28-.81-.67-1.5-1.18-2.07s-1.13-.99-1.85-1.29-1.53-.44-2.43-.44-1.7.15-2.43.44-1.34.72-1.85,1.29-.91,1.25-1.19,2.07c-.29.81-.43,1.73-.43,2.75Z"/><path class="cls-1" d="M133.96,146.84v-1.88h13.01v1.88h-5.37v14.73h-2.25v-14.73h-5.39Z"/><path class="cls-1" d="M152.56,153.28c0-1.25.2-2.4.59-3.43s.95-1.93,1.66-2.68c.71-.75,1.57-1.34,2.58-1.76s2.12-.63,3.35-.63,2.33.21,3.34.63,1.87,1.01,2.59,1.76c.72.75,1.27,1.65,1.66,2.68.39,1.04.59,2.18.59,3.43s-.2,2.37-.59,3.41c-.39,1.04-.95,1.93-1.66,2.68-.71.75-1.58,1.33-2.59,1.74s-2.12.62-3.34.62-2.35-.21-3.35-.62-1.86-.99-2.58-1.74c-.72-.75-1.27-1.65-1.66-2.68s-.59-2.17-.59-3.41ZM154.84,153.28c0,1.02.14,1.93.43,2.74s.68,1.48,1.19,2.04,1.13.98,1.85,1.29c.72.3,1.53.46,2.43.46s1.7-.15,2.43-.46c.72-.3,1.34-.73,1.85-1.29s.9-1.23,1.18-2.04c.28-.8.42-1.72.42-2.74s-.14-1.94-.42-2.75c-.28-.81-.67-1.5-1.18-2.07s-1.13-.99-1.85-1.29-1.53-.44-2.43-.44-1.7.15-2.43.44-1.34.72-1.85,1.29-.91,1.25-1.19,2.07c-.29.81-.43,1.73-.43,2.75Z"/><path class="cls-1" d="M176.4,161.57v-16.61h4.7c1.04,0,1.94.11,2.71.32.77.21,1.4.52,1.9.91.5.39.87.88,1.11,1.45.24.57.36,1.21.36,1.91,0,.59-.09,1.14-.28,1.65s-.46.97-.8,1.38c-.35.41-.78.76-1.29,1.03s-1.09.5-1.73.66c.29.16.54.39.75.7l4.83,6.6h-1.99c-.41,0-.71-.16-.91-.48l-4.3-5.93c-.14-.18-.29-.31-.45-.39-.15-.08-.38-.12-.69-.12h-1.73v6.92h-2.2ZM178.6,153.01h2.37c.66,0,1.24-.08,1.74-.24.49-.16.91-.39,1.25-.68.34-.29.6-.64.77-1.03.17-.39.26-.84.26-1.34,0-.98-.33-1.73-.98-2.23-.66-.5-1.63-.75-2.92-.75h-2.48v6.28Z"/><path class="cls-1" d="M193.91,159.58l.64-1.05c.07-.09.15-.17.23-.23.08-.06.18-.09.31-.09.16,0,.34.09.55.26.21.18.46.37.78.57.31.2.69.39,1.14.57.45.18.98.26,1.61.26.54,0,1.01-.08,1.44-.23.42-.15.77-.36,1.06-.63.29-.27.51-.58.67-.95s.24-.78.24-1.25c0-.5-.12-.91-.35-1.23s-.53-.59-.9-.8c-.37-.21-.79-.4-1.26-.55-.47-.15-.96-.31-1.46-.47-.5-.16-.99-.34-1.46-.55-.47-.21-.9-.47-1.28-.8-.38-.33-.67-.75-.9-1.25s-.33-1.12-.33-1.85c0-.59.11-1.16.33-1.7s.55-1.03.99-1.45c.44-.42.97-.76,1.61-1.02s1.36-.39,2.19-.39c.93,0,1.78.15,2.55.44.77.3,1.44.72,2.01,1.27l-.56,1.07c-.05.11-.12.19-.2.25-.08.06-.18.09-.31.09s-.28-.07-.46-.2c-.18-.13-.4-.28-.67-.44s-.59-.3-.97-.43-.82-.19-1.34-.19-.97.07-1.35.2c-.38.13-.71.31-.97.54-.26.22-.45.49-.58.8-.12.31-.19.66-.19,1.03,0,.45.11.83.33,1.14.22.31.52.58.9.79.38.21.8.4,1.27.56.47.16.96.33,1.46.5.5.17.99.36,1.46.56.47.21.9.47,1.27.8.38.33.68.73.91,1.19.23.47.35,1.05.35,1.74,0,.73-.12,1.42-.38,2.05-.25.63-.61,1.19-1.09,1.66-.47.47-1.06.84-1.76,1.11-.7.27-1.49.4-2.36.4-1.07,0-2.05-.2-2.94-.59-.88-.39-1.64-.92-2.27-1.58Z"/></g></svg>