<?xml version="1.0" encoding="UTF-8"?><svg id="Layer_2" xmlns="http://www.w3.org/2000/svg" viewBox="0 0 299.42 144.67"><defs><style>.cls-1{fill:#fff;}</style></defs><g id="Layer_1-2"><polygon class="cls-1" points="140.77 112.16 123.94 129 123.94 112.17 112.78 112.17 112.78 144.67 123.94 144.67 123.94 129.01 139.61 144.66 155.4 144.66 139.74 129 156.57 112.16 140.77 112.16"/><polygon class="cls-1" points="39.33 112.16 25.77 125.73 12.21 112.17 0 112.17 0 144.67 11.17 144.67 11.17 125.61 26.43 140.86 42.08 125.2 42.08 144.67 53.25 144.67 53.25 112.17 39.33 112.16"/><rect class="cls-1" x="161.03" y="112.17" width="11.17" height="32.5"/><path class="cls-1" d="M180.25,117.32v27.35h0s46.94,0,46.94,0v-18.75h-11.17v9.81h-24.61v-14.61h35.78v-8.94h-41.79c-2.85,0-5.15,2.31-5.15,5.15Z"/><polygon class="cls-1" points="89.99 112.16 76.27 112.16 70.52 121.11 82.47 121.11 86.2 126.91 66.79 126.91 55.39 144.66 68.66 144.66 74.31 135.86 91.95 135.86 97.6 144.66 110.88 144.66 89.99 112.16"/><polygon class="cls-1" points="264.58 112.16 250.86 112.16 245.11 121.11 257.06 121.11 260.79 126.91 241.38 126.91 229.98 144.66 243.25 144.66 248.9 135.86 266.54 135.86 272.19 144.66 285.47 144.66 264.58 112.16"/><rect class="cls-1" x="288.25" y="112.17" width="11.17" height="32.5"/><path class="cls-1" d="M183.41,0h-18.03c-1.36,0-2.22,1.45-1.58,2.65l43.87,81.89c.31.58.92.95,1.58.95h18.06c1.36,0,2.23-1.45,1.58-2.65L184.99.95c-.31-.58-.92-.95-1.58-.95Z"/><path class="cls-1" d="M149.02,0h-21.6c-.66,0-1.27.36-1.58.95l-43.9,81.89c-.64,1.2.23,2.65,1.58,2.65h18.06c.66,0,1.27-.36,1.58-.95l33.47-62.46c.68-1.26,2.49-1.26,3.17,0l22.11,41.27c.64,1.2-.23,2.65-1.58,2.65h-10.7c-1.36,0-2.23-1.45-1.58-2.65l2.1-3.9c.29-.53.29-1.17,0-1.7l-9.02-16.85c-.68-1.26-2.49-1.26-3.17,0l-22.55,41.94c-.64,1.2.22,2.65,1.58,2.65h75.92c1.36,0,2.22-1.45,1.58-2.65L150.61.95c-.31-.58-.92-.95-1.58-.95Z"/></g></svg>