<?xml version="1.0" encoding="UTF-8"?><svg id="Layer_2" xmlns="http://www.w3.org/2000/svg" viewBox="0 0 633.33 63.01"><defs><style>.cls-1{fill:#fff;}</style></defs><g id="Layer_1-2"><circle class="cls-1" cx="15.59" cy="16.04" r="15.59"/><circle class="cls-1" cx="46.78" cy="16.04" r="15.59"/><circle class="cls-1" cx="77.96" cy="16.04" r="15.59"/><circle class="cls-1" cx="109.14" cy="16.04" r="15.59"/><circle class="cls-1" cx="46.78" cy="47.22" r="15.59"/><circle class="cls-1" cx="77.96" cy="47.22" r="15.59"/><circle class="cls-1" cx="109.14" cy="47.22" r="15.59"/><polygon class="cls-1" points="176.48 0 173.75 2.42 168.9 2.42 166.18 0 142.41 0 134.97 6.55 134.97 63.01 149.51 63.01 149.51 18.17 153.14 14.54 160.43 14.54 164.06 18.17 164.06 63.01 178.6 63.01 178.6 18.17 182.22 14.54 189.51 14.54 193.14 18.17 193.14 63.01 207.68 63.01 207.68 6.55 200.25 0 176.48 0"/><path class="cls-1" d="M219.96,0l-7.43,6.55v56.46h14.54v-3.25l23.8-20.7h5.28v23.95h14.54V6.55l-7.43-6.55h-43.3ZM256.15,19.93l-24.11,20.97h-4.98v-24.22l2.42-2.13h26.66v5.39Z"/><path class="cls-1" d="M491.39,0l-7.43,6.55v56.46h14.54v-3.25l23.8-20.7h5.28v23.95h14.54V6.55l-7.43-6.55h-43.3ZM527.58,19.93l-24.11,20.97h-4.98v-24.22l2.42-2.13h26.66v5.39Z"/><polygon class="cls-1" points="290.08 0 275.54 0 275.54 63.01 333.7 63.01 333.7 48.47 290.08 48.47 290.08 0"/><path class="cls-1" d="M345.98,0l-7.43,6.55v49.91l7.43,6.55h43.3l7.43-6.55V6.55l-7.43-6.55h-43.3ZM382.17,46.05l-2.42,2.42h-24.24l-2.42-2.42v-29.08l2.42-2.42h24.24l2.42,2.42v29.08Z"/><path class="cls-1" d="M408.99,0l-7.43,6.55v56.46h14.54v-20.62l4.11-3.62h20.87l4.11,3.62v20.62h14.54v-25.91l-2.42-3.17v-4.85l2.42-3.17V6.55l-7.43-6.55h-43.3ZM445.18,21.67l-2.91,2.57h-26.17v-9.69h26.17l2.91,2.57v4.56Z"/><rect class="cls-1" x="464.57" width="14.54" height="63.01"/><polygon class="cls-1" points="597.7 0 554.4 0 546.97 6.55 546.97 63.01 561.51 63.01 561.51 14.54 588.17 14.54 590.59 16.96 590.59 63.01 605.13 63.01 605.13 6.55 597.7 0"/><path class="cls-1" d="M621.7,23.89c-6.42,0-11.64-5.22-11.64-11.64s5.22-11.64,11.64-11.64,11.64,5.22,11.64,11.64-5.22,11.64-11.64,11.64ZM621.7,3.27c-4.95,0-8.98,4.03-8.98,8.98s4.03,8.98,8.98,8.98,8.98-4.03,8.98-8.98-4.03-8.98-8.98-8.98Z"/><polygon class="cls-1" points="622.06 6.6 616.96 6.6 616.96 8 618.89 8 618.89 13.77 620.13 13.77 620.13 8 622.06 8 622.06 6.6"/><polygon class="cls-1" points="623.46 16.51 623.46 10.9 622.22 10.9 622.22 16.51 622.22 17.91 623.46 17.91 626.43 17.91 626.43 16.51 623.46 16.51"/></g></svg>