<?xml version="1.0" encoding="UTF-8"?><svg id="Layer_2" xmlns="http://www.w3.org/2000/svg" viewBox="0 0 594.63 83.59"><defs><style>.cls-1{fill:#fff;fill-rule:evenodd;stroke-width:0px;}</style></defs><g id="Layer_1-2"><polygon class="cls-1" points="344.28 1.02 316.84 1.02 261.71 56.15 261.71 83.59 289.14 83.59 303 69.74 316.85 83.59 344.28 83.59 344.28 56.15 330.43 42.3 344.28 28.46 344.28 1.02"/><polygon class="cls-1" points="299.62 14.87 301.31 13.17 289.15 1.02 261.71 1.02 261.71 28.46 273.86 40.61 299.62 14.87"/><polygon class="cls-1" points="131.27 28.4 108.17 1.02 108.17 1.02 108.12 1.02 108.12 1.02 77.33 37.51 46.56 1.02 46.56 1.02 46.51 1.02 46.5 1.02 0 56.15 0 83.59 23.14 83.59 46.53 55.86 69.92 83.59 84.75 83.59 108.14 55.86 108.14 55.86 131.53 83.59 154.67 83.59 154.67 56.15 131.27 28.4 131.27 28.4"/><polygon class="cls-1" points="213.07 1.02 203.31 1.02 156.81 56.15 156.81 83.59 179.95 83.59 208.19 50.11 236.44 83.59 259.57 83.59 259.57 56.15 213.07 1.02"/><polygon class="cls-1" points="183.07 83.59 233.31 83.59 208.19 53.81 183.07 83.59"/><polygon class="cls-1" points="434.21 7.19 434.21 .98 357.32 .98 357.32 7.19 392.66 7.19 392.66 83.59 398.86 83.59 398.86 7.19 434.21 7.19"/><path class="cls-1" d="M474.81.99h-6.77l-39.67,82.58h6.88l12.34-25.63h47.67l12.28,25.63h6.88L474.81.99ZM450.54,51.77l20.85-43.43,20.87,43.43h0s-41.72,0-41.72,0h0Z"/><path class="cls-1" d="M557.82,77.78c-19.88,0-35.99-16.11-35.99-35.99s16.11-35.99,35.99-35.99c12.56,0,23.61,6.44,30.04,16.2h6.77c-7.06-13.1-20.89-22.01-36.81-22.01-23.08,0-41.79,18.71-41.79,41.79s18.71,41.79,41.79,41.79c15.92,0,29.76-8.91,36.81-22.01h-6.77c-6.44,9.75-17.48,16.2-30.04,16.2Z"/></g></svg>