<?xml version="1.0" encoding="UTF-8"?><svg id="Layer_2" xmlns="http://www.w3.org/2000/svg" viewBox="0 0 313.41 393.27"><defs><style>.cls-1{fill:#eeeee9;}.cls-1,.cls-2,.cls-3{stroke-width:0px;}.cls-2{fill:#000;}.cls-4{letter-spacing:-.02em;}.cls-5{letter-spacing:0em;}.cls-6{font-family:Reross-Quadratic, Reross;font-size:72px;}.cls-6,.cls-3{fill:#fff;}</style></defs><g id="Layer_1-2"><path class="cls-3" d="M13.13,148.54C13.06,68.22,76.59-.07,161.4,0c83.64.06,147.69,66.53,148.16,148.24.47,81.72-66.73,148.78-148.36,148.66-81.68-.12-148-66.57-148.08-148.35ZM161.57,277.05c71.03,0,128.45-57.35,128.47-128.28.01-71.85-57.33-129.14-129.26-129.15-70.41,0-128.27,57.8-128.33,128.19-.07,74.54,61.51,130.59,129.13,129.24Z"/><path class="cls-2" d="M161.57,277.05c-67.61,1.35-129.2-54.69-129.13-129.24.07-70.39,57.93-128.2,128.33-128.19,71.94,0,129.28,57.3,129.26,129.15-.01,70.93-57.44,128.27-128.47,128.28ZM271.89,148.54c.07-60.69-49.42-110.83-109.45-110.9-62.09-.07-111.49,48.91-111.58,110.64-.09,61.78,49.11,110.74,111.31,110.79,60.22.05,109.65-49.75,109.71-110.53Z"/><path class="cls-3" d="M271.89,148.54c-.07,60.79-49.49,110.58-109.71,110.53-62.21-.05-111.4-49.02-111.31-110.79.09-61.73,49.48-110.72,111.58-110.64,60.03.07,109.52,50.21,109.45,110.9ZM152.14,130.61c5.45-3.92,5.57-5.5.7-9.44-1.04-.84-2.03-1.75-3.16-2.44-2.9-1.79-3.45-3.81-.9-6.36.36-.36.48-.96.71-1.44-.61.08-1.42-.06-1.81.27-2.67,2.26-5.23,4.64-7.87,6.94q-6.83,5.95-2.06,13.33c.81,1.26,1.56,2.57,2.48,3.75,1.72,2.21.89,3.13-1.53,3.7-5.51,1.29-10.95,2.98-16.51,3.93-1.79.31-4.55-.62-5.73-1.97-6.35-7.27-12.42-14.8-18.39-22.39-.99-1.25-1.67-3.32-1.44-4.85,1.05-6.91,2.38-13.78,3.83-20.62.32-1.49,1.16-3.54,2.33-4.08,7.1-3.26,14.36-6.21,21.61-9.12.95-.38,2.23.04,3.36.08-.47,1.04-.82,2.16-1.43,3.11-4.23,6.59-8.33,13.27-12.84,19.66-2.62,3.71-2.74,5.22,2.41,5.27,3.04.03,6.07,1.02,9.1,1.57-2.24,2.35-4.52,4.65-6.7,7.05-2.39,2.64-4.15,2.39-6.95-.05-5.41-4.7-7.24-10.43-6.99-17.22.02-.64-.25-1.29-.39-1.93-.36.19-.83.29-1.06.58-2.83,3.7-3.17,12.44-.35,16.16,2.79,3.68,5.8,7.23,9.01,10.53.74.76,3.17.93,4.08.3,10.57-7.26,21.01-14.71,31.44-22.17.72-.51,1.13-1.46,1.68-2.2-.89-.17-1.8-.55-2.67-.49-6.15.43-12.28,1.05-18.43,1.4-1.85.1-3.74-.45-5.61-.7.92-1.51,1.69-3.15,2.8-4.51,7.87-9.7,15.82-19.34,23.71-29.03.68-.83,1.09-1.89,1.63-2.84-1.1.13-2.26.07-3.3.4-15.37,4.96-30.77,9.85-46.04,15.1-1.88.65-3.84,3.07-4.45,5.07-2.55,8.44-4.77,16.99-6.72,25.59-.45,1.98.01,4.74,1.13,6.42,6.46,9.7,13.12,19.28,20.04,28.65,1.19,1.61,4.04,2.91,6.05,2.81,8.14-.37,16.26-1.43,24.4-1.99,1.23-.08,2.55,1.12,3.83,1.73-.87,1.35-1.44,3.36-2.67,3.92-3.32,1.5-7.07,2.04-10.38,3.57-11.17,5.17-22.02,6.26-32.61-1.41-.67-.49-1.83-.31-2.76-.43.47.77.78,1.78,1.45,2.27,4.55,3.32,9.08,6.7,13.85,9.68,1.65,1.03,4.08,1.63,5.96,1.3,7.54-1.32,14.99-3.16,22.51-4.59,1.44-.27,3.05.39,4.59.63-.91,2.02-1.29,4.94-2.85,5.87-3.53,2.1-7.65,3.2-11.53,4.71-8.6,3.35-17.05,8.69-26.4,1.84-.57-.42-1.72-.05-2.6-.05.44.93.64,2.19,1.37,2.73,2.75,2.03,6.09,3.4,8.41,5.8,2.94,3.03,5.64,2.49,8.98,1.27,7.04-2.57,14.2-4.81,21.24-7.37,2.76-1,4.01-.16,3.38,2.53-.43,1.86-1.34,4.19-2.8,5.12-5.05,3.21-10.46,5.84-15.67,8.81-1.17.66-2.08,1.77-3.11,2.67,1.38-.07,2.85.16,4.12-.24,6.02-1.89,12.09-3.68,17.93-6.03,4.28-1.73,5.58,1.42,7.68,3.61,2.01,2.1,2.97,4.08,1.05,7.01-3.74,5.7-7.32,11.55-10.51,17.57-.83,1.56-.81,4.63.21,5.91,4.56,5.72,9.69,10.99,14.46,16.55,1.92,2.24,3.29,2.06,5.18-.02,4.35-4.82,8.94-9.43,13.26-14.29.69-.78,1.06-2.92.54-3.52-3.6-4.15-7.43-8.1-11.33-11.97-.54-.53-2.54-.65-2.7-.35-2.12,4.08-4.12,8.23-5.89,12.48-.27.64.8,2.64,1.26,2.65,1.89.03,3.79-.48,5.69-.79-.25-.65-.77-1.33-.69-1.94.13-1.07.41-2.27,1.06-3.07.38-.47,2.28-.46,2.31-.34.67,2.46,2.34,5.56,1.45,7.35-1.54,3.09-4.68,5.4-7.26,7.91-.06.05-1.76-1.21-2.31-2.1-2.62-4.25-5.32-8.48-7.51-12.96-.65-1.33-.36-3.93.57-5.1,6.21-7.82,12.61-15.52,19.24-22.99,1.07-1.2,3.84-1.89,5.45-1.44,6.23,1.73,12.28,4.07,18.45,6.04,1.05.33,2.33-.06,3.5-.12-.78-.75-1.47-1.64-2.37-2.22-1.24-.8-2.67-1.31-3.96-2.05-4.42-2.5-9.05-4.73-13.08-7.75-1.32-.99-1.07-4.09-1.53-6.23,1.62-.04,3.33-.44,4.83-.03,3.2.87,6.31,2.11,9.43,3.27q15.67,5.78,28.78-4.58c.13-.1.3-.18.39-.3.77-1.06,1.53-2.14,2.29-3.21-1.37.33-2.77.57-4.11,1.02-4.34,1.46-9.15,5.02-12.88,4.1-9.3-2.29-18.17-6.44-27.02-10.29-1.16-.51-1.19-3.62-1.74-5.53,1.42-.21,2.91-.81,4.24-.55,7.35,1.41,14.66,3.11,22.01,4.53,1.71.33,4.01.63,5.27-.2,5.54-3.69,10.81-7.78,16.12-11.8.58-.44.81-1.35,1.2-2.04-.79.05-1.71-.13-2.36.19-4.44,2.22-8.78,4.65-13.25,6.8-1.3.63-3.09,1.16-4.37.78-8.61-2.58-17.19-5.3-25.66-8.31-1.4-.5-2.22-2.64-3.31-4.02,1.4-.67,2.85-1.99,4.2-1.91,7.81.51,15.58,1.64,23.39,1.9,2.29.08,5.49-1.39,6.84-3.21,6.86-9.21,13.37-18.7,19.71-28.28,1.12-1.69,1.56-4.44,1.11-6.43-1.99-8.76-4.26-17.47-6.84-26.08-.55-1.84-2.53-4-4.32-4.61-14.49-4.95-29.09-9.59-43.67-14.27-1.67-.54-3.47-.7-5.21-1.04.97,1.64,1.76,3.43,2.95,4.89,7.55,9.32,15.21,18.55,22.78,27.86.89,1.1,1.47,2.45,2.2,3.69-1.38.22-2.77.71-4.13.62-6.65-.41-13.28-1.01-19.93-1.47-1.09-.08-2.2.16-3.3.26.71.81,1.3,1.8,2.16,2.41,8.25,5.93,16.56,11.78,24.82,17.69q8.97,6.42,15.69-2.01c.93-1.17,1.82-2.4,2.89-3.45,2.98-2.94,3.23-6.42,1.97-10.1-.37-1.09-1.42-1.95-2.16-2.92-.3,1.01-.91,2.04-.86,3.03.3,6.58-5.31,9.19-8.81,13.19-.4.46-2.06.52-2.56.09-3.13-2.7-6.09-5.58-9.1-8.41,3.26-.68,6.52-1.36,9.78-2.03.16-.03.33-.04.5-.04,4.23.1,3.82-1.6,1.93-4.4-4.85-7.18-9.52-14.47-14.21-21.75-.46-.71-.47-1.71-.69-2.57.79.08,1.66-.04,2.35.26,7.3,3.14,14.59,6.31,21.82,9.6.96.44,2.04,1.51,2.27,2.47,1.78,7.55,3.52,15.12,4.89,22.75.26,1.44-.89,3.44-1.92,4.76-4.19,5.39-9.08,10.3-12.77,16-4.71,7.27-9.64,9.45-18.45,6.42-11.84-4.07-12.09-3.18-5.67-13.65.73-1.2,1.41-3.64.82-4.24-3.94-4.04-8.22-7.76-12.46-11.5-.35-.31-1.22-.03-1.85-.03,0,.25-.1.59.03.74,4.55,5.19-1.36,6.34-3.62,7.98-4.16,3.02-4.95,5.73-1.3,9.45.63.64,1.34,1.2,2.02,1.8.03-.81.11-1.62.06-2.43-.17-2.93,6.22-8.6,8.96-7.49,1.03.42,2.14,3.38,1.63,4.32-1.32,2.43-3.82,4.2-5.3,6.58-2.75,4.42-5.56,4.67-8.86.81-4.17-4.87-8.22-4.62-12.32.09-.64.74-1.49,1.6-2.36,1.77-1.33.26-3.31.53-4.06-.2-2.74-2.66-5.19-5.63-7.49-8.69-.59-.79-.61-2.49-.17-3.42.35-.73,2.13-1.55,2.75-1.25,3.79,1.86,8.99,2.53,8.44,8.66l-.2.69c.06-.24.12-.48.17-.72Z"/><path class="cls-2" d="M152.17,130.64c.55-6.12-4.64-6.8-8.44-8.66-.62-.3-2.4.52-2.75,1.25-.45.93-.42,2.63.17,3.42,2.3,3.05,4.75,6.03,7.49,8.69.75.73,2.73.46,4.06.2.88-.17,1.72-1.03,2.36-1.77,4.1-4.71,8.15-4.96,12.32-.09,3.3,3.86,6.11,3.61,8.86-.81,1.48-2.38,3.98-4.14,5.3-6.58.51-.94-.6-3.9-1.63-4.32-2.74-1.12-9.13,4.56-8.96,7.49.05.81-.04,1.62-.06,2.43-.68-.6-1.39-1.16-2.02-1.8-3.65-3.71-2.87-6.42,1.3-9.45,2.26-1.64,8.17-2.79,3.62-7.98-.13-.14-.02-.49-.03-.74.63,0,1.5-.28,1.85.03,4.24,3.74,8.51,7.46,12.46,11.5.59.6-.08,3.05-.82,4.24-6.42,10.47-6.17,9.58,5.67,13.65,8.8,3.03,13.74.85,18.45-6.42,3.69-5.7,8.58-10.61,12.77-16,1.03-1.33,2.18-3.32,1.92-4.76-1.37-7.63-3.1-15.2-4.89-22.75-.23-.97-1.31-2.04-2.27-2.47-7.23-3.29-14.52-6.46-21.82-9.6-.69-.3-1.56-.18-2.35-.26.22.86.23,1.86.69,2.57,4.68,7.29,9.36,14.57,14.21,21.75,1.89,2.8,2.31,4.5-1.93,4.4-.17,0-.34,0-.5.04-3.26.68-6.52,1.35-9.78,2.03,3.02,2.82,5.98,5.71,9.1,8.41.5.43,2.16.37,2.56-.09,3.5-4,9.12-6.6,8.81-13.19-.05-1,.56-2.02.86-3.03.74.97,1.79,1.83,2.16,2.92,1.26,3.68,1.01,7.16-1.97,10.1-1.06,1.05-1.95,2.28-2.89,3.45q-6.74,8.45-15.69,2.01c-8.26-5.92-16.57-11.76-24.82-17.69-.86-.62-1.45-1.6-2.16-2.41,1.1-.09,2.21-.34,3.3-.26,6.64.46,13.28,1.06,19.93,1.47,1.36.08,2.75-.4,4.13-.62-.73-1.24-1.31-2.59-2.2-3.69-7.57-9.3-15.23-18.54-22.78-27.86-1.19-1.47-1.97-3.25-2.95-4.89,1.74.34,3.53.51,5.21,1.04,14.58,4.68,29.18,9.32,43.67,14.27,1.8.61,3.77,2.77,4.32,4.61,2.58,8.61,4.85,17.32,6.84,26.08.45,1.99,0,4.74-1.11,6.43-6.34,9.58-12.85,19.07-19.71,28.28-1.36,1.82-4.55,3.29-6.84,3.21-7.81-.26-15.58-1.39-23.39-1.9-1.35-.09-2.8,1.24-4.2,1.91,1.09,1.38,1.91,3.52,3.31,4.02,8.47,3.01,17.05,5.72,25.66,8.31,1.28.38,3.07-.15,4.37-.78,4.47-2.15,8.81-4.58,13.25-6.8.66-.33,1.57-.14,2.36-.19-.39.69-.62,1.6-1.2,2.04-5.31,4.02-10.59,8.11-16.12,11.8-1.26.84-3.56.54-5.27.2-7.35-1.42-14.65-3.12-22.01-4.53-1.33-.26-2.82.35-4.24.55.55,1.91.58,5.03,1.74,5.53,8.85,3.85,17.72,8,27.02,10.29,3.73.92,8.54-2.64,12.88-4.1,1.33-.45,2.74-.68,4.11-1.02-.76,1.07-1.52,2.15-2.29,3.21-.09.13-.26.2-.39.3q-13.11,10.37-28.78,4.58c-3.12-1.15-6.23-2.4-9.43-3.27-1.5-.4-3.21,0-4.83.03.47,2.14.21,5.23,1.53,6.23,4.03,3.02,8.66,5.25,13.08,7.75,1.29.73,2.72,1.24,3.96,2.05.89.58,1.58,1.47,2.37,2.22-1.17.06-2.45.45-3.5.12-6.17-1.97-12.22-4.31-18.45-6.04-1.6-.45-4.38.24-5.45,1.44-6.63,7.47-13.03,15.16-19.24,22.99-.93,1.17-1.22,3.77-.57,5.1,2.19,4.47,4.89,8.7,7.51,12.96.55.89,2.25,2.16,2.31,2.1,2.58-2.52,5.72-4.82,7.26-7.91.89-1.79-.78-4.88-1.45-7.35-.03-.12-1.93-.13-2.31.34-.64.8-.92,2-1.06,3.07-.08.61.44,1.29.69,1.94-1.9.31-3.8.81-5.69.79-.47,0-1.53-2-1.26-2.65,1.77-4.24,3.77-8.39,5.89-12.48.15-.3,2.16-.18,2.7.35,3.9,3.87,7.73,7.83,11.33,11.97.52.6.15,2.74-.54,3.52-4.31,4.86-8.91,9.46-13.26,14.29-1.89,2.09-3.26,2.26-5.18.02-4.77-5.56-9.9-10.82-14.46-16.55-1.02-1.28-1.04-4.35-.21-5.91,3.2-6.02,6.77-11.86,10.51-17.57,1.92-2.93.96-4.91-1.05-7.01-2.09-2.19-3.4-5.33-7.68-3.61-5.84,2.36-11.91,4.15-17.93,6.03-1.27.4-2.74.18-4.12.24,1.03-.9,1.95-2.01,3.11-2.67,5.21-2.96,10.62-5.6,15.67-8.81,1.46-.92,2.36-3.26,2.8-5.12.63-2.69-.62-3.53-3.38-2.53-7.05,2.55-14.2,4.8-21.24,7.37-3.33,1.22-6.04,1.75-8.98-1.27-2.32-2.39-5.67-3.77-8.41-5.8-.73-.54-.93-1.8-1.37-2.73.88,0,2.02-.37,2.6.05,9.35,6.85,17.8,1.51,26.4-1.84,3.88-1.51,8-2.62,11.53-4.71,1.56-.93,1.94-3.85,2.85-5.87-1.53-.23-3.15-.9-4.59-.63-7.52,1.44-14.97,3.28-22.51,4.59-1.88.33-4.31-.27-5.96-1.3-4.77-2.98-9.3-6.36-13.85-9.68-.68-.49-.98-1.5-1.45-2.27.93.13,2.09-.05,2.76.43,10.59,7.67,21.44,6.58,32.61,1.41,3.3-1.53,7.06-2.07,10.38-3.57,1.23-.56,1.8-2.57,2.67-3.92-1.28-.61-2.6-1.82-3.83-1.73-8.14.56-16.25,1.62-24.4,1.99-2.01.09-4.86-1.21-6.05-2.81-6.93-9.37-13.58-18.95-20.04-28.65-1.12-1.68-1.58-4.44-1.13-6.42,1.95-8.6,4.17-17.15,6.72-25.59.61-2,2.57-4.43,4.45-5.07,15.27-5.26,30.67-10.15,46.04-15.1,1.04-.33,2.2-.28,3.3-.4-.54.95-.95,2-1.63,2.84-7.89,9.69-15.84,19.33-23.71,29.03-1.11,1.36-1.87,3-2.8,4.51,1.87.25,3.76.81,5.61.7,6.15-.35,12.28-.96,18.43-1.4.88-.06,1.78.31,2.67.49-.55.75-.96,1.69-1.68,2.2-10.43,7.46-20.87,14.91-31.44,22.17-.92.63-3.34.46-4.08-.3-3.22-3.31-6.22-6.85-9.01-10.53-2.82-3.72-2.48-12.46.35-16.16.22-.29.7-.39,1.06-.58.14.64.41,1.29.39,1.93-.25,6.79,1.58,12.52,6.99,17.22,2.8,2.44,4.56,2.68,6.95.05,2.18-2.4,4.46-4.71,6.7-7.05-3.03-.56-6.06-1.54-9.1-1.57-5.16-.05-5.03-1.56-2.41-5.27,4.51-6.39,8.61-13.07,12.84-19.66.61-.95.96-2.07,1.43-3.11-1.13-.05-2.4-.47-3.36-.08-7.26,2.91-14.51,5.86-21.61,9.12-1.17.54-2.01,2.59-2.33,4.08-1.44,6.84-2.78,13.71-3.83,20.62-.23,1.53.45,3.6,1.44,4.85,5.98,7.59,12.04,15.12,18.39,22.39,1.18,1.35,3.94,2.28,5.73,1.97,5.56-.95,11-2.64,16.51-3.93,2.42-.57,3.24-1.49,1.53-3.7-.92-1.18-1.67-2.49-2.48-3.75q-4.78-7.38,2.06-13.33c2.64-2.3,5.2-4.68,7.87-6.94.4-.34,1.2-.19,1.81-.27-.23.49-.35,1.08-.71,1.44-2.55,2.55-2,4.56.9,6.36,1.13.7,2.13,1.61,3.16,2.44,4.87,3.94,4.75,5.52-.7,9.44l.03.03ZM160.91,151.6c1.99,0,4.1.42,5.92-.13,1.41-.43,3.19-1.88,3.53-3.2,1.69-6.52-3.46-9.51-7.83-11.47-1.81-.81-6.33,2.03-8.15,4.36-1.73,2.22-1.75,5.93-1.95,9.01-.02.36,3.56,1.04,5.5,1.41.96.19,1.98.03,2.97.02ZM160.83,168.15c1.99,0,4.15.48,5.92-.14,1.54-.54,2.65-2.32,3.95-3.56-1.24-1.27-2.35-3.44-3.73-3.62-3.75-.51-7.64-.45-11.4-.01-1.28.15-2.97,1.91-3.39,3.27-.68,2.25,0,4.31,3.18,4.1,1.82-.12,3.65-.02,5.47-.03ZM161.14,176.6c-1.82,0-3.78-.41-5.43.13-1.41.46-2.46,2.01-3.67,3.08,1.15,1.15,2.19,3.13,3.46,3.28,3.76.44,7.64.44,11.4.01,1.36-.16,2.53-2.03,3.78-3.12-1.19-1.13-2.21-2.81-3.62-3.25-1.81-.57-3.93-.14-5.92-.13ZM161.31,188.19c-1.72.52-3.16.95-4.6,1.38,1.55,1.32,3,3.49,4.7,3.7,1.28.16,2.87-2.17,4.32-3.39-1.47-.56-2.95-1.12-4.42-1.69Z"/><path class="cls-1" d="M152.14,130.61c-.06.24-.12.48-.17.72.07-.23.14-.46.2-.69,0,0-.03-.03-.03-.03Z"/><path class="cls-3" d="M160.91,151.61c-.99,0-2.02.16-2.97-.03-1.94-.38-5.52-1.05-5.5-1.41.2-3.09.21-6.79,1.95-9.01,1.82-2.33,6.34-5.16,8.15-4.36,4.37,1.96,9.52,4.95,7.83,11.47-.34,1.32-2.12,2.77-3.53,3.2-1.82.55-3.93.13-5.92.14Z"/><path class="cls-3" d="M160.83,168.15c-1.82,0-3.66-.1-5.47.02-3.18.22-3.87-1.85-3.18-4.1.41-1.36,2.1-3.12,3.39-3.27,3.76-.44,7.66-.49,11.4.01,1.38.19,2.5,2.36,3.73,3.62-1.3,1.23-2.4,3.02-3.95,3.56-1.77.62-3.93.14-5.92.15Z"/><path class="cls-3" d="M161.14,176.59c1.99,0,4.11-.43,5.92.13,1.41.44,2.43,2.12,3.62,3.25-1.26,1.09-2.42,2.96-3.78,3.12-3.76.43-7.64.43-11.4-.01-1.26-.15-2.31-2.13-3.46-3.28,1.21-1.07,2.26-2.62,3.67-3.08,1.65-.54,3.6-.13,5.43-.13Z"/><path class="cls-3" d="M161.31,188.19c1.48.56,2.95,1.12,4.42,1.69-1.45,1.22-3.04,3.55-4.32,3.39-1.7-.21-3.14-2.38-4.7-3.7,1.44-.43,2.88-.86,4.6-1.38Z"/><text class="cls-6" transform="translate(0 371.96)"><tspan x="0" y="0">MetaC</tspan><tspan class="cls-4" x="215.49" y="0">o</tspan><tspan class="cls-5" x="252.65" y="0">rp</tspan></text></g></svg>