<?xml version="1.0" encoding="UTF-8"?><svg id="Layer_2" xmlns="http://www.w3.org/2000/svg" viewBox="0 0 455.34 83.15"><defs><style>.cls-1{fill:#fff;stroke-width:0px;}</style></defs><g id="Layer_1-2"><path class="cls-1" d="M162.75,69.86l-.39.39c-2.6-.16-6.65-.24-12.14-.24s-9.67.08-12.14.24l-.35-.35v-2.68l.39-.39c2.68-.16,4.22-.29,4.61-.39.76-.21,1.21-.7,1.34-1.46.34-1.89.51-5.97.51-12.22v-26.65l-8.79,18.02c-.5,1-2.21,4.68-5.12,11.04l-7.21,15.77h-2.64c-1.37-3.26-3.22-7.37-5.56-12.34l-5.52-11.71-10.33-21.49v27.36c0,6.25.17,10.33.51,12.22.13.76.58,1.25,1.34,1.46.39.11,1.93.24,4.61.39l.39.39v2.68l-.39.35c-3.02-.16-5.83-.24-8.44-.24-3.02,0-6.06.08-9.11.24l-.39-.35v-2.68l.39-.39c2.68-.16,4.22-.29,4.61-.39.76-.21,1.21-.7,1.34-1.46.34-1.89.51-5.97.51-12.22v-20.85c0-6.25-.17-10.33-.51-12.22-.13-.76-.58-1.25-1.34-1.46-.39-.1-1.93-.24-4.61-.39l-.39-.39v-2.68l.39-.35c2.73.16,6.19.24,10.37.24,3.21,0,6.01-.08,8.4-.24.87,2,2.1,4.81,3.71,8.44l2.52,5.44,12.54,26.22,6.03-12.22,9.42-20.14c1.1-2.39,2.18-4.97,3.23-7.73,2.97.16,4.97.24,5.99.24,5.15,0,9.09-.08,11.83-.24l.39.35v2.72l-.39.36c-2.68.16-4.22.29-4.61.39-.76.21-1.21.7-1.34,1.46-.34,1.89-.51,5.97-.51,12.22v20.85c0,6.25.17,10.33.51,12.22.13.76.58,1.25,1.34,1.46.39.11,1.93.24,4.61.39l.39.39v2.64Z"/><path class="cls-1" d="M190.23,69.9l-.39.39c-2.5-.18-6.1-.28-10.8-.28s-8.29.09-10.76.28l-.39-.39v-2.41l.39-.39c2.52-.08,4.09-.28,4.69-.59.53-.24.81-.87.87-1.89.18-3.42.28-7.08.28-11v-5.64c0-5.1-.2-8.12-.59-9.07-.21-.53-.78-.85-1.7-.99-.32-.05-1.46-.12-3.43-.2l-.39-.39v-2.21l.39-.43c5.05-.45,10.13-1.54,15.26-3.27l.83.51c-.34,4.78-.51,8.82-.51,12.1v12.58c0,1.92.09,4.59.28,8,.05,1.02.34,1.66.87,1.89.6.32,2.17.51,4.69.59l.43.39v2.41ZM184.79,18.45c0,1.68-.59,3.12-1.77,4.32-1.18,1.2-2.6,1.79-4.26,1.79s-3.11-.6-4.3-1.79-1.77-2.63-1.77-4.32.6-3.19,1.79-4.38c1.2-1.18,2.62-1.77,4.28-1.77s3.04.59,4.24,1.77c1.2,1.18,1.79,2.64,1.79,4.38Z"/><path class="cls-1" d="M226.42,65.05l-1.73,3.9c-3.57,1.87-7.1,2.8-10.57,2.8-5.86,0-10.34-1.68-13.44-5.05-3.1-3.36-4.65-7.98-4.65-13.84,0-5.41,1.2-9.53,3.59-12.34.66-.79,1.91-1.83,3.75-3.11,3.78-2.68,6.31-4.28,7.59-4.81,1.27-.53,3.23-.79,5.85-.79,3.57,0,6.53.54,8.87,1.62l.39.71c-.03.34-.21,1.56-.55,3.67l-.43,2.68c-.08.45-.2,2.21-.35,5.28l-.39.39h-2.37l-.39-.39c-.16-2.34-.34-3.97-.55-4.89-1.16-2.05-3.38-3.08-6.66-3.08-5.57,0-8.36,3.61-8.36,10.84,0,5.26,1.12,9.4,3.35,12.42,2.29,3.13,5.51,4.69,9.66,4.69,2.52,0,4.74-.54,6.66-1.62l.75.91Z"/><path class="cls-1" d="M259.65,31.94l-.28,7.02c-.03,1.16-.08,2.47-.16,3.94l-1.66.51c-1.23-1.79-2.94-2.68-5.12-2.68-1.97,0-3.6.79-4.89,2.37-.79.97-1.18,2.4-1.18,4.3v9.22c0,1.92.09,4.59.28,8,.05.97.33,1.6.83,1.89.5.29,2.33.49,5.48.59l.39.35v2.41l-.39.39c-3.86-.16-7.7-.24-11.51-.24-4.7,0-8.29.09-10.76.28l-.39-.39v-2.41l.39-.39c2.52-.08,4.09-.28,4.69-.59.53-.24.81-.87.87-1.89.18-3.42.28-7.08.28-11v-5.64c0-5.26-.2-8.28-.59-9.07-.26-.53-.83-.85-1.7-.99-.32-.05-1.46-.12-3.43-.2l-.39-.39v-2.21l.39-.43c4.73-.45,9.71-1.54,14.94-3.27l.87.51-.08,7.73c1.63-1.89,3.6-4.1,5.91-6.62,1.08-1.05,2.55-1.58,4.42-1.58,1.1,0,2.04.16,2.8.47Z"/><path class="cls-1" d="M301.4,50.47c0,9.3-3.13,15.6-9.38,18.88-3.05,1.6-6.53,2.4-10.45,2.4-6.04,0-10.65-1.75-13.82-5.24-3.17-3.5-4.75-8.5-4.75-15.02,0-9.01,3.07-15.02,9.22-18.02,3.02-1.47,6.53-2.21,10.53-2.21,8.38,0,13.94,2.9,16.68,8.71,1.31,2.79,1.97,6.28,1.97,10.49ZM290.48,53.7c0-6.54-.71-11.23-2.15-14.05-1.43-2.82-3.62-4.24-6.56-4.24-5.23,0-7.85,4.72-7.85,14.15,0,12.12,2.93,18.17,8.79,18.17,3.65,0,5.98-2.01,6.98-6.03.53-2.1.79-4.77.79-8Z"/><path class="cls-1" d="M330.88,64.85c-.18.21-.75.76-1.7,1.66-1.55,1.47-2.88,2.81-3.98,4.02-1.29.42-2.59.63-3.9.63-3.65,0-6.32-1.06-8-3.19-.71-.92-1.18-1.98-1.42-3.19-.26-1.45-.38-3.34-.36-5.68l.12-9.42v-9.86h-1.06l-2.09.08h-1.62l-.43-.36v-1.02l.31-.59c.47-.32,1.21-.79,2.21-1.42,1.18-.74,2.08-1.35,2.68-1.85v-5.36c0-2.23-.11-4.6-.31-7.1,1.97-.63,3.57-1.19,4.79-1.67s2.95-1.28,5.18-2.39l1.03.79c-.32,3.26-.54,6.18-.67,8.75l-.36,6.82h1.3c2.87,0,5.34-.09,7.41-.28l.43.43-.55,4.61-.39.39h-8.2v13.36c0,4.28.05,6.81.16,7.57.13,1.1.6,2,1.4,2.68.8.68,1.89,1.03,3.25,1.03,1.08,0,2.38-.29,3.9-.87l.87,1.42Z"/><path class="cls-1" d="M369.04,47.9c0,.45-.01,1.12-.04,2.01l-.43.55c-3.47.95-8.07,1.42-13.8,1.42-1.03,0-2.58.02-4.65.06-2.08.04-3.64.06-4.69.06.16,3.86,1.35,7.06,3.59,9.58,2.34,2.71,5.39,4.06,9.15,4.06,2.52,0,5.52-.87,8.99-2.6l.95,1.14-1.73,3.9c-3.84,2.44-8,3.67-12.5,3.67-5.91,0-10.51-1.67-13.78-5.01-3.27-3.34-4.91-8.09-4.91-14.27,0-7.33,1.75-12.35,5.24-15.06,4.84-3.73,9.42-5.6,13.76-5.6,4.71,0,8.34,1.35,10.92,4.06,2.63,2.79,3.94,6.79,3.94,12.02ZM358.75,46.88c0-7.1-2.21-10.64-6.62-10.64-4.65,0-6.98,3.52-6.98,10.57v.87c1.52.24,4.23.36,8.12.36,2.02,0,3.84-.12,5.44-.36.03-.37.04-.63.04-.79Z"/><path class="cls-1" d="M405.82,65.05l-1.73,3.9c-3.57,1.87-7.1,2.8-10.56,2.8-5.86,0-10.34-1.68-13.44-5.05-3.1-3.36-4.65-7.98-4.65-13.84,0-5.41,1.2-9.53,3.59-12.34.66-.79,1.91-1.83,3.75-3.11,3.78-2.68,6.31-4.28,7.59-4.81s3.23-.79,5.85-.79c3.57,0,6.53.54,8.87,1.62l.39.71c-.03.34-.21,1.56-.55,3.67l-.43,2.68c-.08.45-.2,2.21-.36,5.28l-.39.39h-2.37l-.39-.39c-.16-2.34-.34-3.97-.55-4.89-1.16-2.05-3.38-3.08-6.66-3.08-5.57,0-8.36,3.61-8.36,10.84,0,5.26,1.12,9.4,3.35,12.42,2.29,3.13,5.5,4.69,9.66,4.69,2.52,0,4.74-.54,6.66-1.62l.75.91Z"/><path class="cls-1" d="M455.34,69.86l-.39.43c-2.89-.18-5.34-.28-7.33-.28-1.84,0-4.52.09-8.04.28l-.39-.39c.47-5.86.71-10.38.71-13.56v-7.73c0-6.41-2.31-9.62-6.94-9.62-2.47,0-4.39.85-5.76,2.56-1.1,1.37-1.66,3.13-1.66,5.28v4.65c0,5.34.09,9.71.28,13.13.05,1.02.34,1.66.87,1.89.61.32,2.17.51,4.69.59l.43.39v2.41l-.39.39c-2.5-.18-6.1-.28-10.8-.28s-8.29.09-10.76.28l-.39-.39v-2.41l.39-.39c2.52-.08,4.09-.28,4.69-.59.53-.24.81-.87.87-1.89.18-3.42.28-9.4.28-17.94v-13.21c0-5.52-.09-9.99-.28-13.4-.05-.97-.34-1.61-.87-1.91-.53-.3-2.05-.49-4.57-.57l-.39-.43v-2.17l.39-.43c5.07-.55,10.16-1.64,15.26-3.27l.83.47c0,.71-.04,2.01-.12,3.9-.26,6.28-.39,13.23-.39,20.85v2.21l6.94-5.83c1.73-.71,3.64-1.06,5.72-1.06,4.18,0,7.31,1.26,9.38,3.79,1.68,2.05,2.52,5.06,2.52,9.03,0,.45-.05,2.05-.16,4.81s-.16,5.27-.16,7.53c0,3.97.07,6.5.2,7.59.13,1.09.43,1.78.91,2.07.47.29,1.84.46,4.1.51l.36.39v2.33Z"/><path class="cls-1" d="M0,45.93c2.18,20.91,19.86,37.22,41.35,37.22s39.17-16.31,41.35-37.22H0Z"/><path class="cls-1" d="M1.02,31.49c-.28,1.13-.52,2.28-.71,3.44h82.08c-.19-1.16-.43-2.31-.71-3.44H1.02Z"/><path class="cls-1" d="M8.57,16.03c-1.9,2.43-3.53,5.07-4.86,7.89h75.27c-1.32-2.82-2.96-5.46-4.86-7.89H8.57Z"/><path class="cls-1" d="M68.4,10.02C61.13,3.78,51.68,0,41.35,0S21.56,3.78,14.3,10.02h54.1Z"/></g></svg>