<?xml version="1.0" encoding="UTF-8"?><svg id="Layer_2" xmlns="http://www.w3.org/2000/svg" viewBox="0 0 453.77 204.24"><defs><style>.cls-1{fill:#fff;}</style></defs><g id="Layer_1-2"><path class="cls-1" d="M74.41,101.06c.45-1.2,1.06-2.44,1.83-3.72.77-1.28,1.48-1.98,2.12-2.1.43-.08.75.44.94,1.55.2,1.11-.1,5.47-.91,13.07-.8,7.6-1.03,12.39-.67,14.37.35,1.98.83,3.15,1.42,3.52.59.37,1.71.41,3.35.11,1.64-.29,2.69-1.15,3.16-2.58,1.81-5.41,5.33-12.37,10.58-20.88,5.25-8.51,8.89-12.95,10.94-13.32.81-.14,1.26.05,1.36.59.1.54-.37,1.99-1.38,4.36-7.82,18.61-11.34,30.11-10.56,34.5.34,1.89,3.17,2.36,8.5,1.41,1.02-.18,1.69-.78,2.01-1.78-.38-2.11.02-5.6,1.2-10.48,1.18-4.88,2.75-10.07,4.7-15.59,1.95-5.52,3.94-10.87,5.95-16.07,1.51-3.9,2.85-7.33,4.03-10.29,6.12-15.77,27.12-30.15,59.56-33.97,38.48-4.53,33.41,16.87,33.41,16.87,4.6-.61,8.6,3.14,8.6,3.14,1.07-9.38-12.03-30.31-47.98-26.83-32.77,3.18-53.91,23.48-62.59,33.69-.22.2-.43.41-.62.65-.55.69-1.1,1.4-1.66,2.14-1.48,1.9-2.24,3.05-2.24,3.05h0c-1.47,2.08-2.96,4.31-4.46,6.7-3.52,5.44-6.68,10.12-9.47,14.06-2.79,3.94-4.86,6.03-6.21,6.27-.43.08-.77-.59-1.02-2-.25-1.41.06-5.78.94-13.12.88-7.34,1.27-11.28,1.17-11.82-.1-.54-.42-.93-.96-1.17-1.23-.67-2.98-.81-5.24-.4l-2.66.48c-1.45.26-3.24.89-5.37,1.88-2.13,1-3.1,1.98-2.93,2.96l.17.97c.39,2.17.19,4.61-.6,7.32-3.35,11.38-8.7,26.26-16.07,44.62-1.99,5-2.94,7.76-2.84,8.3l.04.24c.15.81,1.12,1.06,2.92.73,1.8-.32,3.12-.92,3.97-1.8.84-.88,1.69-2.75,2.53-5.61.85-2.86,2.18-7.37,3.99-13.54,1.81-6.16,3.93-12.37,6.37-18.62l.66-1.88Z"/><path class="cls-1" d="M128.9,90.96c1.61-.29,3.11-1.1,4.48-2.44,1.37-1.34,1.91-2.81,1.62-4.44-.45-1.87-1.85-2.6-4.22-2.18-1.56.28-3.04,1.08-4.44,2.39-1.4,1.31-1.96,2.78-1.67,4.41v.08c.46,1.88,1.87,2.6,4.24,2.18Z"/><path class="cls-1" d="M113.39,128.53c.24,1.35.91,2.42,1.99,3.2,1.08.78,2,1.11,2.76.97.43-.08.69-.66.77-1.73,1.23-4.58,3.21-10.6,5.92-18.08,2.71-7.47,4.86-12.69,6.44-15.65.13-.19.18-.39.14-.61-.08-.43-.5-.71-1.27-.82-.77-.11-1.48-.11-2.12,0-3.39.61-5.85,1.58-7.39,2.92-.85.82-1.21,1.61-1.07,2.37.33,2.46-.65,7.45-2.94,14.98-2.29,7.53-3.36,11.68-3.23,12.44Z"/><path class="cls-1" d="M130.91,127.52c1.04.68,2.09.92,3.17.73,3.5-.63,7.15-3.6,10.98-8.92.42-.46.79-.73,1.11-.78l.71.71.13,1.65c.52,2.92,2.08,4.15,4.66,3.69l.16-.03c.38-.07.61-.45.71-1.13.76-6,4.45-17.31,11.08-33.92,2.43-7.2,5.2-14.29,8.31-21.27,3.11-6.98,5.53-12.19,7.27-15.64,1.74-3.44,2.59-5.32,2.53-5.65-.16-.87-.96-1.17-2.41-.91-4.79.86-7.56,2.58-8.32,5.18-.88,3.12-4.14,12.36-9.77,27.73-2.42,6.64-3.88,10.43-4.37,11.39-.49.96-.86,1.45-1.11,1.5-.24.04-.89-.02-1.95-.2-1.06-.17-2.18-.15-3.36.06-8.5,1.52-14.78,7.04-18.86,16.54-2.59,6-3.52,11.05-2.78,15.17.37,2.06,1.07,3.42,2.11,4.11ZM140.33,104.59c2.68-4.89,5.57-7.62,8.69-8.18,1.34-.24,2.38-.18,3.12.2.73.37,1.16.92,1.3,1.65.13.73-.63,2.71-2.27,5.94-1.64,3.23-3.66,6.37-6.06,9.42-2.4,3.06-4.35,4.72-5.85,4.99-1.13.2-1.84-.51-2.13-2.13-.54-3.03.52-6.99,3.2-11.89Z"/><path class="cls-1" d="M199.1,84.92c-.42-2.33-1.62-3.31-3.61-2.96-4.73.85-10.52,5.1-17.37,12.75-.23.27-.52.43-.87.49-.35.06-.62-.11-.8-.53-.1-.54.33-1.87,1.28-4,.95-2.13,1.38-3.47,1.27-4.04-.1-.57-.87-.72-2.29-.47-1.43.26-2.55.74-3.36,1.44-1.61.96-4.28,6.17-8.02,15.64-3.74,9.47-5.49,14.91-5.24,16.32.13.7.89.93,2.29.68,2.58-.46,4.36-1.72,5.32-3.76.97-2.04,2.52-4.74,4.67-8.09,2.15-3.35,4.74-6.69,7.78-10.03,3.04-3.34,5.61-5.2,7.7-5.57.44-.02.79.07,1.05.27.26.21.43.52.5.96.24,1.35-.39,4.5-1.89,9.43-1.5,4.94-3.43,10.13-5.79,15.58l-.07.52c.13.7.94.92,2.45.65,2.47-.44,4.99-3.34,7.56-8.69,2.57-5.35,4.52-10.74,5.85-16.18,1.33-5.43,1.86-8.91,1.59-10.43Z"/><path class="cls-1" d="M203.02,117.49c.43-.08.69-.66.77-1.73,1.23-4.58,3.21-10.6,5.92-18.08,2.71-7.47,4.86-12.69,6.44-15.65.13-.19.18-.39.14-.61-.08-.43-.5-.71-1.27-.82-.77-.11-1.48-.11-2.12,0-3.39.61-5.85,1.58-7.39,2.92-.85.82-1.21,1.61-1.07,2.37.33,2.46-.65,7.45-2.94,14.98-2.29,7.53-3.36,11.68-3.23,12.44.24,1.35.9,2.42,1.99,3.2,1.08.78,2,1.11,2.76.97Z"/><path class="cls-1" d="M215.66,66.7c-1.56.28-3.04,1.08-4.44,2.39-1.4,1.31-1.96,2.78-1.67,4.41v.08c.46,1.88,1.87,2.6,4.24,2.18,1.61-.29,3.1-1.1,4.48-2.44,1.37-1.34,1.91-2.81,1.62-4.44-.45-1.87-1.85-2.6-4.22-2.18Z"/><path class="cls-1" d="M246.87,82.4c-.15-.81-1.38-1.01-3.69-.6-2.31.41-3.48,1.02-3.51,1.8-2.15,5.36-4.52,9.54-7.12,12.55-2.6,3.01-4.76,4.67-6.48,4.97-1.13.2-1.82-.37-2.06-1.73-.69-3.84.5-8.12,3.57-12.83,3.07-4.71,6.62-7.43,10.66-8.15,4.03-.72,7.14-.61,9.3.34.71.26,1.2.37,1.47.32.91-.16,1.23-1.06.94-2.68-.41-2.27-2.09-3.59-5.04-3.96-1.48-.18-2.81-.17-3.99.04-4.68.84-8.88,2.68-12.59,5.52-3.71,2.84-6.55,6.05-8.52,9.61-1.97,3.57-3.38,7.14-4.24,10.73-.86,3.59-1.05,6.71-.57,9.36.59,3.3,1.99,4.76,4.2,4.36,1.77-.32,3.49-1.06,5.14-2.22,1.65-1.16,2.96-2.36,3.94-3.6.97-1.23,1.89-2.36,2.77-3.39.87-1.02,1.52-1.57,1.95-1.65.43-.08.72.28.86,1.06.14.78-1.06,5.26-3.59,13.43-2.53,8.16-5.62,16.44-9.25,24.83-3.63,8.39-6.6,12.79-8.92,13.21-.97.17-1.57-.39-1.8-1.69v-.08c-.58-3.14,0-7.24,1.74-12.3,1.73-5.06,3.85-9.65,6.36-13.75,2.51-4.11,4.7-6.86,6.56-8.26.59-.44.85-.85.78-1.23-.07-.38-.42-.51-1.07-.39l-.24.04c-2.37.42-5.06,2.3-8.07,5.64-3.01,3.33-5.72,7.21-8.12,11.64-2.4,4.42-4.29,9.15-5.66,14.17-1.38,5.02-1.72,9.43-1.05,13.22.68,3.79,2.15,5.48,4.41,5.08,2.74-.49,5.61-2.45,8.61-5.86,3-3.42,5.75-7.44,8.25-12.08,2.5-4.64,5.06-10.1,7.68-16.38,2.62-6.28,4.81-11.97,6.56-17.06,1.75-5.09,3.85-11.56,6.31-19.4,2.45-7.84,3.63-12.06,3.52-12.66Z"/><path class="cls-1" d="M282.27,72.2c-.49-2.71-1.88-3.85-4.2-3.44-1.88.34-4.15,1.71-6.8,4.11-2.65,2.4-4.51,4.29-5.57,5.65-1.06,1.36-1.93,2.5-2.6,3.4-.6.67-1.11,1.04-1.51,1.11-.4.07-.66-.19-.76-.78-.26-1.46.75-5.86,3.05-13.2,2.29-7.34,5.06-14.57,8.31-21.69,3.25-7.12,5.84-10.85,7.78-11.2.59-.11.99-.05,1.19.16.21.21.37.65.48,1.3.35,1.95-.59,5.61-2.82,10.98-2.23,5.37-5.65,10.37-10.26,15l-.34.9c.09.49.66.64,1.7.45s2.02-.58,2.91-1.19c3.94-2.77,7.92-7.9,11.94-15.38,4.02-7.48,5.51-14.09,4.48-19.83-.53-2.98-2.06-4.24-4.59-3.79-3.28.59-6.74,3.51-10.38,8.77-3.64,5.26-7.04,11.81-10.22,19.64-3.18,7.83-6.03,15.45-8.56,22.86-2.53,7.41-4.9,14.66-7.09,21.76-2.2,7.1-3.48,11.1-3.85,12-.36.9-.53,1.46-.49,1.68.12.65,1.09.81,2.92.48,1.83-.33,3.12-.71,3.87-1.15.75-.44,1.39-1.45,1.91-3.03.52-1.57,1.81-4.44,3.87-8.61,2.06-4.17,4.63-8.4,7.72-12.7,3.09-4.3,5.74-6.64,7.94-7.04.44-.02.77.06,1,.24.23.18.37.44.43.76.32,1.79-.15,4.85-1.39,9.18-1.25,4.33-2.81,8.59-4.66,12.78l-.16.95c.08.43.52.58,1.33.43,2.53-.45,4.45-1.83,5.76-4.13,2.74-4.85,4.96-10.42,6.67-16.7,1.15-4.45,1.48-8.03.99-10.74Z"/><path class="cls-1" d="M318.51,42.57c.42-.46.75-.97,1.02-1.52.26-.55.42-1,.47-1.34.05-.34.05-.62.02-.84-.04-.22-.33-.28-.86-.18l-3.92.87c-1.83.33-3.07.52-3.73.58-1.61.29-2.5-.01-2.66-.91-.16-.89.65-3.32,2.44-7.27,1.79-3.95,2.65-6.15,2.57-6.58-.13-.7-.75-.95-1.88-.75-3.28.59-5.43,1.92-6.44,4-1.62,3.36-3.32,6.18-5.11,8.46-1.79,2.28-3.29,3.8-4.51,4.58-1.22.78-2.42,1.55-3.58,2.32-1.17.77-2,1.57-2.48,2.41-.49.84-.67,1.59-.56,2.24.12.65.52.91,1.22.79l2.66-.48c1.61-.29,2.76-.4,3.44-.32.68.07,1.09.5,1.23,1.29.14.79-1.37,5.08-4.52,12.88-3.15,7.8-6.27,15.72-9.36,23.76-3.09,8.04-4.5,12.79-4.23,14.25.26,1.46,1.24,2.77,2.95,3.91,1.7,1.15,2.97,1.65,3.81,1.5.83-.15,1.28-.51,1.35-1.08.47-6.34,2.9-15.63,7.29-27.88,4.39-12.24,7.64-20.62,9.78-25.14.16-.36.43-1.03.81-1.99.38-.96.66-1.57.84-1.83.18-.25.55-.66,1.12-1.21.57-.55,1.29-.96,2.15-1.22.87-.27,2.26-.57,4.17-.91,1.91-.34,3.42-1.14,4.52-2.4Z"/><path class="cls-1" d="M351.35,69.45c-1,.18-1.56.53-1.68,1.06-2.3,5.78-5.86,10.05-10.69,12.81-2.47,1.39-4.81,2.29-7.02,2.68l-.57.1c-3.55.64-5.5-.05-5.86-2.05-.24-1.35-.13-3.33.35-5.93.17-.92.46-2.14.89-3.64.43-1.5.75-2.56.97-3.19.22-.63.59-1.68,1.1-3.17l.77-2.23c4.76-14.32,8.66-25.38,11.71-33.19.35-.51.49-.98.41-1.42-.19-1.08-1.74-1.36-4.65-.84-5.76,1.03-8.51,2.25-8.26,3.66l.19,1.06c.35,1.95.13,4.53-.65,7.74-.79,3.21-2.74,9.21-5.86,17.98-3.12,8.77-5.97,16.73-8.55,23.87-2.58,7.14-3.82,11.01-3.71,11.6l.04.24c.13.7,1,.91,2.61.62,3.12-.56,5.45-1.79,7-3.69.29-.56.81-.9,1.56-1.03l1.14-.12,9.15-1.47c6.62-1.19,10.91-2.01,12.88-2.48,1.99-.36,3.25-1.09,3.77-2.18,1.11-1.87,2.22-4.64,3.34-8.31,1.12-3.66,1.56-6.15,1.33-7.45-.16-.87-.73-1.21-1.73-1.03Z"/><path class="cls-1" d="M377.41,55.23c3.23-.58,5.69-.49,7.38.27.91.45,1.61.63,2.1.55.91-.16,1.23-1.02.96-2.56-.28-1.54-1.21-2.72-2.8-3.52-1.59-.8-3.38-1.03-5.37-.67-3.77.67-7.24,2.07-10.41,4.17-3.18,2.11-5.75,4.52-7.74,7.25-1.98,2.73-3.65,5.61-4.99,8.65-2.59,6-3.52,11.05-2.78,15.16.59,3.3,2,4.75,4.24,4.35,2.23-.4,4.34-1.52,6.31-3.35,1.97-1.83,3.58-3.59,4.8-5.26,1.23-1.67,2.08-2.55,2.57-2.64.32-.06.52.13.6.56l.14,1.73c.55,3.09,2.15,4.39,4.78,3.92.48-.09.69-.46.63-1.12-.06-2.22.5-5.36,1.69-9.4,1.19-4.04,2.15-6.97,2.88-8.77.73-1.81,1.24-3.06,1.53-3.75.29-.69.43-1.07.42-1.12-.13-.7-1.2-.96-3.22-.76-1.4.25-2.57.68-3.51,1.3-.94.62-1.45,1.18-1.53,1.7-1.66,4.66-3.56,8.34-5.68,11.03-2.13,2.7-4,4.19-5.61,4.48-.54.1-.99-.04-1.37-.43-.37-.38-.6-.81-.69-1.3-.68-3.79.53-7.96,3.63-12.51,3.1-4.55,6.77-7.21,11.02-7.97Z"/><path class="cls-1" d="M408.17,78.63l.16-.03c.38-.07.61-.45.71-1.13.76-6,4.45-17.31,11.08-33.92,2.43-7.2,5.2-14.29,8.31-21.27,3.11-6.98,5.53-12.19,7.27-15.64,1.74-3.44,2.59-5.32,2.53-5.65-.16-.87-.96-1.17-2.41-.91-4.79.86-7.56,2.58-8.32,5.18-.88,3.12-4.14,12.36-9.77,27.73-2.42,6.64-3.88,10.43-4.37,11.39-.49.96-.86,1.45-1.11,1.5-.24.04-.89-.02-1.95-.2-1.06-.17-2.18-.15-3.36.06-8.5,1.52-14.78,7.04-18.86,16.54-2.59,6-3.52,11.05-2.78,15.17.37,2.06,1.07,3.42,2.11,4.11,1.04.68,2.09.92,3.17.73,3.5-.63,7.15-3.6,10.98-8.92.42-.46.79-.73,1.11-.78l.71.71.13,1.65c.52,2.92,2.08,4.15,4.66,3.69ZM401.62,67.65c-2.4,3.06-4.35,4.72-5.85,4.99-1.13.2-1.84-.51-2.13-2.13-.54-3.03.52-6.99,3.2-11.89,2.68-4.89,5.57-7.62,8.69-8.18,1.34-.24,2.38-.18,3.12.2.73.37,1.17.92,1.3,1.65s-.63,2.71-2.27,5.94c-1.64,3.23-3.66,6.37-6.06,9.42Z"/><path class="cls-1" d="M451.16,35.98c-3.34.6-5.31,1.96-5.93,4.08-2.18,5.81-5,11.04-8.47,15.68-3.47,4.64-6.2,7.15-8.19,7.5-1.13.2-1.81-.35-2.04-1.65-.53-2.98,1.18-8.43,5.15-16.34,1.31-2.58,1.95-3.98,1.91-4.2-.1-.54-.75-.7-1.96-.49-1.21.22-2.34.63-3.4,1.24-1.06.61-1.85,1.3-2.38,2.06-2.43,3.51-4.58,8.27-6.48,14.28-1.89,6.01-2.6,10.33-2.13,12.95.47,2.63,1.92,3.72,4.34,3.29,3.33-.6,7.55-4.04,12.64-10.31.44-.64.93-1,1.47-1.1.43-.08.71.26.85,1.02.14.76-.41,3.26-1.65,7.5-4.1,14.31-8.48,26.27-13.14,35.88-2.87,5.99-5.24,9.15-7.13,9.49-.97.17-1.57-.42-1.82-1.77-.56-3.14.02-7.23,1.76-12.26,1.74-5.03,3.86-9.6,6.37-13.71,2.51-4.11,4.69-6.89,6.54-8.34.59-.44.85-.85.78-1.23-.07-.38-.5-.5-1.31-.35-2.37.42-5.06,2.3-8.07,5.64-3.01,3.33-5.72,7.21-8.12,11.64-2.4,4.42-4.29,9.15-5.66,14.17-1.38,5.02-1.72,9.43-1.04,13.22.68,3.79,2.15,5.48,4.41,5.08,2.42-.43,4.95-2.02,7.6-4.76,2.65-2.74,5.13-6.06,7.46-9.97,2.32-3.91,4.67-8.51,7.02-13.79,2.36-5.28,4.45-10.34,6.28-15.16,1.83-4.83,4.17-11.64,7.04-20.45,2.86-8.81,6.13-18.01,9.79-27.61.11-.3.15-.53.13-.69-.12-.65-.98-.83-2.59-.54Z"/><path class="cls-1" d="M18.18,99.27C10.35,89.05-.08,67.03,23.87,53.23c23.44-13.51,45.92,6.54,49.79,14.59,2.62,5.43,11.34,1.05,10.6-1.08s-14.4-34.12-60.33-18.35c-35.26,12.1-28.76,45.12,1.27,65.84,15.89,10.96,19.87,14.97,21.08,15.57,1.21.61,6.42.42,6.78-1.48.36-1.91-24.23-15.11-34.89-29.05Z"/><path class="cls-1" d="M135.94,136.7c-7.75,6.91-27.99,24.23-43.74,42.77,0,0-10.36-25.3-25.4-35.33-1.82-1.21-1.57,2.18-.36,3.63s21.28,22.24,20.68,41.14c0,0-2.66,6.66-2.84,8.24-.18,1.58,5.15,8.24,7.33,6.91,1.11-.68,8.45-19.39,25.56-37.92,16.38-17.74,42.59-35.32,42.59-36.26,0-1.94-16.06-.08-23.81,6.82Z"/></g></svg>