<?xml version="1.0" encoding="UTF-8"?><svg id="Layer_2" xmlns="http://www.w3.org/2000/svg" viewBox="0 0 357.9 197.02"><defs><style>.cls-1{fill:#fff;stroke-width:0px;}</style></defs><g id="Layer_1-2"><path class="cls-1" d="M179.1,133.66c-2.83.37-5.73.57-8.66.57-36.85,0-66.71-30.04-66.71-67.11S133.59,0,170.44,0c2.92,0,5.82.2,8.66.57-32.76,4.27-58.06,32.41-58.06,66.55s25.3,62.28,58.06,66.55Z"/><path class="cls-1" d="M153.61,133.66c-2.83.37-5.73.57-8.66.57-36.85,0-66.71-30.04-66.71-67.11S108.1,0,144.96,0c2.92,0,5.82.2,8.66.57-32.76,4.27-58.06,32.41-58.06,66.55s25.3,62.28,58.06,66.55Z"/><path class="cls-1" d="M121.63,133.66c-2.83.37-5.73.57-8.66.57-36.85,0-66.71-30.04-66.71-67.11S76.13,0,112.98,0c2.92,0,5.82.2,8.66.57-32.76,4.27-58.06,32.41-58.06,66.55s25.3,62.28,58.06,66.55Z"/><path class="cls-1" d="M85.09,133.66c-2.83.37-5.73.57-8.66.57-36.85,0-66.71-30.04-66.71-67.11S39.58,0,76.43,0c2.92,0,5.82.2,8.66.57C52.32,4.83,27.03,32.98,27.03,67.11s25.3,62.28,58.06,66.55Z"/><path class="cls-1" d="M179.1.57c2.83-.37,5.73-.57,8.66-.57,36.85,0,66.71,30.04,66.71,67.11s-29.86,67.11-66.71,67.11c-2.92,0-5.82-.2-8.66-.57,32.76-4.27,58.06-32.41,58.06-66.55S211.86,4.83,179.1.57Z"/><path class="cls-1" d="M204.58.57c2.83-.37,5.73-.57,8.66-.57,36.85,0,66.71,30.04,66.71,67.11s-29.86,67.11-66.71,67.11c-2.92,0-5.82-.2-8.66-.57,32.76-4.27,58.06-32.41,58.06-66.55S237.35,4.83,204.58.57Z"/><path class="cls-1" d="M236.56.57c2.83-.37,5.73-.57,8.66-.57,36.85,0,66.71,30.04,66.71,67.11s-29.86,67.11-66.71,67.11c-2.92,0-5.82-.2-8.66-.57,32.76-4.27,58.06-32.41,58.06-66.55S269.32,4.83,236.56.57Z"/><path class="cls-1" d="M273.11.57c2.83-.37,5.73-.57,8.66-.57,36.85,0,66.71,30.04,66.71,67.11s-29.86,67.11-66.71,67.11c-2.92,0-5.82-.2-8.66-.57,32.76-4.27,58.06-32.41,58.06-66.55S305.87,4.83,273.11.57Z"/><path class="cls-1" d="M0,151.35h15.33c1.34,0,2.63.24,3.87.73,1.24.49,2.32,1.17,3.25,2.04.93.87,1.68,1.89,2.24,3.07s.85,2.46.85,3.87v35.97h-5.4v-35.6c0-.55-.11-1.1-.32-1.65-.21-.55-.51-1.04-.89-1.49-.38-.44-.83-.79-1.35-1.05-.52-.26-1.07-.39-1.65-.39-.03,0-.09,0-.18.02-.09.01-.15.02-.18.02l-.14,6.18v33.96h-5.35v-40.13h-4.71v40.13H0v-45.67Z"/><path class="cls-1" d="M31.94,197.02v-45.21h5.35v45.21h-5.35Z"/><path class="cls-1" d="M60.4,151.49s.12.02.27.05c.15.03.32.07.5.11l.55.14c.18.05.32.08.41.11,2.1.64,3.82,1.75,5.15,3.34,1.33,1.59,1.99,3.52,1.99,5.81v26.18c0,.24-.03.53-.09.85-.06.32-.14.66-.23,1.01-.09.35-.18.68-.28.98s-.17.56-.23.78c-.34.95-.8,1.8-1.4,2.56-.6.76-1.28,1.41-2.06,1.95-.78.53-1.62.95-2.54,1.24-.92.29-1.88.43-2.88.43h-15.83v-45.53h16.66ZM49.1,182.24c0,.37,0,.98.02,1.85s.03,1.8.05,2.79c.02.99.03,1.92.05,2.79.02.87.02,1.49.02,1.85h11.03c.46,0,.88-.12,1.26-.37.38-.24.72-.56,1.03-.94s.56-.79.78-1.24c.21-.44.35-.85.41-1.21,0-.21,0-.59.02-1.12.01-.53.03-1.09.05-1.67.01-.58.03-1.13.05-1.65.01-.52.02-.88.02-1.1v-20.96c-.09-1.34-.6-2.43-1.51-3.27-.92-.84-2.06-1.26-3.43-1.26h-9.7l-.14.27v25.21Z"/><path class="cls-1" d="M92.39,151.49c1.22,0,2.35.29,3.39.87,1.04.58,1.94,1.34,2.72,2.27s1.39,1.97,1.83,3.12c.44,1.14.66,2.28.66,3.41v35.73h-5.31v-36.51s-.08-.22-.23-.57c-.15-.35-.27-.62-.37-.8-.31-.61-.84-1.14-1.6-1.58-.76-.44-1.48-.66-2.15-.66h-10.39v40.09h-5.31v-45.35h16.75Z"/><path class="cls-1" d="M107.4,197.02v-45.21h5.35v45.21h-5.35Z"/><path class="cls-1" d="M119.34,160.36c0-1.01.24-2.04.71-3.09s1.1-2.01,1.88-2.86c.78-.85,1.66-1.56,2.65-2.1.99-.55,2.02-.82,3.09-.82h8.6c.55,0,1.14.12,1.78.37.64.24,1.21.49,1.69.73.76.4,1.45.92,2.06,1.58.61.66,1.14,1.37,1.58,2.15.44.78.78,1.6,1.01,2.47s.34,1.73.34,2.59v.05l-.14.28h-5.13c-.24-1.49-.72-2.66-1.44-3.5-.72-.84-1.88-1.32-3.5-1.44h-.5c-.24,0-.5,0-.78-.02-.28-.01-.53-.02-.78-.02h-.5c-.95,0-1.85.03-2.7.09-.85.06-1.62.25-2.29.57-.67.32-1.22.8-1.65,1.44-.43.64-.69,1.56-.78,2.75v20.55c0,.21,0,.6.02,1.14.01.55.03,1.14.05,1.76.02.63.03,1.21.05,1.74.02.53.02.91.02,1.12.09.43.25.85.48,1.28s.5.82.82,1.17.69.64,1.12.87c.43.23.87.34,1.33.34h7.28c.55,0,1.04-.17,1.49-.5.44-.33.82-.75,1.14-1.24s.56-1.01.73-1.58c.17-.56.25-1.07.25-1.53v-9.79h-7.51v-5.26h12.9v16.02c0,1.07-.18,2.07-.55,3.02-.37.95-.86,1.8-1.49,2.56-.63.76-1.37,1.42-2.22,1.97-.85.55-1.77.98-2.75,1.28-.12.06-.29.12-.5.18-.21.06-.43.11-.64.16-.21.05-.4.09-.57.14s-.27.07-.3.07h-6.86c-1.37,0-2.65-.27-3.84-.82-1.19-.55-2.22-1.3-3.09-2.24-.87-.94-1.54-2.03-2.01-3.25s-.71-2.52-.71-3.89l.14-26.45Z"/><path class="cls-1" d="M151.06,151.49h5.35v20h14.78v-20h5.4v45.53h-5.4v-20.13h-14.78v20.13h-5.35v-45.53Z"/><path class="cls-1" d="M192.56,197.02v-40.22h-10.07v-5.45h25.53v5.45h-10.11v40.22h-5.35Z"/><path class="cls-1" d="M236.81,161.83c0-2.07.48-3.98,1.44-5.72s2.45-3,4.46-3.8c.06-.03.19-.08.39-.14.2-.06.41-.13.64-.21.23-.08.45-.14.66-.21.21-.06.37-.11.46-.14.06-.03.22-.06.48-.09.26-.03.42-.05.48-.05h8.05c1.19,0,2.3.31,3.34.92s1.93,1.4,2.68,2.36c.75.96,1.34,2.01,1.78,3.16.44,1.14.66,2.27.66,3.36v35.74h-5.31v-20.13h-14.87v20.13h-5.35v-35.19ZM256.95,171.48v-9.93c0-.24-.04-.56-.14-.94-.09-.38-.18-.69-.28-.94-.34-.82-.74-1.44-1.21-1.85-.47-.41-1.01-.7-1.6-.87-.59-.17-1.24-.25-1.94-.25h-2.7c-.24,0-.5,0-.78.02-.28.02-.54.02-.78.02h-.5c-1.37.09-2.53.56-3.45,1.42-.93.85-1.4,1.98-1.4,3.39v9.93h14.78Z"/><path class="cls-1" d="M285.5,151.49c1.22,0,2.35.29,3.39.87s1.95,1.34,2.72,2.27,1.39,1.97,1.83,3.12c.44,1.14.66,2.28.66,3.41v7.15c0,1.31-.37,2.5-1.12,3.57-.75,1.07-1.72,1.85-2.91,2.34.61.18,1.17.48,1.67.89.5.41.93.9,1.28,1.47.35.57.62,1.17.8,1.81.18.64.27,1.27.27,1.88v16.63h-5.31v-16.11c0-.4-.13-.82-.39-1.26-.26-.44-.59-.85-.98-1.21-.4-.37-.82-.67-1.28-.92-.46-.24-.89-.37-1.28-.37h-10.8v19.86h-5.31v-45.4h16.75ZM274.11,171.39h10.89c.46,0,.91-.12,1.35-.37s.84-.56,1.19-.94.64-.8.87-1.26.34-.9.34-1.33v-6.75c0-.52-.13-1.02-.39-1.51-.26-.49-.6-.92-1.01-1.29-.41-.37-.88-.66-1.4-.87-.52-.21-1.02-.32-1.51-.32h-10.34v14.64Z"/><path class="cls-1" d="M300.47,151.35h15.33c1.34,0,2.63.24,3.87.73,1.24.49,2.32,1.17,3.25,2.04.93.87,1.68,1.89,2.24,3.07.57,1.17.85,2.46.85,3.87v35.97h-5.4v-35.6c0-.55-.11-1.1-.32-1.65-.21-.55-.51-1.04-.89-1.49-.38-.44-.83-.79-1.35-1.05s-1.07-.39-1.65-.39c-.03,0-.09,0-.18.02-.09.01-.15.02-.18.02l-.14,6.18v33.96h-5.35v-40.13h-4.71v40.13h-5.36v-45.67Z"/><path class="cls-1" d="M337.71,186.68c0,.64.11,1.27.34,1.88.23.61.54,1.14.94,1.6.4.46.88.82,1.44,1.1.56.28,1.18.41,1.85.41h5.63c.64,0,1.24-.13,1.79-.39s1.03-.6,1.44-1.03c.41-.43.74-.92.98-1.49s.37-1.17.37-1.81v-5.49c0-.7-.14-1.33-.41-1.88-.27-.55-.64-1.01-1.1-1.4-.46-.38-.98-.69-1.58-.92s-1.21-.36-1.85-.39c-1.07.03-2.23.05-3.5.07-1.26.01-2.5-.09-3.71-.32s-2.33-.62-3.39-1.17c-1.05-.55-1.92-1.37-2.59-2.47-.06-.09-.15-.24-.25-.46-.11-.21-.21-.42-.32-.62-.11-.2-.21-.39-.3-.57-.09-.18-.15-.31-.18-.37-.03-.03-.08-.14-.14-.32s-.12-.39-.18-.62c-.06-.23-.13-.46-.21-.69s-.13-.4-.16-.53c-.06-.15-.09-.31-.09-.46,0-.18-.06-.35-.18-.5v-3.07c0-1.07.01-2.17.04-3.3.03-1.13.18-2.22.46-3.27.28-1.05.7-2.02,1.28-2.91.58-.88,1.42-1.63,2.52-2.24.09-.03.25-.1.48-.21.23-.11.47-.22.71-.34s.47-.23.69-.32c.21-.09.35-.15.41-.18.03-.03.15-.07.37-.11.21-.05.44-.1.68-.16.24-.06.47-.11.69-.16.21-.05.35-.08.41-.11.09,0,.18-.05.27-.14h3.16c1.04,0,2.1,0,3.2-.02,1.1-.01,2.15.13,3.16.43,1.1.31,2.07.79,2.93,1.44.85.66,1.59,1.43,2.2,2.31.61.89,1.07,1.86,1.39,2.93.32,1.07.48,2.15.48,3.25h-5.4c0-1.01-.24-1.92-.73-2.75-.49-.82-1.22-1.43-2.2-1.83-.12-.03-.3-.08-.53-.14-.23-.06-.37-.09-.44-.09h-7.09c-.21,0-.47.06-.75.18-.29.12-.54.23-.76.32-.64.37-1.12.85-1.44,1.44-.32.59-.54,1.24-.66,1.92s-.18,1.4-.18,2.13v2.01c0,.73.01,1.4.05,2.01.03.61.14,1.17.32,1.69.18.52.48.99.89,1.42s.98.79,1.72,1.1c.58.24,1.16.37,1.74.37,1.56-.03,3.05-.04,4.49-.02,1.43.02,2.78.2,4.03.55s2.39.95,3.41,1.78c1.02.84,1.88,2.05,2.59,3.64.24.52.4,1.05.48,1.6.08.55.24,1.08.48,1.6v6.59c0,.98-.14,1.94-.43,2.88-.29.95-.7,1.82-1.24,2.61-.53.79-1.18,1.5-1.94,2.1-.76.61-1.62,1.07-2.56,1.37-.18.06-.43.14-.73.23-.31.09-.61.18-.92.28s-.57.17-.8.23c-.23.06-.36.09-.39.09h-6.86c-1.53,0-2.86-.27-4.01-.82s-2.12-1.3-2.93-2.24c-.81-.94-1.44-2.04-1.9-3.29s-.73-2.58-.82-3.98h5.35Z"/></g></svg>