<?xml version="1.0" encoding="UTF-8"?><svg id="Layer_2" xmlns="http://www.w3.org/2000/svg" viewBox="0 0 672 79.05"><defs><style>.cls-1{fill:#fff;stroke-width:0px;}</style></defs><g id="Layer_1-2"><rect class="cls-1" x="126.35" width="13.31" height="71.62"/><polygon class="cls-1" points="163.54 0 150.23 0 150.23 71.62 198.82 71.62 210.68 58.31 163.54 58.31 163.54 0"/><path class="cls-1" d="M428.52,58.31h-36.93c-2.94,0-5.32-2.38-5.32-5.32V0l-13.31,13v39.83c0,10.38,8.41,18.79,18.79,18.79h50.08V0h-13.31v58.31Z"/><path class="cls-1" d="M234.9,13.31h44.47l12.66-13.31h-60.51c-7.76,0-14.05,6.29-14.05,14.05v57.57h13.31v-25.78h22.18l12.66-13.31h-34.84v-15.11c0-2.27,1.84-4.12,4.12-4.12Z"/><path class="cls-1" d="M309.5,13.31h49.93l12.66-13.31h-61.79c-10.09,0-18.27,8.18-18.27,18.27v35.09c0,10.09,8.18,18.27,18.27,18.27h32.34c10.09,0,18.27-8.18,18.27-18.27v-20.82h-35.49l-8.02,13.31h30.21v8.31c0,2.3-1.86,4.16-4.16,4.16h-33.94c-2.3,0-4.16-1.86-4.16-4.16V17.47c0-2.3,1.86-4.16,4.16-4.16Z"/><polygon class="cls-1" points="494.99 0 447.83 71.62 463.02 71.62 498.98 17 498.98 48.28 489.77 48.28 481.75 61.59 498.98 61.59 498.98 71.62 512.29 71.62 512.29 0 494.99 0"/><polygon class="cls-1" points="98.49 0 64.45 51.69 64.45 0 47.15 0 0 71.62 15.18 71.62 51.14 17 51.14 71.62 51.14 71.62 51.14 71.62 66.52 71.62 102.48 17 102.48 71.62 102.48 71.62 102.48 71.62 115.79 71.62 115.79 71.62 115.79 0 98.49 0"/><path class="cls-1" d="M592.14,39.19v-20.92c0-10.09-8.18-18.27-18.27-18.27h-50.61v71.62h13.31V13.31h38.1c2.3,0,4.16,1.86,4.16,4.16v22.52c0,2.3-1.86,4.16-4.16,4.16h-19.14s22.99,34.91,22.99,34.91h15.18l-14.7-22.34c7.59-2.22,13.14-9.22,13.14-17.52Z"/><path class="cls-1" d="M653.74,0h-50.61v48.82l13.31-13.01V13.31h38.1c2.3,0,4.16,1.86,4.16,4.16v36.69c0,2.3-1.86,4.16-4.16,4.16h-32.75l8.63,13.31h23.32c10.09,0,18.27-8.18,18.27-18.27V18.27c0-10.09-8.18-18.27-18.27-18.27Z"/></g></svg>