<?xml version="1.0" encoding="UTF-8"?><svg id="Layer_2" xmlns="http://www.w3.org/2000/svg" viewBox="0 0 238.92 31.11"><defs><style>.cls-1{fill:#fff;stroke-width:0px;}</style></defs><g id="Layer_1-2"><polygon class="cls-1" points="29.39 0 29.26 .17 20.45 11.36 11.51 0 0 0 0 31.11 3.4 31.11 3.4 3.4 9.85 3.4 20.45 16.86 31.04 3.4 37.5 3.4 37.5 31.11 40.9 31.11 40.9 0 29.39 0"/><polygon class="cls-1" points="31.92 4.53 20.45 19.11 9.01 4.53 4.7 4.53 4.7 31.11 8.1 31.11 8.1 9.69 20.1 24.93 20.45 25.37 20.8 24.93 32.79 9.69 32.79 31.11 36.2 31.11 36.2 4.53 31.92 4.53"/><rect class="cls-1" x="45.25" width="3.4" height="31.11"/><rect class="cls-1" x="49.95" width="3.4" height="31.11"/><rect class="cls-1" x="105.63" width="31.11" height="3.4"/><polygon class="cls-1" points="105.63 4.7 105.63 8.1 117.13 8.1 117.13 31.11 120.53 31.11 120.53 4.7 105.63 4.7"/><rect class="cls-1" x="155.45" y="13.86" width="12.57" height="3.4"/><rect class="cls-1" x="93.17" width="3.4" height="31.11"/><rect class="cls-1" x="97.87" width="3.4" height="31.11"/><rect class="cls-1" x="207.31" width="3.4" height="31.11"/><polygon class="cls-1" points="230.82 0 230.82 11.54 215.42 11.54 215.42 0 212.02 0 212.02 14.95 234.22 14.95 234.22 0 230.82 0"/><rect class="cls-1" x="235.52" width="3.4" height="31.11"/><polygon class="cls-1" points="121.84 4.7 121.84 31.11 125.24 31.11 125.24 8.1 136.68 8.1 136.68 4.7 121.84 4.7"/><polygon class="cls-1" points="145.79 4.7 145.79 26.41 168.02 26.41 168.02 23.01 149.19 23.01 149.19 8.1 168.42 8.1 168.42 4.7 145.79 4.7"/><polygon class="cls-1" points="61.11 27.71 61.11 0 57.71 0 57.71 31.11 88.82 31.11 88.82 27.71 61.11 27.71"/><polygon class="cls-1" points="65.81 23.18 65.81 0 62.41 0 62.41 26.58 88.99 26.58 88.99 23.18 65.81 23.18"/><polygon class="cls-1" points="141.09 0 141.09 31.11 168.02 31.11 168.02 27.71 144.49 27.71 144.49 3.4 168.42 3.4 168.42 0 141.09 0"/><polygon class="cls-1" points="212.02 16.09 212.02 31.11 215.42 31.11 215.42 19.49 230.82 19.49 230.82 31.11 234.22 31.11 234.22 16.09 212.02 16.09"/><path class="cls-1" d="M179.14,4.7c-1.14,0-2.06.93-2.06,2.06v17.09c0,1.41,1.15,2.56,2.56,2.56h22.93s0-3.4,0-3.4h-21.16c-.61,0-.89-.13-.89-.93v-13.05c0-.79.27-.93.89-.93h21.56v-3.4h-23.82Z"/><path class="cls-1" d="M202.96,0h-25.72c-2.68,0-4.87,2.18-4.87,4.87v21.38c0,2.68,2.18,4.87,4.87,4.87h25.32s0-3.4,0-3.4h-23.86c-2,0-2.93-.93-2.93-2.93V6.33c0-2.11.82-2.93,2.93-2.93h24.26V0Z"/></g></svg>