<?xml version="1.0" encoding="UTF-8"?><svg id="Layer_2" xmlns="http://www.w3.org/2000/svg" viewBox="0 0 91.21 104.76"><defs><style>.cls-1{fill:#e9d32c;stroke-width:0px;}</style></defs><g id="Layer_1-2"><polygon class="cls-1" points="11.22 86.25 11.17 86.31 7.81 90.59 4.39 86.25 0 86.25 0 98.13 1.3 98.13 1.3 87.55 3.76 87.55 7.81 92.68 11.85 87.55 14.31 87.55 14.31 98.13 15.61 98.13 15.61 86.25 11.22 86.25"/><polygon class="cls-1" points="12.18 87.98 7.81 93.54 3.44 87.98 1.8 87.98 1.8 98.13 3.09 98.13 3.09 89.95 7.67 95.77 7.81 95.93 7.94 95.77 12.52 89.95 12.52 98.13 13.82 98.13 13.82 87.98 12.18 87.98"/><rect class="cls-1" x="17.27" y="86.25" width="1.3" height="11.88"/><rect class="cls-1" x="19.07" y="86.25" width="1.3" height="11.88"/><rect class="cls-1" x="40.32" y="86.25" width="11.88" height="1.3"/><polygon class="cls-1" points="40.32 88.04 40.32 89.34 44.71 89.34 44.71 98.13 46.01 98.13 46.01 88.04 40.32 88.04"/><rect class="cls-1" x="59.34" y="91.54" width="4.8" height="1.3"/><rect class="cls-1" x="35.57" y="86.25" width="1.3" height="11.88"/><rect class="cls-1" x="37.36" y="86.25" width="1.3" height="11.88"/><rect class="cls-1" x="79.14" y="86.25" width="1.3" height="11.88"/><polygon class="cls-1" points="88.11 86.25 88.11 90.66 82.23 90.66 82.23 86.25 80.93 86.25 80.93 91.95 89.41 91.95 89.41 86.25 88.11 86.25"/><rect class="cls-1" x="89.91" y="86.25" width="1.3" height="11.88"/><polygon class="cls-1" points="46.51 88.04 46.51 98.13 47.81 98.13 47.81 89.34 52.18 89.34 52.18 88.04 46.51 88.04"/><polygon class="cls-1" points="55.66 88.04 55.66 96.33 64.14 96.33 64.14 95.03 56.95 95.03 56.95 89.34 64.29 89.34 64.29 88.04 55.66 88.04"/><polygon class="cls-1" points="23.33 96.83 23.33 86.25 22.03 86.25 22.03 98.13 33.91 98.13 33.91 96.83 23.33 96.83"/><polygon class="cls-1" points="25.12 95.1 25.12 86.25 23.82 86.25 23.82 96.4 33.97 96.4 33.97 95.1 25.12 95.1"/><polygon class="cls-1" points="53.86 86.25 53.86 98.13 64.14 98.13 64.14 96.83 55.16 96.83 55.16 87.55 64.29 87.55 64.29 86.25 53.86 86.25"/><polygon class="cls-1" points="80.93 92.39 80.93 98.13 82.23 98.13 82.23 93.69 88.11 93.69 88.11 98.13 89.41 98.13 89.41 92.39 80.93 92.39"/><path class="cls-1" d="M68.38,88.04c-.43,0-.79.35-.79.79v6.52c0,.54.44.98.98.98h8.75s0-1.3,0-1.3h-8.08c-.23,0-.34-.05-.34-.35v-4.98c0-.3.1-.35.34-.35h8.23v-1.3h-9.09Z"/><path class="cls-1" d="M77.48,86.25h-9.82c-1.02,0-1.86.83-1.86,1.86v8.16c0,1.02.83,1.86,1.86,1.86h9.67s0-1.3,0-1.3h-9.11c-.76,0-1.12-.36-1.12-1.12v-7.04c0-.81.31-1.12,1.12-1.12h9.26v-1.3Z"/><path class="cls-1" d="M89.21,2v77.63H2V2h87.21M45.6,60.06c.81,0,1.54-.49,1.85-1.23l18.79-45.11c.26-.62.19-1.32-.18-1.88-.37-.56-1-.89-1.66-.89H26.82c-.67,0-1.29.33-1.66.89-.37.56-.44,1.26-.18,1.88l18.79,45.11c.31.75,1.04,1.23,1.85,1.23M57.05,70.68h22.08c1.1,0,2-.9,2-2V15.66c0-.95-.67-1.77-1.61-1.96-.13-.03-.26-.04-.39-.04-.79,0-1.53.47-1.85,1.23l-22.08,53.02c-.26.62-.19,1.32.18,1.88.37.56,1,.89,1.66.89M12.07,70.68h22.08c.67,0,1.29-.33,1.66-.89.37-.56.44-1.26.18-1.88L13.92,14.89c-.32-.76-1.05-1.23-1.85-1.23-.13,0-.26.01-.39.04-.93.19-1.61,1.01-1.61,1.96v53.02c0,1.1.9,2,2,2M91.21,0H0v81.63h91.21V0h0ZM45.6,58.06L26.82,12.95h37.57l-18.79,45.11h0ZM57.05,68.68l22.08-53.02v53.02h-22.08ZM12.07,68.68V15.66l22.08,53.02H12.07Z"/><rect class="cls-1" y="102.76" width="91.21" height="2"/></g></svg>