<?xml version="1.0" encoding="UTF-8"?><svg id="Layer_2" xmlns="http://www.w3.org/2000/svg" viewBox="0 0 272.02 234.38"><defs><style>.cls-1{fill:#fff;}</style></defs><g id="Layer_1-2"><path class="cls-1" d="M134.96,167.24c7.61,3.28,16,5.1,24.8,5.1,34.69,0,62.92-28.23,62.92-62.92,0-20.42-9.79-38.59-24.91-50.1C195.9,26.3,168.44,0,134.96,0s-60.94,26.3-62.81,59.33c-15.12,11.5-24.91,29.67-24.91,50.1,0,34.69,28.23,62.92,62.92,62.92,8.8,0,17.18-1.82,24.8-5.1ZM209.7,109.42c0,27.54-22.4,49.94-49.94,49.94-3.46,0-6.83-.35-10.09-1.02,13.39-10.84,22.27-27.05,23.3-45.32,11.88-9.03,20.46-22.18,23.6-37.31,8.15,8.89,13.13,20.73,13.13,33.71ZM111.22,121.18c7.33,3,15.34,4.66,23.73,4.66s16.41-1.67,23.73-4.66c-3.26,13.48-12.01,24.83-23.73,31.57-11.73-6.74-20.47-18.09-23.73-31.57ZM85.14,66.23c7.36-4.28,15.91-6.75,25.02-6.75,3.46,0,6.83.35,10.09,1.02-11.1,8.98-19.1,21.65-22.1,36.13-7.45-8.13-12.24-18.73-13.01-30.4ZM171.77,96.63c-3-14.48-11-27.15-22.1-36.13,3.26-.67,6.63-1.02,10.09-1.02,9.11,0,17.66,2.47,25.02,6.75-.77,11.68-5.56,22.28-13.01,30.4ZM159.98,106.11c-7.36,4.28-15.91,6.75-25.02,6.75s-17.66-2.47-25.02-6.75c1.13-17.12,10.92-31.91,25.02-40.02,14.11,8.11,23.9,22.89,25.02,40.01ZM134.96,12.98c23.49,0,43.23,16.31,48.53,38.19-7.33-3-15.34-4.66-23.73-4.66s-17.18,1.82-24.8,5.1c-7.61-3.28-16-5.1-24.8-5.1s-16.41,1.67-23.73,4.66c5.3-21.88,25.04-38.19,48.53-38.19ZM60.22,109.42c0-12.98,4.98-24.82,13.13-33.71,3.14,15.12,11.72,28.27,23.6,37.31,1.03,18.28,9.91,34.49,23.3,45.32-3.26.67-6.63,1.02-10.09,1.02-27.54,0-49.94-22.4-49.94-49.94Z"/><polygon class="cls-1" points="177.61 196 148 196 148 205.73 157.53 205.73 157.53 234.38 168.08 234.38 168.08 205.73 177.61 205.73 177.61 196"/><polygon class="cls-1" points="70.29 196 70.29 206.11 85.09 206.11 70.29 234.38 103.41 234.38 103.41 224.27 88.87 224.27 103.41 196 70.29 196"/><rect class="cls-1" x="19.53" y="210.41" width="10.54" height="23.97"/><rect class="cls-1" x="54.94" y="195.99" width="10.54" height="38.39"/><rect class="cls-1" x="261.47" y="195.99" width="10.54" height="38.39"/><path class="cls-1" d="M189.4,196l-14.96,38.38h44.25l-14.96-38.38h-14.34ZM190.24,223.91l6.33-16.24,6.33,16.24h-12.67Z"/><path class="cls-1" d="M132.8,224.65h-13.25v-28.65h-10.54v31.3c0,3.91,3.17,7.08,7.08,7.08h27.25v-38.39h-10.54v28.65Z"/><path class="cls-1" d="M248.71,195.99h-27.25v38.39h10.54v-28.65h13.25v28.65h10.54v-31.3c0-3.91-3.17-7.08-7.08-7.08Z"/><path class="cls-1" d="M42.52,196H0s0,38.38,0,38.38h10.54v-28.65h28.52v28.64h10.54v-31.3c0-3.91-3.18-7.07-7.09-7.07Z"/></g></svg>