<?xml version="1.0" encoding="UTF-8"?><svg id="Layer_2" xmlns="http://www.w3.org/2000/svg" viewBox="0 0 418.22 102.03"><defs><style>.cls-1{fill:#fff;}</style></defs><g id="Layer_1-2"><rect class="cls-1" width="86.22" height="33.33"/><path class="cls-1" d="M259.67,0h50.78C323.69,0,334.44,10.75,334.44,24h0c0,13.25-10.75,24-24,24h-50.78V0h0Z"/><rect class="cls-1" y="42.67" width="22.22" height="33.33"/><rect class="cls-1" x="32" y="42.67" width="22.22" height="33.33"/><rect class="cls-1" x="64" y="42.67" width="22.22" height="33.33"/><rect class="cls-1" x="320.89" y="21.33" width="76" height="33.33" transform="translate(320.89 396.89) rotate(-90)"/><rect class="cls-1" x="391.76" y="49.54" width="19.59" height="33.33" transform="translate(335.35 467.76) rotate(-90)"/><rect class="cls-1" x="391.76" y="21.33" width="19.59" height="33.33" transform="translate(363.56 439.56) rotate(-90)"/><rect class="cls-1" x="391.76" y="-6.87" width="19.59" height="33.33" transform="translate(391.76 411.35) rotate(-90)"/><rect class="cls-1" x="259.67" y="56.67" width="32.11" height="19.33"/><rect class="cls-1" x="302.33" y="56.67" width="32.11" height="19.33"/><circle class="cls-1" cx="131.78" cy="38" r="38"/><circle class="cls-1" cx="214" cy="38" r="38"/><path class="cls-1" d="M8.12,102.03v-13.2H0v-2.29h18.94v2.29h-7.9v13.2h-2.93Z"/><path class="cls-1" d="M38.06,102.03v-15.49h15.93v2.29h-13v3.87h12.34v2.29h-12.34v4.75h13v2.29h-15.93Z"/><path class="cls-1" d="M78.38,102.03c-3.52,0-4.86-1.52-4.86-3.74v-8.01c0-2.22,1.34-3.74,4.86-3.74h12.47v2.29h-12.47c-1.32,0-1.94.51-1.94,1.43v8.05c0,.92.62,1.43,1.94,1.43h12.47v2.29h-12.47Z"/><path class="cls-1" d="M126.07,102.03v-7.04h-12.67v7.04h-2.93v-15.49h2.93v6.16h12.67v-6.16h2.93v15.49h-2.93Z"/><path class="cls-1" d="M168.09,102.03l-16.52-12.06v12.06h-2.55v-15.49h2.53l15.42,11.51v-11.51h2.55v15.49h-1.43Z"/><path class="cls-1" d="M194.28,102.03c-3.52,0-4.86-1.52-4.86-3.74v-8.01c0-2.22,1.34-3.74,4.86-3.74h10.23c3.52,0,4.86,1.52,4.86,3.74v8.01c0,2.22-1.34,3.74-4.86,3.74h-10.23ZM206.45,90.26c0-.92-.62-1.43-1.94-1.43h-10.23c-1.32,0-1.94.51-1.94,1.43v8.05c0,.92.62,1.43,1.94,1.43h10.23c1.32,0,1.94-.51,1.94-1.43v-8.05Z"/><path class="cls-1" d="M229.28,102.03v-15.49h2.95v13.2h12.56v2.29h-15.51Z"/><path class="cls-1" d="M268.33,102.03c-3.52,0-4.86-1.52-4.86-3.74v-8.01c0-2.22,1.34-3.74,4.86-3.74h10.23c3.52,0,4.86,1.52,4.86,3.74v8.01c0,2.22-1.34,3.74-4.86,3.74h-10.23ZM280.49,90.26c0-.92-.62-1.43-1.94-1.43h-10.23c-1.32,0-1.94.51-1.94,1.43v8.05c0,.92.62,1.43,1.94,1.43h10.23c1.32,0,1.94-.51,1.94-1.43v-8.05Z"/><path class="cls-1" d="M308.74,102.03c-3.67,0-5.52-1.12-5.52-3.34v-8.8c0-2.22,1.85-3.34,5.52-3.34h12.12v2.29h-12.12c-1.74,0-2.6.35-2.6,1.06v8.8c0,.7.86,1.06,2.6,1.06h6.84c1.74,0,2.6-.33,2.6-1.01v-5.15h2.93v5.15c0,2.2-1.85,3.3-5.52,3.3h-6.84Z"/><path class="cls-1" d="M341.07,102.03v-15.49h2.93v15.49h-2.93Z"/><path class="cls-1" d="M364.13,102.03v-15.49h15.93v2.29h-13v3.87h12.34v2.29h-12.34v4.75h13v2.29h-15.93Z"/><path class="cls-1" d="M399.89,102.03v-2.29h13.46c1.32,0,1.94-.51,1.94-1.43v-1.96c0-.92-.62-1.43-1.94-1.43h-9.11c-3.52,0-4.86-1.52-4.86-3.74v-.9c0-2.22,1.34-3.74,4.86-3.74h13.11v2.29h-13.11c-1.32,0-1.94.51-1.94,1.43v.95c0,.92.62,1.43,1.94,1.43h9.11c3.52,0,4.86,1.52,4.86,3.74v1.91c0,2.22-1.34,3.74-4.86,3.74h-13.46Z"/></g></svg>