<?xml version="1.0" encoding="UTF-8"?><svg id="Layer_2" xmlns="http://www.w3.org/2000/svg" viewBox="0 0 292.67 169.7"><defs><style>.cls-1{fill:#fff;stroke-width:0px;}</style></defs><g id="Layer_1-2"><path class="cls-1" d="M73.02,72.87c.43-1.13,1-2.3,1.73-3.51.73-1.21,1.39-1.87,2-1.98.41-.07.7.42.89,1.46.19,1.05-.1,5.16-.87,12.33-.77,7.17-.98,11.69-.65,13.55.33,1.87.78,2.97,1.34,3.32.56.35,1.61.39,3.16.11,1.55-.27,2.54-1.08,2.98-2.43,1.71-5.1,5.04-11.66,10-19.68,4.96-8.02,8.4-12.2,10.33-12.55.76-.14,1.19.05,1.28.56.09.51-.35,1.88-1.31,4.11-7.4,17.55-10.73,28.39-9.99,32.52.32,1.79,2.99,2.24,8.01,1.34.96-.17,1.6-.73,1.9-1.68-.35-1.99.03-5.29,1.15-9.89,1.12-4.6,2.6-9.5,4.45-14.7,1.85-5.2,5.18-16.23,8.68-22.93,15.77-30.22,46.06-46.44,73.18-40.12.6.14.89-.71.32-.96-49.61-21.22-83.89,35.61-83.89,35.61,0,0-3.82,5.55-5.79,8.67-3.33,5.12-6.31,9.54-8.95,13.25-2.64,3.71-4.59,5.68-5.86,5.9-.41.07-.73-.55-.96-1.88-.24-1.33.06-5.45.9-12.37.84-6.92,1.21-10.64,1.12-11.15-.09-.51-.39-.88-.9-1.1-1.16-.64-2.8-.77-4.93-.39l-2.51.45c-1.37.24-3.06.83-5.06,1.77-2.01.94-2.93,1.86-2.76,2.78l.16.92c.36,2.04.17,4.34-.58,6.9-3.17,10.73-8.23,24.76-15.2,42.06-1.88,4.71-2.78,7.32-2.69,7.83l.04.23c.14.77,1.05,1,2.75.7,1.7-.3,2.95-.87,3.74-1.69.79-.83,1.59-2.59,2.4-5.29.8-2.7,2.06-6.95,3.77-12.76,1.71-5.81,3.72-11.66,6.02-17.55l.63-1.77Z"/><path class="cls-1" d="M136.04,84.83c.25-.05.45-.26.59-.66,1.67-6.51,4.01-12.89,7.04-19.11.31-.63.49-1.09.54-1.36-.16-.92-1.4-1.17-3.71-.76-2.31.41-3.93,1.49-4.88,3.24l-.52,1.04c-2.93,2.37-5.36,4.59-7.29,6.67-.8.78-1.31,1.18-1.51,1.22-.36.06-.57-.14-.66-.6-.08-.46.31-1.64,1.18-3.53.87-1.89,1.25-3.13,1.14-3.72-.1-.59-.85-.76-2.25-.51-1.4.25-2.6.75-3.62,1.51-1.51.9-3.98,6.25-7.39,16.05-3.41,9.8-4.99,15.39-4.75,16.77.11.61.85.8,2.22.55,2.69-.48,4.33-1.56,4.92-3.25.97-2.81,2.09-5.63,3.36-8.46,1.27-2.83,2.97-5.67,5.08-8.49,2.11-2.83,4.16-4.41,6.14-4.77.51-.09.82.2.94.86-.39,1.33-.5,2.47-.33,3.42.17.95.59,1.87,1.28,2.78.68.91,1.51,1.27,2.47,1.1Z"/><path class="cls-1" d="M129.61,87.95c-1.42.25-2.69,1.07-3.8,2.45-1.12,1.38-1.56,2.69-1.34,3.91.33,1.84,1.86,2.51,4.6,2.03,1.47-.26,2.76-1.07,3.88-2.43,1.12-1.36,1.56-2.7,1.32-4.03-.32-1.79-1.87-2.43-4.66-1.94Z"/><path class="cls-1" d="M188.33,59.61c-1.72-2.15-3.49-3.86-5.31-5.14-1.82-1.28-3.55-2.74-5.17-4.38-1.62-1.63-2.59-3.31-2.89-5.02-.3-1.71.11-3.3,1.23-4.76,1.13-1.46,2.32-2.52,3.6-3.17,1.27-.65,2.55-1.09,3.85-1.32,1.29-.23,2.62-.06,3.98.52,1.36.58,2.16,1.58,2.42,3.01.46,2.6.32,5.03-.43,7.27-.25.68-.36,1.07-.34,1.17.11.61.85.8,2.22.55,1.67-.3,3.75-3.24,6.24-8.82,2.49-5.58,3.6-9.08,3.35-10.51-.15-.87-1.12-1.14-2.89-.83-1.78.32-3.35,1.04-4.71,2.18-.23.2-.42.31-.57.34-.15.03-.56,0-1.23-.1-.67-.09-1.65-.14-2.93-.15-1.28,0-3.22.22-5.8.68s-5.45,1.55-8.6,3.27c-1.86,1.02-3.48,2.16-4.84,3.43-1.37,1.27-2.43,2.84-3.16,4.71-.74,1.87-.93,3.79-.59,5.76.35,1.97,1.39,3.86,3.13,5.69,1.74,1.82,3.56,3.4,5.47,4.72,1.91,1.32,3.75,3.01,5.53,5.06,1.78,2.06,2.86,4.19,3.26,6.42.4,2.22.29,4.26-.33,6.1-.61,1.85-1.55,3.33-2.82,4.45-1.27,1.12-2.58,2.01-3.96,2.68-1.37.67-2.88,1.15-4.53,1.44-1.65.29-3.13.07-4.44-.67-1.31-.74-2.19-1.55-2.63-2.42-.44-.87-.78-1.98-1.02-3.34-.24-1.35-.19-3.04.16-5.05.35-2.01.76-3.65,1.24-4.92.48-1.27.71-1.96.69-2.06-.1-.56-.66-.75-1.67-.57-1.01.18-1.98.77-2.9,1.78-2.14,2.38-4.31,6.65-6.51,12.82-2.2,6.16-3.18,9.91-2.95,11.23.17.97,1.08,1.31,2.73,1.02,1.65-.29,3.23-.86,4.76-1.72,1.52-.85,2.41-1.3,2.66-1.34.25-.04.49-.03.71.03,2.18.77,5.17.82,8.97.14,6.9-1.23,12.24-4.06,16.03-8.5,3.79-4.44,5.2-9.37,4.24-14.78-.44-2.45-1.51-4.75-3.23-6.9Z"/><path class="cls-1" d="M216.46,38.44c.36-.91.63-1.48.79-1.72.17-.24.52-.62,1.05-1.14.54-.52,1.21-.9,2.03-1.15.82-.25,2.13-.54,3.93-.86,1.8-.32,3.22-1.07,4.27-2.26.39-.44.71-.92.96-1.44.25-.52.39-.94.44-1.26.05-.32.05-.59.02-.79-.04-.2-.31-.26-.82-.17l-3.7.82c-1.72.31-2.9.49-3.51.55-1.52.27-2.36-.02-2.51-.86-.15-.84.62-3.13,2.31-6.85,1.69-3.73,2.5-5.79,2.43-6.2-.12-.66-.71-.9-1.77-.71-3.09.55-5.12,1.81-6.08,3.77-1.53,3.17-3.14,5.83-4.82,7.97-1.69,2.14-3.1,3.58-4.26,4.31-1.15.73-2.28,1.46-3.38,2.18-1.1.72-1.88,1.48-2.34,2.27-.46.79-.64,1.5-.53,2.11.11.61.49.86,1.15.74l2.51-.45c1.52-.27,2.6-.37,3.24-.3.64.07,1.03.48,1.16,1.22.13.74-1.29,4.79-4.28,12.14-2.98,7.36-5.93,14.82-8.85,22.4-2.92,7.58-4.25,12.06-4.01,13.44.25,1.38,1.17,2.61,2.78,3.7,1.61,1.08,2.8,1.56,3.59,1.42.79-.14,1.21-.48,1.27-1.02.45-5.98,2.75-14.74,6.9-26.28,4.15-11.54,7.23-19.44,9.25-23.7.15-.34.4-.97.77-1.88Z"/><path class="cls-1" d="M244.6,47.51c-.11-.61-.92-.78-2.45-.51-2.79.5-4.65,1.78-5.6,3.84-3.52,7-6.44,12.18-8.77,15.55-2.33,3.37-4.59,5.24-6.77,5.63-1.17.21-1.9-.53-2.2-2.22-.3-1.69.15-4.37,1.35-8.07,1.2-3.69,2.48-7.01,3.84-9.97,1.36-2.95,2.02-4.53,1.98-4.74-.11-.61-.72-.82-1.84-.62-1.12.2-1.99.46-2.61.78-1.89.86-3.79,3.53-5.72,8.01-1.92,4.48-3.38,9.07-4.38,13.78-.99,4.71-1.34,7.93-1.03,9.67.31,1.74.92,2.84,1.84,3.31.92.47,1.89.61,2.9.43,2.23-.4,4.28-1.38,6.15-2.95,1.87-1.57,4.16-4.26,6.89-8.06l1.05-.74.15-.03c.25-.05.41.11.48.47l.21,2.97c.58,3.27,1.89,4.72,3.91,4.36l.23-.04c.3-.05.5-.41.6-1.05.67-5.65,3.89-15.37,9.65-29.14.11-.28.15-.5.12-.65Z"/><path class="cls-1" d="M290.39.08c-4.51.8-7.13,2.43-7.84,4.87-.84,2.94-3.92,11.66-9.24,26.15-2.29,6.26-3.67,9.83-4.13,10.73-.47.9-.82,1.37-1.04,1.41-.23.04-.84-.02-1.84-.19-1-.16-2.05-.15-3.17.05-8.01,1.42-13.94,6.62-17.79,15.57-2.45,5.65-3.33,10.42-2.64,14.3.35,1.94,1.01,3.23,1.98,3.88.98.64,1.97.87,2.99.69,3.3-.59,6.75-3.39,10.36-8.4.39-.44.74-.69,1.05-.74l.67.67.12,1.56c.49,2.76,1.95,3.92,4.39,3.49l.15-.03c.35-.06.58-.42.67-1.07.72-5.66,4.21-16.32,10.48-31.98,2.3-6.78,4.92-13.47,7.85-20.05,2.94-6.58,5.23-11.49,6.88-14.74,1.65-3.24,2.44-5.02,2.39-5.33-.15-.82-.9-1.1-2.27-.86ZM263.8,54.88c-1.55,3.04-3.46,6-5.72,8.88-2.26,2.88-4.1,4.44-5.52,4.7-1.07.19-1.73-.48-2.01-2.01-.51-2.86.5-6.6,3.03-11.21,2.53-4.61,5.26-7.18,8.2-7.7,1.27-.23,2.25-.16,2.94.19.69.35,1.1.87,1.22,1.56.12.69-.59,2.56-2.14,5.6Z"/><path class="cls-1" d="M18.69,66.46C10.82,56.17.33,34.04,24.42,20.16c23.57-13.58,46.17,6.58,50.07,14.67,2.63,5.46,10.84,1.41,10.66-1.08,0,0-14.48-34.31-60.67-18.46-35.45,12.17-30.08,47.16,1.28,66.21,16.96,10.3,19.98,15.05,21.2,15.66s6.46.43,6.82-1.49c.37-1.92-24.36-15.2-35.09-29.21Z"/><path class="cls-1" d="M133.48,104.08c-7.8,6.94-24.52,22.07-40.35,40.7,0,0-5.83-18.79-20.95-28.87-1.83-1.22-1.58,2.19-.37,3.65s16.81,15.72,16.2,34.72c0,0-2.67,6.7-2.86,8.28-.19,1.58,5.17,8.28,7.37,6.94,1.12-.68,9.04-19.29,26.24-37.92,16.47-17.84,38.67-33.42,38.67-34.38,0-1.95-16.15-.08-23.94,6.86Z"/></g></svg>