<?xml version="1.0" encoding="UTF-8"?><svg id="Layer_2" xmlns="http://www.w3.org/2000/svg" viewBox="0 0 415.48 117.8"><defs><style>.cls-1{fill:#fff;}</style></defs><g id="Layer_1-2"><path class="cls-1" d="M12.8,111.85h-3.31l-6.05-15.89c.16.77.24,1.38.24,1.82v14.07H0v-25.25h3.31l6.05,15.57c-.16-.77-.24-1.38-.24-1.82v-13.75h3.68v25.25Z"/><path class="cls-1" d="M22.7,93.21h-3.69v-3.81h3.69v3.81ZM22.67,111.85h-3.63v-16.3h3.63v16.3Z"/><path class="cls-1" d="M39.53,115.78c0,1.34-.69,2.02-2.08,2.02h-6.42c-1.39,0-2.08-.67-2.08-2.02v-2.61h3.57v1.95h3.34v-3.37h-3.79c-1.03,0-1.85-.29-2.46-.87s-.91-1.38-.91-2.4v-9.97c0-.94.26-1.67.79-2.21s1.25-.81,2.18-.81c.46,0,1.86.22,4.2.66v-.6h3.68v20.23ZM35.85,108.78v-10.02c-1.24-.13-2.01-.19-2.31-.19-.8,0-1.19.39-1.19,1.18v7.81c0,.82.41,1.23,1.23,1.23h2.28Z"/><path class="cls-1" d="M56.38,111.85h-3.71v-13.21l-3.47.06v13.15h-3.69v-25.25h3.69v9.55c.86-.13,1.72-.26,2.58-.4,1.09-.17,1.95-.26,2.58-.26,1.34,0,2.02.66,2.02,1.98v14.38Z"/><path class="cls-1" d="M69.37,111.85h-4.1c-1.37,0-2.05-.67-2.05-2.02v-11.13h-1.74v-3.15h1.74v-4.42h3.68v4.42h2.37v3.15h-2.37v10h2.47v3.15Z"/><path class="cls-1" d="M97.45,109.54c0,1.54-.77,2.31-2.31,2.31h-7.87c-1.5,0-2.24-.77-2.24-2.31v-20.62c0-1.55.75-2.32,2.24-2.32h7.87c1.54,0,2.31.77,2.31,2.32v5.91h-3.76v-4.99h-4.89v18.77h4.89v-5.31h3.76v6.24Z"/><path class="cls-1" d="M107.29,93.21h-3.69v-3.81h3.69v3.81ZM107.26,111.85h-3.63v-16.3h3.63v16.3Z"/><path class="cls-1" d="M120.34,111.85h-4.1c-1.37,0-2.05-.67-2.05-2.02v-11.13h-1.74v-3.15h1.74v-4.42h3.68v4.42h2.37v3.15h-2.37v10h2.47v3.15Z"/><path class="cls-1" d="M136.73,95.55l-4.08,16.09-1.57,6.16h-3.78l1.69-6.08-4.13-16.17h3.79l2.15,10.71,2.15-10.71h3.78Z"/><path class="cls-1" d="M164.96,111.85h-3.74l-.76-4.79h-4.73l-.76,4.79h-3.73v-.06l4.89-25.22h3.97l4.86,25.28ZM159.93,103.81l-1.84-11.39-1.86,11.39h3.69Z"/><path class="cls-1" d="M180.47,102.36h-3.66v-3.73l-2.92.06v13.15h-3.69v-16.3h3.69v.6c.76-.14,1.52-.28,2.28-.42.91-.16,1.68-.24,2.29-.24,1.34,0,2.02.66,2.02,1.98v4.89Z"/><path class="cls-1" d="M196.39,109.83c0,1.34-.69,2.02-2.08,2.02h-6.37c-1.39,0-2.08-.67-2.08-2.02v-12.26c0-1.34.69-2.02,2.08-2.02h6.37c1.39,0,2.08.67,2.08,2.02v5.99l-1.02,1.02h-5.99v4.57h3.47v-2.71h3.53v3.4ZM192.85,102.17v-3.9h-3.47v3.9h3.47Z"/><path class="cls-1" d="M212.87,111.85h-3.53v-.56l-2.52.39c-1.1.16-1.93.24-2.5.24-1.34,0-2.02-.66-2.02-1.98v-5.87c0-1.34.69-2.02,2.08-2.02h4.99v-3.74h-3.53v2.32h-3.34v-3.05c0-1.34.69-2.02,2.08-2.02h6.24c1.37,0,2.05.67,2.05,2.02v14.28ZM209.37,108.91v-4.37h-3.53v4.5l3.53-.13Z"/><path class="cls-1" d="M242.06,111.85h-3.94l-4.16-11.73v-2.28h3.71v-8h-4.76v22.01h-3.78v-25.25h10.02c1.52,0,2.28.77,2.28,2.32v9.18c0,1.06-.36,1.75-1.08,2.07-.39.16-1.2.24-2.45.24l4.16,11.44Z"/><path class="cls-1" d="M257.98,111.85h-3.53v-.56l-2.52.39c-1.1.16-1.93.24-2.5.24-1.34,0-2.02-.66-2.02-1.98v-5.87c0-1.34.69-2.02,2.08-2.02h4.99v-3.74h-3.53v2.32h-3.34v-3.05c0-1.34.69-2.02,2.08-2.02h6.24c1.37,0,2.05.67,2.05,2.02v14.28ZM254.48,108.91v-4.37h-3.53v4.5l3.53-.13Z"/><path class="cls-1" d="M274.8,108.57c0,1.32-.47,2.25-1.42,2.78-.69.38-1.73.56-3.13.56-.32,0-.78-.01-1.36-.03s-1.01-.03-1.27-.03v5.95h-3.69v-22.25h3.69v.6c.86-.13,1.72-.26,2.58-.4,1.09-.17,1.95-.26,2.58-.26,1.34,0,2.02.66,2.02,1.98v11.1ZM271.09,107.56v-8.92l-3.47.06v10.08h2.29c.79,0,1.18-.41,1.18-1.23Z"/><path class="cls-1" d="M284.48,93.21h-3.69v-3.81h3.69v3.81ZM284.45,111.85h-3.63v-16.3h3.63v16.3Z"/><path class="cls-1" d="M301.31,111.85h-3.68v-.56c-2.5.44-3.89.66-4.2.66-.93,0-1.65-.27-2.18-.81s-.79-1.28-.79-2.22v-10.08c0-1.32.47-2.24,1.42-2.76.69-.39,1.73-.58,3.13-.58.31,0,.76.01,1.36.03s1.01.03,1.26.03v-8.95h3.68v25.25ZM297.63,108.67v-10.04h-2.28c-.82,0-1.23.41-1.23,1.23v7.79c0,.8.39,1.19,1.16,1.19.18,0,.96-.06,2.34-.18Z"/><path class="cls-1" d="M328.57,89.94h-4.16v21.91h-3.76v-21.91h-4.16v-3.34h12.09v3.34Z"/><path class="cls-1" d="M343.88,102.36h-3.66v-3.73l-2.92.06v13.15h-3.69v-16.3h3.69v.6c.76-.14,1.52-.28,2.28-.42.91-.16,1.68-.24,2.29-.24,1.34,0,2.02.66,2.02,1.98v4.89Z"/><path class="cls-1" d="M359.77,111.85h-3.53v-.56l-2.52.39c-1.1.16-1.93.24-2.5.24-1.34,0-2.02-.66-2.02-1.98v-5.87c0-1.34.69-2.02,2.08-2.02h4.99v-3.74h-3.53v2.32h-3.34v-3.05c0-1.34.69-2.02,2.08-2.02h6.24c1.37,0,2.05.67,2.05,2.02v14.28ZM356.27,108.91v-4.37h-3.53v4.5l3.53-.13Z"/><path class="cls-1" d="M376.59,111.85h-3.71v-13.21l-3.47.06v13.15h-3.69v-16.3h3.69v.6c.86-.14,1.72-.27,2.57-.4,1.05-.17,1.92-.26,2.6-.26,1.34,0,2.02.66,2.02,1.98v14.38Z"/><path class="cls-1" d="M392.79,109.83c0,1.34-.68,2.02-2.05,2.02h-6.21c-1.37,0-2.05-.67-2.05-2.02v-3.5h3.53v2.74h3.24v-2.58l-5.66-3.34c-.74-.44-1.11-1.03-1.11-1.77v-3.81c0-1.34.69-2.02,2.08-2.02h6.15c1.37,0,2.05.67,2.05,2.02v3.28h-3.5v-2.52h-3.24v2.36l5.65,3.31c.75.43,1.13,1.03,1.13,1.81v4.03Z"/><path class="cls-1" d="M402.44,93.21h-3.69v-3.81h3.69v3.81ZM402.4,111.85h-3.63v-16.3h3.63v16.3Z"/><path class="cls-1" d="M415.48,111.85h-4.1c-1.37,0-2.05-.67-2.05-2.02v-11.13h-1.74v-3.15h1.74v-4.42h3.68v4.42h2.37v3.15h-2.37v10h2.47v3.15Z"/><polygon class="cls-1" points="51.52 23.45 39.62 .67 0 .67 0 70.56 32.57 70.56 32.57 48.71 21.85 48.71 21.85 22.53 26.39 22.53 26.39 22.54 51.52 70.57 73.37 70.57 73.37 .68 51.52 .68 51.52 23.45"/><path class="cls-1" d="M330.51,41.78V0h-55.94v70.56h21.85v-9.33h9.06l5.26,9.33,18.41-6.6-6.73-12.85,8.1-9.34ZM296.41,21.85h13.56v13.43l-3.43,4.1h-10.12v-17.53Z"/><polygon class="cls-1" points="415.48 21.85 415.48 0 350.33 0 350.33 21.85 372 21.85 372 46.23 396.33 70.56 411.77 55.12 393.85 37.2 393.85 21.85 415.48 21.85"/><polygon class="cls-1" points="115.46 .67 91.46 25.06 91.46 70.56 157.41 70.56 157.41 48.36 113.31 48.36 113.31 34.27 124.49 22.87 157.42 22.87 157.42 .67 115.46 .67"/><polygon class="cls-1" points="207.82 0 171.26 70.56 195.91 70.56 221.04 22.06 225.59 22.06 225.59 48.5 214.87 48.5 214.87 70.56 247.1 70.56 247.45 70.56 247.45 0 207.82 0"/></g></svg>