<?xml version="1.0" encoding="UTF-8"?><svg id="Layer_2" xmlns="http://www.w3.org/2000/svg" viewBox="0 0 497.71 100.01"><defs><style>.cls-1{fill:#fff;}</style></defs><g id="Layer_1-2"><polygon class="cls-1" points="92.14 0 92.14 69.99 59.49 36.45 59.49 68.31 90.33 100.01 114.36 100.01 114.36 0 92.14 0"/><polygon class="cls-1" points="22.22 30.01 54.86 63.56 54.86 31.69 24.03 0 0 0 0 100.01 22.22 100.01 22.22 30.01"/><polygon class="cls-1" points="182.65 100.01 182.65 77.78 150.01 77.78 150.01 22.22 182.65 22.22 182.65 0 143.41 0 127.79 12.91 127.79 87.1 143.41 100.01 182.65 100.01"/><polygon class="cls-1" points="187.28 0 187.28 22.22 219.92 22.22 219.92 35.34 242.14 35.34 242.14 12.91 226.52 0 187.28 0"/><polygon class="cls-1" points="219.92 77.78 187.28 77.78 187.28 100.01 226.52 100.01 242.14 87.1 242.14 64.66 219.92 64.66 219.92 77.78"/><polygon class="cls-1" points="277.79 61.11 310.44 61.11 310.44 38.89 277.79 38.89 277.79 22.22 310.44 22.22 310.44 0 255.57 0 255.57 0 255.57 100.01 277.79 100.01 277.79 61.11"/><polygon class="cls-1" points="315.06 0 315.06 22.22 347.71 22.22 347.71 38.89 315.06 38.89 315.06 61.11 354.3 61.11 369.93 48.21 369.93 12.91 354.3 0 315.06 0"/><polygon class="cls-1" points="438.22 77.78 405.58 77.78 405.58 22.22 438.22 22.22 438.22 0 383.36 0 383.36 100.01 438.22 100.01 438.22 77.78"/><polygon class="cls-1" points="442.85 0 442.85 22.22 475.49 22.22 475.49 77.78 442.85 77.78 442.85 100.01 482.09 100.01 497.71 87.1 497.71 12.91 482.09 0 442.85 0"/></g></svg>