<?xml version="1.0" encoding="UTF-8"?><svg id="Layer_2" xmlns="http://www.w3.org/2000/svg" viewBox="0 0 485.83 144.81"><defs><style>.cls-1{fill:#fff;stroke-width:0px;}</style></defs><g id="Layer_4"><rect class="cls-1" x="100.62" y="54.32" width="23.27" height="90.49"/><path class="cls-1" d="M0,54.32v90.49h23.27v-67.22h21.98c11.42,0,20.68,9.26,20.68,20.68v46.54h23.27v-46.65c0-24.22-19.63-43.85-43.85-43.85H0Z"/><path class="cls-1" d="M212.76,77.59v-23.27h-51.82c-14.28,0-25.85,11.58-25.85,25.85v38.78c0,14.28,11.58,25.85,25.85,25.85h51.82v-23.27h-54.4v-43.95h54.4Z"/><polygon class="cls-1" points="445.65 54.32 445.34 54.32 419.47 54.32 419.2 54.32 384.69 121.53 351.73 121.53 351.73 54.32 328.46 54.32 328.45 144.8 328.46 144.8 328.46 144.81 398.92 144.8 432.43 79.53 465.93 144.8 485.83 132.81 445.65 54.32"/><path class="cls-1" d="M224.51,80.12v38.89c0,14.25,11.55,25.8,25.8,25.8h37.7c14.25,0,25.8-11.55,25.8-25.8v-38.89c0-14.25-11.55-25.8-25.8-25.8h-37.7c-14.25,0-25.8,11.55-25.8,25.8ZM247.78,121.54v-43.95h42.77v43.95h-42.77Z"/><path class="cls-1" d="M133.05,3.45c-4.6-4.6-12.07-4.6-16.67,0l-4.12,4.12-4.13-4.12c-4.6-4.6-12.07-4.6-16.67,0s-4.6,12.07,0,16.67l20.8,20.8,20.8-20.8c4.6-4.6,4.6-12.07,0-16.67Z"/></g></svg>