<?xml version="1.0" encoding="UTF-8"?><svg id="Layer_2" xmlns="http://www.w3.org/2000/svg" viewBox="0 0 253.01 169.79"><defs><style>.cls-1{fill:#fff;stroke-width:0px;}</style></defs><g id="Layer_1-2"><polygon class="cls-1" points="92.29 0 130.01 40.09 253.01 40.09 253.01 0 92.29 0"/><polygon class="cls-1" points="73.37 0 0 0 0 144.26 40.09 144.26 40.09 40.09 56.06 40.09 154.34 144.36 253.01 144.26 253.01 104.17 171.42 104.17 73.37 0"/><path class="cls-1" d="M8.99,169.56l-4.93-9.6v9.55H1.74v-13.86h2.75l4.72,9.66v-9.66h2.31v13.9h-2.54Z"/><path class="cls-1" d="M34.1,169.52v-13.86h2.52v13.86h-2.52Z"/><path class="cls-1" d="M67.85,158.79c-.82-.5-2.06-1.15-3.19-1.15-2.23,0-4.05,1.99-4.05,4.81s1.99,5.14,4.2,5.14c.44,0,.84-.13,1.28-.27v-3.97h2.52v5.63c-.71.21-1.36.42-2.02.57-.67.15-1.36.25-2.14.25-3.61,0-6.47-2.98-6.47-7.22s2.69-7.14,6.4-7.14c1.68,0,2.94.27,4.39,1.05l-.92,2.31Z"/><path class="cls-1" d="M98.59,169.52v-6.03h-5.35v6.03h-2.52v-13.86h2.52v5.61h5.35v-5.61h2.52v13.86h-2.52Z"/><path class="cls-1" d="M127.99,157.76v11.76h-2.52v-11.76h-3.36v-2.1h9.24v2.1h-3.36Z"/><path class="cls-1" d="M157.2,169.79c-3.8,0-6.13-3.34-6.13-7.26s2.39-7.12,6.13-7.12c1.68,0,2.96.44,3.88,1.3l-1.39,2.12-.34-.31c-.15-.13-.31-.25-.52-.38-.38-.23-.88-.42-1.53-.42-1.87,0-3.51,1.97-3.51,4.66,0,3.04,1.68,5.1,3.84,5.1.73,0,1.47-.15,2.46-.84l.99,2.25c-1.2.67-2.48.9-3.88.9Z"/><path class="cls-1" d="M187.3,169.79c-3.78,0-6.17-3.02-6.17-7.2s2.33-7.18,6.17-7.18,6.15,2.94,6.15,7.18-2.39,7.2-6.15,7.2ZM187.3,157.55c-1.83,0-3.49,2.18-3.49,5.04s1.66,5.06,3.49,5.06,3.46-2.18,3.46-5.06-1.64-5.04-3.46-5.04Z"/><path class="cls-1" d="M220.6,169.52l-2.56-5.75h-.69v5.75h-2.5v-13.86h3.7c2.86,0,4.35,1.07,4.35,4.03,0,2.23-.92,3.53-2.37,3.84l2.77,5.98h-2.69ZM218.55,157.68h-1.2v4.18h1.2c1.07,0,1.76-.88,1.76-2.1s-.67-2.08-1.76-2.08Z"/><path class="cls-1" d="M247.84,164.82c-.31,0-.57,0-.86-.02v4.72h-2.52v-13.86h4.03c2.81,0,4.12,1.41,4.12,4.24,0,3.19-1.6,4.91-4.77,4.91ZM248.28,157.74h-1.3v4.93c.34.02.59.02.86.02,1.34,0,2.16-.84,2.16-2.58,0-1.57-.69-2.37-1.72-2.37Z"/></g></svg>