<?xml version="1.0" encoding="UTF-8"?><svg id="Layer_2" xmlns="http://www.w3.org/2000/svg" viewBox="0 0 466 128.17"><defs><style>.cls-1{fill:#fff;}</style></defs><g id="Layer_1-2"><path class="cls-1" d="M417.2,14.72l2.29,4.71-.48,2.41-23.17,2.17-.48,2.29,15.57,4.95,2.05,3.38,7.12,2.29h1.93v9.53l-10.98.48-7.6-3.74-38.08.24,31.44,11.83,10.86-4.34-4.83,6.64-1.21,17.74-8.33,18.71-7.84,7-3.62,7.72h7.48l3.26-6.03.36-2.05,2.05-.12,1.09,2.9,4.22,3.98,4.95-.6,12.79-14.84,7.48-.84-4.95,8.69-3.62-1.69-3.5,10.62h2.29l23.77-18.1.84-6.52,8.93-5.19-8.45-49.24-23.65-14.96ZM435.08,62.75l-8.16-3.55-1.26-24.32,9.42,27.87ZM396.87,95.22l7.3-14.6,6.59-2.77-13.89,17.37ZM405.26,98.18l7.72-16.84,5.55,5.19-13.28,11.64ZM422.76,78.45l-2.3.78-2.71-11.1,5.41-2.53-.4,12.85ZM422.27,52.94l-.48,4.34-7.72,9.45.68,4.3-4.95,2.21-3.22-8.73-.16-7.2,8.61-7.6h5.6l2.53,2.17-.88,1.05ZM424.87,82.31l12.01-11.22,1.39.78v2.84l1.63,2.78-15.03,4.83Z"/><path class="cls-1" d="M449.18,0H16.81C7.54,0,0,7.54,0,16.82v94.54c0,9.27,7.54,16.82,16.81,16.82h432.37c9.27,0,16.82-7.54,16.82-16.82V16.82c0-9.27-7.54-16.82-16.82-16.82ZM460.21,111.35c0,6.08-4.94,11.02-11.02,11.02H16.81c-6.08,0-11.02-4.94-11.02-11.02V16.82c0-6.08,4.94-11.02,11.02-11.02h432.37c6.08,0,11.02,4.94,11.02,11.02v94.54Z"/><path class="cls-1" d="M61.19,18.35c-2.4,0-4.34,1.95-4.34,4.34v27.33l-29.59-30.37c-1.23-1.27-3.11-1.66-4.75-.99-1.64.67-2.71,2.26-2.71,4.02v55.87c0,2.4,1.94,4.34,4.34,4.34s4.34-1.95,4.34-4.34v-45.19l28.36,29.1v16.09c0,2.4,1.94,4.34,4.34,4.34s4.34-1.95,4.34-4.34V22.69c0-2.4-1.94-4.34-4.34-4.34Z"/><path class="cls-1" d="M105.54,18.35h-16.53c-7.75,0-14.06,6.31-14.06,14.06v36.45c0,7.75,6.31,14.06,14.06,14.06h16.53c7.75,0,14.06-6.31,14.06-14.06v-36.45c0-7.75-6.31-14.06-14.06-14.06ZM110.91,68.85c0,2.96-2.41,5.37-5.37,5.37h-16.53c-2.96,0-5.37-2.41-5.37-5.37v-36.45c0-2.96,2.41-5.37,5.37-5.37h16.53c2.96,0,5.37,2.41,5.37,5.37v36.45Z"/><path class="cls-1" d="M229.12,32.4c0-7.75-6.31-14.06-14.06-14.06h-16.53c-7.75,0-14.06,6.31-14.06,14.06v36.45c0,7.75,6.31,14.06,14.06,14.06h16.53c7.75,0,14.06-6.31,14.06-14.06v-36.45ZM220.43,68.85c0,2.96-2.41,5.37-5.37,5.37h-16.53c-2.96,0-5.37-2.41-5.37-5.37v-36.45c0-2.96,2.41-5.37,5.37-5.37h16.53c2.96,0,5.37,2.41,5.37,5.37v36.45Z"/><path class="cls-1" d="M148.78,50.06l24.75-24.27c1.71-1.68,1.74-4.43.06-6.14-1.68-1.71-4.43-1.74-6.14-.06l-27.96,27.41s0,0,0,0c0,0,0,0,0,0l-1.26,1.23v-25.55c0-2.4-1.94-4.34-4.34-4.34s-4.34,1.95-4.34,4.34v55.87c0,2.4,1.94,4.34,4.34,4.34s4.34-1.95,4.34-4.34v-18.16l4.35-4.26,25.91,25.52c.85.83,1.95,1.25,3.05,1.25s2.25-.43,3.1-1.3c1.68-1.71,1.66-4.46-.05-6.14l-25.8-25.41Z"/><path class="cls-1" d="M280.19,27.04c2.4,0,4.34-1.95,4.34-4.34s-1.94-4.34-4.34-4.34h-37.09c-2.4,0-4.34,1.95-4.34,4.34s1.94,4.34,4.34,4.34h14.2v51.53c0,2.4,1.94,4.34,4.34,4.34s4.34-1.95,4.34-4.34V27.04h14.2Z"/><path class="cls-1" d="M330.73,54.97v23.59c0,2.4,1.94,4.34,4.34,4.34s4.34-1.95,4.34-4.34v-46.16c0-7.75-6.31-14.06-14.06-14.06h-16.53c-7.75,0-14.06,6.31-14.06,14.06v46.16c0,2.4,1.94,4.34,4.34,4.34s4.34-1.95,4.34-4.34v-23.59h27.28ZM308.83,27.04h16.53c2.96,0,5.37,2.41,5.37,5.37v13.88h-27.28v-13.88c0-2.96,2.41-5.37,5.37-5.37Z"/><path class="cls-1" d="M28.85,95.95l-2.7-3.95h-2.85v16.31c0,.3.11.55.32.77.21.22.47.33.78.33s.57-.11.78-.32c.21-.21.32-.48.32-.78v-13.29l2.28,3.25v.57c0,.3.11.55.32.77.21.22.47.33.78.33s.55-.11.77-.33c.22-.22.33-.48.33-.77v-.62l2.23-3.15v13.23c0,.3.11.55.33.77.22.22.48.33.77.33s.57-.11.79-.32c.22-.21.33-.48.33-.78v-16.31h-2.79l-2.79,3.95Z"/><path class="cls-1" d="M55.54,92.71c-.14-.46-.49-.7-1.03-.7s-.94.27-1.11.82l-4.43,15.06c-.04.14-.07.27-.07.41,0,.31.1.58.32.8s.48.33.8.33c.23,0,.44-.06.63-.19.19-.12.3-.26.33-.4l.96-3.2h5.04l.87,2.99c.16.53.52.8,1.1.8.27,0,.51-.11.72-.32.21-.21.31-.48.31-.78,0-.1-.02-.21-.05-.33l-4.39-15.29ZM52.6,103.41l1.89-6.3,1.84,6.3h-3.72Z"/><path class="cls-1" d="M84.43,92.01c-.31,0-.57.11-.79.33-.22.22-.33.49-.33.79v12.37l-5.95-13.5h-2.91v16.31c0,.31.11.57.32.78.21.21.47.32.78.32s.57-.11.78-.32c.21-.21.32-.48.32-.78v-12.42l5.93,13.52h2.95v-16.29c0-.31-.11-.58-.32-.8s-.47-.33-.78-.33Z"/><path class="cls-1" d="M109.98,92.01c-.31,0-.57.11-.78.33-.21.22-.32.49-.32.8v12.99c0,.3-.11.55-.32.76-.21.21-.47.31-.78.31h-4.51c-.3,0-.55-.1-.77-.32-.22-.21-.33-.46-.33-.75v-13.01c0-.3-.11-.55-.33-.77-.22-.22-.48-.33-.77-.33s-.56.11-.77.33c-.22.22-.33.49-.33.79v12.99c0,.91.32,1.69.97,2.33.65.65,1.42.97,2.33.97h4.51c.9,0,1.68-.33,2.33-.98.65-.66.98-1.44.98-2.35v-12.96c0-.31-.11-.58-.32-.8s-.47-.33-.78-.33Z"/><path class="cls-1" d="M135.52,92.01h-9.98v16.31c0,.31.11.57.32.78.21.21.47.32.78.32s.57-.11.78-.32c.21-.21.32-.48.32-.78v-8.43h5.58c.31,0,.57-.11.78-.32.21-.21.32-.48.32-.78s-.11-.57-.32-.78c-.21-.21-.47-.32-.78-.32h-5.58v-3.46h7.78c.3,0,.55-.11.77-.33.22-.22.33-.49.33-.79s-.11-.55-.33-.77c-.22-.22-.48-.33-.77-.33Z"/><path class="cls-1" d="M157.73,92.71c-.14-.46-.49-.7-1.03-.7s-.94.27-1.11.82l-4.43,15.06c-.04.14-.07.27-.07.41,0,.31.1.58.32.8s.48.33.8.33c.23,0,.44-.06.63-.19.19-.12.3-.26.33-.4l.96-3.2h5.04l.87,2.99c.16.53.52.8,1.1.8.27,0,.51-.11.72-.32.21-.21.31-.48.31-.78,0-.1-.02-.21-.05-.33l-4.39-15.29ZM154.79,103.41l1.89-6.3,1.84,6.3h-3.72Z"/><path class="cls-1" d="M181.68,94.85c.22-.41.5-.62.85-.62h4.19c.31,0,.57-.11.78-.33.21-.22.32-.49.32-.79s-.11-.55-.32-.77c-.21-.22-.47-.33-.78-.33h-4.35c-.48,0-.98.17-1.49.52-.52.35-.9.75-1.14,1.2l-2.57,4.86c-.32.6-.49,1.32-.49,2.14,0,.74.17,1.47.51,2.18l2.54,4.91c.22.41.61.78,1.17,1.11.56.33,1.1.5,1.62.5h4.11c.31,0,.57-.11.79-.32.22-.21.33-.48.33-.78s-.11-.57-.33-.78c-.22-.21-.49-.32-.79-.32h-3.97c-.5,0-.86-.23-1.07-.69l-2.33-4.48c-.21-.39-.31-.85-.31-1.36,0-.49.09-.91.29-1.27l2.44-4.56Z"/><path class="cls-1" d="M202.15,95.01c0,.31.11.57.32.78.21.21.47.32.78.32s.56-.1.78-.32c.21-.21.32-.48.32-.78v-.77h2.23v14.09c0,.31.11.57.33.78.22.21.48.32.8.32.3,0,.55-.11.77-.32.22-.21.33-.48.33-.78v-14.09h2.23v.8c0,.3.11.56.33.78.22.22.49.33.79.33s.55-.11.77-.32c.22-.21.33-.47.33-.78v-3h-11.11v2.97Z"/><path class="cls-1" d="M237.71,92.01c-.31,0-.57.11-.78.33-.21.22-.32.49-.32.8v12.99c0,.3-.11.55-.32.76-.21.21-.47.31-.78.31h-4.51c-.3,0-.55-.1-.77-.32-.22-.21-.33-.46-.33-.75v-13.01c0-.3-.11-.55-.33-.77-.22-.22-.48-.33-.77-.33s-.56.11-.77.33c-.22.22-.33.49-.33.79v12.99c0,.91.32,1.69.97,2.33.65.65,1.42.97,2.33.97h4.51c.9,0,1.68-.33,2.33-.98.65-.66.98-1.44.98-2.35v-12.96c0-.31-.11-.58-.32-.8s-.47-.33-.78-.33Z"/><path class="cls-1" d="M261.09,92.01h-7.78v16.31c0,.31.11.57.32.78.21.21.47.32.78.32s.57-.11.79-.32c.22-.21.33-.48.33-.78v-8.4h1.59l5.15,8.92c.23.39.56.59,1,.59.29,0,.55-.11.78-.32.23-.21.34-.47.34-.77,0-.23-.07-.45-.21-.68l-4.49-7.73h1.4c.91,0,1.69-.33,2.33-.98s.97-1.43.97-2.35v-1.26c0-.91-.33-1.69-.98-2.34-.65-.66-1.43-.98-2.33-.98ZM262.19,96.62c0,.31-.11.57-.32.78-.21.21-.47.32-.78.32h-5.58v-3.48h5.58c.31,0,.57.11.78.32.21.21.32.48.32.78v1.28Z"/><path class="cls-1" d="M288.81,94.24c.3,0,.55-.11.77-.33.22-.22.33-.49.33-.79s-.11-.55-.33-.77c-.22-.22-.48-.33-.77-.33h-8.91c-.31,0-.57.11-.78.33-.21.22-.32.49-.32.8,0,.3.11.55.32.77.21.22.47.33.78.33h3.38v12.99h-3.38c-.31,0-.57.11-.78.32-.21.21-.32.48-.32.78s.11.57.32.78c.21.21.47.32.78.32h8.91c.3,0,.55-.11.77-.32.22-.21.33-.48.33-.78s-.11-.57-.32-.78c-.21-.21-.47-.32-.78-.32h-3.33v-12.99h3.33Z"/><path class="cls-1" d="M314.36,92.01c-.31,0-.57.11-.79.33-.22.22-.33.49-.33.79v12.37l-5.95-13.5h-2.91v16.31c0,.31.11.57.32.78.21.21.47.32.78.32s.57-.11.78-.32c.21-.21.32-.48.32-.78v-12.42l5.93,13.52h2.95v-16.29c0-.31-.11-.58-.32-.8s-.47-.33-.78-.33Z"/><path class="cls-1" d="M332.48,98.69l3.09-3.97c.25-.32.55-.48.89-.48h3.49c.27,0,.52-.11.75-.32.23-.21.35-.48.35-.81,0-.31-.11-.56-.32-.78-.21-.21-.47-.32-.78-.32h-3.66c-.45,0-.89.11-1.32.33-.42.22-.75.49-.99.8l-3.25,4.13c-.59.75-.88,1.67-.88,2.76v6.1c0,.91.33,1.69.98,2.33.65.65,1.44.97,2.35.97h4.48c.91,0,1.69-.32,2.33-.97.65-.64.97-1.42.97-2.33v-4.59h-4.48c-.31,0-.58.11-.79.32-.21.21-.31.47-.31.78s.1.57.31.78.47.32.79.32h2.28v2.39c0,.3-.11.55-.33.77-.22.22-.48.33-.77.33h-4.48c-.31,0-.57-.11-.78-.33-.21-.22-.32-.49-.32-.8v-6.09c0-.56.13-1,.39-1.31Z"/><path class="cls-1" d="M366.25,25.41c-.2,0-.41.08-.63.23l-1.79,1.28-1.79-1.28c-.21-.16-.42-.23-.62-.23-.43,0-.64.28-.64.84v4.87c0,.23.08.41.23.55.15.14.34.21.56.21s.41-.07.56-.21c.15-.14.23-.32.23-.55v-3.35l.99.72c.15.1.31.16.47.16s.33-.05.47-.16l.99-.72v3.35c0,.23.08.41.23.55.16.14.34.21.56.21s.41-.07.56-.21c.15-.14.23-.32.23-.55v-4.87c0-.56-.21-.84-.64-.84Z"/><path class="cls-1" d="M359.46,25.41h-4.52c-.24,0-.44.07-.58.21s-.21.33-.21.54.07.39.21.53.34.21.58.21h1.47v4.2c0,.23.08.41.23.55.16.14.34.21.56.21s.41-.07.56-.21c.15-.14.23-.32.23-.55v-4.2h1.47c.24,0,.44-.07.58-.21s.21-.32.21-.53-.07-.4-.21-.54-.34-.21-.58-.21Z"/><path class="cls-1" d="M370.34,28.64c0-5.41-4.4-9.82-9.81-9.82s-9.82,4.4-9.82,9.82,4.4,9.81,9.82,9.81,9.81-4.4,9.81-9.81ZM360.52,36.29c-4.21,0-7.64-3.43-7.64-7.64s3.43-7.65,7.64-7.65,7.64,3.43,7.64,7.65-3.43,7.64-7.64,7.64Z"/></g></svg>