<?xml version="1.0" encoding="UTF-8"?><svg id="Layer_2" xmlns="http://www.w3.org/2000/svg" viewBox="0 0 259.68 184.67"><defs><style>.cls-1{fill:#fff;stroke-width:0px;}</style></defs><g id="Layer_1-2"><path class="cls-1" d="M7.61,122.9c-2.52-1.51-4.42-3.58-5.7-6.21-1.28-2.63-1.91-5.6-1.91-8.91s.64-6.19,1.91-8.8c1.28-2.61,3.18-4.69,5.72-6.23,2.54-1.54,5.61-2.31,9.22-2.31s6.64.77,9.18,2.31c2.54,1.54,4.45,3.62,5.72,6.25,1.28,2.63,1.91,5.55,1.91,8.78s-.64,6.29-1.91,8.91c-1.28,2.63-3.18,4.7-5.7,6.21-2.52,1.51-5.59,2.27-9.2,2.27s-6.72-.75-9.24-2.27ZM22.07,117.73c1.45-1,2.55-2.37,3.3-4.12.75-1.75,1.12-3.73,1.12-5.96s-.38-4.06-1.14-5.77c-.76-1.7-1.87-3.04-3.32-4.03-1.45-.98-3.18-1.47-5.17-1.47s-3.85.49-5.3,1.47c-1.45.98-2.55,2.34-3.28,4.07-.73,1.73-1.1,3.68-1.1,5.85,0,3.4.84,6.16,2.51,8.28,1.67,2.11,4.06,3.17,7.17,3.17,2.02,0,3.76-.5,5.22-1.5Z"/><path class="cls-1" d="M50.71,111.83h-4.4v12.59h-7v-33.37h13.03c8.19,0,12.28,3.48,12.28,10.43,0,5.11-2.27,8.33-6.82,9.68l8.23,13.25h-7.84l-7.48-12.59ZM46.31,105.89h6.03c3.46,0,5.19-1.47,5.19-4.4,0-1.56-.43-2.69-1.28-3.41-.85-.72-2.16-1.08-3.92-1.08h-6.03v8.89Z"/><path class="cls-1" d="M96.13,110.36c1.06,1.31,1.58,2.91,1.58,4.82,0,3.11-.98,5.43-2.95,6.95-1.97,1.53-5.27,2.29-9.9,2.29h-13.34v-33.37h13.34c4.2,0,7.17.76,8.91,2.27,1.75,1.51,2.62,3.73,2.62,6.67,0,1.82-.37,3.35-1.1,4.58-.73,1.23-1.92,2.2-3.57,2.91,1.88.62,3.35,1.58,4.4,2.88ZM78.53,104.88h6.34c2.93,0,4.42-1.36,4.45-4.09,0-1.47-.34-2.52-1.01-3.17-.68-.65-1.82-.97-3.43-.97h-6.34v8.23ZM89.18,111.48c-.97-.67-2.41-1.01-4.31-1.01h-6.34v8.36h6.34c2.11,0,3.6-.34,4.47-1.01.87-.67,1.3-1.73,1.3-3.17s-.48-2.49-1.45-3.17Z"/><path class="cls-1" d="M103.97,91.06h7v33.37h-7v-33.37Z"/><path class="cls-1" d="M142.26,97.09h-9.33v27.33h-7.04v-27.33h-9.33v-6.03h25.71v6.03Z"/><path class="cls-1" d="M162.42,116.89h-13.16l-2.64,7.53h-7.04l11.89-33.76h8.72l11.93,33.76h-7.04l-2.64-7.53ZM160.31,110.86l-4.49-12.85-4.49,12.85h8.98Z"/><path class="cls-1" d="M196.8,118.39v6.03h-19.59v-33.37h7v27.33h12.59Z"/><path class="cls-1" d="M82.97,155.65h-13.91l-3.57,9.73h-4.4l12.54-33.76h4.75l12.59,33.76h-4.4l-3.61-9.73ZM81.52,151.82l-5.5-14.88-5.5,14.88h11Z"/><path class="cls-1" d="M96.84,132.02h4.27v33.37h-4.27v-33.37Z"/><path class="cls-1" d="M121.27,151.25h-6.47v14.13h-4.27v-33.37h11.66c7.28,0,10.92,3.23,10.92,9.68,0,2.55-.61,4.61-1.83,6.18-1.22,1.57-3.05,2.59-5.48,3.06l8.94,14.44h-4.89l-8.58-14.13ZM114.8,147.51h7.4c4.34,0,6.53-1.94,6.56-5.81,0-2.05-.54-3.56-1.63-4.51-1.09-.95-2.73-1.43-4.93-1.43h-7.4v11.75Z"/><path class="cls-1" d="M253.82.71l-65.11,67.36c-12.94-6.07-29.71-11.74-51.41-15.93,0,0,25.09,5.27,49.52,17.94l-8.64,9.15,10.68-8.08c17.47,9.38,34.22,22.58,40.77,40.41-2.14,1.97-4.49,4.03-7.09,6.21-8.04,6.73-18.22,14.88-30.9,24-4.99,3.59-10.36,7.51-16.16,11.69-2.22-3.55-6.84-5.45-11.61-3.38-1.81.79-3.29,2.24-4.1,4.04-1.65,3.65-.94,7.22,1.06,9.72-9.57,6.64-20.15,13.68-31.9,20.84,0,0,14.11-7.95,33.04-19.66,2.43,2.1,5.98,2.94,9.65,1.43,1.31-.54,2.44-1.46,3.27-2.61,2.09-2.89,2.29-5.61,1.65-7.98,17.43-11.16,36.67-24.25,52.25-36.78l2.89-2.36c12.29-10.14,21.93-19.81,25.93-27.67,4.79-9.41,1.92-17.01-14.64-18.71l14.78-67.53c.5-2.27-2.29-3.76-3.91-2.09ZM230.66,102.52c-1.39-3.28-9.69-18.59-39.36-33.21l47.23-35.71-7.87,68.92ZM233.92,107.46l7.91-32.49c3.76,1.34,16.57,8.09-7.91,32.49Z"/></g></svg>