<?xml version="1.0" encoding="UTF-8"?><svg id="Layer_2" xmlns="http://www.w3.org/2000/svg" viewBox="0 0 402.44 188.97"><defs><style>.cls-1{fill:#fff;stroke-width:0px;}</style></defs><g id="Layer_1-2"><path class="cls-1" d="M323.75,0H78.69v148.84h245.05V0ZM320.36,19.59l-68.25,47.26h-74.66L85.81,3.39h234.55v16.2ZM82.08,4.93l202.92,140.52h-66.37L82.08,50.89V4.93ZM182.34,70.24h64.87l-32.44,22.46-32.44-22.46ZM82.08,55.01l130.59,90.44H82.08V55.01ZM290.95,145.45l-73.19-50.69,102.6-71.05v121.74h-29.41Z"/><path class="cls-1" d="M35.6,160.09c-.84-.96-2.01-1.72-3.49-2.27-1.49-.55-3.38-.83-5.68-.83H0v31.63h9.7v-7.95h19.27c1.72,0,3.15-.31,4.28-.92,1.14-.61,2.05-1.4,2.73-2.38.68-.98,1.17-2.06,1.46-3.25.29-1.19.44-2.39.44-3.58v-2.71c0-1.54-.17-2.98-.5-4.3-.33-1.32-.92-2.47-1.77-3.43ZM27.92,169.44c0,.93-.24,1.73-.72,2.38-.48.66-1.29.98-2.42.98h-15.07v-7.95h14.24c1.49,0,2.52.29,3.1.87.58.58.87,1.41.87,2.49v1.22Z"/><polygon class="cls-1" points="52.82 175.95 76.41 175.95 76.41 169.4 52.82 169.4 52.82 164.33 77.72 164.33 77.72 156.99 43.12 156.99 43.12 188.62 78.29 188.62 78.29 181.02 52.82 181.02 52.82 175.95"/><polygon class="cls-1" points="81.82 164.85 95.45 164.85 95.45 188.62 105.15 188.62 105.15 164.85 118.78 164.85 118.78 156.99 81.82 156.99 81.82 164.85"/><path class="cls-1" d="M159.83,159.57c-.71-.82-1.68-1.45-2.91-1.9-1.22-.45-2.77-.68-4.63-.68h-29.27v31.63h9.7v-8.21h15.25c1.51,0,2.55.32,3.12.96.57.64.85,1.79.85,3.45v3.8h9.7v-5.37c0-1.31-.14-2.38-.42-3.21-.28-.83-.66-1.51-1.14-2.03-.48-.52-1.04-.91-1.68-1.16-.64-.25-1.33-.44-2.05-.59v-.09c1.11-.26,2.02-.62,2.73-1.07.71-.45,1.27-1,1.66-1.64.39-.64.66-1.38.81-2.23.15-.84.22-1.79.22-2.84v-2.01c0-1.43-.15-2.72-.44-3.87-.29-1.15-.79-2.13-1.51-2.95ZM152.33,169.22c0,1.14-.27,1.97-.81,2.51-.54.54-1.46.81-2.77.81h-16.03v-7.69h15.16c1.54,0,2.67.2,3.39.61.71.41,1.07,1.31,1.07,2.71v1.05Z"/><path class="cls-1" d="M207.36,158.89c-1.21-.86-2.67-1.45-4.39-1.77-1.72-.32-3.67-.48-5.85-.48h-15.55c-2.18,0-4.14.16-5.85.48-1.72.32-3.18.91-4.39,1.77-1.21.86-2.13,2.03-2.75,3.52-.63,1.49-.94,3.38-.94,5.68v9.44c0,2.33.31,4.23.94,5.7.63,1.47,1.54,2.64,2.75,3.49,1.21.86,2.67,1.45,4.39,1.77,1.72.32,3.67.48,5.85.48h15.55c2.19,0,4.14-.16,5.85-.48,1.72-.32,3.18-.91,4.39-1.77,1.21-.86,2.12-2.02,2.75-3.49.63-1.47.94-3.37.94-5.7v-9.44c0-2.3-.31-4.19-.94-5.68-.63-1.49-1.54-2.66-2.75-3.52ZM201.09,174.51c0,1.14-.07,2.11-.22,2.93-.15.82-.42,1.47-.83,1.97-.41.5-.98.86-1.7,1.09-.73.23-1.66.35-2.8.35h-12.41c-1.14,0-2.07-.12-2.8-.35-.73-.23-1.3-.6-1.7-1.09-.41-.49-.68-1.15-.83-1.97-.15-.82-.22-1.79-.22-2.93v-3.41c0-.99.08-1.87.24-2.64.16-.77.46-1.43.9-1.99.44-.55,1.05-.98,1.83-1.27.79-.29,1.82-.44,3.1-.44h11.36c1.28,0,2.31.15,3.1.44.79.29,1.4.71,1.84,1.27.44.55.74,1.22.9,1.99.16.77.24,1.65.24,2.64v3.41Z"/><path class="cls-1" d="M247.46,178.81c-.19.57-.5,1-.94,1.31s-1.02.5-1.75.59c-.73.09-1.63.13-2.71.13h-10.35c-1.14,0-2.07-.12-2.8-.35-.73-.23-1.3-.6-1.7-1.09-.41-.49-.68-1.15-.83-1.97-.15-.82-.22-1.79-.22-2.93v-3.41c0-.99.08-1.87.24-2.64.16-.77.46-1.43.9-1.99.44-.55,1.05-.98,1.83-1.27.79-.29,1.82-.44,3.1-.44h10.57c1.46,0,2.58.2,3.36.61.79.41,1.18,1.18,1.18,2.32v.87h9.7c.03-2.24-.12-4.12-.44-5.64-.32-1.51-1.02-2.74-2.1-3.67-1.08-.93-2.65-1.6-4.72-2.01-2.07-.41-4.82-.61-8.26-.61h-11.4c-2.18,0-4.14.16-5.85.48-1.72.32-3.18.91-4.39,1.77-1.21.86-2.13,2.03-2.75,3.52-.63,1.49-.94,3.38-.94,5.68v9.44c0,2.33.31,4.23.94,5.7.63,1.47,1.54,2.64,2.75,3.49,1.21.86,2.67,1.45,4.39,1.77,1.72.32,3.67.48,5.85.48h15.64c2.45,0,4.43-.25,5.94-.74,1.51-.49,2.69-1.17,3.54-2.03.84-.86,1.42-1.86,1.73-3.01.31-1.15.46-2.39.46-3.73v-2.97h-9.7c0,.99-.1,1.77-.28,2.34Z"/><polygon class="cls-1" points="293.44 168.26 273 168.26 273 156.99 263.3 156.99 263.3 188.62 273 188.62 273 176.65 293.44 176.65 293.44 188.62 303.14 188.62 303.14 156.99 293.44 156.99 293.44 168.26"/><polygon class="cls-1" points="319.39 175.95 342.98 175.95 342.98 169.4 319.39 169.4 319.39 164.33 344.29 164.33 344.29 156.99 309.69 156.99 309.69 188.62 344.86 188.62 344.86 181.02 319.39 181.02 319.39 175.95"/><polygon class="cls-1" points="387.54 156.99 376.58 177.35 365.61 156.99 350.71 156.99 350.71 188.62 360.15 188.62 360.15 165.9 360.24 165.9 372.95 188.62 380.2 188.62 392.92 165.9 393 165.9 393 188.62 402.44 188.62 402.44 156.99 387.54 156.99"/></g></svg>