<?xml version="1.0" encoding="UTF-8"?><svg id="Layer_2" xmlns="http://www.w3.org/2000/svg" viewBox="0 0 596.08 48.85"><defs><style>.cls-1{fill:#fff;}</style></defs><g id="Layer_1-2"><rect class="cls-1" x="35.5" y="42.35" width="24.5" height="6.5" rx="3.25" ry="3.25"/><rect class="cls-1" x="251" y="24.25" width="24.5" height="6.5" rx="3.25" ry="3.25"/><path class="cls-1" d="M180.71,30.38c0,3.92-3.21,7.12-7.12,7.12h-36.17c-3.92,0-7.12-3.21-7.12-7.12V0h-22.54v39.38c0,2.55,2.07,4.62,4.62,4.62h86.25c2.55,0,4.62-2.07,4.62-4.62V0h-22.54v30.38Z"/><path class="cls-1" d="M306.38,0h-86.25c-2.55,0-4.62,2.07-4.62,4.62v39.38h22.54V13.62c0-3.92,3.21-7.12,7.12-7.12h36.17c3.92,0,7.12,3.21,7.12,7.12v30.38h22.54V4.62c0-2.55-2.07-4.62-4.62-4.62Z"/><path class="cls-1" d="M90.19,0H5.31C2.38,0,0,2.23,0,4.97v30.67c0,2.75,2.38,4.97,5.31,4.97h84.87c2.93,0,5.31-2.23,5.31-4.97V4.97c0-2.75-2.38-4.97-5.31-4.97ZM72.96,17.97v10.49c0,2.2-1.8,4-4,4H26.54c-2.2,0-4-1.8-4-4v-13.15c0-2.2,1.8-4,4-4h42.42c2.2,0,4,1.8,4,4v2.67Z"/><rect class="cls-1" x="536.08" y="24.25" width="24.5" height="6.5" rx="3.25" ry="3.25"/><path class="cls-1" d="M591.46,0h-86.25c-2.55,0-4.62,2.07-4.62,4.62v39.38h22.54V13.62c0-3.92,3.21-7.12,7.12-7.12h36.17c3.92,0,7.12,3.21,7.12,7.12v30.38h22.54V4.62c0-2.55-2.07-4.62-4.62-4.62Z"/><path class="cls-1" d="M392.83,0h-69.58v34.71h22.54V6.5h35.5c3.21,0,5.83,2.63,5.83,5.83v19.33c0,3.21-2.62,5.83-5.83,5.83h-58.04v6.5h69.5c6.17,0,7.83-2.07,7.83-4.62V4.62c0-2.55-2.33-4.62-7.75-4.62Z"/><path class="cls-1" d="M480.58,0h-67.75v44h22.54V6.5h25.96c5.03,0,7.42,2.08,7.42,5.7s-2.6,5.7-7.42,5.7h-13l17.96,26.1h16.88l-17.83-19.62h15.16c6.17,0,7.83-2.07,7.83-4.62V4.62c0-2.55-2.33-4.62-7.75-4.62Z"/></g></svg>