<?xml version="1.0" encoding="UTF-8" standalone="no"?>
<!DOCTYPE svg PUBLIC "-//W3C//DTD SVG 1.1//EN" "http://www.w3.org/Graphics/SVG/1.1/DTD/svg11.dtd">
<svg width="100%" height="100%" viewBox="0 0 1199 307" version="1.1" xmlns="http://www.w3.org/2000/svg" xmlns:xlink="http://www.w3.org/1999/xlink" xml:space="preserve" xmlns:serif="http://www.serif.com/" style="fill-rule:evenodd;clip-rule:evenodd;stroke-linejoin:round;stroke-miterlimit:2;">
    <g transform="matrix(1,0,0,1,0,-1745)">
        <rect id="Raven-Microcybernetics-horizontal-wt" x="0" y="1745" width="1199" height="307" style="fill:none;"/>
        <g id="Raven-Microcybernetics-horizontal-wt1" serif:id="Raven-Microcybernetics-horizontal-wt">
            <g id="Raven-Microcybernetics-horizontal-wt2" serif:id="Raven-Microcybernetics-horizontal-wt" transform="matrix(1.157796,0,0,0.346275,-7.719757,1389.801206)">
                <g id="Raven" transform="matrix(0.86371,0,0,2.887879,229.302572,-1125.366667)">
                    <g transform="matrix(1.040039,0,0,1.040039,40,73)">
                        <path d="M231.492,700.715C264.721,700.908 284.809,733.431 287.875,741.307C291.73,751.213 292.62,757.313 292.626,781.5C292.628,789.847 293.44,792.206 289.494,792.207C265.187,792.211 257.525,792.384 249.564,792.288C247.511,792.263 247.347,794.66 248.463,796.384C248.985,797.19 289.311,852.223 291.945,855.362C294.005,857.817 289.743,857.677 288.576,857.66C282.721,857.577 267.461,857.8 259.339,857.66C257.766,857.633 256.775,856.329 256.628,856.122C254.043,852.485 213.977,794.768 213.12,793.811C210.988,791.43 210.138,792.376 190.501,792.188C186.168,792.147 186.562,793.273 186.561,799.759C186.551,846.922 186.563,851.778 186.57,854.728C186.573,855.995 186.24,857.663 184.49,857.66C184.386,857.66 170.982,857.648 161.462,857.66C157.268,857.665 156.698,853.956 156.698,848.843C156.698,707.505 156.726,714.36 156.726,704.944C156.726,702.258 160.139,700.921 163.337,700.919C202.093,700.891 209.663,700.588 231.492,700.715ZM187.975,729.781C193.049,729.77 216.39,729.791 229.422,729.791C246.3,729.791 257.155,745.9 260.69,757.567C261.314,759.627 262.452,762.479 258.489,762.481C246.773,762.484 200.533,762.479 188.529,762.462C186.412,762.459 186.517,760.273 186.515,759.866C186.497,755.755 186.521,734.119 186.537,731.074C186.54,730.536 186.626,729.784 187.975,729.781Z" style="fill:white;"/>
                    </g>
                    <g transform="matrix(1.040039,0,0,1.040039,40,73)">
                        <path d="M396.577,703.988C397.032,705.061 459.866,855.208 460.016,855.57C460.965,857.847 459.201,857.662 458.173,857.668C454.095,857.688 438.024,857.655 431.458,857.655C430.921,857.655 430.339,856.876 429.658,856.135C425.279,851.377 416.861,830.751 414.561,825.452C414.288,824.824 414.193,824.011 412.459,824.01C405.157,824.008 363.276,824.034 353.44,824.038C352.893,824.038 352.841,824.228 352.329,825.244C350.043,829.773 339.853,853.003 338.693,855.501C338.492,855.935 337.703,857.642 337.224,857.642C331.286,857.642 310.884,857.771 306.176,857.747C304.86,857.741 305.778,855.613 306.381,854.451C307.325,852.632 366.953,712.628 369.061,708.28C371.405,703.442 371.161,700.933 375.165,700.926C377.581,700.922 382.333,700.913 392.447,700.97C395.098,700.985 395.786,702.122 396.577,703.988ZM362.413,798.342C365.534,790.311 381.455,746.85 382.451,744.161C383.061,742.513 384.419,742.689 384.988,744.183C388.146,752.477 401.282,789.413 404.588,797.312C404.699,797.576 405.536,798.955 403.408,798.956C394.472,798.961 363.893,799.005 363.548,798.992C362.687,798.96 362.331,798.551 362.413,798.342Z" style="fill:white;"/>
                    </g>
                    <g transform="matrix(1.040039,0,0,1.040039,40,73)">
                        <path d="M757.586,729.757C755.454,729.757 754.822,730.213 754.824,732.345C754.831,737.806 754.821,854.544 754.794,855.328C754.749,856.579 753.685,857.567 752.645,857.582C746.846,857.664 741.248,857.674 727.312,857.672C725.8,857.672 724.545,856.934 724.546,855.422C724.618,745.391 724.747,725.164 724.747,709.283C724.747,704.675 724.676,700.992 733.331,700.995C792.836,701.015 798.904,700.967 802.506,700.967C839.903,700.965 860.394,738.558 860.39,762.522C860.388,771.864 860.565,787.553 860.587,818.5C860.588,821.381 860.599,841.261 860.599,854.518C860.599,855.964 859.536,857.657 857.609,857.659C848.047,857.67 846.487,857.634 835.957,857.643C832.274,857.646 830.666,857.063 830.66,852.617C830.633,832.494 830.939,787.371 830.692,764.448C830.476,744.418 815.776,729.769 798.378,729.766C791.422,729.765 764.542,729.757 757.586,729.757Z" style="fill:white;"/>
                    </g>
                    <g transform="matrix(1.040039,0,0,1.040039,40,73)">
                        <path d="M642.5,729.627C639.955,729.61 639.387,731.054 639.388,733.221C639.388,743.69 639.379,753.127 639.409,759.596C639.421,762.1 639.866,762.488 641.458,762.488C647.929,762.488 684.81,762.475 691.28,762.474C692.07,762.474 692.367,763.453 692.534,768.079C692.683,772.185 692.619,780.005 692.619,787.154C692.619,789.854 693.079,792.313 689.352,792.293C677.856,792.232 652.799,792.264 641.466,792.238C640.29,792.235 638.828,792.334 638.808,794.696C638.756,800.844 639.028,805.239 639.026,826.346C639.025,829.419 640.364,831.25 642.478,831.254C646.608,831.261 661.046,831.302 691.501,831.292C695.156,831.29 694.513,832.931 694.512,835.692C694.511,844.182 694.413,849.093 694.41,854.902C694.41,856.518 693.895,857.693 693.194,857.694C686.17,857.701 684.577,857.681 615.019,857.646C610.598,857.644 609.123,857.715 609.121,855.608C609.115,847.315 609.055,825.211 609.048,712.5C609.048,702.877 608.659,700.95 612.452,700.969C613.316,700.973 667.584,701.049 691.53,700.968C694.577,700.958 694.526,702.435 694.515,705.5C694.468,718.604 694.553,722.299 694.564,727.97C694.567,729.701 692.641,729.785 691.475,729.782C678.952,729.757 653.121,729.698 642.5,729.627Z" style="fill:white;"/>
                    </g>
                    <g transform="matrix(1.040039,0,0,1.040039,40,73)">
                        <path d="M474.045,702.7C477.077,710.554 513.399,804.338 513.913,805.724C514.101,806.23 514.966,806.817 515.4,805.687C518.924,796.501 553.779,708.179 555.493,703.497C555.952,702.242 556.226,700.927 558.844,700.929C564.138,700.932 583.084,700.958 587.703,700.966C588.953,700.968 589.364,701.707 589.002,702.564C586.934,707.453 524.957,854.213 524.744,854.599C523.542,857.702 522.876,857.685 519.529,857.682C513.082,857.675 511.516,857.678 507.86,857.68C506.221,857.682 504.947,855.195 504.633,854.488C502.382,849.422 443.688,709.791 440.699,702.947C440.06,701.484 441.128,700.959 443.347,700.938C456.287,700.812 469.867,700.799 471.318,700.913C472.331,700.992 473.486,701.253 474.045,702.7Z" style="fill:white;"/>
                    </g>
                </g>
                <g id="Microcybernetics" transform="matrix(0.178319,0,0,0.596222,356.092126,1126.480231)">
                    <path d="M309.284,1031.56C309.514,1029.466 311.072,1027.761 313.136,1027.342C315.201,1026.924 317.299,1027.887 318.327,1029.726C327.96,1046.964 344.489,1076.543 352.228,1090.391C353.084,1091.922 354.701,1092.871 356.456,1092.871C358.211,1092.871 359.828,1091.922 360.684,1090.391C368.423,1076.543 384.952,1046.964 394.585,1029.726C395.612,1027.887 397.711,1026.924 399.775,1027.342C401.84,1027.761 403.397,1029.466 403.628,1031.56C405.835,1051.637 409.668,1086.501 411.425,1102.486C411.953,1107.293 416.015,1110.933 420.852,1110.933C420.856,1110.933 420.86,1110.933 420.864,1110.933C423.014,1110.933 425.061,1110.015 426.491,1108.41C427.921,1106.805 428.598,1104.666 428.351,1102.531C425.584,1078.602 417.633,1009.853 414.092,979.23C413.85,977.138 412.283,975.442 410.217,975.034C408.151,974.627 406.058,975.601 405.04,977.445C393.193,998.896 370.178,1040.569 360.696,1057.739C359.843,1059.283 358.219,1060.241 356.456,1060.241C354.692,1060.241 353.068,1059.283 352.216,1057.739C342.734,1040.569 319.719,998.896 307.872,977.445C306.854,975.601 304.761,974.627 302.695,975.034C300.628,975.442 299.062,977.138 298.82,979.23C295.356,1009.188 287.671,1075.636 284.748,1100.911C284.454,1103.458 285.261,1106.009 286.967,1107.924C288.672,1109.838 291.115,1110.933 293.679,1110.933C293.802,1110.933 293.925,1110.933 294.048,1110.933C297.753,1110.933 300.865,1108.145 301.27,1104.462C302.908,1089.562 306.981,1052.511 309.284,1031.56Z" style="fill:white;fill-rule:nonzero;"/>
                    <path d="M575.547,971.189C570.865,971.189 567.07,974.984 567.07,979.665C567.07,1004.602 567.07,1077.521 567.07,1102.457C567.07,1107.138 570.865,1110.933 575.547,1110.933C575.552,1110.933 575.558,1110.933 575.563,1110.933C580.244,1110.933 584.039,1107.138 584.039,1102.457C584.039,1077.521 584.039,1004.602 584.039,979.665C584.039,974.984 580.244,971.189 575.563,971.189C575.558,971.189 575.552,971.189 575.547,971.189Z" style="fill:white;fill-rule:nonzero;"/>
                    <path d="M739.754,1041.061C739.754,1030.148 742.183,1020.599 747.041,1012.414C751.899,1004.229 758.254,997.807 766.106,993.149C773.958,988.491 782.476,986.162 791.659,986.162C798.314,986.162 804.403,987.027 809.926,988.757C815.449,990.487 820.473,992.916 824.998,996.043C825.85,996.632 826.678,997.239 827.483,997.863C829.188,999.171 831.488,999.398 833.415,998.448C835.343,997.498 836.564,995.535 836.564,993.386C836.577,992.828 836.577,992.279 836.577,991.743C836.578,986.764 834.111,982.107 829.99,979.312C825.972,976.726 821.799,974.589 817.412,972.986C810.492,970.457 801.907,969.193 791.659,969.193C781.944,969.193 772.86,970.956 764.409,974.483C755.958,978.01 748.538,983.001 742.15,989.456C735.762,995.91 730.771,1003.53 727.177,1012.314C723.584,1021.098 721.787,1030.68 721.787,1041.061C721.787,1051.442 723.584,1061.025 727.177,1069.808C730.771,1078.592 735.762,1086.212 742.15,1092.667C748.538,1099.121 755.958,1104.112 764.409,1107.639C772.86,1111.166 781.944,1112.93 791.659,1112.93C801.907,1112.93 810.492,1111.665 817.412,1109.136C821.049,1107.808 824.539,1106.111 827.882,1104.047C833.199,1100.783 836.439,1094.991 836.439,1088.752C836.577,1088.746 836.577,1088.741 836.577,1088.736C836.575,1086.583 835.352,1084.618 833.42,1083.666C831.489,1082.715 829.185,1082.942 827.477,1084.252C826.678,1084.884 825.85,1085.49 824.998,1086.079C820.473,1089.206 815.449,1091.635 809.926,1093.365C804.403,1095.096 798.314,1095.961 791.659,1095.961C782.476,1095.961 773.958,1093.632 766.106,1088.973C758.254,1084.315 751.899,1077.86 747.041,1069.609C742.183,1061.357 739.754,1051.841 739.754,1041.061Z" style="fill:white;fill-rule:nonzero;"/>
                    <path d="M1005.268,1042.059C1005.268,1042.059 1041.03,1093.467 1050.761,1107.455C1052.277,1109.634 1054.763,1110.933 1057.417,1110.933C1057.424,1110.933 1057.431,1110.933 1057.437,1110.933C1060.641,1110.933 1063.574,1109.137 1065.031,1106.283C1066.487,1103.43 1066.22,1100 1064.34,1097.406C1049.805,1077.348 1024.234,1042.059 1024.234,1042.059L1005.268,1042.059ZM997.277,971.189C987.908,971.189 980.314,978.783 980.314,988.151C980.314,1018.245 980.314,1079.93 980.314,1102.457C980.314,1107.138 984.109,1110.933 988.79,1110.933C988.796,1110.933 988.801,1110.933 988.807,1110.933C993.488,1110.933 997.283,1107.138 997.283,1102.457C997.283,1072.183 997.283,971.189 997.283,971.189L997.277,971.189ZM989.697,986.162L1018.245,986.162C1024.234,986.162 1029.524,987.226 1034.116,989.356C1038.707,991.485 1042.301,994.546 1044.896,998.539C1047.491,1002.532 1048.789,1007.389 1048.789,1013.112C1048.789,1018.835 1047.491,1023.693 1044.896,1027.686C1042.301,1031.678 1038.707,1034.739 1034.116,1036.869C1029.524,1038.998 1024.234,1040.063 1018.245,1040.063L989.697,1040.063L989.697,1055.036L1018.245,1055.036C1027.295,1055.036 1035.38,1053.339 1042.5,1049.945C1049.621,1046.551 1055.277,1041.693 1059.469,1035.372C1063.662,1029.05 1065.758,1021.63 1065.758,1013.112C1065.758,1004.461 1063.662,997.008 1059.469,990.753C1055.277,984.498 1049.621,979.673 1042.5,976.28C1035.38,972.886 1027.295,971.189 1018.245,971.189L989.697,971.189L989.697,986.162Z" style="fill:white;fill-rule:nonzero;"/>
                    <path d="M1215.883,1041.061C1215.883,1030.547 1218.179,1021.164 1222.77,1012.913C1227.362,1004.661 1233.65,998.14 1241.636,993.348C1249.621,988.557 1258.671,986.162 1268.786,986.162C1279.034,986.162 1288.117,988.557 1296.036,993.348C1303.955,998.14 1310.21,1004.661 1314.802,1012.913C1319.394,1021.164 1321.689,1030.547 1321.689,1041.061C1321.689,1051.575 1319.394,1060.958 1314.802,1069.21C1310.21,1077.461 1303.955,1083.983 1296.036,1088.774C1288.117,1093.565 1279.034,1095.961 1268.786,1095.961C1258.671,1095.961 1249.621,1093.565 1241.636,1088.774C1233.65,1083.983 1227.362,1077.461 1222.77,1069.21C1218.179,1060.958 1215.883,1051.575 1215.883,1041.061ZM1197.916,1041.061C1197.916,1051.176 1199.679,1060.625 1203.206,1069.409C1206.733,1078.193 1211.691,1085.813 1218.079,1092.267C1224.467,1098.722 1231.987,1103.78 1240.638,1107.44C1249.288,1111.1 1258.671,1112.93 1268.786,1112.93C1279.034,1112.93 1288.45,1111.1 1297.034,1107.44C1305.619,1103.78 1313.105,1098.722 1319.493,1092.267C1325.882,1085.813 1330.839,1078.193 1334.366,1069.409C1337.893,1060.625 1339.656,1051.176 1339.656,1041.061C1339.656,1030.813 1337.893,1021.331 1334.366,1012.613C1330.839,1003.896 1325.882,996.31 1319.493,989.855C1313.105,983.4 1305.619,978.343 1297.034,974.683C1288.45,971.023 1279.034,969.193 1268.786,969.193C1258.671,969.193 1249.288,971.023 1240.638,974.683C1231.987,978.343 1224.467,983.4 1218.079,989.855C1211.691,996.31 1206.733,1003.896 1203.206,1012.613C1199.679,1021.331 1197.916,1030.813 1197.916,1041.061Z" style="fill:white;fill-rule:nonzero;"/>
                    <path d="M1487.386,1041.061C1487.386,1030.148 1489.815,1020.599 1494.673,1012.414C1499.53,1004.229 1505.886,997.807 1513.738,993.149C1521.59,988.491 1530.108,986.162 1539.291,986.162C1545.946,986.162 1552.034,987.027 1557.558,988.757C1563.081,990.487 1568.105,992.916 1572.63,996.043C1573.482,996.632 1574.31,997.239 1575.115,997.863C1576.819,999.171 1579.119,999.398 1581.047,998.448C1582.975,997.498 1584.195,995.535 1584.195,993.386C1584.209,992.828 1584.209,992.279 1584.209,991.743C1584.21,986.764 1581.743,982.107 1577.622,979.312C1573.604,976.726 1569.431,974.589 1565.044,972.986C1558.123,970.457 1549.539,969.193 1539.291,969.193C1529.576,969.193 1520.492,970.956 1512.041,974.483C1503.59,978.01 1496.17,983.001 1489.782,989.456C1483.393,995.91 1478.403,1003.53 1474.809,1012.314C1471.216,1021.098 1469.419,1030.68 1469.419,1041.061C1469.419,1051.442 1471.216,1061.025 1474.809,1069.808C1478.403,1078.592 1483.393,1086.212 1489.782,1092.667C1496.17,1099.121 1503.59,1104.112 1512.041,1107.639C1520.492,1111.166 1529.576,1112.93 1539.291,1112.93C1549.539,1112.93 1558.123,1111.665 1565.044,1109.136C1568.681,1107.808 1572.171,1106.111 1575.513,1104.047C1580.831,1100.783 1584.071,1094.991 1584.071,1088.752C1584.209,1088.746 1584.209,1088.741 1584.209,1088.736C1584.207,1086.583 1582.983,1084.618 1581.052,1083.666C1579.121,1082.715 1576.817,1082.942 1575.109,1084.252C1574.31,1084.884 1573.482,1085.49 1572.63,1086.079C1568.105,1089.206 1563.081,1091.635 1557.558,1093.365C1552.034,1095.096 1545.946,1095.961 1539.291,1095.961C1530.108,1095.961 1521.59,1093.632 1513.738,1088.973C1505.886,1084.315 1499.53,1077.86 1494.673,1069.609C1489.815,1061.357 1487.386,1051.841 1487.386,1041.061Z" style="fill:white;fill-rule:nonzero;"/>
                    <path d="M1808.845,971.189C1807.09,971.189 1805.473,972.138 1804.617,973.67C1799.595,982.659 1782.225,1013.753 1774.109,1028.28C1773.252,1029.814 1771.632,1030.764 1769.875,1030.762C1768.118,1030.76 1766.5,1029.806 1765.647,1028.27C1757.576,1013.744 1740.319,982.68 1735.319,973.68C1734.465,972.143 1732.844,971.189 1731.085,971.189C1729.037,971.189 1726.162,971.189 1723.407,971.189C1721.672,971.189 1720.07,972.117 1719.206,973.621C1718.343,975.126 1718.35,976.977 1719.224,978.475C1729.714,996.439 1756.295,1041.956 1760.823,1049.711C1761.256,1050.453 1761.484,1051.296 1761.484,1052.154C1761.484,1059.261 1761.484,1093.325 1761.484,1106.09C1761.484,1108.765 1763.653,1110.933 1766.328,1110.933C1768.611,1110.933 1771.327,1110.933 1773.61,1110.933C1776.285,1110.933 1778.453,1108.765 1778.453,1106.09C1778.453,1093.295 1778.453,1059.087 1778.453,1051.957C1778.453,1051.097 1778.682,1050.252 1779.117,1049.51C1783.652,1041.764 1810.203,996.411 1820.7,978.48C1821.577,976.982 1821.585,975.129 1820.722,973.623C1819.859,972.118 1818.256,971.189 1816.52,971.189C1813.764,971.189 1810.891,971.189 1808.845,971.189Z" style="fill:white;fill-rule:nonzero;"/>
                    <path d="M1969.104,1037.068L1991.663,1037.068C2000.048,1037.068 2007.334,1035.871 2013.523,1033.475C2019.712,1031.079 2024.536,1027.552 2027.997,1022.894C2031.457,1018.236 2033.187,1012.646 2033.187,1006.125C2033.187,998.14 2031.457,991.585 2027.997,986.461C2024.536,981.337 2019.712,977.511 2013.523,974.982C2007.334,972.453 2000.048,971.189 1991.663,971.189C1991.663,971.189 1970.38,971.189 1960.573,971.189C1957.897,971.189 1955.729,973.358 1955.729,976.033C1955.729,997.572 1955.729,1084.55 1955.729,1106.09C1955.729,1108.765 1957.897,1110.933 1960.572,1110.933C1970.799,1110.933 1993.659,1110.933 1993.659,1110.933C2002.71,1110.933 2010.795,1109.436 2017.915,1106.441C2025.035,1103.447 2030.692,1098.922 2034.884,1092.866C2039.076,1086.811 2041.173,1079.191 2041.173,1070.008C2041.173,1063.62 2039.975,1058.097 2037.579,1053.438C2035.183,1048.78 2031.823,1044.954 2027.498,1041.959C2023.172,1038.965 2018.148,1036.736 2012.425,1035.272C2006.702,1033.808 2000.447,1033.076 1993.659,1033.076L1969.104,1033.076L1969.104,1042.459L1993.659,1042.459C1998.185,1042.459 2002.31,1043.024 2006.037,1044.155C2009.763,1045.287 2012.991,1046.984 2015.719,1049.246C2018.447,1051.509 2020.544,1054.304 2022.008,1057.631C2023.472,1060.958 2024.204,1064.751 2024.204,1069.01C2024.204,1074.733 2022.906,1079.591 2020.311,1083.583C2017.715,1087.576 2014.122,1090.637 2009.53,1092.766C2004.939,1094.896 1999.649,1095.961 1993.659,1095.961L1972.698,1095.961L1972.698,986.162L1991.663,986.162C1998.717,986.162 2004.573,987.992 2009.231,991.652C2013.889,995.311 2016.218,1000.469 2016.218,1007.123C2016.218,1011.515 2015.153,1015.242 2013.024,1018.303C2010.895,1021.364 2007.967,1023.693 2004.24,1025.29C2000.514,1026.887 1996.321,1027.686 1991.663,1027.686L1969.104,1027.686L1969.104,1037.068Z" style="fill:white;fill-rule:nonzero;"/>
                    <path d="M2190.3,1110.933C2190.3,1110.933 2234.337,1110.933 2252.788,1110.933C2257.197,1110.933 2260.771,1107.359 2260.771,1102.951C2260.771,1102.949 2260.771,1102.947 2260.771,1102.945C2260.771,1098.536 2257.197,1094.962 2252.788,1094.962C2234.337,1094.962 2190.3,1094.962 2190.3,1094.962L2190.3,1110.933ZM2190.3,987.16L2252.788,987.16C2257.197,987.16 2260.771,983.586 2260.771,979.177C2260.771,979.175 2260.771,979.173 2260.771,979.171C2260.771,974.763 2257.197,971.189 2252.788,971.189C2234.337,971.189 2190.3,971.189 2190.3,971.189L2190.3,987.16ZM2190.3,1043.057L2248.796,1043.057C2250.913,1043.057 2252.943,1042.216 2254.44,1040.719C2255.937,1039.223 2256.778,1037.192 2256.778,1035.075C2256.778,1035.073 2256.778,1035.071 2256.778,1035.069C2256.778,1032.952 2255.937,1030.922 2254.44,1029.425C2252.943,1027.928 2250.913,1027.087 2248.796,1027.087C2231.134,1027.087 2190.3,1027.087 2190.3,1027.087L2190.3,1043.057ZM2190.604,971.189C2185.254,971.189 2180.917,975.526 2180.917,980.876C2180.917,1006.466 2180.917,1075.656 2180.917,1101.246C2180.917,1106.596 2185.254,1110.933 2190.604,1110.933C2194.41,1110.933 2197.886,1110.933 2197.886,1110.933L2197.886,971.189L2190.604,971.189Z" style="fill:white;fill-rule:nonzero;"/>
                    <path d="M2417.484,1042.059C2417.484,1042.059 2453.245,1093.467 2462.977,1107.455C2464.492,1109.634 2466.979,1110.933 2469.633,1110.933C2469.639,1110.933 2469.646,1110.933 2469.653,1110.933C2472.856,1110.933 2475.79,1109.137 2477.246,1106.283C2478.702,1103.43 2478.435,1100 2476.556,1097.406C2462.021,1077.348 2436.449,1042.059 2436.449,1042.059L2417.484,1042.059ZM2409.492,971.189C2400.124,971.189 2392.529,978.783 2392.529,988.151C2392.529,1018.245 2392.529,1079.93 2392.529,1102.457C2392.529,1107.138 2396.324,1110.933 2401.006,1110.933C2401.011,1110.933 2401.017,1110.933 2401.022,1110.933C2405.703,1110.933 2409.498,1107.138 2409.498,1102.457C2409.498,1072.183 2409.498,971.189 2409.498,971.189L2409.492,971.189ZM2401.912,986.162L2430.46,986.162C2436.449,986.162 2441.739,987.226 2446.331,989.356C2450.923,991.485 2454.516,994.546 2457.111,998.539C2459.707,1002.532 2461.004,1007.389 2461.004,1013.112C2461.004,1018.835 2459.707,1023.693 2457.111,1027.686C2454.516,1031.678 2450.923,1034.739 2446.331,1036.869C2441.739,1038.998 2436.449,1040.063 2430.46,1040.063L2401.912,1040.063L2401.912,1055.036L2430.46,1055.036C2439.51,1055.036 2447.595,1053.339 2454.716,1049.945C2461.836,1046.551 2467.492,1041.693 2471.685,1035.372C2475.877,1029.05 2477.973,1021.63 2477.973,1013.112C2477.973,1004.461 2475.877,997.008 2471.685,990.753C2467.492,984.498 2461.836,979.673 2454.716,976.28C2447.595,972.886 2439.51,971.189 2430.46,971.189L2401.912,971.189L2401.912,986.162Z" style="fill:white;fill-rule:nonzero;"/>
                    <path d="M2728.767,971.189C2726.092,971.189 2723.923,973.358 2723.923,976.033C2723.923,991.53 2723.923,1040.22 2723.923,1063.097C2723.923,1065.078 2722.718,1066.858 2720.879,1067.594C2719.041,1068.33 2716.94,1067.873 2715.573,1066.439C2695.791,1045.687 2646.248,993.713 2626.466,972.961C2625.1,971.528 2622.999,971.07 2621.16,971.806C2619.322,972.542 2618.117,974.323 2618.117,976.303C2618.117,1006.784 2618.117,1085.736 2618.117,1106.09C2618.117,1107.374 2618.627,1108.606 2619.535,1109.515C2620.444,1110.423 2621.676,1110.933 2622.96,1110.933C2625.243,1110.933 2627.959,1110.933 2630.242,1110.933C2632.917,1110.933 2635.086,1108.765 2635.086,1106.09C2635.086,1090.592 2635.086,1041.902 2635.086,1019.025C2635.086,1017.045 2636.291,1015.264 2638.129,1014.528C2639.968,1013.792 2642.069,1014.249 2643.435,1015.683C2663.217,1036.435 2712.76,1088.409 2732.542,1109.161C2733.909,1110.595 2736.01,1111.052 2737.848,1110.316C2739.687,1109.58 2740.892,1107.799 2740.892,1105.819C2740.892,1075.339 2740.892,996.386 2740.892,976.033C2740.892,974.748 2740.382,973.516 2739.473,972.608C2738.565,971.699 2737.333,971.189 2736.048,971.189C2733.766,971.189 2731.049,971.189 2728.767,971.189Z" style="fill:white;fill-rule:nonzero;"/>
                    <path d="M2896.008,1110.933C2896.008,1110.933 2940.046,1110.933 2958.497,1110.933C2962.905,1110.933 2966.479,1107.359 2966.479,1102.951C2966.479,1102.949 2966.479,1102.947 2966.479,1102.945C2966.479,1098.536 2962.905,1094.962 2958.497,1094.962C2940.046,1094.962 2896.008,1094.962 2896.008,1094.962L2896.008,1110.933ZM2896.008,987.16L2958.497,987.16C2962.905,987.16 2966.479,983.586 2966.479,979.177C2966.479,979.175 2966.479,979.173 2966.479,979.171C2966.479,974.763 2962.905,971.189 2958.497,971.189C2940.046,971.189 2896.008,971.189 2896.008,971.189L2896.008,987.16ZM2896.008,1043.057L2954.504,1043.057C2956.621,1043.057 2958.651,1042.216 2960.148,1040.719C2961.645,1039.223 2962.486,1037.192 2962.486,1035.075C2962.486,1035.073 2962.486,1035.071 2962.486,1035.069C2962.486,1032.952 2961.645,1030.922 2960.148,1029.425C2958.651,1027.928 2956.621,1027.087 2954.504,1027.087C2936.842,1027.087 2896.008,1027.087 2896.008,1027.087L2896.008,1043.057ZM2896.312,971.189C2890.962,971.189 2886.625,975.526 2886.625,980.876C2886.625,1006.466 2886.625,1075.656 2886.625,1101.246C2886.625,1106.596 2890.962,1110.933 2896.312,1110.933C2900.118,1110.933 2903.594,1110.933 2903.594,1110.933L2903.594,971.189L2896.312,971.189Z" style="fill:white;fill-rule:nonzero;"/>
                    <path d="M3088.256,979.177C3088.256,981.294 3089.097,983.325 3090.594,984.822C3092.091,986.319 3094.121,987.16 3096.238,987.16C3101.632,987.16 3108.784,987.16 3114.503,987.16C3119.853,987.16 3124.19,991.497 3124.19,996.847C3124.19,1020.376 3124.19,1080.233 3124.19,1102.457C3124.19,1107.138 3127.985,1110.933 3132.667,1110.933C3132.672,1110.933 3132.678,1110.933 3132.683,1110.933C3137.364,1110.933 3141.159,1107.138 3141.159,1102.457C3141.159,1080.233 3141.159,1020.376 3141.159,996.847C3141.159,991.497 3145.496,987.16 3150.847,987.16C3156.566,987.16 3163.718,987.16 3169.111,987.16C3171.228,987.16 3173.259,986.319 3174.756,984.822C3176.253,983.325 3177.094,981.294 3177.094,979.177C3177.094,979.175 3177.094,979.173 3177.094,979.171C3177.094,974.763 3173.52,971.189 3169.111,971.189C3152.237,971.189 3113.112,971.189 3096.238,971.189C3091.83,971.189 3088.256,974.763 3088.256,979.171C3088.256,979.173 3088.256,979.175 3088.256,979.177Z" style="fill:white;fill-rule:nonzero;"/>
                    <path d="M3317.329,971.189C3312.647,971.189 3308.852,974.984 3308.852,979.665C3308.852,1004.602 3308.852,1077.521 3308.852,1102.457C3308.852,1107.138 3312.647,1110.933 3317.329,1110.933C3317.334,1110.933 3317.34,1110.933 3317.345,1110.933C3322.026,1110.933 3325.821,1107.138 3325.821,1102.457C3325.821,1077.521 3325.821,1004.602 3325.821,979.665C3325.821,974.984 3322.026,971.189 3317.345,971.189C3317.34,971.189 3317.334,971.189 3317.329,971.189Z" style="fill:white;fill-rule:nonzero;"/>
                    <path d="M3481.536,1041.061C3481.536,1030.148 3483.965,1020.599 3488.823,1012.414C3493.681,1004.229 3500.036,997.807 3507.888,993.149C3515.74,988.491 3524.258,986.162 3533.441,986.162C3540.096,986.162 3546.185,987.027 3551.708,988.757C3557.231,990.487 3562.255,992.916 3566.78,996.043C3567.632,996.632 3568.46,997.239 3569.265,997.863C3570.97,999.171 3573.27,999.398 3575.197,998.448C3577.125,997.498 3578.346,995.535 3578.346,993.386C3578.359,992.828 3578.359,992.279 3578.359,991.743C3578.36,986.764 3575.893,982.107 3571.772,979.312C3567.754,976.726 3563.581,974.589 3559.194,972.986C3552.274,970.457 3543.689,969.193 3533.441,969.193C3523.726,969.193 3514.642,970.956 3506.191,974.483C3497.74,978.01 3490.32,983.001 3483.932,989.456C3477.544,995.91 3472.553,1003.53 3468.959,1012.314C3465.366,1021.098 3463.569,1030.68 3463.569,1041.061C3463.569,1051.442 3465.366,1061.025 3468.959,1069.808C3472.553,1078.592 3477.544,1086.212 3483.932,1092.667C3490.32,1099.121 3497.74,1104.112 3506.191,1107.639C3514.642,1111.166 3523.726,1112.93 3533.441,1112.93C3543.689,1112.93 3552.274,1111.665 3559.194,1109.136C3562.831,1107.808 3566.321,1106.111 3569.664,1104.047C3574.981,1100.783 3578.221,1094.991 3578.221,1088.752C3578.359,1088.746 3578.359,1088.741 3578.359,1088.736C3578.357,1086.583 3577.134,1084.618 3575.202,1083.666C3573.271,1082.715 3570.967,1082.942 3569.259,1084.252C3568.46,1084.884 3567.632,1085.49 3566.78,1086.079C3562.255,1089.206 3557.231,1091.635 3551.708,1093.365C3546.185,1095.096 3540.096,1095.961 3533.441,1095.961C3524.258,1095.961 3515.74,1093.632 3507.888,1088.973C3500.036,1084.315 3493.681,1077.86 3488.823,1069.609C3483.965,1061.357 3481.536,1051.841 3481.536,1041.061Z" style="fill:white;fill-rule:nonzero;"/>
                    <path d="M3731.771,1075.859C3730.508,1073.991 3728.554,1072.701 3726.34,1072.274C3724.126,1071.847 3721.833,1072.316 3719.965,1073.58C3719.789,1073.683 3719.62,1073.797 3719.453,1073.91C3716.089,1076.183 3715.123,1080.708 3717.265,1084.156C3719.68,1087.935 3722.447,1091.575 3725.59,1095.062C3730.447,1100.452 3736.104,1104.778 3742.559,1108.039C3749.013,1111.299 3756.034,1112.93 3763.62,1112.93C3769.21,1112.93 3774.567,1111.998 3779.691,1110.135C3784.815,1108.271 3789.406,1105.61 3793.465,1102.149C3797.525,1098.689 3800.719,1094.497 3803.048,1089.572C3805.377,1084.648 3806.542,1079.125 3806.542,1073.003C3806.542,1066.614 3805.41,1061.124 3803.148,1056.533C3800.885,1051.941 3797.991,1048.015 3794.464,1044.754C3790.937,1041.494 3787.11,1038.799 3782.985,1036.669C3778.859,1034.54 3774.933,1032.81 3771.206,1031.479C3763.088,1028.684 3756.666,1025.856 3751.941,1022.994C3747.217,1020.133 3743.856,1017.072 3741.86,1013.811C3739.864,1010.55 3738.865,1006.99 3738.865,1003.131C3738.865,998.605 3740.596,994.513 3744.056,990.853C3747.516,987.193 3753.039,985.363 3760.626,985.363C3766.082,985.363 3770.707,986.428 3774.5,988.557C3778.293,990.687 3781.521,993.415 3784.182,996.742C3785.375,998.232 3786.473,999.736 3787.479,1001.253C3789.507,1004.326 3793.576,1005.29 3796.768,1003.453C3796.779,1003.467 3796.781,1003.466 3796.783,1003.464C3799.212,1002.068 3800.93,999.701 3801.506,996.958C3802.081,994.216 3801.458,991.358 3799.795,989.103C3798.595,987.547 3797.329,985.992 3795.961,984.465C3791.968,980.006 3787.144,976.346 3781.487,973.485C3775.831,970.623 3769.21,969.193 3761.624,969.193C3753.771,969.193 3746.784,970.756 3740.662,973.884C3734.54,977.012 3729.749,981.304 3726.288,986.76C3722.828,992.217 3721.098,998.406 3721.098,1005.326C3721.098,1011.715 3722.329,1017.105 3724.791,1021.497C3727.253,1025.889 3730.414,1029.582 3734.274,1032.577C3738.133,1035.571 3742.193,1038.033 3746.452,1039.963C3750.71,1041.893 3754.57,1043.457 3758.03,1044.655C3763.354,1046.518 3768.378,1048.614 3773.103,1050.943C3777.827,1053.272 3781.654,1056.3 3784.582,1060.026C3787.51,1063.753 3788.974,1068.744 3788.974,1074.999C3788.974,1081.387 3786.711,1086.644 3782.186,1090.77C3777.661,1094.896 3771.672,1096.959 3764.219,1096.959C3758.629,1096.959 3753.638,1095.761 3749.246,1093.365C3744.854,1090.97 3740.895,1087.643 3737.368,1083.384C3735.453,1081.071 3733.588,1078.563 3731.771,1075.859Z" style="fill:white;fill-rule:nonzero;"/>
                </g>
                <g id="Symbol" transform="matrix(0.38145,0,0,1.275408,10.757056,1037.665189)">
                    <path d="M512.962,2.324L513.03,2.325C531.942,2.415 551.638,12.205 562.359,29.399C596.097,83.505 757.231,360.122 757.518,360.489C757.721,360.748 760.405,364.226 764.136,362.952C765.717,362.413 1016.033,276.737 1020.506,275.431C1021.184,275.233 1022.694,275.211 1022.656,277.477C1022.617,279.716 1022.147,295.55 1022.063,299.377C1022.058,299.618 1021.665,300.105 1021.338,300.357C1021.028,300.595 816.066,400.734 811.384,403.387C810.655,403.8 811.698,405.84 812.51,405.634C845.87,397.19 1004.77,354.731 1011.54,352.723C1013.594,352.114 1013.768,353.969 1013.659,354.509C1012.662,359.468 997.938,398.679 984.667,420.67C981.533,425.864 980.706,426.363 978.184,427.049C954.318,433.546 843.177,458.568 839.549,459.649C836.402,460.586 838.936,461.943 839.106,461.958C839.305,461.976 931.822,459.413 946.481,459.589C947.435,459.6 946.91,460.8 946.45,462.45C940.53,483.689 902.656,497.853 848.452,512.351C844.771,513.336 847.242,516.359 847.43,516.539C847.577,516.679 874.007,572.002 885.662,594.465C909.06,639.562 871.537,673.491 825.419,674.035C821.435,674.29 556.947,674.076 556.553,674.031C556.389,674.011 516.764,633.782 512.962,633.759C509.159,633.782 469.534,674.011 469.37,674.031C468.976,674.076 204.488,674.29 200.504,674.035C154.386,673.491 116.863,639.562 140.261,594.465C151.916,572.002 178.346,516.679 178.493,516.539C178.681,516.359 181.152,513.336 177.471,512.351C123.267,497.853 85.393,483.689 79.473,462.45C79.013,460.8 78.488,459.6 79.442,459.589C94.101,459.413 186.618,461.976 186.817,461.958C186.987,461.943 189.521,460.586 186.374,459.649C182.746,458.568 71.605,433.546 47.739,427.049C45.217,426.363 44.39,425.864 41.256,420.67C27.985,398.679 13.261,359.468 12.264,354.509C12.155,353.969 12.329,352.114 14.383,352.723C21.153,354.731 180.053,397.19 213.413,405.634C214.225,405.84 215.268,403.8 214.539,403.387C209.857,400.734 4.895,300.595 4.585,300.357C4.258,300.105 3.865,299.618 3.86,299.377C3.776,295.55 3.306,279.716 3.267,277.477C3.229,275.211 4.739,275.233 5.417,275.431C9.89,276.737 260.206,362.413 261.787,362.952C265.518,364.226 268.202,360.748 268.405,360.489C268.692,360.122 429.826,83.505 463.564,29.399C474.285,12.205 493.981,2.415 512.893,2.325L512.962,2.324ZM512.962,532.221C513.818,532.366 514.516,531.375 514.957,530.508C527.256,506.308 535.034,485.167 534.901,470.447C534.787,457.844 521.928,445.799 512.962,445.754C503.995,445.799 491.136,457.844 491.022,470.447C490.889,485.167 498.667,506.308 510.966,530.508C511.407,531.375 512.105,532.366 512.962,532.221ZM512.962,401.66C543.602,404.556 556.643,419.371 562.444,425.705C563.953,427.354 565.655,426.35 566.41,426.105C570.256,424.855 721.571,374.906 724.64,373.689C724.684,373.672 725.536,372.671 724.713,371.446C688.514,317.623 644.219,244.822 515.582,244.84C514.665,244.84 513.792,244.943 512.962,245.144C512.131,244.943 511.258,244.84 510.341,244.84C381.704,244.822 337.409,317.623 301.21,371.446C300.387,372.671 301.239,373.672 301.283,373.689C304.352,374.906 455.667,424.855 459.513,426.105C460.268,426.35 461.97,427.354 463.479,425.705C469.28,419.371 482.321,404.556 512.962,401.66ZM512.962,212.791C513.072,212.793 513.146,212.795 513.181,212.797C601.241,217.981 649.804,251.266 653.493,253.306C654.386,253.8 656.808,253.887 655.504,250.997C633.679,202.605 554.73,68.654 543.372,52.283C533.094,37.469 521.235,34.018 512.962,34.018C504.688,34.018 492.829,37.469 482.551,52.283C471.193,68.654 392.244,202.605 370.419,250.997C369.115,253.887 371.537,253.8 372.43,253.306C376.119,251.266 424.682,217.981 512.742,212.797C512.777,212.795 512.851,212.793 512.962,212.791ZM433.469,573.221C397.176,563.439 251.953,530.279 214.436,521.631C212.463,521.176 208.505,520.544 207.408,522.294C200.855,532.754 183.165,568.966 175.117,585.352C156.239,623.788 181.854,641.322 204.386,641.322C226.918,641.322 392.197,641.335 393.586,641.322C394.851,641.31 395.714,640.477 396.37,639.525C397.8,637.448 430.663,583.205 432.198,580.319C433.34,578.172 435.79,573.846 433.469,573.221ZM475.09,431.894C474.398,431.547 473.778,433.246 474.05,433.971C474.537,435.27 477.421,437.486 478.013,438.729C478.405,439.55 477.387,440.874 477.606,441.426C477.935,442.257 478.705,442.43 479.991,444.676C481.042,446.513 480.047,452.664 488.051,452.639C493.131,452.623 492.725,449.084 491.788,446.74C491.333,445.602 492.904,444.036 492.155,443.055C489.532,439.619 478.107,433.408 475.09,431.894ZM550.833,431.894C547.816,433.408 536.391,439.619 533.768,443.055C533.019,444.036 534.59,445.602 534.135,446.74C533.198,449.084 532.792,452.623 537.872,452.639C545.876,452.664 544.881,446.513 545.932,444.676C547.218,442.43 547.988,442.257 548.317,441.426C548.536,440.874 547.518,439.55 547.91,438.729C548.502,437.486 551.386,435.27 551.873,433.971C552.145,433.246 551.525,431.547 550.833,431.894ZM592.454,573.221C590.133,573.846 592.583,578.172 593.725,580.319C595.26,583.205 628.123,637.448 629.553,639.525C630.209,640.477 631.072,641.31 632.337,641.322C633.726,641.335 799.005,641.322 821.537,641.322C844.069,641.322 869.685,623.788 850.806,585.352C842.758,568.966 825.068,532.754 818.515,522.294C817.418,520.544 813.46,521.176 811.487,521.631C773.971,530.279 628.747,563.439 592.454,573.221Z" style="fill:white;"/>
                </g>
            </g>
        </g>
    </g>
</svg>
