<?xml version="1.0" encoding="UTF-8"?><svg id="Layer_2" xmlns="http://www.w3.org/2000/svg" viewBox="0 0 566.82 166.45"><defs><style>.cls-1{fill:#fff;}</style></defs><g id="Layer_1-2"><polygon class="cls-1" points="128.79 27.97 128.79 61.75 10.23 61.75 0 27.97 128.79 27.97"/><path class="cls-1" d="M331.12,61.75V27.97h-24.45c-38.24,0-69.24,31-69.24,69.24h0c0,38.24,31,69.24,69.24,69.24h24.45v-33.77h-18.86c-19.59,0-35.46-15.88-35.46-35.46h0c0-19.59,15.88-35.46,35.46-35.46h18.86Z"/><polygon class="cls-1" points="128.79 80.87 128.79 114.65 26.25 114.65 16.02 80.87 128.79 80.87"/><path class="cls-1" d="M566.82,27.97l-10.23,33.77h-146.23l-15.36-17.74c-2.47-3.15-2.89-4.86-2.72-8.12.12-2.25.4-4.57.71-6.99l.12-.92h173.71Z"/><path class="cls-1" d="M550.8,80.87l-10.23,33.77h-101.65c-1.04-12.16-5.33-23.83-12.41-33.77h124.29Z"/><path class="cls-1" d="M434.98,120.49c0-14.67-5.29-28.86-14.89-39.95l-28.97-33.49c-2.15-2.49-3.34-5.57-3.34-8.97s.86-10.11.86-10.11h-39.47s-.86,10.08-.86,15.57,1.09,13.43,6.47,19.64l33.82,39.1c4.45,5.15,6.9,10.82,6.9,17.17s-7.1,13.23-13.65,13.23h-41.28v33.77h48.45c25.38,0,45.95-20.57,45.95-45.95h0Z"/><path class="cls-1" d="M234.99,64.6h0c0-20.23-16.4-36.62-36.62-36.62h-64.39s0,0,0,0v33.77s0,0,0,0h52.13c5.28,0,9.56,4.28,9.56,9.56h0c0,5.28-4.28,9.56-9.56,9.56h-52.13s0,0,0,0v33.77s0,0,0,0h40.39c9.1,0,16.48,7.38,16.48,16.48v35.32s0,0,0,0h36.7s0,0,0,0v-40.12c0-13.87-11.24-25.11-25.11-25.11h-4.06c20.23,0,36.62-16.4,36.62-36.62Z"/><path class="cls-1" d="M26.16,5.26C26.16,1.78,24.4.03,20.9.03H3.51C2.34.03,1.76.62,1.76,1.78v13.94c0,1.16.58,1.74,1.73,1.74s1.74-.58,1.76-1.74v-5.23h7l11.18,6.65c.98.58,1.79.38,2.38-.62.6-.98.39-1.78-.64-2.37l-6.68-3.63h2.41c3.51-.02,5.26-1.78,5.26-5.25ZM5.25,7.03v-3.49h15.72c1.14.02,1.71.61,1.73,1.76,0,1.16-.58,1.73-1.76,1.73H5.25Z"/><path class="cls-1" d="M51.83,3.51c1.17,0,1.75-.58,1.75-1.76s-.58-1.76-1.75-1.76h-21c-1.16,0-1.74.58-1.74,1.75v14c0,1.16.58,1.75,1.74,1.75h21c1.17,0,1.75-.59,1.75-1.75s-.58-1.74-1.75-1.74h-19.26v-3.49h15.77c1.17,0,1.75-.59,1.75-1.76s-.58-1.76-1.75-1.76h-15.77v-3.49h19.26Z"/><path class="cls-1" d="M80.21.54c-.88-.75-1.7-.65-2.44.28l-8.97,12.72L59.64.67c-.81-.79-1.6-.83-2.36-.09-.76.74-.9,1.5-.42,2.3l10.19,13.74c.66.56,1.24.84,1.73.83.5,0,1.08-.29,1.76-.83l10.05-13.68c.64-.86.52-1.65-.38-2.39Z"/><path class="cls-1" d="M106.67,3.51c1.16,0,1.74-.58,1.74-1.76s-.58-1.76-1.74-1.76h-21c-1.16,0-1.75.58-1.75,1.75v14c0,1.16.59,1.75,1.75,1.75h21c1.16,0,1.74-.59,1.74-1.75s-.58-1.74-1.74-1.74h-19.26v-3.49h15.77c1.16,0,1.75-.59,1.75-1.76s-.59-1.76-1.75-1.76h-15.77v-3.49h19.26Z"/><path class="cls-1" d="M135.75,5.26c0-3.49-1.76-5.24-5.26-5.24h-17.39c-1.17,0-1.75.59-1.75,1.75v13.94c0,1.16.58,1.74,1.73,1.74s1.74-.58,1.76-1.74v-5.23h7l11.18,6.65c.98.58,1.79.38,2.38-.62.6-.98.39-1.78-.63-2.37l-6.69-3.63h2.41c3.51-.02,5.26-1.78,5.26-5.25ZM114.83,7.03v-3.49h15.72c1.14.02,1.72.61,1.73,1.76,0,1.16-.58,1.73-1.76,1.73h-15.69Z"/><path class="cls-1" d="M161.42,3.51c1.17,0,1.75-.58,1.75-1.76s-.58-1.76-1.75-1.76h-21c-1.16,0-1.74.58-1.74,1.75v14c0,1.16.58,1.75,1.74,1.75h21c1.17,0,1.75-.59,1.75-1.75s-.58-1.74-1.75-1.74h-19.26v-3.49h15.77c1.17,0,1.75-.59,1.75-1.76s-.58-1.76-1.75-1.76h-15.77v-3.49h19.26Z"/><path class="cls-1" d="M205.34,14h-15.72c-2.34,0-3.51-1.18-3.51-3.51v-3.46c0-2.32,1.17-3.51,3.49-3.54h15.72c1.12,0,1.68-.58,1.68-1.73s-.56-1.73-1.68-1.73l-15.72.04c-4.65,0-6.97,2.32-6.97,6.97v3.46c0,4.67,2.32,7,6.97,7h15.72c1.14,0,1.72-.59,1.73-1.75s-.56-1.74-1.7-1.74Z"/><path class="cls-1" d="M227.38.06l-10.49-.04c-4.63,0-6.95,2.33-6.97,6.97v3.49c0,4.67,2.33,7,7,7h10.45c4.65,0,6.97-2.34,6.97-7v-3.46c0-4.65-2.33-6.97-6.97-6.97ZM230.87,10.49c0,2.34-1.18,3.51-3.51,3.51h-10.46c-2.32,0-3.48-1.17-3.48-3.49l-.03-3.49c0-2.36,1.17-3.54,3.51-3.54h10.46c2.34.04,3.51,1.22,3.51,3.54v3.46Z"/><path class="cls-1" d="M260,0c-1.16,0-1.74.59-1.74,1.78v8.69c.02,2.36-1.15,3.54-3.49,3.54h-10.52c-2.35,0-3.51-1.19-3.51-3.54V1.75c-.02-1.17-.61-1.75-1.76-1.75s-1.73.58-1.73,1.75v8.71c0,4.68,2.34,7.03,7,7.03h10.49c4.67,0,6.99-2.36,6.99-7.07V1.8c0-1.21-.58-1.8-1.74-1.8Z"/><path class="cls-1" d="M289.16,5.26c0-3.49-1.75-5.24-5.25-5.24h-17.4c-1.16,0-1.74.59-1.74,1.75v13.94c0,1.16.57,1.74,1.72,1.74s1.74-.58,1.76-1.74v-5.23h7l11.18,6.65c.99.58,1.79.38,2.38-.62.61-.98.39-1.78-.63-2.37l-6.68-3.63h2.41c3.51-.02,5.25-1.78,5.25-5.25ZM268.24,7.03v-3.49h15.72c1.14.02,1.72.61,1.73,1.76,0,1.16-.58,1.73-1.76,1.73h-15.69Z"/><path class="cls-1" d="M293.83,0c-1.16,0-1.74.58-1.74,1.75v14c0,1.16.58,1.75,1.74,1.75s1.75-.6,1.75-1.78l.03-13.97c-.02-1.17-.61-1.75-1.78-1.75Z"/><path class="cls-1" d="M321.34,3.51c1.16,0,1.74-.58,1.74-1.76s-.58-1.76-1.74-1.76h-21c-1.17,0-1.75.58-1.75,1.75v14c0,1.16.58,1.75,1.75,1.75h21c1.16,0,1.74-.59,1.74-1.75s-.58-1.74-1.74-1.74h-19.26v-3.49h15.77c1.16,0,1.74-.59,1.74-1.76s-.58-1.76-1.74-1.76h-15.77v-3.49h19.26Z"/><path class="cls-1" d="M350.42,5.26c0-3.49-1.76-5.24-5.26-5.24h-17.4c-1.16,0-1.74.59-1.74,1.75v13.94c0,1.16.58,1.74,1.73,1.74s1.74-.58,1.76-1.74v-5.23h7l11.18,6.65c.98.58,1.78.38,2.38-.62.6-.98.39-1.78-.64-2.37l-6.68-3.63h2.41c3.51-.02,5.26-1.78,5.26-5.25ZM329.51,7.03v-3.49h15.72c1.14.02,1.71.61,1.72,1.76,0,1.16-.57,1.73-1.76,1.73h-15.68Z"/><path class="cls-1" d="M419.98,3.51c1.16,0,1.74-.58,1.74-1.76s-.58-1.76-1.74-1.76h-21.01c-1.16,0-1.74.58-1.74,1.75v14c0,1.16.58,1.75,1.74,1.75h21.01c1.16,0,1.74-.59,1.74-1.75s-.58-1.74-1.74-1.74h-19.26v-3.49h15.77c1.16,0,1.74-.59,1.74-1.76s-.58-1.76-1.74-1.76h-15.77v-3.49h19.26Z"/><path class="cls-1" d="M449.06,5.26c0-3.49-1.76-5.24-5.26-5.24h-17.4c-1.16,0-1.74.59-1.74,1.75v13.94c0,1.16.58,1.74,1.73,1.74s1.74-.58,1.76-1.74v-5.23h6.99l11.19,6.65c.98.58,1.78.38,2.38-.62.6-.98.39-1.78-.64-2.37l-6.68-3.63h2.41c3.51-.02,5.26-1.78,5.26-5.25ZM428.14,7.03v-3.49h15.71c1.15.02,1.72.61,1.73,1.76,0,1.16-.57,1.73-1.76,1.73h-15.68Z"/><path class="cls-1" d="M475.69.54c-.89-.75-1.7-.65-2.44.28l-8.97,12.72-9.16-12.86c-.81-.79-1.6-.83-2.36-.09-.76.74-.9,1.5-.42,2.3l10.19,13.74c.66.56,1.23.84,1.73.83.5,0,1.08-.29,1.76-.83l10.05-13.68c.64-.86.52-1.65-.38-2.39Z"/><path class="cls-1" d="M481.15,0c-1.17,0-1.75.58-1.75,1.75v14c0,1.16.58,1.75,1.75,1.75s1.74-.6,1.74-1.78l.03-13.97c-.02-1.17-.61-1.75-1.77-1.75Z"/><path class="cls-1" d="M508.63,14h-15.72c-2.35,0-3.51-1.18-3.51-3.51v-3.46c0-2.32,1.16-3.51,3.49-3.54h15.72c1.12,0,1.68-.58,1.68-1.73s-.56-1.73-1.68-1.73l-15.72.04c-4.65,0-6.97,2.32-6.97,6.97v3.46c0,4.67,2.33,7,6.97,7h15.72c1.14,0,1.71-.59,1.72-1.75.02-1.16-.55-1.74-1.69-1.74Z"/><path class="cls-1" d="M535.95,3.51c1.16,0,1.75-.58,1.75-1.76s-.59-1.76-1.75-1.76h-21c-1.16,0-1.74.58-1.74,1.75v14c0,1.16.58,1.75,1.74,1.75h21c1.16,0,1.75-.59,1.75-1.75s-.59-1.74-1.75-1.74h-19.26v-3.49h15.77c1.17,0,1.75-.59,1.75-1.76s-.58-1.76-1.75-1.76h-15.77v-3.49h19.26Z"/><path class="cls-1" d="M394.11,10.48c-.02-.09-.05-.16-.08-.24-.04-.13-.07-.25-.12-.37-.06-.18-.14-.35-.22-.51-.05-.09-.09-.19-.14-.28-.12-.21-.27-.4-.42-.57-.03-.03-.04-.06-.07-.09-.2-.21-.42-.39-.66-.56-.02-.01-.03-.02-.05-.03-.22-.14-.47-.27-.74-.37-.06-.03-.13-.04-.2-.07-.22-.08-.46-.15-.71-.2-.1-.02-.2-.04-.31-.06-.22-.04-.46-.06-.7-.08-.09,0-.16-.02-.25-.03h-.27s-.07,0-.11,0h-13.86c-1.18,0-1.77-.58-1.76-1.74.02-1.16.59-1.76,1.73-1.78h12.99c1.24,0,2.43.49,3.31,1.37.54.54,1.42.54,1.97,0l.47-.48c.46-.46.53-1.16.21-1.69-.06-.1-.13-.19-.21-.28l-.33-.33c-1.31-1.31-3.09-2.04-4.94-2.04h-13.49c-3.51,0-5.25,1.74-5.24,5.23,0,.65.24,1.9.26,1.99.04.13.07.25.12.37.06.18.14.35.22.51.05.09.09.19.14.28.12.21.27.4.42.57.03.03.04.06.07.09.2.21.42.39.66.56.02.01.03.02.05.03.22.14.47.27.74.37.06.03.13.04.2.07.22.08.46.15.71.2.1.02.2.04.31.06.22.04.46.06.7.08.09,0,.16.02.25.03h.27s.07,0,.11,0h13.86c1.18,0,1.77.58,1.76,1.74-.02,1.16-.59,1.76-1.73,1.78h-12.99c-1.24,0-2.43-.49-3.31-1.37-.54-.54-1.42-.54-1.97,0l-.47.48c-.46.46-.53,1.16-.21,1.69.06.1.13.19.21.28l.33.33c1.31,1.31,3.09,2.04,4.94,2.04h13.49c3.51,0,5.25-1.74,5.24-5.23,0-.65-.08-1.22-.21-1.74h.02Z"/><path class="cls-1" d="M564.85,10.48c-.02-.09-.05-.16-.08-.24-.04-.13-.07-.25-.12-.37-.06-.18-.14-.35-.22-.51-.05-.09-.09-.19-.14-.28-.12-.21-.27-.4-.42-.57-.03-.03-.04-.06-.07-.09-.2-.21-.42-.39-.66-.56-.02-.01-.03-.02-.05-.03-.22-.14-.47-.27-.74-.37-.06-.03-.13-.04-.2-.07-.22-.08-.46-.15-.71-.2-.1-.02-.2-.04-.31-.06-.22-.04-.46-.06-.7-.08-.09,0-.16-.02-.25-.03h-.27s-.07,0-.11,0h-13.86c-1.18,0-1.77-.58-1.76-1.74.02-1.16.59-1.76,1.73-1.78h12.99c1.24,0,2.43.49,3.31,1.37.54.54,1.42.54,1.97,0l.47-.48c.46-.46.53-1.16.21-1.69-.06-.1-.13-.19-.21-.28l-.33-.33c-1.31-1.31-3.09-2.04-4.94-2.04h-13.49c-3.51,0-5.25,1.74-5.24,5.23,0,.65.24,1.9.26,1.99.04.13.07.25.12.37.06.18.14.35.22.51.05.09.09.19.14.28.12.21.27.4.42.57.03.03.04.06.07.09.2.21.42.39.66.56.02.01.03.02.05.03.22.14.47.27.74.37.06.03.13.04.2.07.22.08.46.15.71.2.1.02.2.04.31.06.22.04.46.06.7.08.09,0,.16.02.25.03h.27s.07,0,.11,0h13.86c1.18,0,1.77.58,1.76,1.74-.02,1.16-.59,1.76-1.73,1.78h-12.99c-1.24,0-2.43-.49-3.31-1.37-.54-.54-1.42-.54-1.97,0l-.47.48c-.46.46-.53,1.16-.21,1.69.06.1.13.19.21.28l.33.33c1.31,1.31,3.09,2.04,4.94,2.04h13.49c3.51,0,5.25-1.74,5.24-5.23,0-.65-.08-1.22-.21-1.74h.02Z"/></g></svg>