<?xml version="1.0" encoding="UTF-8"?><svg id="Layer_2" xmlns="http://www.w3.org/2000/svg" viewBox="0 0 377.76 160.87"><defs><style>.cls-1{fill:#fff;stroke-width:0px;}</style></defs><g id="Layer_1-2"><path class="cls-1" d="M68.23,26.7c2.1,0,3.65-.51,4.65-1.54.99-1.03,1.49-2.37,1.49-4.01,0-.51-.06-1.05-.18-1.62-.12-.57-.31-1.09-.57-1.58-.26-.49-.63-.9-1.1-1.23-.47-.33-1.02-.5-1.67-.5H14.91V0h63.67c3.57,0,6.56.5,8.99,1.5,2.43,1,4.19,2.07,5.31,3.2,1.17,1.08,2.06,2.23,2.68,3.43.61,1.21.92,2.17.92,2.89v14.12c0,1.34-.44,2.56-1.32,3.66-.88,1.11-1.81,2.1-2.81,2.97-.29.26-.64.55-1.05.89-.41.33-.85.73-1.32,1.2l.26.15c.88.67,1.68,1.31,2.41,1.93.73.62,1.39,1.26,1.97,1.93.58.67,1.04,1.38,1.36,2.12.32.75.48,1.58.48,2.51v15.05h-23.06v-12.73c0-.05-.15-.15-.44-.31-.29-.15-.63-.31-1.01-.46-.38-.15-.75-.28-1.1-.39-.35-.1-.56-.15-.61-.15h-32.36v14.04H14.91v-30.86h53.32Z"/><path class="cls-1" d="M107.43,0h72.79v15.89h-72.79V0ZM107.43,57.64V21.14h72.79v14.81h-49.46v5.63h49.46v15.97l-52.09.08h-20.7Z"/><path class="cls-1" d="M238.72,19.6l-25.61,38.04h-24.29L226.53,0h24.56l37.71,57.64h-24.38l-25.7-38.04ZM250.03,41.67v15.89h-23.59v-15.89h23.59Z"/><path class="cls-1" d="M299.15,0h22.45v57.56h-22.45V0ZM327.3,40.59h37.97v16.97h-37.97v-16.97Z"/><path class="cls-1" d="M89.06,133.32c0,19.12,20.81,27.55,30.93,27.55v-18.84s-8.44-2.95-8.44-7.17h29.24c0,4.22-8.44,7.17-8.44,7.17v18.84c10.12,0,30.93-8.44,30.93-27.55s-37.11-69.17-37.11-69.17c0,0-37.11,50.05-37.11,69.17ZM126.18,117.15h-9.14s3.66-9.28,9.14-16.87c5.48,7.59,9.14,16.87,9.14,16.87h-9.14Z"/><path class="cls-1" d="M59.82,123.94l-12.62-9.29c-3.11-2.29-7.35-2.29-10.47,0l-13.9,10.23c-.81.6-1.96.02-1.96-.99v-39.02c0-4.88-3.95-8.83-8.83-8.83h-3.22c-4.88,0-8.83,3.95-8.83,8.83v64.37c0,4.88,3.95,8.83,8.83,8.83h1.28c1.88,0,3.72-.6,5.24-1.72l26.63-19.61,26.63,19.61c1.52,1.12,3.35,1.72,5.24,1.72h0c4.88,0,8.83-3.95,8.83-8.83v-64.37c0-4.88-3.95-8.83-8.83-8.83h-3.22c-4.88,0-8.83,3.95-8.83,8.83v38.08c0,1.01-1.15,1.59-1.96.99Z"/><path class="cls-1" d="M156.89,84.86v1.67c0,4.88,3.95,8.83,8.83,8.83h15v53.87c0,4.88,3.95,8.83,8.83,8.83h3.22c4.88,0,8.83-3.95,8.83-8.83v-53.87h15c4.88,0,8.83-3.95,8.83-8.83v-1.67c0-4.88-3.95-8.83-8.83-8.83h-50.88c-4.88,0-8.83,3.95-8.83,8.83Z"/><path class="cls-1" d="M232.74,84.86v64.37c0,4.88,3.95,8.83,8.83,8.83h50.68c4.99,0,9.03-4.04,9.03-9.03v-1.28c0-4.99-4.04-9.03-9.03-9.03h-38.63v-12.02h38.63c4.99,0,9.03-4.04,9.03-9.03v-1.28c0-4.99-4.04-9.03-9.03-9.03h-38.63v-12.02h38.83c4.88,0,8.83-3.95,8.83-8.83v-1.67c0-4.88-3.95-8.83-8.83-8.83h-50.88c-4.88,0-8.83,3.95-8.83,8.83Z"/><path class="cls-1" d="M370.83,153.79l2.24-1.72c3.95-3.05,4.68-8.71,1.63-12.66l-9.79-12.69h3.82c4.99,0,9.03-4.04,9.03-9.03v-32.63c0-4.99-4.04-9.03-9.03-9.03h-50.48c-4.99,0-9.03,4.04-9.03,9.03v1.28c0,4.99,4.04,9.03,9.03,9.03h38.63v12.02h-38.63c-4.99,0-9.03,4.04-9.03,9.03v32.63c0,4.99,4.04,9.03,9.03,9.03h2.82c4.99,0,9.03-4.04,9.03-9.03v-22.32h8.45l19.63,25.44c3.05,3.95,8.71,4.68,12.66,1.63Z"/><path class="cls-1" d="M357.08.89c-6.52,0-11.81,5.29-11.81,11.81s5.29,11.81,11.81,11.81,11.81-5.29,11.81-11.81-5.29-11.81-11.81-11.81ZM362.93,12.81c0,.85-.69,1.54-1.54,1.54h-.65l1.67,2.17c.52.67.4,1.64-.28,2.16l-.38.29c-.67.52-1.64.4-2.16-.28l-3.35-4.34h-1.44v3.81c0,.85-.69,1.54-1.54,1.54h-.48c-.85,0-1.54-.69-1.54-1.54v-5.57c0-.85.69-1.54,1.54-1.54h6.6v-2.05h-6.6c-.85,0-1.54-.69-1.54-1.54v-.22c0-.85.69-1.54,1.54-1.54h8.62c.85,0,1.54.69,1.54,1.54v5.57Z"/></g></svg>