<?xml version="1.0" encoding="UTF-8"?><svg id="Layer_2" xmlns="http://www.w3.org/2000/svg" viewBox="0 0 619.84 128.17"><defs><style>.cls-1{fill:#fff;}</style></defs><g id="Layer_1-2"><polygon class="cls-1" points="201.86 35.64 201.86 95.2 201.86 95.26 230.65 95.26 230.65 79.06 218.65 79.06 218.65 51.84 246.15 51.84 246.15 79.06 234.15 79.06 234.15 95.26 262.94 95.26 262.94 95.2 262.94 35.64 201.86 35.64"/><polygon class="cls-1" points="498.77 35.64 498.77 51.05 505.65 51.05 496.64 64.07 487.62 51.05 494.49 51.05 494.49 35.64 459.11 35.64 496.64 95.19 534.16 35.64 498.77 35.64"/><polygon class="cls-1" points="392.32 35.64 392.32 95.2 392.32 95.26 421.11 95.26 421.11 79.06 409.1 79.06 409.1 51.84 436.61 51.84 436.61 79.06 424.6 79.06 424.6 95.26 453.39 95.26 453.39 95.2 453.39 35.64 392.32 35.64"/><rect class="cls-1" x="535.74" y="35.64" width="16.78" height="59.56"/><polygon class="cls-1" points="387.77 35.64 326.7 35.64 326.7 49.92 340.56 49.92 340.56 95.2 355.38 95.2 355.38 49.92 359.09 49.92 359.09 95.2 373.91 95.2 373.91 49.92 387.77 49.92 387.77 35.64"/><polygon class="cls-1" points="322.04 35.64 268.06 35.64 268.06 49.3 294.43 79.05 268.06 79.05 268.06 95.25 322.04 95.25 322.04 80.96 296.24 51.84 322.04 51.84 322.04 35.64"/><polygon class="cls-1" points="136.7 35.64 136.7 95.2 153.49 95.2 153.49 51.84 176.1 51.84 176.1 52.59 156.87 58.72 156.87 75.69 171.13 71.15 179.6 95.2 196.97 95.2 186.75 66.17 196.97 62.91 196.97 35.64 136.7 35.64"/><polygon class="cls-1" points="559.46 35.64 559.46 95.2 619.84 95.2 619.84 76.34 594.37 67.45 594.37 74.48 602.76 77.4 602.76 79 576.25 79 576.25 51.84 602.76 51.84 602.76 53.45 594.37 56.37 594.37 63.4 619.84 54.5 619.84 35.64 559.46 35.64"/><path class="cls-1" d="M2.39,60.72c.96-.74,2.07-1.61,2.7-2.1.16-.11.28-.2.36-.26.56-.43.79-1.24.8-1.96.03-.72-.1-1.34-.1-1.34,0,0-.84.39-1.9.99-1.03.6-2.41,1.42-3.17,2.21-.43.41-.74.82-.84,1.16-.47,1.57.38,2.77.38,2.77,0,0,.81-.66,1.77-1.45Z"/><path class="cls-1" d="M2.95,55.04c1.03-.65,2.22-1.41,2.9-1.84.17-.1.29-.17.38-.23.59-.38.83-1.17.94-1.88.1-.71.03-1.34.03-1.34,0,0-.87.31-1.99.81-1.13.49-2.49,1.19-3.33,1.91-.47.37-.82.75-.95,1.07-.63,1.52.1,2.79.1,2.79,0,0,.87-.58,1.91-1.28Z"/><path class="cls-1" d="M4.04,49.43c1.09-.55,2.36-1.2,3.08-1.56.18-.08.31-.14.41-.19.65-.31.89-1.1,1.09-1.79.17-.7.16-1.33.16-1.33,0,0-.9.22-2.07.61-1.2.38-2.54.97-3.47,1.6-.51.32-.89.67-1.06.98-.78,1.46-.18,2.78-.18,2.78,0,0,.93-.5,2.03-1.09Z"/><path class="cls-1" d="M5.64,43.95c1.14-.45,2.47-.97,3.22-1.26.18-.06.32-.11.42-.15.7-.24.96-1.03,1.23-1.69.23-.68.29-1.31.29-1.31,0,0-.92.14-2.12.42-1.24.26-2.57.75-3.59,1.28-.54.27-.95.58-1.15.87-.92,1.37-.45,2.75-.45,2.75,0,0,.97-.41,2.14-.9Z"/><path class="cls-1" d="M7.74,38.64c1.18-.34,2.56-.73,3.34-.95.19-.05.33-.08.44-.11.71-.18,1.08-.92,1.37-1.58.3-.65.42-1.27.42-1.27,0,0-.93.05-2.15.22-1.22.16-2.61.52-3.68.95-.56.22-1.01.49-1.23.76-1.05,1.28-.71,2.69-.71,2.69,0,0,1.01-.32,2.22-.69Z"/><path class="cls-1" d="M10.32,33.55c1.21-.23,2.62-.49,3.42-.64.19-.03.34-.05.45-.07.72-.12,1.19-.8,1.5-1.45.36-.62.54-1.23.54-1.23,0,0-.93-.04-2.17.01-1.2.07-2.64.28-3.74.61-.58.17-1.05.39-1.3.64-.58.58-.83,1.24-.92,1.74-.11.5-.02.87-.02.87,0,0,1.02-.25,2.25-.49Z"/><path class="cls-1" d="M18.92,27.07c.39-.6.64-1.18.64-1.18,0,0-.93-.13-2.16-.18-1.18-.02-2.66.04-3.78.27-.6.11-1.08.29-1.36.51-.64.52-.94,1.16-1.09,1.65-.14.49-.08.88-.08.88,0,0,1-.18,2.27-.29,1.23-.11,2.66-.24,3.47-.31.2-.01.35-.02.45-.03.73-.05,1.27-.68,1.63-1.31Z"/><path class="cls-1" d="M23.27,21.94s-.93-.23-2.12-.37c-1.17-.13-2.66-.21-3.79-.09-.61.06-1.11.19-1.4.38-.68.46-1.05,1.06-1.24,1.54-.16.5-.15.88-.15.88,0,0,1-.1,2.28-.09,1.24,0,2.67,0,3.49.01.2,0,.35.01.45.02,1.43.02,2.42-2.31,2.48-2.28Z"/><path class="cls-1" d="M27.33,18.35s-.23-.07-.6-.18c-.38-.12-.9-.25-1.47-.37-1.16-.24-2.63-.46-3.77-.44-.61,0-1.12.08-1.43.25-1.49.77-1.6,2.28-1.6,2.28,0,0,.26,0,.67.02.4,0,.96.03,1.6.09,1.23.12,2.67.26,3.48.34.2.03.34.05.45.06,1.44.17,2.62-2.09,2.67-2.05Z"/><path class="cls-1" d="M31.7,15.14s-.87-.39-2-.72c-1.13-.35-2.58-.7-3.72-.79-.61-.06-1.13-.02-1.45.11-1.56.62-1.79,2.14-1.79,2.14,0,0,1.01.09,2.24.3,1.22.23,2.64.51,3.44.66.19.04.34.08.44.1,1.43.32,2.79-1.85,2.85-1.8Z"/><path class="cls-1" d="M32.92,13.74c.19.06.33.11.43.14.7.22,1.44-.16,2.01-.61.56-.45.99-.93.99-.93,0,0-.82-.45-1.91-.89-1.1-.45-2.51-.94-3.64-1.14-.6-.12-1.12-.13-1.46-.02-.79.24-1.31.72-1.58,1.18-.29.44-.39.8-.39.8,0,0,1,.22,2.19.49,1.19.35,2.58.76,3.37.99Z"/><path class="cls-1" d="M37.69,11.07c.18.08.32.14.42.18,1.35.58,3.12-1.27,3.12-1.27,0,0-.76-.49-1.81-1.04-1.05-.56-2.41-1.18-3.52-1.48-.59-.17-1.11-.24-1.46-.16-.82.15-1.35.62-1.68,1.04-.33.41-.46.75-.46.75,0,0,.97.31,2.14.69,1.17.42,2.52.99,3.26,1.29Z"/><path class="cls-1" d="M42.69,8.86c.17.1.31.17.4.22,1.29.71,3.23-.95,3.23-.95,0,0-.71-.56-1.71-1.21-1-.66-2.3-1.4-3.37-1.82-.57-.23-1.08-.34-1.44-.3-.83.07-1.39.54-1.76.9-.37.37-.53.71-.53.71,0,0,.94.41,2.07.89,1.1.48,2.41,1.21,3.12,1.57Z"/><path class="cls-1" d="M47.87,7.12c.16.11.29.2.38.26,1.22.83,3.31-.63,3.31-.63,0,0-.66-.62-1.59-1.37-.93-.75-2.16-1.62-3.2-2.14-.55-.28-1.05-.45-1.4-.44-1.64.11-2.43,1.4-2.43,1.4,0,0,.9.49,1.98,1.09,1.05.56,2.28,1.4,2.95,1.83Z"/><path class="cls-1" d="M53.19,5.86c.15.13.27.23.35.3,1.14.95,3.36-.29,3.36-.29,0,0-.6-.69-1.46-1.52-.86-.84-2-1.83-2.99-2.44-.52-.33-1-.55-1.36-.57-1.63.01-2.54,1.19-2.54,1.19,0,0,.85.58,1.87,1.27,1,.67,2.12,1.55,2.77,2.08Z"/><path class="cls-1" d="M58.61,5.09c.14.14.25.25.32.33,1.05,1.06,3.37.05,3.37.05,0,0-2.18-2.97-4.07-4.39-.49-.4-.95-.63-1.29-.66-1.63-.15-2.64.93-2.64.93,0,0,.79.66,1.75,1.45.94.8,1.97,1.69,2.56,2.29Z"/><path class="cls-1" d="M64.08,4.81c.13.16.22.28.29.36.94,1.16,3.35.39,3.35.39,0,0-1.9-3.18-3.65-4.78-.45-.39-.88-.65-1.23-.72-1.61-.31-2.72.66-2.72.66,0,0,.73.74,1.61,1.62.83.88,1.79,1.9,2.34,2.48Z"/><path class="cls-1" d="M69.55,5.09c.11.16.2.28.26.36.43.56,1.24.79,1.96.8.72.03,1.34-.1,1.34-.1,0,0-.39-.84-.99-1.9-.6-1.03-1.42-2.41-2.21-3.17-.41-.43-.82-.74-1.16-.84-1.57-.47-2.77.38-2.77.38,0,0,.66.81,1.45,1.77.74.96,1.61,2.07,2.1,2.7Z"/><path class="cls-1" d="M74.97,5.86c.1.17.17.29.23.38.38.59,1.17.83,1.88.94.71.1,1.34.03,1.34.03,0,0-.31-.87-.81-1.99-.49-1.13-1.19-2.49-1.91-3.33-.37-.47-.75-.82-1.07-.95-1.52-.63-2.79.1-2.79.1,0,0,.58.87,1.28,1.91.65,1.03,1.41,2.22,1.84,2.9Z"/><path class="cls-1" d="M80.29,7.12c.08.18.14.31.19.41.31.65,1.1.89,1.79,1.09.7.17,1.33.16,1.33.16,0,0-.22-.9-.61-2.07-.38-1.2-.97-2.54-1.6-3.47-.32-.51-.67-.89-.98-1.06-1.46-.78-2.78-.18-2.78-.18,0,0,.5.93,1.09,2.03.55,1.09,1.2,2.36,1.56,3.08Z"/><path class="cls-1" d="M85.48,8.86c.06.18.11.32.15.42.24.7,1.03.96,1.69,1.23.68.23,1.31.29,1.31.29,0,0-.14-.92-.42-2.12-.26-1.24-.75-2.57-1.28-3.59-.27-.54-.58-.95-.87-1.15-1.37-.92-2.75-.45-2.75-.45,0,0,.41.97.9,2.14.45,1.14.97,2.47,1.26,3.22Z"/><path class="cls-1" d="M90.48,11.07c.05.19.08.33.11.44.18.71.92,1.08,1.58,1.37.65.3,1.27.42,1.27.42,0,0-.05-.93-.22-2.15-.16-1.22-.52-2.61-.95-3.68-.22-.56-.49-1.01-.76-1.23-1.28-1.05-2.69-.71-2.69-.71,0,0,.32,1.01.69,2.22.34,1.18.73,2.56.95,3.34Z"/><path class="cls-1" d="M95.25,13.74c.03.19.05.34.07.45.12.72.8,1.19,1.45,1.5.62.36,1.23.54,1.23.54,0,0,.04-.93-.01-2.17-.07-1.2-.28-2.64-.61-3.74-.17-.58-.39-1.05-.64-1.3-.58-.58-1.24-.83-1.74-.92-.5-.11-.87-.02-.87-.02,0,0,.25,1.02.49,2.25.23,1.21.49,2.62.64,3.42Z"/><path class="cls-1" d="M99.76,16.84c.01.2.02.35.03.45.05.73.68,1.27,1.31,1.63.6.39,1.18.64,1.18.64,0,0,.13-.93.18-2.16.02-1.18-.04-2.66-.27-3.78-.11-.6-.29-1.08-.51-1.36-.52-.64-1.16-.94-1.65-1.09-.49-.14-.88-.08-.88-.08,0,0,.18,1,.29,2.27.11,1.23.24,2.66.31,3.47Z"/><path class="cls-1" d="M103.97,20.33c0,.2-.01.35-.02.45-.02,1.43,2.31,2.42,2.28,2.48,0,0,.23-.93.37-2.12.13-1.17.21-2.66.09-3.79-.06-.61-.19-1.11-.38-1.4-.46-.68-1.06-1.05-1.54-1.24-.5-.16-.88-.15-.88-.15,0,0,.1,1,.09,2.28,0,1.24,0,2.67-.01,3.49Z"/><path class="cls-1" d="M109.82,27.33s.07-.23.18-.6c.12-.38.25-.9.37-1.47.24-1.16.46-2.63.44-3.77,0-.61-.08-1.12-.25-1.43-.77-1.49-2.28-1.6-2.28-1.6,0,0,0,.26-.02.67,0,.4-.03.96-.09,1.6-.12,1.23-.26,2.67-.34,3.48-.03.2-.05.34-.06.45-.17,1.44,2.09,2.62,2.05,2.67Z"/><path class="cls-1" d="M113.03,31.7s.39-.87.72-2c.35-1.13.7-2.58.79-3.72.06-.61.02-1.13-.11-1.45-.62-1.56-2.14-1.79-2.14-1.79,0,0-.09,1.01-.3,2.24-.23,1.22-.51,2.64-.66,3.44-.04.19-.08.34-.1.44-.32,1.43,1.85,2.79,1.8,2.85Z"/><path class="cls-1" d="M114.28,33.35c-.22.7.16,1.44.61,2.01.45.56.93.99.93.99,0,0,.45-.82.89-1.91.45-1.1.94-2.51,1.14-3.64.12-.6.13-1.12.02-1.46-.24-.79-.72-1.31-1.18-1.58-.44-.29-.8-.39-.8-.39,0,0-.22,1-.49,2.19-.35,1.19-.76,2.58-.99,3.37-.06.19-.11.33-.14.43Z"/><path class="cls-1" d="M116.91,38.11c-.58,1.35,1.27,3.12,1.27,3.12,0,0,.49-.76,1.04-1.81.56-1.05,1.18-2.41,1.48-3.52.17-.59.24-1.11.16-1.46-.15-.82-.62-1.35-1.04-1.68-.41-.33-.75-.46-.75-.46,0,0-.31.97-.69,2.14-.42,1.17-.99,2.52-1.29,3.26-.08.18-.14.32-.18.42Z"/><path class="cls-1" d="M119.08,43.09c-.71,1.29.95,3.23.95,3.23,0,0,.56-.71,1.21-1.71.66-1,1.4-2.3,1.82-3.37.23-.57.34-1.08.3-1.44-.07-.83-.54-1.39-.9-1.76-.37-.37-.71-.53-.71-.53,0,0-.41.94-.89,2.07-.48,1.1-1.21,2.41-1.57,3.12-.1.17-.17.31-.22.4Z"/><path class="cls-1" d="M121.05,47.87c-.11.16-.2.29-.26.38-.83,1.22.63,3.31.63,3.31,0,0,.62-.66,1.37-1.59.75-.93,1.62-2.16,2.14-3.2.28-.55.45-1.05.44-1.4-.11-1.64-1.4-2.43-1.4-2.43,0,0-.49.9-1.09,1.98-.56,1.05-1.4,2.28-1.83,2.95Z"/><path class="cls-1" d="M122.31,53.19c-.13.15-.23.27-.3.35-.95,1.14.29,3.36.29,3.36,0,0,.69-.6,1.52-1.46.84-.86,1.83-2,2.44-2.99.33-.52.55-1,.57-1.36-.01-1.63-1.19-2.54-1.19-2.54,0,0-.58.85-1.27,1.87-.67,1-1.55,2.12-2.08,2.77Z"/><path class="cls-1" d="M125.37,56.05c-.8.94-1.69,1.97-2.29,2.56-.14.14-.25.25-.33.32-1.06,1.05-.05,3.37-.05,3.37,0,0,2.97-2.18,4.39-4.07.4-.49.63-.95.66-1.29.15-1.63-.93-2.64-.93-2.64,0,0-.66.79-1.45,1.75Z"/><path class="cls-1" d="M127.45,60.14s-.74.73-1.62,1.61c-.88.83-1.9,1.79-2.48,2.34-.16.13-.28.22-.36.29-1.16.94-.39,3.35-.39,3.35,0,0,3.18-1.9,4.78-3.65.39-.45.65-.88.72-1.23.31-1.61-.66-2.72-.66-2.72Z"/><path class="cls-1" d="M125.78,67.45c-.96.74-2.07,1.61-2.7,2.1-.16.11-.28.2-.36.26-.56.43-.79,1.24-.8,1.96-.03.72.1,1.34.1,1.34,0,0,.84-.39,1.9-.99,1.03-.6,2.41-1.42,3.17-2.21.43-.41.74-.82.84-1.16.47-1.57-.38-2.77-.38-2.77,0,0-.81.66-1.77,1.45Z"/><path class="cls-1" d="M125.21,73.13c-1.03.65-2.22,1.41-2.9,1.84-.17.1-.29.17-.38.23-.59.38-.83,1.17-.94,1.88-.1.71-.03,1.34-.03,1.34,0,0,.87-.31,1.99-.81,1.13-.49,2.49-1.19,3.33-1.91.47-.37.82-.75.95-1.07.63-1.52-.1-2.79-.1-2.79,0,0-.87.58-1.91,1.28Z"/><path class="cls-1" d="M124.13,78.73c-1.09.55-2.36,1.2-3.08,1.56-.18.08-.31.14-.41.19-.65.31-.89,1.1-1.09,1.79-.17.7-.16,1.33-.16,1.33,0,0,.9-.22,2.07-.61,1.2-.38,2.54-.97,3.47-1.6.51-.32.89-.67,1.06-.98.78-1.46.18-2.78.18-2.78,0,0-.93.5-2.03,1.09Z"/><path class="cls-1" d="M122.53,84.21c-1.14.45-2.47.97-3.22,1.26-.18.06-.32.11-.42.15-.7.24-.96,1.03-1.23,1.69-.23.68-.29,1.31-.29,1.31,0,0,.92-.14,2.12-.42,1.24-.26,2.57-.75,3.59-1.28.54-.27.95-.58,1.15-.87.92-1.37.45-2.75.45-2.75,0,0-.97.41-2.14.9Z"/><path class="cls-1" d="M120.43,89.52c-1.18.34-2.56.73-3.34.95-.19.05-.33.08-.44.11-.71.18-1.08.92-1.37,1.58-.3.65-.42,1.27-.42,1.27,0,0,.93-.05,2.15-.22,1.22-.16,2.61-.52,3.68-.95.56-.22,1.01-.49,1.23-.76,1.05-1.28.71-2.69.71-2.69,0,0-1.01.31-2.22.69Z"/><path class="cls-1" d="M117.85,94.61c-1.21.23-2.62.49-3.42.64-.19.03-.34.05-.45.07-.72.12-1.19.8-1.5,1.45-.36.62-.54,1.23-.54,1.23,0,0,.93.04,2.17-.01,1.2-.07,2.64-.28,3.74-.61.58-.17,1.05-.39,1.3-.64.58-.58.83-1.24.92-1.74.11-.5.02-.87.02-.87,0,0-1.02.25-2.25.49Z"/><path class="cls-1" d="M114.8,99.45c-1.23.11-2.66.24-3.47.31-.2.01-.35.02-.45.03-.73.05-1.27.68-1.63,1.31-.39.6-.64,1.18-.64,1.18,0,0,.93.13,2.16.18,1.18.02,2.66-.04,3.78-.27.6-.11,1.08-.29,1.36-.51.64-.52.94-1.16,1.09-1.65.14-.49.08-.88.08-.88,0,0-1,.18-2.27.29Z"/><path class="cls-1" d="M107.83,103.97c-.2,0-.35-.01-.45-.02-1.43-.02-2.42,2.31-2.48,2.28,0,0,.93.23,2.12.37,1.17.13,2.66.21,3.79.09.61-.06,1.11-.19,1.4-.38.68-.46,1.05-1.06,1.24-1.54.16-.5.15-.88.15-.88,0,0-1,.1-2.28.09-1.24,0-2.67,0-3.49-.01Z"/><path class="cls-1" d="M107.45,108.17c-1.23-.12-2.67-.26-3.48-.34-.2-.03-.34-.05-.45-.06-1.44-.17-2.62,2.09-2.67,2.05,0,0,.23.07.6.18.38.12.9.25,1.47.37,1.16.24,2.63.46,3.77.44.61,0,1.12-.08,1.43-.25,1.49-.77,1.6-2.28,1.6-2.28,0,0-.26,0-.67-.02-.4,0-.96-.03-1.6-.09Z"/><path class="cls-1" d="M99.76,111.33c-.19-.04-.34-.08-.44-.1-1.43-.32-2.79,1.85-2.85,1.8,0,0,.87.39,2,.72,1.13.35,2.58.7,3.72.79.61.06,1.13.02,1.45-.11,1.56-.62,1.79-2.14,1.79-2.14,0,0-1.01-.09-2.24-.3-1.22-.23-2.64-.51-3.44-.66Z"/><path class="cls-1" d="M95.25,114.43c-.19-.06-.33-.11-.43-.14-.7-.22-1.44.16-2.01.61-.56.45-.99.93-.99.93,0,0,.82.45,1.91.89,1.1.45,2.51.94,3.64,1.14.6.12,1.12.13,1.46.02.79-.24,1.31-.72,1.58-1.18.29-.44.39-.8.39-.8,0,0-1-.22-2.19-.49-1.19-.35-2.58-.76-3.37-.99Z"/><path class="cls-1" d="M90.48,117.09c-.18-.08-.32-.14-.42-.18-1.35-.58-3.12,1.27-3.12,1.27,0,0,.76.49,1.81,1.04,1.05.56,2.41,1.18,3.52,1.48.59.17,1.11.24,1.46.16.82-.15,1.35-.62,1.68-1.04.33-.41.46-.76.46-.76,0,0-.97-.31-2.14-.69-1.17-.42-2.52-.99-3.26-1.29Z"/><path class="cls-1" d="M85.48,119.31c-.17-.1-.31-.17-.4-.22-1.29-.71-3.23.95-3.23.95,0,0,.71.56,1.71,1.21,1,.66,2.3,1.4,3.37,1.82.57.23,1.08.34,1.44.3.83-.07,1.39-.54,1.76-.9.37-.37.53-.71.53-.71,0,0-.94-.41-2.07-.89-1.1-.48-2.41-1.21-3.12-1.57Z"/><path class="cls-1" d="M80.29,121.05c-.16-.11-.29-.2-.38-.26-1.22-.83-3.31.63-3.31.63,0,0,.66.62,1.59,1.37.93.75,2.16,1.62,3.2,2.14.55.28,1.05.45,1.4.44,1.64-.11,2.43-1.4,2.43-1.4,0,0-.9-.49-1.98-1.09-1.05-.56-2.28-1.4-2.95-1.83Z"/><path class="cls-1" d="M74.97,122.31c-.15-.13-.27-.23-.35-.3-1.14-.95-3.36.29-3.36.29,0,0,.6.69,1.46,1.52.86.84,2,1.83,2.99,2.44.52.33,1,.55,1.36.57,1.63-.01,2.54-1.19,2.54-1.19,0,0-.85-.58-1.87-1.27-1-.67-2.12-1.55-2.77-2.08Z"/><path class="cls-1" d="M69.55,123.08c-.14-.14-.25-.25-.32-.33-1.05-1.06-3.37-.05-3.37-.05,0,0,2.18,2.97,4.07,4.39.49.4.95.63,1.29.66,1.63.15,2.64-.93,2.64-.93,0,0-.79-.66-1.75-1.45-.94-.8-1.97-1.69-2.56-2.29Z"/><path class="cls-1" d="M64.08,123.35c-.13-.16-.22-.28-.29-.36-.94-1.16-3.35-.39-3.35-.39,0,0,1.9,3.18,3.65,4.78.45.39.88.65,1.23.72,1.61.31,2.72-.66,2.72-.66,0,0-.73-.74-1.61-1.62-.83-.88-1.79-1.9-2.34-2.48Z"/><path class="cls-1" d="M58.61,123.08c-.11-.16-.2-.28-.26-.36-.43-.56-1.24-.79-1.96-.8-.72-.03-1.34.1-1.34.1,0,0,.39.84.99,1.9.6,1.03,1.42,2.41,2.21,3.17.41.43.82.74,1.16.84,1.57.47,2.77-.38,2.77-.38,0,0-.66-.81-1.45-1.77-.74-.96-1.61-2.07-2.1-2.7Z"/><path class="cls-1" d="M53.19,122.31c-.1-.17-.17-.29-.23-.38-.38-.59-1.17-.83-1.88-.94-.71-.1-1.34-.03-1.34-.03,0,0,.31.87.81,1.99.49,1.13,1.19,2.49,1.91,3.33.37.47.75.82,1.07.95,1.52.63,2.79-.1,2.79-.1,0,0-.58-.87-1.28-1.91-.65-1.03-1.41-2.22-1.84-2.9Z"/><path class="cls-1" d="M47.87,121.05c-.08-.18-.14-.31-.19-.41-.31-.65-1.1-.89-1.79-1.09-.7-.17-1.33-.16-1.33-.16,0,0,.22.9.61,2.07.38,1.2.97,2.54,1.6,3.47.32.51.67.89.98,1.06,1.46.78,2.78.18,2.78.18,0,0-.5-.93-1.09-2.03-.55-1.09-1.2-2.36-1.56-3.08Z"/><path class="cls-1" d="M42.69,119.31c-.06-.18-.11-.32-.15-.42-.24-.7-1.03-.96-1.69-1.23-.68-.23-1.31-.29-1.31-.29,0,0,.14.92.42,2.12.26,1.24.75,2.57,1.28,3.59.27.54.58.95.87,1.15,1.37.92,2.75.45,2.75.45,0,0-.41-.97-.9-2.14-.45-1.14-.97-2.47-1.26-3.22Z"/><path class="cls-1" d="M37.69,117.09c-.05-.19-.08-.33-.11-.44-.18-.71-.92-1.08-1.58-1.37-.65-.3-1.27-.42-1.27-.42,0,0,.05.93.22,2.15.16,1.22.52,2.61.95,3.68.22.56.49,1.01.76,1.23,1.28,1.05,2.69.71,2.69.71,0,0-.31-1.01-.69-2.22-.34-1.18-.73-2.56-.95-3.34Z"/><path class="cls-1" d="M32.92,114.43c-.03-.19-.05-.34-.07-.45-.12-.72-.8-1.19-1.45-1.5-.62-.36-1.23-.54-1.23-.54,0,0-.04.93.01,2.17.07,1.2.28,2.64.61,3.74.17.58.39,1.05.64,1.3.58.58,1.24.83,1.74.92.5.11.87.02.87.02,0,0-.25-1.02-.49-2.25-.23-1.21-.49-2.62-.64-3.42Z"/><path class="cls-1" d="M28.41,111.33c-.01-.2-.02-.35-.03-.45-.05-.73-.68-1.27-1.31-1.63-.6-.39-1.18-.64-1.18-.64,0,0-.13.93-.18,2.16-.02,1.18.04,2.66.27,3.78.11.6.29,1.08.51,1.36.52.64,1.16.94,1.65,1.09.49.14.88.08.88.08,0,0-.18-1-.29-2.27-.11-1.23-.24-2.66-.31-3.47Z"/><path class="cls-1" d="M24.2,107.83c0-.2.01-.35.02-.45.02-1.43-2.31-2.42-2.28-2.48,0,0-.23.93-.37,2.12-.13,1.17-.21,2.66-.09,3.79.06.61.19,1.11.38,1.4.46.68,1.06,1.05,1.54,1.24.5.16.88.15.88.15,0,0-.1-1-.09-2.28,0-1.24,0-2.67.01-3.49Z"/><path class="cls-1" d="M18.35,100.84s-.07.23-.18.6c-.12.38-.25.9-.37,1.47-.24,1.16-.46,2.63-.44,3.77,0,.61.08,1.12.25,1.43.77,1.49,2.28,1.6,2.28,1.6,0,0,0-.26.02-.67,0-.4.03-.96.09-1.6.12-1.23.26-2.67.34-3.48.03-.2.05-.34.06-.45.17-1.44-2.09-2.62-2.05-2.67Z"/><path class="cls-1" d="M15.14,96.47s-.39.87-.72,2c-.35,1.13-.7,2.58-.79,3.72-.06.61-.02,1.13.11,1.45.62,1.56,2.14,1.79,2.14,1.79,0,0,.09-1.01.3-2.24.23-1.22.51-2.64.66-3.44.04-.19.08-.34.1-.44.32-1.43-1.85-2.79-1.8-2.85Z"/><path class="cls-1" d="M13.88,94.82c.22-.7-.16-1.44-.61-2.01-.45-.56-.93-.99-.93-.99,0,0-.45.82-.89,1.91-.45,1.1-.94,2.51-1.14,3.64-.12.6-.13,1.12-.02,1.46.24.79.72,1.31,1.18,1.58.44.29.8.39.8.39,0,0,.22-1,.49-2.19.35-1.19.76-2.58.99-3.37.06-.19.11-.33.14-.43Z"/><path class="cls-1" d="M11.26,90.06c.58-1.35-1.27-3.12-1.27-3.12,0,0-.49.76-1.04,1.81-.56,1.05-1.18,2.41-1.48,3.52-.17.59-.24,1.11-.16,1.46.15.82.62,1.35,1.04,1.68.41.33.76.46.76.46,0,0,.31-.97.69-2.14.42-1.17.99-2.52,1.29-3.26.08-.18.14-.32.18-.42Z"/><path class="cls-1" d="M9.08,85.08c.71-1.29-.95-3.23-.95-3.23,0,0-.56.71-1.21,1.71-.66,1-1.4,2.3-1.82,3.37-.23.57-.34,1.08-.3,1.44.07.83.54,1.39.9,1.76.37.37.71.53.71.53,0,0,.41-.94.89-2.07.48-1.1,1.21-2.41,1.57-3.12.1-.17.17-.31.22-.4Z"/><path class="cls-1" d="M7.12,80.29c.11-.16.2-.29.26-.38.83-1.22-.63-3.31-.63-3.31,0,0-.62.66-1.37,1.59-.75.93-1.62,2.16-2.14,3.2-.28.55-.45,1.05-.44,1.4.11,1.64,1.4,2.43,1.4,2.43,0,0,.49-.9,1.09-1.98.56-1.05,1.4-2.28,1.83-2.95Z"/><path class="cls-1" d="M5.86,74.97c.13-.15.23-.27.3-.35.95-1.14-.29-3.36-.29-3.36,0,0-.69.6-1.52,1.46-.84.86-1.83,2-2.44,2.99-.33.52-.55,1-.57,1.36.01,1.63,1.19,2.54,1.19,2.54,0,0,.58-.85,1.27-1.87.67-1,1.55-2.12,2.08-2.77Z"/><path class="cls-1" d="M2.8,72.11c.8-.94,1.69-1.97,2.29-2.56.14-.14.25-.25.33-.32,1.06-1.05.05-3.37.05-3.37,0,0-2.97,2.18-4.39,4.07-.4.49-.63.95-.66,1.29-.15,1.63.93,2.64.93,2.64,0,0,.66-.79,1.45-1.75Z"/><path class="cls-1" d="M2.34,66.42c.88-.83,1.9-1.79,2.48-2.34.16-.13.28-.22.36-.29,1.16-.94.39-3.35.39-3.35,0,0-3.18,1.9-4.78,3.65-.39.45-.65.88-.72,1.23-.31,1.61.66,2.72.66,2.72,0,0,.74-.73,1.62-1.61Z"/><path class="cls-1" d="M63,19.68h.57c-.03-.59-.54-6.21-9.42-7.25l-.32-.04.1-.3c.02-.07.55-1.61,3.05-1.61,1.9,0,4.49,2.01,5.58,2.93-.09-1.09-.14-3.22.65-4.11.24-.27.54-.4.88-.42.34.02.64.15.88.42.79.89.74,3.02.65,4.11,1.09-.92,3.68-2.93,5.58-2.93,2.5,0,3.03,1.54,3.05,1.61l.1.3-.32.04c-8.88,1.03-9.4,6.66-9.42,7.25h.57c2.32-6.65,9.8-6.99,9.8-6.99-.08-1.35-.69-2.92-3.12-2.92-4.24,0-5.52,2.26-5.52,2.26.16-3.91-2.24-3.59-2.24-3.59,0,0-2.4-.32-2.24,3.59,0,0-1.28-2.26-5.52-2.26-2.43,0-3.04,1.58-3.12,2.92,0,0,7.48.34,9.8,6.99Z"/><path class="cls-1" d="M56.97,11.01c-1.46,0-2.12.58-2.38.95,8.46,1.14,9.39,6.59,9.49,7.59.1-1,1.04-6.45,9.49-7.59-.27-.37-.92-.95-2.38-.95-2.21,0-5.69,3.21-5.73,3.24l-.54.5.1-.73c.13-.93.29-3.52-.46-4.37-.13-.15-.3-.23-.49-.25-.19.02-.35.09-.49.25-.75.85-.58,3.44-.46,4.37l.1.73-.54-.5s-3.52-3.24-5.73-3.24Z"/><path class="cls-1" d="M61.76,20.72c0,.24.19.43.43.43h3.78c.24,0,.43-.19.43-.43s-.19-.43-.43-.43h-3.78c-.24,0-.43.19-.43.43Z"/><path class="cls-1" d="M24.15,57.59c.28,0,.52-.23.52-.52s-.23-.52-.52-.52-.52.23-.52.52.23.52.52.52Z"/><path class="cls-1" d="M62.94,24.14s-1.84,15.04-21.16,14.73c-8.84-.14-16.38,3.83-21.12,9.63.3.15,2.38,1.27,4.79,3.28,4.88-5.45,11.65-7.11,18.1-8.58,2.74-.63,5.58-1.28,8.28-2.22,5.03-1.76,8.04-5.91,9.7-9.2,1.19-2.35,1.75-4.99,1.4-7.6v-.04Z"/><path class="cls-1" d="M63.19,29.3c-1.23,3.32-4.43,9.83-11.18,12.18-2.73.95-5.58,1.6-8.34,2.24-6.66,1.52-13.05,3.1-17.81,8.41.74.64,1.5,1.37,2.23,2.17,5.08-4.42,8.25-5.02,12.8-5.72,1.99-.31,4.24-.66,7.12-1.39,6.87-1.74,10.68-5.5,12.7-8.42,1.26-1.83,1.99-3.97,2.26-6.17.13-1.06.2-2.16.22-3.29Z"/><path class="cls-1" d="M20.33,48.93s-1.14.41-1.47.88c1.23.66,9.66,5.44,12.21,13.12.33-.28.67-.55,1.02-.81-2.45-8.45-11.66-13.14-11.76-13.19Z"/><path class="cls-1" d="M61.45,39.15c.14-.4.28-.8.4-1.21-1.83,3.1-5.79,7.75-13.71,9.76-2.91.74-5.17,1.09-7.17,1.4-4.62.71-7.56,1.28-12.53,5.6.64.73,1.26,1.52,1.83,2.37.55-.75,3.31-3.71,13.4-5.42,5.47-.93,9.51-3.05,12.2-4.98,2.6-1.86,4.51-4.5,5.58-7.51Z"/><path class="cls-1" d="M43.75,52.16c-11.05,1.87-13.13,5.3-13.15,5.34l-.08-.05c.42.65.8,1.34,1.14,2.06,1.1-1.09,5.06-4.51,11.24-4.51.13,0,.25,0,.38,0,2.5,0,4.82-.45,6.58-1.41,1.91-1.04,3.24-4.6,3.24-4.6-2.47,1.32-5.57,2.53-9.35,3.16Z"/><path class="cls-1" d="M22.63,58.87c1.32,1.51,3.51-.06,3.53-.08l.21-.15.16.2c1.38,1.8,2.37,3.69,3,5.63.34-.41.72-.81,1.12-1.18-2.44-7.71-11.01-12.49-12.07-13.05-.28.42.05,1.16-.2,1.59.88.5,2.51,1.51,4.29,3.01l.19.16-.14.2c-.06.08-1.47,2.08-.08,3.66ZM24.15,56.03c.57,0,1.04.47,1.04,1.04s-.47,1.04-1.04,1.04-1.04-.47-1.04-1.04.47-1.04,1.04-1.04Z"/><path class="cls-1" d="M39.51,58.76c7.32-.88,8.83-3.12,8.83-3.12-1.06.23-3.87-.11-5.07-.11-.13,0-.25,0-.38,0-6.32,0-10.23,3.68-11.02,4.5.25.57.46,1.16.65,1.77,2.55-1.76,5.44-2.85,6.98-3.03Z"/><path class="cls-1" d="M31.97,30.03l-.32.2s-2.21,1.4-2.4,2.87c-.06.48.1.9.48,1.31.38.4.83.6,1.32.56,1.59-.06,3.29-2.13,3.31-2.15l.2-.25.2.25c.93,1.14,1.79,2.44,2.58,3.86.29-.35.61-.73.96-1.13-.78-1.45-1.65-2.76-2.59-3.91l.03-.83c.92,1.12,2.15,2.91,2.92,4.32.26-.3.53-.61.8-.93-3.72-6.64-8.07-8.07-8.82-8.27-.27.21-.54.42-.82.64.73.24,2.59,1.2,4.27,2.6l-.79.05c-1.95-1.62-3.53-2.13-3.98-2.25-.37.29-.74.6-1.12.91.68.23,1.93.75,3.46,1.92l.3.23ZM34.82,29.88c.14.12.22.29.21.49-.04,1.1-3.03,3.36-3.52,3.7-.47.33-.41-.34-.31-.42,1.18-.97,3.28-2.67,3.3-3.29,0-.05-.01-.06-.02-.07-.31-.24-2.23,1.21-3.94,2.99-.24.24-.55-.19-.38-.36,1.23-1.29,3.79-3.77,4.66-3.02Z"/><path class="cls-1" d="M48.66,14.02c.35.15.66.28.93.39.55-1.19.2-1.9-.03-2.47-.23-.58-1.28-1.84-1.69-.12-.09.38-.16.67-.23.91.07.36.28.97,1.02,1.29Z"/><path class="cls-1" d="M39.82,33.79c1.03-1.23,1.95-2.41,2.2-3.15.39-1.14.82-1.88,1.12-2.32-.55-.97-1.28-2.52-1.31-4h.52c.03,1.26.62,2.6,1.13,3.53.7.34,1.79.6,3.46.46,3.07-.26,5.95-3.88,6.1-5.27.15-1.38,1.01-3.32,2.54-3.09,1.53.22,2.29.79,3.01.63.06-.01.11-.05.17-.09-.2-.27-.75-.87-1.98-1.14-1.6-.35-3.03-.16-3.03-.16.05-.03,1.33-.75,3.14-.36,1.26.27,1.9.87,2.2,1.24.3-.62.36-1.65.19-2.27-.23-.87-1.58-1.3-2.62-1.33-1.04-.03-1.28.9-2.06.1-.77-.81-1.38-1.09-2.14-.97-.76.12-.5.61-.84.73-.3.1-2.14-.44-2.18-1.42-.3-.12-.63-.25-1.02-.42-.6-.26-.93-.67-1.12-1.06-.16.18-.36.23-.71.28-.45.07-1.06.16-1.51.07-.19.53-.62,1.52-1.41,2.25,0,0,1.01-1.93.94-2.5-.07-.09-.12-.19-.12-.34,0-.85-.56-1.54-.91-1.75-.35-.2-1.84.35-2.27,1.45-.44,1.1-.23,2.05-.53,2.84s-1.11,1.14-2.21,2.05c-.89.74-1.5,1.13-2.21,2.28.72.18,2.27.44,3.62-.25,1.9-.97,4.61-2.99,4.64-3.01,0,0-2.47,2.49-4.4,3.47-.76.39-1.57.51-2.28.51-.81,0-1.47-.15-1.84-.26-.09.16-.17.32-.26.51-.65,1.35-2.49,2.8-4.71,4.52,1.39.46,5.25,2.24,8.66,8.24ZM41.47,16.14s-.57-3.09,2.15-3.96c.31-.1.6.4.13.51-2.28.51-2.28,3.46-2.28,3.46ZM51.09,16.74c-.07.47-.7,5.06-2.33,5.69-.1.04-.32.12-.55.12-.16,0-.33-.05-.45-.19-.37-.43.12-1.39.35-1.77,0,0-.22.92.05,1.44.01,0,.11.03.41-.09,1.14-.44,2.52-5.2,2.52-5.2ZM47.7,16.08c1.27-.3,1.62.6,1.71.93.22.89-.38,2.19-1.14,2.48-.46.17-.75.57-1.02.96-.28.4-.58.81-1.05.95-.13.04-.27.06-.42.06-.59,0-1.28-.27-1.65-.59-.28-.24-.32-.47-.29-.61,0,0,.49.36.71.5.38.24,1.13.27,1.51.14.3-.09.52-.39.78-.75.13-.18.33-.41.41-.54.47-.78-.04-2.33-.04-2.33.15.41.88.88.63,1.91.09-.06.16-.14.27-.18.49-.18.99-1.18.82-1.86-.11-.44-.49-.61-1.13-.54-2.13.27-5.22,4.34-5.24,4.37,0,0,1.49-4.03,5.18-4.89ZM45.79,22.39c.35-.02.15.42.06.48-.09.06-.24.05-.34.05-2.46,0-4.23-1.68-4.31-1.76,0,0,2.21,1.39,4.58,1.22Z"/><path class="cls-1" d="M30.07,79.92s3.69.79,5.38-.93c1.7-1.72,12.77-10.9,15.25-11.86l-7.9-8.28s-5.36-.19-11.36,4.87c-4.41,3.72-3.99,12.73-1.37,16.2Z"/><path class="cls-1" d="M29.55,80.41c-.99-1.25-3.32-8.13-1.69-13.08.28-.84.72-1.62,1.27-2.36-.58-1.93-1.53-3.82-2.87-5.61-.97.62-2.81,1.24-4.02-.14-1.38-1.57-.45-3.49-.08-4.11-1.68-1.39-3.2-2.33-4.03-2.81-3.44,6.33-3.89,13.99.11,20.85.12.21.24.41.37.61,0,0-.01-.02-.02-.02-7.57-9.54-1.79-20.08-1.31-20.85.48-.76.13-1.14.24-2.16.11-1.03.57-1.46,1.16-1.73s1.3-.95,1.3-.95c7.46-7.81,13.56-8.47,14.99-8.84,1.42-.37,1.38-.94,1.38-.94,0-.19.26-.6.67-1.13-.74-1.37-1.56-2.62-2.44-3.73-.53.59-2,2.04-3.48,2.1-.66.03-1.24-.22-1.72-.73-.49-.52-.7-1.1-.62-1.74.17-1.36,1.66-2.57,2.33-3.04-1.63-1.19-2.9-1.6-3.33-1.72-3.71,3.2-16.43,18.46-17.45,27.57-1.02,9.21,6.41,16.52,6.5,17.42.09.9.98,8.06,1.4,9.38.42,1.31.15,4.88-1.46,3.5-1.62-1.39-.44-12.52-3.5-13.7-2.64-1.02-3.65.24-3.65.24,1.55.42,1.16,2.29,1.01,3.06-.05.26.13.48.36.67.64-.2,2.4-.62,3.02.42.4.68.2,1.42.32,3.16.08,1.17.49,3.33.63,3.76,0,0-.74-1.42-.83-2.67-.11-1.52-.24-3.42-.58-3.99-.33-.55-1.33-.46-2.06-.29.28.23.49.47.31.78-.42.74-1.01.07-1.75.15-.74.09-.98,1.07-.98,1.07,0,0,1.68.09,2.49.52.81.44.74,2.71.72,3.3,0,.21.24.54.5.87,2.25.84,2.53,4.03,2.53,4.03-.84-2.19-1.98-3.12-2.69-3.52-1.05-.25-1.81.91-1.81.91.85-.28,5.11,3.91,5.11,4.76,0,2.48.73,5.44,1.27,6.27.55.83,1.4.33,2.67.69,1.27.37.44,3.83.44,3.83,0,0,1.88-2.62,1.27-3.23-.61-.61-1.6-1.8-.83-2.36s1.38-1.75,1.25-2.88.92-7.39,1.4-9.92c.16-.83.28-1.2.39-1.37.11.11.21.21.32.31,0,0,0,0,0,0,4.55,4.25,6.23.29,5.5-.64Z"/><path class="cls-1" d="M63.02,81.11c-.25-6.15-4.2-7.13-8.6-11.64,0,0-12.5,9.19-15.02,10.01,0,0-4.24,8.2-1.15,12.74,4.15,6.06,14.12,9.04,16.18,11.67,2.06,2.62,4.41,7.57,3.27,9.78-1.13,2.18-3.23,1.09-3.48.36-.27-.73-1.41-2.37-4.47-2.37s-4.28,2.14-4.09,3.15c.21,1.03,1.49,1.49,2.69.88.5-.23,2.43-1.3,3.94-1.26,1.85.02,1.93.99,1.93.99,0,0-.4-.44-1.95-.46h-.06c-.71,0-1.09.42-1.2.73-.24.72-.29,1.62.69,1.57.19,0,1.49-.55,2.34-.6,1.17-.06,1.94.37,1.94.37-.76,0-1.8.03-2.01.42-.22.39.33,1.13.94,1.23.63.13,7.51,1.24,7.72.65.21-.59-.9-3.46-.78-5.66.1-2.2.08-5.71-.76-6.32-.86-.61-1.47-.44-1.01-1.09.46-.65,2.31-1.09,2.04-2.5-.25-1.41-4.99-4.51-4.95-9.55.04-3.11,2.66-6.15,1.53-13.11,0,0,1.62,2.04.94,4.78,0,0,1.83-1.3,2.1-3.11,0,.21-.04,3.31-2.45,5.92,0,0,4.01-1.41,3.73-7.57Z"/><path class="cls-1" d="M49.44,101.65s-.67-.57-1.91-1.15c-3.69-1.74-11.18-5.81-11.25-12.48-.04-4.87,2.14-6.32,1.7-8.18,0,0-.76-.92-2.24.82-1.47,1.76-3.86,4.91-3.86,10.36s5.45,6.9,7.07,10.24c1.62,3.31.9,7.68-1.95,7.68s-3.36-5.81-5.54-7.72c-2.18-1.89-5.66-.23-5.77.9-.08,1.13.28,2.4,1.48,2.04s1.38-.95,2.55-.95c1.47,0,2.71,2.48,2.71,2.48-.42-.52-1.7-1.97-2.71-1.95-1.54.03-2.04,1.3-1.8,1.74.44.84,1.3,1.41,2.45,1.17.57-.13.9.1,1.03.46.59.06,1.43.34,2.41,1.17,1.8,1.53,1.76,2.37,1.76,2.37,0,0-.36-.48-2.1-1.97-.86-.73-2.01-.83-2.2-.5-.38.59-.5,1.3.71,1.87,1.24.59,3.8,1.8,4.39,3,.57,1.2,2.24-.15,3.42.8,1.17.92,1.64,1.68,1.91.57.25-1.13-.76-4.76,1.49-6.48,2.24-1.72,5.71-2.45,6.25-6.27Z"/><path class="cls-1" d="M25.31,103.67s-.64.39-.69,1.36c0,0,.68-.84.93-.94,0,0,.11-.37-.24-.42Z"/><path class="cls-1" d="M27.38,105.53s-1.22.59-.79,2.32c0,0,.59-1.66.98-1.77,0,0,.32-.39-.2-.55Z"/><path class="cls-1" d="M29.48,108.66s.98.26,1.13.44c.15.18.39-.29.1-.44,0,0-.37-.39-1.23,0Z"/><path class="cls-1" d="M45.59,115.67s-.61.46-.5,1.55c0,0,.27-.86.94-1.25.23-.14-.23-.53-.44-.31Z"/><path class="cls-1" d="M50.45,117c-.08.02-.86.16-.37,1.73,0,0,.15-1.23.7-1.43.08-.03.09-.42-.33-.3Z"/><path class="cls-1" d="M53.66,118.07s-1.15.25-1.1,1.67c0,0,.42-1.06,1.1-1.23.26-.07.16-.46,0-.44Z"/><path class="cls-1" d="M66.4,22.7v-.11c0-.39-.32-.71-.71-.71h-3.21c-.39,0-.71.32-.71.71v.11c0,.39.32.71.71.71h3.21c.39,0,.71-.32.71-.71Z"/><path class="cls-1" d="M104.02,56.56c-.28,0-.52.23-.52.52s.23.52.52.52.52-.23.52-.52-.23-.52-.52-.52Z"/><path class="cls-1" d="M86.38,38.88c-19.32.31-21.16-14.73-21.16-14.73,0,.01,0,.02,0,.04-.34,2.61.22,5.25,1.4,7.6,1.67,3.29,4.67,7.45,9.7,9.2,2.7.94,5.54,1.59,8.28,2.22,6.45,1.48,13.23,3.14,18.1,8.58,2.41-2.01,4.49-3.13,4.79-3.28-4.73-5.81-12.28-9.77-21.12-9.63Z"/><path class="cls-1" d="M102.3,52.13c-4.76-5.31-11.16-6.89-17.81-8.41-2.76-.63-5.61-1.28-8.34-2.24-6.75-2.36-9.95-8.86-11.18-12.18.02,1.13.1,2.23.22,3.29.26,2.21,1,4.34,2.26,6.17,2.01,2.92,5.83,6.68,12.7,8.42,2.88.73,5.14,1.08,7.12,1.39,4.55.7,7.71,1.31,12.8,5.72.74-.8,1.49-1.53,2.23-2.17Z"/><path class="cls-1" d="M96.08,62.12c.35.26.69.53,1.02.81,2.55-7.68,11-12.44,12.22-13.1-.32-.47-1.48-.89-1.48-.89-.09.05-9.31,4.74-11.76,13.19Z"/><path class="cls-1" d="M99.73,54.69c-4.97-4.31-7.91-4.88-12.53-5.6-2-.31-4.27-.66-7.17-1.4-7.92-2.01-11.88-6.65-13.71-9.76.13.41.26.81.4,1.21,1.07,3.01,2.98,5.65,5.58,7.51,2.7,1.93,6.73,4.05,12.2,4.98,10.09,1.71,12.85,4.67,13.4,5.42.57-.85,1.18-1.64,1.83-2.37Z"/><path class="cls-1" d="M97.64,57.45l-.08.05s-2.1-3.46-13.15-5.34c-3.78-.64-6.88-1.84-9.35-3.16,0,0,1.33,3.56,3.24,4.6,1.77.97,4.08,1.41,6.58,1.41.13,0,.25,0,.38,0,6.18,0,10.14,3.42,11.24,4.51.34-.72.72-1.41,1.14-2.06Z"/><path class="cls-1" d="M109.79,51.84c-.25-.43.09-1.16-.18-1.58-1.06.56-9.64,5.33-12.08,13.04.4.37.77.77,1.12,1.18.63-1.94,1.62-3.84,3-5.63l.16-.2.21.15s2.21,1.59,3.53.08c1.39-1.58-.02-3.58-.08-3.66l-.14-.2.19-.16c1.78-1.5,3.41-2.51,4.29-3.01ZM104.02,58.12c-.57,0-1.04-.47-1.04-1.04s.47-1.04,1.04-1.04,1.04.47,1.04,1.04-.47,1.04-1.04,1.04Z"/><path class="cls-1" d="M79.82,55.64s1.51,2.24,8.83,3.12c1.54.19,4.43,1.27,6.98,3.03.18-.61.4-1.2.65-1.77-.79-.81-4.7-4.5-11.02-4.5-.13,0-.25,0-.38,0-1.19,0-4,.34-5.07.11Z"/><path class="cls-1" d="M88.71,34.22c.27.31.53.62.8.93.78-1.41,2-3.2,2.92-4.32l.03.83c-.94,1.14-1.81,2.46-2.59,3.91.35.4.67.79.96,1.13.79-1.42,1.65-2.73,2.58-3.86l.2-.25.2.25s1.72,2.09,3.31,2.15c.49.03.94-.16,1.32-.56.38-.4.54-.83.48-1.31-.19-1.48-2.38-2.86-2.4-2.87l-.32-.2.3-.23c1.53-1.17,2.78-1.7,3.46-1.92-.38-.31-.75-.61-1.12-.91-.45.12-2.03.63-3.98,2.25l-.79-.05c1.68-1.39,3.54-2.35,4.27-2.6-.27-.22-.55-.43-.82-.64-.74.2-5.1,1.64-8.82,8.27ZM93.35,29.88c.87-.75,3.43,1.73,4.66,3.02.17.18-.14.61-.38.36-1.72-1.78-3.64-3.23-3.94-2.99-.01.01-.03.02-.02.07.02.62,2.12,2.32,3.3,3.29.1.08.16.75-.31.42-.49-.34-3.48-2.6-3.52-3.7,0-.2.06-.37.21-.49Z"/><path class="cls-1" d="M79.51,14.02c.73-.32.95-.92,1.02-1.29-.07-.24-.14-.53-.23-.91-.41-1.72-1.46-.47-1.69.12-.23.57-.58,1.28-.03,2.47.28-.11.58-.23.93-.39Z"/><path class="cls-1" d="M71.49,16.48c-1.04.03-2.39.46-2.62,1.33-.16.62-.11,1.65.19,2.27.3-.37.94-.97,2.2-1.24,1.8-.4,3.08.33,3.14.36,0,0-1.43-.19-3.03.16-1.23.26-1.78.86-1.98,1.14.05.03.1.07.17.09.72.16,1.48-.4,3.01-.63,1.53-.22,2.4,1.71,2.54,3.09.15,1.38,3.02,5.01,6.1,5.27,1.67.14,2.77-.13,3.46-.46.5-.93,1.1-2.27,1.13-3.54h.52c-.03,1.5-.76,3.04-1.31,4.01.3.44.73,1.18,1.12,2.32.25.73,1.17,1.92,2.2,3.15,3.42-6.01,7.28-7.78,8.66-8.24-2.22-1.72-4.06-3.17-4.71-4.52-.09-.19-.18-.35-.26-.51-.37.11-1.04.26-1.84.26-.71,0-1.52-.12-2.28-.51-1.94-.99-4.4-3.47-4.4-3.47.03.02,2.74,2.04,4.64,3.01,1.35.69,2.9.43,3.62.25-.71-1.15-1.32-1.54-2.21-2.28-1.11-.91-1.92-1.26-2.21-2.05s-.09-1.74-.53-2.84c-.44-1.1-1.92-1.65-2.27-1.45-.35.2-.91.9-.91,1.75,0,.15-.05.25-.12.34-.07.58.94,2.5.94,2.5-.79-.73-1.22-1.72-1.41-2.25-.45.09-1.06,0-1.51-.07-.35-.05-.55-.1-.71-.28-.19.39-.52.8-1.12,1.06-.39.17-.72.3-1.02.42-.04.97-1.88,1.52-2.18,1.42-.34-.12-.08-.61-.84-.73-.76-.12-1.36.16-2.14.97-.77.81-1.02-.13-2.06-.1ZM84.41,12.68c-.47-.11-.18-.61.13-.51,2.72.87,2.16,3.93,2.15,3.96,0,0,0-2.95-2.28-3.46ZM82.65,22.92c-.1,0-.25,0-.34-.05-.09-.06-.29-.5.06-.48,2.37.16,4.58-1.22,4.58-1.22-.08.07-1.85,1.76-4.31,1.76ZM78.76,17.01c.08-.33.43-1.23,1.71-.93,3.68.86,5.18,4.89,5.18,4.89-.02-.03-3.11-4.1-5.24-4.37-.64-.08-1.02.1-1.13.54-.17.68.34,1.68.82,1.86.11.04.17.12.27.18-.25-1.15.53-1.33.68-1.74,0,0-.56,1.38-.09,2.17.07.13.28.36.41.54.25.35.47.66.78.75.38.12,1.13.1,1.51-.14.21-.13.71-.5.71-.5.02.14-.01.36-.29.61-.37.32-1.06.59-1.65.59-.15,0-.29-.02-.42-.06-.48-.14-.77-.55-1.05-.95-.28-.39-.56-.78-1.02-.96-.77-.3-1.37-1.59-1.14-2.48ZM79.59,21.93c.3.11.39.09.41.09.27-.51.05-1.44.05-1.44.23.39.72,1.34.35,1.77-.12.14-.29.19-.45.19-.23,0-.45-.08-.55-.12-1.63-.63-2.26-5.22-2.33-5.69,0,0,1.38,4.76,2.52,5.2Z"/><path class="cls-1" d="M98.09,79.92c2.62-3.47,3.05-12.48-1.37-16.2-6-5.06-11.36-4.87-11.36-4.87l-7.9,8.28c2.48.96,13.55,10.14,15.25,11.86,1.7,1.72,5.38.93,5.38.93Z"/><path class="cls-1" d="M115.58,84.04c-.71.39-1.85,1.33-2.69,3.52,0,0,.28-3.2,2.53-4.03.27-.32.51-.66.5-.87-.02-.59-.09-2.86.72-3.3.81-.44,2.49-.52,2.49-.52,0,0-.24-.98-.98-1.07-.74-.09-1.33.59-1.75-.15-.17-.31.03-.55.31-.78-.72-.17-1.73-.27-2.06.29-.34.57-.47,2.46-.58,3.99-.09,1.26-.83,2.67-.83,2.67.15-.44.55-2.59.63-3.76.12-1.74-.08-2.49.32-3.16.62-1.05,2.38-.62,3.02-.42.23-.2.41-.41.36-.67-.15-.76-.55-2.64,1.01-3.06,0,0-1.01-1.26-3.65-.24-3.06,1.18-1.88,12.32-3.5,13.7-1.62,1.39-1.88-2.18-1.46-3.5.42-1.31,1.31-8.47,1.4-9.38.09-.9,7.53-8.21,6.5-17.42-1.01-9.12-13.73-24.38-17.45-27.57-.43.12-1.7.53-3.33,1.72.66.47,2.15,1.68,2.33,3.04.08.64-.13,1.22-.62,1.74-.48.51-1.06.76-1.72.73-1.49-.06-2.95-1.51-3.48-2.1-.88,1.11-1.7,2.36-2.44,3.73.41.53.68.94.67,1.13,0,0-.04.57,1.38.94,1.42.37,7.53,1.03,14.99,8.84,0,0,.71.69,1.3.95s1.05.7,1.16,1.73c.11,1.03-.24,1.4.24,2.16.48.76,6.26,11.3-1.31,20.85,0,0-.01.02-.02.02.12-.2.24-.4.37-.61,4-6.86,3.55-14.51.11-20.85-.83.48-2.35,1.42-4.03,2.81.37.62,1.3,2.54-.08,4.11-1.21,1.38-3.05.76-4.02.14-1.34,1.79-2.3,3.68-2.87,5.61.55.74.99,1.52,1.27,2.36,1.63,4.95-.7,11.83-1.69,13.08-.73.93.95,4.89,5.5.64,0,0,0,0,0,0,.1-.1.21-.2.32-.31.1.16.23.54.39,1.37.48,2.54,1.53,8.79,1.4,9.92s.48,2.32,1.25,2.88-.22,1.75-.83,2.36c-.61.61,1.27,3.23,1.27,3.23,0,0-.83-3.46.44-3.83,1.27-.37,2.12.14,2.67-.69.55-.83,1.27-3.79,1.27-6.27,0-.85,4.26-5.05,5.11-4.76,0,0-.76-1.16-1.81-.91Z"/><path class="cls-1" d="M82.52,114.79c.19-1.01-1.03-3.15-4.09-3.15s-4.2,1.64-4.47,2.37c-.25.73-2.35,1.83-3.48-.36-1.13-2.2,1.22-7.15,3.27-9.78,2.06-2.62,12.02-5.6,16.18-11.67,3.08-4.53-1.15-12.74-1.15-12.74-2.52-.82-15.02-10.01-15.02-10.01-4.41,4.51-8.35,5.5-8.6,11.64-.27,6.17,3.73,7.57,3.73,7.57-2.41-2.6-2.45-5.71-2.45-5.92.27,1.8,2.1,3.11,2.1,3.11-.67-2.75.94-4.78.94-4.78-1.13,6.97,1.49,10.01,1.53,13.11.04,5.04-4.7,8.14-4.95,9.55-.27,1.41,1.57,1.85,2.04,2.5.46.65-.15.48-1.01,1.09-.84.61-.86,4.11-.76,6.32.13,2.2-.99,5.08-.78,5.66.21.59,7.09-.53,7.72-.65.61-.1,1.16-.85.94-1.23-.22-.39-1.26-.42-2.01-.42,0,0,.78-.43,1.94-.37.85.05,2.14.59,2.34.6.99.04.93-.86.69-1.57-.11-.32-.48-.73-1.2-.73h-.06c-1.55.02-1.95.46-1.95.46,0,0,.08-.97,1.93-.99,1.51-.04,3.44,1.03,3.94,1.26,1.2.61,2.48.15,2.69-.88Z"/><path class="cls-1" d="M96.7,101.21c-2.18,1.91-2.66,7.72-5.54,7.72s-3.57-4.36-1.95-7.68c1.62-3.34,7.07-4.76,7.07-10.24s-2.39-8.6-3.86-10.36c-1.49-1.74-2.24-.82-2.24-.82-.44,1.87,1.74,3.31,1.7,8.18-.06,6.67-7.55,10.74-11.25,12.48-1.24.59-1.91,1.15-1.91,1.15.55,3.82,4.01,4.55,6.25,6.27,2.24,1.72,1.24,5.35,1.49,6.48.27,1.11.73.36,1.91-.57,1.17-.94,2.85.4,3.42-.8.59-1.2,3.15-2.41,4.39-3,1.22-.57,1.09-1.28.71-1.87-.2-.33-1.34-.23-2.2.5-1.74,1.49-2.1,1.97-2.1,1.97,0,0-.04-.84,1.76-2.37.99-.84,1.83-1.11,2.41-1.17.13-.36.46-.59,1.03-.46,1.15.23,2.01-.34,2.45-1.17.23-.44-.26-1.71-1.8-1.74-1.01-.02-2.29,1.43-2.71,1.95,0,0,1.24-2.48,2.71-2.48,1.17,0,1.35.58,2.55.95s1.56-.9,1.48-2.04c-.1-1.13-3.59-2.79-5.77-.9Z"/><path class="cls-1" d="M102.86,103.67c-.35.04-.24.42-.24.42.25.09.93.94.93.94-.05-.96-.69-1.36-.69-1.36Z"/><path class="cls-1" d="M100.78,105.53c-.52.16-.2.55-.2.55.39.11.98,1.77.98,1.77.44-1.73-.79-2.32-.79-2.32Z"/><path class="cls-1" d="M97.46,108.66c-.29.15-.05.61.1.44.15-.18,1.13-.44,1.13-.44-.86-.39-1.23,0-1.23,0Z"/><path class="cls-1" d="M82.58,115.67c-.2-.22-.67.17-.44.31.67.39.94,1.25.94,1.25.11-1.09-.5-1.55-.5-1.55Z"/><path class="cls-1" d="M77.71,117c-.42-.12-.41.27-.33.3.55.21.7,1.43.7,1.43.49-1.56-.29-1.7-.37-1.73Z"/><path class="cls-1" d="M74.51,118.07c-.16-.02-.26.37,0,.44.68.17,1.1,1.23,1.1,1.23.05-1.42-1.1-1.67-1.1-1.67Z"/><path class="cls-1" d="M62.85,68.69c.13.89.42,1.5.82,1.78.12.09.31.11.41.13.1-.02.28-.04.41-.13.4-.28.69-.9.82-1.78.28-1.83-.6-3.81-1.23-5.04-.63,1.23-1.5,3.21-1.23,5.04Z"/><path class="cls-1" d="M76.8,69.7c-4.19-2.36-9.87-5.74-10.73-7.8-.54-1.29-.04-3.08.69-4.28.67-1.1,1.52-1.77,2.34-1.84,1.43-.11,2.51.58,3.11,1.1-.15-.79-.64-1.97-2.24-2.16-2.45-.3-4.07,2.24-4.09,2.27l-.36.58-.12-.67c-.02-.1-.44-2.58-.14-3.73.23-.87.64-2.81-1.17-4.9-1.81,2.09-1.4,4.04-1.17,4.9.3,1.15-.12,3.62-.14,3.73l-.12.67-.36-.58s-1.64-2.57-4.09-2.27c-1.6.19-2.09,1.38-2.24,2.16.6-.53,1.68-1.21,3.11-1.1.82.07,1.68.74,2.34,1.84.73,1.21,1.23,3,.69,4.28-.86,2.06-6.54,5.44-10.73,7.8-3.6,2.03-11.49,8.16-13.26,9.54.29.08.59.11.87.04.59-.17,5.28-3.51,9.83-6.53.99-.65,3-2.14,5.06-3.52,1.58-1.05,2.24-1.1,4.54-2.63,2.31-1.54,4.79-4.41,4.79-4.41.31.83-1.63,2.87-1.63,5.18,0,5.59,2.52,5.25,2.52,5.25,0,0,2.52.35,2.52-5.25,0-2.32-1.94-4.35-1.63-5.18,0,0,2.48,2.87,4.79,4.41,2.31,1.54,2.96,1.58,4.54,2.63,2.07,1.37,4.08,2.86,5.06,3.52,4.55,3.02,9.24,6.36,9.83,6.53.28.08.58.04.87-.04-1.77-1.38-9.67-7.52-13.26-9.54ZM65.83,68.77c-.16,1.06-.52,1.78-1.06,2.15-.23.16-.51.2-.69.23-.18-.02-.46-.07-.69-.23-.54-.37-.9-1.09-1.06-2.15-.38-2.53,1.14-5.2,1.75-6.2.61.99,2.13,3.66,1.75,6.2Z"/><path class="cls-1" d="M84.07,72.53c-1.8-1.46-7.76-5.46-11.21-7.21-3.45-1.75-5.03-2.4-5.25-4.11-.22-1.7,1.53-6.43,5.11-2.36,0,0,1.49-.61.48-3.1-1.01-2.49-4.98-2.88-6.6-.61,0,0-.17-1.25.44-2.8.61-1.55-2.95-6.38-2.95-6.38,0,0-3.58,4.83-2.97,6.38.61,1.55.44,2.8.44,2.8-1.62-2.27-5.59-1.88-6.6.61-1.01,2.49.48,3.1.48,3.1,3.58-4.07,5.33.66,5.11,2.36-.22,1.7-1.79,2.36-5.25,4.11-3.45,1.75-9.41,5.75-11.21,7.21-1.36,1.1-7.24,5.93-7.24,5.93.11.19.37.39.67.56,1.16-.91,9.75-7.63,13.57-9.78,2.38-1.34,9.61-5.41,10.51-7.55.4-.97.14-2.5-.65-3.81-.57-.94-1.3-1.54-1.94-1.59-1.95-.18-3.17,1.44-3.18,1.45l-.44.58-.03-.73s-.09-3.07,2.77-3.41c2.05-.26,3.54,1.58,4.21,2.39.11-.8.24-2.57.06-3.29-.24-.92-.78-3.35,1.69-5.81,2.47,2.46,1.92,4.88,1.67,5.81-.19.72-.05,2.49.06,3.29.67-.81,2.15-2.65,4.21-2.39,2.86.34,2.77,3.38,2.77,3.41l-.03.73-.44-.58s-1.23-1.63-3.18-1.45c-.64.05-1.37.65-1.94,1.59-.79,1.31-1.06,2.84-.65,3.81.89,2.13,8.13,6.21,10.51,7.55,3.82,2.15,12.41,8.87,13.57,9.78.3-.17.56-.37.67-.56,0,0-5.88-4.83-7.24-5.93Z"/></g></svg>