<?xml version="1.0" encoding="UTF-8"?><svg id="Layer_2" xmlns="http://www.w3.org/2000/svg" viewBox="0 0 559.51 102.85"><defs><style>.cls-1{fill:#fff;}</style></defs><g id="Layer_1-2"><path class="cls-1" d="M194.32,1.01l44.49,64.47V1.01h19.97v98.89h-15.25c-.04-.42-.22-.81-.48-1.13-14.54-18.1-27.19-40.75-40.98-59.83-.73-1.01-1.7-2.85-2.84-3.15v64.11h-19.61V1.01h14.71Z"/><path class="cls-1" d="M399.62,0c41.97-.4,66.04,48.17,41.76,81.89-21.04,29.22-66.38,27.14-84.92-3.55C335.95,44.39,359.68.38,399.62,0ZM397.07,18.14c-21.69,1.88-33.45,23.67-27.71,43.72,6.99,24.4,39.54,31.04,55.37,11.04,17.54-22.15,1.7-57.3-27.66-54.76Z"/><path class="cls-1" d="M507.85,0c41.16-.56,65.75,46.68,42.93,80.52-24.06,35.67-80.01,26.41-91.42-14.96C450.36,32.96,473.67.47,507.85,0ZM505.66,18.14c-23.5,1.81-35.46,27.25-26.39,47.83,10.22,23.18,43.01,25.33,56.17,3.6,13.76-22.71-2.32-53.55-29.78-51.44Z"/><path class="cls-1" d="M282.39,1.01c20.63,1.21,53.39-6.43,60.74,20.01,4.83,17.35-2.86,27.97-18.11,34.66-.34.15-.65-.21-.49.55l24.31,43.67h-23.79l-20.84-39.26-1.85-.22v39.48h-19.97V1.01ZM302.36,40.49h11.44c.61,0,3.68-1.04,4.43-1.38,6.85-3.05,7-13.47.25-16.69-.6-.29-3.91-1.49-4.31-1.49h-11.8v19.56Z"/><path class="cls-1" d="M166.17,99.89h-20.16l-8.04-19.87-38.47-.07-8.15,19.95h-20.7L109.32.98l18.9.38,37.94,98.53ZM105.89,60.41h25.42l-12.53-32.96-12.89,32.96Z"/><path class="cls-1" d="M59.76,16.21l-13.98,11.96c-3.03-4.36-7.84-9.58-13.48-10.09-8.38-.76-12.6,6.4-6.68,12.82,10.36,11.24,30.18,20.4,34.69,36.03,4.84,16.76-5.24,32.39-22.31,35.33S6.66,96.95,0,81.41l15.29-9.05.71.36c2.7,5.07,7.32,11.16,13.48,11.92,11.58,1.43,17.94-8.07,9.77-17.35C26.68,52.99-7,37.5,7.76,12.71,19.43-6.87,47.58-1.58,59.41,15.3c.21.31.49.38.35.91Z"/><path class="cls-1" d="M399.23,44.56c11.81-2.23,13.22,14.81,2.78,15.81s-11.92-14.09-2.78-15.81Z"/><path class="cls-1" d="M506.36,44.56c11.43-1.94,12.91,14.73,2.42,15.83-9.9,1.04-12.21-14.17-2.42-15.83Z"/></g></svg>