<?xml version="1.0" encoding="UTF-8" standalone="no"?>
<!DOCTYPE svg PUBLIC "-//W3C//DTD SVG 1.1//EN" "http://www.w3.org/Graphics/SVG/1.1/DTD/svg11.dtd">
<svg width="100%" height="100%" viewBox="0 0 2796 1905" version="1.1" xmlns="http://www.w3.org/2000/svg" xmlns:xlink="http://www.w3.org/1999/xlink" xml:space="preserve" xmlns:serif="http://www.serif.com/" style="fill-rule:evenodd;clip-rule:evenodd;stroke-linejoin:round;stroke-miterlimit:2;">
    <g transform="matrix(1,0,0,1,0,-4073)">
        <g id="bk_Secsystems" transform="matrix(1.001433,0,0,0.998951,0,4073.710578)">
            <rect x="0" y="0" width="2792" height="1906" style="fill:none;"/>
            <clipPath id="_clip1">
                <rect x="0" y="0" width="2792" height="1906"/>
            </clipPath>
            <g clip-path="url(#_clip1)">
                <g transform="matrix(0.998569,0,0,1.005999,3.994278,-11.433171)">
                    <path d="M2792,916.529L2792,1716.8C2792,1821.222 2706.803,1906 2601.865,1906L190.135,1906C85.197,1906 0,1821.222 0,1716.8L0,203.2C0,98.778 85.197,14 190.135,14L1885.009,14L2792,916.529ZM2771.167,925.116L1876.38,34.731L190.135,34.731C96.695,34.731 20.833,110.219 20.833,203.2L20.833,1716.8C20.833,1809.781 96.695,1885.269 190.135,1885.269L2601.865,1885.269C2695.305,1885.269 2771.167,1809.781 2771.167,1716.8L2771.167,925.116ZM2097.89,14L2295.987,14L2792,507.573L2792,704.696L2097.89,14ZM2148.186,34.731L2771.167,654.647L2771.167,516.16L2287.358,34.731L2148.186,34.731ZM2465.805,14L2601.865,14C2706.803,14 2792,98.778 2792,203.2L2792,338.591L2465.805,14ZM2516.101,34.731L2771.167,288.542L2771.167,203.2C2771.167,110.219 2695.305,34.731 2601.865,34.731L2516.101,34.731Z"/>
                </g>
                <g id="_2secsystemS" serif:id="2secsystemS" transform="matrix(2.722662,0,0,2.729427,2033.967508,-2.002101)">
                    <path d="M131.484,646.119L47.312,646.119C45.578,646.119 43.162,646.163 44.54,644.059C47.11,640.136 56.848,626.063 59.105,622.809C59.911,621.646 60.149,620.951 61.471,620.951L123.528,620.951C138.573,620.951 138.549,607.055 123.505,606.953C103.963,606.82 90.955,606.953 80.205,606.953C53.547,606.953 45.913,594.034 45.848,580.218C45.787,567.458 53.914,548.676 80.205,548.79C85.333,548.812 136.436,548.853 151.84,548.853C155.507,548.853 155.262,550.054 154.597,551.367C152.301,555.9 145.391,565.468 142.124,570.259C140.07,573.27 138.929,574.035 134.143,574.164C131.091,574.246 86.388,574.059 79.458,574.164C65.65,574.372 66.751,587.217 79.458,587.217C89.799,587.217 112.538,587.598 131.484,587.598C149.639,587.598 158.027,594.608 158.027,614.327C158.027,631.564 150.382,646.119 131.484,646.119Z"/>
                </g>
                <g id="_2secsysteMs" serif:id="2secsysteMs" transform="matrix(2.722662,0,0,2.729427,3.994278,-2.002101)">
                    <path d="M666.941,587.935C666.56,587.194 665.533,586.086 665.145,587.935C659.337,615.655 659.204,615.903 652.816,643.59C652.609,644.485 652.549,646.119 649.903,646.119L628.264,646.119C625.586,646.119 626.446,644.536 627.284,641.432C631.87,624.43 647.833,563.909 649.536,557.479C652.837,545.009 669.708,543.542 675.943,556.011C690.925,585.976 702.115,607.976 704.257,611.622C705.331,613.45 705.652,613.239 706.09,612.258C712.392,598.145 731.057,561.61 734.938,554.034C740.126,543.908 757.659,543.509 760.665,556.378C766.902,583.086 781.203,638.9 782.67,645.135C782.763,645.528 782.304,646.119 781.57,646.119C781.546,646.119 774.602,646.119 759.198,646.119C758.255,646.119 757.205,645.913 756.726,643.907C755.53,638.9 744.438,591.54 743.665,587.935C743.448,586.926 742.628,586.785 742.069,587.935C739.759,592.688 718.854,637.433 715.475,644.034C712.693,649.468 698.682,648.802 696.128,644.034C690.927,634.324 674.476,602.59 666.941,587.935Z"/>
                </g>
                <g id="_2secsystEms" serif:id="2secsystEms" transform="matrix(2.722662,0,0,2.729427,3.994278,-2.002101)">
                    <path d="M603.324,646.119L527.771,646.119C525.016,646.119 524.11,645.501 524.11,643.668L524.11,550.427C524.11,549.618 524.103,548.776 527.037,548.776L620.195,548.776C622.395,548.776 622.642,549.043 621.876,550.191C620.195,552.711 608.584,569.926 606.352,573.112C605.663,574.096 604.71,574.128 603.596,574.128L553.023,574.128C551.92,574.128 550.798,575.155 550.798,575.882L550.798,584.04C550.798,585.045 551.61,585.726 553.023,585.726C556.441,585.726 607.58,585.442 616.068,585.726C616.789,585.75 617.241,586.676 616.79,587.664C615.062,591.452 609.458,600.213 606.258,605.158C604.814,607.388 604.624,607.912 600.502,607.922C569.949,607.993 558.765,607.922 553.023,607.922C550.461,607.922 550.798,608.458 550.798,609.926L550.798,618.361C550.798,620.528 551.176,621.057 553.023,621.084C558.302,621.159 603.324,621.084 619.507,621.084C622.645,621.084 622.731,622.102 621.522,623.9C620.562,625.33 608.458,642.567 606.625,645.135C606.148,645.802 605.524,646.119 603.324,646.119Z"/>
                </g>
                <g id="_2secsysTems" serif:id="2secsysTems" transform="matrix(2.722662,0,0,2.729427,3.994278,-2.002101)">
                    <path d="M466.155,646.119C463.37,646.119 445.466,646.14 444.516,646.119C442.91,646.083 441.938,645.868 441.924,643.318C441.901,639.104 441.924,581.131 441.924,576.917C441.924,574.35 441.215,573.969 439.748,573.969C429.341,573.969 411.874,573.983 406.006,573.969C402.68,573.962 402.298,573.383 403.56,571.535C410.407,561.513 416.479,552.245 417.695,550.634C418.294,549.84 418.736,548.853 421.221,548.853L512.76,548.853C515.835,548.853 515.872,549.401 514.939,550.665C513.589,552.495 503.019,568.53 500.032,572.555C499.737,572.952 498.334,573.969 497.134,573.969L470.923,573.969C469.089,573.969 468.812,575.038 468.812,576.01C468.812,580.951 469.147,631.913 468.812,643.318C468.737,645.868 467.798,646.119 466.155,646.119Z"/>
                </g>
                <g id="_2secsyStems" serif:id="2secsyStems" transform="matrix(2.722662,0,0,2.729427,674.543538,-2.002101)">
                    <path d="M131.484,646.119L47.312,646.119C45.578,646.119 43.162,646.163 44.54,644.059C47.11,640.136 56.848,626.063 59.105,622.809C59.911,621.646 60.149,620.951 61.471,620.951L123.528,620.951C138.573,620.951 138.549,607.055 123.505,606.953C103.963,606.82 90.955,606.953 80.205,606.953C53.547,606.953 45.913,594.034 45.848,580.218C45.787,567.458 53.914,548.676 80.205,548.79C85.333,548.812 136.436,548.853 151.84,548.853C155.507,548.853 155.262,550.054 154.597,551.367C152.301,555.9 145.391,565.468 142.124,570.259C140.07,573.27 138.929,574.035 134.143,574.164C131.091,574.246 86.388,574.059 79.458,574.164C65.65,574.372 66.751,587.217 79.458,587.217C89.799,587.217 112.538,587.598 131.484,587.598C149.639,587.598 158.027,594.608 158.027,614.327C158.027,631.564 150.382,646.119 131.484,646.119Z"/>
                </g>
                <g id="_2secsYstems" serif:id="2secsYstems" transform="matrix(2.722662,0,0,2.729427,3.994278,-2.002101)">
                    <path d="M240.596,646.119L217.123,646.119C216.39,646.119 215.856,645.883 215.856,645.15L215.856,616.253C215.856,614.463 215.278,613.448 214.176,612.037C210.521,607.358 166.147,552.711 164.676,550.877C162.849,548.599 165.485,548.789 168.344,548.789C176.413,548.789 188.149,548.776 194.419,548.776C197.373,548.776 198.121,549.367 199.16,550.75C201.496,553.858 225.926,586.453 228.147,589.261C228.685,589.941 229.558,590.187 230.216,589.261C231.794,587.043 254.166,556.378 257.787,551.31C259.456,548.973 260.901,548.79 263.5,548.79C271.037,548.79 286.074,548.789 289.742,548.789C291.983,548.789 291.823,549.878 291.454,550.397C286.199,557.803 245.441,610 243.901,612.037C243.1,613.098 242.186,613.919 242.186,616.253L242.186,644.458C242.186,645.87 242.063,646.119 240.596,646.119Z"/>
                </g>
                <g id="_2secSystems" serif:id="2secSystems" transform="matrix(2.722662,0,0,2.729427,3.994278,-2.002101)">
                    <path d="M131.484,646.119L47.312,646.119C45.578,646.119 43.162,646.163 44.54,644.059C47.11,640.136 56.848,626.063 59.105,622.809C59.911,621.646 60.149,620.951 61.471,620.951L123.528,620.951C138.573,620.951 138.549,607.055 123.505,606.953C103.963,606.82 90.955,606.953 80.205,606.953C53.547,606.953 45.913,594.034 45.848,580.218C45.787,567.458 53.914,548.676 80.205,548.79C85.333,548.812 136.436,548.853 151.84,548.853C155.507,548.853 155.262,550.054 154.597,551.367C152.301,555.9 145.391,565.468 142.124,570.259C140.07,573.27 138.929,574.035 134.143,574.164C131.091,574.246 86.388,574.059 79.458,574.164C65.65,574.372 66.751,587.217 79.458,587.217C89.799,587.217 112.538,587.598 131.484,587.598C149.639,587.598 158.027,594.608 158.027,614.327C158.027,631.564 150.382,646.119 131.484,646.119Z"/>
                </g>
                <g id="_2seCsystems" serif:id="2seCsystems" transform="matrix(2.722662,0,0,2.729427,3.994278,-2.002101)">
                    <path d="M816.371,420.864C794.04,420.676 793.673,492.562 816.371,492.097C832.401,491.769 852.358,492.099 894.9,492.097C900.768,492.097 901.668,494.228 900.519,496.39C898.77,499.681 894.744,506.767 885.698,522.613C883.816,525.909 883.945,525.89 882.04,529.248C881.31,530.535 880.734,531.151 876.214,531.381C871.24,531.634 842.453,531.381 822.464,531.381C736.825,531.381 736.825,380.351 822.464,380.351C827.836,380.351 885.401,379.882 898.587,380.351C900.314,380.412 902.272,381.66 901.05,384.012C899.629,386.745 882.43,415.908 881.067,418.216C880.238,419.62 878.762,420.864 876.718,420.864C864.624,420.864 831.449,420.99 816.371,420.864Z"/>
                </g>
                <g id="_2sEcsystems" serif:id="2sEcsystems" transform="matrix(3.830518,0,0,4.238512,-309.830847,-1290.003746)">
                    <path d="M596.807,646.119C595.34,646.119 531.438,646.119 527.771,646.119C525.016,646.119 524.11,645.501 524.11,643.668L524.11,550.427C524.11,549.618 524.103,548.776 527.037,548.776C532.539,548.776 610.18,548.776 613.678,548.776C615.878,548.776 616.125,549.043 615.359,550.191C613.678,552.711 602.067,569.926 599.835,573.112C599.145,574.096 598.193,574.128 597.079,574.128C586.17,574.128 552.958,574.128 550.937,574.128C549.835,574.128 548.713,575.155 548.713,575.882L548.713,584.04C548.713,585.045 549.525,585.726 550.937,585.726C554.355,585.726 601.063,585.442 609.55,585.726C610.272,585.75 610.723,586.676 610.272,587.664C608.544,591.452 602.94,600.213 599.741,605.158C598.297,607.388 598.106,607.912 593.985,607.922C563.432,607.993 556.68,607.922 550.937,607.922C548.375,607.922 548.713,608.458 548.713,609.926L548.713,618.361C548.713,620.528 549.091,621.057 550.937,621.084C556.217,621.159 596.807,621.084 612.989,621.084C616.128,621.084 616.213,622.102 615.005,623.9C614.044,625.33 601.941,642.567 600.107,645.135C599.631,645.802 599.007,646.119 596.807,646.119Z"/>
                </g>
                <g id="_2Secsystems" serif:id="2Secsystems" transform="matrix(13.091091,0,0,13.535876,-454.134516,-7297.207356)">
                    <path d="M111.674,574.162C98.294,574.137 83.243,574.107 79.458,574.164C65.65,574.372 66.751,587.217 79.458,587.217C89.799,587.217 112.538,587.598 131.484,587.598C149.639,587.598 158.027,594.608 158.027,614.327C158.027,631.564 150.382,646.119 131.484,646.119L47.312,646.119C45.578,646.119 43.162,646.163 44.54,644.059C47.11,640.136 56.848,626.063 59.105,622.809C59.911,621.646 60.149,620.951 61.471,620.951L123.528,620.951C138.573,620.951 138.549,607.055 123.505,606.953C103.963,606.82 90.955,606.953 80.205,606.953C53.547,606.953 45.913,594.034 45.848,580.218C45.787,567.458 53.914,548.676 80.205,548.79C85.333,548.812 136.436,548.853 151.84,548.853C155.507,548.853 155.262,550.054 154.597,551.367C152.301,555.9 145.391,565.468 142.124,570.259C140.07,573.27 138.929,574.035 134.143,574.164C133.713,574.176 132.457,574.182 130.596,574.184C130.794,574.162 130.897,574.072 130.972,573.968C131.259,573.564 133.47,570.827 133.887,570.308C134.539,569.497 133.776,569.659 133.265,569.659L117.283,569.659C116.842,569.659 116.737,569.571 116.737,569.131C116.737,568.535 116.614,567.113 118.296,567.113L128.296,567.113C136.598,567.113 135.912,556.611 128.296,556.475C127.489,556.46 118.308,556.475 116.171,556.475C115.851,556.475 115.571,556.601 115.458,556.741C115.012,557.294 112.876,560.031 112.334,560.679C112.096,560.965 112.105,561.13 112.849,561.13C114.173,561.13 118.932,561.13 126.517,561.13C129.199,561.13 129.81,563.592 126.517,563.592L117.457,563.592C114.478,563.592 111.388,565.067 111.388,567.519C111.388,569.067 111.298,572.959 111.298,573.638C111.298,573.985 111.389,574.114 111.674,574.162Z"/>
                </g>
            </g>
        </g>
    </g>
</svg>
