<?xml version="1.0" encoding="UTF-8" standalone="no"?>
<!DOCTYPE svg PUBLIC "-//W3C//DTD SVG 1.1//EN" "http://www.w3.org/Graphics/SVG/1.1/DTD/svg11.dtd">
<svg width="100%" height="100%" viewBox="0 0 1393 167" version="1.1" xmlns="http://www.w3.org/2000/svg" xmlns:xlink="http://www.w3.org/1999/xlink" xml:space="preserve" xmlns:serif="http://www.serif.com/" style="fill-rule:evenodd;clip-rule:evenodd;stroke-linejoin:round;stroke-miterlimit:2;">
    <g transform="matrix(1,0,0,1,0,-217)">
        <g id="bw_Segatori" transform="matrix(0.98445,0,0,1,-10.828955,139.379852)">
            <rect x="11" y="78" width="1414.831" height="165.695" style="fill:none;"/>
            <clipPath id="_clip1">
                <rect x="11" y="78" width="1414.831" height="165.695"/>
            </clipPath>
            <g clip-path="url(#_clip1)">
                <g transform="matrix(1.389774,0,0,1.368164,4.905229,76)">
                    <rect x="992.22" y="2.129" width="11.585" height="120.441"/>
                    <g transform="matrix(1,0,0,1,18.610289,0)">
                        <rect x="992.22" y="2.129" width="11.585" height="120.441"/>
                    </g>
                </g>
                <g transform="matrix(1.389774,0,0,1.368164,4.905229,76)">
                    <path d="M934.829,2.141C961.142,2.141 973.567,23.638 973.567,43.854C973.567,69.436 961.142,77.321 950.2,82.623C947.371,83.994 945.561,85.041 947.267,86.671C947.433,86.83 980.654,122.458 980.654,122.458L964.561,122.565C964.561,122.565 931.057,87.953 926.655,83.349C922.032,78.514 927.286,79.553 932.637,78.207C959.103,70.842 961.279,59.203 961.279,43.854C961.279,28.505 952.371,14.5 933.14,14.5L891.374,14.5L891.374,122.458L880.011,122.458L880.011,2.141L934.829,2.141Z"/>
                    <path d="M943.149,66.082C941.112,67.652 931.906,73.091 914.364,73.091C910.103,73.091 908.982,74.588 912.262,77.654C912.555,77.928 952.371,122.565 952.371,122.565L940.677,122.458C940.677,122.458 915.304,95.289 914.364,94.287C912.767,92.584 909.248,89.171 909.248,97.42L909.248,122.458L899.746,122.57L899.746,21.281L930.521,21.281C949.448,21.281 953.551,37.493 953.636,45.637C953.707,52.375 950.178,60.665 943.149,66.082ZM943.6,47.509C943.6,63.589 920.482,63.486 910.709,63.223C909.254,63.184 909.246,62.278 909.248,60.665C909.259,45.487 909.248,37.837 909.248,35.113C909.248,33.622 908.517,31.444 910.709,31.429C930.444,31.291 943.6,27.774 943.6,47.509Z"/>
                </g>
                <g transform="matrix(1.389774,0,0,1.368164,4.905229,76)">
                    <path d="M835.426,11.695C844.197,-0.731 865.381,-2.311 865.393,14.5C865.394,14.789 865.376,122.458 865.376,122.458L854.431,122.458C854.431,122.458 854.449,25.007 854.449,19.226C854.449,10.233 846.735,14.247 845.95,15.427C845.444,16.188 773.722,122.458 773.722,122.458L760.259,122.458C760.259,122.458 830.822,18.217 835.426,11.695Z"/>
                    <path d="M783.587,122.458C783.587,122.458 843.654,31.598 844.687,30.026C846.255,27.641 847.07,26.678 846.818,30.426C846.248,38.891 846.499,122.458 846.499,122.458L835.426,122.565C835.426,122.565 835.517,70.275 835.426,68.632C835.355,67.351 835.781,62.858 832.882,68.028C832.502,68.705 797.548,122.458 797.548,122.458L783.587,122.458Z"/>
                </g>
                <g transform="matrix(1.389774,0,0,1.368164,4.905229,76)">
                    <path d="M688.464,21.294L727.918,21.294L727.918,122.458L714.827,122.458L714.827,34.353L688.464,34.353L688.464,21.294Z"/>
                    <path d="M775.946,21.294L775.946,34.353L749.179,34.353L749.179,122.458L736.538,122.458L736.538,21.294L775.946,21.294Z"/>
                    <path d="M688.514,14.5L688.464,2.141L775.946,2.156L775.946,14.5L688.514,14.5Z"/>
                </g>
                <g transform="matrix(1.389774,0,0,1.368164,4.905229,76)">
                    <path d="M624.568,13.603C670.241,13.603 674.495,40.931 674.495,62.801C674.495,86.247 665.872,111.415 624.568,111.415C583.263,111.415 573.683,86.978 573.683,62.801C573.683,34.353 584.725,13.603 624.568,13.603ZM561.207,62.801C561.207,24.851 583.994,2.129 624.568,2.129C660.739,2.129 686.989,19.004 686.989,62.801C686.989,103.675 665.125,122.458 624.568,122.458C586.617,122.458 561.207,100.751 561.207,62.801Z"/>
                    <path d="M580.903,62.758C580.903,43.854 594.227,21.349 624.098,21.349C651.969,21.349 667.94,39.469 667.94,62.758C667.94,83.323 651.969,104.155 624.098,104.155C602.998,104.155 580.903,86.978 580.903,62.758ZM593.551,62.758C593.551,46.047 600.805,33.622 624.098,33.622C650.507,33.622 655.447,49.702 655.447,62.758C655.447,78.207 646.852,91.672 624.098,91.672C605.191,91.672 593.551,85.516 593.551,62.758Z"/>
                </g>
                <g transform="matrix(1.389774,0,0,1.368164,4.905229,76)">
                    <path d="M478.612,109.9C450.238,90.55 455.828,41.118 471.851,21.645C486.053,4.385 507.439,2.135 541.396,2.135L541.396,14.533C507.561,15.084 490.438,16.811 480.206,29.967C467.959,45.713 464.857,78.207 478.612,95.034C487.462,105.86 503.823,112.56 539.108,112.56C539.108,108.169 539.196,60.465 539.196,60.465L497.747,60.712L497.747,50.782L551.433,50.534L551.433,122.295C518.191,122.599 493.732,120.212 478.612,109.9Z"/>
                    <path d="M541.396,21.645L541.396,33.447C509.442,33.447 490.438,35.388 490.438,63.223C490.438,97.211 514.558,93.556 521.867,93.556L521.867,75.509L497.747,75.509L497.747,65.715L532.147,65.715L532.147,105.251C513.144,105.251 478.612,106.712 478.612,61.502C478.612,22.625 514.558,22.686 541.396,21.645Z"/>
                </g>
                <g transform="matrix(1.389774,0,0,1.368164,4.905229,76)">
                    <path d="M448.892,14.502L395.981,14.502L395.981,111L448.892,111L449.045,122.458L383.726,122.458L383.836,2.141L448.892,2.141L448.892,14.502Z"/>
                    <path d="M402.855,67.502L444.019,67.501L444.019,76.569L415.644,76.569L415.644,91.864L448.892,91.864L448.892,103.541L402.855,103.444L402.855,67.502Z"/>
                    <g transform="matrix(1,0,0,-1,0,125.240338)">
                        <path d="M402.855,67.502L444.019,67.501L444.019,76.569L415.644,76.569L415.644,91.864L448.892,91.864L448.892,103.541L402.855,103.444L402.855,67.502Z"/>
                    </g>
                </g>
                <g transform="matrix(1.389774,0,0,1.368164,4.905229,76)">
                    <path d="M283.438,42.393C282.363,22.838 293.094,2.346 315.752,2.106C318.959,2.072 364.722,2.272 364.722,2.272L364.722,10.964L319.406,10.964C298.941,10.964 291.632,25.738 291.632,41.662C291.632,48.888 294.555,64.32 309.904,64.32C314.582,64.32 321.07,64.54 332.562,64.32C350.835,64.32 358.875,88.44 343.526,99.403C339.672,102.156 332.562,103.632 323.339,103.632L285.011,103.632L285.011,94.303L323.069,94.303C350.835,94.303 343.088,73.671 333.293,73.091C323.499,72.51 304.744,73.958 299.672,71.361C291.632,67.243 284.323,58.473 283.438,42.393Z"/>
                    <g transform="matrix(-1,0,0,-1,649.775874,124.605777)">
                        <path d="M279.053,42.393C279.053,20.114 289.439,2.493 323.498,2.132C326.705,2.098 364.722,2.272 364.722,2.272L364.722,9.69L323.061,9.69C299.672,9.69 287.246,22.279 287.246,42.744C287.246,55.17 291.632,68.316 308.443,68.316C313.12,68.316 319.406,68.536 330.898,68.316C346.45,69.057 350.055,93.208 338.41,100.486C332.562,104.14 325.253,104.362 316.03,104.362L285.011,104.362L285.054,96.1L325.732,96.1C339.346,96.1 337.679,77.413 329.639,77.413C319.844,76.832 319.501,77.413 309.173,77.413C287.977,77.413 279.053,64.671 279.053,42.393Z"/>
                    </g>
                </g>
                <g transform="matrix(1.389774,0,0,1.368164,4.905229,76)">
                    <path d="M172.572,122.458C172.572,77.476 217.81,20.454 272.114,20.454L272.114,31.518C221.465,31.518 182.727,91.363 182.727,122.458L172.572,122.458Z"/>
                    <g transform="matrix(1,0,0,1,-20.295637,0)">
                        <path d="M172.572,122.458C172.572,65.782 213.986,2.453 292.41,2.453L292.41,13.517C226.411,13.517 182.727,75.283 182.727,122.458L172.572,122.458ZM172.572,2.141L172.572,122.458L161.605,122.458L161.605,2.141L172.572,2.141Z"/>
                    </g>
                </g>
                <g transform="matrix(-1.389774,0,0,1.368164,387.143005,76)">
                    <path d="M172.572,122.458C172.572,77.476 217.81,20.454 272.114,20.454L272.114,31.518C221.465,31.518 182.727,91.363 182.727,122.458L172.572,122.458Z"/>
                    <g transform="matrix(1,0,0,1,-20.295637,0)">
                        <path d="M172.572,122.458C172.572,65.782 213.986,2.453 292.41,2.453L292.41,13.517C226.411,13.517 182.727,75.283 182.727,122.458L172.572,122.458ZM172.572,2.141L172.572,122.458L161.605,122.458L161.605,2.141L172.572,2.141Z"/>
                    </g>
                </g>
            </g>
        </g>
    </g>
</svg>
