<?xml version="1.0" encoding="UTF-8"?><svg id="Layer_2" xmlns="http://www.w3.org/2000/svg" viewBox="0 0 489.87 124.86"><defs><style>.cls-1{fill:#fff;}</style></defs><g id="Layer_1-2"><path class="cls-1" d="M263.38,41.04v31.99h52.64c.95-1.6,2.71-2.67,4.71-2.67,3.06,0,5.53,2.47,5.53,5.53s-2.47,5.52-5.53,5.52c-2,0-3.75-1.06-4.71-2.66h-52.64v20.19h63.45c7.8,0,14.12-6.32,14.12-14.12v-31.99h-52.65c-.97,1.6-2.73,2.67-4.73,2.67-3.05,0-5.52-2.47-5.52-5.53s2.47-5.52,5.52-5.52c2,0,3.75,1.06,4.72,2.66h52.66v-20.19h-63.45c-7.8,0-14.12,6.32-14.12,14.12Z"/><path class="cls-1" d="M0,41.04v31.99h52.64c.95-1.6,2.71-2.67,4.71-2.67,3.06,0,5.53,2.47,5.53,5.53s-2.47,5.52-5.53,5.52c-2,0-3.75-1.06-4.71-2.66H0v20.19h63.45c7.8,0,14.12-6.32,14.12-14.12v-31.99H24.92c-.97,1.6-2.73,2.67-4.73,2.67-3.05,0-5.52-2.47-5.52-5.53s2.47-5.52,5.52-5.52c2,0,3.75,1.06,4.72,2.66h52.66v-20.19H14.12c-7.8,0-14.12,6.32-14.12,14.12Z"/><path class="cls-1" d="M432.49,44.45c2,0,3.75,1.06,4.72,2.66h52.66v-20.19h-63.45c-7.8,0-14.12,6.32-14.12,14.12v31.99h52.64c.95-1.6,2.71-2.67,4.71-2.67,3.06,0,5.53,2.47,5.53,5.53s-2.47,5.52-5.53,5.52c-2,0-3.75-1.06-4.71-2.66h-52.64v20.19h63.45c7.8,0,14.12-6.32,14.12-14.12v-31.99h-52.65c-.97,1.6-2.73,2.67-4.73,2.67-3.05,0-5.52-2.47-5.52-5.53s2.47-5.52,5.52-5.52Z"/><path class="cls-1" d="M238.86,50.65h8.71v-20.19h-8.71v-3.53h-20.19v59.79c0,6.76,5.48,12.23,12.23,12.23h24.24v-20.19h-16.28v-28.1Z"/><polygon class="cls-1" points="376.78 66.46 364.51 26.93 344.32 26.93 366.66 98.94 366.7 98.94 358.66 124.86 378.86 124.86 409.23 26.93 389.04 26.93 376.78 66.46"/><path class="cls-1" d="M238.86,22.21v-10.67c0-6.37-5.17-11.54-11.54-11.54h-38.37c-6.5,0-11.77,5.27-11.77,11.77v87.18h20.19v-48.29h13.69v-20.19h-13.69v-10.27h19.33c1.96,0,1.96,2.02,1.96,2.02h20.19Z"/><path class="cls-1" d="M157.85,26.92h-60.94c-6.13,0-11.09,4.97-11.09,11.1v49.82c0,6.13,4.96,11.1,11.09,11.1h60.94c6.12,0,11.09-4.97,11.09-11.1v-49.82c0-6.13-4.97-11.1-11.09-11.1ZM148.75,78.75h-28.35l5.67-4.84c.22-.19.39-.41.51-.65.71-1.34-.23-3.16-1.94-3.14-.51,0-.99.19-1.37.52l-9.5,8.11h-2.86l2.24-1.92,13.26-11.32c1.52-1.31.58-3.81-1.43-3.78-.51,0-.99.19-1.37.52l-14.83,12.74-4.49,3.77h-2.87l11.73-10.04,12.73-10.97.75-.64c1.52-1.3.58-3.8-1.43-3.78-.51.01-.99.19-1.37.52l-17.82,15.43v-22.16h42.74v31.64Z"/></g></svg>