<?xml version="1.0" encoding="UTF-8"?><svg id="Layer_2" xmlns="http://www.w3.org/2000/svg" viewBox="0 0 316.33 366.83"><defs><style>.cls-1{fill:#fff;stroke-width:0px;}</style></defs><g id="Layer_1-2"><path class="cls-1" d="M316.32,183.92c0,45.77.05,91.54-.02,137.31-.04,25.7-18.97,45.4-45.55,45.47-74.27.21-148.54.1-222.81.08-18.08,0-32.54-6.9-41.83-22.86-4.3-7.38-5.97-15.62-5.98-24.07-.07-60.69-.04-121.37-.04-182.06,0-30.51-.23-61.03.09-91.54C.45,19.53,19.08.25,45.88.17,121.28-.05,196.68-.08,272.09.22c22.07.09,39.45,15.41,43.06,35.66.69,3.86,1.12,7.83,1.12,11.75.08,45.43.05,90.86.05,136.29ZM9.96,299.29h296.6c.06-1.38.15-2.5.15-3.61.02-83.74.07-167.49,0-251.23-.02-19.43-15.6-34.67-35.1-34.74-9.17-.03-18.34,0-27.51,0-66.23,0-132.47-.04-198.7.03-20.34.02-35.4,15.09-35.41,35.34-.05,83.52-.03,167.04-.03,250.56,0,1.12,0,2.24,0,3.66ZM107.08,355.51l.06-.4c1.47,0,2.94.06,4.41,0,8.38-.37,14.79-4.94,16.91-12.17,2.01-6.86,2.12-13.78.29-20.71-1.66-6.26-5.43-11.09-11.79-12.25-5.78-1.06-11.93-1.18-17.79-.53-6.92.77-11.68,5.17-13.65,11.99-2.25,7.79-2.15,15.63.83,23.22,1.92,4.88,5.5,8.26,10.75,9.38,3.28.7,6.65,1,9.98,1.48ZM74.52,308.96c-8.93,0-17.28-.13-25.63.06-3.84.09-7.3,1.58-9.61,4.89-3.23,4.65-3.51,9.71-1.34,14.78,2.24,5.23,6.71,7.45,12.18,7.65,4.52.16,9.07-.28,13.56.15,1.61.15,3.84,1.78,4.36,3.24.53,1.49-.2,4.05-1.32,5.29-.95,1.06-3.24,1.21-4.95,1.24-7.53.12-15.06.05-22.68.05v8.47c9.56,0,18.95.59,28.22-.19,7.47-.63,11.08-6.89,10.31-15.26-.66-7.09-5.27-11.44-12.49-11.69-4.18-.15-8.36-.23-12.54-.26-4.45-.04-6.92-1.64-6.98-4.67-.06-3.19,2.37-4.89,7.07-4.9,6.33-.01,12.67.08,19-.07.97-.02,2.6-1.03,2.72-1.78.37-2.17.13-4.44.13-6.99ZM199.17,308.73c0,.09-.01.18-.02.27-1.47,0-2.94-.08-4.4.01-9.22.59-15.6,5.46-17.1,14.46-.94,5.67-.97,11.75,0,17.41,1.27,7.49,6.23,12.67,14.07,13.57,5.43.62,11.07.54,16.49-.18,6.17-.81,10.38-4.91,12.37-10.76,2.35-6.88,2.44-13.98.56-21-2-7.45-6.74-12.1-14.57-13.17-2.45-.33-4.93-.42-7.4-.62ZM154.48,346.43c-.33.02-.66.04-.99.06-.58-1.09-1.3-2.12-1.7-3.27-3.77-10.62-7.52-21.25-11.16-31.91-.61-1.78-1.33-2.64-3.33-2.43-1.99.2-4.03.04-6.56.04.33,1.38.48,2.44.83,3.43,4.26,12.12,8.51,24.25,12.83,36.35,1.72,4.8,4.47,6.67,9.41,6.69,5.18.02,7.84-1.9,9.61-6.87,4.39-12.31,8.8-24.61,13.17-36.93.27-.75.19-1.63.29-2.63-1.97,0-3.57.18-5.1-.04-2.8-.41-4.17.59-5.08,3.36-2.94,8.99-6.15,17.89-9.31,26.8-.88,2.48-1.94,4.9-2.91,7.35ZM280.24,346.21c-5.32,0-10.18.11-15.03-.03-6.18-.18-10.08-4.15-10.21-10.3-.1-4.85-.06-9.71-.06-14.57,0-4.03,0-8.07,0-12.25h-8.39c0,10.94-.53,21.66.2,32.29.43,6.21,4.91,10.57,10.99,12.53,7.36,2.37,14.92.83,22.5,1.27v-8.95ZM237.91,309.22c-1.65,0-2.9.15-4.1-.03-3.45-.53-4.42.79-4.36,4.26.21,12.51.06,25.04.07,37.55,0,1.2.1,2.41.16,3.66h8.23v-45.45Z"/><path class="cls-1" d="M102.06,116.49c0,5.52-.15,10.7.03,15.87.75,21.46,9.36,38.95,28.24,49.73,25.96,14.82,56.87,6.89,73.22-15.56,7.41-10.17,10.46-21.6,10.9-33.9.19-5.28.03-10.58.03-16.16,2.86,0,5.42,0,7.99,0,21.05.02,42.11-.01,63.16.07,6.71.03,10.4,4.3,8.34,9.79-.69,1.85-2.41,3.56-4.07,4.75-13.1,9.44-26.27,18.78-39.48,28.08-24.57,17.3-49.17,34.55-73.75,51.83-27.16,19.09-54.32,38.17-81.48,57.26-5.08,3.57-10.12,7.2-15.23,10.73-3.76,2.59-7.49,2.77-10.38.47-3.16-2.52-2.9-5.84-1.91-9.26,6.1-21.14,12.22-42.27,18.29-63.42,1.9-6.62,3.54-13.31,5.56-19.89.63-2.04.12-3.08-1.39-4.28-11.91-9.51-23.78-19.07-35.65-28.64-9.66-7.79-19.35-15.55-28.9-23.48-1.55-1.29-2.97-3.25-3.48-5.16-1.39-5.22,2.36-8.9,8.86-8.91,14.15-.02,28.3.05,42.44.07,9.38.01,18.76,0,28.66,0Z"/><path class="cls-1" d="M114.21,133.36c-.38-6.62,1.65-12.73,3.97-18.76,10.01-26,20.05-51.99,30.09-77.98.85-2.21,1.76-4.4,2.61-6.61,1.35-3.51,3.84-5.46,7.42-5.29,3.43.16,5.81,1.86,7.13,5.25,7.97,20.62,16.07,41.19,24.08,61.79,3.68,9.45,7.72,18.79,10.79,28.43,8.27,25.97-7.58,51.91-33.65,56.89-24.94,4.77-47.85-11.54-52.03-36.63-.39-2.32-.28-4.73-.41-7.09ZM154.11,170.4c14.37,3.19,31.65-6.33,38.1-19.95,6.67-14.08,2.76-31.4-3.27-36.28,4.19,28.18-7.3,46.78-34.82,56.23Z"/><path class="cls-1" d="M223.24,193.75c3.52,10.6,6.85,20.65,10.19,30.7,4.76,14.34,9.53,28.68,14.3,43.02.39,1.18.77,2.36,1.11,3.55.94,3.3.5,6.3-2.31,8.53-2.58,2.05-6.27,1.99-9.5-.09-11.86-7.64-23.7-15.32-35.54-22.99-11.17-7.23-22.35-14.47-33.52-21.71-.45-.29-.85-.65-1.5-1.15,18.91-13.28,37.64-26.43,56.77-39.87Z"/><path class="cls-1" d="M106.98,317.86c10.77-.11,13.89,2.99,13.92,13.85,0,1.8-.06,3.63-.37,5.4-1.17,6.63-4.45,9.24-11.21,9.13-1.58-.03-3.17.03-4.75.05-6.31.06-10-2.59-10.89-8.79-.55-3.84-.45-7.93.21-11.76.95-5.56,4.05-7.73,9.7-7.88,1.13-.03,2.26,0,3.39,0Z"/><path class="cls-1" d="M199.02,346.35c-10.08-.09-14.28-4.61-13.66-14.72.09-1.46.19-2.93.41-4.38.99-6.66,4.19-9.45,10.91-9.47,2.82,0,5.66-.04,8.47.23,3.6.35,5.93,2.45,7.12,5.87,1.78,5.09,1.75,10.23.3,15.33-1.39,4.85-4.39,6.97-9.47,7.13-1.36.04-2.72,0-4.07,0Z"/></g></svg>