<?xml version="1.0" encoding="UTF-8" standalone="no"?>
<!DOCTYPE svg PUBLIC "-//W3C//DTD SVG 1.1//EN" "http://www.w3.org/Graphics/SVG/1.1/DTD/svg11.dtd">
<svg width="100%" height="100%" viewBox="0 0 1147 1076" version="1.1" xmlns="http://www.w3.org/2000/svg" xmlns:xlink="http://www.w3.org/1999/xlink" xml:space="preserve" xmlns:serif="http://www.serif.com/" style="fill-rule:evenodd;clip-rule:evenodd;stroke-linejoin:round;stroke-miterlimit:2;">
    <g id="bw_spectra-underground" transform="matrix(1,0,0,1,-438.941332,-458.971729)">
        <rect x="438.941" y="458.972" width="1146.571" height="1075.59" style="fill:none;"/>
        <clipPath id="_clip1">
            <rect x="438.941" y="458.972" width="1146.571" height="1075.59"/>
        </clipPath>
        <g clip-path="url(#_clip1)">
            <g transform="matrix(2,0,0,2,0.941332,0.971729)">
                <path d="M746.552,605.859C751.151,607.939 749.483,609.283 754.152,620.643L764.068,644.675C781.421,686.461 784.246,688.976 780.46,689.101C763.691,689.655 762.355,688.905 760.996,688.142L758.515,682.494C756.445,678.113 756.79,677.764 755.526,677.408C754.538,677.13 754.665,677.28 731.5,677.345C730.378,677.342 717.788,677.309 717.471,677.408C716.336,677.761 716.674,678.107 712.731,686.629C708.543,691.021 691.607,689.638 692.362,687.475C698.649,669.449 699.82,670.017 711.919,640.699C726.053,606.81 725.53,605.785 727.526,605.699C739.617,605.178 733.07,611.833 730.127,623.399C727.192,633.641 726.352,633.225 724.168,643.469L723.704,644.544C724.073,651.378 726.877,636.899 728.695,640.295C730.134,642.984 721.128,661.606 725.489,661.629C749.509,661.755 749.723,662.58 751.311,661.257C752.326,660.411 751.615,660.261 750.336,656.563C749.388,653.441 747.814,650.532 746.867,647.409C746.658,646.72 748.428,646.734 746.935,638.406C743.966,624.766 743.924,624.874 742.566,619.481C739.869,610.55 735.148,605.728 744.379,605.846L746.552,605.859Z"/>
            </g>
            <g transform="matrix(2,0,0,2,0.941332,0.971729)">
                <path d="M612.056,630.501C612.02,621.512 611.329,605.772 613.528,605.614C664.948,601.916 673.501,614.329 676.415,618.558C687.016,633.942 676.316,650.462 674.827,652.762C669.624,657.778 669.858,657.774 663.569,661.582C661.954,666.277 685.251,689.055 680.429,689.144C678.667,689.177 660.794,689.508 658.401,688.891C657.091,688.554 648.108,675.842 647.274,674.662C641.243,666.501 642.524,663.247 632.532,663.693C629.384,663.834 632.599,688.359 629.64,688.932C628.259,689.199 613.078,692.137 612.098,687.598C611.798,686.21 612.035,635.068 612.056,630.501ZM660.896,628.135C659.074,626.733 652.092,621.361 632.518,623.603C630.443,623.841 629.187,646.894 633.479,646.936C636.858,646.97 660.682,650.508 663.636,636.522C664.601,631.952 663.445,632.197 660.896,628.135Z"/>
            </g>
            <g transform="matrix(2,0,0,2,0.941332,0.971729)">
                <path d="M541.5,605.481C545.9,605.479 594.543,605.453 596.495,605.576C600.045,605.798 600.077,616.512 600.08,617.509C600.099,623.715 597.845,622.621 591.5,623.076C579.146,623.314 576.642,620.866 576.627,625.502C576.44,682.586 576.63,682.542 576.5,687.5C576.433,690.062 575.105,688.782 564.497,688.996C558.914,688.516 558.209,689.24 558.135,687.588C558.01,684.783 558.078,684.898 558.068,652.5C557.965,632.22 558.968,623.118 555.517,623.081C542.454,622.941 536.066,629.641 535.143,616.501C535.382,606.507 535.011,606.49 535.821,605.908L541.5,605.481Z"/>
            </g>
            <g transform="matrix(2,0,0,2,0.941332,0.971729)">
                <path d="M492.451,689.883L490.477,689.619C438.374,674.074 448.451,600.963 503.459,604.77C509.749,606.079 531.317,609.778 522.041,621.124C517.227,627.012 515.352,630.965 511.815,628.13C507.63,624.775 507.738,624.94 502.614,623.014C496.918,622.209 497.079,622.086 491.448,623.345C488.603,624.571 488.791,624.512 486.184,626.058C473.341,637.628 471.064,653.494 484.67,668.305C497.587,677.164 503.807,673.529 512.271,667.221C515.743,663.784 516.855,664.237 519.9,668.108C522.477,671.336 529.969,673.995 521.411,682.394C517.035,685.489 517.148,685.227 512.573,687.665L505.53,689.666L496.509,690.209L492.451,689.883Z"/>
            </g>
            <g transform="matrix(2,0,0,2,0.941332,0.971729)">
                <path d="M442.5,605.515C452.532,606.094 449.162,610.444 449.106,620.476C449.072,626.592 404.08,618.781 404.029,625.491C404.02,626.557 403.927,638.691 405.444,638.741C421.662,639.272 438.781,637.194 442.168,640.539L442.186,641.505C442.113,653.316 444.364,655.113 440.56,655.826C435.364,656.799 404.109,653.335 404.056,658.488C404.046,659.458 403.938,669.996 404.118,670.618C404.593,672.26 404.977,671.561 406.478,671.92C446.279,672.064 451.169,671.43 451.207,673.546C451.26,676.425 451.213,687.309 451.183,687.444C450.696,689.688 449.827,688.61 440.5,688.922L408.506,688.932C386.206,689.114 385.257,689.453 385.193,687.586C385.084,684.421 385.123,614.374 385.121,608.512C385.597,604.735 387.569,605.388 442.5,605.515Z"/>
            </g>
            <g transform="matrix(2,0,0,2,0.941332,0.971729)">
                <path d="M306.956,619.503C307.281,607.023 305.988,605.58 308.499,605.497C328.037,604.859 376.965,599.348 373.009,638.451C372.046,647.967 370.801,647.528 364.976,654.962L364.508,655.508C339.066,674.307 325.181,656.584 325.139,666.491C325.12,671.06 325.952,688.831 323.589,688.9C322.304,688.938 308.42,689.349 307.533,688.467C306.505,687.443 307.053,687.165 307.027,664.501L306.956,619.503ZM338.501,623.467C328.274,623.529 328.399,623.238 325.793,623.86C324.807,626.311 323.734,646.761 327.474,646.8C337.244,646.9 337.073,647.173 346.598,645.749C354.111,641.86 361.315,632.333 347.405,624.751C342.998,623.72 343.145,623.938 338.501,623.467Z"/>
            </g>
            <g transform="matrix(2,0,0,2,0.941332,0.971729)">
                <path d="M242.416,608.322C270.291,598.016 291.391,614.213 289.761,617.668C282.364,627.025 283.249,630.733 278.743,628.087C254.183,613.66 244.536,626.539 247.857,632.264C250.71,637.181 252.077,635.505 271.564,641.293C295.83,648.5 298.854,668.532 281.564,683.588L277.334,686.174C262.813,691.997 260.218,690.751 247.538,689.338L243.562,688.305C226.128,681.824 224.707,678.445 228.246,673.313C233.712,665.917 233.508,665.645 234.471,665.418C235.13,665.263 235.12,665.472 241.419,668.672C247.171,671.594 262.431,676.061 270.28,668.309C282.369,656.368 242.905,659.516 230.902,643.234C217.5,625.055 239.975,609.962 242.416,608.322Z"/>
            </g>
            <g transform="matrix(1,0,0,1,0.941332,0.971729)">
                <g transform="matrix(2,0,0,2,0,0)">
                    <path d="M650.628,281.072C651.153,281.292 651.678,281.512 652.203,281.732C651.329,283.311 651.337,283.208 649.678,283.86C649.027,282.142 648.893,281.802 650.628,281.072Z"/>
                </g>
                <g transform="matrix(2,0,0,2,0,0)">
                    <path d="M357.264,419.5C357.122,419.234 353.626,412.679 358.289,415.875C359.114,416.44 358.621,416.445 357.264,419.5Z"/>
                </g>
                <g transform="matrix(2,0,0,2,0,0)">
                    <path d="M654.347,285.666L655.507,285.437C657.146,285.613 656.985,285.737 658.287,286.586C656.35,289.359 654.473,285.754 654.347,285.666Z"/>
                </g>
                <g transform="matrix(2,0,0,2,0,0)">
                    <path d="M707.591,489.317C708.971,486.459 709.599,488.307 709.62,488.481C709.797,489.934 709.167,489.332 707.591,489.317Z"/>
                </g>
                <g transform="matrix(2,0,0,2,0,0)">
                    <path d="M705.435,425.694C704.454,423.271 703.249,423.052 705.241,421.2C708.326,418.332 705.567,425.359 705.435,425.694Z"/>
                </g>
                <g transform="matrix(2,0,0,2,0,0)">
                    <path d="M661.551,409.486L661.788,417.289C661.594,416.452 659.474,415.432 660.194,410.397C660.34,409.375 661.407,410.489 661.551,409.486Z"/>
                </g>
                <g transform="matrix(2,0,0,2,-2,-2.763757)">
                    <path d="M671.482,302.554C674.122,304.108 671.033,304.139 669.5,306.724L668.405,304.543L668.515,303.512C669.504,303.192 670.493,302.873 671.482,302.554Z"/>
                </g>
                <g transform="matrix(2,0,0,2,0,0)">
                    <path d="M481.499,553.5C481.435,553.776 479.72,561.244 479.581,556.475C479.572,556.192 479.172,542.55 481.499,553.5Z"/>
                </g>
                <g transform="matrix(2,0,0,2,0,0)">
                    <path d="M709.469,418.553C711.631,421.278 710.991,421.558 709.384,424.57C708.847,423.525 708.968,423.564 707.907,419.56C708.427,419.224 708.948,418.889 709.469,418.553Z"/>
                </g>
                <g transform="matrix(2,0,0,2,0,0)">
                    <path d="M663.045,298.541C663.439,300.346 662.978,300.414 664.425,301.69L665.568,302.398C661.173,304.775 661.156,301.476 661.077,301.362C661.327,300.898 660.39,298.902 663.045,298.541Z"/>
                </g>
                <g transform="matrix(2,0,0,2,0,0)">
                    <path d="M676.348,309.564C677.336,310.874 677.153,310.981 678.666,311.34C679.094,311.442 677.717,316.379 673.698,310.377C674.542,308.852 674.765,308.82 676.348,309.564Z"/>
                </g>
                <g transform="matrix(2,0,0,2,0,0)">
                    <path d="M706.33,477.729C706.593,479.52 706.381,479.384 707.279,480.764C707.763,481.379 708.248,481.994 708.732,482.609C706.19,483.054 706.244,483.727 704.43,482.529C704.47,482.192 704.329,482.251 704.143,478.29C705.238,477.658 705.087,477.662 706.33,477.729Z"/>
                </g>
                <g transform="matrix(2,0,0,2,0,0)">
                    <path d="M709.384,424.57C709.531,428.555 710.271,430.974 710.435,431.511C711.953,436.469 707.455,430.748 707.292,430.541C707.479,426.746 705.733,425.302 709.384,424.57Z"/>
                </g>
                <g transform="matrix(2,0,0,2,0,0)">
                    <path d="M700.469,363.388C701.174,363.89 704.695,366.4 702.062,374.08C701.543,373.551 701.025,373.022 700.506,372.493C700.302,370.396 700.211,370.626 699.528,368.731C699.611,368.305 700.167,365.466 700.469,363.388Z"/>
                </g>
                <g transform="matrix(2,0,0,2,0,0)">
                    <path d="M706.33,433.147C712.44,436.065 709.708,437.819 709.615,444.531C704.009,443.911 707.33,441.371 707.312,435.625C706.984,434.799 706.657,433.973 706.33,433.147Z"/>
                </g>
                <g transform="matrix(2,0,0,2,0,0)">
                    <path d="M555.483,469.348C553.124,463.934 557.795,446.312 557.437,460.503C557.318,465.225 556.805,464.972 555.483,469.348Z"/>
                </g>
                <g transform="matrix(2,0,0,2,0,0)">
                    <path d="M327.45,551.507C327.46,551.153 328.445,527.105 329.401,547.532C329.96,559.479 324.467,567.397 325.585,560.501C325.65,560.099 325.681,560.219 326.578,555.505L327.45,551.507Z"/>
                </g>
                <g transform="matrix(2,0,0,2,0,0)">
                    <path d="M354.46,537.501C354.525,537.934 358.293,567.093 353.123,542.808C350.397,530 352.78,527.87 353.211,529.647C353.361,530.265 352.946,530.206 354.46,537.501Z"/>
                </g>
                <g transform="matrix(2,0,0,2,0,0)">
                    <path d="M347.777,551.277C345.966,538.231 349.096,509.475 349.466,526.504C349.984,550.318 349.764,551.259 347.777,551.277Z"/>
                </g>
                <g transform="matrix(2,0,0,2,0,0)">
                    <path d="M357.187,420.725C358.74,431.08 354.477,500.035 354.868,447.51C354.973,433.463 354.387,420.827 357.187,420.725Z"/>
                </g>
                <g transform="matrix(2,0,0,2,0,0)">
                    <path d="M474.74,509.34C479.752,526.062 475.419,526.675 479.523,543.498C480.723,548.418 476.385,543.942 475.65,537.482C472.648,511.126 472.798,510.482 474.74,509.34Z"/>
                </g>
                <g transform="matrix(2,0,0,2,0,0)">
                    <path d="M364.626,404.567L365.517,404.258C367.408,406.962 362.76,407.412 365.409,445.5C367.282,472.439 357.894,427.414 364.626,404.567Z"/>
                </g>
                <g transform="matrix(2,0,0,2,0,0)">
                    <path d="M476.492,434.501C475.368,500.032 475.383,499.879 474.83,505.536C474.715,504.866 473.282,505.024 473.167,504.354C472.783,502.1 473.395,499.785 473.459,497.499C475.047,440.586 474.679,417.442 476.492,434.501Z"/>
                </g>
                <g transform="matrix(2,0,0,2,0,0)">
                    <path d="M664.093,535.373L663.893,540.52C663.842,540.476 661.994,540.109 662.057,538.481C663.334,505.634 662.281,452.871 663.18,448.641C663.306,448.048 664.475,448.099 664.602,447.506C664.5,489.13 664.85,488.945 664.153,530.487C664.28,529.895 665.511,530.034 665.638,529.443C666.704,524.476 666.243,427.885 666.393,426.631C666.47,425.984 667.916,426.156 667.993,425.509C668.366,474.218 668.813,504.498 667.166,530.465C666.933,534.133 667.632,535.41 664.093,535.373Z"/>
                </g>
                <g transform="matrix(2,0,0,2,0,0)">
                    <path d="M480.214,513.418C476.994,488.428 480.976,394.272 481.082,461.519C481.088,465.231 481.156,507.751 481.197,507.927C481.326,508.47 482.695,506.987 482.823,507.53C482.898,500.881 484.926,320.9 486.474,424.504C486.566,430.664 485.699,430.617 485.234,501.502C485.087,523.957 480.801,525.203 480.641,523.418L480.214,513.418Z"/>
                </g>
                <g transform="matrix(2,0,0,2,0,0)">
                    <path d="M359.716,554.532C364.939,517.057 364.355,517.215 366.514,479.502C371.062,400.043 367.911,496.078 367.833,497.522C365.23,545.619 355.294,588.058 359.716,554.532Z"/>
                </g>
                <g transform="matrix(2,0,0,2,0,0)">
                    <path d="M355.884,403.567C346.063,457.025 358.137,506.089 350.14,514.641C349.913,511.917 349.296,504.498 349.065,480.486C349.645,479.342 350.13,479.691 350.084,478.478C349.746,469.673 350.256,435.253 350.312,431.495C350.683,406.426 353.888,404.665 355.884,403.567Z"/>
                </g>
                <g transform="matrix(2,0,0,2,0,0)">
                    <path d="M320.19,421.689C320.546,431.342 323.245,504.479 322.306,542.405L321.502,542.726C319.804,542.048 318.804,426.557 318.887,421.782C319.459,418.126 319.109,416.815 320.155,417.815C320.379,418.029 320.611,418.251 320.19,421.689Z"/>
                </g>
                <g transform="matrix(2,0,0,2,0,0)">
                    <path d="M669.814,395.437C676.22,463.682 668.984,610.737 670.362,504.502C670.639,483.169 670.163,428.611 668.974,405.526C668.461,400.12 666.504,399.783 669.814,395.437Z"/>
                </g>
                <g transform="matrix(2,0,0,2,0,0)">
                    <path d="M353.824,514.326C357.169,494.111 357.698,487.857 357.894,485.54C365.638,393.942 360.72,514.553 359.018,527.363C358.258,533.083 354.546,516.82 353.824,514.326Z"/>
                </g>
                <g transform="matrix(2,0,0,2,0,0)">
                    <path d="M314.561,525.5C314.495,416.426 314.152,413.659 316.101,414.968C316.656,415.341 316.718,518.306 316.502,545.5C315.802,633.863 314.559,527.107 314.561,525.5Z"/>
                </g>
                <g transform="matrix(2,0,0,2,0,0)">
                    <path d="M429.887,506.502C429.937,500.119 430.5,429.397 431.821,426.728C436.049,418.189 430.135,658.661 429.887,506.502Z"/>
                </g>
                <g transform="matrix(2,0,0,2,0,0)">
                    <path d="M398.13,507.521C399.193,521.673 399.061,521.545 401.269,535.53C402.736,544.824 399.715,564.536 399.511,553.498C399.143,533.61 386.745,433.086 396.224,414.043C401.057,404.333 396.779,416.894 395.713,427.506C393.966,444.906 396.829,487.119 398.13,507.521Z"/>
                </g>
                <g transform="matrix(2,0,0,2,0,0)">
                    <path d="M326.406,523.488C326.14,525.846 325.874,528.203 325.608,530.56L324.092,529.921C326.31,478.129 326.784,478.275 325.908,426.496C325.438,398.75 331.878,379.672 330.534,393.496C324.223,458.406 333.626,458.77 326.406,523.488Z"/>
                </g>
                <g transform="matrix(2,0,0,2,0,0)">
                    <path d="M439.064,545.414C439.012,545.794 435.925,568.152 436.545,549.495C437.674,515.502 435.991,451.861 439.575,426.524C442.355,406.867 441.38,430.145 441.348,430.491C437.842,468.541 442.505,503.333 439.064,545.414Z"/>
                </g>
                <g transform="matrix(2,0,0,2,0,0)">
                    <path d="M388.609,513.198C386.966,517.123 389.68,562.257 384.711,555.382C383.451,553.638 385.805,553.348 385.568,528.498C384.605,427.347 385.745,415.649 388.109,423.696C389.576,428.691 384.69,428.81 390.259,494.519C394.646,546.284 396.175,546.304 394.272,550.358C392.089,555.006 392.95,533.596 388.609,513.198Z"/>
                </g>
                <g transform="matrix(2,0,0,2,0,0)">
                    <path d="M467.869,472.696C468.029,464.58 467.945,464.793 467.866,456.536C467.865,453.159 467.852,411.812 474.422,414.837C477.104,416.073 470.262,416.949 470.119,451.502C469.812,526.114 473.352,574.739 467.766,539.436C465.01,522.012 464.626,520.455 463.766,521.634C463.183,522.433 465.509,557.207 462.415,553.591C461.381,552.382 460.759,490.754 459.364,541.475C459.343,542.231 458.933,557.143 457.232,550.684C455.856,545.454 457.107,528.412 457.248,526.481C460.551,481.49 455.982,481.631 457.56,436.506C457.906,426.603 464.612,411.905 461.629,424.496C459.547,433.282 460.278,433.173 459.435,445.503C459.676,483.906 460.694,483.805 461.073,484.416C461.156,458.593 460.457,456.726 462.858,455.409C462.924,493.186 462.227,493.182 462.652,496.436C465.347,517.093 464.97,478.132 464.955,476.528C464.831,461.975 464.557,462.029 465.053,457.128L466.345,459.597C466.369,460.615 466.638,472.319 466.639,472.329C466.689,472.754 467.819,472.272 467.869,472.696Z"/>
                </g>
                <g transform="matrix(2,0,0,2,0,0)">
                    <path d="M638.89,329.181C643.897,336.294 643.813,336.095 648.776,343.385C648.436,343.723 641.994,345.373 649.424,347.547L650.324,348.546C649.927,350.411 649.079,350.293 649.887,353.279C650.223,353.242 651.352,353.118 653.661,351.388L654.1,352.625C655.198,356.612 654.941,356.602 656.961,360.263L658.959,364.218C659.191,364.66 659.337,364.937 660.942,370.131C660.149,370.953 657.119,371.239 659.332,374.761C660.769,373.017 660.629,373.138 661.995,371.18C663.356,373.712 663.258,373.731 662.31,376.46C663.553,378.001 663.418,377.827 664.672,379.407C664.299,382.019 664.425,381.843 664.727,384.435C664.87,384.823 666.12,388.211 665.622,389.526C664.123,393.491 667.976,402.794 664.945,424.565C664.201,431.705 664.218,431.518 663.161,438.46L661.861,442.564C657.585,502.586 660.648,511.34 660.592,543.997C660.024,544.638 659.132,545.645 658.529,554.505C655.779,594.934 657.218,540.626 657.117,536.519C656.092,494.867 658.448,494.883 657.737,491.339C657.158,488.457 653.616,491.667 651.202,527.494C650.568,540.082 650.752,539.888 650.347,552.421L650.245,553.376L649.434,554.323C647.188,550.593 650.042,505.347 648.28,492.616L647.569,490.63C644.915,509.464 646.972,509.343 646.251,528.483C643.249,608.121 644.407,511.947 644.44,510.502C646.207,432.526 641.193,543.51 640.176,558.285C638.814,558.288 638.862,558.385 638.814,558.288C636.08,552.787 638.732,552.378 639.012,481.505L638.954,479.493L638.952,472.509C639.216,397.727 640.485,389.979 622.116,355.733C619.887,352.636 600.245,317.289 551.596,300.224C514.916,287.357 479.857,293.245 471.59,294.977C400.76,309.819 371.203,362.596 369.22,365.321L362.474,377.487C358.481,386.358 358.621,386.235 355.147,395.386C342.131,438.677 351.92,439.885 347.684,470.259C347.182,468.993 346.678,469.373 346.587,467.492C344.5,424.28 345.216,357.586 424.734,300.848C515.483,245.568 576.025,280.1 614.666,305.243C623.452,312.645 623.398,312.438 631.516,320.481L634.752,324.248C636.752,326.957 636.725,326.951 636.912,327.174C637.883,328.338 637.971,328.08 638.89,329.181ZM640.608,389.459C646.28,389.71 646.564,426.96 646.911,427.152C653.065,430.558 643.329,376.82 637.5,372.941C637.059,372.648 636.568,374.035 636.127,373.742C622.96,340.58 639.453,382.645 641.066,406.548C642.878,433.387 642.199,467.381 643.422,440.479C644.787,410.431 641.407,393.468 640.608,389.459ZM561.669,283.618C560.99,289.901 560.908,289.858 560.936,290.404C561.096,293.524 566.649,287.213 562.487,283.656L561.669,283.618ZM641.514,343.47C643.51,342.117 645.561,341.752 643.307,340.748C642.391,340.34 642.942,340.149 642.542,339.492C642.092,339.448 635.358,338.788 637.675,342.366C637.966,342.815 640.057,342.351 641.514,343.47ZM619.351,313.168C618.622,311.747 619.007,310.415 617.669,311.546C617.527,311.666 615.643,313.688 619.351,313.168ZM652.496,409.5C651.236,399.087 652.573,395.154 649.762,397.826C649.749,397.839 649.754,397.828 650.681,415.461C651.859,437.854 652.485,409.998 652.496,409.5ZM644.578,354.395C643.546,356.767 642.778,356.856 644.245,358.873C648.64,364.251 646.281,357.577 646.185,357.407L645.921,353.846C646.015,353.398 647.027,348.595 644.527,348.29C644.042,348.231 640.928,348.173 644.578,354.395ZM642.509,337.509C641.245,336.44 641.457,335.553 639.918,336.403C641.191,337.38 641.015,337.467 642.509,337.509ZM644.5,452.503C642.238,454.966 645.771,454.281 645.793,453.488C645.796,453.358 645.793,453.488 644.5,452.503ZM610.648,313.793C610.936,314.245 612.057,314.186 611.474,317.514C611.657,317.726 613.706,320.102 613.767,320.144C620.914,324.968 613.42,317.546 613.261,317.388C613.963,313.281 613.136,313.392 611.305,311.872C610.218,311.861 602.172,309.008 608.177,314.696C608.381,314.645 608.301,314.587 610.648,313.793ZM626.696,318.557C625.689,318.29 626.537,317.461 625.449,317.172C625.304,317.133 625.449,317.172 623.593,317.447C623.717,319.948 624.662,320.2 626.696,318.557ZM620.497,317.498C619.741,316.065 619.434,314.977 618.622,316.519C618.426,316.893 619.434,316.992 617.439,321.664C618.474,323.588 618.368,323.584 618.47,323.739C619.568,325.418 619.834,325.091 620.312,327.14L621.692,327.257L621.484,325.511L622.36,324.442C620.88,323.319 620.733,323.561 620.494,321.707C620.209,319.507 620.139,319.639 620.497,317.498ZM638.698,347.381L637.988,348.56C639.154,352.439 640.119,351.403 640.311,351.197C640.536,350.955 640.945,350.515 638.698,347.381ZM638.698,347.381C641.268,346.036 641.196,346.219 641.743,345.591C640.096,345.453 640.302,345.793 638.611,345.683L638.698,347.381ZM653.381,359.339C653.476,357.544 654.359,356.804 652.392,356.749C650.515,356.695 651.378,357.495 651.677,359.352L650.5,359.219C648.891,361.853 648.843,361.63 648.411,364.5C649.294,364.476 648.564,365.524 649.434,365.5C649.66,365.494 649.434,365.5 651.282,363.365L652.667,360.19L653.381,359.339ZM609.533,308.564C609.501,306.644 609.422,305.974 607.567,306.643C605.471,307.4 607.486,307.773 609.533,308.564ZM632.665,331.339L633.365,331.908C635.882,329.416 633.667,329.443 633.47,329.446C632.242,329.461 632.833,329.897 632.665,331.339ZM654.718,367.363C652.83,367.569 652.878,367.688 652.27,369.377C651.694,370.977 651.016,371.292 652.671,372.087C656.144,373.754 652.191,376.469 657.82,389.442C655.39,394.966 656.907,395.086 658.246,408.522L659.387,419.559C660.508,421.747 661.341,421.162 662.574,418.935C665.369,414.636 661.618,395.554 661.226,393.56C657.416,379.714 659.345,379.32 654.718,367.363ZM647.574,470.504C647.619,471.473 647.662,471.389 648.612,476.259C650.606,473.884 649.583,473.67 649.524,470.491L651.301,469.172C652.232,464.825 648.627,469.437 648.487,469.617C648.189,469.346 648.229,469.367 646.522,467.492L648.313,465.555C646.908,464.155 646.68,464.715 645.433,466.34C643.818,469.318 642.557,469.046 643.623,472.318C645.934,472.168 645.223,470.499 647.574,470.504ZM634.435,337.324C633.032,338.51 632.955,338.683 633.775,340.25C634.784,338.883 635.015,338.962 634.435,337.324Z"/>
                </g>
                <g transform="matrix(2,0,0,2,0,0)">
                    <path d="M423.058,519.506C421.848,520.763 419.612,532.691 419.548,527.491C419.358,511.969 419.391,454.321 419.849,438.507C420.401,419.395 424.301,412.954 431.986,398.8C481.262,327.658 546.664,355.219 571.741,379.283C570.961,380.963 569.34,380.92 570.001,384.901C570.363,387.002 569.611,387.445 571.522,388.234C571.089,390.572 571.501,390.483 570.975,392.94C570.971,393.005 568.043,394.656 572.452,401.557L572.848,403.299C574.412,402.366 574.281,402.181 573.635,400.58C572.892,397.549 572.981,397.69 572.379,394.508L572.191,393.631C573.637,391.164 574.126,391.156 572.806,386.915L573.566,385.549L574.755,382.222C582.377,392.271 575.632,398.899 578.294,409.56C579.751,415.397 579.854,415.219 581.393,420.979C581.426,421.221 582.806,431.477 583.253,423.397C583.263,423.204 583.253,423.397 582.167,421.229L582.45,419.49C580.682,393.498 582.087,390.951 583.234,392.757C589.721,402.976 588.855,403.169 592.755,414.453C594.611,423.433 594.226,423.333 594.964,432.494C595.033,436.899 594.94,436.868 594.873,487.557C594.33,504.832 594.988,504.683 593.743,521.521C593.661,520.908 592.157,521.321 592.075,520.708C591.711,517.991 592.431,515.237 592.534,512.499C592.646,509.522 592.057,493.215 591.996,491.539C588.12,500.588 590.859,500.883 590.382,526.495C590.279,528.947 590.719,535.397 589.335,551.43C587.488,572.827 588.293,539.541 589.018,473.56L589.249,455.667L589.16,452.676C590.015,448.896 590.598,454.405 590.619,454.597C590.912,454.047 592.186,454.959 592.479,454.409C594.036,451.484 592.327,451.618 590.296,448.231C587.919,449.137 587.239,448.972 587.701,451.452L587.509,455.501C586.905,468.886 586.911,468.859 586.869,469.509C585.95,478.643 585.566,478.397 584.956,487.601C586.066,502.212 586.299,502.058 585.909,524.516C583.792,646.312 585.346,494.058 582.203,491.213L580.862,494.702C580.848,497.416 579.318,676.131 577.837,528.485C577.591,503.98 579.056,503.409 576.531,500.543C573.442,511.537 577.472,538.434 575.441,545.331C575.783,547.516 575.947,547.278 576.094,549.5C577.427,569.686 574.377,545.902 574.349,545.558C573.004,531.596 573.855,509.09 572.373,502.629L570.697,502.598C570.833,506.217 570.873,506.195 570.844,506.506C567.32,544.292 569.682,544.444 568.756,547.602C562.115,570.236 569.178,525.789 564.624,518.664C565.709,517.211 565.822,517.4 566.274,515.55C566.205,508.196 568.096,503.155 564.725,506.725C564.214,507.266 564.445,507.376 564.469,514.489L564.624,518.664C563.051,521.6 562.179,602.817 561.41,543.513C561.153,523.664 559.935,522.467 558.652,521.206C560.854,518.485 560.776,517.735 560.74,517.389C560.605,516.092 560.096,516.999 558.578,517.637C558.5,517.509 557.377,517.904 557.289,512.604C558.099,510.171 559.392,508.916 556.684,508.911L554.924,509.93C554.938,511.405 554.983,511.228 555.575,512.587C554.181,517.789 556.011,517.783 557.913,518.914L557.473,520.858L553.501,520.505C553.481,522.493 552.784,526.991 552.697,527.552C552.473,526.386 551.284,527.745 551.085,526.712C550.662,524.506 552.109,524.782 551.721,522.474C551.613,521.831 550.281,521.922 550.173,521.279C549.2,540.955 548.85,540.799 548.371,560.471C547.161,610.233 546.587,550.382 546.588,549.492C539.173,557.16 543.883,533.797 544.156,532.447C545.024,522.321 546.407,518.379 546.816,517.211C527.946,493.851 546.767,489.961 544.676,482.453C543.437,478.002 543.209,478.201 543.255,473.454C543.472,472.849 543.565,472.204 543.782,471.599C545.697,466.265 548.007,467.082 547.567,461.502C546.839,452.284 544.401,403.855 547.701,430.466C550.198,450.603 547.426,461.176 551.551,461.81C552.326,459.831 552.357,457.688 553.158,459.686C553.509,460.563 553.228,460.479 552.517,462.495C552.302,463.582 550.759,471.382 551.895,476.339C552.101,477.239 553.38,477.194 559.193,467.395C585.146,361.143 445.605,341.804 423.083,427.466C429.226,425.147 425.677,431.101 425.877,509.499C425.987,552.702 424.216,555.9 422.583,562.895L421.598,562.446L421.505,560.499C423.622,546.162 423.066,525.386 423.058,519.506ZM422.24,434.487C422.061,440.83 419.824,487.132 423.031,502.502C422.989,470.357 423.211,470.545 423.878,438.524C423.925,436.268 423.118,436.652 422.24,434.487ZM592.143,467.586L592.555,459.133C592.298,458.609 591.16,460.241 590.903,459.717L590.787,466.633L592.143,467.586ZM590.588,445.075L589.517,444.834C592.046,442.075 592.453,442.252 592.769,438.5C593.544,436.423 593.375,436.144 591.382,435.525C591.343,435.647 590.851,443.633 589.271,440.681C587.837,438.002 583.769,440.122 586.593,441.231C589.209,442.259 587.628,443.22 588.285,444.483C586.733,445.441 585.019,445.04 586.387,447.638C588.498,445.989 588.569,446.533 590.588,445.075ZM545.513,492.574C543.755,494.392 546.845,494.79 546.803,493.449C546.8,493.325 546.803,493.449 545.513,492.574ZM570.263,430.653C568.791,430.807 568.541,430.923 568.867,433.482C570.292,444.689 569.515,445.047 570.44,445.636C571.45,446.28 571.967,445.087 570.263,430.653ZM587.111,425.085L585.618,426.521L585.961,427.38C587.79,427.299 587.377,426.694 587.111,425.085ZM558.543,410.511C563.381,426.778 561.581,426.976 565.238,443.666C565.644,445.519 567.395,445.115 567.206,442.473C566.653,434.768 566.376,423.329 559.656,409.349L558.508,408.113C556.884,408.052 558.518,408.784 558.543,410.511ZM560.933,512.461C562.177,511.568 562.921,511.301 561.57,510.644C560.214,509.985 560.93,511.019 560.933,512.461ZM577.531,449.499C582.057,459.309 578.137,427.561 576.693,433.595C576.396,434.834 576.185,435.717 577.531,449.499ZM577.768,478.66C577.801,481.897 579.756,479.136 579.293,478.663C579.208,478.576 579.293,478.663 577.768,478.66ZM590.469,423.312C589.36,423.672 589.414,423.465 588.695,424.523C590.191,425.787 590.096,425.732 590.475,427.499C594.062,430.173 591.938,426.185 591.563,424.319L590.469,423.312ZM588.413,433.379C587.627,434.392 587.091,434.321 587.67,435.428C591.96,443.646 588.483,433.539 588.413,433.379ZM591.869,481.473C592.321,477.924 592.321,478.09 591.987,474.492C590.646,478.085 589.617,478.27 591.869,481.473Z"/>
                </g>
                <g transform="matrix(2,0,0,2,0,0)">
                    <path d="M597.118,353.287C597.73,348.406 598.469,348.754 598.825,348.048C600.512,350.143 600.415,350.015 601.394,352.529C601.161,353.788 599.46,362.994 600.49,368.507C600.436,371.212 600.012,370.93 598.903,373.44C606.582,373.291 602.324,379.181 601.898,380.817C601.881,381.991 601.788,388.498 601.456,395.496C598.329,396.416 599.494,394.36 598.107,388.672C597.279,385.837 597.363,385.816 597.213,385.61C592.582,379.26 597.603,395.241 598.334,398.513C598.445,399.116 598.445,399.076 600.109,406.784C600.411,409.974 600.568,410.162 600.757,410.387C603.944,414.188 601.598,438.815 602.793,440.267C604.767,442.668 601.609,475.593 605.626,449.52C605.589,433.444 606.033,431.551 606.085,429.513L606.167,426.546L606.189,425.486L609.292,424.498L609.393,425.596L607.619,426.71C608.443,427.692 608.358,427.49 609.56,427.53C610.576,426.895 613.903,426.051 609.747,420.492C608.085,416.121 607.747,412.878 604.692,416.488C604.501,408.761 604.034,408.93 605.292,401.478C605.228,399.631 605.277,399.771 605.228,399.631C603.024,393.258 604.199,393.183 603.524,386.5L603.471,385.491C605.985,384.382 605.492,384.004 606.36,381.375L607.602,379.374C610.596,377.385 609.104,376.758 609.095,373.315C608.562,370.5 608.616,370.688 608.531,370.481L607.758,370.709L607.228,373.598L605.581,372.553C606.12,362.522 603.755,352.112 609.753,360.234C613.262,365.113 613.341,365.03 613.638,365.458C613.054,366.341 608.935,371.851 612.301,372.321C613.612,370.012 613.465,370.027 615.71,368.359L616.922,371.278C621.184,378.442 617.896,383.037 620.61,380.707C625.74,376.303 623.892,382.41 626.692,388.425C633.639,407.226 633.322,411.515 633.471,434.5C633.602,454.604 634.341,517.082 631.511,520.592C629.921,513.793 634.611,400.934 627.475,397.147C627.092,396.943 626.618,397.743 626.235,397.54C628.91,411.034 628.661,410.867 629.226,424.496C629.75,459.658 629.306,512.79 629.242,520.467C628.556,530.582 630.671,531.904 626.099,534.395L625.63,532.512C625.781,456.735 625.727,453.393 625.616,446.514C624.008,445.003 623.532,444.581 622.402,446.43C617.088,461.441 625.782,571.07 620.34,554.607C618.861,550.133 617.238,469.806 616.799,529.517C616.788,530.986 616.432,579.428 613.11,547.5C612.719,543.772 612.914,543.887 612.986,535.435C614.797,515.925 614.647,516.133 614.44,496.51C614.379,490.745 612.544,496.353 612.511,496.503C611.757,520.579 612.228,520.48 610.157,546.337C610.116,546.572 608.833,553.985 608.102,548.5C608.075,548.302 608.102,548.5 608.893,546.132C609.024,537.091 608.531,537.276 610.139,510.515C610.158,510.208 609.791,506.738 609.756,506.41C607.723,506.643 608.406,507.262 608.24,509.314C604.347,557.274 608.846,560.303 604.755,560.336C604.324,529.303 607.773,517.499 605.651,509.366L604.714,509.712C604.575,510.403 604.362,511.46 603.948,518.493C601.256,549.674 600.085,576.802 599.552,555.488C599.37,548.211 600.383,548.306 599.56,464.497C600.757,404.366 597.21,395.293 582.378,373.594C577.292,367.603 577.36,367.811 571.926,362.051L569.896,360.164C568.619,357.801 568.56,358.044 566.249,356.972C553.925,348.251 553.876,348.712 540.321,341.946C525.028,336.873 525.2,336.956 509.544,334.085C486.842,332.688 483.541,332.183 457.629,339.876C428.015,352.505 409.08,363.542 390.734,401.614C374.024,449.257 389.51,455.884 381.992,465.472C380.894,439.554 380.891,428.682 383.837,415.569C387.724,402.886 387.626,403.038 392.884,390.674C407.055,365.405 407.594,362.484 433.863,339.979L436.322,338.255C447.699,330.661 447.635,330.966 459.579,324.67C506.656,305.237 541.16,311.045 575.753,330.067C587.622,337.834 587.351,337.909 597.958,347.184L595.868,348.731C595.608,351.754 593.965,353.328 597.118,353.287ZM608.282,469.422C608.071,467.877 608.161,467.963 608.071,467.877C603.554,463.547 607.294,470.029 607.391,470.196L608.282,469.422ZM605.41,472.532C604.511,471.84 604.262,471.453 603.655,472.562C603.578,472.703 602.361,475.207 605.44,473.497L605.41,472.532ZM607.701,363.557C607.715,363.991 608.015,373.113 610.085,368.432C611.251,365.794 609.59,363.78 609.335,363.471C608.988,363.05 608.048,363.978 607.701,363.557ZM608.169,403.751L608.148,404.705C606.924,405.348 607.157,405.443 606.463,406.515C606.749,407.357 605.039,409.187 608.37,409.447L608.266,407.592L608.583,405.53L611.529,405.504L611.459,404.498C609.808,403.741 609.996,403.728 608.169,403.751ZM610.976,382.886C610.849,383.329 610.515,384.497 611.261,388.643C610.253,391.946 609.554,391.858 610.573,395.038C610.633,395.226 612.941,398.03 612.492,393.502C612.436,392.945 612.503,389.836 612.509,389.518C617.673,390.022 614.873,387.362 614.631,387.336C614.113,387.283 613.205,387.189 611.561,381.597L610.976,382.886ZM609.524,429.482L609.386,428.479C608.897,429.033 608.987,428.93 609.524,429.482ZM595.36,356.594C595.315,358.423 595.903,362.147 594.848,365.529L595.514,366.513C593.716,372.071 595.051,374.111 595.407,374.656C594.145,377.325 592.899,377.892 595.424,379.471C596.124,382.754 597.149,380.585 597.17,380.427C597.19,380.275 597.17,380.427 596.4,378.674C597.187,376.535 597.162,376.568 596.421,374.452C596.928,370.345 597.942,370.34 596.333,366.695C596.544,366.095 597.103,366.331 597.492,357.532L595.36,356.594ZM606.903,388.499L606.649,389.575C607.058,389.017 607.314,389.184 606.903,388.499ZM568.257,353.842C567.155,354.285 567.339,354.369 567.027,355.5C568.027,354.854 568.661,355.081 568.257,353.842ZM618.576,467.843L616.87,468.622C618.157,475.094 618.571,467.993 618.576,467.843ZM604.486,487.46C608.039,483.632 603.728,482.029 603.547,483.509C603.284,485.661 604.009,485.451 604.486,487.46ZM609.181,442.211C610.02,439.151 610.091,439.219 610.095,438.412C610.002,433.049 610.911,432.944 609.568,430.413C606.974,432.233 608.368,441.577 608.512,442.54L609.181,442.211ZM616.854,424.455C618.051,425.7 617.799,425.724 619.5,426.459C621.987,426.799 622.245,426.81 623.126,424.443C622.792,419.798 623.513,415.889 620.404,401.528C614.571,374.58 619.293,407.029 619.372,407.508C616.776,408.5 616.854,408.292 616.776,408.5C616.755,408.557 617.967,408.934 617.927,410.572C617.613,423.627 616.531,423.389 616.854,424.455ZM608.477,410.497C606.907,411.364 606.906,411.22 606.907,411.364C606.909,411.507 608.191,413.871 608.477,410.497ZM611.776,459.77C611.728,462.37 613.779,460.32 613.173,459.731L611.776,459.77ZM604.718,461.422C601.768,461.5 601.748,461.265 601.768,461.5L603.626,463.292C604.785,462.742 604.574,462.734 604.718,461.422ZM611.548,413.499C610.011,413.558 609.161,413.055 609.751,414.447C610.432,416.056 610.777,414.893 611.548,413.499ZM616.498,430.473C617.894,430.239 618.599,431.002 618.462,429.499C618.213,426.768 617.041,428.202 614.728,429.542C614.539,429.906 612.133,434.559 617.193,434.035C617.12,432.121 615.596,432.39 616.498,430.473ZM618.441,473.749C617.352,471.062 616.89,471.431 616.716,471.569C615.193,472.784 618.228,473.685 618.441,473.749ZM611.789,403.532C612.008,402.814 611.948,402.861 612.465,398.519L611.481,397.666C610.639,400.706 610.688,400.679 611.789,403.532Z"/>
                </g>
                <g transform="matrix(2,0,0,2,0,0)">
                    <path d="M627.664,268.4L627.854,270.372C631.126,270.27 628.326,267.023 631.438,265.779C634.004,266.541 634.182,266.832 633.522,269.502C634.469,270.968 634.642,270.481 636.455,270.751L637.519,271.299C634.719,272.4 634.684,272.19 632.868,274.64L632.839,275.448L633.975,279.204C637.142,283.787 636.54,285.381 642.225,285.334L642.478,282.506C640.818,282.963 640.981,282.89 639.481,282.555C637.618,279.472 637.725,279.68 636.06,276.559C636.156,273.991 636.301,274.067 638.447,272.412C639.565,274.691 638.968,274.685 637.469,276.572L639.452,277.616C641.817,275.406 640.653,274.771 642.625,272.196L644.021,272.909C642.434,275.212 641.529,275.532 643.566,277.593C644.329,275.998 644.187,276.161 645.423,274.636C646.726,277.055 646.416,276.952 646.322,279.6C646.871,282.202 646.586,282.058 646.394,284.815C648.212,284.66 648.034,284.724 649.504,285.498L650.753,287.265L652.37,286.29L654.051,287.854L660.221,290.873C662.617,292.164 663.109,291.938 662.996,294.702L660.432,294.93C659.526,298.251 659.635,298.231 659.521,298.503C659.225,298.47 657.792,298.314 655.969,297.373C654.391,298.111 654.002,298.567 655.45,299.543L656.673,300.146L659.477,300.531L660.243,302.289C660.432,304.091 660.735,303.82 661.723,305.178C665.642,306.257 665.416,306.175 665.666,306.293L666.897,307.213L667.606,307.301L669.5,306.724C671.943,307.131 672.028,307.293 672.349,309.822C670.436,309.031 670.535,309.178 668.6,309.48C671.816,311.689 671.443,312.035 672.031,315.844C675.9,314.399 675.625,316.499 679.569,317.188C681.461,317.441 681.457,317.072 682.906,318.305C683.651,319.784 683.665,319.622 683.996,321.125L684.223,324.525L684.068,325.522C683.238,325.439 680.033,327.603 679.477,321.251L678.593,321.126L676.581,319.417C673.659,319.438 673.544,319.432 672.075,316.769L671.308,319.584C672.648,321.261 672.744,320.85 674.481,321.728C676.464,324.131 676.463,324.106 676.623,324.323C677.095,324.963 676.748,325.001 677.206,325.622C680.269,326.952 680.38,326.668 682.687,329.235C682.947,329.039 684.185,328.105 685.604,326.395L685.886,327.144C687.019,329.398 687.414,330.299 684.774,330.658C685.122,335.163 685.08,335.139 685.15,335.523C682.589,335.5 682.735,335.432 680.512,334.466C680.569,334.35 682.265,330.94 679.5,333.2C678.863,333.721 679.491,333.733 679.478,334.47C679.805,337.944 680.423,337.84 683.926,338.546L684.237,339.412C685.088,341.566 685.989,341.708 684.426,343.422C684.124,346.598 682.799,347.268 684.349,349.792C685.005,348.752 685.535,349.393 686.256,348.251C686.393,348.034 686.337,348.028 687.351,345.242C688.985,349.487 689.357,349.145 689.473,349.508L690.608,351.242C692.985,352.508 692.301,352.887 692.108,355.434C694.662,354.607 694.748,355.688 698.155,363.689C696.014,367.09 698.282,367.947 698.416,368.554C698.459,370.803 696.56,369.417 695.577,371.419L696.177,371.797C696.243,372.092 696.575,373.56 696.18,375.575C697.065,376.93 697.217,376.765 697.232,378.49L697.228,379.609C698.7,380.414 698.583,380.465 699.381,380.632L700.241,381.595C702.88,384.503 702.638,384.599 702.833,388.41C703.679,391.52 703.303,391.362 702.354,394.657L700.312,394.605C700.177,395.126 700.091,395.456 701.492,401.237C703.612,403.561 703.969,402.957 706.741,401.434C707.125,403.453 706.965,403.481 705.262,404.639C703.974,404.196 704.098,404.258 702.703,404.204L702.617,405.594C704.27,406.846 703.514,407.412 705.457,408.353L706.36,406.568L707.659,407.189C709.847,402.803 711.498,412.197 709.729,415.669L709.127,416.073L705.634,415.379L703.072,413.347L702.768,412.467L703.103,419.394C702.824,424.466 702.72,424.307 702.793,429.438L702.526,435.504L702.817,438.404L702.139,442.416L701.916,445.591C701.662,453.673 703.608,453.53 702.152,461.483C702.518,463.558 702.627,463.355 702.306,465.39C701.173,464.75 701.38,464.65 700.16,463.987C697.459,454.683 703.405,430.761 699.591,404.483C699.673,404.258 699.082,404.38 699.51,401.49C698.571,398.553 699.032,397.896 696.133,397.422C700.943,446.046 695.391,452.597 697.911,464.636C696.636,468.646 697.955,468.582 698.394,473.539L698.344,476.598L699.416,477.111L701.998,477.377L702.118,480.461L702.338,481.401C702.401,482.134 702.01,481.899 702.057,482.441C702.08,482.698 702.105,482.675 702.695,485.598L702.543,487.478L702.641,489.472C704.512,490.486 705.949,491.53 706.223,491.729C709.543,491.811 708.464,493.148 708.28,493.237C708.097,493.326 707.955,493.395 705.794,492.683L705.183,493.148L705.852,495.407C714.425,495.893 706.185,498.585 705.93,498.598C705.844,499.769 705.706,499.655 706.186,500.71C709.582,502.222 708.13,503.149 708.587,507.502C708.844,509.96 705.917,506.798 705.756,506.624L705.436,507.436C705.259,508.912 705.294,508.709 704.314,510.054L702.412,513.502L702.347,515.461L702.269,516.477L702.259,517.565L702.295,518.562C702.36,520.82 702.053,520.819 700.037,521.662C700.378,514.001 696.172,510.886 703.645,509.235C703.728,507.163 703.651,507.297 703.857,506.402L703.863,504.589C705.036,503.236 704.995,503.4 705.52,502.526L704.701,502.207L703.413,500.538L701.288,499.205C700.874,498.992 699.974,498.527 700.215,493.481C700.214,489.493 699.962,489.65 699.465,485.715C699.597,485.592 702.499,482.867 698.764,483.564L698.08,485.593C698.338,486.715 698.122,501.858 697.969,503.482L699.414,503.8C701.287,501.708 701.063,501.71 701.287,501.708C703.122,501.696 701.34,502.67 701.441,504.514C701.751,507.682 700.67,507.185 697.95,508.553C696.463,524.531 696.628,553.596 696.052,555.254C690.106,572.375 700.17,431.647 691.329,392.523C690.569,390.2 690.657,390.374 690.569,390.2C690.292,389.653 689.96,390.263 689.692,389.733C687.687,394.08 693.02,394.215 692.547,449.501C692.476,457.823 691.131,615.089 688.61,553.463C687.738,532.154 689.402,427.478 686.512,460.501C685.422,478.592 685.855,478.38 686.056,496.507C686.739,558.154 687.731,563.527 683.656,560.432C682.737,542.566 682.93,530.122 682.971,527.487C684.878,404.799 679.703,559.896 679.286,560.328C672.197,567.664 685.821,429.857 672.36,371.526C668.198,357.739 668.59,357.848 663.151,344.65C657.144,333.388 657.379,333.449 650.359,322.592L647.001,317.869L637.175,305.796C643.764,305.113 643.777,306.705 644.113,306.262C646.498,303.112 639.376,302.148 637.6,300.981C637.707,301.7 636.571,300.858 636.695,301.687C637.065,304.175 638.002,303.325 637.974,303.5C637.864,304.215 636.327,304.056 636.216,304.77C619.214,287.253 615.136,283.925 592.427,270.634C441.258,200.806 338.807,308.298 319.608,407.524C318.117,415.23 317.615,406.694 317.639,406.519C324.01,359.922 358.639,314.78 363.946,307.862C393.916,275.066 396.385,274.166 428.465,254.436C441.453,247.946 441.306,248.205 454.461,242.4C503.563,226.755 534.784,223.013 595.59,244.255L601.747,247.143L606.611,249.312C609.371,251.532 609.262,251.425 612.502,252.497L614.411,253.656C617.378,254.415 617.306,254.225 619.519,256.457C621.869,258.58 619.629,260.142 622.341,261.367C624.991,258.85 626.02,259.38 627.197,262.699L627.664,268.4C624.938,265.857 625.49,265.444 622.503,263.289L621.435,263.456C620.904,265.625 620.917,265.723 622.805,267.137C624.102,268.26 624.069,268.06 625.263,269.073L627.664,268.4ZM608.692,268.396L607.21,271.391C607.454,273.603 606.428,275.32 608.333,274.19L609.28,271.46L608.692,268.396ZM667.823,328.667L667.962,329.061C669.265,329.701 669.073,329.617 670.515,329.572L673.335,328.32C675.162,327.75 675.68,328.311 676.045,326.277L673.175,326.972L672.326,326.82C671.501,327.108 671.618,327.083 667.823,328.667ZM650.602,289.595C650.644,290.854 650.504,290.8 651.435,291.812L652.522,292.013C653.201,290.811 653.002,290.897 652.393,289.624L650.602,289.595ZM681.504,352.487L679.599,352.563C679.553,352.905 677.948,364.852 680.946,356.655C681.194,355.978 683,355.109 681.504,352.487ZM665.327,338.596L666.525,339.448L669.446,339.822C669.096,339.46 670.107,338.706 669.757,338.345C667.534,336.051 665.56,338.328 665.327,338.596ZM667.081,345.295C666.384,347.7 667.715,348.25 667.893,348.758C668.304,350.308 668.647,349.744 670.269,350.023L671.193,349.093C669.342,349.262 669.431,348.99 668.64,347.25L667.081,345.295ZM688.357,363.836C683.184,362.641 687.538,366.72 688.308,366.113C688.451,366 688.572,365.905 688.357,363.836ZM679.949,345.206C684.759,346.15 681.594,342.749 681.429,342.572L683.484,342.986C682.838,341.554 683.057,339.609 680.489,341.494C679.119,343.143 679.702,343.174 679.949,345.206ZM671.756,348.617C673.014,349.207 673.413,349.184 673.455,347.662L671.756,348.617ZM583.433,245.565C581.677,245.618 581.764,245.508 581.677,245.618C581.306,246.089 583.501,249.882 583.433,245.565ZM589.575,245.521L587.625,244.405C579.697,245.964 589.358,246.422 589.583,246.433L589.575,245.521ZM630.293,280.829C628.668,281.877 627.831,282.259 629.509,283.29L630.645,282.593L630.293,280.829ZM656.582,302.54L658.427,304.447C657.825,303.065 658.061,302.798 656.582,302.54ZM670.794,325.827C670.961,325.713 676.176,322.177 671.452,323.388C668.881,324.046 668.831,324.061 667.926,326.38C669.415,326.371 669.198,326.367 670.794,325.827ZM690.186,362.208L689.933,362.691L689.924,363.622L690.448,366.562C690.563,369.372 690.459,369.266 690.478,369.5L690.725,370.345C691.951,371.634 691.885,371.508 691.951,371.634C692.21,372.128 691.417,372.102 691.674,372.593C691.28,375.214 691.361,375.109 690.427,377.555C691.563,377.996 691.4,377.758 692.398,377.319C693.46,375.469 693.204,375.528 693.477,373.501L692.474,372.291C694.192,368.938 695.781,368.871 693.585,365.718L694.393,365.313C695.462,363.657 697.778,362.966 695.781,363.163C695.181,363.223 695.179,364.456 694.579,364.516L693.433,363.698C691.842,362.68 691.805,363.218 690.186,362.208ZM667.746,343.457L667.577,344.492L668.533,344.442C668.694,344.296 670.801,342.409 669.37,341.856C668.215,341.411 668.602,342 667.746,343.457ZM691.237,383.971C691.349,384.139 691.192,384.404 691.304,384.572C694.725,389.71 692.868,383.521 692.822,383.374L691.237,383.971ZM602.688,262.901L601.573,262.91L599.553,263.434L599.088,262.685L598.772,261.105L597.087,260.528L595.57,261.246C592.627,263.823 592.622,263.745 592.389,263.988L594.686,265.432C595.399,263.99 596.883,265.392 595.575,266.265L596.555,268.476C598.439,268.517 597.924,267.801 599.016,266.355C600.101,264.916 600.52,265.026 601.437,266.567C602.414,268.207 602.382,266.527 603.614,265.176C602.844,264.136 602.595,264.288 602.688,262.901ZM598.594,253.334L600.128,253.139C599.741,252.194 598.593,251.214 598.594,253.334ZM646.011,289.559C645.983,291.794 646.381,291.606 648.233,292.844C648.289,291.154 648.403,291.246 647.552,289.879C648.385,288.517 648.383,288.645 648.385,288.517C648.421,285.709 643.793,286.815 646.011,289.559ZM668.787,333.487C669.998,335.99 670.475,335.651 671.214,338.411C675.319,338.389 673.686,336.671 673.491,336.539C670.308,334.396 671.644,333.037 668.298,331.542C666.503,330.461 665.372,330.617 666.163,332.54C667.002,334.58 665.375,336.473 667.53,335.663C667.718,335.592 667.53,335.663 668.787,333.487ZM653.596,295.342L655.756,296.277C657.262,296.451 657.337,296.668 658.313,295.369C656.575,291.351 654.804,293.716 654.68,293.727L653.857,294.525L653.596,295.342ZM696.655,388.136C699.021,383.336 696.863,382.62 696.246,381.223C695.998,381.571 695.346,382.486 695.084,386.442L696.655,388.136ZM694.604,361.53L693.689,359.447C692.761,360.84 692.945,361.297 694.604,361.53ZM618.055,278.023C620.578,273.538 616.384,275.937 616.319,276.477C616.297,276.661 616.125,278.092 618.055,278.023ZM661.266,306.421L660.312,308.275C661.566,309.533 661.439,309.597 661.566,309.533C663.709,308.454 663.533,307.526 661.266,306.421ZM697.912,479.552L698.308,481.604L700.046,481.295L700.25,479.812L698.561,478.544L697.912,479.552ZM660.606,313.475C661.69,314.043 661.519,315.351 662.21,314.315C662.301,314.177 663.106,308.224 660.606,313.475ZM685.183,354.543C683.252,356.027 683.328,356.065 682.818,358.415L682.669,359.488L682.724,360.878C678.696,362.715 677.73,363.421 679.452,364.573C679.628,364.506 687.33,363.452 680.65,366.599C682.696,369.188 684.566,370.117 681.472,371.462C680.303,372.863 680.774,372.973 681.427,374.691L682.487,374.479L682.784,373.689C684.003,372.627 683.852,372.422 685.486,372.483C686.51,366.31 682.327,365.984 685.366,360.457L685.25,358.327C686.141,357.613 685.609,356.447 688.136,356.806L686.49,354.581C688.193,354.832 688.012,354.821 689.849,354.444C687.977,352.168 687.788,352.296 684.953,352.636L685.183,354.543ZM658.336,325.589C657.128,324.207 657.852,322.531 654.762,321.297C654.723,325.082 654.66,326.608 658.336,325.589ZM622.763,283.442C617.538,279.613 622.862,287.925 623.623,287.876C623.983,287.853 626.193,287.479 622.763,283.442ZM577.485,245.751C579.84,242.946 576.961,243.734 576.844,243.844C575.906,244.726 576.675,244.716 577.485,245.751ZM679.312,381.558C677.91,380.834 677.383,380.952 677.652,382.505C685.584,428.264 677.755,465.173 683.374,437.453C686.951,419.808 680.19,385.954 679.312,381.558ZM642.404,288.555L640.574,289.532C640.468,289.431 634.264,284.538 638.806,290.043C638.588,290.209 636.425,291.851 636.431,292.507C636.434,292.825 637.736,295.052 639.829,290.433L640.108,291.681L641.701,293.227C642.883,291.079 642.617,291.117 642.404,288.555ZM658.439,315.498L657.865,312.374L656.506,312.442C654.926,312.589 654.83,312.067 655.491,310.495C655.778,309.811 653.04,304.651 653.03,310.472C653.026,312.581 649.236,309.749 648.426,314.524C654.285,311.716 653.208,315.318 653.631,316.532L654.241,317.772C655.288,318.357 655.194,318.215 656.433,318.335C655.358,315.913 655.148,315.804 656.484,313.507C657.259,314.811 657.194,314.648 658.439,315.498ZM673.819,366.619C673.848,366.685 672.686,367.867 676.163,368.613L676.938,369.612C677.411,371.153 677.305,370.962 677.503,371.235C679.419,370.329 679.399,370.257 679.4,368.17L678.526,368.71C677.758,367.206 678.018,367.072 676.561,366.708L673.819,366.619ZM605.865,259.993C605.8,260.331 604.666,260.76 607.093,262.608L607.575,263.507L608.452,264.788L609.387,262.832C608.724,261.141 608.615,261.367 607.348,259.964L605.865,259.993ZM688.479,369.722L687.893,373.386C690.465,373.111 689.66,372.035 688.479,369.722ZM622.482,278.567C624.004,277.33 623.005,277.145 622.327,275.279C622.265,273.422 623.043,273.032 620.596,271.671C620.707,273.642 620.502,273.576 621.53,275.403L621.669,277.498L620.042,279.346L620.514,280.514C621.75,279.738 621.551,279.743 622.482,278.567ZM667.64,315.437C673.09,318.299 668.697,313.737 668.56,313.654L667.87,313.841L667.64,315.437ZM684.587,381.24C686.004,381.092 685.829,381.109 687.014,380.231L686.729,377.618C684.707,379.698 684.613,380.904 684.587,381.24ZM648.5,303.501C647.458,305.207 646.415,305.306 647.664,306.291C647.847,306.435 650.463,307.301 648.5,303.501ZM561.273,247.587C559.532,246.584 559.673,246.507 559.532,246.584C558.978,246.889 559.069,252.14 561.273,247.587ZM673.454,342.485L674.652,342.002L677.564,345.727C679.292,345.522 677.963,344.776 676.231,341.378L676.262,339.959L674.397,340.425C673.428,341.72 672.778,340.399 671.869,341.616C671.668,341.884 671.843,341.925 671.516,345.796C673.12,344.581 672.763,344.506 673.454,342.485ZM596.425,249.628C594.886,249.923 595.203,250.187 594.553,251.494C595.965,250.78 596.257,251.11 596.425,249.628ZM684.29,387.604C681.745,389.677 686.435,400.108 686.524,430.5C686.67,480.113 692.426,413.594 684.29,387.604ZM648.507,299.311L649.288,299.86C649.934,299.753 650.171,301.202 650.818,301.096C653.496,300.655 651.504,299.576 650.445,297.043L648.507,299.311ZM615.286,257.596L615.672,258.342C617.201,259.238 617.094,258.601 618.569,257.67C616.822,256.567 616.624,256.017 615.286,257.596ZM674.725,331.352C678.135,331.535 679.714,332.883 679.621,329.508C679.584,328.148 678.151,327.992 677.754,328.645C676.609,330.526 675.434,329.222 674.725,331.352ZM613.282,261.485C612.119,260.947 612.16,260.739 611.098,261.486C611.585,265.693 611.634,265.614 613.734,269.222C613.934,269.342 625.431,275.788 616.544,268.471C613.415,265.895 614.006,265.54 613.282,261.485ZM658.293,317.882L660.704,321.278C661.888,321.248 661.737,321.257 662.594,320.491L661.606,319.375C660.397,317.615 660.194,318.288 658.293,317.882ZM658.118,306.628C657.981,306.589 651.817,305.868 657.265,308.192L658.185,307.457L658.118,306.628ZM678.424,375.402C678.3,373.28 675.396,374.105 676.721,375.257C677.641,376.056 678.36,375.396 678.424,375.402ZM673.249,361.337C672.796,362.779 672.558,362.67 673.16,364.225C674.68,362.31 679.527,359.05 676.263,351.708L673.573,351.607L671.491,350.244C671.167,354.017 669.885,353.717 670.548,357.447C671.87,359.035 671.629,358.961 672.487,359.501C672.683,357.33 672.676,357.445 672.031,355.359C672.391,353.419 672.62,353.48 674.536,353.458C674.474,357.542 675.011,357.565 673.249,361.337ZM687.43,383.363C686.486,384.782 686.866,384.99 688.475,385.648C688.482,384.261 688.589,384.271 687.43,383.363ZM676.656,336.836C676.52,334.684 676.882,334.456 676.004,333.977C675.798,333.865 673.094,334.349 676.656,336.836ZM703.085,398.574C702.767,396.997 702.535,397.044 703.322,395.596C706.496,396.524 707.469,396.528 706.596,399.582L706.014,400.82C704.482,400.425 704.583,400.661 703.209,399.544L703.085,398.574Z"/>
                </g>
            </g>
            <g transform="matrix(1,0,0,1,-26.55824,-75.028271)">
                <text x="453.334px" y="1607px" style="font-family:'Reem-Kufi-Regular', 'Reem Kufi';font-size:142.466px;">UNDER<tspan x="969.277px 1076.554px 1166.951px " y="1607px 1607px 1607px ">GRO</tspan>UND</text>
            </g>
        </g>
    </g>
</svg>
