<?xml version="1.0" encoding="UTF-8"?><svg id="Layer_2" xmlns="http://www.w3.org/2000/svg" viewBox="0 0 211.06 268.11"><defs><style>.cls-1{fill:#fff;stroke-width:0px;}</style></defs><g id="Layer_1-2"><path class="cls-1" d="M19.04,195.17h-9.56c-2.61,0-4.85-.96-6.7-2.88-1.85-1.92-2.78-4.2-2.78-6.83v-9.72c0-2.78.9-5.27,2.71-7.47,1.81-2.2,4.08-3.3,6.8-3.3h20.37v15.1h-10.86v-4.33h-8.18v8.65h9.56c2.66,0,4.91.96,6.74,2.87,1.83,1.92,2.74,4.21,2.74,6.88v9.83c0,2.94-1.07,5.47-3.21,7.59-2.14,2.12-4.69,3.19-7.65,3.19H0v-14.47h10.86v3.7h6.02c1.44,0,2.16-.73,2.16-2.2v-6.61Z"/><path class="cls-1" d="M55.38,165.12c2.99,0,5.55,1.05,7.67,3.15,2.12,2.1,3.19,4.64,3.19,7.63v12.59c0,2.97-1.06,5.51-3.19,7.61-2.12,2.11-4.68,3.16-7.67,3.16h-8.26v15.34h-10.86v-38.7h-4.17v-10.78h23.28ZM55.38,186.28v-8.18c0-1.47-.71-2.2-2.12-2.2h-6.14v12.59l6.14-.08c1.42,0,2.12-.71,2.12-2.12Z"/><path class="cls-1" d="M91.41,165.19h10.86v38.86c0,2.99-1.06,5.53-3.19,7.63-2.12,2.1-4.68,3.15-7.67,3.15h-8.26c-2.96,0-5.51-1.06-7.65-3.19-2.14-2.12-3.21-4.65-3.21-7.59v-28.08h-3.93v-10.78h14.79l-.08,36.66c0,1.47.73,2.2,2.2,2.2h4.01c1.42,0,2.12-.73,2.12-2.2v-36.66Z"/><path class="cls-1" d="M127.67,164.96c3.01,0,5.57,1.05,7.69,3.15,2.11,2.1,3.17,4.64,3.17,7.63v38.86h-10.86l.08-36.82c0-1.41-.7-2.12-2.1-2.12l-6.16.08v38.86h-10.86v-38.86h-3.93v-10.78h22.97Z"/><path class="cls-1" d="M166.85,184.55c2.36.62,4.26,1.89,5.7,3.79s2.16,4.07,2.16,6.52v19.75h-10.86v-17.54c0-1.42-.69-2.12-2.08-2.12l-6.1-.08v19.75h-10.86v-19.75h-3.85v-10.78h3.85v-19.12h10.86v18.37l7.67-18.37h11.68l-8.18,19.59Z"/><path class="cls-1" d="M200.2,164.8h10.86v39.18c0,2.97-1.06,5.51-3.19,7.61-2.12,2.11-4.68,3.16-7.67,3.16h-19.12v-10.78l16.99-.08c1.42,0,2.12-.71,2.12-2.12v-3.54h-8.26c-3.01,0-5.57-1.05-7.69-3.15-2.11-2.1-3.17-4.64-3.17-7.63v-11.88h-3.93v-10.78h14.79l-.08,20.45c0,1.47.73,2.2,2.2,2.2h6.14v-22.66Z"/><path class="cls-1" d="M29.01,223.02h9.5c2.71,0,5.04.95,6.97,2.86,1.93,1.91,2.89,4.22,2.89,6.93v35.15h-9.86v-33.15c0-1.33-.64-2-1.93-2h-5.79v35.15h-9.86v-35.15h-5.73c-1.18,0-1.77.67-1.77,2v33.15H3.57v-35.15H0v-9.79h22.08c1.38,0,2.36.55,2.93,1.64.19.62.38,1.21.57,1.79,0-.95.33-1.76,1-2.43s1.48-1,2.43-1Z"/><path class="cls-1" d="M60.37,222.88h9.43c2.72,0,5.04.95,6.97,2.86,1.93,1.91,2.89,4.22,2.89,6.93v25.65c0,2.7-.96,5-2.89,6.92-1.93,1.92-4.25,2.87-6.97,2.87h-9.43c-2.74,0-5.06-.96-6.98-2.87-1.92-1.91-2.88-4.22-2.88-6.92v-25.65c0-2.71.96-5.02,2.88-6.93,1.92-1.91,4.25-2.86,6.98-2.86ZM67.88,232.74h-5.64c-1.29,0-1.93.64-1.93,1.93v21.65c0,1.29.64,1.93,1.93,1.93h5.64c1.29,0,1.93-.64,1.93-1.93v-21.65c0-1.29-.64-1.93-1.93-1.93Z"/><path class="cls-1" d="M102.6,222.88c2.74,0,5.06.95,6.98,2.86,1.92,1.91,2.88,4.22,2.88,6.93v35.3h-9.86l.07-33.44c0-1.28-.64-1.93-1.91-1.93l-5.59.07v35.3h-9.86v-35.3h-3.57v-9.79h20.86Z"/><path class="cls-1" d="M138.18,240.67c2.14.57,3.87,1.71,5.18,3.44,1.31,1.73,1.96,3.7,1.96,5.92v17.93h-9.86v-15.93c0-1.29-.63-1.93-1.89-1.93l-5.54-.07v17.93h-9.86v-17.93h-3.5v-9.79h3.5v-17.36h9.86v16.69l6.97-16.69h10.61l-7.43,17.79Z"/><path class="cls-1" d="M178.12,233.1h-17.15v6.79h12.22v9.79h-12.22v8.29h17.15v9.79h-27.01v-18.08h-3.64v-9.79h3.64v-16.58h27.01v9.79Z"/><path class="cls-1" d="M201.2,222.74h9.86v35.58c0,2.7-.96,5-2.89,6.92-1.93,1.92-4.25,2.87-6.97,2.87h-17.36v-9.79l15.43-.07c1.29,0,1.93-.64,1.93-1.93v-3.22h-7.5c-2.74,0-5.06-.95-6.98-2.86-1.92-1.9-2.88-4.22-2.88-6.93v-10.79h-3.57v-9.79h13.43l-.07,18.58c0,1.33.67,2,2,2h5.57v-20.58Z"/><path class="cls-1" d="M105.53,0C62.34,0,27.33,35.01,27.33,78.2s35.01,78.2,78.2,78.2,78.2-35.01,78.2-78.2S148.72,0,105.53,0ZM105.53,7.38c30.94,0,57.23,19.85,66.87,47.5-2.24.22-5.37.69-9.68,1.63-2.71.59-4.69,1.11-6.14,1.56-7.12-17.96-23.43-31.27-43.13-34.12-3.83-2.84-8.08-5.19-12.69-6.91,1.61,1.93,3.06,3.97,4.37,6.11-3.11-1.42-6.38-2.56-9.8-3.34,1.35,1.24,2.61,2.56,3.82,3.94-20.39,2.36-37.37,15.89-44.68,34.31-1.45-.45-3.43-.97-6.14-1.56-4.3-.94-7.43-1.41-9.68-1.63C48.3,27.23,74.59,7.38,105.53,7.38ZM105.53,149.03c-35.87,0-65.49-26.67-70.16-61.26,1.3,1.28,2.89,2.71,4.83,4.32,6.29,5.21,11.51,6.79,14.59,7.23,5.25,12.67,15.12,22.94,27.49,28.74-2.73-4.28-4.32-9.36-4.32-14.81,0-1.85.19-3.66.53-5.41-12.02-2.97-20.94-13.82-20.94-26.76,0-15.23,12.34-27.57,27.57-27.57,8.09,0,15.36,3.48,20.41,9.03,5.04-5.55,12.32-9.03,20.41-9.03,15.23,0,27.57,12.34,27.57,27.57,0,12.94-8.92,23.79-20.94,26.76.35,1.75.53,3.56.53,5.41,0,5.45-1.59,10.53-4.32,14.81,12.38-5.8,22.24-16.07,27.49-28.74,3.08-.44,8.3-2.02,14.59-7.23,1.94-1.61,3.52-3.04,4.83-4.32-4.67,34.59-34.29,61.26-70.16,61.26Z"/><path class="cls-1" d="M68.61,76.11c0,8.56,6.94,15.49,15.49,15.49s15.49-6.94,15.49-15.49h-30.99Z"/><path class="cls-1" d="M143.18,76.11h-30.99c0,8.56,6.94,15.49,15.49,15.49s15.49-6.94,15.49-15.49Z"/><path class="cls-1" d="M112.92,100.31h-1.02s-.03,0-.05,0h-12.65s-.03,0-.05,0h-1.02c-2,0-3.87,1.22-4.23,3.01-.47,2.33,1.51,4.38,3.98,4.38h1.26c1.28,0,2.32.95,2.32,2.12v.11c0,1.82,1.33,3.53,3.3,3.86,2.56.43,4.8-1.38,4.8-3.63v-.33c0-1.17,1.04-2.12,2.32-2.12h1.26c2.48,0,4.45-2.05,3.98-4.38-.36-1.8-2.23-3.01-4.23-3.01Z"/></g></svg>