<?xml version="1.0" encoding="UTF-8"?><svg id="Layer_2" xmlns="http://www.w3.org/2000/svg" viewBox="0 0 522.97 100.92"><defs><style>.cls-1{fill:#fff;}</style></defs><g id="Layer_1-2"><path class="cls-1" d="M375.42,52.32h-8.4v-20.28c0-8.13-12.23-6.85-12.23,1.92v18.36h-8.4v-18.84c0-10.3-12.47-8.5-12.47,1.44v17.4h-8.4V20.04l.36-.36h8.04v3.6c5.35-5.79,15.51-6.3,19.55,1.19,5.86-9.01,21.95-6.95,21.95,5.17v22.68Z"/><path class="cls-1" d="M315.2,52.32h-8.16v-18.84c0-2.17-1.01-5.74-3.23-6.61-4.99-1.97-9.25,3.12-9.25,7.81v17.64h-8.16V19.68h8.16l.12,3.12c4.52-3.8,10.48-5.42,15.79-2.12,2.04,1.27,4.72,4.83,4.72,7.28v24.36Z"/><polygon class="cls-1" points="432.15 19.68 440.55 39.6 450.14 19.68 458.42 19.68 438.27 64.08 429.63 64.08 436.11 49.58 423.87 19.68 432.15 19.68"/><path class="cls-1" d="M173.67,42c2.57,1.9,5.57,4.84,9.13,3.25,5.87-2.63-5.93-7.42-7.43-8.44-15.49-10.58,5.59-26.08,15.69-13.05l.08.78-5.07,4.71c-1.3-3.37-11.27-3.39-7.45.47,1.44,1.46,6.79,3.4,9.04,5.12,7.76,5.92,4.75,16.44-4.58,18.14-5.48,1-10.78-1.01-14.19-5.37l4.78-5.6Z"/><polygon class="cls-1" points="210.36 19.68 215.16 19.68 215.16 26.88 210.36 26.88 210.36 51.96 210.01 52.32 201.97 52.32 201.97 26.88 197.89 26.88 197.89 19.68 201.97 19.68 201.97 8.04 202.33 7.68 210.01 7.68 210.36 8.04 210.36 19.68"/><path class="cls-1" d="M512.64,23.28c1.91-3.8,6.51-5.67,10.34-3.45l-2.42,7.05c-3.51-2.26-6.71,1.62-6.71,4.92v20.52h-8.4V19.68h7.2v3.6Z"/><path class="cls-1" d="M269.14,23.04c2.34-3.59,6.28-5.36,10.32-3.22l-2.41,7.06c-6.72-2.99-6.77,5.6-6.96,9.95-.23,5.14.19,10.34,0,15.49h-8.16V19.68h7.2v3.36Z"/><path class="cls-1" d="M314.95,73.92l2.63,3.2c-6.03,7.35-19.57,5.47-21.69-4.4-2.99-13.92,13.03-20.48,21.95-10.68l-2.88,2.9c-2.04-.87-2.91-2.38-5.26-2.91-11.86-2.65-13.52,16.23-.84,15.02,2.83-.27,3.82-1.87,6.1-3.12Z"/><path class="cls-1" d="M326.77,62.22c-.34.58-.42,1.22-.17,1.86.41,1.07,5.72,4.69,6.95,6.24,7.46,9.43-8.71,16.51-12.83,6.12l3.95-2.28c.44,2.84,6,4.33,6.14,1.08.13-2.95-8.09-6.38-8.83-10.85-1.27-7.65,9.57-9.33,12.86-3.26l-3.2,2.9c-1.41-1.38-2.74-3.05-4.86-1.8Z"/><path class="cls-1" d="M262.19,64.07c-.36-2.21-5.26-3.34-5-.65.14,1.42,4.99,4.58,6.19,5.82,9.59,9.84-7.24,18.18-11.74,7.1l3.71-2.14c.68.07,1.07,3.25,4.54,2.81,1.15-.15,1.96-1.02,1.82-2.24-.31-2.58-8.21-6.08-8.85-10.37-1.17-7.84,9.31-9.21,12.92-3.32l-3.58,2.98Z"/><polygon class="cls-1" points="282.09 57.84 282.09 62.4 278.02 62.4 278.02 80.88 273.46 80.88 273.46 62.4 269.38 62.4 269.38 57.84 282.09 57.84"/><polygon class="cls-1" points="217.08 57.84 217.08 76.56 223.56 76.56 223.56 80.88 212.52 80.88 212.52 57.84 217.08 57.84"/><polygon class="cls-1" points="232.44 57.84 232.44 76.56 238.91 76.56 238.91 80.88 227.88 80.88 227.88 57.84 232.44 57.84"/><rect class="cls-1" x="242.99" y="57.84" width="4.56" height="23.04"/><rect class="cls-1" x="285.93" y="57.84" width="4.56" height="23.04"/><rect class="cls-1" x="12.69" y="47.04" width="2.64" height="8.16"/><rect class="cls-1" x="27.08" y="47.04" width="2.64" height="8.16"/><rect class="cls-1" x="23.48" y="47.04" width="2.64" height="8.16"/><rect class="cls-1" x="19.89" y="47.04" width="2.64" height="8.16"/><rect class="cls-1" x="16.29" y="47.04" width="2.64" height="8.16"/><polygon class="cls-1" points="33.32 47.04 33.32 54.84 32.72 55.2 30.68 55.2 30.68 47.04 33.32 47.04"/><rect class="cls-1" x="34.28" y="47.04" width="2.4" height="8.16"/><path class="cls-1" d="M137.66,17.53c-.91-.55-5.12,5.75-6.1,6.46l-10.43-13.43-3.13,7.68L96.65,0l21.23,33.35,3.6-8.63,11.27,15.36,3.25-9.6.56.04,19.71,18.92c-5.41-2.55-11.39-3.8-17.31-4.52-12.9-1.57-27.67-.79-40.76-.52-17.9.37-35.81,1.42-53.71,1.94-.68-3.28-.46-6.71-1.36-9.96-.31-1.13-.7-3.36-2.21-3.02-.73.22-1.64,4.61-1.78,5.47-.27,1.57-.31,7.14-.58,7.82-.21.54-.82.08-.95.73-.11.58-.11,6.7.01,7.22.19.8.87.43.98.75-.12,1.91.71,11.78,2.55,12.3,1.16.32,1.54-1.53,1.82-2.42,1.04-3.4.78-7.07,1.51-10.52,18.46.48,36.92,1.57,55.39,1.94,14.16.29,30.16,1.19,44.04-1.32,4.25-.77,8.43-1.92,12.35-3.72l-19.71,18.92-.56.04-3.12-9.84-11.39,15.6-3.29-8.23-.66-.41-20.87,33.24,20.99-18.12,3.48,7.68,10.43-13.43c.43-.01,4.33,5.49,5.14,6.13.31.25.53.45.96.33l20.12-33.17-20.12-32.81ZM44.35,52.08v-3.36l76.77,1.8-76.77,1.56Z"/><path class="cls-1" d="M254.75,33.96c0-15.8-25.92-21.51-32.74-5.16-8.36,20.04,17.57,33.42,30.29,17.58l.03-.77-6.59-2.89c-5.61,5.04-15.72,4.07-17.15-4.33h26.15v-4.44ZM229.08,31.92c2.42-8.02,14.9-8,17.27,0h-17.27Z"/><path class="cls-1" d="M498.24,33.96c0-7.6-7.97-14.45-15.23-15.01-26.57-2.05-24.67,39.77,3.23,33.73,3.63-.79,8.49-3.42,9.57-7.06l-6.58-2.9c-5.52,5.08-15.77,4.04-17.15-4.33h26.15v-4.44ZM472.57,31.92c2.34-8,15.06-8.04,17.27,0h-17.27Z"/><path class="cls-1" d="M418.36,33.72c0-4.86-4.91-11.1-9.19-13.12-14.9-7.04-29.62,7.18-23.62,22.43,4.88,12.41,23.45,13.77,30.64,2.93l-6.84-3.22c-5.28,5.04-15.99,4.01-16.9-4.33h25.91v-4.68ZM392.69,31.92c2.34-7.98,15.13-8.06,17.27,0h-17.27Z"/><path class="cls-1" d="M178.46,68.28c3.63-2.88,2.65-8.3-1.8-9.73-2.62-.84-6-.61-8.77-.71v23.04h9c1.14,0,3.39-1.71,4.08-2.63,2.61-3.51,1.35-8.15-2.52-9.97ZM172.46,62.4c5.16-.81,4.97,4.99,0,4.56v-4.56ZM175.94,76.56h-3.48v-5.52c2.12-.19,5.29.05,5.46,2.82.06,1.05-.96,2.7-1.98,2.7Z"/><path class="cls-1" d="M199.31,58.22l-4.54-.26-8.88,22.92h4.8l1.56-4.32,9.08-.21,1.83,4.53h4.8l-8.66-22.66ZM194.05,71.76l3.12-7.2,2.64,7.2h-5.76Z"/><path class="cls-1" d="M11.5,46.9c-1.38-2.82-6.83-2.62-9.13-.71-7.14,5.91,3.66,15.72,8.79,9.4.76-.94.86-7.62.34-8.68ZM7.66,53.65c-4.35,1.33-5.13-4.77-1.75-5.36,3.69-.65,4.61,4.49,1.75,5.36Z"/></g></svg>