<?xml version="1.0" encoding="UTF-8" standalone="no"?>
<!DOCTYPE svg PUBLIC "-//W3C//DTD SVG 1.1//EN" "http://www.w3.org/Graphics/SVG/1.1/DTD/svg11.dtd">
<svg width="100%" height="100%" viewBox="0 0 410 540" version="1.1" xmlns="http://www.w3.org/2000/svg" xmlns:xlink="http://www.w3.org/1999/xlink" xml:space="preserve" xmlns:serif="http://www.serif.com/" style="fill-rule:evenodd;clip-rule:evenodd;stroke-linejoin:round;stroke-miterlimit:2;">
    <g transform="matrix(1,0,0,1,-429,0)">
        <g id="bk_sudo" transform="matrix(1.051435,0,0,1,396.439486,-16.309021)">
            <rect x="31.462" y="16.309" width="388.84" height="539.759" style="fill:none;"/>
            <clipPath id="_clip1">
                <rect x="31.462" y="16.309" width="388.84" height="539.759"/>
            </clipPath>
            <g clip-path="url(#_clip1)">
                <g transform="matrix(0.951081,0,0,1,20.999772,0.309021)">
                    <path d="M98.524,118.758C136.481,114 177.448,134.393 195.26,152.74C203.441,161.167 214.95,173.641 207.57,172.144C156.982,161.881 134.191,200.576 119.57,205.671C110.913,208.687 81.706,218.985 42.321,198.843C40.252,197.785 36.528,197.838 40.362,193.384C60.248,170.283 31.87,163.146 31.465,158.504C31.118,154.534 59.933,123.595 98.524,118.758ZM44.425,157.347C46.244,158.757 48.173,160.369 49.617,161.869C53.606,166.012 56.487,171.186 56.741,177.525C56.917,181.911 55.826,187.148 52.097,193.179C84.947,207.826 109.072,199.445 116.499,196.857C118.623,196.117 120.867,194.223 123.58,192.01C127.371,188.918 131.656,185.135 136.588,181.326C149.578,171.293 166.697,161.208 190.32,161.061C189.723,160.439 189.135,159.83 188.564,159.242C172.198,142.385 134.558,123.647 99.685,128.019C75.802,131.012 53.447,149.156 44.425,157.347Z"/>
                </g>
                <g transform="matrix(0.951081,0,0,1,20.999772,0.309021)">
                    <path d="M375.446,132.045C381.173,131.264 384.742,127.776 383.99,133.562C383.548,136.971 383.641,142.785 383.892,144.434C387.252,166.51 413.051,151.329 411.393,162.487C409.284,176.683 402.028,239.803 317.542,255.715C292.154,260.497 246.883,249.508 256.47,245.436C295.246,228.967 300.356,199.496 306.828,178.6C314.838,152.74 349.96,134.857 375.446,132.045Z"/>
                </g>
                <g transform="matrix(0.951081,0,0,1,20.999772,0.309021)">
                    <path d="M164.037,256.503C165.179,291.061 181.844,293.895 171.127,329.389C163.157,355.782 142.176,373.348 140.174,375.137C139.805,375.467 135.5,379.315 134.815,378.216C134.082,377.041 131.035,368.361 123.338,363.783C111.159,356.539 100.503,375.581 95.971,369.139C91.244,362.42 56.665,295.076 125.429,234.416C142.503,219.353 183.593,203.646 177.009,213.165C164.258,231.601 164.294,250.027 164.037,256.503Z"/>
                </g>
                <g transform="matrix(0.951081,0,0,1,20.999772,0.309021)">
                    <path d="M279.459,293.052C285.53,292.663 285.464,292.599 291.498,292.623C300.706,292.659 337.222,306.833 355.714,347.415C356.891,349.998 355.262,349.585 352.447,350.322C323.102,358.006 340.49,377.493 339.577,382.515C338.665,387.528 314.125,388.745 308.499,388.723C248.405,388.485 200.803,329.649 202.13,270.473C202.28,263.803 205.441,269.723 213.072,275.99C238.637,296.987 264.3,294.278 279.459,293.052Z"/>
                </g>
                <g transform="matrix(0.951081,0,0,1,20.999772,0.309021)">
                    <path d="M211.489,36.953C231.402,36.2 223.474,11.159 234.623,17.268C244.459,22.658 299.615,49.384 290.316,129.482C286.399,163.22 262.152,193.315 259.515,193.042C256.588,192.739 261.146,171.85 242.961,147.148C225.779,123.809 209.497,127.776 197.382,98.547C183.307,64.591 195.154,32.273 195.308,32.201C197.901,30.986 198.488,35.581 211.489,36.953Z"/>
                </g>
                <g transform="matrix(0.951081,0,0,1,20.999772,0.309021)">
                    <path d="M270.5,555.942C266.971,555.836 250.648,558.381 243.248,533.563C236.271,510.162 241.81,459.829 283.382,469.944C289.146,471.346 292.361,475.592 292.325,471.49C292.02,436.821 293.103,435.233 290.585,434.299C289.572,433.923 282.846,432.619 284.468,430.478C285.854,428.649 287.593,431.636 309.582,416.625C313.673,413.832 311.912,418.991 311.913,478.5C311.914,543.696 311.343,544.581 315.506,548.494C317.106,549.998 324.032,552.496 320.647,553.757C318.761,554.46 318.775,554.017 295.497,553.921C288.859,553.894 294.625,539.644 290.765,543.821C288.495,546.277 285.749,555.368 270.5,555.942ZM262.038,515.511C262.656,526.76 263.555,546.864 279.47,545.253C290.939,544.092 293.012,533.583 292.167,499.501C292.107,497.092 291.438,470.12 275.481,474.424C261.268,478.257 261.985,505.869 262.038,515.511Z"/>
                </g>
                <g transform="matrix(0.951081,0,0,1,20.999772,0.309021)">
                    <path d="M360.504,555.942C309.567,556.811 315.058,467.118 361.479,468.868C404.626,470.494 405.112,553.242 360.504,555.942ZM372.964,510.492C372.907,507.544 372.375,480.317 363.229,474.94C342.031,462.476 339.696,543.964 356.427,550.673C373.316,557.446 372.99,513.968 372.964,510.492Z"/>
                </g>
                <g transform="matrix(0.951081,0,0,1,20.999772,0.309021)">
                    <path d="M143.912,482.5C143.918,486.108 144.733,498.55 141.753,495.264C140.819,494.234 139.298,481.117 124.399,473.721C109.968,466.559 100.641,486.888 118.656,496.216C124.272,499.125 152.827,505.529 146.053,537.405C143.754,548.226 130.414,564.461 99.306,550.919C85.367,544.852 53.273,527.967 18.4,545.291C13.891,547.531 13.747,548.408 12.668,547.337C9.485,544.176 31.172,488.57 83.877,530.044C86.876,532.404 115.743,558.927 126.476,546.479C127.991,544.722 133.018,530.924 114.272,521.978C108.323,519.139 97.453,515.295 94.903,497.439C90.118,463.927 128.212,461.192 142.216,474.809C144.664,477.19 143.893,481.676 143.912,482.5Z"/>
                </g>
                <g transform="matrix(0.951081,0,0,1,20.999772,0.309021)">
                    <path d="M189.504,555.94C154.335,556.401 165.775,522.425 163.728,484.484C163.088,472.637 148.591,473.167 155.348,471.155C155.496,471.111 181.225,470.403 182.487,471.517C186.933,475.441 178.04,535.285 188.595,545.401C192.02,548.684 205.264,552.508 207.114,532.456C208.207,520.602 207.573,491.096 207.495,487.5C207.169,472.307 198.049,476.606 198.022,472.498C198.009,470.595 201.368,470.947 221.5,470.963C228.318,470.969 227.084,473.696 227.087,480.5C227.117,543.507 226.404,544.397 230.577,548.419C231.879,549.675 241.09,553.855 234.53,553.942C209.163,554.275 208.263,554.505 207.709,552.428C207.211,550.56 208.866,544.477 205.169,549.044C200.135,555.263 190.871,555.853 189.504,555.94Z"/>
                </g>
                <g transform="matrix(0.53641,0,0,0.492857,396.065429,256.808978)">
                    <path d="M38.933,452.548C38.933,455.797 38.223,458.825 36.803,461.63C35.383,464.436 33.448,466.647 30.996,468.264C28.544,469.881 25.898,470.69 23.059,470.69C20.233,470.69 17.594,469.881 15.142,468.264C12.69,466.647 10.755,464.436 9.335,461.63C7.915,458.825 7.205,455.797 7.205,452.548C7.205,449.314 7.915,446.29 9.335,443.477C10.755,440.663 12.69,438.448 15.142,436.831C17.594,435.214 20.233,434.406 23.059,434.406C25.898,434.406 28.544,435.214 30.996,436.831C33.448,438.448 35.383,440.663 36.803,443.477C38.223,446.29 38.933,449.314 38.933,452.548ZM35.858,452.548C35.858,448.505 34.608,445.054 32.107,442.193C29.607,439.331 26.591,437.901 23.059,437.901C19.526,437.901 16.51,439.331 14.01,442.193C11.51,445.054 10.259,448.505 10.259,452.548C10.259,456.59 11.51,460.041 14.01,462.903C16.51,465.764 19.526,467.194 23.059,467.194C26.591,467.194 29.607,465.764 32.107,462.903C34.608,460.041 35.858,456.59 35.858,452.548ZM15.87,442.846L23.453,442.846C25.601,442.846 27.155,443.342 28.118,444.333C29.081,445.323 29.562,446.651 29.562,448.315C29.562,449.615 29.195,450.74 28.461,451.692C27.727,452.643 26.57,453.332 24.991,453.76C25.642,454.046 26.12,454.347 26.425,454.664C26.854,455.108 27.304,455.765 27.775,456.637C27.803,456.701 28.717,458.571 30.518,462.249L25.531,462.249C23.911,458.555 22.823,456.348 22.269,455.627C21.715,454.905 21.161,454.545 20.607,454.545C20.482,454.545 20.309,454.569 20.087,454.616L20.087,462.249L15.87,462.249L15.87,442.846ZM20.087,451.073L21.916,451.073C23.135,451.073 23.994,450.847 24.492,450.396C24.991,449.944 25.24,449.361 25.24,448.648C25.24,447.935 25.001,447.352 24.524,446.9C24.046,446.449 23.232,446.223 22.082,446.223L20.087,446.223L20.087,451.073Z" style="fill-rule:nonzero;"/>
                </g>
            </g>
        </g>
    </g>
</svg>
