<?xml version="1.0" encoding="UTF-8"?><svg id="Layer_2" xmlns="http://www.w3.org/2000/svg" viewBox="0 0 305.69 226.23"><defs><style>.cls-1{fill:#fff;stroke-width:0px;}</style></defs><g id="Layer_1-2"><polygon class="cls-1" points="296.53 170.62 297.61 170.62 297.61 173.85 298.3 173.85 298.3 170.62 299.38 170.62 299.38 169.84 296.53 169.84 296.53 170.62"/><polygon class="cls-1" points="300.17 172.24 299.47 172.24 299.47 175.38 299.47 176.17 300.17 176.17 301.83 176.17 301.83 175.38 300.17 175.38 300.17 172.24"/><path class="cls-1" d="M299.18,166.49c-3.59,0-6.51,2.92-6.51,6.51s2.92,6.51,6.51,6.51,6.51-2.92,6.51-6.51-2.92-6.51-6.51-6.51ZM299.18,178.03c-2.77,0-5.03-2.25-5.03-5.03s2.25-5.03,5.03-5.03,5.03,2.25,5.03,5.03-2.25,5.03-5.03,5.03Z"/><polygon class="cls-1" points="0 165.89 0 173.36 8.51 173.36 8.51 215.94 16.98 215.94 16.98 173.36 25.49 173.36 25.49 165.89 0 165.89"/><polygon class="cls-1" points="83.76 165.89 83.76 173.36 92.28 173.36 92.28 215.94 100.74 215.94 100.74 173.36 109.26 173.36 109.26 165.89 83.76 165.89"/><path class="cls-1" d="M142.67,170.62v42.38l4.73,4.73h16.04l4.73-4.73v-42.38l-4.73-4.73h-16.04l-4.73,4.73ZM159.7,210.24h-8.56v-36.88h8.56v36.88Z"/><polygon class="cls-1" points="191.68 188.07 183.12 188.07 183.12 165.89 174.65 165.89 174.65 217.72 183.12 217.72 183.12 195.54 191.68 195.54 191.68 217.72 200.15 217.72 200.15 165.89 191.68 165.89 191.68 188.07"/><polygon class="cls-1" points="244.9 165.89 236.43 165.89 236.43 217.72 244.9 217.72 244.9 191.81 244.9 191.8 244.9 165.89"/><path class="cls-1" d="M276.56,165.9l-11.9,38.99v12.83h8.47v-7.08h8.61v7.08h8.47v-51.83h-13.64ZM273.12,203.16h-.12l8.74-28.55v28.55h-8.61Z"/><polygon class="cls-1" points="222.5 165.9 214.11 193.4 214.11 165.89 205.64 165.89 205.64 217.72 214.48 217.72 222.67 190.97 222.67 217.72 231.14 217.72 231.14 165.89 222.5 165.9"/><polygon class="cls-1" points="253.9 165.9 244.9 191.81 253.9 217.72 261.81 217.72 252.81 191.81 261.81 165.9 253.9 165.9"/><path class="cls-1" d="M111.58,165.89v60.35h8.47v-22.7h12.93c2.26,0,4.1-1.83,4.1-4.1v-29.46c0-2.26-1.83-4.1-4.1-4.1h-21.4ZM128.61,196.06h-8.56v-22.7h8.56v22.7Z"/><polygon class="cls-1" points="27.92 165.89 27.92 215.94 52.03 215.94 52.03 198.49 43.56 198.49 43.56 208.46 36.39 208.46 36.39 194.11 44.08 194.11 44.08 186.63 36.39 186.63 36.39 173.36 43.56 173.36 43.56 181.93 52.03 181.93 52.03 165.89 27.92 165.89"/><polygon class="cls-1" points="72.64 165.9 72.64 174.98 68.25 183.69 63.86 174.98 63.86 165.9 55.39 165.9 55.39 174.84 63.86 191.61 55.39 208.38 55.39 217.32 63.86 217.32 63.86 208.24 68.25 199.53 72.64 208.24 72.64 217.32 81.11 217.32 81.11 208.38 72.64 191.61 81.11 174.84 81.11 165.9 72.64 165.9"/><path class="cls-1" d="M199.19,79.6c-.39,1.22-2.06-1.48-2.06-1.48,0,0-.45,2.83-.64,6.94-.19,4.11-1.29,6.89-1.29,6.89,0,0,4.89-1.3,6.17-5.22,1.29-3.92,5.72-6.81,5.72-6.81,0,0-.24-.78-.32-1.62-.09-.98.72-3.58,3.66-2.49,1.28.48-.3,3.92-.3,3.92,0,0,2.87-.77,3.58-2.7s1.09-3.54,1.09-3.54l.64-1.48-2.31-2.64-7.14.39s-5.04,4.21-6.81,9.84Z"/><path class="cls-1" d="M224.07,87.06c-.96-.9-1.67-.84-1.67-.84l-8.55,8.04-3.92-2.3-2.7,2.69-.39,3.15-6.62,5.91-3.73-4.44h-1.61c-.13-2.44-1.96-8.17-1.96-8.17,0,0,1.19-3.86,1.14-6.49-.05-2.64,1.14-10.03,1.14-10.03,0,0-1.54-.32-2.12-1.35-.58-1.03.58-1.67.58-1.67l-5.48-1.63-4.75-4.56.57-1.39s1,.65,1.66,1.08c.66.43,2.72,2.89,2.72,2.89v-2l-3.64-3.81c.96-1.93,3.21-2.41,3.21-2.41l.92,2.8s2.27,5.76,3.35,5.88,1.66-1.49,1.66-1.49c-1.3-.43-2.7-2.94-2.7-2.94l5.14-3.25c.51,3.55.65,7.22.4,10.97l2.22,1.54c1.41-5.27,7.91-6.24,7.91-6.24l.75-2.26c-3.15-.8-4.42-1.52-4.55-2.76-.17-1.67,1.97-2.92,7.53-5.33,1.08-.47,1.72-1.63,1.48-2.79,0-.02,0-.03,0-.05-.24-1.15-1.3-1.96-2.48-1.95-6.18.06-8.52-.2-9.03-1.79-.52-1.6,1.32-3.26,6.26-6.79.96-.68,1.34-1.95.86-3.03l-.02-.04c-.48-1.08-1.68-1.65-2.84-1.4-6.04,1.35-8.38,1.59-9.22.13-.84-1.45.61-3.46,4.71-7.94.8-.87.9-2.2.21-3.15l-.03-.04c-.7-.95-1.99-1.25-3.06-.76-5.62,2.57-7.87,3.29-8.99,2.04-1.13-1.25-.18-3.41,2.96-8.73.6-1.01.43-2.33-.44-3.12-.02-.01-.03-.03-.05-.04-.87-.79-2.21-.82-3.15-.12-4.87,3.6-7.03,4.83-8.38,3.85-1.36-.99-.88-3.3,1.09-9.16.38-1.12-.06-2.37-1.08-2.96l-.04-.02c-1.02-.59-2.33-.35-3.11.53-4.02,4.54-5.87,6.2-7.4,5.51-1.54-.69-1.55-3.04-.84-9.18.14-1.17-.56-2.31-1.68-2.68-.01,0-.03,0-.04-.01-1.12-.36-2.34.15-2.92,1.18-2.98,5.28-4.44,7.27-6.09,6.93-1.64-.35-2.14-2.64-2.73-8.79-.11-1.17-1.03-2.14-2.2-2.26-.02,0-.04,0-.06,0-1.17-.12-2.26.64-2.62,1.76-1.81,5.76-2.83,8.03-4.51,8.04-1.68-.01-2.7-2.28-4.51-8.04-.35-1.12-1.45-1.88-2.62-1.76-.02,0-.04,0-.06,0-1.17.12-2.09,1.09-2.2,2.26-.59,6.15-1.09,8.45-2.73,8.79-1.65.34-3.11-1.66-6.09-6.93-.58-1.02-1.8-1.53-2.92-1.18-.01,0-.03,0-.04.01-1.12.36-1.82,1.5-1.68,2.68.71,6.14.7,8.49-.84,9.18-1.53.69-3.38-.97-7.4-5.51-.78-.88-2.09-1.13-3.11-.53l-.04.02c-1.02.59-1.46,1.85-1.08,2.96,1.98,5.86,2.46,8.17,1.09,9.16-1.35.98-3.5-.25-8.38-3.85-.95-.7-2.28-.67-3.15.12-.02.01-.03.03-.05.04-.87.79-1.04,2.11-.44,3.12,3.14,5.32,4.09,7.48,2.96,8.73-1.13,1.25-3.37.53-8.99-2.04-1.07-.49-2.36-.18-3.06.76l-.03.04c-.7.95-.59,2.28.21,3.15,4.1,4.47,5.55,6.48,4.71,7.94-.84,1.46-3.18,1.22-9.22-.13-1.15-.26-2.36.31-2.84,1.4l-.02.04c-.47,1.08-.09,2.35.86,3.03,4.94,3.52,6.78,5.19,6.26,6.79-.52,1.6-2.86,1.85-9.03,1.79-1.18-.01-2.24.8-2.48,1.95,0,.02,0,.03,0,.05-.24,1.15.4,2.32,1.48,2.79,5.56,2.41,7.7,3.65,7.53,5.33-.13,1.24-1.41,1.97-4.55,2.76l.75,2.26s6.49.96,7.91,6.24l2.22-1.54c-.25-3.75-.11-7.42.4-10.97l5.14,3.25s-1.4,2.51-2.7,2.94c0,0,.58,1.62,1.66,1.49s3.35-5.88,3.35-5.88l.92-2.8s2.24.48,3.21,2.41l-3.64,3.81v2s2.06-2.45,2.72-2.89c.66-.43,1.66-1.08,1.66-1.08l.57,1.39-4.75,4.56-5.48,1.63s1.16.64.58,1.67c-.58,1.03-2.12,1.35-2.12,1.35,0,0,1.19,7.39,1.14,10.03-.05,2.64,1.14,6.49,1.14,6.49,0,0-1.83,5.72-1.96,8.17h-1.61l-3.73,4.44-6.62-5.91-.39-3.15-2.7-2.69-3.92,2.3-8.55-8.04s-.71-.06-1.67.84c-.96.9-.84,1.74-.84,1.74l7.91,7.97-2.19,2.31,4.44,4.63-6.49,6.04s-.58,1.09.58,2.44c1.16,1.35,2.57.32,2.57.32l5.53-5.4s1.03-.84,1.86.06c.84.9,3.09,5.71,3.09,5.71l1.93-.76,4.58,4.82-.27,1.83,2.66,2.99c.03.47,0,1.52-.67,2.38-.9,1.16-3.21,3.09-3.21,3.09,0,0,1.51,2.18,4.47,2.37s3.83-4.24,3.83-4.24c0,0,.9-.71,1.38-1.48l4.72,4.31s-3,4.76-14.19,9.19l4.22,8.68s9.32-4.76,14.66-9.32l6.11,3.92s1.41,3.34,0,6.11l6.69,8.42s3.99-8.49,8.94-10.74l-4.5-6.24-.84.32-11.51-11.32,17.17-7.2-2.96-7.01s3.47-.9,8.1,4.76l4.76-1.48-1.29,3.15,3.6-.45-3.99,4.18,8.12,3.65h0s.01,0,.01,0h.01s0,0,0,0l8.12-3.65-3.99-4.18,3.6.45-1.29-3.15,4.76,1.48c4.63-5.66,8.1-4.76,8.1-4.76l-2.96,7.01,17.17,7.2-11.51,11.32-.84-.32-4.5,6.24c4.95,2.25,8.94,10.74,8.94,10.74l6.69-8.42c-1.41-2.76,0-6.11,0-6.11l6.11-3.92c5.34,4.56,14.66,9.32,14.66,9.32l4.22-8.68c-11.19-4.44-14.19-9.19-14.19-9.19l4.72-4.31c.48.77,1.38,1.48,1.38,1.48,0,0,.87,4.43,3.83,4.24s4.47-2.37,4.47-2.37c0,0-2.31-1.93-3.21-3.09-.67-.86-.7-1.91-.67-2.38l2.66-2.99-.27-1.83,4.58-4.82,1.93.76s2.25-4.81,3.09-5.71c.84-.9,1.86-.06,1.86-.06l5.53,5.4s1.41,1.03,2.57-.32c1.16-1.35.58-2.44.58-2.44l-6.49-6.04,4.44-4.63-2.19-2.31,7.91-7.97s.13-.84-.84-1.74ZM89.52,118.6l.14-1.34,1.85.22.54.51c-.03.29-.12.64-.35.87-.48.48-1.39.59-1.39.59l-.79-.85ZM92.15,121.41l-1.48-1.59s1.89.18,2.33-.96l.57.54s-.1,1.58-1.42,2.01ZM105.19,119.29l-10.42-10.27,1.01-1.16,10.37,10.32-.96,1.11ZM114.5,122.84l-7.17.48,3.12-4.21,3.63.18.58,1.24-.16,2.31ZM123.21,118.44l-2.57-.58-10.48-3.92h-2.06l-.71,1.86-9.77-9.77,2.19-.45,3.79-4.63s4.69-13.25,6.17-14.85c.42-.45.64.93.64.93l-4.59,11.2s4.26.27,7.54,2.2c3.28,1.93,7.71,6.01,7.65,7.36-.06,1.35-1.03,2.35-5.4.55-4.76-1.96-6.43-1.25-7.88.1-1.45,1.35-.8,4.79-.8,4.79l1.96.32,1.77-2.41,1.22,2.35,6.56-.39.29,1.8,3.95.32,1.03,1.8-.51,1.41ZM107.53,50.98v-1.28l2.46-.6-.82,1.66-1.64.22ZM129.54,90.37l-3.41-.87,1.29-.68,1.9.61.68-1.38,1.38.77,2.48-1.77,3.79-.77-5.43,5.67-2.67-1.59ZM139.71,69.51l-2.68,1.99-.96-.19,1.14-2.59c2.46.9,5.11,1.42,7.89,1.42h0s0,0,0,0,0,0,0,0h0c2.77,0,5.42-.52,7.89-1.42l1.14,2.59-.96.19-2.68-1.99-1.95,2.06,1.86,1.67.19,1.93,5.27,2.89-3.09.13-3.09-3.21-1.16-1.74-.9,3.41-2.53-2.31h0s0,0,0,0h0s0,0,0,0l-2.53,2.31-.9-3.41-1.16,1.74-3.09,3.21-3.09-.13,5.27-2.89.19-1.93,1.86-1.67-1.95-2.06ZM145.1,27.58c4.37,0,8.42,1.44,11.66,3.87,3.26,2.45,5.74,5.88,6.97,9.84h-1.81c-2.41-6.99-9.02-12.01-16.82-12.01h0s0,0,0,0,0,0,0,0h0c-7.8,0-14.41,5.02-16.82,12.01h-1.81c1.23-3.96,3.7-7.38,6.97-9.84,3.24-2.43,7.29-3.86,11.66-3.87ZM149.61,45.24c-.49-1.2-1.46-2.18-2.66-2.66v-4.79l2.43-1.78c3.89,1.5,6.78,5,7.45,9.23h-7.22ZM156.83,48.97c-.67,4.24-3.56,7.73-7.45,9.23l-2.43-1.78v-4.79c1.2-.49,2.15-1.46,2.64-2.66h7.24ZM145.56,44.01v-.55h.55v.55h-.55ZM146.11,50.19v.55h-.55v-.55h.55ZM144.09,44.01v-.55h.55v.55h-.55ZM144.64,50.19v.55h-.55v-.55h.55ZM140.59,45.24h-7.22c.67-4.24,3.56-7.73,7.45-9.23l2.43,1.78v4.79c-1.2.49-2.18,1.46-2.66,2.66ZM143.25,51.63v4.79l-2.43,1.78c-3.89-1.5-6.78-5-7.45-9.23h7.24c.49,1.2,1.43,2.18,2.64,2.66ZM128.27,52.92c1.2,3.49,3.45,6.5,6.39,8.63,2.94,2.13,6.55,3.38,10.43,3.38h0s0,0,0,0,0,0,0,0h0c3.89,0,7.49-1.25,10.43-3.38,2.94-2.13,5.18-5.14,6.39-8.63h1.81c-2.48,7.94-9.9,13.7-18.63,13.7-8.72,0-16.15-5.76-18.63-13.7h1.81ZM155.09,74.81l1.32.58,1.61-.06,3.05,2.12.42,1.35h-1.54l-4.85-3.99ZM145.1,89.68l-3.88-4.93h7.77l-3.88,4.93ZM145.1,82.37h-3.89l3.88-5.46,3.88,5.46h-3.88ZM130.25,78.8h-1.54l.42-1.35,3.05-2.12,1.61.06,1.32-.58-4.85,3.99ZM132.79,100.14l.55-.39,1.86,2.19.19,2.44-2.6-4.24ZM154.32,110.4c-2.8,2.86-9.08,3.27-9.22,3.28-.14,0-6.42-.42-9.22-3.28l2.12-1.41-2.38-1.16,2.76-1.93-.19-6.43-5.14-3.86,5.34,2.31,2.31-6.49,2.31.53,2.08-.97,2.08.97,2.31-.53,2.31,6.49,5.34-2.31-5.14,3.86-.19,6.43,2.76,1.93-2.38,1.16,2.12,1.41ZM154.8,104.39l.19-2.44,1.86-2.19.55.39-2.6,4.24ZM160.65,90.37l-2.67,1.59-5.43-5.67,3.79.77,2.48,1.77,1.38-.77.68,1.38,1.9-.61,1.29.68-3.41.87ZM165.57,72.66l-1.54.26-6.49-3.54v3.21l.9.64-.32,1.16-1.1-.84-.89-4.18-1.21-1.46c2.42-1.14,4.61-2.67,6.48-4.53,3.59-3.59,5.98-8.36,6.58-13.68h2.38v-1.93h-2.25c0-.23.03-.45.03-.69,0-.45-.04-.89-.07-1.33l8.46,1.01,1.64-1.98-5.93-5.11-4.33,4.36c-1.5-11.26-11.11-19.97-22.8-19.98h0s0,0,0,0,0,0,0,0h0c-11.69,0-21.3,8.72-22.8,19.98l-4.33-4.36-5.93,5.11,1.64,1.98,8.46-1.01c-.03.44-.07.88-.07,1.33,0,.23.03.46.03.69h-2.25v1.93h2.38c.6,5.32,2.99,10.09,6.58,13.68,1.86,1.86,4.06,3.39,6.48,4.53l-1.21,1.46-.89,4.18-1.1.84-.32-1.16.9-.64v-3.21l-6.49,3.54-1.54-.26.26-4.69-1.03-.45.14-.55,1.59-.19.19-3.76-2.07-3.09.1-2.31-2.07-2.56.05-1.48-1.93-1.47-1.93,1.47.29-1.47.92-.48-2.22-2.67-7.18-.9-7.76,1.88-7.89,9.62c4.06-24.53,25.35-43.23,51.03-43.24,25.68,0,46.97,18.71,51.03,43.24l-7.89-9.62-7.76-1.88-7.18.9-2.22,2.67.92.48.29,1.47-1.93-1.47-1.93,1.47.05,1.48-2.07,2.56.1,2.31-2.07,3.09.19,3.76,1.59.19.14.55-1.03.45.26,4.69ZM182.66,49.71v1.28l-1.64-.22-.82-1.66,2.46.6ZM175.7,122.84l-.16-2.31.58-1.24,3.63-.18,3.12,4.21-7.17-.48ZM182.8,115.8l-.71-1.86h-2.06l-10.48,3.92-2.57.58-.51-1.41,1.03-1.8,3.95-.32.29-1.8,6.56.39,1.22-2.35,1.77,2.41,1.96-.32s.64-3.44-.8-4.79c-1.45-1.35-3.12-2.06-7.88-.1-4.37,1.8-5.34.8-5.4-.55-.06-1.35,4.37-5.43,7.65-7.36,3.28-1.93,7.54-2.2,7.54-2.2l-4.59-11.2s.23-1.38.64-.93c1.48,1.6,6.17,14.85,6.17,14.85l3.79,4.63,2.19.45-9.77,9.77ZM185,119.29l-.96-1.11,10.37-10.32,1.01,1.16-10.42,10.27ZM198.04,121.41c-1.32-.43-1.42-2.01-1.42-2.01l.57-.54c.44,1.14,2.33.96,2.33.96l-1.48,1.59ZM199.88,119.45s-.91-.11-1.39-.59c-.23-.23-.32-.58-.35-.87l.54-.51,1.85-.22.14,1.34-.79.85Z"/><polygon class="cls-1" points="145.1 130.03 143.91 129.08 136.78 140.17 139.09 147.5 139.09 140.84 142.37 137.37 141.31 141.9 145.08 148.89 145.08 148.94 145.1 148.92 145.11 148.94 145.11 148.89 148.89 141.9 147.82 137.37 151.1 140.84 151.1 147.5 153.42 140.17 146.28 129.08 145.1 130.03"/><path class="cls-1" d="M156.21,129.08s7.74,4.2,9.1,10.49l-.23-12.66-3.28.24s-4.87-2.51-8.39-1.74l-.82,1.16-2.22.14-1.69,1.69,4.73,8.53.43-3.18,5.01,10.7,3.04-2.46-5.69-12.92Z"/><path class="cls-1" d="M76.47,77.03c.71,1.93,3.58,2.7,3.58,2.7,0,0-1.58-3.45-.3-3.92,2.94-1.09,3.75,1.51,3.66,2.49-.08.84-.32,1.62-.32,1.62,0,0,4.44,2.89,5.72,6.81,1.29,3.92,6.17,5.22,6.17,5.22,0,0-1.09-2.78-1.29-6.89-.19-4.11-.64-6.94-.64-6.94,0,0-1.67,2.7-2.06,1.48-1.78-5.63-6.81-9.84-6.81-9.84l-7.14-.39-2.31,2.64.64,1.48s.39,1.61,1.09,3.54Z"/><path class="cls-1" d="M141.5,128.4l-1.69-1.69-2.22-.14-.82-1.16c-3.52-.77-8.39,1.74-8.39,1.74l-3.28-.24-.23,12.66c1.36-6.29,9.1-10.49,9.1-10.49l-5.69,12.92,3.04,2.46,5.01-10.7.43,3.18,4.73-8.53Z"/></g></svg>