<?xml version="1.0" encoding="UTF-8"?><svg id="Layer_2" xmlns="http://www.w3.org/2000/svg" viewBox="0 0 303.86 219.27"><defs><style>.cls-1{fill:#fff;stroke-width:0px;}</style></defs><g id="Layer_1-2"><path class="cls-1" d="M253.45,103.76c-3.28-1.37-7.24-7.01-4.96-12.75s-1.2-5.97-1.82-5.97c-.27,0-1.91,0-4.46,2.46-2.48,2.39-9.02,10.57-21.13,19.04-4.72,3.3-4.1,6.92-3.73,14.03.36,7.1.55,29.51.64,36.07.09,6.56,1,6.97,5.97,10.16,4.96,3.19,9.11,5.37,10.98,6.28s4.78,2.87,7.83-1,11.07-14.94,10.79-20.22c-.27-5.28-3.32-6.24-5.65-6.24s-4.83.36-4.83,4.74,2.37,3.64,2.37,8.43c0,1.41-4.01,10.34-5.15,11.2-1.14.87-1.91.68-3.05-1.55-1.14-2.23-2.15-19.63-1.92-21.22.23-1.59,3.38-7.06,13.17-14.3,9.79-7.24,11.52-7.65,11.52-13.16,0-2.91-1.69-5.65.59-9.65,2.28-4.01-3.87-4.96-7.15-6.33ZM243.82,130.19c-.27,3.35-4.03,5.46-5.67,6.69-1.64,1.23-2.46.61-3.07-1.98-.53-2.24-2.18-20.63-2.62-25.61-.08-.89.04-1.78.34-2.62.83-2.33,2.76-6.74,5.29-6.34,5.66.91,6.01,26.51,5.74,29.85Z"/><path class="cls-1" d="M64.11,56.75c-.85.74-2.21,2.57-6.51,8.72-5.82,8.31-9.96,11.03-14.11,13.87-3.31,2.28-4.12-1.01-5.95-3.75s-4.3-6.56-5.27-7.46-2.25-1.16-3.77,0-11.93,11.83-15.19,15.66c-3.26,3.83-9.32,9.94-11.65,11.75-2.33,1.81-2.02,3.11.57,3.68,2.59.57,4.58,1.04,5.41,1.14s2.5.12,3.6-1.24c1.29-1.6,1.4-2.85.8-5.41s.35-3.53,1.79-4.97c1.44-1.44,6.64-7.03,7.8-8.08s2.25-1.86,3.26-.27,2.52,7.1,3.49,9.12,2.46,4.06,6.02,2.06,4.4-2.61,4.97-2.95c.72-.43,2-.8,2,1.94s-1.09,11.14-1.46,14.71-3.21,2.9-4.35,1.92c-1.14-.98-2.62-2.32-3.88-3.12s-3.88-1.49-6.68,3.28c-2.8,4.78-6.44,12.52-7.07,13.65-.62,1.13-.85,2.72,1.01.97s6.01-6.35,7.25-7.92c1.42-1.8,2.54-.7,3.08,0s2.06,2.52,2.63,3.03,1.5.74,2.52-.04,3.21-2.3,3.51-2.46,1.54-.84,1.54.93v8.11c0,1.4-1.83,3.82-4.14,2.52s-3.51-3.11-5.28-3.88-3.28-.89-5.03,1.26c-1.75,2.15-6.97,11.49-7.82,13.43-.85,1.94-.35,2.7,1.82.64s4.45-4.68,5.61-5.59,2.06-1.13,3.28.02c1.22,1.15,2.68,2.64,3.61,3.3s2.21.45,3.47-.64,3.1-2.47,3.55-2.93c.86-.86.83.02.83,2.15,0,2.99-.03,36.97.16,43.65.05,1.84-.54,2.92-2.17,1.84s-2.56-1.58-3.44-2.02-3.11-.98-5.02,1.14c-1.92,2.12-21.56,24.98-24.98,28.96-3.42,3.99-3.4,4.94-3.85,6.26-.34,1.01.22,2.82,1.86,3.93,3.91,2.64,6.82,1.41,7.92.41,2.59-2.33,4.38-4.01,5.56-5.28,1.76-1.89.39-2.59-1.58-2.92s-2.92-.57-3.78-.98-1.21-1.35-.39-2.59c3.69-5.56,9.44-11.41,14.6-15.71,1.24-1.04,3.68-1.24,6,.16,2.33,1.4,11.58,7.59,15.94,10.3,3,1.86,4.04.67,5.12-1.24s4.04-6.11,7.3-8.28c3.26-2.17,2.95-3.47,2.59-7.25s-1.4-29.63-.98-35.02c.41-5.38-.62-21.53-.62-28.57s.1-26.3.72-30.02,2.99-6.1,6.61-6.1,7.3,2.56,7.3,6.99-.16,28.53,0,31.06c.16,2.52-1.05,2.33-2.52,2.14s-3.61-1.44-5.51-1.44-4.15,1.55-4.5,4.23.08,4.43,1.71,4.5,3.26-1.92,4.58-2.12,3.47.06,5.63,2.04c1.16,1.07.85,1.86.89,4.37.07,4.79.41,11.88-.57,21.8-.26,2.64-2.5,5.2-3.31,6.02s-1.28,2.24.19,3.95c1.48,1.71,3.61,2.61,6.41,5.99s3.42,5.51,3.92,6.17,1.16,2.14,2.56.39c1.4-1.75,6.54-8.05,7.26-8.88s1.5-2.54.57-4.5c-.93-1.97-2.35-24.38-2.54-30.38-.1-3.31,2.23-2.02,3.36-1.66s2.12.57,3.62,1.35,2.12.47,2.85-1.04c.72-1.5,1.97-5.02,1.92-6.88-.05-1.86-.43-2.65-2.5-2.61-1.35.03-1.82,1.01-5.78.08-3.96-.93-3.44-4.09-3.6-6.61s-1.01-24.08-.23-28.64c.78-4.56,1.19-5.49,2.85-6.68s1.87-2.76.78-4.45-3.04-3.6-8.2-6.94c-5.16-3.34-7.26-4.66-7.86-7.96-.23-1.28-.6-3.53-2.89-1.43-2.29,2.1-2.01,5.77-6.67,11.35-2.97,3.55-10.24,8.55-10.5,17.51-.26,8.95.36,16.93-.36,27.59-.72,10.66.21,11.44.16,18.84-.05,7.4-.51,38.24-.63,40.61-.07,1.44-1.26,2.94-1.26,2.94,0,0-.96-.21-1.32-3.31-.36-3.11.05-20.88-.16-25.13-.21-4.24-.67-14.03-.52-19.1.16-5.07-.16-6.94-.16-9.01s1.19-23.86,1.11-28.91c-.08-5.05,2.95-18.25,6.13-24.07,3.18-5.82,6.13-12.11,6.95-14.21s-1.13-2.56-2.02-1.79Z"/><path class="cls-1" d="M99.28,84.19c-2.49,3.46-5.77,7.41-7.01,9.22-1.24,1.81-2.33,3.21-2.59,5.59s1.19,2.86,4.01,1.58c3.14-1.44,4.07-2.42,5.98-2.6,2.48-.23,4.17.97,4.45,3.87.34,3.57,1.21,51.57.45,61.64-.52,6.83-2.18,8.04-3.52,12.68-.78,2.69.26,4.56,1.19,5.64s2.69,2.38,4.81,8.44c2.12,6.06,2.3,6.74,2.7,7.55.41.82,1.86,1.55,3.47-.35,1.61-1.9,5.88-9.53,8.83-11.7,2.95-2.17,2.87-4.04,2.41-5.2s-1.09-5.36-.93-7.61.09-7.1-.38-11.76c-.47-4.66-1.93-43.69-1.58-54.2.15-4.38,1.52-5.35,2.9-7.2,1.88-2.5,2.05-5.42.3-6.63-1.75-1.2-4.23-2.64-7.8-3.77s-7.83-3.56-9.42-5.68c-1.22-1.63-3.12-3.12-4.65-2.98-1.31.12-2.25,1.55-3.63,3.46Z"/><path class="cls-1" d="M166.19,108.99c-3.42-1.69-4.68-.89-7.45-3.32-2.31-2.02-4.08-5.69-4.05-8.2.03-2.51,1.53-3.8,1.97-5.38.44-1.58.67-4.97-2.43-4.97-1.79,0-4.12,3.18-7.21,6.36-1.88,1.93-3.68,5.86-13.08,13.57-3.73,3.05-4.85,3.85-5.98,4.88-1.07.98-2.15,2.21-.96,5.89,1.19,3.68.26,19.39.49,21.87.23,2.48.31,4.74.08,7.92-.23,3.18-.47,16.23-.16,18.32.31,2.1,1.01,3.46,3.3,4.43,2.29.97,6.04,2.8,9.72,6.02,1.03.9,2.1,1.82,2.93,2.48,2.17,1.75,4.49,1.82,6.02-.04,2.38-2.9,3.57-5.12,5.9-7.42,2.33-2.29,8.46-9.43,10.09-11.06s2.1-3.61,2.02-6.1c-.08-2.48-1.01-28.3-1.01-31.1s-.56-3.38-.56-5.05.93-3.96,1.58-4.79,1.37-3.03-1.21-4.31ZM151.71,126.71c-.08,4.56,0,35.77,0,39.42s-2.12,6.88-2.9,8.41c-.78,1.53-1.94,2.54-2.95.16-1.01-2.38-2.46-12.58-2.11-16.62s.35-12.81-.82-22.21c-1.16-9.39-1.89-24.72-1.75-26.98.17-2.58,3.08-5.62,5.03-5.62,1.19,0,1.89,1.66,2.43,3.92.77,3.25,2.18,7.49,2.37,11.25.31,6.37.78,3.73.7,8.28Z"/><path class="cls-1" d="M183.11,96.38c-1.99.58-2.65.79-5.57.79s-6.15-1.31-9.38-1.22c-2.81.08-4.45,1.53-4.45,3.67s.35,3.55,3.55,4.39,5.61,1.67,8.68,5.82c3.07,4.15,8.77,15.58,9.71,19.53.35,1.48-.74,2.41-2.1,2.76s-3.46.31-4.78-.78c-1.32-1.09-2.16-1.64-2.61-1.85s-2.04-1.18-3.52.3c-1.48,1.48-2.76,2.91-2.8,5.01-.04,2.1,1.79,3.92,2.83,4.58s1.59.97,3.03,0c1.44-.97,4.15-2.62,7.92-2.21,1.09.12,1.11.1.83,1.13s-4.32,10.53-6.29,17.42c-1.97,6.88-4.56,15.97-5.2,17.96-.65,1.99-1.48,1.99-2.82,1.97s-5.41-.28-6.32-.26-2.3.31-2.3,1.99.77,2.52,3.45,3.11c2.54.56,9.03,2.59,10.94,4.09,1.92,1.5,3.73,3.44,4.5,4.06s1.29,1.16,2.04,0,1.5-2.36,1.5-4.84-.57-1.92-.57-3.21c0-.65.31-6.22,1.19-13.61s2.33-16.61,3.31-21.77c.52-2.72,2.17-4.45,4.06-.83.86,1.66,2.61,4.12,5.62,12.68,1.04,2.97.57,3.47,3.21,9.99,2.68,6.62,5.24,13.3,6.68,16.72,2.33,5.55,1.6,7.56,1.97,9.58s.31,3.68,3.05,2.85,4.45-2.12,8.28-2.69,7.09.21,8.49.41,3.78-.85,4.19-3.75-1.68-4.81-3.62-5.1-4.06-.49-5.85-3.34c-.93-1.48-2.72-4.7-4.35-8.31-1.5-3.31-2.17-6-3.78-9.01-2.18-4.08-10.99-24.79-12.06-27.33-.83-1.97.31-2.64,2.33-2.48,1.4.11,1.86.36,3.31.31s3.18-1.4,3.18-3.62-1.86-3.42-3.26-3.55-5.49,0-7.2-.1-2.29-.93-2.87-2.54c-.46-1.26-1.06-3.55.72-6,2.04-2.81,6.35-8.64,7-9.44s2.25-1.21,4.27-1.29c1.01-.04,1.49-.02,1.86-.63.89-1.46.08-2.98-1.82-4.14-1.48-.91-2.2-1.53-4.19-2.56s-1.94-1.84-2.48.16-2.4,5.13-4.37,8.18-2.51,4.14-3.18,4.89-1.21.85-1.89.03c-2.17-2.64-4.31-8.26-5.8-12.27-1.52-4.09-2.41-6.75-6.3-5.62Z"/><path class="cls-1" d="M75.63,187.68c-1.1-.14-2.95.34-1.71,1.71,1.54,1.71,3.45,2.09,8.57,2.31,4.48.19,5.23.13,5.23-.86,0-.85-2.91-1.95-12.09-3.16Z"/><path class="cls-1" d="M74.52,195.06c-.11,1.66.79,5.82.96,7.82s.67,2.87,1.75,2.91,2.2-1.75,2.79-2.7c.58-.96,4.03-7.28,4.12-7.7s.33-1.05-.35-1.22-1.5.44-1.98,1.55-2.79,4.53-3.2,4.53c-.14,0-.48-.41-.69-.96-.42-1.1-.76-2.9-.96-4.19-.35-2.26-2.27-2.44-2.43-.06Z"/><path class="cls-1" d="M84.43,211.92c.08-.22-.41-1.36-2.61-1.73s-7.97-1.61-9.94-1.32-2.97,2.24-1.36,2.85,2.67-.24,3.93.12,4.97,1.41,7.05,1.18,2.85-.88,2.93-1.1Z"/><path class="cls-1" d="M157.23,209.26c-4.38-.08-40.27-.74-46.84-1.23s-5.92,2.14-5.92,3.21,1.86,3.32,6.96,3.16,5.75-.36,8.82-.36,12.51.73,16.73.75c3.9.01,10.8-.92,18.51-.56,6.79.32,18.18,1.05,24.75.96,3.68-.05,14.77-.72,24.24-1.29,7.45-.45,13.9-.79,14.96-1.07,2.41-.64,2.87-1.85,2.87-3.3s-1.15-2.92-3.89-2.84c-7.62.21-26.68,2.25-32.93,2.95s-23.89-.29-28.27-.38Z"/><path class="cls-1" d="M240.76,185.64s-.82,10.92-.74,11.84.46,2.2.79,2.29.91-1.62,1.08-2.82.73-11.36.67-11.92-.34-1.55-.83-1.56-.92,1.56-.96,2.19Z"/><path class="cls-1" d="M244.96,184.35c-.57.66,2.91,1.04,2.91,2.16s-2.57,2.12-2.53,3.45c.04,1.65,3.99,1.25,3.99,2.58s.09,3.6-1.41,5.32c-.29.33-1.83-1.7-2.33-1.58s-.86,1.14-.62,2.7c.17,1.08,1.2,1.91,2.82,1.91.79,0,2.84-.32,3.42-5.22s.72-5.7-.69-6.04-1.86-.17-1.86-.72,2.44-2.35,2.44-3.88c0-1.74-5.21-1.74-6.13-.68Z"/><path class="cls-1" d="M240.64,204.39c-.5,0-2.39.21-2.39,1.21,0,1.34.59,2.72,3.26,2.8s7.99-.13,8.79-.59,1.31-1.3,1.31-2.22-1.02-1.22-1.98-1.22-8.49,0-9,0Z"/><path class="cls-1" d="M291.55,114.27c-1.73-.28-5.51-.05-7.97,1.32-2.67,1.49-20.11,10.46-23.37,14.73-3.26,4.27-2.28,4.79-1.09,6.39,1.19,1.6,2.79,5.63,3.68,15.48.72,8.08,3,8.95,8.18,11.75,4.6,2.48,12.35,6.65,14.57,9.45s1.57,8.8-.84,11.56c-2.41,2.76-5.01,5.09-11.3,4.31-1.27-.16-2.29-.77-3.22-.93-3.77-.66-4.75-2.12-5.28-2.68-.66-.7-1.86-3.26-1.48-5.05.28-1.27.6-1.94,1.86-2.95.52-.41,1.79-1.01,2.47-1.65,1.9-1.82,2.27-4.13.25-5.57-2.02-1.44-4.06-2.18-7.05.17-.89.71-1.76,1.69-2.7,2.76-1.97,2.27-3.79,5.11-3.65,7.71.21,3.82,4.24,7.97,9.52,9.58s23.6,7.04,27.23,8.08,6.11.26,7.2-2.64,3.69-13.04,3.96-16.03c.27-2.99.62-7.14-7.26-9.98s-18.36-7.26-20.69-8.31c-2.33-1.05-6.48-4.58-6.52-7.34-.04-2.76,3.03-2.41,4.54-2.29s6.91,1.32,9.08,1.36,7.84.04,11.3,5.78,3.92,8.58,8.19,3.22c4.27-5.36,3.46-12.89-2.37-16.62-5.82-3.73-15.92-8.66-20.01-11.25s-5.07-5.54-5.07-7.51,1.61-5.59,5.52-7.66,9.16-.38,11.25,1.24c1.07.83.87,1.22.33,2.4s-1.81,4.52-2.23,4.95-.97.78-.95,1.63.06,4.06,3.03,5.23,4.79,1.89,6.52,2.38,4.53.18,4.63-3.21c.1-3.39-4.35-15.28-5.04-16.63-.83-1.62-2.91-2.81-5.23-3.2Z"/><path class="cls-1" d="M116.67,0s-6.63,7.71-6.63,16.41.5,11.14,5.73,8.67c0,0-3.91,4.75-19.31,17.42-6.8,5.59-10.09,7.42-4.35,13.9l5.05-7.34s-.54,3.69-3.34,8.15-2.1,7.34,4.27,11.03l7.57-13.47.93.54s-1.93,6.88-4.26,12.93c-2.33,6.04.78,8.63,5.23,9.51l7.45-30.05s1.76,2.72,3.57,2.72c2.41,0,3.68-4.35,4.87-4.56l-1.02,5.76s13.05.43,16.5-.12c3.62-.57,3.31-1.4,3.47-4.97.14-3.16.88-3.42.88-3.42,0,0,1.66,2.64,2.48,3.83s2.28,3.42,5.75,2.33,3.83-1.4,3.83-1.4l6.32,33.44s8.92-2.74,5.54-11.28c-1.76-4.45-2.64-6.73-2.64-6.73l.78-.16,5.59,9.37s6.21-3.16,3.21-9.27c-2.86-5.82-3.99-7.71-3.99-7.71l.72-.31,6.53,9.09s4.86-5.62,1.76-10.28c-3.11-4.66-17.35-22.98-26.79-28.16,0,0,3.24-.88,4.12-.98s3.11-3.75,3.11-11.05-2.1-10.87-3.65-10.87c-3.58,0-11.88,9.73-19.72,9.78-5,.04-7.63-2.2-12.63-6.6-4.09-3.6-6.91-6.16-6.91-6.16Z"/><path class="cls-1" d="M155.7,62.94c-2.12-10.25-.16-9.47-10.97-12.37,0,0,1.14,3.88-5.12,3.88s-23.45-1.71-23.45-1.71c0,0-9.27,13.04,4.81,23.5l5.04-1.66.71,9.06,3-2.33s1.66,3.47,2.9,3.52c1.24.05,2.69-2.74,2.69-2.74l2.8,4.3,2.43-3,3,1.6v-10.2s4.09,1.5,6.68.88c2.59-.62,7.61-2.48,5.49-12.73ZM121.64,69.16c-7.46-3.17-4.4-14.65-4.4-14.65l16.25,9.27s-7.49,7.25-11.85,5.39ZM137.97,76.92s-5.59-2.25-5.72-4.35c-.11-1.71,4.19-5.59,4.19-5.59.49,1.55,3.13,3.99,3.13,6.34s-1.6,3.6-1.6,3.6ZM148.24,68.22c-1.71.93-3.46,1.31-5.07.47-1.13-.59-3.93-2.85-3.93-2.85,0,0,.98-3,2.59-4.45,1.6-1.45,9.68-7.45,9.68-7.45,4.12,8.49-1.55,13.35-3.26,14.29Z"/></g></svg>