<?xml version="1.0" encoding="UTF-8"?><svg id="Layer_2" xmlns="http://www.w3.org/2000/svg" viewBox="0 0 598.7 131"><defs><style>.cls-1{fill:#fff;stroke-width:0px;}</style></defs><g id="Layer_1-2"><polygon class="cls-1" points="286.83 68.88 235.64 17.67 235.64 102.17 253.93 102.17 253.93 61.84 305.12 113.08 305.12 34.89 286.83 34.89 286.83 68.88"/><polygon class="cls-1" points="468.32 102.2 479.21 102.2 479.21 34.92 460.92 34.92 460.92 68.91 426.9 34.89 409.73 34.89 409.73 102.2 428.02 102.2 428.02 61.87 468.32 102.2"/><polygon class="cls-1" points="0 9.33 20.44 29.33 40.44 29.33 40.44 107.67 59.44 124.56 59.44 29.33 138.17 29.33 138.17 124.56 157.17 107.67 157.17 29.33 229.44 29.33 229.44 9.33 0 9.33"/><polygon class="cls-1" points="213.44 53.18 229 34.89 164.06 34.89 164.06 102.17 213.44 102.17 229 83.88 182.34 83.88 182.34 77.67 206.86 77.67 206.86 59.38 182.34 59.38 182.34 53.18 213.44 53.18"/><path class="cls-1" d="M66.33,34.89v67.28h64.94V34.89h-64.94ZM112.99,83.88h-28.37v-30.7h28.37v30.7Z"/><path class="cls-1" d="M337.9,34.89v67.28h18.29v-24.49h28.37v24.49h18.29V34.89h-64.94ZM384.55,59.38h-28.37v-6.21h28.37v6.21Z"/><path class="cls-1" d="M567.94,106.22c-2.67-.17-3.22-.21-5.39-.22-.82,0-1-.72-.67-1.11,1.2-1.44,8.37-4.37,8.39-5.03.02-.5.47-1.46-.46-1.51-.63-.03-10.17,2.68-12.62,3.17-1.42.29,5.33-5.92,5.45-6.71.12-.79-1.29-1.42-1.29-1.42,0,0,.17-1.08.96-1.71.79-.62,2.14-1.54,2.32-2.1.18-.56.18-.98-1.23-1.15-1.42-.17,1.08-1.67,2.04-2.33.96-.67,3.54-1.96,4.21-4.29.67-2.33,3.42-6.88,4.46-8.42,1.04-1.54,5.29-6.62,6.12-9.33.83-2.71.17-2.58-.25-2.38-.42.21-15.08,14.46-15.08,14.46,0,0-.88.88-1.58,1.46-.71.58-1.68.11-3.25.58-2.26.68-22.54,21.29-80.04,40.88,0,0,36.85-21.94,76.92-89.72V9.33h-225.93V0h-19v9.33h-75.68l20.44,20h55.23v95.22l19-16.89V29.33h193.77s-2.28,34-55.17,85.22c0,0,44.39-28.56,72.06-85.22h2.78s-26.99,55.74-75.81,87.15c-.41.27-.89.43-1.38.49l-4.02.46c-.66.08-1.28.31-1.82.69-2.38,1.69-9.91,6.87-20.64,12.87,0,0,24.44-.11,26.44-.67,2-.56,5.89-3.11,9.11-4,3.22-.89,4.54.92,6.66.75,2.02-.17,4.24,1.69,9.62-2.31,4.69-3.48,8.17,1,14.28-1,6.11-2,3.22-1.89,6.78-3.11,3.56-1.22,4.78-.56,9.67-4.11,4.89-3.56,15.11-6.44,15.67-7.44s.67-2.78,1.67-3.44,5.89-1.56,5.78-.89c-.11.67-3.44,3.22-3.78,4-.33.78,0,2.33,2.33,2.11,2.33-.22,2.56,1.11,4.11,1.89s4.89.22,5.67-.56,2.33-1.22,2.78-2.11c.44-.89,4.56-1.33,6.67-1.22,2.11.11,2.89-.44,3.33.67.44,1.11,3.33,1,3.56-.33s-.23-2.82-3.17-3Z"/><path class="cls-1" d="M477.36,126.29c-1.81.16-2.44,1.44-2.22,2.83.22,1.39,3.48,1.26,4.05,0,.57-1.26.13-3-1.83-2.83Z"/><path class="cls-1" d="M493.76,124.68c-.78.77-1.13,2.5-.63,2.85s3.06.55,3.52-2.04c.45-2.59-1.98-1.69-2.88-.81Z"/><path class="cls-1" d="M525.14,116.92s-2.22.17-2.19,1.19c.03,1.03.89,2.22,2.19,1.67,1.31-.56,1.72-1,1.47-1.64-.25-.64-.44-1.14-1.47-1.22Z"/><path class="cls-1" d="M528.41,114.69c-.44.03-1.14.25-.92.89.22.64.56.97.81.81.25-.17,1.3-.53,1.25-1.31-.03-.43-.69-.42-1.14-.39Z"/><path class="cls-1" d="M530.4,115.74s-.79.54-.54,1.37c.25.83,1.81-.42,1.67-.92-.14-.5-.57-.62-1.12-.46Z"/><path class="cls-1" d="M544.97,112.89c-.03-.81-2.86-1.72-4.78-1.72s-5.22.25-5.69,1.67c-.47,1.42,2.44,2.61,4.83,1.85,2.39-.77,5.67-.99,5.64-1.79Z"/><path class="cls-1" d="M544.66,115.22c-1.58.92-1.12,1.92-1.03,2.06.09.14,1.11.69,2.22.53,1.11-.17,4.22-2.28,4-3-.22-.72-3.61-.5-5.19.42Z"/><path class="cls-1" d="M561.93,111.07c-1.21-.18-3.82-.62-4.43.38-.61,1,1.77,2.22,2.92,2.17,1.78-.08,3.17-2.31,1.51-2.55Z"/><path class="cls-1" d="M565.13,74.62c.29-.54,1.79-2.41,1.17-2.54s-2.67,1.02-2.69,2.35c-.02,1.33,1.23.73,1.52.19Z"/><path class="cls-1" d="M569.96,70.72c.27-.38,1.4-2.19.9-2.35-.5-.17-2.31.65-2.48,2.12-.17,1.48,1.31.6,1.58.23Z"/><path class="cls-1" d="M579.07,57.45c-.88-.25-3.52,3-3.08,5.52s3.85-3.92,3.08-5.52Z"/><path class="cls-1" d="M563.58,97.53c-.19.56,1.28.83,1.53.72.25-.11.25-.97-.42-1.17,0,0-.92-.11-1.11.44Z"/><path class="cls-1" d="M574.94,86.46c-1.31.25-7.38,1.39-7.92,4.39s4.12.04,5.17-.33c1.04-.38,1.12.83,1.88.42.75-.42,3.94-2.33,3.49-3.21s-1.31-1.51-2.62-1.27Z"/><path class="cls-1" d="M582.98,89.76s-1,.17-.92.71c.08.54,1.35.6,1.44.22s.06-.96-.53-.93Z"/><path class="cls-1" d="M595.57,80.85s-5,1.83-6.21,3.58c-1.21,1.75-1.71-.21-2.5,0-.79.21-2.65,1.86-2,3.12.62,1.21,13.33-5.07,10.71-6.7Z"/><path class="cls-1" d="M582.81,84.27c-.74-.5-4.01,1.45-3.63,2.41.39.96,4.37-1.91,3.63-2.41Z"/><path class="cls-1" d="M589.69,81.44c1.06-.44,3.61-4.06,3.39-4.78s-5.12,3.29-5.01,4.07c.11.78.56,1.15,1.62.71Z"/><path class="cls-1" d="M585.02,73.31c-.97.34-12.33,9.34-11.92,10.96.42,1.62,12.02-6.42,12.67-9.41.22-1.02.22-1.88-.75-1.55Z"/><path class="cls-1" d="M587.94,63.94c-.81,0-4.39,3.17-3.83,4.64.56,1.47,4.64-4.64,3.83-4.64Z"/><path class="cls-1" d="M596.65,52.93s-.71,1.29-1.79,5.83c-1.08,4.54-5.42,6.71-5.5,8.12-.08,1.42.79,2.21,2.29.92,1.5-1.29,6.5-8.75,6.75-11.54.13-1.41-.29-3.92-1.75-3.33Z"/><path class="cls-1" d="M597.02,44.39c-.75.75-.88,2.12-.42,3.71.46,1.58,1.75,2.42,2.04,1.58.29-.83-.88-6.04-1.62-5.29Z"/></g></svg>