<?xml version="1.0" encoding="UTF-8"?><svg id="Layer_2" xmlns="http://www.w3.org/2000/svg" viewBox="0 0 622.83 139.7"><defs><style>.cls-1{fill:#fff;stroke-width:0px;}</style></defs><g id="Layer_1-2"><polygon class="cls-1" points="0 39.79 0 48.27 19.89 48.27 19.89 99.91 28.38 99.91 28.38 48.27 36.86 39.79 0 39.79"/><path class="cls-1" d="M48.56,39.8v60.12h8.5v-14.14l11.19,14.14h8.7v-29.85h-8.48v14.22l-10.56-13.36,19.04-21.74v-9.39h-28.38ZM64.46,48.29l-7.41,8.48v-8.48h7.41,0Z"/><path class="cls-1" d="M96.83,39.79v60.12h8.48v-30.06h8.48v30.06h8.48v-60.12h-25.45ZM113.79,61.35h-8.48v-13.07h8.48v13.07Z"/><polygon class="cls-1" points="187.51 39.79 187.51 99.91 195.99 99.91 195.99 48.28 204.47 48.28 204.47 39.79 187.51 39.79"/><polygon class="cls-1" points="212.95 39.79 229.91 39.79 229.92 39.79 229.92 99.91 221.43 99.91 221.43 48.28 212.95 48.28 212.95 39.79"/><rect class="cls-1" x="204.47" y="48.28" width="8.48" height="51.63"/><polygon class="cls-1" points="605.87 39.79 622.83 39.79 622.83 39.79 622.83 99.91 614.35 99.91 614.35 48.28 605.87 48.28 605.87 39.79"/><rect class="cls-1" x="597.39" y="48.28" width="8.48" height="51.63"/><polygon class="cls-1" points="580.43 39.79 580.43 99.91 588.91 99.91 588.91 48.28 597.39 48.28 597.39 39.79 580.43 39.79"/><path class="cls-1" d="M249.81,39.79v60.12h8.48v-30.06h8.48v30.06h8.48v-60.12h-25.45ZM266.77,61.35h-8.48v-13.07h8.48v13.07Z"/><path class="cls-1" d="M535.09,39.79v60.12h8.48v-30.06h8.48v30.06h8.48v-60.12h-25.45ZM552.05,61.35h-8.48v-13.07h8.48v13.07Z"/><polygon class="cls-1" points="489.75 39.79 489.75 99.91 515.19 99.91 515.19 70.07 506.71 70.07 506.71 91.42 498.23 91.42 498.23 59.07 506.71 59.07 506.71 50.57 498.23 50.57 498.23 48.28 515.19 48.28 515.19 39.79 489.75 39.79"/><polygon class="cls-1" points="159.13 91.42 150.65 91.42 150.65 48.28 142.17 39.79 142.17 99.91 167.62 99.91 167.62 39.79 159.13 39.79 159.13 91.42"/><polygon class="cls-1" points="441.19 39.8 441.19 48.28 461.09 48.28 461.09 99.91 469.57 99.91 469.57 48.28 478.05 39.8 441.19 39.8"/><polygon class="cls-1" points="371.31 0 344.88 0 344.88 35.31 371.31 63.36 295.14 4.54 295.14 37.91 336.49 69.84 295.14 101.78 295.14 135.15 344.88 96.73 344.88 139.7 371.31 139.7 371.31 96.73 421.05 135.15 421.05 101.78 379.7 69.84 421.05 37.91 421.05 4.54 371.31 42.96 371.31 0"/></g></svg>