<?xml version="1.0" encoding="UTF-8"?><svg id="Layer_2" xmlns="http://www.w3.org/2000/svg" viewBox="0 0 720 240"><defs><style>.cls-1{fill:#e6e7e8;}.cls-1,.cls-2{stroke-width:0px;}.cls-2{fill:#a8bbc1;}</style></defs><g id="Layer_1-2"><rect class="cls-1" width="720" height="240"/><path class="cls-2" d="M647.38,97.06c-6.47,0-11.74-5.27-11.74-11.74s5.27-11.73,11.74-11.73,11.74,5.26,11.74,11.73-5.27,11.74-11.74,11.74ZM647.38,76.27c-4.99,0-9.06,4.06-9.06,9.06s4.06,9.06,9.06,9.06,9.06-4.06,9.06-9.06-4.06-9.06-9.06-9.06Z"/><polygon class="cls-2" points="647.75 79.62 642.6 79.62 642.6 81.03 644.55 81.03 644.55 86.85 645.8 86.85 645.8 81.03 647.75 81.03 647.75 79.62"/><polygon class="cls-2" points="649.16 89.62 649.16 83.96 647.91 83.96 647.91 89.62 647.91 91.03 649.16 91.03 652.16 91.03 652.16 89.62 649.16 89.62"/><path class="cls-2" d="M279.52,75.02h-58.46c-3.72,0-7.99,2.97-9.54,6.64l-3.36,7.94h23.24l-21.78,51.46h24.13l21.78-51.46h17.83l6.17-14.58Z"/><path class="cls-2" d="M279.56,87.85l-3.4,8.03c-1.48,3.5-.62,6.64,2.17,7.89l26.95,12.08c.84.38,1.1,1.32.65,2.37l-1.51,3.56c-.94,2.22-3.53,4.02-5.78,4.02h-7.79c-1.78,0-2.62-1.42-1.88-3.18l.57-1.34h-24.13l-4.04,9.54c-2.36,5.58.31,10.09,5.97,10.09h40.05c7.21,0,15.49-5.76,18.5-12.86l5.1-12.05c1.87-4.42.78-8.38-2.75-9.96l-26.32-11.77c-.49-.22-.64-.77-.38-1.38l.36-.85c.88-2.08,3.31-3.77,5.42-3.77h5.75c4.47,0,4.02,3.57,4.02,3.57h24.13l2.36-5.58c2.66-6.28-.35-11.37-6.73-11.37h-38.63c-7.27,0-15.63,5.81-18.67,12.98Z"/><path class="cls-2" d="M392,74.87l-19.85,46.9c-.94,2.22-3.53,4.02-5.78,4.02h-7.15c-1.78,0-2.62-1.42-1.88-3.18l20.21-47.74h-19.32c-2.66,0-5.71,2.12-6.82,4.74l-21.67,51.2c-2.36,5.58.31,10.09,5.97,10.09h39.41c7.21,0,15.49-5.76,18.5-12.86l22.5-53.17h-24.12Z"/><path class="cls-2" d="M471.55,74.87c-2.25,0-4.84,1.8-5.77,4.02l-9.71,22.94c-.31.73-1.4,1-1.52.38l-5.38-27.35h-19.78c-1.55,0-3.2.51-4.69,1.39-2.1,1.18-3.95,3.11-4.86,5.25l-25.14,59.4h22.49l12.72-30.06c.31-.73,1.4-1,1.52-.38l5.99,30.44h25.64l27.95-66.04h-19.47Z"/><path class="cls-2" d="M608.21,75.4v65.51h-12.48v-36.01l-2.68-2.54-10.6,37.96h-16.52l-10.6-37.96-2.68,2.54v36.01h-12.5v-51.64c7.58-2.78,15.18-5.03,22.57-6.88l11.46,41.01,12.8-45.72c7.84-1.15,15.05-1.85,21.23-2.28Z"/><path class="cls-2" d="M630.08,74.87v66.04h-14.3v-65.91c1.31-.08,2.54-.11,3.69-.13h10.6Z"/><path class="cls-2" d="M522.25,97.06c-4.44,2.22-8.81,4.68-13.06,7.42l3.88,12.1h-16.79l1.18-3.64c-9.26,7.5-17.56,16.46-24.23,27.2l-.48,1.53h15.47l4.47-13.92h23.96l4.47,13.92h15.47l-14.35-44.6Z"/><path class="cls-2" d="M85.3,131.01c2.54-3.74,5.16-9.05,7.85-15.93l4.04,2.24c-1.5,4.93-3.81,10.17-6.95,15.7.3,1.2.07,1.57-.67,1.12l-4.26-3.14ZM93.6,110.15c-1.79-2.09-4.19-4.11-7.18-6.05l2.69-3.59c3.14,1.79,5.68,3.74,7.63,5.83l-3.14,3.81ZM95.84,96.47c-2.84-2.24-5.31-4.11-7.4-5.61l2.69-3.59c2.24,1.05,4.78,2.77,7.63,5.16l-2.92,4.04ZM130.38,98.48h6.5v3.59h-6.5v7.85h-11.89v4.04h13.91v4.26h-13.91v3.81h17.72v4.26h-17.72v9.42h-4.49v-9.42h-16.15v-4.26h16.15v-3.81h-13.01v-4.26h13.01v-4.04h-11.44v-3.59h11.44v-4.26h-15.7v-3.59h15.7v-4.49h-11.44v-3.59h11.44v-6.06h4.26c1.19.15,1.27.6.22,1.35v4.71h11.89v8.07ZM126.57,98.48v-4.49h-8.07v4.49h8.07ZM126.57,102.07h-8.07v4.26h8.07v-4.26Z"/><path class="cls-2" d="M140.23,131.68c3.59-4.49,6.95-9.94,10.09-16.37l3.36,2.92c-2.54,5.68-5.46,10.99-8.75,15.92.3.9.07,1.27-.67,1.12l-4.04-3.59ZM149.87,110.37c-2.69-2.24-5.53-4.18-8.52-5.83l2.69-4.04c3.29,1.35,6.2,3.22,8.75,5.61l-2.92,4.26ZM146.96,87.27c3.44,1.79,6.13,3.67,8.07,5.61l-3.14,4.49c-1.95-1.94-4.56-3.96-7.85-6.06l2.92-4.04ZM179.26,124.73c2.69,2.24,6.5,4.19,11.44,5.83l-1.57,4.93c-11.66-3.74-18.47-10.77-20.41-21.08h-5.38v14.58l10.09-2.24.45,3.81-18.17,4.49c-.15,1.04-.53,1.27-1.12.67l-.9-5.16,5.16-.9v-37.68h10.99v-7.18h4.26c1.19.15,1.27.6.22,1.35v5.83h10.99v22.43h-12.34c.45,2.69,1.64,5.24,3.59,7.63l9.87-7.18,3.14,3.59c.15.75-.22.97-1.12.67l-9.2,5.61ZM163.33,101.62h17.5v-6.06h-17.5v6.06ZM163.33,110.82h17.5v-5.61h-17.5v5.61Z"/><path class="cls-2" d="M222.85,164.22c-.27.41-1.22,1.41-1.66,1.68-.34.22-.86.39-1.25.39h-6.46v-14.61h6.46c.39,0,.91.15,1.25.36.44.27,1.39,1.32,1.66,1.73.22.34.29.75.29,1.17v8.11c0,.41-.07.83-.29,1.17ZM221.65,154.63c-.32-.56-1.13-1.32-1.52-1.51-.07-.05-.2-.07-.32-.07h-4.92v11.88h4.92c.12,0,.25-.02.32-.07.39-.19,1.2-.97,1.52-1.53.05-.1.07-.19.07-.32v-8.01c0-.12-.02-.27-.07-.36Z"/><path class="cls-2" d="M243.4,166.29v-14.61h8.42v1.36h-7v5.26h6.63v1.36h-6.63v5.26h7v1.36h-8.42Z"/><path class="cls-2" d="M273.62,153.04v5.26h6.63v1.36h-6.63v6.62h-1.42v-14.61h8.42v1.36h-7Z"/><path class="cls-2" d="M300.58,166.29v-14.61h8.42v1.36h-7v5.26h6.63v1.36h-6.63v5.26h7v1.36h-8.42Z"/><path class="cls-2" d="M337.17,166.29l-6.39-12.47v12.47h-1.37v-14.61h1.88l6.34,12.59v-12.59h1.37v14.61h-1.84Z"/><path class="cls-2" d="M369.29,164.34c-.27.41-1.25,1.41-1.69,1.68-.34.22-.86.39-1.25.39h-4.06c-.39,0-.93-.17-1.27-.39-.51-.32-1.17-1.07-1.52-1.53-.17-.24-.39-.61-.54-.95l1.39-.39c.1.22.17.29.17.29.34.58,1.08,1.32,1.49,1.53.07.05.22.07.34.07h3.89c.12,0,.22-.02.29-.07.39-.19,1.22-.9,1.54-1.46.05-.1.07-.19.07-.32v-1.56c0-.49-.32-1.02-.78-1.15l-6.7-1.83c-.95-.27-1.52-1.27-1.52-2.29v-1.51c0-.41.07-.85.29-1.19.27-.41,1.25-1.44,1.69-1.7.34-.22.86-.39,1.25-.39h3.65c.39,0,.9.17,1.25.39.51.32,1.18,1.07,1.52,1.53.17.24.42.61.56.95l-1.42.41c-.1-.22-.17-.32-.17-.32-.32-.58-1.08-1.32-1.49-1.53-.07-.05-.2-.07-.32-.07h-3.45c-.12,0-.24.02-.32.07-.39.19-1.2.85-1.52,1.41-.05.1-.1.19-.1.32v1.53c0,.49.32.97.76,1.1l6.68,1.85c.95.27,1.57,1.24,1.57,2.26v1.65c0,.41-.07.85-.29,1.19Z"/><path class="cls-2" d="M389.48,166.29v-14.61h8.42v1.36h-7v5.26h6.63v1.36h-6.63v5.26h7v1.36h-8.42Z"/><path class="cls-2" d="M450.32,164.34c-.27.41-1.25,1.41-1.69,1.68-.34.22-.86.39-1.25.39h-4.06c-.39,0-.93-.17-1.27-.39-.51-.32-1.17-1.07-1.52-1.53-.17-.24-.39-.61-.54-.95l1.39-.39c.1.22.17.29.17.29.34.58,1.08,1.32,1.49,1.53.07.05.22.07.34.07h3.89c.12,0,.22-.02.29-.07.39-.19,1.22-.9,1.54-1.46.05-.1.07-.19.07-.32v-1.56c0-.49-.32-1.02-.78-1.15l-6.7-1.83c-.95-.27-1.52-1.27-1.52-2.29v-1.51c0-.41.07-.85.29-1.19.27-.41,1.25-1.44,1.69-1.7.34-.22.86-.39,1.25-.39h3.65c.39,0,.9.17,1.25.39.51.32,1.18,1.07,1.52,1.53.17.24.42.61.56.95l-1.42.41c-.1-.22-.17-.32-.17-.32-.32-.58-1.08-1.32-1.49-1.53-.07-.05-.2-.07-.32-.07h-3.45c-.12,0-.24.02-.32.07-.39.19-1.2.85-1.52,1.41-.05.1-.1.19-.1.32v1.53c0,.49.32.97.76,1.1l6.68,1.85c.95.27,1.57,1.24,1.57,2.26v1.65c0,.41-.07.85-.29,1.19Z"/><path class="cls-2" d="M475.03,160.06v6.23h-1.42v-6.23l-4.55-8.38h1.57l3.69,6.94,3.74-6.94h1.54l-4.58,8.38Z"/><path class="cls-2" d="M508.07,164.34c-.27.41-1.25,1.41-1.69,1.68-.34.22-.86.39-1.25.39h-4.06c-.39,0-.93-.17-1.27-.39-.51-.32-1.17-1.07-1.52-1.53-.17-.24-.39-.61-.54-.95l1.39-.39c.1.22.17.29.17.29.34.58,1.08,1.32,1.49,1.53.07.05.22.07.34.07h3.89c.12,0,.22-.02.29-.07.39-.19,1.22-.9,1.54-1.46.05-.1.07-.19.07-.32v-1.56c0-.49-.32-1.02-.78-1.15l-6.7-1.83c-.95-.27-1.52-1.27-1.52-2.29v-1.51c0-.41.07-.85.29-1.19.27-.41,1.25-1.44,1.69-1.7.34-.22.86-.39,1.25-.39h3.65c.39,0,.9.17,1.25.39.51.32,1.18,1.07,1.52,1.53.17.24.42.61.56.95l-1.42.41c-.1-.22-.17-.32-.17-.32-.32-.58-1.08-1.32-1.49-1.53-.07-.05-.2-.07-.32-.07h-3.45c-.12,0-.24.02-.32.07-.39.19-1.2.85-1.52,1.41-.05.1-.1.19-.1.32v1.53c0,.49.32.97.76,1.1l6.68,1.85c.95.27,1.57,1.24,1.57,2.26v1.65c0,.41-.07.85-.29,1.19Z"/><path class="cls-2" d="M532.85,153.04v13.24h-1.42v-13.24h-4.18v-1.36h9.79v1.36h-4.18Z"/><path class="cls-2" d="M556.37,166.29v-14.61h8.42v1.36h-7v5.26h6.63v1.36h-6.63v5.26h7v1.36h-8.42Z"/><path class="cls-2" d="M596.47,166.29v-13.1l-4.92,13.22h-.95l-5.27-13.22v13.1h-1.37v-14.61h2.03l5.1,12.59,4.75-12.59h2.01v14.61h-1.37Z"/><path class="cls-2" d="M627.52,164.34c-.27.41-1.25,1.41-1.69,1.68-.34.22-.86.39-1.25.39h-4.06c-.39,0-.93-.17-1.27-.39-.51-.32-1.17-1.07-1.52-1.53-.17-.24-.39-.61-.54-.95l1.39-.39c.1.22.17.29.17.29.34.58,1.08,1.32,1.49,1.53.07.05.22.07.34.07h3.89c.12,0,.22-.02.29-.07.39-.19,1.22-.9,1.54-1.46.05-.1.07-.19.07-.32v-1.56c0-.49-.32-1.02-.78-1.15l-6.7-1.83c-.95-.27-1.52-1.27-1.52-2.29v-1.51c0-.41.07-.85.29-1.19.27-.41,1.25-1.44,1.69-1.7.34-.22.86-.39,1.25-.39h3.65c.39,0,.9.17,1.25.39.51.32,1.18,1.07,1.52,1.53.17.24.42.61.56.95l-1.42.41c-.1-.22-.17-.32-.17-.32-.32-.58-1.08-1.32-1.49-1.53-.07-.05-.2-.07-.32-.07h-3.45c-.12,0-.24.02-.32.07-.39.19-1.2.85-1.52,1.41-.05.1-.1.19-.1.32v1.53c0,.49.32.97.76,1.1l6.68,1.85c.95.27,1.57,1.24,1.57,2.26v1.65c0,.41-.07.85-.29,1.19Z"/><path class="cls-2" d="M198.62,143.58h-125.23v-52.93c0-8.62,6.94-15.64,15.47-15.64h109.76v68.56ZM76.06,140.88h119.87v-63.15h-107.08c-7.05,0-12.79,5.8-12.79,12.93v50.22Z"/></g></svg>