<?xml version="1.0" encoding="UTF-8"?><svg id="Layer_2" xmlns="http://www.w3.org/2000/svg" viewBox="0 0 477.51 158.31"><defs><style>.cls-1{fill:#fff;stroke-width:0px;}</style></defs><g id="Layer_1-2"><path class="cls-1" d="M224.21,119.27c5.62-4.44,11.97-5.79,13.54-16.59,1.44-8.81,3.8-17.47,5.66-26.22.31-1.44.45-3.65.45-5.5-3.55.37-7.12,1.77-7.68,5.4-.51,3.3-.99,6.66-.85,9.93.3,7.52-1.81,13.64-8.11,18.09-6.22,4.39-16.8,11.67-24.15,14.89,3.94-4.38,8.99-8.87,10.42-14.87,1.07-4.51,1.35-10.1,2.1-15.6.51-3.74,1.42-7.53,1.9-10.65.1-.62-.05-1.28-.11-2.68-3.9,2.31-7.41,4.39-10.92,6.49-1.15.69-2.19,1.64-3.42,2.12-3.13,1.23-6.12,1.86-7.43,4.16s-1.55,14.02-2.2,17.91c5.06-.71,10.29-3.32,10.29-3.32,0,0-4.77,10.12-28.17,19.34-1.12-.85-.22-8.9.34-14.06-4.24,3.49-13.84,13.39-23.58,16.2,0-4.13.37-10.46.37-15.45-3.56.67-11.96,11.1-19.64,15.5-1.52.87-3.36,1.18-4.66.36-1.02-.64-.98-3.97-.83-5.77.86-10.24,4.52-32.91,4.52-34.57-5,2.16-8.14,5.59-9.45,10.91-2.19,8.89-2.54,13.01-2.54,13.01-1.67,1.45-4.65,3.3-7.59,5.05s-7.71,4.18-7.71,4.18c0,0-2.47-3.17-2.81-4.67-1.86-8.23,2.74-13.19,9.32-17.44,6.72-4.33,12.83-9.61,19.2-14.48.53-.41,1.08-.8,1.56-1.27,2.71-2.68,2.48-4.04-1.04-5.91-.76-.4-1.61-.64-2.3-.9-2.16,1.91-6.07,6.51-9.01,8.12-2.42,1.32-4.13-.16-4.13-.16,0,0,7.8-8.78,9.79-11.22,4.52-5.55,9.48-11.51,14.03-17.45,1.68.7,2.34,1.44,3.71,2.03,8.33,3.56,8.18,4.08,5.96,12.6-3.28,12.59-4.54,25.2-6.43,37.83-.06.37.27.81.42,1.22,6.82.4,9.66-1.4,10.61-7.5,1.34-8.63,2.38-17.31,3.43-25.98,1.27-10.44,2.43-20.89,3.64-31.33.05-.44.44-1.03.27-1.29-3.25-4.95.86-7.81,3.28-10.9,3.74-4.76,7.83-9.26,11.89-13.77,1.29-1.44,2.94-2.57,4.95-4.29.78,1.87,1.72,3.03,1.65,4.12-.38,5.81-.96,11.6-1.58,17.39-.71,6.66-1.49,13.32-2.34,19.97-1.67,13.11-3.43,26.21-5.11,39.32-.33,2.6-.46,5.23-.69,7.96,3.76-.07,4.73-2.87,4.73-2.87,0,0,.98-15.21,2.02-20.93,0,0,9.79-12.81,20.91-18.29-1.33,9.05-3.52,17.47-4.59,24.81.4.09,2.42-.14,2.81-.06,1.43-4.93,2.32-10.63,3.81-15.55.44-1.46.75-3.3,1.79-4.17,5.47-4.54,11.3-10.02,19.52-11.99-.54,4.14-1.9,9.07-2.47,13.5,6.15-4.88,13.23-8.8,18.85-10.37,2.76,7.65-2.12,10.24-2.5,15.55,1.97-1.15,4.98-2.62,6.45-3.47,3.68-2.13,7.16-4.77,11.09-6.23,4.41-1.63,8.07-3.79,11.02-8.8.12,4.24,1.16,6.63,2.06,7.41,1.27-7.86,2.85-15.58,4.11-23.42-5.38.97-10.43,2.62-14.92,3.6-4.14.9-14.93,3.37-16.64,4.1-1.81.77-2.71-1.78-3.03-6.64,6.14-4.47,13.1-7.26,20.81-8.91,1.01,1.74.76,3.82,1.84,5.68,3.18-.51,12.9-2.25,12.9-2.25,0,0,1.27-9.82,1.5-13.58-2.13.45-4.68,1-6.82,1.65,6.32-8.56,17.35-13.51,26.17-18.3,3.2,5.45.03,15.01-1.12,24.08,10.27-3.07,17.15-5.06,23.55-6.13,3.68-.62,4.6.15,5.1,3.17.4,2.4.3,3.78.9,7.09-7.12,3-14.48,5.25-23.43,6.07-.45-3.09-.24-5.04-.65-7.87-2.8.26-6.53,1.73-6.53,1.73,0,0-.46,3.57-.64,4.48-2.29,11.41-4.92,22.75-7.53,34.09-1.76,7.63-3.79,15.2-5.54,22.83-1.24,5.38-2.23,10.82-3.37,16.43,8.62-.46,8.81-.44,10.25-7.23,1.86-8.73,3.87-18.82,5.65-28.01-.92-.29-2.03-.23-3.71.27-.12-2.38,19.9-11.88,27.89-12.95-.84,2.68-2.38,5.47-3.37,8.63,3.99-.28,19.07-13.11,27.33-15.08,2.9,3.96.12,8.44,3.05,11.59,1.86,1.97,14.09-8.15,27.68-11.42.9,5.79-.6,10.7-1.56,15.42-1.33,6.57-3.14,13.05-4.51,19.62-.94,4.52-2.44,8.57-6.24,11.53-7.56,5.89-25.5,18.79-25.4,18.68,6.44-6.76,8.93-18.16,10.88-26.56,1.06-4.57,2.1-9.15,3.07-13.74.53-2.5.89-5.03,1.41-8.07-5.55,1.5-8.12,4.72-9.22,9.05-1.7,6.71-3.12,13.49-4.64,20.25-.75,3.34-2.18,6.09-4.74,8.6-6.73,5.67-16.67,10.4-23.01,11.9,1.39-1.46,5.7-8.4,5.99-12.34.38-5.22,1.14-9.41,4.44-13.69.82-1.07,2.09-3.4,2.1-4.8.02-2.74-1.37-6.62-1.5-9-.15-2.81.8-6.42.6-9.3-6.15-.52-7.24.31-7.73,5.3-1.06,10.6-3.37,19.98-7.94,31.45.52.16,5.15-1.47,7.95-.61-9,5.63-20.2,10.67-30.14,15.41,1.29-4.88,2.2-8.36,3.12-11.85l-.96-.92c-4.12,2.76-8.09,5.79-12.4,8.21-4.22,2.38-7.12,7.95-13.83,5.99-.05-7.09,10.86-44.73,9.81-56.43-.78,2.1-4.56,19-5.89,23.17-.6,1.86-.83,4.21-2.1,5.43-8.18,7.83-15.14,17.1-25.44,22.48-1.85.96-7.9,2.35-7.9,2.35Z"/><path class="cls-1" d="M405.03,99.98c-16.18,2.23-28.51,11.84-43.88,15.71,1.99-6.39,3.9-11.35,5.05-16.48,2.55-11.36,4.82-22.78,7-34.21.81-4.22,3.38-6.95,6.88-8.59,5.78-2.71,14.19-7.9,16.86-6.09.39.27,1.33-.99,2.33-1.35,4.44-1.61,11.08-4.41,15.52-6.18,2.11-.84,4.05-.95,4.56-.45,2.51,2.5-2.62,21.95-4.45,30.7-.68,3.22-1.53,6.41-2.46,10.28,4.25-.49,7.69-.3,9.58-4.93.9-2.2,7.41-5.57,7.22-5.78-5.85-6.58-6.39-10.01-6.44-16.25-.03-3.43.3-6.76.28-9.91-.04-7.29,3.75-12.22,9.59-15.93,1.51-.96,3.04-1.89,4.63-2.71,8.85-4.59,17.61-9.37,26.62-13.6,5.43-2.55,6.55-1.9,8.58,3.38,1.76,4.58,3.17,9.3,4.68,13.98.88,2.72-.03,5.02-2.37,6.43-5.77,3.46-11.6,6.82-17.55,9.96-1.18.62-2.96.09-5.36.09,6.89-7.23,1.68-13.2-.94-19.32-.4-.92-1.99-1.58-3.14-1.79-.4-.07-1.55,1.53-1.63,2.43-.65,7.36-1.55,14.74-1.44,22.11.04,2.76,1.92,6.14,4.02,8.12,7.33,6.91,12.06,15.61,17.59,23.78.89,1.32,1.5,3.74,1.31,4.68s-9.08,9.23-39.84,21.14c-6.04,2.34-11.42,6.16-17.29,8.9-18.5,8.66-36.85,17.73-55.72,25.52-16.57,6.84-34.08,10.54-52.08,12.17-7.32.66-22.18,5.33-28.31.04,5.34,2.93,10.81,1.16,12.5-.26,2.79-2.36,5.89-2.84,9.3-3.11,3.54-.28,7.05-1.01,10.57-1.58,5.29-.86,10.59-1.67,15.86-2.63,16.79-3.05,33.06-7.89,48.72-14.68,6.59-2.86,13.04-6.01,19.57-9,4.14-1.89,7.56-5.97,9.25-14.19.56-2.72,2.16-1.22,3.26-3.83.92-2.18.59-3.55,1.57-6.55ZM430.32,75.85c-.38,4.54-.52,7.87-.97,11.15-.47,3.45-4.22,6.3.13,9.3.7.48-.34,3.91-.57,5.44-.21,1.4-1.1,2.82-1.38,5.6,5.54-3.61,10.88-6.44,15.26-9.49,1.52-1.06,2.44-2.68,1.17-4.68-3.02-4.72-5.92-9.52-9.1-14.13-.7-1.01-2.44-3.12-2.89-3.76-.54.29-1.21.41-1.65.57ZM383.98,102.1c3.48.4,6.18.17,6.33-3.51.44-10.84,4.12-20.56,6.4-31,.48-2.22,1.81-8.8-.37-8.8s-7.37,29.2-12.36,43.3Z"/><path class="cls-1" d="M317.29,36.17c.96,1.52.96,6.76.96,10.58-5.63,2.92-13.67,6.53-22,7.83-.61-4.78-.44-9.23,0-10.13,1.42-.95,20.08-9.79,21.04-8.27Z"/><path class="cls-1" d="M124.58,111.04c-7.4,5.96-14.95,11.18-23.4,12.99,3.09-3.49,21.01-13.65,23.4-12.99Z"/><path class="cls-1" d="M152.27,20.43c-6.71,5.24-10.86,12-15.4,18.29-7.47,10.35-14.25,21.19-21.54,31.66-2.55,3.67-9.92,11.44-9.92,11.44,0,0,1.66-11.12,3.26-15.45,5.81-17.92,16.16-39.23,19.16-43.62,1.12-1.63,1.13-5.35,1.13-5.35,0,0-2.49.9-3.08,1.1-12.58,4.2-24.88,10.49-36.44,18.55-1.68-3.57-2.56-6.92-3.91-9.91-.62-1.38-2.47-3.21-2.47-3.21,0,0-1.33,1.41-2.22,2.28-2.09,2.04-4.1,4.17-6.05,6.35-4.5,5-7.4,8.77-7.4,8.77,0,0,2.46,5.99,5.15,10.63,1.14,1.97,4,4.15,4,4.15,0,0,1.63-1.15,3.07-1.85,1.88-.92,3.64-2.09,6.54-3.78-.69,2.51-1.05,3.74-1.36,4.97-1.65,6.51-4,12.93-4.76,19.54-1.35,11.63-4,22.88-8.13,33.75-1.29,3.4-3.91,6.68-6.74,9.01-4.84,3.97-10.25,7.26-15.54,10.64-4.8,3.07-5.81,1.61-7.9-.25-.97-.87-1.57-.02-2.84-.36-5.95-1.6-8.9.04-9.81,6.18-.39,2.68-1.59,4.11-3.77,4.97-2.71,1.07-5.52,1.9-8.27,2.86-5.22,1.82-13.2,4.65-17.02,5.78,0,0,7.92-.55,13.11-1.9,6.39-1.66,10.6-3.25,10.6-3.25,0,0-1.76,1.66-1.76,1.83.03.99-.68,2.35-.68,2.35,0,0,2.65.04,4.33-.36,1.45-.34,1.91-1.12,2.49-1.35,6.59-2.58,12.05-6.03,17.79-10.27,2.58-1.91,5.45-4.77,8.1-6.41,7.03-4.34,16.32-8.82,18.85-10.45,2.53-1.63,6.24-2.48,6.24-2.48,0,0-3.08,3.63-5.91,5.57s-10.91,8.08-14.46,10.46c5.51-2.87,14.06-7.37,18.34-10.18s8.39-5.67,11.57-9.93c6.24-8.37,12.6-16.67,19.31-24.67,2.57-3.07,10.85-13.64,11.59-14.68,4.54-6.39,9.16-12.72,13.77-19.06,2.48-3.41,7.6-11.03,7.6-11.03,0,0,4.42,3.64,5.39,2.51s9.63-11.32,14.16-16.54c-3.13-2.78-5.57-4.96-8.17-7.27Z"/><path class="cls-1" d="M309.28,105.78c-.14.1-.29.28-.42.27-.13,0-.26-.21-.38-.33.14-.1.29-.29.43-.28.13,0,.25.21.38.33Z"/><path class="cls-1" d="M225.9,118.52c-.21.25-.41.5-.62.75.04-.15.02-.35.12-.42.17-.12.39-.16.6-.24l-.09-.09Z"/><path class="cls-1" d="M63.67,128.78c-.15.1-.3.29-.44.27-.14-.02-.25-.23-.37-.36.15-.1.3-.29.44-.27.13.01.25.23.37.36Z"/></g></svg>