<?xml version="1.0" encoding="UTF-8"?><svg id="Layer_2" xmlns="http://www.w3.org/2000/svg" viewBox="0 0 624.53 93.43"><defs><style>.cls-1{fill:#fff;}</style></defs><g id="Layer_1-2"><path class="cls-1" d="M463.64,64.48h-81.09v14.06h-19.02v-21.71h34.81v-14.89h-46.66c-.06,0-.21.05-.45.13-.24.09-.51.19-.81.31-.3.12-.58.25-.85.4-.27.15-.43.29-.49.4-.12.18-.27.48-.45.9-.18.42-.36.85-.54,1.3-.18.45-.34.85-.49,1.21-.15.36-.22.63-.22.81v31.17h-59.38l10.63,14.86h99.62v-14.09h59.37l6.02-14.86Z"/><polygon class="cls-1" points="93.59 0 71.2 47.72 48.81 0 28.97 0 61.12 69.19 56.72 78.58 19.85 0 0 0 43.42 93.43 70.01 93.43 106.53 14.86 624.53 14.86 624.53 0 93.59 0"/><path class="cls-1" d="M281.7,79.52c.84-.24,1.67-.6,2.51-1.08.84-.48,1.58-1.06,2.24-1.75.66-.69.99-1.45.99-2.29v-29.79l-2.24-2.69h-49.89v36.65h-58.68v-31.44c-.12-.6-.27-1.12-.45-1.57-.18-.45-.4-.85-.67-1.21-.27-.36-.6-.75-.99-1.17-.39-.42-.88-.9-1.48-1.44h-34.36l-14.64,36.82h-41.82l-6.97,14.86h60.92s15.34-36.61,15.34-36.61h8.7v8.25h-7.45l-6.55,14.89h14.62v13.46h90.26v-16.33h4.93l13.73,16.33h19.74l-9.69-13.55c.42,0,1.05-.12,1.88-.36ZM271.12,64.98h-6.28c-2.63,0-5.11.6-7.45,1.79-2.33,1.2-4.28,3.29-5.83,6.28v-16.24h19.56v8.16Z"/><path class="cls-1" d="M576.17,42.6c-.66.33-1.08.61-1.26.85-.18.36-.45.88-.81,1.57-.36.69-.54,1.12-.54,1.3v24.4c0,.9.37,1.78,1.12,2.65.75.87,1.45,1.42,2.11,1.66h32.03v1.97l-.45,1.53-93.49.04v-31.44c-.12-.6-.27-1.12-.45-1.57-.18-.45-.4-.85-.67-1.21-.27-.36-.6-.75-.99-1.17-.39-.42-.88-.9-1.48-1.44h-34.36l-20.55,51.68h18.03l15.34-36.61h8.7v8.25h-7.45l-6.55,14.89h14.62v13.46h121.67c.36,0,.76-.18,1.21-.54.45-.36.85-.81,1.21-1.35.36-.54.67-1.09.94-1.66.27-.57.4-1.09.4-1.57v-23.33c-.54-1.02-1.03-1.94-1.48-2.78-.45-.84-1.15-1.53-2.11-2.06h-21.17c-1.91.42-3.72,1.12-5.43,2.11-1.7.99-3.22,2.44-4.53,4.35v-9.78h34.72v-14.8h-47.37c0,.06-.33.25-.99.58Z"/></g></svg>