<?xml version="1.0" encoding="UTF-8"?><svg id="Layer_2" xmlns="http://www.w3.org/2000/svg" viewBox="0 0 296.98 156.2"><defs><style>.cls-1{fill:#fff;}</style></defs><g id="Layer_1-2"><path class="cls-1" d="M296.98,0h-53.71l-27.08,15.69h-17.28l-16.05-12h-68.74l-16.05,12h-17.28L53.71,0H0l47.89,29.68,6.29,39.38.36.5c17.21,24.23,41.67,39.27,59.17,47.62,18.92,9.03,33.61,12.31,34.22,12.45l.57.12.57-.12c.62-.14,15.3-3.42,34.22-12.45,17.5-8.35,41.97-23.39,59.17-47.62l.36-.5,6.29-39.38L296.98,0ZM115.87,8.96h65.23l8.52,6.37-41.14,22.19-41.14-22.19,8.52-6.37ZM52.29,5.27l96.2,55.74L244.69,5.27h33.79l-129.99,80.57L18.5,5.27h33.79ZM59.18,67.01l-5.37-33.66,72.19,44.75,19.99,45.6c-12.37-3.38-59.25-18.31-86.81-56.69ZM243.17,33.36l-5.37,33.66c-16.5,22.98-39.89,37.34-56.66,45.36-13.45,6.43-24.9,9.92-30.15,11.34l19.99-45.61,72.19-44.75Z"/><path class="cls-1" d="M12.39,141.33h4.94l3.3,10.93,8.2-10.93h4.94l-11.2,14.71h-5.57l-4.6-14.71Z"/><path class="cls-1" d="M49.52,141.33h4.51l-3.3,14.71h-4.51l3.3-14.71Z"/><path class="cls-1" d="M71.21,141.33h4.51l-2.45,10.93h10.14l-.85,3.78h-14.65l3.3-14.71Z"/><path class="cls-1" d="M101.66,141.33h4.51l-2.45,10.93h10.14l-.85,3.78h-14.65l3.3-14.71Z"/><path class="cls-1" d="M132.11,141.33h16.09l-.76,3.41h-11.58l-.53,2.36h10.97l-.68,3.05h-10.97l-.53,2.36h11.84l-.79,3.53h-16.35l3.3-14.71Z"/><path class="cls-1" d="M165.07,141.33h15.36l-.79,3.53h-10.85l-.61,2.74h10.34l-.77,3.41h-10.34l-1.12,5.02h-4.51l3.3-14.71Z"/><path class="cls-1" d="M195.56,146.49c.24-1.07.58-1.95,1.03-2.64.45-.69.99-1.24,1.65-1.63.65-.4,1.39-.67,2.23-.82.83-.15,1.76-.22,2.77-.22h7.23c1.02,0,1.91.08,2.67.22s1.38.42,1.86.82c.47.4.78.94.91,1.63s.08,1.57-.15,2.64l-.98,4.39c-.24,1.08-.59,1.97-1.03,2.65-.44.68-.99,1.23-1.64,1.63-.65.4-1.39.67-2.23.82-.83.15-1.76.22-2.77.22h-7.23c-1.02,0-1.91-.07-2.67-.22-.77-.15-1.38-.42-1.86-.82-.47-.4-.78-.94-.92-1.63-.14-.68-.09-1.57.16-2.65l.98-4.39ZM199.53,149.48c-.12.53-.19.98-.2,1.36s.04.68.18.91c.14.23.36.4.68.51.31.11.74.16,1.26.16h5.77c.53,0,.97-.05,1.34-.16.36-.11.66-.28.91-.51.24-.23.44-.53.59-.91.15-.38.29-.83.41-1.36l.36-1.59c.1-.46.16-.87.16-1.23,0-.36-.06-.67-.21-.92s-.39-.45-.72-.59c-.34-.14-.8-.2-1.4-.2h-5.28c-.6,0-1.09.07-1.49.2-.4.14-.72.33-.98.59-.26.26-.47.57-.62.92-.15.36-.28.77-.39,1.23l-.36,1.59Z"/><path class="cls-1" d="M233.53,141.33h13.61c.87,0,1.56.1,2.08.31.52.21.91.5,1.15.88.25.38.38.84.39,1.37.01.54-.05,1.13-.2,1.8l-.21.93c-.11.49-.24.93-.4,1.32-.16.39-.36.74-.61,1.04-.25.3-.56.55-.94.76-.38.21-.84.38-1.38.5v.04c.31.07.61.16.88.27.27.12.49.29.66.54s.27.56.32.94c.04.39,0,.88-.14,1.49l-.56,2.5h-4.51l.4-1.77c.17-.77.16-1.31-.04-1.61-.2-.3-.65-.45-1.35-.45h-7.09l-.86,3.82h-4.51l3.3-14.71ZM236.42,148.56h7.45c.61,0,1.07-.13,1.37-.38.31-.25.52-.64.64-1.17l.11-.49c.15-.65.07-1.07-.22-1.26-.29-.19-.79-.28-1.51-.28h-7.05l-.8,3.58Z"/><path class="cls-1" d="M267.41,141.33h17.18l-.82,3.66h-6.34l-2.48,11.05h-4.51l2.48-11.05h-6.34l.82-3.66Z"/></g></svg>