<?xml version="1.0" encoding="UTF-8"?><svg id="Layer_2" xmlns="http://www.w3.org/2000/svg" viewBox="0 0 321.61 158.77"><defs><style>.cls-1{fill:#fff;stroke-width:0px;}</style></defs><g id="Layer_1-2"><path class="cls-1" d="M14.65,15.19c.29.7,4.89,36.61,4.62,38.92-.27,2.31.49,6.34.76,9.78.27,3.43,2.54,23.23,1.63,24.74-.25.42-.2,1-1.02,1.7-1.24,1.05-2.9,1.65-2.81,2.69.13,1.43,1,2.47,3.27,2.4,2.27-.07,4.94-.17,5.38.1.44.27,1.81,1.15,3.24.75,1.43-.39,2.73-1.13,2.3-2.26-.43-1.14-1.15-.76-1.43-1.77-.28-1.02,6.01-20.95,7.44-28.56,1.44-7.66,2.67-21.81,3.52-24.53.85-2.73,4.72-22.24,5.64-23.13.92-.89,3.39-1.59,4.56-1.55,1.17.05,3.04.29,2.86-1.05-.18-1.34-1.13-2.48-4.56-2.37-3.43.11-9.37.71-10.18.62-.81-.1-2.84.3-2.79,1.3.05.99,1.22,3.13,2.44,4.26,1.23,1.13-.33,5.68-.89,7.56-.55,1.87-5.74,25.71-5.97,28.02-.23,2.31-2.46,13.9-3.64,14.05-1.18.16-1.87.12-1.87-.41,0-.52-2.1-27.88-2.46-29.78-.36-1.9-2.65-21.73-1.8-22.28.85-.55,2.77.06,2.99-1,.39-1.89-1.61-3.14-6.05-3.63-4.45-.49-10.26-1.07-11.64.05-1.38,1.12.89,2.17,2.64,3.41,1.75,1.24,3.52,1.29,3.81,1.99Z"/><path class="cls-1" d="M50.48,53.36c-1.07.38-3.33-.38-3.33,2.13s29.45,38.56,29.67,41.08c.02.28-1.87,2.14-1.98,3.28-.1,1.13.61,5.84,3.61,4.69,3-1.15,2.45-2.45,3.09-2.46.64-.01.74,2.41,3.17,2.51,2.42.1,3.34-2.2,2.79-3.22-.55-1.03-2.22-3.29-2.32-4.05-.1-.76,18.26-43.92,18.09-44.44-.17-.52-16.52-34.42-18.36-34.87-1.85-.45-4.09-.58-5.05-2.15-.97-1.57-2.57-4.09-2.49-4.98.08-.89,3.39-4.42,1.95-5.31-1.44-.89-4.23-1.19-5.49,1.99,0,0-2.6-2.71-4.8-2.59-2.21.13-3.29,1.65-2.29,3.14,1,1.49,2.51,3.15,2.51,3.15,0,0-2.93,8.31-6.64,16.9-5.1,11.81-11.51,24.97-12.13,25.19ZM73.18,18.05s.48.72.97,1.37c.48.65,3.59,5.61,4.91,7.23.54.66,3.19,5.28,6.17,10.57l-7-8.03c2.61,3.63,2.34,4.62,3.94,7.26.94,1.55,4.52,5.43,7.3,8.35,2.8,5.03,5.11,9.24,5.31,9.61.48.95-4.28,12.53-5.21,16.23-.93,3.7-3.46,6.78-3.96,8.15-.5,1.37-3.82,8.66-4.99,8.49-1.17-.17-8.52-10.62-8.52-10.62l-8.09-13.91-4.98-11.4s6.26-15.06,8.42-19.8c1.85-4.06,5.74-13.51,5.74-13.51Z"/><path class="cls-1" d="M71.96,55.16c.64.38,1.02,1.71.57,1.9-.45.19-2.06,1.78-1.8,2.44.26.66,1.25,1.32,1.92.69.67-.62.93-1.5,1.42-1.44,1.41.18.71,4.02,1.15,4.97.44.94,1.26,1.55,2.07,1.44.81-.1,2.13-.31,1.74-1.86-.39-1.56-1.71-2.87-1.44-3.21.27-.33,1.4-1.01,2.01-.45.61.56,1.39,2.54,2.23,2.77.84.23,2.82.81,3.52-.24.7-1.05.18-1.55-.73-1.82-.91-.27-3.71-2.21-4.14-3.25-.43-1.04.27-1.75.54-1.75.27,0,2.98.77,4.63.48,1.65-.29,1.61-1.3,1.11-1.96-.36-.48-1.65-.93-3.21-.73-1.56.2-2.49-.2-2.8-1.09-.31-.89.81-1.85,1.15-2.34.34-.48.49-2.05-.14-2.52-.62-.47-1.78-.31-2.11-.14-.33.16-1.56,2.34-2.03,2.51-.47.16-.79.08-.94-.28-.16-.36-.41-4.75-2.18-4.88-1.77-.13-.43,5.24-.59,5.81-.16.58-.84,1.11-1.25.49-.42-.62-2.79-3.52-3.73-3.57-.94-.04-2.32.74-1.37,2.08.95,1.33,3.09,1.6,3.11,2.42.02.81-2.37,1.26-3.25,1.32-.88.06-.94,1.5-.4,1.87,2.36,1.6,4.3-.04,4.95.34Z"/><path class="cls-1" d="M224.25,95.92c0,.27-4.12,3.63-2.06,5.86.69.74,4.12-3.85,4.73-3.86.61-.01,2.03,6.54,4.32,6.63,2.29.09,4.24-1.87,3.78-2.87-.46-1-1.08-3.82-1.12-4.56-.04-.74,19.34-40.91,19.21-41.41-.09-.36-8.75-22.28-14.58-32.83-1.15-2.08-2.69-1.07-3.99-2.94-1.31-1.88-2.36-4.28-2.48-4.49-.82-1.53,5.03-7.58,3.37-10.09-1.66-2.52-6.18-.8-7.57,2.3,0,0-3.28-2.93-5.38-2.81-2.1.12-3.22,1.61-2.37,3.06.85,1.45,4.86,6.58,4.86,6.58,0,0-3.68,6.18-8.1,13.53l5.08-14.53c-1.82-1.41-8.3,9.68-9.29,12.74-.78,2.41-5.56,15.56-7.54,20.96-1.81,2.85-3.05,4.71-3.28,4.8-.58.21,6.42,15.79,12.74,27.5,5.03,9.33,9.67,15.33,9.69,16.43ZM228.13,21.87c.42.63,2.29,3.58,3.44,5.16,1.14,1.58,14.19,29.67,14.22,31.39.03,1.72-14.99,31.01-16.08,30.85-1.09-.16-8.84-14.55-8.84-14.55l-5.37-13.96-5.43-10.73s17.65-28.8,18.07-28.17Z"/><path class="cls-1" d="M223.82,56.8c.36,1.3-3.58,2.83-2.04,4.84,1,1.31,3.13.12,3.77.69.64.57.35,1.33.71,2.25.36.92.99,1.67,1.76,1.57.78-.1,2.02-.56,1.76-2.07-.27-1.52.62-6.53,1.17-5.98.54.55,3.06,4.44,3.83,5.28.76.84,2.28,1.22,3.38.56.96-.57.75-1.84-.16-2.11-.85-.25-1.84-2.63-2.18-3.64-.34-1.01,1.34-1.84,1.4-2.76.04-.55-.45-1.19-1.94-1-1.49.2-2.93-.46-3.17-1.32-.24-.86,1.71-2.41,2.06-2.88.35-.47.93-1.37.36-1.84-.56-.46-1.67-.3-1.99-.14-.32.16-1.73,1.87-2.19,2.03-.45.16-.63-.32-.76-.67-.13-.35-.05-5.37-1.72-5.5-.49-.04-1.78.45-1.92,1.28-.34,1.98.72,5.29.59,5.69-.19.56-1.12.44-1.47-.16-.35-.6-1.81-2.6-2.61-.99-.67,1.35.5,1.94.47,2.73-.03.79-1.52,1.26-2.35,1.31-.83.05-.99,1.46-.5,1.82,2.14,1.56,3.38-.31,3.74.99Z"/><path class="cls-1" d="M269.77,78.28c5.09,9.24,11.98,13.33,11.78,15.91-.21,2.57-.87,2.98.72,4.81.66.77,4.35-1.58,4.99-1.59.64-.01,1.85,2.7,4.28,2.79,2.43.09,1.79-4.63,1.33-5.62-.46-.99-.56-4.97-.59-5.71-.03-.74,19.58-32.37,19.45-32.87-.09-.36-17.13-31.99-18.47-33.84-1.34-1.85-4.61-5.83-4.73-6.04-.83-1.52,4.67-8.71,2.97-11.2-1.7-2.49-5.16,5.37-6.41,5.31-1.25-.06-3.38-2.54-5.61-2.41-2.23.12-5.13.93-4.26,2.37.87,1.43,2.92,4.89,2.92,4.89,0,0-19.89,38.97-19.91,41.85-.03,2.86,5.15,9.76,11.54,21.36ZM284.37,21.65c.43.63,4.76,6.71,5.93,8.27,1.17,1.55,14.9,24.53,14.89,26.23,0,.4-3.07,4.02-4.59,6.9-5,9.44-11.32,23.5-12.21,23.38-1.15-.16-13.18-13.28-13.18-13.28,0,0-7.63-11.53-7.63-15.59,0-4.08,16.36-36.54,16.78-35.91Z"/><path class="cls-1" d="M281.61,58.24c.34,1.29-2.14,1.15-.58,3.15,1.02,1.3,2.58.07,3.24.63.66.57-.16,1.71.19,2.62.35.91,1.44,1.79,2.25,1.69.82-.1,2.29-.55,2.05-2.05-.24-1.51-.1-3.27.7-3.35.93-.08,1.39.67,2.17,1.51.78.84,1.97,1.31,2.73.23.71-1.01.03-2.19-1.61-3.17-.78-.47-.88-1.2-1.21-2.21-.33-1.01,4.12.07,4.35-1.29.26-1.57-.91-2.13-2.48-1.93-1.57.2-2.62.37-2.85-.49-.23-.86,2.21-2.74,2.6-3.2.38-.47.76-2.07.18-2.52-.58-.46-1.67-.23-2.01-.08s-3.41,2.37-3.54,2.03c-.12-.35.79-3.07-.96-3.19-.51-.04-1.49.4-1.66,1.21-.41,1.96-.34,2.99-.49,3.39-.21.56-1.37.46-1.73-.14-.36-.6-1.93-2.07-2.81-.47-.74,1.35,2.46,2.97,2.41,3.75-.06.79-2.88-.05-3.71.59-.69.53-.91,1.89-.59,2.41.76,1.23,3.02-.4,3.36.89Z"/><path class="cls-1" d="M112.67,68.35c1.88,4.75,4.74,11.57,6.39,13.57,2.62,3.16,6.36,9.47,6.36,9.47-.37-1.89-2.32-6.68-4.64-11.97,5.35,7.41,9.81,13.9,9.88,14.99.02.3-4.61,6.51-5.13,7.9-.43,1.15.18,2.83,3.86,2.2,3.08-.53,4.57-4.94,5.69-4.96,1.12-.02,4.09,4.6,6.34,4.71,2.25.11,1.54-2.58,1.04-3.69-.5-1.12-2.75-3.89-2.83-4.72-.08-.83,15.6-35.46,15.57-36.03-.24-4.9-7.49-22.36-14.01-33.26-3.77-6.31-8.41-11.36-8.73-11.99-.88-1.71-.89-2.07.14-3.84,1.03-1.77,3.91-7.88,2.58-8.86-1.33-.97-5.85,1.18-7.06,4.64,0,0-2.52-6.65-4.57-6.51-2.06.14-3.08,1.8-2.17,3.42.91,1.62,3.17,7.22,3.17,7.22,0,0-17.84,41.54-18.84,41.95-1,.41-3.12,2.3-3.12,2.3,0,0,4.6,6.07,10.08,13.45ZM113.68,50.43l14.97-30.45s.44.78.88,1.49c.44.71,3.25,7.52,4.45,9.27,1.2,1.75,13.87,24.93,14.31,25.96.43,1.02-5.53,10.68-6.44,14.7-.91,4-3.31,7.34-3.79,8.83-.48,1.49-2.38,5.34-3.47,5.15-1.08-.19-18.22-21.03-19.62-23.74-1.4-2.72-1.29-11.22-1.29-11.22Z"/><path class="cls-1" d="M122.04,55.53c2.29,1.77,5.01.41,4.56.63-.44.22-1.46,1.47-2.16,2.73-1,1.82.88,2.89,1.54,2.2.66-.69,2.43-2.68,2.91-2.61,1.38.2.63,5.86,1.05,6.91.42,1.04,1.21,1.71,2.01,1.6.8-.11,2.09-.34,1.74-2.06-.35-1.72-1.07-3.65-.8-4.02.27-.37.82-.65,1.41-.02.59.62,3.44,2.21,4.79,2.24,1.79.05,1.28-2.31.39-2.61-.89-.31-3.31-1.26-3.71-2.41-.4-1.15.29-1.93.56-1.94s2.35.21,3.98-.11c1.63-.32,1.67-1.48,1.19-2.21-.35-.53-3.03-1.18-4.57-.95-1.54.22-.55-2.47-.21-3,.34-.53.51-2.27-.09-2.79-.6-.53-1.85-.41-2.48.45-.63.86-1.16,1.99-1.62,2.17-.46.18-.77.09-.92-.31-.15-.4-.33-5.26-2.06-5.41-1.74-.15-.57,4.63-.73,5.27-.16.64-2.48-1.68-3.39-1.73-.92-.05-2.19.7-1.28,2.18.91,1.48,1.53,1.38,1.54,2.28,0,.9-2.35,1.4-3.21,1.46-.86.06-.95,1.66-.43,2.07Z"/><path class="cls-1" d="M18.02,54.75c-.35-2.17-1.18-10.68-2.13-11.6-.95-.92-2.27-5.15-2.27-5.15,0,0,3.56,15.91,3.93,23.08.38,7.13,1.69,14.75,1.69,14.75,0,0-.88-18.92-1.22-21.08Z"/><path class="cls-1" d="M173.43,95.17c-.16-.72,7.95-11.55,13.82-20.61,3-4.64,5.1-9.63,5.83-10.86,2.15-3.64,6.39-6.94,6.82-8.94.43-2.01-4.06-3.28-4.06-3.28-1.31-.74-16.91-29.03-17.8-31.14-.89-2.12-2.02-2.6-2.65-3.08-.63-.48.62-2.23,2.3-3.4,1.68-1.17-1.3-2.13-3.23-2.23-1.93-.09-3.11-1.65-3.96-2.32-.84-.67-4.81-.59-7.38-.98-.48-.07-.93-.09-1.35-.06-2.08.14-3.55,2.12-3.24,4.18.52,3.45,1.61,10.73,2.68,18.04,1.48,10.06,2.93,20.18,2.85,20.7-.15,1.04-1.15,1.05-1.79.2-.64-.84-.6-2.07-1.3-2.16-.71-.09-1.66,1.05-2.28,4.83-.62,3.76,1.68,5.88,2.59,5.97.9.08,1.89-2.36,1.89-2.36,0,0,2.76-3.03,1.66,3.53-1.09,6.52-.52,29.66-.35,31.11.17,1.45.28,1.81-.74,3.18-1.02,1.37-6.03,5.25-4.38,6.94,1.65,1.68,4.96-.9,6.58-1.92,1.62-1.02,3.23-.06,6.08.25,2.85.31,4.51-1.88,4.87-2.69.36-.82-3.21-1.84-3.45-2.92ZM172.93,26.03c.66,1.25,15.76,24.76,14.12,26.18-1.64,1.42-14.48,1.26-15.13.14-.65-1.12-.35-24.97-.35-24.97-.05-1.25.7-2.6,1.36-1.35ZM172.52,85.38c-1.76.21-2.24-1.7-1.23-3.45,1.01-1.75,1.7-8.84.78-9.47-.92-.63-.03-3.14-.18-4.34-.15-1.2-.52-9.95-.52-9.95.27-.75,3.81-1.35,8.29-1.3,4.48.05,11.41-.11,9.49,1.58-1.92,1.69-14.86,26.72-16.62,26.93Z"/><path class="cls-1" d="M300.96,54.38s-10.22-19.69-12.87-21.79c-.45-.35-2.28-.14-2.05,1.7.56,4.41,12.62,16.33,14.91,20.1Z"/><path class="cls-1" d="M22.48,135.73c-1.04.93-2.3,2.13-1.97,2.92.15.36.55,1.09,1.43,1.21,1.07.15,2.84-.37,5.5-.53,4.86-.3,5.93-3.37,9.62-5.45,3.69-2.09,2.69-5.08,1.9-5.69-.79-.61-5.77-5.3-5.77-5.3,0,0,4.51-5.75,4.35-7.11-.16-1.36-13.26-10.41-15.3-11.85-1.13-.8-2.57.75-2.72,1.5-.15.75,1.21,2.26,2.11,3.01,0,0,2.73,15.92,2.53,17.6-.2,1.68-.89,2.33-.5,5.5.39,3.17-.13,3.26-1.17,4.18ZM32.96,129.62c.19.93-3.32,1.85-3.74,1.85-.43,0-.55-.56-.76-1.96-.21-1.4-.71-3.64.21-3.31.92.33,4.11,2.49,4.3,3.42ZM26.76,111.5c.8-.23,4.58,3.1,4.62,3.99.05.89-2.83,3.18-3.45,3.13-.62-.05-.79-1.45-.77-3,.02-1.55-.88-3.99-.4-4.13Z"/><path class="cls-1" d="M9.37,119.44c-1.69-.66.79-.81.62-2.12-.17-1.31-.75-1.9-1.73-1.67-.98.23-1.72,2.24-2.71,2.19-.66-.03-1.19-1.33-1.49-1.86-.47-.84-2.56-1.42-2.78-.21-.21,1.21.88,2.15.6,2.34-.27.19-2.06,1.16-1.88,1.86.18.7.98.7.96,1.21-.02.51-.74,2.47-.06,3.05.81.69,1.6.56,2.48-.11.41-.31.64-1.2,1.3-1.25.66-.05,1.87,2.33,3.25,2.48,1.38.14,1.55-1.91,1.76-2.33.21-.42,1.15-.52,1.12-1.19-.04-.67.24-1.74-1.45-2.4Z"/><path class="cls-1" d="M71.13,119.85c-1.92-.09-2.21-.42-1.88-1.59.33-1.18-.13-1.95-.7-2.08-.57-.13-1.2-.34-1.71,1.26-.5,1.6-1.6.74-2.22.73-.62-.01-1.06.39-.91,1.1.15.72.4.95.38,1.5-.02.55.19,1.29.51,1.86.32.56,1.6,1.69,1.67,2.27.07.57.14,1.89.61,1.95.47.06,1.42.75,2.24-.97.24-.5.57-.5.75-.72.45-.55.53-.48.7-.55.33-.12.95-.47,1.18-1.07.09-.23.42-.05.49-.26.11-.33-.04-1,.15-1.03.31-.06.52-.57.51-.86,0-.34.14-1.45-1.78-1.53Z"/><path class="cls-1" d="M93.61,128.07c.06.25,1.62-1.65,2.32-2.23.88-.73,1.24-1.28,1.5-.94,2.78,3.5,7.31,8.55,8.17,10.12,1.24,2.26,1.88,3.82,3.49,3.89,1.61.07,2.9-1.62,5.09-6.75,2.2-5.14,4.89-7.34,4.86-8.28-.03-.94-3.74-6.94-4.57-8.46-.83-1.52-1.21-3.03-1.95-3.79-.74-.76-4.88-7.66-6.77-8.1-1.47-.34-5.03,10.11-6.94,12.31-1.91,2.2-4.04,4.16-3.57,5.77.36,1.22-.35,1.88-.96,3.38-.34.83-.84,2.31-.67,3.08ZM104.11,117.99c.65-1.11,1.07-2.45,1.6-3.56.6-1.24,1.29-2.18,1.53-2.18.59,0,2.12,3.47,3.36,6.48.72,1.75,1.47,2.7,1.51,3.77.02.42-.54,1.01-.9,1.76-.55,1.15-1.05,2.53-1.49,3.14-.74,1-.81,1.5-1.56,1.38-.34-.06-1.76-1.95-3.03-3.53-1.52-1.88-2.9-3.52-2.92-3.84-.02-.6,1.04-1.98,1.9-3.43Z"/><path class="cls-1" d="M154.07,118.74c-.03-.29.34-3.4-1.64-3.26-1.13.08-.87,2.04-1.48,2.85-.61.81-3.15.8-3.9,1.89-.75,1.09-.61,2.28.37,2.37.98.1,1.68.57,1.69,1.05.01.47-.39,1.52.34,1.57.73.05,1.74-.56,1.9,0,.16.57-.4,1.18.3,1.9.7.71,2.36.43,2.57-.75.21-1.18-.31-2.13.18-2.28.48-.14,2.15-.11,2.92-.51.77-.4,1.4-1.59,1.1-1.85s-1.97-.36-2.35-.79c-.38-.43-.43-1.28-.92-1.5-.5-.21-1.04-.41-1.07-.69Z"/><path class="cls-1" d="M191.57,124.13c.33,1.43.1,11.03.86,11.89.76.86,1.06,3.28,1.33,4.23.27.95,5.27.26,5.48-1.68.2-1.95-.24-13.7.47-14.98.71-1.29,9.06-9.69,8.82-11.99-.24-2.3-1.94-2.54-3.26-1.73-1.32.81-5.22,7.42-7.62,8.75-.68.38-.78-6.23-.73-7.42.06-1.63.05-4.6-2.32-4.22-2.37.38-2.96.53-2.56,2.78.23,1.33.48,2.32.57,3.22.02.14.2.81-.63,1.04-2.01.57-2.88-1.36-5.71-3.35-1.42-1-3.09-1.57-4.4-.6-1.27.93-.47,2.79.08,3.66,1.03,1.63,9.29,8.99,9.61,10.42Z"/><path class="cls-1" d="M242.54,118.88c-.4-.29-.92-1.74-1.36-1.83-.84-.16-.8-2.28-2.13-2.41,0,0-1.5.09-1.75,1.25-.25,1.15-.57,2.14-1.33,2.37-.76.22-3.4-.61-3.76,0-.36.61,1.19,1.67,1.17,2.82-.02,1.15.44,2.59.9,2.59.47,0,1.51-1.11,2.35-.92.83.19.86,1.95,1.43,2.27.57.32,1.62.98,3.32.2,1.82-.83,3.08-2.04,2.8-3.26-.28-1.22-1.24-2.79-1.64-3.08Z"/><path class="cls-1" d="M280.68,130.35c-1.15.59-3.07.17-3.01,1.24.06,1.07.33,5.11,1.09,5.88.76.77,5.44,1.86,6.65,1.28,1.21-.59,4.12-1.05,4.73-.93.61.12,2.12,1.67,3.58.73,1.46-.94.85-3.2-.02-4.34-.36-.47-2.54-4.52-4.78-7.87-3.18-4.76-6.66-9.45-6.67-12.18,0-.53,1.46-1.37,3.18-1.19,1.72.18,4.15,1.8,4.81,1.86.66.06,2.27-.77,1.81-2.33-.46-1.56-2.5-3.89-4.37-4.55-1.87-.66-7.43,0-8.79,0-1.36,0-5.49,1.01-6.39,2.2-.9,1.19,2.23,1.56,2.43,1.79.2.24,7.06,14.86,7.39,16.64.33,1.79-.48,1.19-1.63,1.78Z"/><path class="cls-1" d="M319.81,119.09c-1.04.31-1.58.6-2.09-.12-.51-.73-.36-1.75-.71-2.18-.36-.44-1.25-1.04-1.3-1.29s-.26-1.07-.99-1.04c-1.07.03-1.77,4.12-2.13,4.46-.35.34-3.05-1.02-3.66-.39-.61.63-1.06,1.55-.45,2.32.61.77,2.55.2,2.98.73.42.53-1.25,2.12-1.4,3.04-.15.92,1.52,1.74,2.28,1.45.76-.29,1.72-.18,2.03.06.3.24,1.22,1.63,2.13,1.06.91-.58,1.42-1.69.86-2.66-.56-.97-.36-2.44.94-2.56,1.3-.12,3.21-1.28,3.28-1.83.13-1.07-.74-1.36-1.78-1.05Z"/><path class="cls-1" d="M165.16,149.14c-.13-.9,2.37-2.9,2.11-3.74-.26-.84-.33-1.68-1.85-1.23-1.52.45-.79,2.46-2.64,3.27-1.85.8-6.35.94-7.42.89-1.06-.05-.94-2.25-2.23-3.32-1.29-1.07-4.99-1.72-7.91-.85-2.92.87-8.7-.75-10.39-1.72-1.68-.97-4.43-.53-9.12,1.92-5.27,2.76-11.01,5.36-17.87,2.52-4.17-1.73-11.74-5.68-15.63-5.68-7.65,0-12.26,6.08-19.25,6.23s-12.33-5.98-20.31-5.98-14.9,8.33-20.84,8.33-10.95,1.16-14.37-3.94-3.04-11.67-5.01-9.75c-1.78,1.74,0,10.65,1.78,13.17,1.78,2.52,3.17,5.42,4.95,6s2.18,1.16,3.76,2.13c1.58.97,1.78,2.52,9.69,0,7.91-2.52,10.68-4.65,15.43-6.2s7.88-2.16,9.86-1,8.67,6.81,16.39,6.04c7.71-.77,5.21-1.16,11.14-4.07,5.93-2.9,6.74-3.12,8.84-2.39,2.31.8-.73-.13,3.63,2.78s12.86,6,21.76,3.1c8.9-2.9,12.4-6.33,14.64-6.33,1.97,0,4.67,1.14,7.02,3.08,2.31,1.9,5.01,3.66,7.78,3.61,2.93-.05,5.31-3.52,6.56-4.42.63-.45,2.08-.92,3.47-1.23,1.39-.31,2.73-.45,3.12-.26.79.39,3.63,3.42,4.62,3.29.99-.13,1.52-.65,1.12-1.48-.4-.84-2.7-1.87-2.84-2.78ZM149.29,150.34c-.51,0-.91-.4-.91-.9s.41-.9.91-.9.91.4.91.9-.41.9-.91.9Z"/><path class="cls-1" d="M314.26,143.22c-.59.05-2.72,2.18-4.2,2.37-1.48.19-1.53,1.79-3.66,3.05-2.13,1.26-4.15,2.9-6.87,2.28-2.72-.63-6.78-3.44-9-5.13-2.23-1.69-6.73-3.2-11.08-1.16-4.35,2.03-5.14,5.66-9.5,6.05-4.35.39-5.17-3.43-8.01-5.47-2.97-2.13-8.46-5.42-15.03.53-6.58,5.95-11.57,2.57-13.35-.63-1.78-3.2-5.24-4.18-8.06-4.07-2.48.1-12.31,1.73-15.92,3.63-2.03,1.07-2.92-.92-7.37.1-3.66.84-5.09,4.43-8.36,4.44-3.26.01-5.49-1.88-6.13-2.31-.64-.44-1.81-2.76-3.43-2.66-1.05.06-1.71,1.23-.92,2.19.79.97,2.84,2.65,2.7,3.36-.13.71-2.91,2.19-2.79,3.45.12,1.26,1.07,1.68,2.06,1.34.99-.34,1.11-2.2,2-2.69.89-.48,4.13-.39,4.9.12.77.51,3.83-.05,4.77-.05s.72,3.32,2.87,4.19c2.15.87,5.29,2.06,8.58-1.23.87-.87,2.7-1.21,4.28-2.06,2.6-1.4,7.04-4.11,9.79-4.45,1.88-.23,2.51,1.64,3.02,1.84,1.68.68,3.91,4.74,7.12,6.05,3.21,1.31,7.86,1.45,11.08-.73,3.21-2.18,5.94-6.79,7.91-6.92,4.25-.29,5.44,3.34,7.96,5.76,2.77,2.66,10.78,4.45,15.18,1.36,4.4-3.1,6.38-5.18,9.2-5.23,2.82-.05,5.93,4.79,7.91,5.33,1.98.53,8.51,2.81,13.55-1.65,5.04-4.45,9.5-9.59,9.45-9.97s-.05-1.07-.64-1.02ZM204.58,152.89c-.51,0-.91-.4-.91-.9s.41-.9.91-.9.91.4.91.9-.41.9-.91.9Z"/></g></svg>