<?xml version="1.0" encoding="UTF-8"?><svg id="Layer_2" xmlns="http://www.w3.org/2000/svg" viewBox="0 0 255.44 152.37"><defs><style>.cls-1{fill:#fff;stroke-width:0px;}</style></defs><g id="Layer_1-2"><path class="cls-1" d="M116.12,15.22l-1.93,9.61c-.14.69-.21,1.24-.21,1.66-.05.14-.3.44-.76.9-.37,1.15-.99,2.88-1.87,5.18-.14.37-3.06,5.57-8.78,15.62-.18.09-.44.28-.76.55-2.44,4.05-6.87,10.2-13.27,18.45h-4.42c-.78,0-2.05-.74-3.8-2.21-1.47-1.24-2.4-2.19-2.76-2.83-.46-.83-1.36-2.47-2.7-4.91-.69-1.34-.92-2.81-.69-4.42l-2.14-10.85c-.28,0-.48.07-.62.21-.32.65-2.07,3.29-5.25,7.95-1.38,1.98-3.46,5.64-6.22,10.99-1.8,1.66-3.8,4.22-6.01,7.67-1.29.23-1.77.35-1.45.35-.55,0-1.17-.12-1.87-.35-2.12-2.9-3.18-6.98-3.18-12.23,0-1.11.05-2.07.14-2.9v-19.42l-.69-8.71,1.52-3.73,1.17-6.77c.09-.51.69-1.82,1.8-3.94l2-5.18L57.24.02c.87.14,2.03.46,3.46.97.09.88.28,2.14.55,3.8l-1.31,13.75.34,11.47-.28,1.93.28,8.78.42,1.8c1.25-.64,2.22-1.45,2.91-2.42.78-1.38,1.94-3.48,3.46-6.29.69-.97,1.64-2.42,2.84-4.35.6-1.24,1.48-3.25,2.63-6.01.37-.87.51-1.87.42-2.97l3.95-12.92,3.39-4.77,3.88.69h.35c.05.41.07.83.07,1.24.09.55.25.9.48,1.04,1.52.78,2.47,1.17,2.84,1.17l-.07,5.6-1.04,2.76-.9,5.18-.28,7.67c-.14,4.28.58,8.64,2.14,13.06.23.6.91,1.71,2.04,3.32,1.13,1.61,1.88,2.42,2.25,2.42.87,0,3.11-2.83,6.7-8.5,3.46-5.44,5.39-8.96,5.81-10.57l1.24-9.88,1.87-7.67c-.05-.23-.07-.46-.07-.69,0-.51.28-1.17.83-2,.55-.83.87-1.38.97-1.66.46-.09.94-.87,1.45-2.35.64-.05,1.36.23,2.14.83.64.51,1.27,1.01,1.87,1.52.97,2.72,1.38,5.81,1.24,9.26Z"/><path class="cls-1" d="M157.45,45.49l-2.56,5.8c-.55.55-1.73,1.91-3.52,4.08,0,.46-.07,1.06-.21,1.8-.51.32-1.82,1.89-3.94,4.7-.74,1.01-2.03,1.91-3.87,2.69-3.36,1.47-7.07,2.7-11.13,3.66-.23.18-.88.41-1.93.69l-4.35.21c-.09,0-1.04-.3-2.83-.9-.92-.41-2.19-.95-3.8-1.59-2.76-1.11-4.91-3.32-6.43-6.63-1.29-2.76-2-5.87-2.14-9.33-.14-3.27-.16-5.18-.07-5.74l2.7-9.47s.85-2.37,2.56-6.98c2.3-3.64,4.61-7.26,6.91-10.85,2.3-3.59,5.09-7.26,8.36-10.99.32-.14,2.3-1.24,5.94-3.32,2.35-1.34,4.68-2.26,6.98-2.76l2.14-.48h8.78l7.26,3.37-.48,2.62.27,2.89-8.64,9.85-13.68-.69c-6.08,1.57-10.64,4.19-13.68,7.88l.21.21c.46.09,1.22-.02,2.28-.34l4.08-.28,20.25-.28c.41-.09.82.15,1.21.73.39.58.52,1.07.38,1.49-.28.92-.51,1.77-.69,2.56-.6.88-1.47,2.1-2.62,3.66-.41.32-.94.76-1.59,1.31-.18.55-.55,1.34-1.1,2.35-1.2.92-2.81,2.4-4.84,4.42-.74-.14-1.36-.05-1.87.28-.32.14-.62.3-.9.48l-15.13.97,6.29,6.29h5.6l15.69-4.91,2.28.55h1.87Z"/><path class="cls-1" d="M225.45,6.16l-1.73,3.86c.09.28-.24,1.1-1,2.48-.76,1.38-1.12,2.3-1.07,2.76-.69,1.38-2,2.6-3.93,3.66-1.93,1.06-3.68,1.54-5.25,1.45l-15.39,1.79-7.94,13.24-4.46,25.08-6.7,8.64-.97-5.32.28-10.37,2.14-12.23,5.39-16.59-18.04,3.04h-3.45c-.28-.28-.76-1.13-1.45-2.56l4.56-12.16c.46-2.39,1.15-4.12,2.07-5.18.69-.83,2.19-1.5,4.49-2l5.11-1.17h2.14l25.02-3.66L219.09.02c1.24-.09,2.44.16,3.59.76-.09.55.3,1.06,1.17,1.52.23,1.01.76,2.3,1.59,3.86Z"/><path class="cls-1" d="M53.42,108.38l-3.46,8.15c-1.57,2.44-3,4.88-4.28,7.33-.6,1.2-1.68,3.27-3.25,6.22-2.4,4.28-6.13,7.99-11.2,11.13-1.01.92-2.63,2.16-4.84,3.73-1.06.6-3.06,1.57-6.01,2.9l-6.22,2.49c-1.47.97-2.72,1.45-3.73,1.45H2.69c-.78,0-1.57-.48-2.35-1.45-.23-.28-.25-.97-.07-2.07l-.28-4.49,8.57-40.77,6.36-16.79c.55-.74,1.22-1.82,2-3.25l17.07,2.56,5.39,1.66,8.98,4.49c1.61.6,3.02,1.64,4.22,3.11,1.34,1.61,1.96,3.23,1.87,4.84.28.46.39.76.35.9l-1.38,7.88ZM40.36,115.57c.14-.69-.35-1.45-1.45-2.28-1.29-.97-2-1.68-2.14-2.14.18-.28.23-.53.14-.76-.97-1.43-3.41-2.7-7.33-3.8-1.43-.41-4.33-1.17-8.71-2.28l-3.46-.21.21.62c.05.09-.03.3-.24.62-.21.32-.31.51-.31.55l-4.42,25.09c1.29-.14,2.79-.35,4.49-.62,8.06-2.95,15.16-7.07,21.29-12.37,1.15-1.01,1.8-1.82,1.93-2.42Z"/><path class="cls-1" d="M106.48,99.74c0,.78-.35,2.28-1.04,4.49l-2.7,8.64c-.97,3.04-2.21,5.78-3.73,8.22-.41.65-3.18,2.76-8.29,6.36-.37.18-1.01.58-1.94,1.17l9.4,3.87,4.63,2.83-1.87,6.63c-.37.41-.85,1.08-1.45,2-.05.18-.51,1.8-1.38,4.84-.37.18-1.24.94-2.63,2.28-1.06,1.01-2.05,1.43-2.97,1.24l-2.63-1.17c-.51-.18-1.12-.6-1.83-1.24-.71-.65-1.28-1.06-1.69-1.24-1.61-.74-3.2-1.87-4.77-3.39-2.12-2.03-3.78-3.36-4.98-4.01-.51-.28-1.29-1.22-2.35-2.83-1.38-2.26-2.1-3.41-2.14-3.45-.97-1.24-1.89-2.19-2.76-2.83-1.06-.64-2.1-1.31-3.11-2-1.43-.83-2.53-1.24-3.32-1.24l-3.25,11.68c0,.23-.14.53-.41.9-.41.46-.65.78-.69.97l-1.17,3.94c-.92.69-1.59,1.04-2,1.04-.65,0-1.24-.85-1.8-2.56l-.62-5.87,4.91-33.31c.46-3.13,1.38-7.46,2.76-12.99,1.61-6.5,3.8-9.74,6.57-9.74l23.84,2.14c4.28.83,7.83,2.4,10.64,4.7.83.69,1.83,2.26,3.01,4.7,1.17,2.44,1.76,4.19,1.76,5.25ZM90.31,107.55l-7.81-2.63c-.78,0-1.38-.18-1.8-.55l-11.54-.21c-1.57.14-2.47.32-2.69.55l-.97,4.35-.41,8.09,9.47-3.11,15.76-6.5Z"/><path class="cls-1" d="M152.02,128.42l-2.56,5.8c-.55.55-1.73,1.91-3.52,4.08,0,.46-.07,1.06-.21,1.8-.51.32-1.82,1.89-3.94,4.7-.74,1.01-2.03,1.91-3.87,2.69-3.36,1.47-7.07,2.7-11.13,3.66-.23.18-.88.41-1.93.69l-4.35.21c-.09,0-1.04-.3-2.83-.9-.92-.41-2.19-.95-3.8-1.59-2.76-1.11-4.91-3.32-6.43-6.63-1.29-2.76-2-5.87-2.14-9.33-.14-3.27-.16-5.18-.07-5.74l2.7-9.47s.85-2.37,2.56-6.98c2.3-3.64,4.61-7.26,6.91-10.85,2.3-3.59,5.09-7.26,8.36-10.99.32-.14,2.3-1.24,5.94-3.32,2.35-1.34,4.68-2.26,6.98-2.76l2.14-.48h8.78l7.26,3.37-.48,2.62.28,2.89-8.64,9.85-13.68-.69c-6.08,1.57-10.64,4.19-13.68,7.88l.21.21c.46.09,1.22-.02,2.28-.34l4.08-.28,20.25-.28c.41-.09.82.15,1.21.73.39.58.52,1.07.38,1.49-.27.92-.51,1.77-.69,2.56-.6.88-1.48,2.1-2.63,3.66-.41.32-.94.76-1.59,1.31-.19.55-.55,1.34-1.1,2.35-1.2.92-2.81,2.4-4.84,4.42-.74-.14-1.36-.05-1.87.28-.32.14-.62.3-.9.48l-15.13.97,6.29,6.29h5.6l15.69-4.91,2.28.55h1.87Z"/><path class="cls-1" d="M195.2,135.54l-5.39,14.65c-.55.46-1.31,1.08-2.28,1.87-.51-.14-1.08-.44-1.73-.9-.69-1.06-.94-2.1-.76-3.11l.55-3.32c.05-.28.07-.6.07-.97,0-.83-.71-1.24-2.14-1.24-.32,0-.88.32-1.66.97l-6.36.55s-.12-.07-.21-.07-.18.02-.28.07l-1.04-.48-2.9.48-8.5-.48-3.11.21-4.49,4.01-5.67-2.83,4.98-15.27,5.67-12.44c.55-.51.92-.94,1.11-1.31,1.7-3.41,6.13-12.46,13.27-27.16.78-1.61,1.66-3.18,2.63-4.7.51-.51,1.82-.88,3.94-1.11.83,1.29,1.75,3.13,2.76,5.53.37.32.83.83,1.38,1.52,4.05,8.39,7.44,18.06,10.16,29.03.05.18.02.53-.07,1.04l1.17,9.12-1.11,6.36ZM182.34,125.03l-8.48-20-7.86,17.6,5.31,2.4h11.04Z"/><path class="cls-1" d="M255.44,128.49l-2.69,10.37-1.38,3.04c-.23.51-.67,1.7-1.31,3.59-.32.14-1.48.46-3.46.97l-2.69-19v-6.15l-.55-2.69c-2.54,6.17-5.35,11.73-8.44,16.65-3.41,5.39-6.39,9.47-8.92,12.23l-3.25,1.52c-1.48.05-2.35-.09-2.63-.41-1.2-1.38-2.58-3.78-4.15-7.19-1.02-2.21-1.98-5.48-2.9-9.81-1.01-4.74-1.87-8.06-2.56-9.95l-1.11,2.14-7.51,26.82-3.39,1.45c.18,0-.21-.14-1.17-.41-.18-.6-.39-1.61-.62-3.04l4.35-21.49,9.61-35.66c.18-.28.44-.76.76-1.45-.09-.28-.16-.64-.21-1.11.55-.87,1.2-1.82,1.93-2.83,1.24-1.7,2.19-2.56,2.83-2.56,1.24,0,2.14,1.89,2.7,5.67.41,1.66.94,4.26,1.59,7.81,0,1.93.11,3.59.35,4.98.32,1.84,1.13,5.94,2.42,12.3.74,3.64,2.03,7.33,3.87,11.06.41,0,.83-.25,1.24-.76,6.17-7.83,10.96-16.35,14.37-25.57l2.69-10.64,4.01-5.04c.18-.09.39-.14.62-.14.28,0,.58.07.9.21,2.67,1.98,3.87,7.46,3.59,16.45l-.28,9.74,1.38,18.94Z"/></g></svg>