<?xml version="1.0" encoding="UTF-8"?><svg id="Layer_2" xmlns="http://www.w3.org/2000/svg" viewBox="0 0 377.65 160.44"><defs><style>.cls-1{fill:#fff;stroke-width:0px;}</style></defs><g id="Layer_1-2"><polygon class="cls-1" points="85.44 46.89 104.57 98.45 132.37 98.45 168.89 0 137.31 0 117.3 53.96 97.28 0 71.25 0 52.31 51.07 33.36 0 0 0 36.52 98.45 66.31 98.45 85.44 46.89"/><polygon class="cls-1" points="171.55 98.45 189.74 49.4 207.95 98.45 236.22 98.45 272.74 0 241.16 0 220.91 54.58 200.66 0 176.49 0 139.97 98.45 171.55 98.45"/><path class="cls-1" d="M342.7,34.42h-44.91c-1.33,0-2.18-1.08-1.89-2.41s1.59-2.41,2.92-2.41h66.62l12.21-29.61h-72.48c-17.68,0-35.09,14.33-38.88,32.02h0c-3.79,17.68,7.47,32.02,25.15,32.02h44.91c1.33,0,2.18,1.08,1.89,2.41s-1.59,2.41-2.92,2.41h-81.19l-10.9,29.61h85.75c17.68,0,35.09-14.33,38.88-32.02h0c3.79-17.68-7.47-32.02-25.15-32.02Z"/><path class="cls-1" d="M62.79,160.44h252.07v-44.97H62.79v44.97ZM251.11,142.13c-7.48-1.71-13.26-3.82-13.26-11v-.1c0-6.53,5.17-11.25,13.61-11.25,5.98,0,10.65,1.61,14.47,4.67l-4.87,6.88c-3.21-2.31-6.73-3.47-9.85-3.47-2.36,0-3.52.95-3.52,2.26v.1c0,1.61,1.21,2.31,6.13,3.42,8.04,1.76,13.06,4.37,13.06,10.95v.1c0,7.18-5.68,11.45-14.22,11.45-6.23,0-12.11-1.96-16.48-5.83l5.43-6.48c3.52,2.76,7.33,4.22,11.4,4.22,2.66,0,4.07-.9,4.07-2.41v-.1c0-1.51-1.16-2.26-5.98-3.42ZM191.69,120.38l6.13,20.34,6.78-20.44h8.39l6.78,20.44,6.13-20.34h10.1l-11.75,35.41h-8.49l-7.03-20.24-7.08,20.24h-8.49l-11.75-35.41h10.3ZM150.2,120.38h28.28v8.24h-18.64v5.37h16.88v7.69h-16.88v5.58h18.89v8.29h-28.53v-35.16ZM110.77,120.38h9.09l14.47,18.59v-18.59h9.64v35.16h-8.49l-15.07-19.29v19.29h-9.64v-35.16Z"/></g></svg>