<?xml version="1.0" encoding="UTF-8"?><svg id="Layer_2" xmlns="http://www.w3.org/2000/svg" viewBox="0 0 535.63 188.07"><defs><style>.cls-1{fill:#fff;stroke-width:0px;}</style></defs><g id="Calque_1"><rect class="cls-1" x="237.88" y="14.87" width="31.3" height="125.4"/><path class="cls-1" d="M149.78,14.87h-44.5s6.83,2.8,5.4,8c-1.37,4.96-6.91,24.3-16.79,43.78-10.7-2.36-25.81-6.47-38.52-12.88-10.99-5.55-21.8-31.11-25.47-53.77H0c2.08,15.62,8.51,38.92,14.32,50.46,7.05,14,16.38,24,27.73,29.72,12.64,6.38,26.77,10.78,38.3,13.68-.61,1.26-.97,2.01-.97,2.01,0,0-7.6,18.4-27.7,42.5-20.1,24.1-34.9,28.8-34.9,28.8l31.7,20.9s25.8-19,47.4-53.8c21.6-34.8,34.8-67.4,53.9-119.4h0Z"/><path class="cls-1" d="M203.38,22.87c-1.1-6.12,4-8,4-8h-51.27c-17.83,50.3-33.13,86.13-56.66,125.4h88.33l-11.95-35.28-1.94,3.38h-21.78c8.82-18.73,16.28-37.3,25.19-60.27,8.62,23.73,32.18,92.17,32.18,92.17h22.8l-.2-45.4c-13.7-23.9-27.6-65.88-28.7-72Z"/><polygon class="cls-1" points="454.59 108.37 440.26 140.27 444.8 140.27 459.22 108.37 454.59 108.37"/><polygon class="cls-1" points="462.73 108.37 448.3 140.27 452.73 140.27 467.14 108.37 462.73 108.37"/><polygon class="cls-1" points="470.66 108.37 456.23 140.27 460.66 140.27 475.06 108.37 470.66 108.37"/><path class="cls-1" d="M492.49,14.87h-44.18s5.83,1.54,3.29,8c-10,25.45-47.34,100.24-59.57,117.4h38.93s31.13-68.44,42.39-92.17c11.14,23.01,19.69,60.27,19.69,60.27h-14.45l-14.42,31.9h71.47c-8.89-37.38-21.56-77.38-43.14-125.4Z"/><path class="cls-1" d="M417.28,14.86h-106.5c-6.67,24.04-20.87,53.94-34.18,77.48-1.03,1.64-1.62,2.52-1.62,2.52v45.4h84.61c26.5,0,34.99-18.4,42.79-29.9,7.8-11.5,18.34-30.01,9.04-35.11,8-2.4,13.86-12.19,16.76-19.09,2.9-7,18.6-41.3-10.9-41.3ZM374.84,94.7l-2.82,5.32c-3.52,6.65-10.42,10.8-17.94,10.8h-52.25c5-8,12.8-24.8,12.8-24.8h54.99c4.45,0,7.31,4.74,5.22,8.68ZM398.29,47.05l-2.82,5.32c-3.37,6.29-7.39,10.8-17.94,10.8h-51.26c7.96-15.84,11.81-24.8,11.81-24.8h54.99c4.45,0,7.31,4.74,5.22,8.68Z"/></g></svg>