<?xml version="1.0" encoding="UTF-8"?><svg id="Layer_2" xmlns="http://www.w3.org/2000/svg" viewBox="0 0 506.04 112.88"><defs><style>.cls-1{fill:#af8874;stroke-width:0px;}</style></defs><g id="Layer_1-2"><polygon class="cls-1" points="248.26 37.02 248.26 30.66 198.52 30.66 198.52 37.02 220.21 37.02 220.21 70.37 226.57 70.37 226.57 37.02 248.26 37.02"/><polygon class="cls-1" points="142.13 30.66 142.13 70.37 191.87 70.37 191.87 64.01 148.49 64.01 148.49 53.69 191.87 53.69 191.87 47.33 148.49 47.33 148.49 37.02 191.87 37.02 191.87 30.66 142.13 30.66"/><polygon class="cls-1" points="338.2 30.66 338.2 70.37 387.95 70.37 387.95 64.01 344.57 64.01 344.57 53.69 387.95 53.69 387.95 47.33 344.57 47.33 344.57 37.02 387.95 37.02 387.95 30.66 338.2 30.66"/><path class="cls-1" d="M396.72,37.89v25.26c0,3.99,3.24,7.23,7.23,7.23h42.51v-6.36h-41.86c-.84,0-1.52-.68-1.52-1.52v-23.96c0-.84.68-1.52,1.52-1.52h41.86v-6.36h-42.51c-3.99,0-7.23,3.24-7.23,7.23Z"/><polygon class="cls-1" points="499.67 30.66 499.67 47.33 462.66 47.33 462.66 30.66 456.29 30.66 456.29 70.37 462.66 70.37 462.66 53.69 499.67 53.69 499.67 70.37 506.04 70.37 506.04 30.66 499.67 30.66"/><path class="cls-1" d="M262.13,30.66l-22.94,39.72h7.36l7.79-13.5h23.48l7.79,13.5h7.36l-22.94-39.72h-7.9ZM258.01,50.51l8.07-13.97,8.05,13.97h-16.12Z"/><polygon class="cls-1" points="281.52 30.66 281.52 37.02 303.21 37.02 303.21 70.37 309.57 70.37 309.57 37.02 331.26 37.02 331.26 30.66 281.52 30.66"/><path class="cls-1" d="M25.06,22.5S162.53,9.18,194.92,0c0,0-52.06,32.95-100.06,78.32h179.28S68.83,98.84,0,112.88c0,0,112.98-81.2,128.21-88.4l-103.15-1.98Z"/></g></svg>