<?xml version="1.0" encoding="UTF-8" standalone="no"?>
<!DOCTYPE svg PUBLIC "-//W3C//DTD SVG 1.1//EN" "http://www.w3.org/Graphics/SVG/1.1/DTD/svg11.dtd">
<svg width="100%" height="100%" viewBox="0 0 155 155" version="1.1" xmlns="http://www.w3.org/2000/svg" xmlns:xlink="http://www.w3.org/1999/xlink" xml:space="preserve" xmlns:serif="http://www.serif.com/" style="fill-rule:evenodd;clip-rule:evenodd;">
    <g transform="matrix(1,0,0,1,-1709,-346)">
        <g id="bk_d6" transform="matrix(4.166667,0,0,4.166667,1709.899244,346.569736)">
            <rect x="0" y="0" width="36.85" height="36.85" style="fill:none;"/>
            <g id="bk_d61" serif:id="bk_d6">
                <g transform="matrix(0.210705,0,0,0.210705,-143.16316,-34.147377)">
                    <path d="M704.229,302.322L695.115,297.06C691.84,295.17 689.823,291.675 689.823,287.894L689.823,211.122C689.823,207.341 691.84,203.846 695.115,201.955L754.025,168.923L747.956,183.679L700.407,211.122L700.407,287.894L703.816,289.862L704.229,302.322ZM824.383,193.706L838.672,201.955C841.947,203.846 843.965,207.341 843.965,211.122L843.965,287.894C843.965,291.675 841.947,295.17 838.672,297.06L772.186,335.446C768.911,337.337 764.876,337.337 761.601,335.446L754.117,331.125L764.558,324.931L766.894,326.28L833.38,287.894L833.38,211.122L824.383,193.706Z" style="fill:white;"/>
                </g>
                <g>
                    <g id="g3572" transform="matrix(0.009152,0.015817,-0.018274,-0.000017,27.017658,2.481245)">
                        <path id="path3580" d="M71.459,553.5C34.081,553.5 3.5,522.919 3.5,485.54L3.5,71.459C3.5,34.082 34.081,3.5 71.459,3.5L485.54,3.5C522.918,3.5 553.5,34.082 553.5,71.459L553.5,485.54C553.5,522.919 522.918,553.5 485.54,553.5L71.459,553.5ZM439.975,382.859C408.452,382.859 382.859,408.452 382.859,439.975C382.859,471.497 408.452,497.09 439.975,497.09C471.497,497.09 497.09,471.497 497.09,439.975C497.09,408.452 471.497,382.859 439.975,382.859ZM117.026,382.859C85.504,382.859 59.911,408.452 59.911,439.975C59.911,471.497 85.504,497.09 117.026,497.09C148.549,497.09 174.142,471.497 174.142,439.975C174.142,408.452 148.549,382.859 117.026,382.859ZM439.973,59.911C408.451,59.911 382.858,85.503 382.858,117.026C382.858,148.548 408.451,174.141 439.973,174.141C471.496,174.141 497.088,148.548 497.088,117.026C497.088,85.503 471.496,59.911 439.973,59.911ZM117.026,59.91C85.503,59.91 59.91,85.503 59.91,117.026C59.91,148.549 85.503,174.141 117.026,174.141C148.549,174.141 174.141,148.549 174.141,117.026C174.141,85.503 148.549,59.91 117.026,59.91Z" style="fill:white;stroke:black;stroke-width:7px;"/>
                    </g>
                    <g id="g3515" transform="matrix(0.009122,-0.015834,0.009122,0.015834,11.926159,11.396014)">
                        <path id="path3491" d="M71.459,553.5C34.081,553.5 3.5,522.919 3.5,485.54L3.5,71.459C3.5,34.082 34.081,3.5 71.459,3.5L485.54,3.5C522.918,3.5 553.5,34.082 553.5,71.459L553.5,485.54C553.5,522.919 522.918,553.5 485.54,553.5L71.459,553.5ZM278.5,221.385C246.977,221.385 221.385,246.977 221.385,278.5C221.385,310.023 246.977,335.615 278.5,335.615C310.023,335.615 335.615,310.023 335.615,278.5C335.615,246.977 310.023,221.385 278.5,221.385Z" style="fill:white;stroke:black;stroke-width:7px;"/>
                    </g>
                    <g id="g3558" transform="matrix(-0.018274,0.000017,0.009152,-0.015817,27.217922,19.996748)">
                        <path id="path3566" d="M71.459,553.5C34.081,553.5 3.5,522.919 3.5,485.54L3.5,71.459C3.5,34.082 34.081,3.5 71.459,3.5L485.54,3.5C522.918,3.5 553.5,34.082 553.5,71.459L553.5,485.54C553.5,522.919 522.918,553.5 485.54,553.5L71.459,553.5ZM439.973,59.911C408.451,59.911 382.858,85.503 382.858,117.026C382.858,148.548 408.451,174.141 439.973,174.141C471.496,174.141 497.088,148.548 497.088,117.026C497.088,85.503 471.496,59.911 439.973,59.911ZM278.5,221.385C246.977,221.385 221.385,246.977 221.385,278.5C221.385,310.023 246.977,335.615 278.5,335.615C310.023,335.615 335.615,310.023 335.615,278.5C335.615,246.977 310.023,221.385 278.5,221.385ZM439.975,382.859C408.452,382.859 382.859,408.452 382.859,439.975C382.859,471.497 408.452,497.09 439.975,497.09C471.497,497.09 497.09,471.497 497.09,439.975C497.09,408.452 471.497,382.859 439.975,382.859ZM117.026,382.859C85.504,382.859 59.911,408.452 59.911,439.975C59.911,471.497 85.504,497.09 117.026,497.09C148.549,497.09 174.142,471.497 174.142,439.975C174.142,408.452 148.549,382.859 117.026,382.859ZM117.026,59.91C85.503,59.91 59.91,85.503 59.91,117.026C59.91,148.549 85.503,174.141 117.026,174.141C148.549,174.141 174.141,148.549 174.141,117.026C174.141,85.503 148.549,59.91 117.026,59.91Z" style="fill:white;stroke:black;stroke-width:7px;"/>
                    </g>
                </g>
                <g id="g3634" transform="matrix(0,0.047734,-0.047734,0,47.237502,-10.542026)">
                    <g id="path3594" transform="matrix(0.191098,-0.331722,0.191098,0.331722,536.57663,687.19304)">
                        <path d="M71.459,553.5C34.081,553.5 3.5,522.919 3.5,485.54L3.5,71.459C3.5,34.082 34.081,3.5 71.459,3.5L485.54,3.5C522.918,3.5 553.5,34.082 553.5,71.459L553.5,485.54C553.5,522.919 522.918,553.5 485.54,553.5L71.459,553.5ZM278.5,221.385C246.977,221.385 221.385,246.977 221.385,278.5C221.385,310.023 246.977,335.615 278.5,335.615C310.023,335.615 335.615,310.023 335.615,278.5C335.615,246.977 310.023,221.385 278.5,221.385Z" style="fill:white;stroke:black;stroke-width:7px;"/>
                    </g>
                    <g id="path3608" transform="matrix(-0.382828,0.000365,0.191731,-0.331356,856.93036,867.37351)">
                        <path d="M71.459,553.5C34.081,553.5 3.5,522.919 3.5,485.54L3.5,71.459C3.5,34.082 34.081,3.5 71.459,3.5L485.54,3.5C522.918,3.5 553.5,34.082 553.5,71.459L553.5,485.54C553.5,522.919 522.918,553.5 485.54,553.5L71.459,553.5ZM439.973,59.911C408.451,59.911 382.858,85.503 382.858,117.026C382.858,148.548 408.451,174.141 439.973,174.141C471.496,174.141 497.088,148.548 497.088,117.026C497.088,85.503 471.496,59.911 439.973,59.911ZM117.026,382.859C85.504,382.859 59.911,408.452 59.911,439.975C59.911,471.497 85.504,497.09 117.026,497.09C148.549,497.09 174.142,471.497 174.142,439.975C174.142,408.452 148.549,382.859 117.026,382.859Z" style="fill:white;stroke:black;stroke-width:7px;"/>
                    </g>
                    <g id="path3622" transform="matrix(0.191731,0.331356,-0.382828,-0.000365,852.73494,500.43371)">
                        <path d="M71.459,553.5C34.081,553.5 3.5,522.919 3.5,485.54L3.5,71.459C3.5,34.082 34.081,3.5 71.459,3.5L485.54,3.5C522.918,3.5 553.5,34.082 553.5,71.459L553.5,485.54C553.5,522.919 522.918,553.5 485.54,553.5L71.459,553.5ZM117.026,382.859C85.504,382.859 59.911,408.452 59.911,439.975C59.911,471.497 85.504,497.09 117.026,497.09C148.549,497.09 174.142,471.497 174.142,439.975C174.142,408.452 148.549,382.859 117.026,382.859ZM439.973,59.911C408.451,59.911 382.858,85.503 382.858,117.026C382.858,148.548 408.451,174.141 439.973,174.141C471.496,174.141 497.088,148.548 497.088,117.026C497.088,85.503 471.496,59.911 439.973,59.911ZM278.5,221.385C246.977,221.385 221.385,246.977 221.385,278.5C221.385,310.023 246.977,335.615 278.5,335.615C310.023,335.615 335.615,310.023 335.615,278.5C335.615,246.977 310.023,221.385 278.5,221.385Z" style="fill:white;stroke:black;stroke-width:7px;"/>
                    </g>
                </g>
            </g>
        </g>
    </g>
</svg>
