<?xml version="1.0" encoding="UTF-8" standalone="no"?>
<!DOCTYPE svg PUBLIC "-//W3C//DTD SVG 1.1//EN" "http://www.w3.org/Graphics/SVG/1.1/DTD/svg11.dtd">
<svg width="100%" height="100%" viewBox="0 0 379 310" version="1.1" xmlns="http://www.w3.org/2000/svg" xmlns:xlink="http://www.w3.org/1999/xlink" xml:space="preserve" xmlns:serif="http://www.serif.com/" style="fill-rule:evenodd;clip-rule:evenodd;stroke-linejoin:round;stroke-miterlimit:2;">
    <g transform="matrix(1,0,0,1,0.000104,-0.000061)">
        <g id="Bandit" transform="matrix(1,0,0,1,-321.043731,-330.71187)">
            <path d="M534.454,486.446C532.465,487.917 516.268,499.9 504.397,493.684C498.036,490.353 498.882,478.758 518.504,481.473C526.75,482.613 523.671,475.622 530.704,470.822C531.193,470.488 536.398,472.198 543.352,452.451C546.16,444.476 545.339,427.428 543.372,426.888C541.234,426.3 444.077,427.644 441.705,426.133C433.165,420.693 458.788,405.131 458.806,397.504C458.884,363.335 458.014,361.154 460.571,358.568C481.039,337.865 501.542,337.593 502.5,335.5C503.079,334.236 502.291,329.654 515.441,330.936C520.26,331.406 518.988,335.531 521.574,336.226C525.852,337.376 537.925,338.117 555.791,351.107C567.679,359.751 566.124,361.448 566.121,368.497C566.108,399.908 565.522,400.387 568.411,403.581C578.07,414.26 591.523,426.869 577.501,426.89C573.112,426.897 563.268,425.827 562.827,428.549C561.293,438.015 562.192,460.082 534.454,486.446Z"/>
            <path d="M644.54,459.092C611.002,454.954 611.052,454.977 609.464,454.743C601.242,453.532 602.595,450.766 603.341,442.485C606.082,412.045 619.498,404.012 636.508,403.846C664.616,403.574 674.596,412.3 677.228,413.924C689.964,421.781 684.599,461.156 681.601,461.873C680.328,462.178 650.76,459.72 644.54,459.092Z"/>
            <path d="M374.469,460.055C358.425,460.719 316.672,464.058 321.417,454.449C323.223,450.792 340.768,450.236 342.487,450.181C347.685,450.016 347.826,450.428 348.612,449.604C348.633,449.582 347.982,424.899 353.492,416.494C359.577,407.214 413.286,389.731 423.325,427.549C425.122,434.32 428.077,452.095 423.645,453.838C416.55,456.627 378.421,459.733 374.469,460.055Z"/>
            <path d="M643.938,585.451C644.439,589.834 650.054,638.927 647.49,640.478C645.114,641.916 627.367,612.141 621.144,587.59C614.445,561.166 620.728,548.142 563.632,520.228C554.027,515.532 552.536,514.538 554.806,511.733C576.769,484.595 576.529,483.907 579.505,483.547C582.461,483.189 589.248,485.235 587.636,494.521C586.735,499.712 583.777,505.426 588.756,508.035C636.512,533.057 639.188,541.365 643.938,585.451Z"/>
            <path d="M377.9,600.537C384.546,542.44 382.562,535.323 434.3,508.145C438.561,505.906 435.598,498.459 435.251,496.545C433.389,486.245 439.663,482.464 444.631,484.126C447.358,485.038 468.729,511.533 468.722,512.503C468.692,516.487 432.356,531.357 416.754,547.737C400.056,565.267 408.15,595.256 379.077,637.195C378.862,637.506 375.329,642.602 374.919,639.443C374.455,635.865 377.597,603.644 377.9,600.537Z"/>
            <path d="M697.946,584.481C699.773,613.229 699.002,618.086 699.887,626.565C700.916,636.426 687.859,608.68 684.245,587.543C679.437,559.431 677.752,558.95 650.87,536.067C643.64,529.912 633.963,514.621 641.387,517.798C672.399,531.068 683.07,541.102 686.088,543.94C696.652,553.873 697.254,568.235 697.946,584.481Z"/>
            <path d="M326.9,579.528C328.241,560.567 328.799,550.578 347.804,536.926C350.924,534.685 388.128,511.949 385.19,519.412C380.35,531.706 362.727,544.415 362.555,544.563C331.2,571.384 348.266,581.145 328.014,623.251C325.754,627.951 325.335,628.724 324.176,627.799C323.596,627.337 326.633,583.386 326.9,579.528Z"/>
            <path d="M650.462,502.463C635.884,514.094 628.658,496.211 634.568,494.733C639.994,493.376 641.063,498.084 645.016,494.038C656.359,482.427 656.164,481.743 655.782,480.407C655.529,479.525 652.497,474.361 657.63,468.616C664.938,460.435 670.755,469.679 665.11,484.342C662.39,491.408 657.231,494.369 650.462,502.463Z"/>
            <path d="M370.646,501.378C363.038,491.19 357.93,487.778 356.983,475.482C355.846,460.715 370.869,466.935 369.149,476.437C368.369,480.75 367.145,481.29 370.365,484.628C378.843,493.419 378.348,495.934 383.482,494.43C388.139,493.065 391.993,496.683 387.1,501.083C376.273,510.82 370.753,501.484 370.646,501.378Z"/>
            <path d="M469.36,459.581C465.238,451.06 464.605,451.387 461.998,442.357C457.069,425.29 473.217,428.667 474.214,437.536C475.396,448.049 474.599,448.059 476.718,458.455C476.837,459.039 477.238,470.497 469.36,459.581Z"/>
            <path d="M410.039,473.521C408.589,488.514 390.752,477.817 398.6,469.593C400.411,467.695 407.94,464.547 410.039,473.521Z"/>
            <path d="M624.284,479.264C612.149,487.247 609.334,465.411 621.443,467.824C624.774,468.488 626.182,471.201 626.489,472.503C627.229,475.646 624.643,478.823 624.284,479.264Z"/>
        </g>
    </g>
</svg>
