<?xml version="1.0" encoding="UTF-8" standalone="no"?>
<!DOCTYPE svg PUBLIC "-//W3C//DTD SVG 1.1//EN" "http://www.w3.org/Graphics/SVG/1.1/DTD/svg11.dtd">
<svg width="100%" height="100%" viewBox="0 0 154 155" version="1.1" xmlns="http://www.w3.org/2000/svg" xmlns:xlink="http://www.w3.org/1999/xlink" xml:space="preserve" xmlns:serif="http://www.serif.com/" style="fill-rule:evenodd;clip-rule:evenodd;stroke-linejoin:round;stroke-miterlimit:2;">
    <g transform="matrix(1,0,0,1,-2041,0)">
        <g id="bk_Abilities" transform="matrix(4.166667,0,0,4.166667,2041.255223,0.556814)">
            <rect x="0" y="0" width="36.85" height="36.85" style="fill:none;"/>
            <g id="bk_Abilities1" serif:id="bk_Abilities">
                <g transform="matrix(0.221542,0,0,0.220741,-413.388729,-38.051873)">
                    <path d="M1903.429,314.628L1881.022,301.691C1877.53,299.675 1875.379,295.95 1875.379,291.919L1875.379,266.162L1886.664,266.162L1886.664,291.919L1909.056,304.846L1903.429,314.628ZM1971.354,196.551L1949.132,183.721L1926.91,196.551L1921.283,186.769L1943.49,173.948C1946.981,171.932 1951.283,171.932 1954.774,173.948L1976.981,186.769L1971.354,196.551ZM1994.82,197.068L2017.242,210.014C2020.734,212.03 2022.884,215.755 2022.884,219.787L2022.884,245.507L2011.6,245.507L2011.6,219.787L1989.193,206.85L1994.82,197.068ZM1926.894,315.145L1949.132,327.984L1971.37,315.145L1976.996,324.927L1954.774,337.757C1951.283,339.773 1946.981,339.773 1943.49,337.757L1921.267,324.927L1926.894,315.145ZM1875.379,245.507L1875.379,219.787C1875.379,215.755 1877.53,212.03 1881.022,210.014L1903.444,197.068L1909.071,206.85L1886.664,219.787L1886.664,245.507L1875.379,245.507ZM2022.884,266.162L2022.884,291.919C2022.884,295.95 2020.734,299.675 2017.242,301.691L1994.835,314.628L1989.208,304.846L2011.6,291.919L2011.6,266.162L2022.884,266.162Z"/>
                </g>
                <g transform="matrix(1,0,0,0.779437,-0.473546,4.050116)">
                    <path d="M14.584,20.63C11.404,21.167 1.379,18.428 1.379,18.428C1.379,18.428 11.435,15.729 14.598,16.254C14.384,16.938 14.266,17.684 14.266,18.466C14.266,19.229 14.379,19.959 14.584,20.63ZM23.199,16.254C26.362,15.729 36.419,18.428 36.419,18.428C36.419,18.428 26.393,21.167 23.214,20.63C23.419,19.959 23.531,19.229 23.531,18.466C23.531,17.684 23.413,16.938 23.199,16.254Z"/>
                </g>
                <g transform="matrix(0.5,-0.866025,0.675012,0.389718,-3.473361,27.604452)">
                    <path d="M14.573,20.631C11.381,21.16 1.379,18.428 1.379,18.428C1.379,18.428 11.4,15.739 14.582,16.251C14.155,17.626 14.13,19.193 14.573,20.631ZM23.188,16.256C26.338,15.723 36.419,18.428 36.419,18.428C36.419,18.428 26.352,21.178 23.195,20.626C23.614,19.252 23.634,17.69 23.188,16.256Z"/>
                </g>
                <g transform="matrix(0.5,0.866025,-0.675012,0.389718,21.425015,-5.129137)">
                    <path d="M14.603,20.626C11.445,21.178 1.379,18.428 1.379,18.428C1.379,18.428 11.46,15.723 14.61,16.256C14.164,17.69 14.183,19.252 14.603,20.626ZM23.216,16.251C26.397,15.739 36.419,18.428 36.419,18.428C36.419,18.428 26.416,21.16 23.225,20.631C23.668,19.193 23.642,17.626 23.216,16.251Z"/>
                </g>
                <g transform="matrix(0.146538,0,0,0.146538,-291.94617,7.100538)">
                    <circle cx="2118.027" cy="77.402" r="19.301"/>
                </g>
            </g>
        </g>
    </g>
</svg>
