<?xml version="1.0" encoding="UTF-8" standalone="no"?>
<!DOCTYPE svg PUBLIC "-//W3C//DTD SVG 1.1//EN" "http://www.w3.org/Graphics/SVG/1.1/DTD/svg11.dtd">
<svg width="100%" height="100%" viewBox="0 0 154 155" version="1.1" xmlns="http://www.w3.org/2000/svg" xmlns:xlink="http://www.w3.org/1999/xlink" xml:space="preserve" xmlns:serif="http://www.serif.com/" style="fill-rule:evenodd;clip-rule:evenodd;stroke-linejoin:round;stroke-miterlimit:2;">
    <g transform="matrix(1,0,0,1,-1539,-179)">
        <g id="bk_Advanced" transform="matrix(4.166667,0,0,4.166667,1539.12932,179.751307)">
            <rect x="0" y="0" width="36.85" height="36.85" style="fill:none;"/>
            <g transform="matrix(0.239548,0,0,0.232553,-368.803434,-41.922426)">
                <path d="M1674.091,232.531L1674.091,225.25L1661.725,217.896L1661.725,205.506L1679.299,215.958C1682.522,217.874 1684.507,221.417 1684.507,225.25L1684.507,242.852L1674.091,232.531ZM1684.507,275.876L1684.507,293.75C1684.507,297.583 1682.522,301.126 1679.299,303.042L1661.725,313.494L1661.725,301.104L1674.091,293.75L1674.091,286.196L1684.507,275.876ZM1571.275,313.494L1553.701,303.042C1550.478,301.126 1548.493,297.583 1548.493,293.75L1548.493,225.25C1548.493,221.417 1550.478,217.874 1553.701,215.958L1571.275,205.506L1571.275,217.896L1558.909,225.25L1558.909,293.75L1571.275,301.104L1571.275,313.494ZM1591.313,193.589L1611.292,181.708C1614.515,179.791 1618.485,179.791 1621.708,181.708L1641.687,193.589L1641.687,205.979L1616.5,191L1591.313,205.979L1591.313,193.589ZM1591.313,313.021L1616.5,328L1641.687,313.021L1641.687,325.411L1621.708,337.292C1618.485,339.209 1614.515,339.209 1611.292,337.292L1591.313,325.411L1591.313,313.021Z"/>
            </g>
            <g transform="matrix(0.211483,0,0,0.211483,-323.310028,-35.824991)">
                <path d="M1578.97,261.035C1577.085,266.64 1571.784,270.682 1565.546,270.682C1557.731,270.682 1551.387,264.338 1551.387,256.523C1551.387,248.708 1557.731,242.363 1565.546,242.363C1571.784,242.363 1577.085,246.406 1578.97,252.011C1579.743,251.952 1580.515,251.88 1581.286,251.796C1582.1,245.833 1584.441,240.181 1588.082,235.389C1586.565,233.501 1584.958,231.693 1583.26,229.966C1585.075,227.736 1587.114,225.697 1589.345,223.881C1591.071,225.58 1592.879,227.187 1594.767,228.704C1599.559,225.063 1605.21,222.722 1611.172,221.908L1611.172,210.588C1611.172,209.334 1611.671,208.131 1612.557,207.244L1619.765,200.037C1619.756,199.887 1619.751,199.736 1619.751,199.584C1619.751,195.636 1622.957,192.43 1626.905,192.43C1630.853,192.43 1634.058,195.636 1634.058,199.584C1634.058,203.532 1630.853,206.738 1626.905,206.738C1626.753,206.738 1626.602,206.733 1626.452,206.724L1620.63,212.546L1620.63,221.908C1626.592,222.722 1632.243,225.063 1637.035,228.704C1637.862,228.04 1638.673,227.358 1639.469,226.659L1653.252,213.258L1653.252,193.718C1651.766,192.407 1650.827,190.488 1650.827,188.352C1650.827,184.404 1654.033,181.198 1657.981,181.198C1661.929,181.198 1665.135,184.404 1665.135,188.352C1665.135,190.488 1664.196,192.407 1662.709,193.718L1662.709,215.255C1662.709,216.532 1662.193,217.755 1661.277,218.646L1643.863,235.578C1647.422,240.329 1649.712,245.91 1650.516,251.794L1665.382,251.794C1667.33,246.302 1672.575,242.363 1678.732,242.363C1686.547,242.363 1692.891,248.708 1692.891,256.523C1692.891,264.338 1686.547,270.682 1678.732,270.682C1672.575,270.682 1667.33,266.744 1665.382,261.251L1650.516,261.251C1649.712,267.136 1647.422,272.717 1643.863,277.468L1661.277,294.4C1662.193,295.291 1662.709,296.514 1662.709,297.791L1662.709,319.029C1664.196,320.34 1665.135,322.259 1665.135,324.395C1665.135,328.343 1661.929,331.549 1657.981,331.549C1654.033,331.549 1650.827,328.343 1650.827,324.395C1650.827,322.259 1651.766,320.34 1653.252,319.029L1653.252,299.788L1639.469,286.387C1638.673,285.688 1637.862,285.006 1637.035,284.342C1632.243,287.983 1626.592,290.323 1620.63,291.138L1620.629,302.769L1626.452,308.592C1626.602,308.583 1626.753,308.578 1626.905,308.578C1630.853,308.578 1634.058,311.783 1634.058,315.732C1634.058,319.68 1630.853,322.885 1626.905,322.885C1622.957,322.885 1619.751,319.68 1619.751,315.732C1619.751,315.58 1619.756,315.429 1619.765,315.279L1612.557,308.071C1611.671,307.185 1611.172,305.982 1611.172,304.728L1611.172,291.138C1605.21,290.323 1599.559,287.983 1594.767,284.342C1592.879,285.859 1591.071,287.466 1589.345,289.164C1587.114,287.349 1585.075,285.31 1583.26,283.079C1584.958,281.353 1586.565,279.545 1588.082,277.657C1584.441,272.865 1582.1,267.213 1581.286,261.25C1580.515,261.166 1579.743,261.094 1578.97,261.035ZM1615.901,232.91C1602.869,232.91 1592.288,243.491 1592.288,256.523C1592.288,269.555 1602.869,280.136 1615.901,280.136C1628.933,280.136 1639.514,269.555 1639.514,256.523C1639.514,243.491 1628.933,232.91 1615.901,232.91ZM1678.732,251.442C1675.928,251.442 1673.651,253.719 1673.651,256.523C1673.651,259.327 1675.928,261.604 1678.732,261.604C1681.536,261.604 1683.812,259.327 1683.812,256.523C1683.812,253.719 1681.536,251.442 1678.732,251.442ZM1565.546,251.442C1562.742,251.442 1560.465,253.719 1560.465,256.523C1560.465,259.327 1562.742,261.604 1565.546,261.604C1568.35,261.604 1570.627,259.327 1570.627,256.523C1570.627,253.719 1568.35,251.442 1565.546,251.442Z"/>
            </g>
        </g>
    </g>
</svg>
