<?xml version="1.0" encoding="UTF-8" standalone="no"?>
<!DOCTYPE svg PUBLIC "-//W3C//DTD SVG 1.1//EN" "http://www.w3.org/Graphics/SVG/1.1/DTD/svg11.dtd">
<svg width="100%" height="100%" viewBox="0 0 154 154" version="1.1" xmlns="http://www.w3.org/2000/svg" xmlns:xlink="http://www.w3.org/1999/xlink" xml:space="preserve" xmlns:serif="http://www.serif.com/" style="fill-rule:evenodd;clip-rule:evenodd;stroke-linejoin:round;stroke-miterlimit:2;">
    <g transform="matrix(1,0,0,1,0,-3)">
        <g id="bk_BODY" transform="matrix(4.166667,0,0,4.166667,0,3.104439)">
            <rect x="0" y="0" width="36.85" height="36.85" style="fill:none;"/>
            <clipPath id="_clip1">
                <rect x="0" y="0" width="36.85" height="36.85"/>
            </clipPath>
            <g clip-path="url(#_clip1)">
                <g id="bk_BODY1" serif:id="bk_BODY">
                    <g>
                        <g transform="matrix(1,0,0,1,18.819,14.4846)">
                            <path d="M0,14.117C-0.825,14.117 -1.65,14.122 -2.475,14.115C-2.892,14.111 -3.097,13.862 -3.039,13.471C-2.825,12.007 -3.352,10.829 -4.264,9.707C-5.138,8.633 -5.875,7.447 -6.664,6.305C-7.157,5.589 -7.058,4.247 -6.452,3.637C-5.404,2.581 -4.342,1.539 -3.277,0.5C-2.874,0.106 -1.435,-0.057 -0.922,0.202C-0.591,0.369 -0.745,0.608 -0.862,0.783C-1.368,1.536 -1.909,2.265 -2.416,3.016C-2.72,3.467 -3.047,3.918 -3.252,4.415C-3.505,5.025 -3.158,5.547 -2.761,5.979C-2.134,6.66 -1.506,7.349 -0.803,7.947C-0.128,8.522 0.056,9.238 0.083,10.051C0.094,10.414 0.065,10.784 0.13,11.137C0.166,11.338 1.248,11.372 1.263,11.179C1.339,10.228 1.32,9.264 1.258,8.31C1.242,8.056 0.983,7.793 0.788,7.578C0.01,6.723 -0.792,5.889 -1.575,5.038C-1.982,4.595 -1.961,4.158 -1.564,3.732C-1.408,3.565 -1.279,3.371 -1.15,3.18C-0.87,2.765 -0.69,2.745 -0.331,3.106C-0.215,3.223 0.928,3.789 2.184,3.937C3.44,4.084 5.303,4.24 5.878,4.257C6.698,4.281 6.783,4.898 6.784,5.719C6.785,6.693 6.792,7.667 6.779,8.641C6.773,9.148 6.67,9.594 6.168,9.906C5.783,10.146 5.455,10.498 5.155,10.847C4.984,11.044 4.846,11.328 4.826,11.584C4.786,12.091 4.818,12.608 4.856,13.118C4.908,13.828 4.755,14.106 4.057,14.129C2.706,14.174 1.353,14.142 0,14.142L0,14.117" style="fill:rgb(35,31,32);fill-rule:nonzero;"/>
                        </g>
                        <g transform="matrix(1,0,0,1,22.1415,10.3528)">
                            <path d="M0,6.395C0.008,6.847 -0.19,7.03 -0.62,7.023C-0.95,7.018 -1.281,7.035 -1.611,7.022C-2.414,6.988 -2.768,6.657 -2.779,5.859C-2.788,5.184 -2.706,1.617 -2.698,0.51C-2.692,-0.386 -2.426,-0.64 -1.548,-0.622C-0.104,-0.593 -0.006,-0.493 -0.006,0.941C-0.006,1.751 -0.019,5.387 0,6.395" style="fill:rgb(35,31,32);fill-rule:nonzero;"/>
                        </g>
                        <g transform="matrix(1,0,0,1,23.2831,17.3609)">
                            <path d="M0,-5.943C0.033,-6.535 0.283,-6.613 0.773,-6.256C1.052,-6.053 1.306,-5.815 1.581,-5.605C2.391,-4.986 2.313,-4.071 2.361,-3.213C2.409,-2.358 2.417,-1.499 2.402,-0.643C2.395,-0.263 2.426,0.196 1.947,0.362C1.371,0.562 0.737,0.67 0.251,0.25C0.027,0.056 -0.03,-0.404 -0.049,-0.75C-0.09,-1.54 -0.052,-5.006 0,-5.943" style="fill:rgb(35,31,32);fill-rule:nonzero;"/>
                        </g>
                        <g transform="matrix(1,0,0,1,18.4052,10.7374)">
                            <path d="M0,1.965C-0.057,2.65 -0.033,2.793 -0.599,2.817C-1.165,2.841 -1.651,2.793 -1.783,2.793C-2.52,2.795 -2.56,2.643 -2.674,2.36C-2.787,2.077 -2.859,0.519 -2.822,-0.173C-2.808,-0.427 -2.57,-0.57 -2.155,-0.723C-1.741,-0.876 -0.682,-0.812 -0.348,-0.527C-0.209,-0.409 -0.083,-0.215 -0.056,-0.039C0.016,0.432 0.057,1.28 0,1.965" style="fill:rgb(35,31,32);fill-rule:nonzero;"/>
                        </g>
                        <g transform="matrix(1,0,0,1,14.7077,14.3795)">
                            <path d="M0,-2.01C0.043,0.34 -1.622,1.154 -1.831,1.312C-2.041,1.47 -2.384,1.494 -2.392,1.102C-2.415,0.117 -2.443,-0.871 -2.379,-1.852C-2.322,-2.722 -1.178,-3.504 -0.374,-3.127C0.001,-2.952 -0.017,-2.936 0,-2.01" style="fill:rgb(35,31,32);fill-rule:nonzero;"/>
                        </g>
                        <g transform="matrix(1,0,0,1,31.3573,11.5843)">
                            <path d="M0,-3.186L-0.23,-2.787C-0.462,-2.386 -0.324,-1.873 0.077,-1.641L0.418,-1.444C0.678,-1.294 0.838,-1.017 0.838,-0.718L0.838,-0.3C0.838,0.163 1.213,0.539 1.676,0.539L2.137,0.539C2.6,0.539 2.976,0.163 2.976,-0.3L2.976,-1.952C2.976,-2.252 2.816,-2.529 2.556,-2.679L1.146,-3.493C0.745,-3.725 0.232,-3.587 0,-3.186" style="fill:rgb(35,31,32);fill-rule:nonzero;"/>
                        </g>
                        <g transform="matrix(1,0,0,1,19.3964,2.9933)">
                            <path d="M0,30.864L-0.713,31.276C-0.972,31.425 -1.292,31.425 -1.552,31.276L-14.644,23.717C-14.903,23.567 -15.063,23.29 -15.063,22.991L-15.063,7.873C-15.063,7.574 -14.903,7.297 -14.644,7.147L-1.552,-0.412C-1.292,-0.562 -0.972,-0.562 -0.713,-0.412L-0.331,-0.191C0.07,0.04 0.583,-0.097 0.815,-0.498L1.045,-0.897C1.277,-1.298 1.139,-1.811 0.738,-2.043L-0.713,-2.881C-0.972,-3.031 -1.292,-3.031 -1.552,-2.881L-16.782,5.912C-17.042,6.062 -17.201,6.339 -17.201,6.639L-17.201,24.225C-17.201,24.525 -17.042,24.802 -16.782,24.952L-1.552,33.745C-1.292,33.895 -0.972,33.895 -0.713,33.745L1.086,32.706C1.498,32.468 1.63,31.934 1.375,31.531L1.128,31.142C0.887,30.762 0.39,30.639 0,30.864" style="fill:rgb(35,31,32);fill-rule:nonzero;"/>
                        </g>
                        <g transform="matrix(1,0,0,1,32.1948,27.9382)">
                            <path d="M0,-2.372L0,-1.954C0,-1.655 -0.16,-1.378 -0.419,-1.228C-0.832,-0.99 -0.964,-0.455 -0.709,-0.053L-0.462,0.337C-0.221,0.717 0.276,0.839 0.666,0.614L1.719,0.007C1.978,-0.143 2.138,-0.42 2.138,-0.72L2.138,-2.372C2.138,-2.835 1.763,-3.211 1.299,-3.211L0.839,-3.211C0.376,-3.211 0,-2.835 0,-2.372" style="fill:rgb(35,31,32);fill-rule:nonzero;"/>
                        </g>
                    </g>
                </g>
            </g>
        </g>
    </g>
</svg>
