<?xml version="1.0" encoding="UTF-8" standalone="no"?>
<!DOCTYPE svg PUBLIC "-//W3C//DTD SVG 1.1//EN" "http://www.w3.org/Graphics/SVG/1.1/DTD/svg11.dtd">
<svg width="100%" height="100%" viewBox="0 0 155 154" version="1.1" xmlns="http://www.w3.org/2000/svg" xmlns:xlink="http://www.w3.org/1999/xlink" xml:space="preserve" xmlns:serif="http://www.serif.com/" style="fill-rule:evenodd;clip-rule:evenodd;stroke-linejoin:round;stroke-miterlimit:2;">
    <g transform="matrix(1,0,0,1,-172,-3)">
        <g id="bk_COOL" transform="matrix(4.166667,0,0,4.166667,172.73625,3.104439)">
            <rect x="0" y="0" width="36.85" height="36.85" style="fill:none;"/>
            <clipPath id="_clip1">
                <rect x="0" y="0" width="36.85" height="36.85"/>
            </clipPath>
            <g clip-path="url(#_clip1)">
                <g id="bk_COOL1" serif:id="bk_COOL">
                    <g>
                        <g transform="matrix(1,0,0,1,18.4252,9.9647)">
                            <path d="M0,16.921C-4.673,16.921 -8.46,13.133 -8.46,8.461C-8.46,3.788 -4.673,0 0,0C-2.336,0 -4.23,1.894 -4.23,4.23C-4.23,6.567 -2.336,8.461 0,8.461C2.336,8.461 4.23,10.354 4.23,12.691C4.23,15.027 2.336,16.921 0,16.921M1.41,4.23C1.41,5.009 0.779,5.64 0,5.64C-0.779,5.64 -1.41,5.009 -1.41,4.23C-1.41,3.452 -0.779,2.82 0,2.82C0.779,2.82 1.41,3.452 1.41,4.23M0,-1.411C-5.452,-1.411 -9.872,3.008 -9.872,8.461C-9.872,13.913 -5.452,18.332 0,18.332C5.452,18.332 9.872,13.913 9.872,8.461C9.872,3.008 5.452,-1.411 0,-1.411" style="fill:rgb(3,4,5);fill-rule:nonzero;"/>
                        </g>
                        <g transform="matrix(-1,0,0,1,18.4252,24.0654)">
                            <path d="M0,-2.82C0.779,-2.82 1.41,-2.189 1.41,-1.41C1.41,-0.631 0.779,0 0,0C-0.779,0 -1.41,-0.631 -1.41,-1.41C-1.41,-2.189 -0.779,-2.82 0,-2.82" style="fill:rgb(3,4,5);fill-rule:nonzero;"/>
                        </g>
                        <g transform="matrix(1,0,0,1,32.4523,36.7818)">
                            <path d="M0,-10.258L-13.51,-2.458C-13.83,-2.273 -14.224,-2.273 -14.544,-2.458L-26.969,-9.631C-27.48,-9.927 -28.135,-9.734 -28.405,-9.21C-28.658,-8.719 -28.481,-8.116 -28.003,-7.84L-14.544,-0.07C-14.224,0.115 -13.83,0.115 -13.51,-0.07L0.141,-7.951C0.619,-8.227 0.796,-8.83 0.543,-9.32L0,-10.373L0,-10.258Z" style="fill:rgb(35,31,32);fill-rule:nonzero;"/>
                        </g>
                        <g transform="matrix(1,0,0,1,32.4523,19.3279)">
                            <path d="M0,-2.65L0,0.001C0,0.562 0.448,1.021 1.009,1.035C1.59,1.048 2.068,0.582 2.068,0.001L2.068,-2.65C2.068,-3.231 1.59,-3.698 1.009,-3.684C0.448,-3.67 0,-3.211 0,-2.65" style="fill:rgb(35,31,32);fill-rule:nonzero;"/>
                        </g>
                        <g transform="matrix(1,0,0,1,2.33,19.334)">
                            <path d="M0,-2.662L0,0.001C0,0.581 0.478,1.048 1.059,1.034C1.62,1.021 2.068,0.562 2.068,0.001L2.068,-2.662C2.068,-3.223 1.62,-3.682 1.059,-3.696C0.478,-3.71 0,-3.243 0,-2.662" style="fill:rgb(35,31,32);fill-rule:nonzero;"/>
                        </g>
                        <g transform="matrix(1,0,0,1,17.9082,9.7275)">
                            <path d="M0,-9.589L-13.124,-2.012C-13.602,-1.736 -13.779,-1.133 -13.526,-0.643C-13.255,-0.118 -12.601,0.074 -12.09,-0.221L0,-7.201C0.32,-7.386 0.714,-7.386 1.034,-7.201L13.316,-0.11C13.827,0.185 14.481,-0.007 14.752,-0.532C15.005,-1.023 14.828,-1.625 14.35,-1.901L1.034,-9.589C0.714,-9.774 0.32,-9.774 0,-9.589" style="fill:rgb(35,31,32);fill-rule:nonzero;"/>
                        </g>
                    </g>
                </g>
            </g>
        </g>
    </g>
</svg>
