<?xml version="1.0" encoding="UTF-8" standalone="no"?>
<!DOCTYPE svg PUBLIC "-//W3C//DTD SVG 1.1//EN" "http://www.w3.org/Graphics/SVG/1.1/DTD/svg11.dtd">
<svg width="100%" height="100%" viewBox="0 0 136 152" version="1.1" xmlns="http://www.w3.org/2000/svg" xmlns:xlink="http://www.w3.org/1999/xlink" xml:space="preserve" xmlns:serif="http://www.serif.com/" style="fill-rule:evenodd;clip-rule:evenodd;stroke-linejoin:round;stroke-miterlimit:2;">
    <g transform="matrix(1,0,0,1,-526.497461,-0.078171)">
        <g transform="matrix(4.166667,0,0,4.166667,517.389303,0)">
            <g id="bk_cyberware">
                <g transform="matrix(0.210705,0,0,0.210705,-143.16316,-34.147377)">
                    <path d="M748.545,327.908L731.311,317.958L736.603,308.791L753.838,318.742L748.545,327.908ZM779.95,318.742L797.184,308.791L802.477,317.958L785.242,327.908L779.95,318.742ZM701.854,300.951L695.115,297.06C691.84,295.17 689.823,291.675 689.823,287.894L689.823,211.122C689.823,207.341 691.84,203.846 695.115,201.955L761.601,163.57C764.876,161.679 768.911,161.679 772.186,163.57L838.672,201.955C841.947,203.846 843.965,207.341 843.965,211.122L843.965,287.894C843.965,291.675 841.947,295.17 838.672,297.06L831.933,300.951L826.641,291.785L833.38,287.894L833.38,211.122L766.894,172.736L700.407,211.122L700.407,287.894L707.146,291.785L701.854,300.951Z"/>
                </g>
                <g id="Background" transform="matrix(0.051151,0,0,0.051151,-7.836194,-4.149377)">
                    <path d="M573.733,126.243L665.575,173.221L726.448,223.552L730.162,494.527L785.224,550.234L759.473,573.157L695.69,512L695.491,448.51L598.476,531.481L598.058,598.628L635.538,635.451L683.501,636.417L749.49,698.827L773.461,702.891L787.415,719.521L785.583,741.959L771.101,755.058L743.504,758.086L725.083,741.943L723.593,717.469L674.294,666.724L621.505,665.251L566.054,612.667L566.031,557.691L526.589,594.501L526.503,728.5L542.346,745.647L543.911,772.504L527.459,790.452L512.069,791.102L496.679,790.452L480.226,772.504L481.792,745.647L497.635,728.5L497.548,594.501L458.106,557.691L458.083,612.667L402.632,665.251L349.844,666.724L300.544,717.469L299.055,741.943L280.634,758.086L253.037,755.058L238.555,741.959L236.722,719.521L250.676,702.891L274.648,698.827L340.637,636.417L388.6,635.451L426.079,598.628L425.662,531.481L328.647,448.51L328.447,512L264.665,573.157L238.913,550.234L293.976,494.527L297.69,223.552L358.563,173.221L451.742,126.242L451.742,301.642L512.194,348.562L573.733,301.642L573.733,126.243ZM387.754,338.24L388.095,388.099L482.625,453.524L481.859,418.485L406.923,366.042L406.432,337.152L406.482,336.726C416.294,332.325 423.134,322.468 423.134,311.026C423.134,295.489 410.52,282.874 394.982,282.874C379.445,282.874 366.831,295.489 366.831,311.026C366.831,324.065 375.715,335.046 387.754,338.24ZM617.58,336.044L617.705,337.152L617.215,366.042L542.278,418.485L541.512,453.524L636.042,388.099L636.381,338.56C649.096,335.85 658.645,324.544 658.645,311.026C658.645,295.489 646.03,282.874 630.493,282.874C614.955,282.874 602.341,295.489 602.341,311.026C602.341,321.91 608.531,331.36 617.58,336.044ZM512.069,573.322L527.286,559.59L525.002,457.477L512.069,459.142L499.135,457.477L496.852,559.59L512.069,573.322ZM512.069,771.356L529.454,771.226L529.488,749.959L512.069,750.041L494.65,749.959L494.683,771.226L512.069,771.356Z" style="fill:rgb(2,3,2);"/>
                </g>
            </g>
        </g>
    </g>
</svg>
