<?xml version="1.0" encoding="UTF-8" standalone="no"?>
<!DOCTYPE svg PUBLIC "-//W3C//DTD SVG 1.1//EN" "http://www.w3.org/Graphics/SVG/1.1/DTD/svg11.dtd">
<svg width="100%" height="100%" viewBox="0 0 155 155" version="1.1" xmlns="http://www.w3.org/2000/svg" xmlns:xlink="http://www.w3.org/1999/xlink" xml:space="preserve" xmlns:serif="http://www.serif.com/" style="fill-rule:evenodd;clip-rule:evenodd;stroke-linejoin:round;stroke-miterlimit:2;">
    <g transform="matrix(1,0,0,1,-1371,-179)">
        <g id="bk_Details" transform="matrix(4.166667,0,0,4.166667,1371.63085,179.751307)">
            <rect x="0" y="0" width="36.85" height="36.85" style="fill:none;"/>
            <g id="bk_Details1" serif:id="bk_Details" transform="matrix(0.241049,0,0,0.212338,-330.087401,-35.762822)">
                <path d="M1466.219,228.845L1485.262,228.845L1485.306,198.364C1485.308,196.453 1486.198,194.685 1487.648,193.711C1489.097,192.738 1490.891,192.705 1492.368,193.623L1514.509,207.825C1517.713,209.711 1519.724,213.466 1519.724,217.563L1519.724,293.188C1519.724,297.285 1517.713,301.041 1514.509,302.926L1450.263,340.739C1447.474,342.38 1444.157,342.38 1441.368,340.739L1377.122,302.926C1373.918,301.041 1371.907,297.285 1371.907,293.188L1371.907,217.563C1371.907,213.466 1373.918,209.711 1377.122,207.825L1397.499,195.832L1402.235,205.401L1381.57,217.563L1381.57,232.841L1410.33,248.077C1411.791,248.851 1412.724,250.515 1412.724,252.345L1412.724,279.661L1436.353,294.288L1436.353,240.37C1431.89,238.1 1428.173,234.275 1425.737,229.504L1413.554,229.504C1410.919,229.504 1408.783,227.079 1408.783,224.088L1408.783,192.441C1408.783,190.43 1409.764,188.585 1411.332,187.648L1441.368,170.013C1444.157,168.371 1447.474,168.371 1450.263,170.013L1466.839,179.769L1461.695,189.097L1445.815,179.751L1418.325,195.71L1418.325,218.672L1422.717,218.672C1422.657,217.902 1422.626,217.121 1422.626,216.333C1422.626,201.804 1433.017,190.008 1445.815,190.008C1458.614,190.008 1469.004,201.804 1469.004,216.333C1469.004,220.86 1467.995,225.122 1466.219,228.845ZM1455.278,240.37L1455.278,257.557L1470.503,250.81C1471.779,250.244 1473.22,250.43 1474.351,251.308C1475.483,252.185 1476.16,253.641 1476.16,255.197L1476.16,286.131L1482.088,282.363L1482.088,268.734C1482.088,266.913 1483.013,265.255 1484.463,264.476L1509.354,251.118C1509.586,250.994 1509.822,250.896 1510.061,250.824L1510.061,217.563L1494.833,208.601L1494.796,234.269C1494.792,237.257 1492.657,239.677 1490.025,239.677L1456.537,239.677C1456.125,239.922 1455.705,240.153 1455.278,240.37ZM1455.278,325.431L1510.061,293.188L1510.061,261.157L1490.385,271.717L1490.385,285.123C1490.385,286.828 1489.573,288.399 1488.263,289.232L1474.038,298.274C1472.754,299.091 1471.184,299.073 1469.914,298.228C1468.643,297.383 1467.863,295.837 1467.863,294.165L1467.863,262.091L1455.278,267.669L1455.278,325.431ZM1381.57,243.235L1381.57,293.188L1436.353,325.431L1436.353,305.016L1406.59,286.592C1405.257,285.767 1404.427,284.181 1404.427,282.457L1404.427,255.344L1381.57,243.235ZM1445.815,201.182C1438.449,201.182 1432.469,207.971 1432.469,216.333C1432.469,224.695 1438.449,231.484 1445.815,231.484C1453.182,231.484 1459.162,224.695 1459.162,216.333C1459.162,207.971 1453.182,201.182 1445.815,201.182Z"/>
            </g>
        </g>
    </g>
</svg>
