<?xml version="1.0" encoding="UTF-8" standalone="no"?>
<!DOCTYPE svg PUBLIC "-//W3C//DTD SVG 1.1//EN" "http://www.w3.org/Graphics/SVG/1.1/DTD/svg11.dtd">
<svg width="100%" height="100%" viewBox="0 0 154 155" version="1.1" xmlns="http://www.w3.org/2000/svg" xmlns:xlink="http://www.w3.org/1999/xlink" xml:space="preserve" xmlns:serif="http://www.serif.com/" style="fill-rule:evenodd;clip-rule:evenodd;stroke-linejoin:round;stroke-miterlimit:2;">
    <g transform="matrix(1,0,0,1,-1872,-179)">
        <g id="bk_Effects" transform="matrix(4.166667,0,0,4.166667,1872,179.751307)">
            <rect x="0" y="0" width="36.85" height="36.85" style="fill:none;"/>
            <g id="bk_Effects1" serif:id="bk_Effects" transform="matrix(0.221542,0,0,0.220882,-413.388729,-38.088102)">
                <path d="M1875.379,291.919C1875.379,291.919 1875.379,265.538 1875.379,254.738C1875.379,253.537 1875.855,252.385 1876.701,251.536C1877.548,250.687 1878.696,250.21 1879.893,250.21C1886.266,250.21 1897.135,250.21 1897.135,250.21C1899.493,250.21 1901.603,251.677 1902.424,253.888L1908.304,269.715L1919.109,237.254C1919.854,235.016 1921.913,233.478 1924.27,233.397C1926.628,233.317 1928.786,234.711 1929.682,236.893L1930.131,237.987L1938.57,205.133C1939.197,202.694 1941.364,200.965 1943.882,200.897C1946.399,200.828 1948.657,202.437 1949.416,204.838L1968.606,265.634L1982.446,226.329C1983.171,224.271 1985.018,222.815 1987.188,222.591C1989.359,222.366 1991.464,223.414 1992.595,225.281L2007.687,250.21L2011.6,250.21L2011.6,221.078C2011.6,220.279 2011.174,219.541 2010.484,219.142C2010.22,218.99 2009.929,218.822 2009.635,218.652C2009.048,218.313 2008.62,217.754 2008.445,217.099C2008.269,216.443 2008.362,215.744 2008.701,215.157C2008.701,215.155 2008.702,215.154 2008.703,215.153C2009.042,214.566 2009.134,213.867 2008.959,213.211C2008.784,212.555 2008.356,211.996 2007.769,211.658C2005.375,210.276 2001.56,208.073 1999.001,206.595C1998.292,206.186 1997.775,205.511 1997.564,204.72C1997.352,203.928 1997.463,203.084 1997.873,202.375C1997.874,202.372 1997.876,202.37 1997.877,202.367C1998.723,200.903 2000.591,200.401 2002.054,201.245C2007.02,204.112 2017.242,210.014 2017.242,210.014C2020.734,212.03 2022.884,215.755 2022.884,219.787C2022.884,219.787 2022.884,246.167 2022.884,256.967C2022.884,258.168 2022.409,259.32 2021.562,260.169C2020.716,261.018 2019.568,261.495 2018.371,261.495C2015.229,261.495 2011.6,261.495 2011.6,261.495L2004.507,261.495C2002.533,261.495 2000.703,260.463 1999.68,258.775L1989.125,241.339L1973.636,285.326C1972.83,287.616 1970.649,289.134 1968.222,289.094C1965.794,289.054 1963.665,287.466 1962.934,285.151L1944.592,227.046L1936.832,257.256C1936.228,259.611 1934.182,261.314 1931.757,261.481C1929.332,261.649 1927.071,260.245 1926.148,257.996L1925.016,255.239L1913.95,288.484C1913.194,290.756 1911.087,292.303 1908.693,292.344C1906.3,292.385 1904.141,290.911 1903.307,288.667L1893.212,261.495L1886.664,261.495L1886.664,291.919L1949.132,327.984L2011.6,291.919L2011.6,277.196C2011.6,275.995 2012.075,274.844 2012.922,273.995C2013.768,273.146 2014.917,272.669 2016.114,272.669C2016.857,272.669 2017.627,272.669 2018.371,272.669C2019.568,272.669 2020.716,273.146 2021.562,273.995C2022.409,274.844 2022.884,275.995 2022.884,277.196C2022.884,282.886 2022.884,291.919 2022.884,291.919C2022.884,295.95 2020.734,299.675 2017.242,301.691L1954.774,337.757C1951.283,339.773 1946.981,339.773 1943.49,337.757L1881.022,301.691C1877.53,299.675 1875.379,295.95 1875.379,291.919ZM1889.157,216.726C1889.343,217.048 1889.394,217.431 1889.298,217.791C1889.201,218.151 1888.967,218.457 1888.645,218.643C1888.126,218.943 1887.549,219.276 1887.152,219.505C1886.85,219.679 1886.664,220.002 1886.664,220.352C1886.664,222.415 1886.664,229.67 1886.664,234.509C1886.664,235.71 1886.188,236.861 1885.342,237.71C1884.495,238.559 1883.347,239.036 1882.15,239.036C1881.407,239.036 1880.636,239.036 1879.893,239.036C1878.696,239.036 1877.548,238.559 1876.701,237.71C1875.855,236.861 1875.379,235.71 1875.379,234.509C1875.379,228.819 1875.379,219.787 1875.379,219.787C1875.379,215.755 1877.53,212.03 1881.022,210.014C1881.022,210.014 1890.103,204.771 1894.932,201.983C1896.557,201.044 1898.633,201.602 1899.573,203.23C1899.573,203.23 1899.573,203.231 1899.573,203.231C1900.027,204.017 1900.15,204.952 1899.916,205.829C1899.682,206.706 1899.109,207.454 1898.324,207.907C1895.926,209.292 1892.577,211.225 1890.269,212.557C1889.57,212.961 1889.06,213.627 1888.851,214.409C1888.642,215.191 1888.752,216.024 1889.156,216.724C1889.156,216.725 1889.157,216.725 1889.157,216.726ZM1912.149,193.476C1911.984,193.191 1911.94,192.852 1912.024,192.534C1912.109,192.217 1912.317,191.946 1912.601,191.781C1918.167,188.568 1943.49,173.948 1943.49,173.948C1946.981,171.932 1951.283,171.932 1954.774,173.948C1954.774,173.948 1979.395,188.163 1984.737,191.247C1985.006,191.402 1985.202,191.659 1985.282,191.959C1985.363,192.26 1985.32,192.58 1985.165,192.849C1985.165,192.85 1985.164,192.851 1985.164,192.852C1984.836,193.419 1984.112,193.614 1983.545,193.287C1981.467,192.087 1976.698,189.333 1973.651,187.574C1972.139,186.701 1970.207,187.22 1969.333,188.735C1969.332,188.736 1969.332,188.737 1969.331,188.738C1968.457,190.252 1966.527,190.77 1965.016,189.898C1962.025,188.171 1957.373,185.485 1955.237,184.252C1954.605,183.888 1953.799,184.104 1953.434,184.737C1953.433,184.737 1953.433,184.738 1953.433,184.738C1953.082,185.346 1952.307,185.554 1951.701,185.204C1951.248,184.942 1950.723,184.64 1950.267,184.376C1949.564,183.97 1948.699,183.97 1947.997,184.376C1947.747,184.52 1947.472,184.679 1947.19,184.842C1945.693,185.706 1943.781,185.192 1942.916,183.693C1942.914,183.691 1942.913,183.688 1942.911,183.686C1942.048,182.19 1940.14,181.677 1938.646,182.539C1935.642,184.274 1930.935,186.991 1928.806,188.221C1928.191,188.576 1927.405,188.365 1927.05,187.749C1927.049,187.748 1927.049,187.748 1927.049,187.747C1926.707,187.155 1925.952,186.952 1925.361,187.293C1922.814,188.764 1916.413,192.459 1913.855,193.936C1913.258,194.281 1912.495,194.076 1912.15,193.478C1912.149,193.477 1912.149,193.476 1912.149,193.476Z"/>
            </g>
        </g>
    </g>
</svg>
