<?xml version="1.0" encoding="UTF-8" standalone="no"?>
<!DOCTYPE svg PUBLIC "-//W3C//DTD SVG 1.1//EN" "http://www.w3.org/Graphics/SVG/1.1/DTD/svg11.dtd">
<svg width="100%" height="100%" viewBox="0 0 154 155" version="1.1" xmlns="http://www.w3.org/2000/svg" xmlns:xlink="http://www.w3.org/1999/xlink" xml:space="preserve" xmlns:serif="http://www.serif.com/" style="fill-rule:evenodd;clip-rule:evenodd;stroke-linejoin:round;stroke-miterlimit:2;">
    <g transform="matrix(1,0,0,1,-343,-175)">
        <g id="bk_HP" transform="matrix(4.166667,0,0,4.166667,343.086224,175.840689)">
            <rect x="0" y="0" width="36.85" height="36.85" style="fill:none;"/>
            <g id="bk_HP1" serif:id="bk_HP" transform="matrix(0.031037,0,0,0.031827,2.610506,2.129775)">
                <g transform="matrix(1.050906,0,0,1.114637,-96.978476,-45.875701)">
                    <path d="M866.884,136.85C867.97,134.969 869.857,133.588 872.095,133.037C874.332,132.486 876.718,132.814 878.681,133.944C907.409,150.477 1007.793,208.247 1007.793,208.247C1030.659,221.449 1044.745,245.847 1044.745,272.25L1044.745,728.75C1044.745,755.153 1030.659,779.551 1007.793,792.753C1007.793,792.753 907.11,850.882 878.443,867.433C876.497,868.556 874.13,868.885 871.91,868.34C869.69,867.794 867.817,866.424 866.74,864.558C866.736,864.552 866.732,864.545 866.729,864.539C865.651,862.673 863.778,861.303 861.558,860.758C859.338,860.212 856.971,860.541 855.025,861.664C843.095,868.552 819.916,881.935 807.281,889.229C802.363,892.069 800.663,897.918 803.386,902.635C805.235,905.836 806.907,908.734 806.907,908.734L731.836,952.077C730.077,953.092 727.91,953.092 726.151,952.077C724.392,951.061 723.308,949.184 723.308,947.153L723.308,874.945C723.308,872.914 724.392,871.037 726.151,870.022L970.841,728.75L970.841,546.423C970.841,544.345 971.738,542.353 973.336,540.884C974.934,539.414 977.102,538.589 979.361,538.589C979.366,538.589 979.37,538.589 979.375,538.589C981.634,538.589 983.802,537.764 985.4,536.294C986.998,534.825 987.895,532.833 987.895,530.755C987.895,516.554 987.895,486.72 987.895,472.519C987.895,470.441 986.998,468.449 985.4,466.979C983.802,465.51 981.634,464.685 979.375,464.685C979.37,464.685 979.366,464.685 979.361,464.685C977.102,464.685 974.934,463.86 973.336,462.39C971.738,460.921 970.841,458.929 970.841,456.851C970.841,420.758 970.841,272.25 970.841,272.25L726.151,130.978C724.392,129.963 723.308,128.086 723.308,126.055L723.308,53.847C723.308,51.816 724.392,49.939 726.151,48.923C727.91,47.908 730.077,47.908 731.836,48.923C731.836,48.923 777.757,75.591 797.852,87.26C803.059,90.284 804.851,96.486 801.964,101.487C801.896,101.603 801.829,101.719 801.763,101.835C799.955,104.966 801.083,108.85 804.349,110.736C815.887,117.397 841.741,132.324 854.757,139.839C856.772,141.002 859.223,141.342 861.522,140.778C863.821,140.213 865.761,138.795 866.877,136.862C866.879,136.858 866.882,136.854 866.884,136.85ZM347.045,98.165C345.24,95.038 346.362,91.16 349.618,89.271C367.244,79.046 419.164,48.923 419.164,48.923C420.923,47.908 423.09,47.908 424.849,48.923C426.608,49.939 427.692,51.816 427.692,53.847L427.692,126.055C427.692,128.086 426.608,129.963 424.849,130.978L180.159,272.25L180.159,458.183C180.159,460.26 179.262,462.253 177.664,463.722C176.066,465.191 173.898,466.017 171.639,466.017C171.634,466.017 171.63,466.017 171.625,466.017C169.366,466.017 167.198,466.842 165.6,468.311C164.002,469.78 163.105,471.773 163.105,473.851C163.105,488.052 163.105,517.886 163.105,532.087C163.105,534.164 164.002,536.157 165.6,537.626C167.198,539.095 169.366,539.921 171.625,539.921C171.63,539.921 171.634,539.921 171.639,539.921C173.898,539.921 176.066,540.746 177.664,542.215C179.262,543.685 180.159,545.677 180.159,547.755C180.159,583.425 180.159,728.75 180.159,728.75L424.849,870.022C426.608,871.037 427.692,872.914 427.692,874.945L427.692,947.153C427.692,949.184 426.608,951.061 424.849,952.077C423.09,953.092 420.923,953.092 419.164,952.077C419.164,952.077 372.668,925.232 352.833,913.78C347.876,910.918 346.163,905.022 348.907,900.268C350.732,897.108 352.372,894.267 352.372,894.267C352.372,894.267 312.801,871.421 295.889,861.657C293.946,860.535 291.584,860.207 289.368,860.752C287.152,861.296 285.282,862.663 284.206,864.526C284.203,864.531 284.201,864.535 284.198,864.54C283.123,866.403 281.253,867.77 279.037,868.314C276.821,868.858 274.458,868.53 272.516,867.409C243.874,850.873 143.207,792.753 143.207,792.753C120.341,779.551 106.255,755.153 106.255,728.75L106.255,272.25C106.255,245.847 120.341,221.449 143.207,208.247C143.207,208.247 243.465,150.519 272.218,133.962C274.189,132.828 276.583,132.497 278.829,133.05C281.075,133.603 282.969,134.99 284.059,136.877C284.061,136.881 284.063,136.884 284.065,136.888C285.177,138.814 287.11,140.227 289.401,140.79C291.693,141.353 294.135,141.014 296.143,139.854C307.945,133.04 330.346,120.107 343.02,112.79C348.292,109.746 350.113,103.478 347.195,98.423C347.145,98.337 347.095,98.251 347.045,98.165Z"/>
                </g>
                <g transform="matrix(6.204111,0,0,2.422831,-1117.659097,-686.03378)">
                    <path d="M255.741,512L242.232,512C238.79,512 236,505.033 236,496.438C236,495.481 236,494.519 236,493.562C236,484.967 238.79,478 242.232,478C248.017,478 255.741,478 255.741,478L255.741,439.947C255.741,435.819 256.397,431.861 257.566,428.943C258.735,426.024 260.32,424.385 261.973,424.385C261.991,424.385 262.009,424.385 262.027,424.385C263.68,424.385 265.265,426.024 266.434,428.943C267.603,431.861 268.259,435.819 268.259,439.947C268.259,455.778 268.259,478 268.259,478L281.768,478C285.21,478 288,484.967 288,493.562C288,494.519 288,495.481 288,496.438C288,505.033 285.21,512 281.768,512C275.983,512 268.259,512 268.259,512L268.259,550.053C268.259,554.181 267.603,558.139 266.434,561.057C265.265,563.976 263.68,565.615 262.027,565.615C262.009,565.615 261.991,565.615 261.973,565.615C260.32,565.615 258.735,563.976 257.566,561.057C256.397,558.139 255.741,554.181 255.741,550.053C255.741,534.222 255.741,512 255.741,512Z"/>
                </g>
                <g transform="matrix(1.930168,0,0,2.422831,286.784932,-686.03378)">
                    <path d="M288,480.38L288,509.62C288,510.934 286.627,512 284.936,512L239.064,512C237.373,512 236,510.934 236,509.62L236,480.38C236,479.066 237.373,478 239.064,478L284.936,478C286.627,478 288,479.066 288,480.38Z"/>
                </g>
                <g transform="matrix(1.930168,0,0,2.422831,-282.556945,-686.03378)">
                    <path d="M288,480.25L288,509.75C288,510.992 286.702,512 285.104,512L238.896,512C237.298,512 236,510.992 236,509.75L236,480.25C236,479.008 237.298,478 238.896,478L285.104,478C286.702,478 288,479.008 288,480.25Z"/>
                </g>
                <g transform="matrix(0.344673,0,0,2.422831,-66.656931,-684.54932)">
                    <rect x="236" y="478" width="52" height="34"/>
                </g>
            </g>
        </g>
    </g>
</svg>
