<?xml version="1.0" encoding="UTF-8" standalone="no"?>
<!DOCTYPE svg PUBLIC "-//W3C//DTD SVG 1.1//EN" "http://www.w3.org/Graphics/SVG/1.1/DTD/svg11.dtd">
<svg width="100%" height="100%" viewBox="0 0 154 155" version="1.1" xmlns="http://www.w3.org/2000/svg" xmlns:xlink="http://www.w3.org/1999/xlink" xml:space="preserve" xmlns:serif="http://www.serif.com/" style="fill-rule:evenodd;clip-rule:evenodd;stroke-linejoin:round;stroke-miterlimit:2;">
    <g transform="matrix(1,0,0,1,-1870,0)">
        <g id="bk_Lifepath" transform="matrix(4.166667,0,0,4.166667,1870,0.556814)">
            <rect x="0" y="0" width="36.85" height="36.85" style="fill:none;"/>
            <g id="bk_Lifepath1" serif:id="bk_Lifepath" transform="matrix(0.221542,0,0,0.220741,-413.015093,-38.063684)">
                <path d="M1953.646,325.378L2011.6,291.919L2011.6,277.294L2022.884,277.294L2022.884,291.919C2022.884,295.95 2020.734,299.675 2017.242,301.691L1954.774,337.757C1951.283,339.773 1946.981,339.773 1943.49,337.757L1881.022,301.691C1877.53,299.675 1875.379,295.95 1875.379,291.919L1875.379,277.294L1886.664,277.294L1886.664,291.919L1944.619,325.379L1944.619,311.788L1900.481,267.491C1899.635,266.641 1899.159,265.489 1899.159,264.288L1899.159,240.304C1896.048,238.669 1893.923,235.396 1893.923,231.63C1893.923,226.229 1898.291,221.844 1903.673,221.844C1909.054,221.844 1913.422,226.229 1913.422,231.63C1913.422,235.396 1911.298,238.668 1908.187,240.303L1908.187,262.411L1944.619,298.975L1944.619,272.647L1917.944,245.876C1917.098,245.026 1916.622,243.874 1916.622,242.672L1916.622,225.082C1913.511,223.447 1911.386,220.174 1911.386,216.408C1911.386,211.007 1915.755,206.623 1921.136,206.623C1926.517,206.623 1930.886,211.007 1930.886,216.408C1930.886,220.174 1928.761,223.447 1925.65,225.082L1925.65,240.796L1944.618,259.833L1944.618,242.204L1935.521,233.074C1934.675,232.225 1934.199,231.072 1934.199,229.871L1934.199,212.035C1931.088,210.4 1928.963,207.127 1928.963,203.361C1928.963,197.96 1933.332,193.576 1938.713,193.576C1944.094,193.576 1948.463,197.96 1948.463,203.361C1948.463,207.127 1946.338,210.4 1943.227,212.035L1943.227,227.994L1952.324,237.124C1953.17,237.974 1953.646,239.126 1953.646,240.327L1953.646,270.77L1953.646,290.277L1961.145,282.751L1961.145,255.853C1961.145,254.651 1961.62,253.499 1962.467,252.649L1978.947,236.11L1978.947,227.266C1975.825,225.634 1973.692,222.356 1973.692,218.583C1973.692,213.182 1978.061,208.797 1983.442,208.797C1988.823,208.797 1993.192,213.182 1993.192,218.583C1993.192,222.342 1991.075,225.608 1987.974,227.247L1987.974,237.986C1987.974,239.187 1987.499,240.34 1986.652,241.189L1970.172,257.729L1970.172,273.691L2002.101,241.646L2002.101,213.45C1998.99,211.815 1996.865,208.542 1996.865,204.776C1996.865,199.375 2001.234,194.991 2006.615,194.991C2011.996,194.991 2016.365,199.375 2016.365,204.776C2016.365,208.542 2014.24,211.815 2011.129,213.45L2011.129,243.522C2011.129,244.724 2010.653,245.876 2009.807,246.726L1953.646,303.09L1953.646,325.378ZM1902.458,197.637L1943.49,173.948C1946.981,171.932 1951.283,171.932 1954.774,173.948L1995.805,197.637L1995.805,210.668L1949.132,183.721L1902.458,210.668L1902.458,197.637Z"/>
            </g>
        </g>
    </g>
</svg>
