<?xml version="1.0" encoding="UTF-8" standalone="no"?>
<!DOCTYPE svg PUBLIC "-//W3C//DTD SVG 1.1//EN" "http://www.w3.org/Graphics/SVG/1.1/DTD/svg11.dtd">
<svg width="100%" height="100%" viewBox="0 0 154 154" version="1.1" xmlns="http://www.w3.org/2000/svg" xmlns:xlink="http://www.w3.org/1999/xlink" xml:space="preserve" xmlns:serif="http://www.serif.com/" style="fill-rule:evenodd;clip-rule:evenodd;stroke-linejoin:round;stroke-miterlimit:2;">
    <g transform="matrix(1,0,0,1,-690,-522)">
        <g id="bk_MOVE" transform="matrix(4.166667,0,0,4.166667,690.121969,522.410425)">
            <rect x="0" y="0" width="36.85" height="36.85" style="fill:none;"/>
            <g id="bk_MOVE1" serif:id="bk_MOVE">
                <g transform="matrix(0.210705,0,0,0.210705,-143.16316,-34.147377)">
                    <path d="M740.068,180.082C739.318,179.707 738.835,178.95 738.81,178.113C738.784,177.275 739.222,176.491 739.948,176.071C746.964,172.02 761.601,163.57 761.601,163.57C764.876,161.679 768.911,161.679 772.186,163.57L838.672,201.955C841.947,203.846 843.965,207.341 843.965,211.122L843.965,228.344C843.965,229.134 843.556,229.867 842.884,230.282C842.213,230.697 841.374,230.735 840.668,230.382C838.625,229.36 836.117,228.106 834.639,227.367C833.867,226.982 833.38,226.193 833.38,225.33C833.38,221.49 833.38,211.122 833.38,211.122L766.894,172.736C766.894,172.736 752.724,180.917 748.687,183.248C748.024,183.63 747.214,183.655 746.529,183.313C745.048,182.572 742.332,181.214 740.068,180.082ZM840.668,268.634C841.374,268.281 842.213,268.319 842.884,268.734C843.556,269.149 843.965,269.882 843.965,270.672L843.965,287.894C843.965,291.675 841.947,295.17 838.672,297.06L772.186,335.446C768.911,337.337 764.876,337.337 761.601,335.446C761.601,335.446 746.964,326.996 739.948,322.944C739.222,322.525 738.784,321.741 738.81,320.903C738.835,320.065 739.318,319.309 740.068,318.934C742.332,317.802 745.048,316.444 746.529,315.703C747.214,315.361 748.024,315.385 748.687,315.768C752.724,318.099 766.894,326.28 766.894,326.28L833.38,287.894L833.38,273.686C833.38,272.823 833.867,272.034 834.639,271.648C836.117,270.91 838.625,269.656 840.668,268.634Z" style="fill:white;"/>
                </g>
                <g transform="matrix(0.535365,0,0,0.540012,-382.870615,-112.641497)">
                    <path d="M738.635,253.798C738.221,254.121 737.874,254.348 737.592,254.48C737.311,254.612 736.964,254.678 736.55,254.678C735.928,254.678 735.366,254.451 734.863,253.996C734.36,253.541 734.109,252.977 734.109,252.302C734.109,251.627 734.464,251.026 735.174,250.498L744.005,242.799C742.496,241.479 741.01,240.166 739.545,238.861C738.081,237.556 736.624,236.243 735.174,234.923C734.848,234.63 734.59,234.351 734.397,234.087C734.205,233.823 734.109,233.501 734.109,233.119C734.109,232.445 734.36,231.88 734.863,231.425C735.366,230.971 735.928,230.743 736.55,230.743C737.053,230.743 737.422,230.809 737.659,230.941C737.896,231.073 738.221,231.315 738.635,231.667L749.064,240.775C749.39,241.009 749.649,241.273 749.841,241.567C750.033,241.86 750.13,242.256 750.13,242.755C750.13,243.195 750.048,243.561 749.885,243.855C749.723,244.148 749.479,244.427 749.153,244.691L738.635,253.798ZM723.768,253.798C723.354,254.121 723.007,254.348 722.726,254.48C722.444,254.612 722.082,254.678 721.638,254.678C721.047,254.678 720.499,254.451 719.996,253.996C719.493,253.541 719.242,252.977 719.242,252.302C719.242,251.686 719.597,251.085 720.307,250.498L729.094,242.799C727.674,241.479 726.217,240.166 724.723,238.861C723.228,237.556 721.757,236.243 720.307,234.923C719.981,234.63 719.723,234.351 719.53,234.087C719.338,233.823 719.242,233.501 719.242,233.119C719.242,232.445 719.493,231.88 719.996,231.425C720.499,230.971 721.047,230.743 721.638,230.743C722.141,230.743 722.518,230.809 722.77,230.941C723.021,231.073 723.354,231.315 723.768,231.667L734.242,240.775C734.567,241.009 734.826,241.273 735.019,241.567C735.211,241.86 735.307,242.256 735.307,242.755C735.307,243.195 735.218,243.561 735.041,243.855C734.863,244.148 734.612,244.427 734.286,244.691L723.768,253.798Z" style="fill:white;fill-rule:nonzero;"/>
                    <path d="M768.414,253.798C768,254.121 767.652,254.348 767.371,254.48C767.09,254.612 766.742,254.678 766.328,254.678C765.707,254.678 765.144,254.451 764.642,253.996C764.139,253.541 763.887,252.977 763.887,252.302C763.887,251.627 764.242,251.026 764.952,250.498L773.784,242.799C772.275,241.479 770.788,240.166 769.323,238.861C767.859,237.556 766.402,236.243 764.952,234.923C764.627,234.63 764.368,234.351 764.176,234.087C763.983,233.823 763.887,233.501 763.887,233.119C763.887,232.445 764.139,231.88 764.642,231.425C765.144,230.971 765.707,230.743 766.328,230.743C766.831,230.743 767.201,230.809 767.437,230.941C767.674,231.073 768,231.315 768.414,231.667L778.843,240.775C779.168,241.009 779.427,241.273 779.619,241.567C779.812,241.86 779.908,242.256 779.908,242.755C779.908,243.195 779.827,243.561 779.664,243.855C779.501,244.148 779.257,244.427 778.932,244.691L768.414,253.798ZM753.547,253.798C753.133,254.121 752.785,254.348 752.504,254.48C752.223,254.612 751.86,254.678 751.417,254.678C750.825,254.678 750.277,254.451 749.775,253.996C749.272,253.541 749.02,252.977 749.02,252.302C749.02,251.686 749.375,251.085 750.085,250.498L758.872,242.799C757.452,241.479 755.995,240.166 754.501,238.861C753.007,237.556 751.535,236.243 750.085,234.923C749.76,234.63 749.501,234.351 749.309,234.087C749.116,233.823 749.02,233.501 749.02,233.119C749.02,232.445 749.272,231.88 749.775,231.425C750.277,230.971 750.825,230.743 751.417,230.743C751.92,230.743 752.297,230.809 752.548,230.941C752.8,231.073 753.133,231.315 753.547,231.667L764.02,240.775C764.346,241.009 764.605,241.273 764.797,241.567C764.989,241.86 765.085,242.256 765.085,242.755C765.085,243.195 764.997,243.561 764.819,243.855C764.642,244.148 764.39,244.427 764.065,244.691L753.547,253.798Z" style="fill:white;fill-rule:nonzero;"/>
                </g>
            </g>
        </g>
    </g>
</svg>
