<?xml version="1.0" encoding="UTF-8" standalone="no"?>
<!DOCTYPE svg PUBLIC "-//W3C//DTD SVG 1.1//EN" "http://www.w3.org/Graphics/SVG/1.1/DTD/svg11.dtd">
<svg width="100%" height="100%" viewBox="0 0 155 155" version="1.1" xmlns="http://www.w3.org/2000/svg" xmlns:xlink="http://www.w3.org/1999/xlink" xml:space="preserve" xmlns:serif="http://www.serif.com/" style="fill-rule:evenodd;clip-rule:evenodd;stroke-linejoin:round;stroke-miterlimit:2;">
    <g transform="matrix(1,0,0,1,-1706,-179)">
        <g id="bk_Mod" transform="matrix(4.166667,0,0,4.166667,1706.62779,179.751307)">
            <rect x="0" y="0" width="36.85" height="36.85" style="fill:none;"/>
            <g id="bk_Mod1" serif:id="bk_Mod">
                <g transform="matrix(0.20833,0,0,0.20833,-353.110825,-35.016291)">
                    <path d="M1707.366,301.621C1706.007,299.687 1705.243,297.352 1705.243,294.909L1705.243,218.137C1705.243,213.968 1707.467,210.115 1711.078,208.03L1777.564,169.644C1779.68,168.422 1782.084,167.917 1784.439,168.127L1774.891,184.663L1716.913,218.137L1716.913,285.085L1707.366,301.621ZM1859.433,211.425C1860.792,213.359 1861.556,215.694 1861.556,218.137L1861.556,294.909C1861.556,299.078 1859.332,302.931 1855.721,305.016L1789.235,343.402C1787.119,344.623 1784.715,345.129 1782.36,344.919L1791.908,328.382L1849.886,294.909L1849.886,227.961L1859.433,211.425Z"/>
                </g>
                <g transform="matrix(0.207846,0.12,-0.12,0.207846,-320.111898,-251.403973)">
                    <path d="M1770.799,240.22L1756.124,231.747L1756.124,200.253L1773.269,190.354L1773.269,218.651L1783.399,224.5L1793.53,218.651L1793.53,190.354L1810.675,200.253L1810.675,231.747L1796,240.22L1796,295.372L1810.675,303.845L1810.675,335.339L1793.53,345.238L1793.53,316.941L1783.399,311.092L1773.269,316.941L1773.269,345.238L1756.124,335.339L1756.124,303.845L1770.799,295.372L1770.799,240.22Z"/>
                </g>
            </g>
        </g>
    </g>
</svg>
