<?xml version="1.0" encoding="UTF-8" standalone="no"?>
<!DOCTYPE svg PUBLIC "-//W3C//DTD SVG 1.1//EN" "http://www.w3.org/Graphics/SVG/1.1/DTD/svg11.dtd">
<svg width="100%" height="100%" viewBox="0 0 136 131" version="1.1" xmlns="http://www.w3.org/2000/svg" xmlns:xlink="http://www.w3.org/1999/xlink" xml:space="preserve" xmlns:serif="http://www.serif.com/" style="fill-rule:evenodd;clip-rule:evenodd;stroke-linejoin:round;stroke-miterlimit:2;">
    <g transform="matrix(1,0,0,1,-1211.212358,-5.870038)">
        <g transform="matrix(4.166667,0,0,4.166667,1202.1042,0)">
            <g id="bk_Netrunning">
                <g transform="matrix(0.210705,0,0,0.210705,-143.16316,-34.147377)">
                    <path d="M689.823,254.475L689.823,211.122C689.823,207.341 691.84,203.846 695.115,201.955L705.083,196.2L710.375,205.367L700.407,211.122L700.407,215.597L696.258,215.597L696.258,242.934L700.407,242.934L700.407,287.894L719.268,298.783L713.976,307.95L695.115,297.06C691.84,295.17 689.823,291.675 689.823,287.894L689.823,281.811L693.872,281.811L693.872,254.475L689.823,254.475ZM843.965,242.934L843.965,287.894C843.965,291.675 841.947,295.17 838.672,297.06L819.974,307.856L814.682,298.689L833.38,287.894L833.38,281.811L837.297,281.811L837.297,254.475L833.38,254.475L833.38,211.122L823.412,205.367L828.704,196.2L838.672,201.955C841.947,203.846 843.965,207.341 843.965,211.122L843.965,215.597L839.683,215.597L839.683,242.934L843.965,242.934ZM748.597,171.077L751.881,169.181L757.174,178.348L753.89,180.244L748.597,171.077ZM748.31,183.466L743.644,186.16L738.351,176.993L743.017,174.299L748.31,183.466ZM781.156,168.749L784.44,170.645L779.148,179.811L775.864,177.915L781.156,168.749ZM790.02,173.866L795.436,176.993L790.143,186.16L784.728,183.033L790.02,173.866Z"/>
                </g>
                <g transform="matrix(0.214257,0,0,0.214257,0.671797,1.595227)">
                    <path d="M33,19L33,24C33,25.104 33.896,26 35,26L37,26L37,31.3C37,31.486 37.074,31.664 37.205,31.795C37.336,31.926 37.514,32 37.7,32L115.3,32C115.486,32 115.664,31.926 115.795,31.795C115.926,31.664 116,31.486 116,31.3L116,29.7C116,29.514 115.926,29.336 115.795,29.205C115.664,29.074 115.486,29 115.3,29L113.517,29C113.331,29 113.153,28.926 113.022,28.795C112.891,28.664 112.817,28.486 112.817,28.3L112.817,26L112.912,26C114.015,26 114.912,25.104 114.912,24L114.912,19L119,19L119,27L121.601,27L121.601,35.601L128,42L128,145L37.597,145L37.597,35.597L31,29L31,19L33,19ZM111.556,37.727C111.219,37.39 110.761,37.2 110.283,37.2L43.558,37.2C42.564,37.2 41.758,38.006 41.758,39L41.758,139C41.758,139.994 42.564,140.8 43.558,140.8L121.442,140.8C122.436,140.8 123.242,139.994 123.242,139L123.242,50.159C123.242,49.681 123.053,49.224 122.715,48.886L111.556,37.727ZM109.538,40.8L119.642,50.904L119.642,137.2L45.358,137.2L45.358,40.8L109.538,40.8ZM109.126,74.677L109.126,56.874C109.126,55.617 108.899,54.413 108.446,53.261C107.992,52.109 107.355,51.096 106.534,50.224C105.714,49.351 104.719,48.662 103.55,48.155C102.38,47.649 101.097,47.396 99.701,47.396L92.056,47.396C90.625,47.396 89.333,47.649 88.181,48.155C87.029,48.662 86.034,49.351 85.197,50.224C84.359,51.096 83.713,52.109 83.259,53.261C82.805,54.413 82.579,55.617 82.579,56.874L82.579,74.677C82.579,76.004 82.823,77.243 83.312,78.395C83.8,79.547 84.472,80.55 85.328,81.406C86.183,82.261 87.186,82.933 88.338,83.422C89.49,83.91 90.73,84.155 92.056,84.155L99.701,84.155C101.063,84.155 102.319,83.91 103.471,83.422C104.623,82.933 105.618,82.261 106.456,81.406C107.294,80.55 107.948,79.547 108.419,78.395C108.891,77.243 109.126,76.004 109.126,74.677ZM100.172,78.238L91.637,78.238C90.765,78.238 90.04,77.897 89.464,77.217C88.888,76.536 88.6,75.812 88.6,75.044L88.6,56.507C88.6,55.6 88.906,54.84 89.517,54.229C90.127,53.619 90.834,53.313 91.637,53.313L100.172,53.313C101.01,53.313 101.708,53.645 102.267,54.308C102.825,54.971 103.105,55.704 103.105,56.507L103.105,75.044C103.105,75.846 102.817,76.58 102.241,77.243C101.665,77.906 100.975,78.238 100.172,78.238ZM82.369,121.126L82.369,103.323C82.369,102.066 82.142,100.862 81.688,99.71C81.235,98.558 80.597,97.546 79.777,96.673C78.957,95.8 77.962,95.111 76.792,94.605C75.623,94.098 74.34,93.845 72.944,93.845L65.299,93.845C63.868,93.845 62.576,94.098 61.424,94.605C60.272,95.111 59.277,95.8 58.439,96.673C57.602,97.546 56.956,98.558 56.502,99.71C56.048,100.862 55.821,102.066 55.821,103.323L55.821,121.126C55.821,122.453 56.066,123.692 56.554,124.844C57.043,125.996 57.715,127 58.57,127.855C59.426,128.71 60.429,129.382 61.581,129.871C62.733,130.359 63.972,130.604 65.299,130.604L72.944,130.604C74.305,130.604 75.562,130.359 76.714,129.871C77.866,129.382 78.861,128.71 79.699,127.855C80.536,127 81.191,125.996 81.662,124.844C82.133,123.692 82.369,122.453 82.369,121.126ZM73.415,124.687L64.88,124.687C64.007,124.687 63.283,124.347 62.707,123.666C62.131,122.985 61.843,122.261 61.843,121.493L61.843,102.956C61.843,102.049 62.148,101.29 62.759,100.679C63.37,100.068 64.077,99.762 64.88,99.762L73.415,99.762C74.253,99.762 74.951,100.094 75.51,100.757C76.068,101.42 76.347,102.154 76.347,102.956L76.347,121.493C76.347,122.296 76.059,123.029 75.483,123.692C74.907,124.355 74.218,124.687 73.415,124.687ZM107.189,124.949L103.681,124.949L103.681,93.845L94.255,93.845C93.418,93.845 92.772,94.107 92.318,94.631C91.864,95.154 91.637,95.835 91.637,96.673C91.637,98.593 92.51,99.553 94.255,99.553L97.659,99.553L97.659,124.949L94.255,124.949C93.418,124.949 92.772,125.193 92.318,125.682C91.864,126.17 91.637,126.851 91.637,127.724C91.637,128.597 91.864,129.295 92.318,129.818C92.772,130.342 93.418,130.604 94.255,130.604L107.189,130.604C108.062,130.604 108.725,130.342 109.179,129.818C109.633,129.295 109.859,128.597 109.859,127.724C109.859,126.851 109.633,126.17 109.179,125.682C108.725,125.193 108.062,124.949 107.189,124.949ZM70.692,78.5L67.184,78.5L67.184,47.396L57.759,47.396C56.921,47.396 56.275,47.658 55.821,48.182C55.367,48.705 55.141,49.386 55.141,50.224C55.141,52.144 56.013,53.104 57.759,53.104L61.162,53.104L61.162,78.5L57.759,78.5C56.921,78.5 56.275,78.744 55.821,79.233C55.367,79.721 55.141,80.402 55.141,81.275C55.141,82.147 55.367,82.846 55.821,83.369C56.275,83.893 56.921,84.155 57.759,84.155L70.692,84.155C71.565,84.155 72.228,83.893 72.682,83.369C73.136,82.846 73.363,82.147 73.363,81.275C73.363,80.402 73.136,79.721 72.682,79.233C72.228,78.744 71.565,78.5 70.692,78.5ZM106.912,19L106.912,24C106.912,25.104 107.808,26 108.912,26L110.817,26L110.817,28.3C110.817,28.687 110.503,29 110.117,29L102.783,29C102.396,29 102.083,28.687 102.083,28.3L102.083,26L102.353,26C103.457,26 104.353,25.104 104.353,24L104.353,19L106.912,19ZM96.353,19L96.353,24C96.353,25.104 97.249,26 98.353,26L100.083,26L100.083,28.3C100.083,28.687 99.769,29 99.383,29L92.048,29C91.662,29 91.348,28.687 91.348,28.3L91.348,25.7C91.348,25.514 91.275,25.336 91.143,25.205C91.012,25.074 90.834,25 90.648,25L90.048,25C89.863,25 89.685,25.074 89.553,25.205C89.422,25.336 89.348,25.514 89.348,25.7L89.348,28.3C89.348,28.687 89.035,29 88.648,29L81.314,29C80.928,29 80.614,28.687 80.614,28.3L80.614,25.7C80.614,25.514 80.541,25.336 80.409,25.205C80.278,25.074 80.1,25 79.914,25L79.314,25C79.129,25 78.951,25.074 78.819,25.205C78.688,25.336 78.614,25.514 78.614,25.7L78.614,28.3C78.614,28.687 78.301,29 77.914,29L70.58,29C70.194,29 69.88,28.687 69.88,28.3L69.88,26L70.676,26C71.78,26 72.676,25.104 72.676,24L72.676,19L96.353,19ZM64.676,19L64.676,24C64.676,25.104 65.573,26 66.676,26L67.88,26L67.88,28.3C67.88,28.687 67.567,29 67.18,29L59.846,29C59.459,29 59.146,28.687 59.146,28.3L59.146,26L60.118,26C61.221,26 62.118,25.104 62.118,24L62.118,19L64.676,19ZM54.118,19L54.118,24C54.118,25.104 55.014,26 56.118,26L57.146,26L57.146,28.3C57.146,28.687 56.833,29 56.446,29L49.112,29C48.725,29 48.412,28.687 48.412,28.3L48.412,26L49.559,26C50.663,26 51.559,25.104 51.559,24L51.559,19L54.118,19ZM43.559,19L43.559,24C43.559,25.104 44.455,26 45.559,26L46.412,26L46.412,28.3C46.412,28.486 46.338,28.664 46.207,28.795C46.076,28.926 45.897,29 45.712,29L39.7,29C39.514,29 39.336,28.926 39.205,28.795C39.074,28.664 39,28.486 39,28.3L39,26C40.104,26 41,25.104 41,24L41,19L43.559,19Z"/>
                </g>
            </g>
        </g>
    </g>
</svg>
