<?xml version="1.0" encoding="UTF-8" standalone="no"?>
<!DOCTYPE svg PUBLIC "-//W3C//DTD SVG 1.1//EN" "http://www.w3.org/Graphics/SVG/1.1/DTD/svg11.dtd">
<svg width="100%" height="100%" viewBox="0 0 155 154" version="1.1" xmlns="http://www.w3.org/2000/svg" xmlns:xlink="http://www.w3.org/1999/xlink" xml:space="preserve" xmlns:serif="http://www.serif.com/" style="fill-rule:evenodd;clip-rule:evenodd;stroke-linejoin:round;stroke-miterlimit:2;">
    <g transform="matrix(1,0,0,1,-345,0)">
        <g id="bk_TECH" transform="matrix(4.166667,0,0,4.166667,345.4725,0)">
            <rect x="0" y="0" width="36.85" height="36.85" style="fill:none;"/>
            <g id="bk_TECH1" serif:id="bk_TECH">
                <g transform="matrix(1,0,0,1,21.759,16.6161)">
                    <path d="M0,3.618C-0.963,4.581 -1.285,4.722 -1.285,5.576C-1.285,6.43 -1.29,6.922 -1.29,8.013C-1.29,9.104 -1.982,9.322 -3.238,9.322C-4.493,9.322 -5.219,8.857 -5.219,8.006C-5.219,7.154 -5.188,6.303 -5.188,5.576C-5.188,4.849 -5.305,4.638 -6.325,3.618C-7.345,2.598 -8.141,2.671 -8.153,0.715C-8.162,-0.638 -8.144,-2.071 -8.166,-3.424C-8.173,-3.875 -8.145,-4.096 -7.794,-4.359C-7.254,-4.763 -6.931,-5.046 -6.295,-5.465C-5.678,-5.872 -5.452,-5.503 -5.452,-5.008C-5.452,-3.663 -5.488,-0.995 -5.488,-0.613C-5.488,-0.231 -5.247,0.173 -4.789,0.173C-4.331,0.173 -2.304,0.158 -1.787,0.158C-1.269,0.158 -0.914,0.223 -0.914,-0.881C-0.914,-1.984 -0.953,-3.586 -0.956,-5.11C-0.956,-5.316 -0.993,-6.054 -0.245,-5.504C0.504,-4.954 0.753,-4.723 1.272,-4.359C1.601,-4.128 1.692,-3.831 1.687,-3.457C1.678,-2.614 1.691,-0.497 1.691,0.729C1.691,1.956 0.963,2.655 0,3.618M4.311,-4.419L-1.619,-7.842C-2.621,-8.421 -3.855,-8.421 -4.857,-7.842L-10.787,-4.419C-11.789,-3.84 -12.406,-2.771 -12.406,-1.614L-12.406,5.233C-12.406,6.39 -11.789,7.459 -10.787,8.037L-4.857,11.461C-3.855,12.039 -2.621,12.039 -1.619,11.461L4.311,8.037C5.313,7.459 5.93,6.39 5.93,5.233L5.93,-1.614C5.93,-2.771 5.313,-3.84 4.311,-4.419" style="fill:rgb(35,31,32);fill-rule:nonzero;"/>
                </g>
                <g transform="matrix(1,0,0,1,4.5526,0.5086)">
                    <path d="M0,12.55L0,10.159C0,9.969 0.101,9.793 0.266,9.698L13.703,1.941C13.867,1.846 14.07,1.846 14.234,1.941L27.671,9.698C27.836,9.793 27.937,9.969 27.937,10.159L27.937,12.55C27.937,12.844 28.175,13.082 28.469,13.082L29.465,13.082C29.758,13.082 29.996,12.844 29.996,12.55L29.996,8.97C29.996,8.78 29.895,8.604 29.73,8.509L14.234,-0.437C14.07,-0.532 13.867,-0.532 13.703,-0.437L-1.794,8.509C-1.958,8.604 -2.059,8.78 -2.059,8.97L-2.059,12.55C-2.059,12.844 -1.821,13.082 -1.528,13.082L-0.532,13.082C-0.238,13.082 0,12.844 0,12.55" style="fill:rgb(35,31,32);fill-rule:nonzero;"/>
                </g>
                <g transform="matrix(1,0,0,1,34.549,25.5132)">
                    <path d="M0,0.611L0,-0.032C0,-0.325 -0.238,-0.564 -0.532,-0.564L-1.528,-0.564C-1.821,-0.564 -2.059,-0.325 -2.059,-0.032L-2.059,0.501C-2.059,0.772 -1.856,0.999 -1.586,1.029L-0.59,1.14C-0.275,1.175 0,0.928 0,0.611" style="fill:rgb(35,31,32);fill-rule:nonzero;"/>
                </g>
                <g transform="matrix(1,0,0,1,14.5449,34.89)">
                    <path d="M0,-0.253L3.71,1.889C3.875,1.984 4.078,1.984 4.242,1.889L7.952,-0.253C8.191,-0.391 8.285,-0.688 8.169,-0.938L7.748,-1.844C7.616,-2.128 7.27,-2.237 7,-2.081L4.242,-0.489C4.078,-0.394 3.875,-0.394 3.71,-0.489L0.953,-2.081C0.682,-2.237 0.336,-2.128 0.205,-1.844L-0.216,-0.938C-0.332,-0.688 -0.239,-0.391 0,-0.253" style="fill:rgb(35,31,32);fill-rule:nonzero;"/>
                </g>
                <g transform="matrix(1,0,0,1,4.5526,25.6238)">
                    <path d="M0,0.39L0,-0.142C0,-0.436 -0.238,-0.674 -0.532,-0.674L-1.528,-0.674C-1.821,-0.674 -2.059,-0.436 -2.059,-0.142L-2.059,0.5C-2.059,0.817 -1.784,1.064 -1.469,1.029L-0.473,0.919C-0.204,0.889 0,0.661 0,0.39" style="fill:rgb(35,31,32);fill-rule:nonzero;"/>
                </g>
            </g>
        </g>
    </g>
</svg>
