<?xml version="1.0" encoding="UTF-8" standalone="no"?>
<!DOCTYPE svg PUBLIC "-//W3C//DTD SVG 1.1//EN" "http://www.w3.org/Graphics/SVG/1.1/DTD/svg11.dtd">
<svg width="100%" height="100%" viewBox="0 0 155 155" version="1.1" xmlns="http://www.w3.org/2000/svg" xmlns:xlink="http://www.w3.org/1999/xlink" xml:space="preserve" xmlns:serif="http://www.serif.com/" style="fill-rule:evenodd;clip-rule:evenodd;stroke-linejoin:round;stroke-miterlimit:2;">
    <g transform="matrix(1,0,0,1,-2210,-179)">
        <g id="bk_VehicleStats" transform="matrix(4.166667,0,0,4.166667,2210.916683,179.751307)">
            <rect x="0" y="0" width="36.85" height="36.85" style="fill:none;"/>
            <g id="bk_VehicleStats1" serif:id="bk_VehicleStats">
                <g transform="matrix(0.221542,0,0,0.220882,-413.388729,-38.088102)">
                    <path d="M1946.219,185.402L1899.187,212.556L1907.735,221.13L1903.5,225.377L1893.812,215.66L1886.664,219.787L1886.664,265.063L1894.366,265.063L1894.366,271.07L1886.664,271.07L1886.664,291.919L1949.132,327.984L2011.6,291.919L2011.6,271.07L2004.475,271.07L2004.475,265.063L2011.6,265.063L2011.6,237.551L2022.884,233.69L2022.884,291.919C2022.884,295.95 2020.734,299.675 2017.242,301.691L1954.774,337.757C1951.283,339.773 1946.981,339.773 1943.49,337.757L1881.022,301.691C1877.53,299.675 1875.379,295.95 1875.379,291.919L1875.379,219.787C1875.379,215.755 1877.53,212.03 1881.022,210.014L1943.49,173.948C1946.981,171.932 1951.283,171.932 1954.774,173.948L1971.63,183.68L1966.132,193.536L1952.208,185.497L1952.208,201.103L1946.219,201.103L1946.219,185.402Z"/>
                </g>
                <g transform="matrix(0.075729,0,0,0.075729,-0.961472,-1.294225)">
                    <path d="M271.83,120.51C308.3,140.627 335.432,177.015 346.438,220.572L396.404,203.004C395.031,200.63 393.597,198.292 392.104,195.992L386.969,201.145L356.601,170.855L350.841,165.109L358.691,157.235C334.087,136.547 303.811,123.746 271.829,120.509L271.83,120.51ZM427.98,210.354L252.648,270.954C240.505,272.618 231,283.155 231,295.72C231,309.42 242.3,320.72 256,320.72C262.77,320.72 268.95,317.956 273.473,313.512L427.98,210.354ZM411.467,242.676L350.754,283.396C345.922,326.531 325.472,365.669 294.154,391.719L370.211,391.719C389.006,372.56 402.682,348.976 409.974,323.147L398.48,323.147L398.48,270.632L415.502,270.632C414.984,261.212 413.634,251.857 411.467,242.675L411.467,242.676Z" style="fill-rule:nonzero;"/>
                </g>
                <g transform="matrix(0.169706,0.169706,-0.143248,0.143248,-329.741771,-407.090911)">
                    <rect x="2285" y="184" width="5.528" height="28.134"/>
                </g>
            </g>
        </g>
    </g>
</svg>
