<?xml version="1.0" encoding="UTF-8" standalone="no"?>
<!DOCTYPE svg PUBLIC "-//W3C//DTD SVG 1.1//EN" "http://www.w3.org/Graphics/SVG/1.1/DTD/svg11.dtd">
<svg width="100%" height="100%" viewBox="0 0 154 155" version="1.1" xmlns="http://www.w3.org/2000/svg" xmlns:xlink="http://www.w3.org/1999/xlink" xml:space="preserve" xmlns:serif="http://www.serif.com/" style="fill-rule:evenodd;clip-rule:evenodd;stroke-linejoin:round;stroke-miterlimit:2;">
    <g transform="matrix(1,0,0,1,-2043,-179)">
        <g id="bk_Vehicle" transform="matrix(4.166667,0,0,4.166667,2043.255223,179.751307)">
            <rect x="0" y="0" width="36.85" height="36.85" style="fill:none;"/>
            <g id="bk_Vehicle1" serif:id="bk_Vehicle">
                <g transform="matrix(0.221542,0,0,0.220741,-413.388729,-38.040061)">
                    <path d="M1906.005,210.459C1894.091,221.879 1886.664,237.975 1886.664,255.799C1886.664,277.632 1897.808,296.874 1914.694,308.102L1921.525,312.046C1929.852,316.174 1939.224,318.494 1949.132,318.494C1959.04,318.494 1968.412,316.174 1976.738,312.046L1983.569,308.102C2000.456,296.874 2011.6,277.632 2011.6,255.799C2011.6,237.729 2003.966,221.435 1991.762,209.989L1998.104,198.965L2017.242,210.014C2020.734,212.03 2022.884,215.755 2022.884,219.787L2022.884,291.919C2022.884,295.95 2020.734,299.675 2017.242,301.691L1989.899,317.478C1987.251,319.245 1984.482,320.846 1981.608,322.264L1954.774,337.757C1951.283,339.773 1946.981,339.773 1943.49,337.757L1916.655,322.264C1913.782,320.846 1911.013,319.245 1908.364,317.478L1881.022,301.691C1877.53,299.675 1875.379,295.95 1875.379,291.919L1875.379,219.787C1875.379,215.755 1877.53,212.03 1881.022,210.014L1899.584,199.297L1906.005,210.459ZM1903.721,196.909L1905.158,196.079L1910.967,206.176C1910.525,206.52 1910.087,206.869 1909.655,207.223L1903.721,196.909ZM1906.826,195.116L1907.321,194.83C1907.62,194.623 1907.921,194.418 1908.223,194.215L1913.891,204.067L1913.647,204.208C1913.268,204.471 1912.892,204.739 1912.518,205.01L1906.826,195.116ZM1909.839,193.162C1910.306,192.865 1910.777,192.574 1911.252,192.288L1916.996,202.274L1915.559,203.104L1909.839,193.162ZM1912.914,191.316C1913.395,191.043 1913.88,190.776 1914.367,190.513L1920.102,200.481L1918.664,201.311L1912.914,191.316ZM1916.077,189.623C1916.571,189.373 1917.069,189.129 1917.57,188.89L1923.235,198.737C1923.043,198.825 1922.852,198.914 1922.662,199.003L1921.769,199.518L1916.077,189.623ZM1921.717,186.519L1943.49,173.948C1946.981,171.932 1951.283,171.932 1954.774,173.948L1975.971,186.186L1969.939,196.672C1963.43,194.362 1956.426,193.104 1949.132,193.104C1941.6,193.104 1934.378,194.445 1927.69,196.901L1921.717,186.519ZM1980.108,188.575L1980.475,188.786C1980.849,188.963 1981.221,189.143 1981.591,189.325L1975.919,199.186L1975.602,199.003C1975.21,198.819 1974.816,198.638 1974.42,198.462L1980.108,188.575ZM1983.309,190.201C1983.799,190.459 1984.286,190.722 1984.77,190.991L1979.024,200.979L1977.586,200.149L1983.309,190.201ZM1986.441,191.948C1986.918,192.23 1987.391,192.516 1987.861,192.808L1982.13,202.772L1980.692,201.942L1986.441,191.948ZM1989.486,193.847C1989.949,194.152 1990.409,194.462 1990.866,194.777L1985.203,204.62C1985.008,204.482 1984.813,204.344 1984.616,204.208L1983.797,203.735L1989.486,193.847ZM1992.53,195.746L1993.967,196.576L1988.086,206.8C1987.651,206.45 1987.21,206.106 1986.765,205.768L1992.53,195.746Z"/>
                </g>
                <g transform="matrix(0.068161,0,0,0.068161,0.975867,0.643114)">
                    <path d="M80.52,203.9C75.81,223.1 73,240.9 73,257.9C217.7,288.2 194.5,320.3 221,435.7C232.4,437.8 244,439 256,439C268,439 279.6,437.8 291,435.7C317.5,320.3 294.3,288.2 439,257.9C438.4,239 436,219.5 431.5,203.9C346.7,182.7 301.1,172 256,172C210.9,172 165.3,182.7 80.52,203.9ZM256,183C296.2,183 329,215.8 329,256C329,296.2 296.2,329 256,329C215.8,329 183,296.2 183,256C183,215.8 215.8,183 256,183ZM256,201C225.5,201 201,225.5 201,256C201,286.5 225.5,311 256,311C286.5,311 311,286.5 311,256C311,225.5 286.5,201 256,201Z" style="fill-rule:nonzero;"/>
                </g>
            </g>
        </g>
    </g>
</svg>
