<?xml version="1.0" encoding="UTF-8" standalone="no"?>
<!DOCTYPE svg PUBLIC "-//W3C//DTD SVG 1.1//EN" "http://www.w3.org/Graphics/SVG/1.1/DTD/svg11.dtd">
<svg width="100%" height="100%" viewBox="0 0 596 497" version="1.1" xmlns="http://www.w3.org/2000/svg" xmlns:xlink="http://www.w3.org/1999/xlink" xml:space="preserve" xmlns:serif="http://www.serif.com/" style="fill-rule:evenodd;clip-rule:evenodd;stroke-linejoin:round;stroke-miterlimit:2;">
    <g transform="matrix(1,0,0,1,-0.805257,-0.640461)">
        <g transform="matrix(1,0,0,1,-212.805257,-315.640461)">
            <g id="Corpo" transform="matrix(1,0,0,1,0.805257,0.640461)">
                <path d="M419.891,379.498C419.779,395.812 412.8,535.109 477.845,745.395C497.631,809.361 501.012,811.588 497.535,811.703C491.633,811.897 490.457,813.173 486.074,806.788C407.107,691.759 357.732,598.258 332.278,514.568C330.276,507.985 330.014,507.223 333.276,505.146C363.635,485.813 363.67,485.913 366.268,484.172C369.849,481.772 369.38,481.197 369.118,480.976C367.375,479.496 366.574,481.277 342.72,470.022C338.741,468.144 340.41,466.483 347.312,451.407C368.257,405.653 368.121,405.281 371.765,402.914C391.58,390.042 391.429,389.955 411.262,377.134C414.584,374.986 419.812,370.378 419.882,374.451C419.91,376.133 419.862,377.816 419.891,379.498Z"/>
                <path d="M600.933,401.501C601.001,375.787 600.772,375.82 600.855,373.588C600.925,371.69 605.097,374.435 605.409,374.64C606.312,375.234 638.873,396.086 644.268,399.842C654.294,406.819 652.783,408.202 657.826,419.352C679.282,466.796 680.045,467.034 679.15,468.261C678.159,469.62 657.238,478.613 651.546,480.575C648.175,481.737 652.185,482.714 685.222,503.937C690.135,507.093 689.508,508.117 687.721,513.573C680.791,534.735 651.433,635.721 533.047,808.2C532.505,808.988 529.467,813.415 521.528,811.408C518.615,810.671 520.883,809.199 532.113,775.372C565.398,675.115 600.932,522.856 600.933,401.501Z"/>
                <path d="M545.912,592.433C553.276,634.971 557.972,644.673 555.728,655.55C547.801,693.976 512.13,805.845 510.333,808.355C508.559,810.832 508.588,807.393 497.243,772.582C492.559,758.209 461.12,657.922 462.92,646.569C465.124,632.669 465.594,632.761 494.177,473.44C495.117,468.203 496.448,464.25 494.205,461.758C473.138,438.355 469.855,437.468 473.677,433.666C476.444,430.912 501.707,405.772 507.916,398.905C511.652,394.774 514.725,399.962 526.805,412.199C548.292,433.966 549.416,434.062 548.566,436.531C547.794,438.771 523.015,462.433 523.072,465.502C523.126,468.441 541.12,565.747 542.73,574.457C544.395,583.459 544.222,583.391 545.912,592.433Z"/>
                <path d="M794.28,503.688C790.394,499.853 791.682,496.924 723.429,470.678C717.321,468.33 686.101,454.457 685.789,454.164C684.3,452.767 669.265,418.729 669.302,418.42C669.559,416.251 670.725,418.182 684.734,426.089C739.526,457.014 783.758,460.392 800.113,486.731C811.213,504.608 807.507,551.987 807.187,552.042C803.182,552.731 808.128,522.267 794.28,503.688Z"/>
                <path d="M213.958,512.544C218.54,481.249 222.993,474.102 287.591,448.735C343.704,426.701 350.247,413.97 351.091,418.545C351.145,418.838 336.877,449.848 335.628,452.564C332.973,458.334 250.427,487.562 233.203,499.055C209.977,514.553 218.618,554.196 213.669,552.039C212.703,551.618 212.238,532.154 213.958,512.544Z"/>
                <path d="M432.703,316.713C433.397,317.433 433.651,317.102 433.979,318.037C434.094,318.364 434.151,318.278 434.248,318.552C434.421,340.789 438.73,349.669 456.813,364.109C484.191,385.97 505.288,393.999 505.257,395.46C505.214,397.45 499.746,394.478 497.478,393.563C429.049,365.963 425.662,344.021 432.703,316.713Z"/>
                <path d="M516.606,394.541C519.563,392.364 545.86,380.395 568.603,359.611C582.641,346.782 584.913,339.626 585.741,317.584C586.06,309.084 590.466,330.693 589.184,339.455C585.313,365.89 553.071,380.482 519.541,394.904C517.803,395.651 517.798,395.807 517.464,395.647C517.043,395.445 517.026,394.743 516.606,394.541Z"/>
            </g>
        </g>
    </g>
</svg>
