<?xml version="1.0" encoding="UTF-8" standalone="no"?>
<!DOCTYPE svg PUBLIC "-//W3C//DTD SVG 1.1//EN" "http://www.w3.org/Graphics/SVG/1.1/DTD/svg11.dtd">
<svg width="100%" height="100%" viewBox="0 0 433 575" version="1.1" xmlns="http://www.w3.org/2000/svg" xmlns:xlink="http://www.w3.org/1999/xlink" xml:space="preserve" xmlns:serif="http://www.serif.com/" style="fill-rule:evenodd;clip-rule:evenodd;stroke-linejoin:round;stroke-miterlimit:2;">
    <g transform="matrix(1,0,0,1,-0.88639,-0.421963)">
        <g transform="matrix(1,0,0,1,-295.88639,-223.421963)">
            <g id="Fixer" transform="matrix(1,0,0,1,0.88639,0.421963)">
                <path d="M547.955,363.498C548.275,356.058 548.166,356.091 548.301,355.462C552.816,334.493 576.303,339.047 586.503,339.038C592.317,339.033 594.051,336.264 596.407,341.539C599.039,347.43 577.517,346.145 576.502,346.146C557.222,346.158 555.244,350.175 555.22,369.498C555.197,387.684 554.128,388.682 558.816,392.068C591.249,415.485 584.727,428.942 587.545,431.449C589.024,432.765 640.185,431.831 667.505,432.131C672.304,432.183 671.133,434.727 671.134,450.504C671.134,456.977 669.259,458.94 675.393,460.826C690.72,465.54 699.766,485.364 690.247,501.344C673.249,529.882 626.393,505.685 641.661,474.58C648.55,460.546 662.108,461.324 662.247,457.485C662.875,440.036 661.964,439.628 660.536,439.325C659.657,439.138 596.097,439.285 590.494,439.298C587.996,439.303 588.027,440.002 588.183,442.524C589.811,468.935 587.863,476.4 589.883,479.216C595.169,486.583 590.157,504.879 589.4,508.481C587.267,518.638 590.57,525.721 584.931,531.907C577.852,539.672 581.296,560.826 585.662,565.347C594.551,574.552 592.581,577.155 599.624,579.015C605.215,580.492 607.732,581.157 666.304,606.945C701.973,622.65 715.987,627.058 725.677,642.392C726.714,644.033 728.836,647.393 727.732,666.572C727.507,670.478 719.55,659.446 712.367,656.841C693.716,650.076 652.394,631.488 625.607,621.215C617.576,618.135 609.531,622.734 607.97,617.401C604.411,605.245 578.757,595.44 572.991,582.282C562.823,559.082 562.901,558.635 563.282,556.462C564.878,547.347 573.369,549.663 575.638,515.508C577.384,489.248 577.651,488.077 575.452,487.802C574.579,487.693 449.489,487.747 448.514,487.783C445.327,487.898 446.52,489.788 447.927,518.482C449.317,546.831 463.782,550.668 459.505,561.502C448.73,588.794 448.108,589.08 433.193,600.071C413.051,614.912 416.314,621.072 409.537,620.205C403.052,619.376 402.786,618.878 387.389,625.237C381.158,627.81 314.671,655.269 309.701,657.881C299.756,663.107 295.824,672.488 295.923,665.486C296.136,650.34 294.536,645.15 300.808,638.787C315.219,624.165 316.331,625.298 386.33,594.106C424.793,576.966 426.198,579.597 429.227,576.26C433.549,571.498 432.956,571.128 437.34,566.366C442.676,560.571 442.707,537.182 441.125,534.728C438.125,530.07 436.378,530.731 435.97,523.478C434.917,504.747 431.353,505.198 431.172,486.498C431.11,480.096 434.771,480.983 434.896,474.506C435.54,441.137 436.323,439.463 433.512,439.369C429.233,439.226 369.096,439.304 363.495,439.312C359.501,439.317 360.887,446.679 360.857,452.504C360.821,459.614 355.793,464.279 360.89,471.124C363.435,474.541 361.972,465.691 365.493,466.542C370.619,467.78 369.85,469.231 369.601,474.502C369.471,477.252 370.694,478.599 392.192,491.967C395.681,494.136 392.597,495.781 389.916,497.992C375.806,509.636 372.743,512.326 371.53,512.125C369.704,511.821 327.421,481.932 327.324,481.587C327.003,480.433 327.007,479.895 338.749,471.922C340.707,470.593 346.725,475.028 348.399,475.795C353.993,478.358 347.359,466.567 349.806,461.641C355.677,449.823 348.911,432.854 353.408,432.184C354.798,431.977 425.979,432.107 433.5,432.164C439.795,432.211 435.048,419.989 446.865,407.848C464.069,390.171 468.603,392.788 468.495,385.5C468.149,362.293 469.904,353.801 463.122,348.997C460.592,347.205 458.167,345.488 424.479,346.143C420.718,346.216 422.956,350.989 421.191,353.277C418.063,357.333 409.568,356.075 408.501,356.068C371.236,355.818 360.987,358.713 360.931,348.498C360.831,330.307 358.56,323.941 371.5,323.9C375.019,323.889 411.533,323.773 415.484,323.899C424.748,324.195 421.324,334.693 422.216,337.601C423.045,340.301 447.058,338.372 455.486,338.908C488.416,340.999 469.8,388.903 478.298,384.082C491.322,376.693 491.972,378.54 506.625,375.805C507.953,375.558 507.964,374.185 508.003,361.499C508.019,356.448 508.194,299.952 507.875,298.367C507.15,294.756 488.608,301.376 482.775,291.328C479.37,285.463 480.95,285.098 482.539,278.51C488.829,252.443 488.134,251.03 503.12,240.011C508.973,235.707 495.803,223.989 500.56,223.768C502.388,223.683 516.648,223.021 523.439,223.79C525.943,224.074 521.413,231.428 519.967,234.704C518.283,238.518 521.19,239.655 523.565,241.411C535.704,250.385 535.428,251.489 542.097,279.601C548.261,305.583 516.847,293.498 514.877,298.592C514.762,298.891 514.781,371.906 514.84,373.482C514.979,377.195 520.361,375.471 528.418,377.79C544.085,382.3 544.112,384.025 546.458,384.786C548.082,385.313 548.2,384.013 547.955,363.498ZM391.504,350.082C411.463,347.928 399.266,322.673 384.78,332.872C384.479,333.084 372.843,346.16 391.504,350.082ZM666.694,467L652.622,500L680.766,500L666.694,467ZM513.604,280.767C513.672,280.885 513.751,280.998 513.843,281.105C514.206,281.534 514.713,281.748 515.362,281.748L520.387,281.748L520.387,288.059C520.387,288.579 520.537,288.988 520.835,289.286C521.134,289.585 521.634,289.734 522.335,289.734C523.011,289.734 523.491,289.585 523.777,289.286C524.062,288.988 524.205,288.579 524.205,288.059L524.205,281.748L524.79,281.748C525.751,281.748 526.621,281.586 527.4,281.261C528.179,280.936 528.848,280.495 529.406,279.936C529.965,279.378 530.393,278.722 530.692,277.969C530.991,277.216 531.14,276.424 531.14,275.593C531.14,274.839 530.984,274.125 530.672,273.45C530.361,272.775 529.932,272.171 529.387,271.638C528.841,271.106 528.179,270.677 527.4,270.353C526.621,270.028 525.764,269.853 524.829,269.827C523.946,269.801 522.965,269.788 521.887,269.788C520.81,269.788 519.816,269.762 518.907,269.71C518.517,269.684 518.102,269.535 517.66,269.262C517.219,268.989 516.998,268.593 516.998,268.074C516.998,267.632 517.154,267.249 517.466,266.925C517.777,266.6 518.154,266.438 518.595,266.438L528.101,266.438C528.776,266.438 529.283,266.23 529.62,265.814C529.958,265.399 530.127,264.879 530.127,264.256C530.127,263.659 529.958,263.139 529.62,262.698C529.283,262.256 528.776,262.035 528.101,262.035L524.205,262.035L524.205,256.114C524.205,255.594 524.062,255.185 523.777,254.887C523.491,254.588 523.011,254.439 522.335,254.439C521.634,254.439 521.134,254.588 520.835,254.887C520.537,255.185 520.387,255.594 520.387,256.114L520.387,262.035L518.907,262.035C517.92,262.035 517.037,262.204 516.258,262.542C515.479,262.879 514.816,263.334 514.271,263.905C513.726,264.477 513.304,265.139 513.005,265.892C512.706,266.645 512.557,267.437 512.557,268.269C512.557,269.074 512.719,269.833 513.044,270.548C513.369,271.262 513.823,271.879 514.407,272.398C514.992,272.918 515.687,273.333 516.492,273.645C517.297,273.956 518.18,274.112 519.141,274.112C520.128,274.112 521.102,274.125 522.063,274.151C523.024,274.177 523.985,274.216 524.946,274.268C525.335,274.294 525.725,274.43 526.114,274.677C526.504,274.924 526.699,275.294 526.699,275.787C526.699,276.229 526.543,276.606 526.231,276.917C525.919,277.229 525.556,277.385 525.14,277.385L515.323,277.385C514.751,277.385 514.3,277.529 513.971,277.818C513.905,277.689 513.828,277.566 513.739,277.45C513.401,277.008 512.908,276.787 512.258,276.787L504.701,276.787C504.467,276.787 504.233,276.735 503.999,276.631C503.766,276.528 503.551,276.385 503.357,276.203C503.162,276.021 503.006,275.813 502.889,275.58C502.772,275.346 502.714,275.112 502.714,274.878L502.714,274.294L506.298,274.294C506.791,274.294 507.187,274.158 507.486,273.885C507.785,273.612 507.934,273.177 507.934,272.58C507.934,271.956 507.778,271.502 507.467,271.216C507.155,270.931 506.765,270.788 506.298,270.788L502.714,270.788L502.714,268.801L506.298,268.801C506.791,268.801 507.187,268.658 507.486,268.372C507.785,268.087 507.934,267.645 507.934,267.048C507.934,266.424 507.778,265.983 507.467,265.723C507.155,265.463 506.765,265.334 506.298,265.334L502.714,265.334L502.714,264.671C502.714,264.1 502.896,263.639 503.259,263.288C503.623,262.938 504.103,262.762 504.701,262.762L512.258,262.762C512.908,262.762 513.401,262.548 513.739,262.12C514.076,261.691 514.245,261.178 514.245,260.581C514.245,259.931 514.076,259.386 513.739,258.944C513.401,258.503 512.908,258.282 512.258,258.282L504.934,258.282C504.025,258.282 503.162,258.451 502.344,258.789C501.525,259.126 500.805,259.587 500.181,260.172C499.558,260.756 499.058,261.451 498.682,262.256C498.305,263.061 498.117,263.931 498.117,264.866L498.117,265.334L496.286,265.334C495.818,265.334 495.442,265.463 495.156,265.723C494.87,265.983 494.727,266.424 494.727,267.048C494.727,268.216 495.247,268.801 496.286,268.801L498.117,268.801L498.117,270.788L496.286,270.788C495.818,270.788 495.442,270.931 495.156,271.216C494.87,271.502 494.727,271.956 494.727,272.58C494.727,273.723 495.247,274.294 496.286,274.294L498.117,274.294L498.117,274.645C498.117,275.58 498.292,276.45 498.643,277.255C498.993,278.06 499.48,278.755 500.104,279.339C500.727,279.923 501.454,280.384 502.285,280.722C503.116,281.06 503.999,281.228 504.934,281.228L512.258,281.228C512.826,281.228 513.274,281.075 513.604,280.767ZM358.491,480.066C344.28,481.411 361.734,502.384 368.075,493.231C368.49,492.632 372.508,481.222 358.491,480.066Z"/>
                <path d="M512.211,798.132C510.915,798.115 510.774,797.502 510.744,797.374C509.823,793.376 509.155,791.548 498.94,764.344C490.452,741.741 489.144,740.952 491.232,726.465C497.225,684.901 500.289,684.539 495.939,672.349C494.315,667.798 492.025,658.563 489.785,660.833C482.035,668.688 482.877,669.349 475.273,677.278C472.859,679.795 471.819,670.179 471.294,667.541C459.984,610.722 454.443,596.657 456.481,596.439C457.523,596.327 508.413,633.131 510.571,634.367C513.184,635.864 516.122,632.298 548.525,609.534C564.791,598.107 567.547,594.525 567.802,597.432C567.828,597.729 560.99,626.913 560.389,629.474C551.028,669.425 551.922,681.567 548.217,676.793C547.589,675.984 534.232,660.584 533.539,660.407C532.105,660.041 531.434,660.427 526.365,677.461C524.645,683.242 534.061,722.737 533.659,737.504C533.519,742.647 533.497,743.453 512.211,798.132Z"/>
                <path d="M630.217,374.786C628.36,373.041 608.083,353.989 607.399,352.559C604.939,347.42 612.265,352.586 614.402,351.342C617.042,349.805 612.579,345.755 612.521,345.494C612.026,343.299 617.927,340.639 610.249,336.977C606.879,335.369 607.486,334.649 604.439,332.587C603.604,332.023 602.683,331.593 601.852,331.023C595.904,326.949 597.82,324.953 603.021,320.015C614.405,309.207 621.653,299.884 623.413,300.744C626.046,302.03 643.911,320.583 645.632,322.37C653.272,330.304 666.96,342.215 666.006,344.294C664.715,347.107 663.876,346.433 638.648,371.646C634.769,375.522 634.387,378.239 630.217,374.786ZM625.743,346.157C624.025,347.114 618.97,350.821 618.915,351.494C618.588,355.503 629.004,368.32 630.442,361.485C631.152,358.114 621.142,352.11 627.487,352.158C634.982,352.214 636.663,363.822 643.115,358.064C646.422,355.113 650.853,351.69 648.341,349.732C646.439,348.248 640.656,355.738 637.946,351.186C636.12,348.119 646.624,345.201 641.113,340.975C632.873,334.657 644.934,333.358 643.205,329.624C642.984,329.148 640.783,324.394 637.756,325.981C633.75,328.08 637.6,330.838 634.235,333.07C626.344,338.302 638.129,340.134 635.948,345.709C634.446,349.549 629.354,346.419 628.871,346.121C626.957,340.439 624.526,340.252 627.049,337.116C630.838,332.407 625.095,329.97 630.509,324.509C633.734,321.256 635.622,319.665 631.358,317.874C628.525,316.685 627.132,326.659 620.453,320.543C617.333,317.686 631.129,313.878 623.383,309.766C622.199,309.137 621.837,309.381 610.624,320.621C609.939,321.307 605.302,325.955 608.414,332.547C608.451,332.625 613.901,334.801 613.092,327.554C612.871,325.577 615.596,321.867 618.096,323.987C621.337,326.736 621.181,327.601 618.954,329.86C616.469,332.382 623.914,332.586 623.318,334.461C621.86,339.054 615.492,339.565 621.156,343.971C623.23,345.584 623.151,345.681 625.743,346.157ZM656.314,345.328C659.294,339.418 652.739,342.295 652.628,344.505C652.459,347.854 656.061,345.493 656.314,345.328Z"/>
                <path d="M394.302,337.674C397.679,344.662 386.386,344.384 388.409,338.466C389.808,334.376 393.918,337.393 394.302,337.674Z"/>
                <g transform="matrix(0.515152,0,0,0.515152,322.094725,238.017095)">
                    <path d="M668.928,468L683,501L654.856,501L668.928,468Z"/>
                </g>
                <path d="M361.58,485.258C361.891,485.461 366.157,488.255 362.652,489.773C359.667,491.065 354.319,485.195 361.58,485.258Z"/>
            </g>
        </g>
    </g>
</svg>
