<?xml version="1.0" encoding="UTF-8" standalone="no"?>
<!DOCTYPE svg PUBLIC "-//W3C//DTD SVG 1.1//EN" "http://www.w3.org/Graphics/SVG/1.1/DTD/svg11.dtd">
<svg width="100%" height="100%" viewBox="0 0 319 303" version="1.1" xmlns="http://www.w3.org/2000/svg" xmlns:xlink="http://www.w3.org/1999/xlink" xml:space="preserve" xmlns:serif="http://www.serif.com/" style="fill-rule:evenodd;clip-rule:evenodd;stroke-linejoin:round;stroke-miterlimit:2;">
    <g id="Guide">
        <g transform="matrix(1,0,0,1,-353.060226,-365.905388)">
            <path d="M510.519,365.905C511.974,365.978 522.271,366.491 528.277,369.916C562.63,389.51 542.684,435.976 512.495,435.062C467.538,433.701 464.534,370.322 510.519,365.905Z"/>
        </g>
        <g transform="matrix(1,0,0,1,-353.060226,-365.905388)">
            <path d="M378.924,618.486C380.142,600.017 388.931,600.725 436.596,588.906C446.13,586.542 446.281,587.315 455.533,590.403C456.445,590.708 501.471,606.4 501.533,606.465C501.841,606.787 502.706,607.903 497.353,610.141C471.115,621.11 444.972,629.548 440.35,631.04C435.416,632.632 437.848,634.46 437.74,641.516C437.686,645.036 429.886,643.742 429.483,643.703C380.706,638.948 379.846,627.798 378.924,618.486Z"/>
        </g>
        <g transform="matrix(1,0,0,1,-353.060226,-365.905388)">
            <path d="M483.429,666.085C467.102,668.506 461.128,671.895 459.305,656.522C457.069,637.672 456.465,635.842 462.474,633.437C530.601,606.168 577.025,586.827 580.522,587.349C580.69,587.374 624.108,597.706 628.404,598.848C652.784,605.333 649.387,632.269 628.409,638.173C623.301,639.61 556.829,653.16 483.429,666.085Z"/>
        </g>
        <g transform="matrix(1,0,0,1,-353.060226,-365.905388)">
            <path d="M434.488,570.486C426.065,575.778 425.348,573.955 375.489,586.454C358.807,590.636 350.76,593.537 353.632,580.532C355.832,570.571 402.839,548.216 406.538,538.515C427.245,484.206 429.674,470.868 453.579,460.705C454.653,460.248 475.273,455.632 477.452,455.936C486.404,457.183 506.811,476.463 516.362,472.172C523.931,468.771 543.768,455.355 547.456,455.904C591.306,462.429 593.039,473.943 610.973,521.321C619.316,543.365 620.451,543.039 627.797,548.062C665.077,573.547 672.165,576.388 671.607,585.506C671.101,593.757 661.566,589.444 641.409,584.881C592.63,573.837 591.989,573.177 588.948,570.051C575.692,556.425 565.974,510.188 557.587,507.275C552.594,505.54 536.371,518.494 517.294,529.138C509.135,533.691 508.161,530.561 485.246,516.92C470.965,508.418 467.17,503.144 461.841,510.726C459.644,513.852 446.207,560.019 434.488,570.486Z"/>
        </g>
    </g>
</svg>
