<?xml version="1.0" encoding="UTF-8" standalone="no"?>
<!DOCTYPE svg PUBLIC "-//W3C//DTD SVG 1.1//EN" "http://www.w3.org/Graphics/SVG/1.1/DTD/svg11.dtd">
<svg width="100%" height="100%" viewBox="0 0 516 643" version="1.1" xmlns="http://www.w3.org/2000/svg" xmlns:xlink="http://www.w3.org/1999/xlink" xml:space="preserve" xmlns:serif="http://www.serif.com/" style="fill-rule:evenodd;clip-rule:evenodd;stroke-linejoin:round;stroke-miterlimit:2;">
    <g id="Law" transform="matrix(1,0,0,1,-253.793086,-190.699909)">
        <rect x="253.793" y="190.7" width="515.531" height="642.575" style="fill:none;"/>
        <clipPath id="_clip1">
            <rect x="253.793" y="190.7" width="515.531" height="642.575"/>
        </clipPath>
        <g clip-path="url(#_clip1)">
            <g id="Law1" serif:id="Law" transform="matrix(1,0,0,1,0.793086,0.699909)">
                <path d="M253.898,305.5C253.914,302.128 252.228,290.174 261.814,282.926C271.475,275.622 332.161,275.533 406.68,240.904C489.89,202.237 500.937,187.769 516.572,191.183C523.086,192.606 611.291,243.159 659.572,258.292C749.177,286.377 758.477,271.068 767.727,290.397C768.936,292.924 769.391,292.992 769.316,355.5C769.091,543.886 770.516,544.18 762.879,582.573C733.138,732.084 595.804,791.846 525.285,829.091C509.625,837.361 507.287,834.708 460.259,808.931C347.969,747.381 279.747,687.305 258.979,576.418C252.445,541.535 254.067,541.25 253.898,305.5ZM309.921,525.47C317.414,611.855 344.244,681.678 491.76,760.007C510.977,770.211 511.383,770.511 514.336,769.165C515.491,768.638 560.286,746.357 590.297,726.187C709.06,646.37 713.793,566.055 713.57,477.5C713.206,332.666 714.897,330.604 711.598,330.093C699.566,328.23 651.211,326.384 543.364,275.79C512.77,261.437 512.177,260.461 506.703,262.932C465.773,281.407 397.731,319.043 312.554,329.938C309.592,330.317 309.087,330.498 309.09,333.496C309.273,504.39 308.688,504.306 309.921,525.47Z"/>
                <path d="M655.615,384.579C634.551,417.683 634.891,418.033 632.198,420.117C630.282,421.599 607.83,412.14 549.667,392.023C535.15,387.002 524.698,383.193 522.534,382.405C513.215,379.009 512.907,378.127 503.515,381.542C494.665,384.76 395.809,420.704 392.504,420.697C390.787,420.693 387.974,416.22 373.064,392.778C363.868,378.318 360.131,376.859 364.402,375.294C365.668,374.83 409.403,359.609 499.612,326.809C508.849,323.45 509.043,321.713 518.333,324.973C529.709,328.964 659.369,374.46 660.223,375.721C661.135,377.068 656.656,383.018 655.615,384.579Z"/>
                <path d="M526.38,676.267C513.241,682.495 512.842,683.906 506.713,681.016C493.863,674.959 423.697,641.316 419.8,639.096C418.382,638.288 415.042,625.42 408.034,600.642C406.199,594.153 403.189,585.757 405.512,586.326C405.537,586.332 483.058,620.774 487.439,622.637C506.22,630.624 509.727,634.144 514.715,631.965C573.638,606.221 618.977,585.369 619.793,586.175C620.353,586.729 619.976,586.922 611.579,616.523C605.428,638.206 605.097,638.382 603.388,639.291C597.205,642.582 551.65,664.443 526.38,676.267Z"/>
                <path d="M561.957,521.553C553.651,583.442 460.537,578.592 460.996,514.508C461.38,460.861 538.471,444.727 559.174,496.621C562.996,506.199 562.092,519.551 561.957,521.553Z"/>
            </g>
        </g>
    </g>
</svg>
