<?xml version="1.0" encoding="UTF-8" standalone="no"?>
<!DOCTYPE svg PUBLIC "-//W3C//DTD SVG 1.1//EN" "http://www.w3.org/Graphics/SVG/1.1/DTD/svg11.dtd">
<svg width="100%" height="100%" viewBox="0 0 503 573" version="1.1" xmlns="http://www.w3.org/2000/svg" xmlns:xlink="http://www.w3.org/1999/xlink" xml:space="preserve" xmlns:serif="http://www.serif.com/" style="fill-rule:evenodd;clip-rule:evenodd;stroke-linejoin:round;stroke-miterlimit:2;">
    <g id="Media" transform="matrix(1,0,0,1,-261.802165,-225.920024)">
        <rect x="261.802" y="225.92" width="502.241" height="572.924" style="fill:none;"/>
        <clipPath id="_clip1">
            <rect x="261.802" y="225.92" width="502.241" height="572.924"/>
        </clipPath>
        <g clip-path="url(#_clip1)">
            <g id="Media1" serif:id="Media" transform="matrix(1,0,0,1,0.802165,0.920024)">
                <path d="M672.5,226.102C705.969,226.101 727.734,222.867 737.021,243.718C743.492,258.247 737.435,287.653 741.342,288.913C744.262,289.855 763.335,287.659 763.646,290.466C764.479,297.978 763.753,708.178 763.689,744.5C763.686,746.032 767.448,783.452 733.551,795.645C722.224,799.719 713.524,798.333 596.501,798.603C574.021,798.655 337.958,799.201 315.501,798.455C298.549,797.891 262.285,794.482 262.077,744.502C261.492,603.28 262.011,413.299 262.089,384.499C262.095,382.308 259.348,358.667 279.627,341.652C297.771,326.428 317.629,330.502 349.486,330.022C352.909,329.97 351.734,327.952 352.03,287.501C352.168,268.509 346.634,232.889 377.573,226.847C383.033,225.781 383.077,226.124 512.499,226.078L672.5,226.102ZM301.483,750.517C317.504,764.736 351.285,748.315 351.88,706.504C352.141,688.155 352.023,527.1 352.012,511.5C351.915,378.905 352.756,378.944 351.852,367.456C351.641,364.779 350.181,365.411 319.502,365.307C293.364,365.218 297.227,378.417 297.183,418.498C297.154,444.34 296.829,738.91 297.316,741.526C298.316,746.889 299.345,747.818 301.483,750.517ZM723.498,335.087C701.83,335.004 454.063,334.054 452.651,335.634C452.233,336.102 452.17,336.123 452.106,387.499C452.015,460.111 452.812,461.325 450.601,461.867C449.747,462.077 408.394,462.201 407.359,461.856C405.614,461.273 406.241,460.437 406.134,414.5C406.11,404.576 405.847,292.072 406.344,290.444C406.799,288.955 407.533,289.352 466.499,289.272C590.923,289.103 702.601,289.86 703.708,288.678C704.757,287.557 704.206,287.37 704.219,269.501C704.222,265.599 705.373,263.894 701.494,263.878C676.446,263.78 390.185,262.654 388.398,264.392C387.218,265.539 388.01,400.194 387.772,507.502C387.3,720.982 390.988,722.512 378.09,748.297C373.699,757.077 366.551,762.734 371.482,762.7C424.438,762.325 707.88,763.391 713.408,762.108C731.773,757.845 728.753,740.678 728.728,717.5C728.552,559.508 729.235,336.798 728.287,335.679C727.523,334.777 727.358,335.217 723.498,335.087Z"/>
                <path d="M458.098,592.5C458.06,579.013 457.922,577.987 458.419,577.44C459.738,575.986 487.551,577.035 493.55,576.743C495.449,576.651 495.052,572.685 495.092,570.492C495.789,531.987 494.314,529.975 497.517,529.92C519.742,529.537 520.204,529.07 521.177,530.695C521.967,532.013 521.254,661.817 521.55,669.494C521.715,673.782 544.687,669.741 546.875,672.189C547.856,673.286 547.257,719.225 547.201,719.415C546.706,721.068 545.934,720.867 503.501,720.866C409.487,720.862 408.396,721.327 408.18,719.603C407.922,717.54 407.969,676.376 408.073,673.44C408.21,669.559 422.748,672.416 424.328,671.228C425.088,670.656 425.088,665.042 425.088,664.5C425.088,647.852 425.064,647.937 425.064,646.496C425.075,604.405 425.21,603.869 426.512,603.546C426.594,603.525 443.973,603.299 455.5,603.504C459.284,603.572 458.077,596.276 458.098,592.5Z"/>
                <path d="M705.101,508.5C705.078,521.543 705.64,527.225 703.468,527.304C703.455,527.305 548.215,527.458 547.575,527.201C545.646,526.427 546.175,523.67 546.165,499.502C546.163,494.772 545.091,487.761 548.51,487.646C551.151,487.556 702.713,487.511 703.476,487.638C705.543,487.982 705.103,491.727 705.101,508.5Z"/>
                <path d="M637.502,370.96C642.431,370.994 702.447,370.926 703.607,371.067C706.427,371.407 704.95,394.067 704.495,394.495C703.913,395.044 697.138,395.075 696.496,395.078C679.458,395.154 492.79,395.995 483.515,395.126C480.154,394.811 481.052,390.086 481.076,379.501C481.089,373.491 479.514,370.833 485.496,370.93C487.539,370.963 636.662,370.965 637.502,370.96Z"/>
                <path d="M697.503,412.049C697.691,412.052 704.646,411.425 704.875,413.381C705.03,414.706 705.042,433.272 704.858,434.597C704.577,436.613 703.345,436.005 594.498,436.154C585.545,436.167 484.283,436.306 482.582,436.033C479.789,435.585 481.083,412.976 481.519,412.52C482.344,411.654 482.59,412.188 510.497,411.953C524.257,411.837 524.187,412.368 682.499,412.016C690.048,412 689.969,411.952 697.503,412.049Z"/>
                <path d="M654.5,547.927C704.258,547.787 704.274,548.273 704.506,548.494C705.106,549.061 705.144,551.569 705.055,569.496C705.038,572.951 703.118,572.157 678.499,572.188C670.264,572.198 576.312,572.315 575.562,572.101C572.371,571.194 574.096,548.859 574.471,548.469C575.151,547.762 575.375,547.894 654.5,547.927Z"/>
                <path d="M705.062,613.498C704.712,615.377 705.759,616.978 701.497,617.07C698.34,617.139 575.996,617.185 575.554,617.069C573.827,616.613 573.941,616.291 573.911,614.494C573.564,594.044 573.704,593.437 575.376,593.031C575.791,592.93 575.796,592.923 648.5,592.87C704.466,592.83 704.474,593.419 704.53,593.473C705.674,594.596 705.053,594.82 705.062,613.498Z"/>
                <path d="M662.496,662.076C576.325,661.905 574.778,663.484 574.036,660.623C573.948,660.282 573.905,660.315 573.894,641.497C573.893,639.225 573.418,637.901 577.501,637.89C589.502,637.856 702.565,637.739 703.436,637.971C705.446,638.506 704.944,640.509 705.056,655.498C705.064,656.532 706.161,661.952 702.521,661.984C697.661,662.027 672.365,662.031 662.496,662.076Z"/>
                <path d="M705.05,689.499C705.05,705.735 705.281,707.022 702.484,707.093C699.338,707.173 575.677,707.177 575.549,707.141C573.88,706.671 573.074,706.168 573.969,685.517C574.071,683.155 575.322,683.089 576.477,683.073C637.999,682.209 637.911,683.505 699.501,683.008C702.996,682.979 703.213,682.173 704.545,683.458C704.894,683.794 704.579,683.872 705.05,689.499Z"/>
                <path d="M320.502,707.855C320.406,707.854 313.996,708.946 313.887,705.491C313.209,684.027 313.622,683.353 315.398,683.074C315.408,683.073 336.673,682.844 337.63,683.157C339.334,683.713 339.456,684.292 338.866,705.532C338.783,708.517 335.384,707.811 320.502,707.855Z"/>
                <path d="M330.504,552.08C331.849,552.105 338.889,550.955 338.915,554.485C339.06,574.805 339.511,575.045 338.278,576.279C337.532,577.026 314.907,577.696 314.138,575.676C313.677,574.467 313.748,574.438 313.833,559.499C313.859,554.951 312.326,554.497 314.519,552.527C315.16,551.952 323.769,552.099 330.504,552.08Z"/>
                <path d="M321.501,618.113C335.096,618.023 338.878,617.122 338.911,620.486C339.117,642.08 338.318,642.286 337.498,642.493C337,642.619 315.882,642.674 315.477,642.62C312.39,642.214 313.86,619.076 314.478,618.474C315.345,617.629 315.483,618.102 321.501,618.113Z"/>
            </g>
        </g>
    </g>
</svg>
