<?xml version="1.0" encoding="UTF-8" standalone="no"?>
<!DOCTYPE svg PUBLIC "-//W3C//DTD SVG 1.1//EN" "http://www.w3.org/Graphics/SVG/1.1/DTD/svg11.dtd">
<svg width="100%" height="100%" viewBox="0 0 564 478" version="1.1" xmlns="http://www.w3.org/2000/svg" xmlns:xlink="http://www.w3.org/1999/xlink" xml:space="preserve" xmlns:serif="http://www.serif.com/" style="fill-rule:evenodd;clip-rule:evenodd;stroke-linejoin:round;stroke-miterlimit:2;">
    <g transform="matrix(1,0,0,1,-0.58092,-0.428607)">
        <g transform="matrix(1,0,0,0.979574,-229.58092,-265.884398)">
            <g id="Medtech">
                <g transform="matrix(1,0,0,1.020852,0.58092,-5.222272)">
                    <path d="M325.501,362.902C334.939,362.862 413.126,362.527 443.474,362.878C446.46,362.913 445.506,370.774 445.487,373.5C445.089,429.85 446.599,431.734 443.467,432.051C443.162,432.082 298.967,432.082 292.468,431.914C290.089,431.852 290.331,431.156 280.859,424.037C280.365,423.665 277.65,424.325 278.337,408.472C278.416,406.641 279.333,406.69 300.5,406.722C318.859,406.751 418.121,406.76 418.54,406.664C421.238,406.04 420.186,389.364 419.306,388.797C418.241,388.11 262.396,388.743 245.507,388.39C244.119,388.361 242.09,388.318 230.859,379.103C229.59,378.062 228.493,363.697 231.564,362.981C232.364,362.795 313.449,362.867 325.501,362.902Z"/>
                </g>
                <g transform="matrix(1,0,0,1.020852,0.58092,-5.222272)">
                    <path d="M676.501,362.9C685.714,362.877 790.17,362.617 791.658,363.032C793.98,363.681 792.973,377.426 792.427,378.452C792.051,379.158 781.086,387.518 780.63,387.735C777.252,389.341 617.726,388.084 605.51,388.574C602.818,388.682 603.788,405.64 604.651,406.297C606.13,407.423 742.554,406.133 744.259,406.975C745.774,407.724 745.008,420.515 744.995,420.581C744.761,421.823 744.725,422.015 733.237,431.134C732.445,431.763 732.356,432.13 697.503,432.075C580.305,431.892 578.784,433.369 578.13,430.598C577.672,428.658 577.942,397.386 577.967,394.498C578.227,364.295 577.568,363.226 579.568,362.935C580.313,362.827 663.003,362.858 676.501,362.9Z"/>
                </g>
                <g transform="matrix(1,0,0,1.020852,0.58092,-5.222272)">
                    <path d="M612.501,475.866C600.839,475.833 551.148,475.827 550.546,475.89C548.525,476.101 548.813,477.226 548.779,524.5C548.774,532.275 547.258,534.196 552.844,538.001C577.744,554.963 578.108,555.409 578.118,558.507C578.249,596.408 579.306,596.768 577.437,599.46C575.897,601.678 530.982,636.991 524.614,642.725C522.045,645.039 522.742,640.584 522.706,620.499C522.69,611.619 520.761,610.219 527.856,604.972C529.742,603.577 550.262,588.401 551.239,587.283C552.019,586.392 552.249,586.129 551.867,572.499C551.753,568.411 550.654,568.598 531.727,556.163C523.174,550.544 522.735,550.227 522.725,547.497C522.665,531.08 522.694,497.82 522.698,493.5C522.735,451.705 522.064,450.374 524.42,450.075C525.068,449.993 667.095,450.095 679.502,450.104C690.428,450.112 694.855,449.206 694.871,452.49C694.925,463.916 696.025,464.859 690.866,468.959C685.909,472.898 683.534,475.851 679.501,475.852C632.604,475.863 632.699,475.781 612.501,475.866Z"/>
                </g>
                <g transform="matrix(1,0,0,1.020852,0.58092,-5.222272)">
                    <path d="M467.5,475.895C404.289,475.501 342.079,476.715 339.816,475.046C328.615,466.784 328.575,465.732 328.529,464.497C328.008,450.505 329.107,450.136 330.445,450.097C332.118,450.047 498.957,450.067 499.549,450.114C502.296,450.333 501.383,455.322 501.431,474.5C501.449,481.937 501.5,545.925 501.319,548.479C501.032,552.518 472.848,566.453 472.533,570.504C471.326,586.032 472.757,587.154 473.862,588.022C480.709,593.394 501.738,606.898 500.115,609.211C499.772,609.7 481.417,623.813 480.415,624.306C478,625.492 477.927,624.067 452.85,605.035C445.875,599.741 446.055,599.382 446.036,597.517C445.637,558.635 445.077,558.546 446.526,555.514C447.899,552.64 474.911,537.647 475.091,533.473C475.126,532.672 475.112,532.681 475.114,480.5C475.114,480.167 475.114,476.831 474.637,476.359C474.23,475.957 474.147,476.328 467.5,475.895Z"/>
                </g>
                <g transform="matrix(1,0,0,1.020852,0.58092,-5.222272)">
                    <path d="M471.057,423.5C471.087,411.643 470.233,406.846 473.512,406.809C493.974,406.575 499.068,407.62 499.052,404.487C498.813,357.514 499.117,357.558 498.957,353.481C498.782,349.044 480.698,339.85 474.681,334.332C473.942,333.654 473.59,333.491 473.601,292.501C473.602,288.671 478.011,287.188 485.157,282.037C496.793,273.652 496.767,273.64 497.785,272.921C499.464,271.736 500.747,270.83 523.455,271.914C525.4,272.007 550.008,289.199 550.52,290.491C551.051,291.83 550.79,331.136 550.584,332.516C550.118,335.639 525.608,349.02 524.861,352.578C524.575,353.938 524.692,404.774 524.846,405.403C525.415,407.727 540.248,406.396 550.482,406.813C553.89,406.951 552.814,413.155 552.841,423.5C552.856,429.208 555.23,432.047 549.493,432.068C543.41,432.091 480.213,432.325 473.46,431.978C470.228,431.812 471.08,428.581 471.057,423.5ZM503.575,303.62C501.547,305.185 500.331,305.183 500.906,316.469C500.956,317.461 501.063,319.566 510.664,324.153C512.881,325.213 523.033,319.604 523.129,316.485C523.415,307.191 523.47,305.514 520.421,303.631C512.797,298.92 512.225,298.998 511.426,299.105C510.708,299.202 510.336,299.253 503.575,303.62Z"/>
                </g>
                <g transform="matrix(1,0,0,1.020852,0.58092,-5.222272)">
                    <path d="M406.499,493.946C449.673,493.858 449.76,494.241 450.106,494.771C450.372,495.178 451.331,518.367 449.449,519.396C449.099,519.586 389.928,520.45 387.803,519.005C376.379,511.238 376.33,509.758 376.289,508.513C375.874,495.997 375.93,494.155 379.483,494.105C382.714,494.059 382.678,493.995 406.499,493.946Z"/>
                </g>
                <g transform="matrix(1,0,0,1.020852,0.58092,-5.222272)">
                    <path d="M581.494,494.052C592.567,493.82 644.121,493.925 645.569,494.057C646.727,494.163 648.535,494.327 647.343,508.489C647.064,511.808 634.935,519.34 634.487,519.447C632.715,519.867 575.605,519.662 575.464,519.623C573.677,519.126 573.867,518.458 574.083,496.48C574.116,493.093 577.841,494.066 581.494,494.052Z"/>
                </g>
                <g transform="matrix(1,0,0,1.020852,0.58092,-5.222272)">
                    <path d="M476.492,676.491C464.501,686.533 463.809,686.522 462.544,685.449C458.437,681.966 448.887,671.542 447.743,670.292C444.046,666.258 448.997,666.341 498.294,624.218C498.503,624.039 501.557,621.43 501.644,623.458C501.751,625.939 502.476,642.803 501.444,654.496C501.21,657.147 500.693,657.102 476.492,676.491Z"/>
                </g>
                <g transform="matrix(1,0,0,1.020852,0.58092,-5.222272)">
                    <path d="M494.441,744.581C477.28,732.274 477.284,732.303 475.874,731.13C474.481,729.971 474.213,729.747 474.924,708.501C475.132,702.279 483.236,699.032 499.216,685.002C501.155,683.3 501.456,684.911 501.445,687.502C501.198,742.737 501.676,742.689 501.425,747.481C501.292,750.008 497.38,746.747 494.441,744.581Z"/>
                </g>
                <g transform="matrix(1,0,0,1.020852,0.58092,-5.222272)">
                    <path d="M548.925,714.501C548.894,721.379 549.22,730.091 548.044,731.079C546.335,732.515 546.107,732.148 525.545,747.568C522.393,749.932 522.691,747.256 522.71,745.496C523.046,713.78 522.634,691.224 522.548,686.506C522.469,682.193 529.757,689.997 533.842,693.063C534.851,693.82 540.259,697.879 546.13,702.931C550.187,706.421 548.924,710.096 548.925,714.501Z"/>
                </g>
                <g transform="matrix(1,0,0,1.020852,0.58092,-5.222272)">
                    <path d="M562.509,687.509C562.217,687.826 559.188,691.122 557.777,690.089C545.73,681.272 529.24,668.091 526.792,666.135C524.21,664.071 521.991,663.778 524.574,661.581C543.628,645.377 544.896,646.139 546.588,647.376C549.02,649.154 574.166,667.536 576.113,670.74C577.137,672.425 572.429,676.605 562.509,687.509Z"/>
                </g>
            </g>
        </g>
    </g>
</svg>
