<?xml version="1.0" encoding="UTF-8" standalone="no"?>
<!DOCTYPE svg PUBLIC "-//W3C//DTD SVG 1.1//EN" "http://www.w3.org/Graphics/SVG/1.1/DTD/svg11.dtd">
<svg width="100%" height="100%" viewBox="0 0 631 630" version="1.1" xmlns="http://www.w3.org/2000/svg" xmlns:xlink="http://www.w3.org/1999/xlink" xml:space="preserve" xmlns:serif="http://www.serif.com/" style="fill-rule:evenodd;clip-rule:evenodd;stroke-linejoin:round;stroke-miterlimit:2;">
    <g id="Netrunner" transform="matrix(1,0,0,1,-196.810518,-196.812856)">
        <rect x="196.811" y="196.813" width="630.621" height="629.691" style="fill:none;"/>
        <clipPath id="_clip1">
            <rect x="196.811" y="196.813" width="630.621" height="629.691"/>
        </clipPath>
        <g clip-path="url(#_clip1)">
            <g id="Netrunner1" serif:id="Netrunner" transform="matrix(1,0,0,1,0.810518,0.812856)">
                <path d="M599.929,235.497C600.424,273.098 598.455,275.623 602.494,275.647C632.753,275.828 633.356,276.881 634.99,274.858C637.135,272.203 632.301,215.248 637.789,205.673C646.044,191.271 670.344,194.664 670.612,215.5C670.849,233.908 669.978,274.863 671.364,275.661C672.617,276.383 718.641,280.292 739.447,330.522C746.109,346.605 743.196,353.165 747.511,353.231C805.474,354.12 816.942,348.885 825.108,362.721C828.897,369.14 828.673,387.878 808.495,388.166C780.278,388.568 746.908,387.062 746.169,389.36C745.828,390.422 745.977,422.381 745.985,422.404C746.643,424.249 747.428,423.74 796.5,423.708C803.061,423.704 825.97,420.255 827.397,440.504C827.936,448.159 822.154,458.691 808.519,458.961C785.682,459.413 747.475,458.594 746.526,459.527C745.779,460.26 745.617,492.72 746.419,493.571C748.993,496.301 810.454,490.807 819.225,496.905C831.433,505.393 831.828,528.801 807.498,529.269C784.213,529.716 746.947,528.267 746.222,530.373C745.932,531.216 745.999,561.091 745.95,562.5C745.827,566.015 747.996,564.823 782.497,564.964C806.543,565.063 822.661,562.326 826.775,578.423C829.42,588.774 822.24,599.635 809.517,599.897C794.412,600.208 747.721,599.315 746.497,600.498C745.916,601.06 745.428,634.351 746.608,635.345C748.772,637.168 809.115,632.998 818.315,637.854C832.505,645.344 829.743,670.027 809.514,670.736C794.63,671.257 747.107,669.937 745.612,671.582C744.344,672.979 743.794,708.961 706.772,733.901C687.069,747.174 670.909,746.287 670.701,749.531C669.587,766.945 673.26,809.314 668.035,818.224C660.454,831.153 635.98,829.104 635.309,808.507C634.86,794.727 636.308,749.729 634.384,748.725C633.969,748.508 601.683,748.106 600.7,748.785C597.624,750.906 603.315,808.024 597.186,818.302C589.669,830.906 565.036,829.643 564.856,807.493C564.396,750.976 566.165,748.619 562.498,748.54C559.88,748.483 531.167,747.866 529.76,748.864C526.865,750.918 531.846,808.995 526.633,817.577C517.708,832.27 494.044,828.768 493.872,807.494C493.415,750.877 495.207,748.424 491.501,748.446C459.665,748.638 458.235,747.91 458.02,750.445C456.741,765.517 460.54,810.423 455.291,818.365C446.434,831.764 422.786,828.882 422.451,807.501C422.125,786.726 423.435,749.585 421.416,748.689C420.963,748.488 388.682,748.138 387.693,748.795C385.094,750.522 389.155,808.433 385.188,816.354C376.831,833.045 351.931,828.288 351.839,807.496C351.589,750.438 353.881,748.084 349.542,747.295C346.857,746.806 287.988,736.768 277.915,673.426C277.417,670.295 275.982,670.864 245.5,670.839C215.609,670.814 201.077,673.384 197.307,656.538C195.131,646.809 202.19,636.301 212.522,635.729C226.11,634.977 275.855,636.753 276.774,634.67C277.813,632.316 277.492,632.255 277.116,602.508C277.073,599.092 275.078,599.965 240.5,599.916C216.07,599.882 200.736,602.738 197.238,585.548C195.193,575.499 202.811,565.837 212.46,565.098C219.743,564.539 275.324,565.534 276.495,564.494C277.35,563.733 277.659,530.784 276.363,529.699C274.021,527.739 213.81,532.006 205.645,527.236C190.383,518.319 195.899,494.573 214.491,494.203C228.951,493.916 275.245,494.785 276.553,493.554C277.362,492.793 277.547,460.47 276.536,459.46C274.664,457.591 214.913,461.485 206.647,457.199C191.766,449.485 193.098,424.058 215.504,423.736C239.286,423.395 276.021,424.784 276.845,422.678C276.933,422.453 277.852,389.857 276.437,388.586C274.242,386.615 213.966,390.655 205.667,386.193C193.684,379.749 190.616,353.394 217.5,353.229C246.001,353.053 276.19,354.123 277.438,352.466C278.717,350.766 278.246,316.009 315.752,289.865C336.527,275.384 351.829,278.581 351.866,273.511C352.303,213.381 348.657,205.688 361.615,198.734C371.856,193.238 386.396,200.695 386.862,212.474C387.352,224.847 386.004,274.122 387.678,275.228C387.902,275.376 421.48,276.764 422.266,274.418C423.86,269.66 419.716,214.52 424.769,205.659C432.824,191.533 457.629,193.98 457.903,215.494C458.159,235.647 457.157,274.224 458.665,275.257C459.474,275.81 461.84,275.51 491.503,275.672C494.898,275.69 493.69,273.52 493.936,215.504C494.04,190.814 528.598,190.642 528.906,215.495C528.963,220.055 528.816,219.984 528.917,272.497C528.925,276.505 530.921,275.623 548.5,275.636C560.399,275.644 564.734,276.399 564.838,273.527C565.564,253.635 563.128,213.572 566.636,206.573C574.216,191.451 599.463,194.036 599.913,214.49C600.06,221.144 599.945,233.816 599.929,235.497ZM588.518,584.114C565.11,585.108 565.045,611.646 580.619,618.218C604.839,628.44 617.65,587.722 588.518,584.114ZM419.481,421.481C401.501,441.803 432.496,462.873 446.331,443.383C456.811,428.617 437.529,406.163 419.481,421.481ZM317.042,519.499C317.723,668.786 314.608,669.573 320.899,683.311C332.45,708.531 358.595,708.755 362.497,708.788C369.367,708.847 661.964,708.849 663.511,708.791C683.335,708.052 705.286,691.15 706.136,667.483C706.169,666.556 706.558,617.598 706.032,616.725C704.898,614.847 704.176,615.871 652.499,615.758C638.138,615.727 635.901,615.529 635.168,617.336C615.609,665.562 567.161,656.419 549.068,633.854C510.903,586.259 571.443,525.508 620.086,563.997C624.219,567.268 625.873,571.83 630.5,571.815C704.525,571.574 705.284,572.437 705.946,570.753C705.987,570.65 706.273,570.646 706.305,519.5C706.396,368.594 707.125,368.619 706.054,355.546C703.693,326.747 669.52,308.155 657.904,317.976C651.953,323.008 547.676,428.815 544.452,429.264C537.823,430.186 479.548,428.255 478.606,430.542C478.487,430.832 481.256,458.544 455.284,474.119C419.041,495.855 368.062,457.349 389.857,412.678C392.922,406.396 405.325,387.949 430.502,387.718C437.941,387.65 437.836,388.089 523.497,387.842C526.502,387.834 526.159,386.845 557.959,355.969C561.173,352.849 597.585,317.495 597.713,316.542C597.892,315.207 596.925,315.527 562.5,315.563C356.759,315.78 356.455,314.539 346.624,317.864C312.445,329.427 316.759,365.23 316.981,380.497C317.103,388.9 317.053,515.486 317.042,519.499Z"/>
                <path d="M635.93,428.448C636.236,433.144 638.396,466.264 603.512,477.538C594.47,480.461 587.019,478.86 584.87,480.906C582.473,483.188 483.137,581.865 479.664,585.643C476.289,589.314 483.58,616.973 450.415,633.314C418.404,649.087 369.582,616.959 388.97,571.719C395.321,556.9 419.452,536.483 449.349,548.86C455.213,551.288 454.931,548.339 463.09,541.066C472.139,532.998 540.708,464.147 547.414,457.414C549.695,455.124 547.338,453.938 549.616,451.612C551.222,449.972 556.589,444.96 567.592,433.595C574.186,426.785 567.049,445.264 584.529,450.382C604.155,456.129 617.805,424.985 593.405,416.805C591.052,416.016 584.887,416.442 587.299,414.388C593.53,409.081 606.973,392.193 610.407,393.735C630.826,402.903 635.255,425.068 635.93,428.448ZM433.46,608.107C454.354,603.957 452.275,580.676 438.321,574.944C413.64,564.807 401.217,607.919 433.46,608.107Z"/>
            </g>
        </g>
    </g>
</svg>
