<?xml version="1.0" encoding="UTF-8" standalone="no"?>
<!DOCTYPE svg PUBLIC "-//W3C//DTD SVG 1.1//EN" "http://www.w3.org/Graphics/SVG/1.1/DTD/svg11.dtd">
<svg width="100%" height="100%" viewBox="0 0 360 374" version="1.1" xmlns="http://www.w3.org/2000/svg" xmlns:xlink="http://www.w3.org/1999/xlink" xml:space="preserve" xmlns:serif="http://www.serif.com/" style="fill-rule:evenodd;clip-rule:evenodd;stroke-linejoin:round;stroke-miterlimit:2;">
    <g id="Ninja" transform="matrix(1,0,0,1.002685,-339.810219,-226.153661)">
        <rect x="339.81" y="225.548" width="359.43" height="372.419" style="fill:none;"/>
        <clipPath id="_clip1">
            <rect x="339.81" y="225.548" width="359.43" height="372.419"/>
        </clipPath>
        <g clip-path="url(#_clip1)">
            <g id="Ninja1" serif:id="Ninja" transform="matrix(1,0,0,0.997322,0.810219,1.150571)">
                <path d="M339.918,542.768C337.085,547.296 391.1,448.968 396.886,440.774C425.235,400.625 463.844,405.365 468.037,377.427C477.382,315.141 462.87,254.746 527.486,252.199C555.333,251.101 594.964,253.936 594.89,327.646C594.888,330.276 592.908,330.161 592.792,328.42C592.239,320.126 592.934,313.48 587.449,315.361C530.445,334.912 495.387,316.123 486.529,316.886C484.883,317.027 484.346,317.935 487.393,337.516C488.298,343.333 487.304,345.109 500.652,351.157C526.406,362.825 532.38,350.055 546.375,354.85C567.893,362.222 569.066,358.317 570.282,359.846C572.633,362.804 556.502,360.804 555.501,360.735C531.123,359.038 531.951,365.385 515.393,369.005C499.288,372.526 492.803,362.761 495.637,368.466C505.757,388.838 525.104,418.991 527.85,423.272C549.71,457.342 556.507,454.685 554.356,457.39C552.695,459.48 508.338,420.425 490.788,390.133C488.603,386.362 488.677,390.3 488.741,390.453C513.404,449.896 543.444,486.631 544.185,487.659C554.313,501.696 521.232,466.866 495.452,444.555C474.493,426.416 454.009,416.68 457.701,422.406C461.757,428.696 471.719,444.147 496.928,507.333C499.255,513.165 512.607,543.167 501.629,524.417C476.308,481.17 453.348,446.82 448.932,440.213C439.089,425.486 438.298,423.765 432.668,425.963C402.786,437.628 394.083,456.197 339.918,542.768Z"/>
                <g transform="matrix(1,0,0,1,-7.509083,-2.309721)">
                    <path d="M498.57,600.214C497.836,600.529 494.162,599.559 494.051,599.519C471.324,591.231 453.881,567.839 414.015,566.411C411.924,566.445 396.074,566.704 388.005,569.029C372.922,573.375 389.83,566.108 390.102,565.992C415.021,555.367 426.268,562.252 428.267,560.008C429.002,559.181 427.893,558.305 424.678,555.141C413.706,544.34 392.68,542.121 407.983,543.663C416.371,544.508 429.401,553.174 426.075,547.784C418.342,535.25 412.197,533.362 408.276,531.402C400.819,527.676 409.83,529.773 410.001,529.846C428.816,537.993 432.903,549.454 433.774,551.898C435.697,557.291 437.957,555.529 443.482,562.43C450.746,571.504 455.834,569.95 461.705,574.245C478.542,586.564 477.363,588.27 495.825,598.052C496.197,598.249 500.129,598.333 504.549,597.811C531.111,594.677 554.597,572.642 554.4,570.516C554.046,566.713 539.537,564.49 545.55,558.549C554.592,549.615 557.268,553.943 568.589,559.275C571.323,560.562 576.596,551.163 590.97,524.764C619.101,473.097 658.236,379.23 680.991,271.6C689.345,232.087 688.896,232.004 689.968,228.663C691.37,224.293 697.376,238.985 698.873,242.337C718.558,286.399 700.143,350.604 657.017,453.284C635.687,504.071 599.716,563.07 594.112,572.263C591.794,576.065 591.961,576.731 595.31,579.709C604.277,587.685 602.729,589.409 602.064,590.149C590.923,602.553 582.848,595.496 581.588,594.395C579.862,592.886 582.811,591.399 579.493,588.507C565.065,575.928 563.749,575.82 563.222,577.309C562.731,578.7 564.616,581.619 561.506,581.388C552.21,580.699 551.881,585.525 542.235,591.065C523.972,601.556 502.246,600.23 498.57,600.214Z"/>
                </g>
                <path d="M520.505,345.15C518.338,344.984 509.743,344.956 502.63,339.331C496.576,334.542 497.658,333.54 498.109,333.122C499.607,331.734 551.613,342.701 520.505,345.15Z"/>
                <path d="M557.52,345.071C556.741,344.986 546.51,343.871 548.426,341.438C548.802,340.96 569.789,333.671 579.506,332.433C582.306,332.076 579.464,336.739 575.185,340.089C569.854,344.263 558.985,344.975 557.52,345.071Z"/>
            </g>
        </g>
    </g>
</svg>
