<?xml version="1.0" encoding="UTF-8" standalone="no"?>
<!DOCTYPE svg PUBLIC "-//W3C//DTD SVG 1.1//EN" "http://www.w3.org/Graphics/SVG/1.1/DTD/svg11.dtd">
<svg width="100%" height="100%" viewBox="0 0 649 277" version="1.1" xmlns="http://www.w3.org/2000/svg" xmlns:xlink="http://www.w3.org/1999/xlink" xml:space="preserve" xmlns:serif="http://www.serif.com/" style="fill-rule:evenodd;clip-rule:evenodd;stroke-linejoin:round;stroke-miterlimit:2;">
    <g transform="matrix(1,0,0,1,-0.149423,-0.436065)">
        <g transform="matrix(1,0,0,1,-182.149423,-362.436065)">
            <g id="Nomad" transform="matrix(1,0,0,1,0.149423,0.436065)">
                <path d="M478.441,563.628C436.183,563.532 401.59,563.265 401.141,562.819C397.304,559.012 403.65,560.763 463.458,560.19C466.272,560.163 464.44,558.196 450.408,527.525C450.754,526.009 450.735,526.013 450.782,525.888C451.073,525.116 451.283,525.336 451.564,524.506C451.8,523.807 451.593,523.747 443.136,506.672C430.239,480.633 429.597,479.225 429.679,478.542C429.947,476.291 495.584,445.222 515.514,437.535C516.482,437.161 516.363,435.205 590.502,434.917C624.361,434.785 624.371,435.178 624.596,435.401C625.347,436.143 627.943,491.127 626.146,493.216C623.963,495.754 606.824,515.679 599.603,525.573C598.415,527.2 601.234,528.154 599.205,530.199C597.054,532.366 580.348,549.199 573.727,558.615C572.52,560.331 576.234,560.185 576.488,560.175C580.259,560.027 619.74,560.188 623.5,560.203C628.133,560.222 626.561,557.975 629.262,551.396C635.91,535.196 649.488,526.231 644.542,526.264C635.469,526.323 635.588,526.642 626.504,526.75C605.321,527.003 605.197,528.127 603.563,527.289C603.16,527.082 602.521,526.545 606.271,522.304C627.001,498.861 626.554,494.946 627.677,497.326C631.394,505.201 629.156,525.143 662.604,514.844C694.776,504.938 696.193,507.5 754.462,522.642C763.108,524.889 762.847,525.917 767.048,533.744C789.032,574.708 791.018,578.996 787.571,577.28C785.996,576.497 760.584,527.837 758.354,526.763C756.306,525.776 726.959,526.542 726.514,526.573C724.167,526.741 727.345,530.228 727.563,530.466C727.714,530.632 734.611,538.198 727.59,533.271C716.764,525.673 715.862,527.464 704.362,520.753C703.265,520.113 701.893,519.311 688.515,519.903C673.165,520.581 671.797,521.794 670.718,522.751C665.953,526.976 652.022,532.382 647.778,536.776C637.56,547.355 637.621,550.806 635.357,553.378C630.669,558.704 635.12,561.447 631.687,562.849C630.707,563.249 598.904,563.506 559.216,563.613C559.26,567.091 559.411,570.658 559.19,573.131C573.566,573.177 575.317,573.698 574.413,577.473C573.873,579.731 573.136,580.406 545.501,579.941C545.148,579.935 545.149,579.939 468.492,579.942C461.488,579.116 464.721,573.796 467.457,573.268C470.059,572.766 471.49,572.673 478.548,572.73C478.516,569.399 478.479,566.375 478.441,563.628ZM553.906,563.626C531.333,563.678 506.608,563.683 483.751,563.639C483.793,566.949 483.932,570.337 483.753,572.784C493.422,572.893 510.092,573.097 540.501,573.141C545.744,573.149 550.214,573.135 554.017,573.13C553.984,569.64 553.946,566.482 553.906,563.626ZM466.485,490.061C474.888,489.741 531.034,487.602 571.504,485.58C605.81,483.866 606.569,485.535 610.056,482.048C611.845,480.259 612.363,479.741 611.876,450.475C611.771,444.197 607.156,444.951 578.501,445.561C530.751,446.578 530.143,445.054 514.534,452.57C490.038,464.364 452.632,477.665 455.112,486.619C456.549,491.812 466.439,490.062 466.485,490.061Z"/>
                <path d="M628.949,432.88C620.799,432.929 609.418,432.78 595.86,432.793C547.344,432.681 539.677,433.446 544.957,430.236C546.024,429.587 584.428,429.948 587.86,429.981C606.922,430.16 639.474,429.778 640.764,430.293C640.832,430.321 640.899,430.348 640.965,430.375C650.499,430.35 650.831,431.301 651.143,432.555C651.953,435.819 652.859,435.194 657.521,436.416C712.567,450.847 712.776,449.616 734.556,455.289C747.449,458.647 806.645,473.343 807.442,473.648C810.441,474.795 819.553,514.604 819.454,515.494C819.441,515.61 819.398,515.718 819.328,515.819C827.704,516.059 828.717,516.771 829.553,519.871C833.984,536.309 827.364,535.158 818.138,541.062C813.817,543.827 823.236,548.209 818.217,549.025C815.864,549.407 814.191,546.317 813.619,545.682C810.381,542.09 807.235,546.214 805.548,544.954C801.881,542.214 813.327,541.268 822.647,534.438C824.317,532.29 824.511,532.424 824.903,531.102C829.17,516.707 818.777,523.13 802.487,521.449C800.998,521.296 800.167,518.654 801.081,516.978C793.532,516.74 786.405,516.494 785.856,517.685C785.055,519.42 808.413,566.954 808.393,568.491C808.298,575.572 799.602,555.111 796.085,548.729C781.194,521.703 783.489,516.243 759.416,511.995C707.98,502.917 708.394,499.297 687.483,500.23C674.745,500.799 637.039,523.748 630.379,496.53C629.7,493.755 628.967,445.163 628.949,436.508C629.074,434.933 628.995,433.753 628.949,432.88ZM658.05,456.521C658.952,471.573 657.211,472.743 663.676,481.366C665.637,483.982 684.914,482.453 758.5,482.855C759.655,482.861 774.068,485.337 771.322,475.553C769.357,468.552 756.005,469.152 715.523,458.411C697.831,453.716 667.698,447.257 663.523,446.362C655.419,444.624 658.049,456.503 658.05,456.521Z"/>
                <path d="M648.6,619.413C645.176,614.903 647.415,613.249 642.689,610.159C640.282,608.585 637.551,602.437 637.829,600.551C638.943,592.989 632.851,587.027 635.264,581.404C638.816,573.126 634.022,568.111 639.086,563.064C642.136,560.024 640.183,554.376 647.76,547.823C654.567,541.936 652.69,539.856 660.542,535.571C681.824,523.959 697.089,526.911 698.47,527.564C705.915,531.083 709.508,528.986 715.323,532.793C725.294,539.32 727.081,537.309 729.673,542.41C732.282,547.545 733.019,547.047 735.206,548.835C738.697,551.688 740.575,560.479 741.96,562.114C748.02,569.265 745.004,575.67 746.051,579.603C749.055,590.895 742.528,595.623 742.809,600.505C743.083,605.274 742.137,605.059 740.086,609.311C726.782,636.884 690.003,640.293 685.595,637.366C681.461,634.622 681.248,634.051 676.581,635.751C675.081,636.298 663.973,632.861 659.953,629.042C654.526,623.888 653.33,625.316 648.6,619.413ZM660.024,574.392C651.154,624.587 724.589,628.801 723.142,580.514C722.136,546.924 669.641,536.933 660.024,574.392Z"/>
                <path d="M300.366,620.624C298.577,618.216 298.305,618.421 297.482,615.505C295.827,609.641 292.788,611.353 289.2,602.615C288.007,599.71 290.844,599.363 288.829,594.358C283.477,581.066 288.835,580.495 288.087,572.53C287.1,562.027 292.765,561.098 293.263,557.444C293.442,556.132 294.313,549.749 302.704,543.841C305.675,541.749 304.131,539.406 309.379,536.31C314.581,533.242 316.384,533.894 317.415,533.332C325.712,528.809 325.912,529.448 338.578,526.921C347.318,525.177 353.655,530.202 357.446,530.802C358.965,531.043 361.961,531.517 375.317,537.873C380.48,540.331 381.529,545.875 384.447,547.577C390.991,551.393 390.279,556.339 392.831,560.306C398.81,569.603 395.731,570.545 397.759,581.466C398.181,583.736 396.932,592.071 396.118,593.234C393.252,597.328 394.279,597.665 393.74,602.551C393.466,605.043 383.814,620.602 380.599,622.631C371.675,628.26 373.631,632.98 344.517,638.589C334.399,640.539 331.446,634.765 327.604,635.828C321.709,637.459 313.845,631.298 312.95,630.158C307.991,623.843 306.028,626.261 300.366,620.624ZM373.956,581.487C367.942,536.097 313.459,544.301 310.151,579.463C306.295,620.456 371.829,631.362 373.956,581.487Z"/>
                <path d="M288.587,543.113C292.098,537.404 305.558,526.274 300.563,526.147C274.993,525.496 272.594,528.161 271.021,522.612C269.351,516.719 267.667,517.883 261.501,517.863C237.811,517.789 236.983,517.444 234.999,520.799C233.025,524.137 232.436,526.787 229.526,526.909C226.89,527.019 198.111,528.223 196.552,526.451C195.687,525.469 201.349,506.388 203.547,505.629C205.084,505.099 423.355,478.731 425.491,479.522C427.045,480.097 436.137,500.74 445.331,518.585C446.602,521.053 447.792,523.328 448.008,523.74C449.553,526.695 447.693,526.814 447.615,526.927C378.846,527.292 378.75,527.362 378.586,527.579C377.842,528.562 386.967,539.618 378.64,532.244C372.188,526.53 366.387,527.332 355.403,520.693C353.633,519.623 338.596,519.74 335.457,520.225C327.93,521.387 327.238,519.515 321.185,524.079C318.809,525.87 306.779,531.393 301.217,535.725C294.181,541.204 287.523,551.908 281.378,566.083C280.481,567.003 267.921,566.946 262.875,565.77C261.482,565.446 259.448,560.058 263.936,560.735C267.857,561.326 277.903,563.286 279.5,560.399C282.925,554.209 285.177,548.658 288.587,543.113Z"/>
                <g transform="matrix(1,0,0,1,-11.640871,8.574192)">
                    <path d="M563.873,394.502C563.853,389.829 563.744,384.534 564.022,383.38C565.967,375.307 586.236,372.801 586.29,380.505C586.31,383.3 586.523,413.643 586.237,415.45C585.914,417.49 584.963,417.562 560.459,416.966C557.06,416.883 558.396,408.719 560.594,407.784C565.103,405.866 563.835,403.929 563.873,394.502Z"/>
                    <path d="M599.501,416.96C598.795,416.964 591.277,417.014 590.705,416.326C590.089,415.587 589.768,384.641 590.679,383.643C590.75,383.565 595.859,380.327 597.387,381.642C600.196,384.06 598.012,388.526 600.728,390.065C606.366,393.26 606.574,392.722 612.232,395.96C618.216,399.385 616.541,402.156 616.599,409.499C616.603,410.083 616.653,416.291 615.635,416.732C614.01,417.436 600.791,417.002 599.501,416.96Z"/>
                    <path d="M631.957,377.501C632.13,368.491 631.97,368.599 632.072,359.481C632.113,355.802 636.94,352.974 637.924,354.12C638.637,354.95 638.274,409.659 638.242,414.488C638.217,418.149 631.569,416.923 629.491,416.908C623.636,416.867 621.065,418.407 621.071,412.504C621.086,400.146 619.339,398.501 625.733,394.975C631.269,391.923 626.727,389.06 629.812,385.797C632.933,382.497 631.893,382.035 631.957,377.501Z"/>
                    <path d="M651.505,417.144C645.034,417.16 645.076,417.166 644.517,417.161C642.101,417.138 642.221,413.651 642.347,399.5C642.43,390.145 641.256,383.538 644.365,382.208C649.28,380.107 652.062,378.14 651.96,383.503C651.919,385.659 651.594,402.67 651.898,410.463C652.04,414.11 656.874,411.499 657.217,414.532C657.667,418.509 655.517,417.067 651.505,417.144Z"/>
                </g>
                <g transform="matrix(1.214506,0,0,1,-39.072119,0)">
                    <path d="M221.871,549.084C218.015,549.437 208.217,549.03 185.487,548.928C180.477,548.906 182.601,546.428 182.573,541.499C182.554,538.24 181.472,533.362 185.488,533.277C186.052,533.265 191.744,533.146 192.534,533.408C194.904,534.194 193.636,535.049 193.876,540.496C193.971,544.582 193.022,545.023 194.694,546.277C195.921,547.197 223.123,545.783 223.856,547.294C223.918,547.423 223.972,547.544 224.013,547.657C225.337,547.465 226.798,547.659 226.903,547.659C252.342,547.566 252.614,546.459 254.39,548.035C258.437,551.628 248.299,550.779 231.838,550.907C225.609,550.895 222.001,551.193 221.855,549.516C221.842,549.36 221.848,549.216 221.871,549.084Z"/>
                </g>
                <path d="M244.5,534.896C238.006,534.912 230.652,535.531 230.426,533.515C230.388,533.171 230.005,529.74 232.504,529.718C268.655,529.398 270.172,528.446 270.747,531.454C271.549,535.644 268.821,534.915 244.5,534.896Z"/>
                <path d="M252.501,543.92C234.071,543.875 229.616,545.034 230.594,540.523C231.132,538.043 237.187,539.44 267.497,538.91C267.891,538.903 271.969,538.832 270.752,542.599C270.185,544.354 266.085,543.913 252.501,543.92Z"/>
                <path d="M684.039,584.619C684.025,584.439 682.324,578.861 687.689,575.857C691.397,573.782 694.657,575.694 695.174,575.997C705.953,582.32 689.691,598.743 684.039,584.619Z"/>
                <path d="M346.574,588.6C332.069,596.771 331.278,571.443 344.528,575.407C346.254,575.923 354.408,581.57 346.574,588.6Z"/>
            </g>
        </g>
    </g>
</svg>
