<?xml version="1.0" encoding="UTF-8" standalone="no"?>
<!DOCTYPE svg PUBLIC "-//W3C//DTD SVG 1.1//EN" "http://www.w3.org/Graphics/SVG/1.1/DTD/svg11.dtd">
<svg width="100%" height="100%" viewBox="0 0 646 650" version="1.1" xmlns="http://www.w3.org/2000/svg" xmlns:xlink="http://www.w3.org/1999/xlink" xml:space="preserve" xmlns:serif="http://www.serif.com/" style="fill-rule:evenodd;clip-rule:evenodd;stroke-linejoin:round;stroke-miterlimit:2;">
    <g transform="matrix(1,0,0,1,-189.53596,-181.783138)">
        <path d="M461.537,437.086C457.271,436.657 431.827,434.1 408.448,429.778C341.659,417.431 297.232,396.651 283.668,386.271C204.483,325.671 391.149,307.571 404.549,305.781C406.347,305.54 407.247,305.082 406.939,290.501C406.913,289.287 406.943,281.313 406.906,252.497C406.872,225.994 402.962,196.835 430.659,184.881C437.114,182.094 438.668,181.424 518.501,181.946C578.617,182.339 587.895,179.613 601.211,188.925C621.22,202.918 617.869,220.27 618.019,264.501C618.146,302.187 616.92,304.486 620.465,304.812C658.937,308.352 730.543,320.991 751.337,338.694C795.677,376.441 684.473,414.825 623.478,426.381C564.296,437.594 530.444,441.651 461.537,437.086Z"/>
        <path d="M205.904,827.542C205.789,828.202 206.752,833.802 201.782,830.121C187.83,819.785 189.678,814.641 189.64,748.5C189.616,707.952 186.744,690.894 212.869,663.868C216.663,659.942 236.162,637.431 317.573,624.893C321.071,624.354 321.6,624.273 358.642,641.341C362.234,642.997 356.78,642.411 315.371,665.267C261.275,695.126 227.463,705.646 207.255,817.455C206.79,820.029 206.859,819.979 205.904,827.542Z"/>
        <path d="M686.391,652.704C669.329,643.611 668.984,644.327 667.614,643.359C665.323,641.739 676.591,637.454 677.702,636.96C706.057,624.358 706.286,624.461 709.578,625.084C765.283,635.618 792.336,645.327 810.181,661.852C839.718,689.207 835.234,717.163 835.254,745.5C835.302,814.21 836.688,820.389 823.131,830.004C816.878,834.438 821.096,826.561 814.974,801.37C792.326,708.171 776.559,700.584 686.391,652.704Z"/>
        <path d="M550.912,710.014C549.292,705.822 531.509,632.091 529.359,630.718C528.726,630.313 497.573,629.188 496.391,631.432C495.004,634.063 474.958,709.219 474.518,709.528C472.999,710.596 473.267,708.768 461.447,677.52C460.217,674.268 430.277,588.379 421.233,557.582C416.628,541.901 418.156,541.705 417.248,525.43C416.842,518.139 419.064,527.139 427.054,540.758C441.925,566.109 466.183,596.853 481.637,605.265C504.791,617.868 537.338,615.952 559.441,593.443C574.259,578.352 594.222,551.114 606.415,524.405C606.579,524.044 608.51,522.665 608.172,525.52C606.793,537.188 609.342,538.406 606.08,550.387C602.942,561.911 583.748,624.589 555.076,701.339C552,709.571 552.072,710.01 550.912,710.014Z"/>
        <path d="M739.507,595.493C748.575,605.987 748.494,606.979 747.426,607.384C746.286,607.816 734.391,612.323 732.505,610.496C731.991,609.997 729.517,600.649 719.033,582.765C714.585,575.178 707.53,567.179 714.465,572.585C728.329,583.393 737.665,593.499 739.507,595.493Z"/>
        <path d="M292.507,588.508C293.978,587.165 310.064,572.47 311.488,572.401C314.106,572.274 310.354,576.161 307.1,581.246C295.019,600.126 293.063,609.734 292.417,610.441C291.607,611.326 291.3,611.502 277.572,608.291C273.002,607.221 291.076,589.88 292.507,588.508Z"/>
    </g>
</svg>
