<?xml version="1.0" encoding="UTF-8" standalone="no"?>
<!DOCTYPE svg PUBLIC "-//W3C//DTD SVG 1.1//EN" "http://www.w3.org/Graphics/SVG/1.1/DTD/svg11.dtd">
<svg width="100%" height="100%" viewBox="0 0 323 606" version="1.1" xmlns="http://www.w3.org/2000/svg" xmlns:xlink="http://www.w3.org/1999/xlink" xml:space="preserve" xmlns:serif="http://www.serif.com/" style="fill-rule:evenodd;clip-rule:evenodd;stroke-linejoin:round;stroke-miterlimit:2;">
    <g id="Rocker" transform="matrix(1,0,0,1,-354.946848,-208.042231)">
        <path d="M651.875,494.492C652.092,518.106 655.331,519.006 645.183,540.359C632.573,566.894 610.402,618.639 607.468,625.486C603.312,635.186 605.289,635.517 608.244,645.577C630.001,719.641 648.954,773.929 648.297,783.483C647.341,797.383 636.082,812.678 617.499,813.476C614.071,813.623 438.504,813.547 421.5,813.552C411.916,813.556 388.869,816.652 377.908,795.293C370.177,780.231 374.76,778.494 401.969,696.65C416.52,652.881 419.005,652.624 416.257,646.609C378.493,563.952 355.2,516.095 354.948,508.505C354.835,505.079 360.867,482.737 372.754,429.559C379.568,399.073 411.53,410.865 422.534,413.359C482.589,426.967 482.598,427.1 485.273,428.869C505.217,442.051 501.182,472.905 473.537,477.697C442.41,483.092 432.039,483.792 430.921,486.669C429.668,489.897 421.54,510.821 416.612,527.522C416.134,529.142 416.728,529.708 465.242,557.937C467.85,559.455 467.71,559.61 497.679,577.198C503.041,580.345 502.572,576.442 504.128,570.406C517.622,518.07 517.317,514.129 526.803,505.856C532.372,500.999 590.297,469 593.096,465.164C597.189,459.555 596.031,455.005 605.753,384.536C615.675,312.618 623.343,243.445 625.856,237.657C637.202,211.52 681.178,216.229 676.648,254.517C674.015,276.778 651.056,448.608 651.144,458.506C651.286,474.5 651.531,474.4 651.875,494.492Z"/>
        <path d="M425.952,344.494C426.041,348.228 427.041,389.925 426.082,391.174C423.463,394.582 398.994,378.48 377.735,390.914C374.902,392.571 373.198,393.847 373.143,390.529C370.516,230.838 369.02,229.881 374.73,220.647C385.962,202.481 423.634,200.124 424.328,239.503C424.475,247.902 425.882,327.783 425.952,344.494Z"/>
        <path d="M577.961,416.557C575.576,434.591 576.555,457.988 552.568,462.821C535.561,466.248 517.039,452.71 518.961,432.543C519.939,422.28 527.973,369.409 531.198,343.448C534.142,319.751 575.832,310.942 585.203,342.579C587.025,348.73 586.324,350.908 577.961,416.557Z"/>
        <path d="M505.963,354.538C505.636,358.211 503.095,386.781 502.005,400.461C501.528,406.441 502.453,409.494 496.59,408.116C474.584,402.945 474.696,402.95 452.598,398.043C452.095,397.931 446.94,396.787 446.7,395.457C446.588,394.837 451.305,326.829 453.896,319.644C463.087,294.158 503.594,296.866 507.576,325.49C508.168,329.746 506.67,345.377 505.963,354.538Z"/>
    </g>
</svg>
