<?xml version="1.0" encoding="UTF-8" standalone="no"?>
<!DOCTYPE svg PUBLIC "-//W3C//DTD SVG 1.1//EN" "http://www.w3.org/Graphics/SVG/1.1/DTD/svg11.dtd">
<svg width="100%" height="100%" viewBox="0 0 405 396" version="1.1" xmlns="http://www.w3.org/2000/svg" xmlns:xlink="http://www.w3.org/1999/xlink" xml:space="preserve" xmlns:serif="http://www.serif.com/" style="fill-rule:evenodd;clip-rule:evenodd;stroke-linejoin:round;stroke-miterlimit:2;">
    <g id="Solo" transform="matrix(1,0,0,0.968182,0,11.618181)">
        <rect x="0" y="-12" width="404.486" height="408.571" style="fill:none;"/>
        <clipPath id="_clip1">
            <rect x="0" y="-12" width="404.486" height="408.571"/>
        </clipPath>
        <g clip-path="url(#_clip1)">
            <g id="Solo1" serif:id="Solo" transform="matrix(1,0,0,1.032864,-315.337703,-245.359237)">
                <g>
                    <path d="M542.53,486.321C544.467,487.512 544.021,491.754 549.023,496.722C548.541,496.799 548.88,497.969 548.398,498.046C547.422,498.202 546.497,497.501 545.533,497.28C540.083,496.029 527.784,496.171 522.73,498.901C522.603,498.969 516.092,506.015 518.78,497.575C519.352,495.781 520.856,491.057 539.422,486.257C539.63,486.203 539.826,486.158 540.013,486.121C539.963,485.627 539.989,484.835 539.846,483.449C539.8,483.001 537.966,478.187 540.912,475.886C545.42,472.366 545.384,472.435 548.888,467.805C551.328,464.579 552.61,466.577 555.632,465.976C561.476,464.813 553.129,458.636 547.731,464.69C544.133,468.726 543.548,471.815 535.811,467.006C531.908,464.579 532.959,463.336 535.946,459.93C539.561,455.81 546.36,462.162 548.11,458.316C549.8,454.602 551.282,451.345 572.95,413.769C576.608,407.426 586.613,418.833 592.466,412.469C594.232,410.548 609.6,383.993 610.397,382.449C613.237,376.944 612.457,368.076 604.342,368.769C602.987,368.143 602.973,368.181 602.879,368.093C601.167,366.492 602.628,365.815 658.956,266.761C673.905,240.473 675.93,239.321 673.507,238.562C673.09,238.432 673.178,238.61 669.265,242.114C666.288,244.78 666.705,241.721 666.78,241.586C674.425,227.85 675.157,227.818 676.508,227.758C677.376,227.72 684.691,227.397 687.32,228.84C704.663,238.36 705.179,237.407 706.462,238.548C708.842,240.665 697.305,254.146 685.88,272.726C677.4,286.516 684.998,290.577 681.264,295.33C676.516,301.373 664.012,325.741 659.557,333.533C609.233,421.545 610.131,422.018 605.589,429.571C603.826,432.502 586.666,419.208 584.47,419.279C577.55,419.502 602.106,430.901 603.064,433.535C605.569,440.425 584.309,424.522 582.546,424.215C573.137,422.575 599.665,436.729 600.424,438.507C603.548,445.818 582.1,429.742 579.429,428.856C568.014,425.071 597.251,442.287 597.575,443.488C599.329,449.98 579.373,434.398 576.468,433.72C566.154,431.315 594.879,446.525 594.965,448.532C595.189,453.767 576.119,438.39 573.497,438.477C567.11,438.691 591.706,451.086 592.184,452.59C594.309,459.279 577.953,446.562 571.544,443.357C570.855,443.013 568.271,444.096 571.732,446.134C572.895,446.819 583.478,453.05 586.134,454.928C591.207,458.518 587.884,459.591 587.503,459.536C586.088,459.332 575.823,452.654 574.835,452.011C574.448,451.759 548.078,436.934 569.158,450.989C577.447,456.516 586.628,461.334 586.768,462.51C587.514,468.789 567.149,451.72 564.701,452.914C560.944,454.746 583.796,464.696 583.792,467.538C583.784,472.505 564.508,457.55 562.501,457.543C554.42,457.514 581.569,469.433 580.828,472.576C580.527,473.853 564.657,501.517 564.164,502.29C558.385,511.368 544.381,479.779 543.462,478.551C542.99,478.539 542.949,477.545 542.477,477.533L541.745,479.437C543.113,483.426 543.035,485.386 542.53,486.321Z"/>
                    <path d="M644.247,493.633C655.461,486.789 666.352,480.537 670.154,494.586C671.681,500.226 669.848,505.638 672.24,513.434C671.931,513.697 673.146,514.235 672.836,514.498C672.682,514.629 672.676,514.416 670.592,513.338C665.307,507.96 671.116,492.056 664.538,497.545C661.894,499.751 661.491,498.849 658.399,500.275C651.593,503.412 651.824,503.931 644.361,505.21C641.515,505.697 646.839,509.403 647.783,510.127C654.711,515.441 679.37,514.237 685.089,523.771C687.878,528.421 685.557,543.013 685.417,543.448C682.946,551.1 684.156,541.456 683.714,533.48C683.092,522.231 677.591,529.861 673.642,534.617C667.195,542.381 676.517,544.44 681.982,551.07C683.465,552.869 688.958,550.156 687.855,553.57C687.307,555.265 686.449,556.644 685.413,557.738C686.94,558.987 687.819,561.055 686.313,562.358C665.803,580.111 658.482,601.624 635.53,610.254L634.862,608.833C663.234,591.015 661.361,586.935 678.536,561.117C673.871,561.632 670.251,558.955 674.858,554.83C678.626,551.456 673.973,551.49 670.729,552.951C666.469,554.871 665.506,554.091 664.271,549.556C661.955,541.051 659.048,543.382 650.42,545.05C640.327,547.001 648.76,533.162 646.222,524.609C645.541,522.314 638.683,526.922 636.326,528.155C619.512,536.948 644.032,516.809 642.632,512.448C640.596,506.105 633.472,512.932 623.419,510.82C615.047,509.061 615.119,520.313 610.932,516.046C603.925,508.905 603.426,508.454 604.325,498.482C606.033,479.55 613.217,479.577 621.127,468.248C620.981,467.87 616.888,465.165 615.772,461.361C614.107,464.576 613.818,465.481 612.962,466.81C607.799,474.822 608.192,475.062 607.488,475.484C604.412,477.328 606.953,470.972 608.28,466.446C608.549,464.982 608.778,463.573 608.931,462.256C605.428,462.959 600.467,462.976 598.495,461.506C596.747,460.202 594.285,459.677 582.178,483.345C578.42,490.693 573.289,509.739 578.83,500.807C580.827,497.587 583.789,495.723 582.996,499.479C582.875,500.055 582.735,506.152 580.442,508.446C579.962,508.927 579.994,508.887 574.39,514.392C551.991,537.215 564.172,551.611 568.085,577.572C571.112,597.65 561.709,596.37 562.435,604.505C563.613,617.694 572.789,622.67 567.523,621.28C565.717,620.803 553.4,604.803 555.715,600.609C560.294,592.315 570.556,592.864 560.507,560.498C552.612,535.07 555.783,534.313 565.362,509.446C568.617,500.996 588.012,467.538 592.774,460.673C595.006,457.455 596.425,454.418 598.422,455.679C600.053,456.709 605.306,456.506 608.996,457.172C608.651,454.955 607.619,453.521 605.457,453.327C602.944,453.102 603.534,452.062 601.474,450.702C599.632,452.566 599.679,452.599 599.485,452.715C599.263,452.849 597.77,452.804 599.377,449.479C600.222,447.726 648.366,359.205 649.445,358.429C653.38,355.595 652.494,354.9 654.73,350.623C666.062,328.953 666.558,329.305 680.749,302.635C683.612,297.255 684.883,302.274 689.487,303.543C695.842,305.294 690.569,308.144 670.089,345.264C645.913,389.084 637.04,394.191 639.361,414.513C640.009,420.194 640.152,420.367 637.117,425.255C628.688,438.83 623.469,447.598 620.142,453.413C620.782,453.799 620.938,454.839 620.417,455.434C620.231,455.647 620.07,455.395 617.826,457.838C614.96,460.958 623.079,465.409 623.61,466.687C628.981,461.789 629.348,459.337 647.47,456.316C650.794,455.761 664.53,454.803 661.325,461.417C653.579,477.402 634.935,461.749 635.325,468.511C635.445,470.589 641.023,471.82 636.42,475.402C625.624,483.805 619.372,476.692 614.592,489.535C608.756,505.212 618.543,502.847 625.484,502.316C629.548,502.005 634.319,499.567 639.223,496.674C643.887,492.31 650.578,482.613 654.783,477.729C657.967,472.985 657.994,473.074 661.162,468.263C674.409,448.14 665.01,430.551 643.506,433.289C637.029,434.114 648.402,430.535 647.566,420.504C647.211,419.476 647.25,419.55 646.868,418.488C643.912,410.26 649.08,418.625 649.156,418.793C656.713,434.2 668.013,437.344 672.339,439.797C673.454,440.429 674.578,441.066 669.815,455.614C663.875,473.756 651.637,487.165 644.247,493.633Z"/>
                    <path d="M688.893,281.489C689.207,278.347 688.768,278.334 689.943,275.7C691.204,272.875 708.223,246.723 708.881,245.869C710.662,243.556 719.704,250.242 719.822,251.462C720.044,253.754 697.109,293.622 695.033,297.232C689.939,306.088 684.329,296.826 686.512,291.506C688.503,286.653 688.828,286.731 688.893,281.489Z"/>
                    <path d="M604.546,370.519C606.592,370.83 606.89,370.218 608.106,371.851C608.387,372.228 609.976,374.361 609.675,377.522C609.409,380.315 592.424,411.795 588.467,412.101C588.013,412.136 583.876,412.456 582.808,411.43C580.71,409.414 601.345,376.841 604.546,370.519Z"/>
                </g>
                <g>
                    <path d="M492.508,485.505C492.102,480.218 492.196,479.041 492.241,478.481C493.885,457.902 484.543,498.078 474.455,500.117C472.52,500.508 455.853,469.664 455.874,469.472C456.057,467.799 475.265,456.794 475.577,455.526C477.055,449.516 456.382,467.597 453.672,466.247C449.42,464.13 472.252,452.4 472.584,450.52C473.555,445.028 454.12,462.093 451.351,461.843C444.758,461.248 468.403,447.434 469.393,446.404C479.302,436.088 449.587,457.888 448.264,456.826C443.835,453.27 467.197,443.353 466.812,440.349C466.368,436.884 447.888,452.381 445.696,452.099C439.483,451.299 462.809,437.945 463.644,436.593C466.362,432.186 459.87,436.481 459.6,436.659C448.26,444.161 442.371,449.616 441.906,445.393C441.72,443.7 460.222,433.437 461.235,431.4C464.34,425.15 442.928,442.33 440.565,442.08C433.983,441.385 458.121,428.355 458.572,426.524C460.065,420.472 440.235,438.288 437.465,437.573C430.895,435.878 455.37,423.98 455.621,421.515C456.1,416.816 437.886,432.265 435.49,432.624C424.68,434.243 452.708,417.951 452.833,416.534C453.343,410.749 433.584,430.062 431.03,426.951C429.738,425.378 416.237,401.448 414.978,399.215C360.461,302.581 352.205,292.814 352.822,289.564C355.706,274.384 340.585,261.142 326.777,239.374C325.671,237.63 327.292,237.888 336.349,233.204C345.456,228.493 344.606,225.899 357.527,224.939C360.659,224.707 364.049,232.616 364.935,234.279C372.022,247.586 360.674,235.491 360.539,235.405C355.452,232.147 360.293,237.346 363.184,242.658C374.893,264.171 394.348,295.35 420.957,341.248C430.503,357.712 433.961,359.503 429.275,362.333C427.776,362.705 427.775,362.673 427.656,362.734C414.017,369.789 430.605,388.931 439.87,404.257C446.374,415.015 455.069,405.109 458.508,405.278C461.177,405.41 481.275,441.83 486.882,450.224C489.27,453.797 495.305,447.506 498.519,450.481C504.174,455.715 499.756,457.392 495.265,461.209C490.635,465.143 490.635,453.115 479.486,457.473C477.126,458.395 478.253,461.322 480.486,460.454C484.776,458.788 484.985,459.605 488.361,462.656C499.404,472.638 494.047,476.063 494.498,482.5C494.553,483.281 495.412,483.86 495.467,484.641C502.052,485.977 502.097,485.587 508.397,487.803C517.82,491.118 517.033,497.984 514.576,497.205C512.663,496.599 500.365,492.701 489.526,495.985C485.435,497.225 488.756,494.03 492.508,485.505Z"/>
                    <path d="M352.416,550.423C351.514,548.539 351.001,546.452 353.455,546.875C357.806,547.625 357.715,546.777 361.115,544.03C371.576,535.581 366.912,532.205 361.281,524.664C359.237,521.926 357.406,522.463 356.906,525.569C355.648,533.374 356.745,546.167 354.494,539.503C354.379,539.163 352.197,525.606 353.154,522.405C357.078,509.284 384.207,510.109 388.413,507.363C388.908,507.039 396.668,501.971 392.579,501.25C376.419,498.4 369.114,483.612 369.409,497.499C369.507,502.121 370.078,510.486 365.95,508.48C367.849,496.655 364.559,480.967 378.504,481.289C380.198,481.328 383.951,483.246 388.638,485.783C381.943,479.637 371.49,467.749 366.371,452.546C361.746,438.806 362.827,438.076 364.767,436.962C383,426.483 381.915,423.88 387.624,414.662C387.959,414.643 388.164,414.183 388.5,414.164C391.074,414.016 385.004,419.361 390.775,426.292C396.501,433.168 386.42,427.467 378.733,431.947C355.171,445.682 386.223,482.539 392.229,487.738C403.354,493.796 417.645,501.349 423.27,497.144C427.474,494.001 421.434,479.765 417.26,477.964C411.399,475.436 395.212,471.352 401.465,465.469C407.542,459.751 387.889,466.698 384.478,465.583C383.458,465.249 374.21,462.225 375.601,455.526C376.156,452.852 380.35,453.964 382.303,453.071C385.448,451.632 389.996,451.397 406.557,455.357C409.985,456.177 418.533,458.59 424.71,464.215C420.768,458.09 415.637,448.085 407.141,434.727C396.513,418.017 395.852,418.031 396.296,415.466C400.252,392.621 394.811,392.737 355.96,327.222C344.226,307.433 341.587,305.906 345.638,303.713C348.831,301.984 348.7,301.916 351.633,299.765C354.119,297.94 354.035,300.817 405.815,390.314C408.132,394.319 433.854,438.777 434.699,440.42C435.589,442.152 434.002,442.114 431.96,442.665C432.586,443.05 433.181,443.403 433.579,443.479C437.387,444.204 437.021,444.95 438.944,448.325C440.184,450.502 440.652,450.207 454.957,475.237C455.761,476.644 455.931,476.515 465.198,492.709C466.298,494.633 465.76,494.847 477.155,517.701C484.017,531.464 476.845,537.972 470.453,571.45C470.422,571.609 468.02,577.515 468.433,571.529C470.013,548.642 483.519,528.955 463.149,507.915C457.457,502.036 451.524,499.09 451.903,490.524C451.92,490.146 453.628,486.138 456.214,491.736C456.356,492.044 459.298,498.413 459.441,494.478C459.481,493.375 446.047,453.54 430.567,445.533L429.439,446.338C428.013,447.088 427.265,447.129 426.959,446.776C425.429,450.046 425.936,453.886 425.972,455.434C428.621,467.449 435.102,474.587 429.331,469.941C429.053,469.718 428.774,469.465 428.491,469.184C430.895,474.492 430.534,481.441 431.173,484.56C433.927,497.99 436.273,499.16 428.005,510.122C423.495,516.1 420.69,504.754 416.495,505.472C403.092,507.767 401.729,501.975 396.691,506.714C392.287,510.856 414.751,529.663 405.515,525.443C400.295,523.057 392.295,517.204 391.713,520.567C390.499,527.581 392.136,527.466 392.783,532.462C392.882,533.228 394.159,543.094 388.612,541.173C385.825,540.208 379.054,536.365 375.741,541.637C375.432,542.128 373.642,552.171 368.678,550.015C368.317,549.858 360.29,546.372 363.767,550.323C364.103,550.704 367.826,554.935 366.92,555.84C366.371,556.389 362.795,557.082 359.377,556.38C360.764,558.481 362.497,561.19 364.723,564.632C387.861,600.613 404.418,599.762 400.867,602.376C400.65,602.536 387.631,600.09 365.318,571.163C353.166,555.408 346.149,555.105 352.048,550.682C352.175,550.588 352.297,550.501 352.416,550.423Z"/>
                    <path d="M349.179,291.648C349.428,292.383 352.107,300.291 345.491,300.613C342.456,300.76 342.772,299.413 322.076,263.742C315.718,252.784 312.976,251.468 317.77,247.859C318.285,247.471 323.751,243.356 325.221,244.794C325.568,245.133 340.804,267.741 342.152,269.741C349.523,280.679 344.249,282.522 347.453,288.526C347.587,288.777 347.581,288.757 349.179,291.648Z"/>
                    <path d="M430.434,364.554C432.383,367.681 454.164,402.633 453.344,404.508C453.085,405.1 445.903,409.75 442.601,404.428C432.982,388.93 417.287,370.026 428.571,364.787C429.478,364.365 429.449,364.677 430.434,364.554Z"/>
                </g>
            </g>
        </g>
    </g>
</svg>
