<?xml version="1.0" encoding="UTF-8" standalone="no"?>
<!DOCTYPE svg PUBLIC "-//W3C//DTD SVG 1.1//EN" "http://www.w3.org/Graphics/SVG/1.1/DTD/svg11.dtd">
<svg width="100%" height="100%" viewBox="0 0 154 154" version="1.1" xmlns="http://www.w3.org/2000/svg" xmlns:xlink="http://www.w3.org/1999/xlink" xml:space="preserve" xmlns:serif="http://www.serif.com/" style="fill-rule:evenodd;clip-rule:evenodd;stroke-linejoin:round;stroke-miterlimit:2;">
    <g transform="matrix(1,0,0,1,-1030,-522)">
        <g id="bk_Death_Save" transform="matrix(4.166667,0,0,4.166667,1030.352977,522.410425)">
            <rect x="0" y="0" width="36.85" height="36.85" style="fill:none;"/>
            <g id="bk_Death_Save1" serif:id="bk_Death_Save">
                <g transform="matrix(0.210705,0,0,0.210705,-143.16316,-34.147377)">
                    <path d="M802.483,193.284L766.894,172.736L731.264,193.307L728.718,188.897L703.977,203.182L706.523,207.591L700.407,211.122L700.407,287.894L707.376,291.917L703.977,297.805L728.718,312.089L732.117,306.202L737.802,309.483L737.802,321.706L695.115,297.06C691.84,295.17 689.823,291.675 689.823,287.894L689.823,211.122C689.823,207.341 691.84,203.846 695.115,201.955L761.601,163.57C764.876,161.679 768.911,161.679 772.186,163.57L838.672,201.955C841.947,203.846 843.965,207.341 843.965,211.122L843.965,287.894C843.965,291.675 841.947,295.17 838.672,297.06L795.985,321.706L795.985,309.483L801.629,306.225L805.015,312.089L829.756,297.805L826.37,291.941L833.38,287.894L833.38,211.122L827.224,207.568L829.756,203.182L805.015,188.897L802.483,193.284Z" style="fill:white;"/>
                </g>
                <g transform="matrix(0.043717,0,0,0.043717,-3.901781,1.308436)">
                    <g id="Background">
                        <path d="M349.521,651.324C331.853,649.102 295.423,662.195 287.519,662.068C273.291,661.841 255.792,648.097 242.881,621.314C226.826,588.009 224.269,556.438 225.898,550.642C226.796,547.445 235.316,550.693 246.528,547.587C267.52,541.77 260.92,505.547 263.247,491.461C266.907,469.301 271.538,462.037 272.962,459.803C274.716,457.05 281.33,446.675 289.54,422.513C295.981,403.557 292.595,378.692 292.553,378.49C291.457,373.213 279.931,351.538 283.889,333.589C285.247,327.431 287.787,327.662 287.539,291.49C287.251,291.743 286.752,291.646 286.464,291.898C285.433,292.801 285.839,299.822 285.778,299.958C285.531,300.509 284.325,300.034 284.078,300.585C283.917,297.479 283.976,297.538 283.88,294.449C283.126,270.328 273.589,252.468 272.556,252.014C268.329,250.156 278.418,263.836 280.567,283.495C282.987,305.635 274.036,342.79 276.116,366.538C276.893,375.407 282.195,374.708 281.365,400.497C280.054,441.23 273.574,448.898 267.234,464.396C254.566,495.361 256.207,537.968 248.19,543.005C245.839,544.481 245.434,536.926 244.673,533.462C239.254,508.773 235.703,509.104 235.668,461.501C235.647,432.853 227.158,414.32 223.716,376.478C219.307,328.003 238.599,229.261 298.458,164.462C350.239,108.407 416.755,94.508 445.552,89.79C487.539,82.912 509.793,80.976 547.546,85.06C595.885,90.29 646.557,113.032 669.624,126.286C690.754,138.426 690.97,137.989 692.72,139.179C729.777,164.38 750.434,189.114 751.089,189.854C798.513,243.406 795.327,306.411 794.94,368.507C794.735,401.429 807.251,428.786 785.303,492.431C774.786,522.929 772.366,544.725 768.769,555.605C768.005,557.913 769.179,557.704 771.565,558.098C782.752,559.944 786.388,557.101 789.463,560.533C797.023,568.97 786.101,613.608 754.826,642.852C736.603,659.891 676.579,654.881 672.429,656.283C669.942,657.123 658.799,662.236 657.623,662.776C650.618,665.99 629.237,680.904 628.722,714.506C628.428,733.624 633.774,749.998 627.496,749.646C624.79,749.494 623.408,748.774 623.748,751.478C624.04,753.796 626.511,773.433 621.583,780.599C620.972,781.488 619.283,781.223 619.645,779.518C619.881,778.406 623.29,770.008 619.046,753.618C618.15,750.16 618.092,748.98 614.594,749.799C610.987,750.644 617.95,754.041 616.9,769.524C616.855,770.195 617.456,782.567 606.446,780.807C599.27,779.66 604.889,770.296 602.124,758.594C601.221,754.773 598.4,750.432 597.776,749.435C597.585,749.183 597.787,748.754 597.596,748.502C597.467,748.331 597.43,748.396 595.344,747.062C589.045,750.376 597.825,754.922 598.201,771.506C598.4,780.264 590.852,780.506 578.517,780.108C567.313,779.746 572.247,774.057 572.771,758.511C573.007,751.525 572.561,750.912 574.336,746.433C575.373,743.818 572.543,743.103 571.495,745.498C568.569,752.189 564.587,747.068 554.394,741.65C550.066,739.35 549.888,738.333 545.383,740.198C541.356,741.865 538.08,741.046 537.463,740.892L536.535,742.491C536.52,742.85 536.694,742.765 538.792,746.372C540.66,748.134 540.753,748.022 541.853,750.387C542.208,751.971 542.234,751.921 542.545,753.472C542.598,753.736 542.874,754.017 542.748,754.256C542.467,754.785 541.744,754.982 541.463,755.511C542.15,760.011 542.692,760.332 541.168,767.36C541.199,767.413 542.46,767.782 542.299,769.36C542.234,769.991 542.283,769.983 542.266,770.034C538.106,782.61 531.965,784.831 531.75,784.952C522.488,789.179 503.563,787.325 506.844,757.544C507.051,755.672 508.186,745.367 519.88,737.936C522.997,735.955 520.758,735.394 520.548,735.359C516.033,734.618 508.247,749.892 502.411,738.55C495.634,725.377 482.213,734.995 476.58,736.736C464.402,740.498 462.856,741.521 459.568,740.254C453.249,737.82 452.831,734.631 444.212,739.384L444.415,740.874C446.332,740.284 446.322,740.295 446.485,740.237C447.041,740.041 446.948,739.969 447.457,739.794C452.756,737.974 462.194,742.43 461.441,751.487C459.66,772.893 447.015,782.045 444.658,783.75C443.367,784.471 432.412,790.587 426.412,786.617C416.479,780.045 422.042,766.867 426.839,750.596C429.673,740.984 433.787,741.882 438.067,740.155L437.5,739.5L436.406,738.765C419.308,737.048 419.577,740.145 410.433,742.021C405.597,743.012 391.776,742.193 393.239,727.469C397.026,689.353 377.898,654.893 349.521,651.324ZM326.548,596.96C320.724,597.358 320.362,597.954 308.603,594.187C297.371,590.588 294.498,585.291 289.551,581.443C283.631,576.838 280.417,572.622 273.968,555.175C273.637,554.279 273.602,548.577 272.492,548.53C268.217,548.347 276.375,571.716 283.901,579.109C298.206,593.162 302.204,595.454 317.569,599.252C324.443,600.951 330.878,598.455 345.549,595.694C351.446,594.584 355.257,594.11 354.271,592.684C353.146,591.059 336.755,595.509 326.548,596.96ZM726.798,358.445C726.335,348.874 724.108,345.305 719.003,331.704C713.717,317.619 716.797,315.131 715.664,312.377C715.575,312.162 713.758,310.616 713.719,314.539C713.602,326.315 714.833,327.147 717.017,333.644C726.834,362.835 709.924,373.488 711.509,390.499C713.321,409.949 725.431,416.216 731.76,436.423C736.47,451.463 732.849,452.73 740.8,466.333C749.929,481.952 744.424,521.517 752.907,542.321C756.044,550.016 766.828,561.457 763.452,553.511C755.82,535.551 761.912,528.148 763.501,499.5C766.476,445.838 723.913,447.209 729.307,405.474C731.679,387.121 732.269,372.071 733.678,363.519C733.858,362.423 735.568,352.04 734.235,349.639C731.81,345.269 732.783,350.847 732.337,356.468C731.77,363.628 731.044,363.455 730.292,364.807L729.837,363.292C726.485,362.817 726.971,361.805 726.798,358.445ZM543.455,480.825C537.606,479.653 533.693,478.469 522.696,472.154C514.021,467.173 511.697,463.517 509.348,461.693C506.284,459.314 492.921,468.759 472.393,474.067C436.138,483.441 405.241,455.652 371.394,443.799C354.348,437.829 331.316,440.816 320.423,445.317C296.121,455.359 296.519,471.952 297.285,484.513C298.789,509.168 297.685,518.484 298.048,531.513C299.065,567.984 335.925,578.049 363.556,572.793C367.713,572.002 383.974,568.909 414.44,558.328C440.057,549.431 453.074,546.926 461.849,536.809C486.023,508.935 475.424,482.024 478.661,478.643C480.563,476.657 505.822,464.565 506.492,464.452C510.864,463.72 522.852,485.807 543.521,489.359C548.733,490.255 547.369,493.127 550.646,503.452C551.541,506.271 557.053,519.031 557.804,520.33C559.043,522.471 565.48,533.599 579.756,542.09C607.213,558.421 623.257,562.236 663.488,560.271C718.883,557.567 717.474,527.137 715.459,510.505C712.636,487.207 716.813,480.744 715.91,467.459C715.231,457.478 705.056,449.163 697.505,446.487C674.567,438.358 653.884,447.135 651.337,448.002C608.717,462.505 586.107,490.131 558.485,485.591C550.626,484.3 551.372,481.648 543.455,480.825ZM517.532,538.472C517.191,538.103 514.172,534.447 511.515,533.461C501.515,529.747 503.483,551.54 499.236,544.711C490.145,530.093 478.441,553.083 474.598,566.528C472.437,574.091 476.256,575.144 469.194,589.342C462.856,602.085 436.372,621.678 456.337,648.614C465.024,660.335 465.337,661.018 479.572,664.074C482.709,664.748 483.929,663.371 487.057,656.304C491.837,645.505 500.691,612.312 505.755,608.972C505.934,608.854 507.859,608.211 506.609,611.513C505.616,614.136 504.584,616.863 509.89,646.427C512.393,660.369 525.85,676.998 547.541,657.547C579.065,629.28 542.707,588.735 538.944,583.188C520.721,556.33 523.015,554.598 522.991,554.425C521.81,545.837 522.886,545.274 517.532,538.472Z" style="fill:white;"/>
                        <path d="M497.012,743.761L497.525,744.482C497.916,745.069 497.878,745.048 498.3,745.647C498.463,745.878 500.087,748.185 500.5,748.41C500.854,748.602 501.354,748.175 501.707,748.367C503.013,752.023 503.025,752.435 503.136,759.507C503.265,767.687 502.064,775.217 501.848,776.568C500.055,787.811 475.037,785.151 470.364,782.792C463.495,779.324 460.011,775.962 460.914,766.534C461.663,758.715 469.431,745.027 470.85,743.995C474.002,741.703 475.888,745.358 484.694,737.741C493.011,730.547 495.239,737.698 497.909,742.5C497.61,742.92 497.311,743.341 497.012,743.761Z" style="fill:white;"/>
                        <path d="M438.067,740.155C440.995,741.969 441.182,742.038 444.415,740.874C446.332,740.284 446.322,740.295 446.485,740.237C447.041,740.041 446.948,739.969 447.457,739.794C452.756,737.974 462.194,742.43 461.441,751.487C459.66,772.893 447.015,782.045 444.658,783.75C443.367,784.471 432.412,790.587 426.412,786.617C416.479,780.045 422.042,766.867 426.839,750.596C429.673,740.984 433.787,741.882 438.067,740.155Z" style="fill:white;"/>
                        <path d="M417.037,772.484C416.799,775.661 416.945,781.054 415.508,781.104C414.024,781.155 411.995,776.18 408.474,775.705C406.402,775.425 393.919,774.701 392.136,770.669C389.005,763.589 394.998,748.264 404.388,746.032C419.857,742.354 426.453,738.25 424.789,743.582C421.297,754.775 417.996,758.066 417.037,772.484Z" style="fill:white;"/>
                        <path d="M562.508,749.494C562.507,749.523 561.905,750.392 562.485,751.505C564.217,754.83 565.214,754.682 565.532,766.499C565.665,771.427 564.035,771.866 566.713,775.511C565.862,778.824 564.805,783.949 554.443,781.761C542.277,779.191 543.118,774.58 543.317,773.489C546.284,757.208 542.468,756.588 546.338,746.427C547.183,744.21 551.893,740.028 562.508,749.494Z" style="fill:white;"/>
                    </g>
                </g>
            </g>
        </g>
    </g>
</svg>
