<?xml version="1.0" encoding="UTF-8" standalone="no"?>
<!DOCTYPE svg PUBLIC "-//W3C//DTD SVG 1.1//EN" "http://www.w3.org/Graphics/SVG/1.1/DTD/svg11.dtd">
<svg width="100%" height="100%" viewBox="0 0 154 155" version="1.1" xmlns="http://www.w3.org/2000/svg" xmlns:xlink="http://www.w3.org/1999/xlink" xml:space="preserve" xmlns:serif="http://www.serif.com/" style="fill-rule:evenodd;clip-rule:evenodd;stroke-linejoin:round;stroke-miterlimit:2;">
    <g transform="matrix(1,0,0,1,-1539,-346)">
        <g id="bk_d10" transform="matrix(4.166667,0,0,4.166667,1539.12932,346.569736)">
            <rect x="0" y="0" width="36.85" height="36.85" style="fill:none;"/>
            <g id="bk_d101" serif:id="bk_d10">
                <g transform="matrix(0.210705,0,0,0.210705,-143.16316,-34.147377)">
                    <path d="M700.837,300.364L695.115,297.06C691.84,295.17 689.823,291.675 689.823,287.894L689.823,211.122C689.823,207.341 691.84,203.846 695.115,201.955L706.638,195.303L706.638,207.525L700.407,211.122L700.407,287.894L706.13,291.197L700.837,300.364ZM713.489,295.446L720.347,299.406L715.055,308.573L708.196,304.613L713.489,295.446ZM727.706,303.655L734.564,307.614L729.272,316.781L722.414,312.821L727.706,303.655ZM741.923,311.863L748.782,315.823L743.49,324.989L736.631,321.03L741.923,311.863ZM756.141,320.071L766.894,326.28L776.979,320.457L782.272,329.623L772.186,335.446C768.911,337.337 764.876,337.337 761.601,335.446L750.848,329.238L756.141,320.071ZM782.825,317.081L788.274,313.936L793.566,323.102L788.118,326.248L782.825,317.081ZM794.12,310.561L799.568,307.415L804.861,316.582L799.412,319.727L794.12,310.561ZM805.414,304.04L833.38,287.894L833.38,279.383L843.965,279.383L843.965,287.894C843.965,291.675 841.947,295.17 838.672,297.06L810.707,313.206L805.414,304.04Z" style="fill:white;"/>
                </g>
                <g id="d10" transform="matrix(0.986653,-0.162838,0.162838,0.986653,-1.486181,1.828465)">
                    <g transform="matrix(-0.054346,-0.001518,-0.001518,0.054346,8.612561,7.915445)">
                        <path d="M-423.514,-95.084L-58.403,-95.084L-0.989,-6.186L-99.026,13.379L-423.514,-95.084Z" style="fill:white;fill-rule:nonzero;"/>
                    </g>
                    <g transform="matrix(-0.020074,0.050526,0.050526,0.020074,38.485789,22.813536)">
                        <path d="M-283.391,-237.143L75.978,-237.143L144.623,-151.239L51.792,-92.935L-283.391,-237.143Z" style="fill:white;fill-rule:nonzero;"/>
                    </g>
                    <g transform="matrix(-0.051748,0.016673,0.016673,0.051748,17.434882,23.829328)">
                        <path d="M-369.238,-273.394L-26.438,-273.394L-38.908,-121.885L-136.424,-0.219L-369.238,-273.394Z" style="fill:white;fill-rule:nonzero;"/>
                    </g>
                    <g transform="matrix(0.002531,0.054309,0.054309,-0.002531,21.356513,12.278049)">
                        <path d="M-90.626,-235.18L239.86,-235.18L85.673,-87.458L-63.009,-138.284L-90.626,-235.18Z" style="fill:white;fill-rule:nonzero;"/>
                    </g>
                    <g transform="matrix(-0.054282,-0.003039,-0.003039,0.054282,9.723077,17.003768)">
                        <path d="M-336.826,170.707L-4.255,170.707L-139.87,1.323L-277.725,78.353L-336.826,170.707Z" style="fill:white;fill-rule:nonzero;"/>
                    </g>
                </g>
            </g>
        </g>
    </g>
</svg>
