<?xml version="1.0" encoding="UTF-8" standalone="no"?>
<!DOCTYPE svg PUBLIC "-//W3C//DTD SVG 1.1//EN" "http://www.w3.org/Graphics/SVG/1.1/DTD/svg11.dtd">
<svg width="100%" height="100%" viewBox="0 0 155 154" version="1.1" xmlns="http://www.w3.org/2000/svg" xmlns:xlink="http://www.w3.org/1999/xlink" xml:space="preserve" xmlns:serif="http://www.serif.com/" style="fill-rule:evenodd;clip-rule:evenodd;stroke-linejoin:round;stroke-miterlimit:2;">
    <g transform="matrix(1,0,0,1,-172,-515)">
        <g id="wt_INT" transform="matrix(4.166667,0,0,4.166667,172.73625,515.120605)">
            <rect x="0" y="0" width="36.85" height="36.85" style="fill:none;"/>
            <g id="wt_INT1" serif:id="wt_INT">
                <g transform="matrix(1,0,0,1,13.8809,12.524)">
                    <path d="M0,12.965C-1.228,13.237 -2.298,12.167 -2.026,10.939C-1.889,10.32 -1.389,9.82 -0.771,9.683C0.458,9.411 1.528,10.481 1.256,11.709C1.118,12.328 0.619,12.828 0,12.965M-2.026,2.026C-2.298,0.798 -1.228,-0.272 0,-0C0.619,0.137 1.118,0.637 1.256,1.256C1.528,2.484 0.458,3.554 -0.771,3.282C-1.389,3.145 -1.889,2.645 -2.026,2.026M0.805,8.441L0.805,4.523C0.805,4.172 0.958,3.836 1.23,3.613C1.805,3.143 2.17,2.426 2.165,1.624C2.156,0.273 1.045,-0.867 -0.305,-0.908C-1.75,-0.952 -2.935,0.206 -2.935,1.641C-2.935,2.426 -2.58,3.128 -2.022,3.596C-1.744,3.828 -1.575,4.163 -1.575,4.524L-1.575,8.442C-1.575,8.793 -1.728,9.129 -2,9.352C-2.575,9.822 -2.941,10.539 -2.935,11.342C-2.926,12.692 -1.815,13.832 -0.465,13.873C0.98,13.917 2.165,12.759 2.165,11.324C2.165,10.539 1.81,9.837 1.251,9.369C0.974,9.138 0.805,8.802 0.805,8.441" style="fill:white;fill-rule:nonzero;"/>
                </g>
                <g transform="matrix(1,0,0,1,22.5788,12.524)">
                    <path d="M0,12.965C-1.228,13.237 -2.298,12.167 -2.026,10.939C-1.889,10.32 -1.389,9.82 -0.771,9.683C0.458,9.411 1.528,10.481 1.256,11.709C1.118,12.328 0.619,12.828 0,12.965M-2.026,2.026C-2.298,0.798 -1.228,-0.272 0,-0C0.619,0.137 1.118,0.637 1.256,1.256C1.528,2.484 0.458,3.554 -0.771,3.282C-1.389,3.145 -1.889,2.645 -2.026,2.026M0.805,8.441L0.805,4.523C0.805,4.172 0.958,3.836 1.23,3.613C1.805,3.143 2.17,2.426 2.165,1.624C2.156,0.273 1.045,-0.867 -0.305,-0.908C-1.75,-0.952 -2.935,0.206 -2.935,1.641C-2.935,2.426 -2.58,3.128 -2.022,3.596C-1.745,3.828 -1.575,4.163 -1.575,4.524L-1.575,8.442C-1.575,8.793 -1.728,9.129 -2,9.352C-2.575,9.822 -2.941,10.539 -2.935,11.342C-2.926,12.692 -1.815,13.832 -0.465,13.873C0.98,13.917 2.165,12.759 2.165,11.324C2.165,10.539 1.81,9.837 1.251,9.369C0.974,9.138 0.805,8.802 0.805,8.441" style="fill:white;fill-rule:nonzero;"/>
                </g>
                <g transform="matrix(1,0,0,1,18.2298,7.8771)">
                    <path d="M0,21.096C-1.228,21.368 -2.298,20.298 -2.026,19.07C-1.889,18.451 -1.389,17.951 -0.771,17.814C0.458,17.542 1.528,18.612 1.256,19.84C1.118,20.459 0.619,20.959 0,21.096M-2.026,2.026C-2.298,0.798 -1.228,-0.272 0,0C0.619,0.137 1.118,0.637 1.256,1.256C1.528,2.484 0.458,3.554 -0.771,3.282C-1.389,3.145 -1.889,2.645 -2.026,2.026M0.805,16.572L0.805,4.524C0.805,4.172 0.958,3.836 1.23,3.614C1.805,3.143 2.17,2.426 2.165,1.624C2.156,0.274 1.045,-0.866 -0.305,-0.908C-1.75,-0.952 -2.935,0.206 -2.935,1.641C-2.935,2.426 -2.58,3.128 -2.022,3.596C-1.744,3.828 -1.575,4.163 -1.575,4.524L-1.575,16.573C-1.575,16.924 -1.728,17.26 -2,17.483C-2.575,17.953 -2.941,18.67 -2.935,19.473C-2.926,20.823 -1.815,21.963 -0.465,22.004C0.98,22.048 2.165,20.89 2.165,19.455C2.165,18.67 1.81,17.968 1.251,17.501C0.974,17.269 0.805,16.933 0.805,16.572" style="fill:white;fill-rule:nonzero;"/>
                </g>
                <g transform="matrix(1,0,0,1,9.1468,17.3231)">
                    <path d="M0,3.367C-0.93,3.367 -1.684,2.613 -1.684,1.683C-1.684,0.754 -0.93,0 0,0C0.93,0 1.684,0.754 1.684,1.683C1.684,2.613 0.93,3.367 0,3.367M0,-0.867C-1.408,-0.867 -2.55,0.275 -2.55,1.683C-2.55,3.092 -1.408,4.234 0,4.234C1.408,4.234 2.55,3.092 2.55,1.683C2.55,0.275 1.408,-0.867 0,-0.867" style="fill:white;fill-rule:nonzero;"/>
                </g>
                <g transform="matrix(1,0,0,1,26.5424,17.3231)">
                    <path d="M0,3.367C-0.93,3.367 -1.684,2.613 -1.684,1.683C-1.684,0.754 -0.93,0 0,0C0.93,0 1.684,0.754 1.684,1.683C1.684,2.613 0.93,3.367 0,3.367M0,-0.867C-1.408,-0.867 -2.55,0.275 -2.55,1.683C-2.55,3.092 -1.408,4.234 0,4.234C1.408,4.234 2.55,3.092 2.55,1.683C2.55,0.275 1.408,-0.867 0,-0.867" style="fill:white;fill-rule:nonzero;"/>
                </g>
                <g transform="matrix(1,0,0,1,6.1654,8.9976)">
                    <path d="M0,18.855L-1.907,17.754C-2.165,17.605 -2.325,17.329 -2.325,17.03L-2.325,1.825C-2.325,1.526 -2.165,1.25 -1.907,1.101L0,0C0.403,-0.232 0.538,-0.749 0.302,-1.149L0.102,-1.487C-0.132,-1.882 -0.639,-2.015 -1.036,-1.786L-3.971,-0.091C-4.23,0.058 -4.389,0.334 -4.389,0.633L-4.389,18.222C-4.389,18.521 -4.23,18.797 -3.971,18.946L-1.036,20.641C-0.639,20.87 -0.132,20.737 0.102,20.343L0.302,20.004C0.538,19.604 0.403,19.088 0,18.855" style="fill:white;fill-rule:nonzero;"/>
                </g>
                <g transform="matrix(1,0,0,1,17.4266,35.4023)">
                    <path d="M0,-1.048L-2.176,-2.304C-2.573,-2.533 -3.08,-2.4 -3.313,-2.006L-3.513,-1.668C-3.75,-1.267 -3.615,-0.751 -3.212,-0.518L0,1.336C0.259,1.485 0.577,1.485 0.836,1.336L4.048,-0.518C4.451,-0.751 4.586,-1.267 4.349,-1.668L4.149,-2.006C3.916,-2.4 3.409,-2.533 3.012,-2.304L0.836,-1.048C0.577,-0.899 0.259,-0.899 0,-1.048" style="fill:white;fill-rule:nonzero;"/>
                </g>
                <g transform="matrix(1,0,0,1,18.2626,1.4481)">
                    <path d="M0,1.048L2.176,2.304C2.573,2.533 3.08,2.4 3.313,2.006L3.513,1.668C3.75,1.267 3.615,0.751 3.212,0.518L0,-1.336C-0.259,-1.485 -0.577,-1.485 -0.836,-1.336L-4.048,0.518C-4.451,0.751 -4.586,1.267 -4.349,1.668L-4.149,2.006C-3.916,2.4 -3.409,2.533 -3.012,2.304L-0.836,1.048C-0.577,0.899 -0.259,0.899 0,1.048" style="fill:white;fill-rule:nonzero;"/>
                </g>
                <g transform="matrix(1,0,0,1,29.4222,29.3402)">
                    <path d="M0,-21.83L-0.2,-21.492C-0.437,-21.092 -0.301,-20.575 0.102,-20.342L2.008,-19.241C2.267,-19.092 2.426,-18.816 2.426,-18.518L2.426,-3.312C2.426,-3.014 2.267,-2.738 2.008,-2.588L0.102,-1.488C-0.301,-1.255 -0.437,-0.738 -0.2,-0.338L0,0C0.233,0.395 0.741,0.528 1.138,0.298L4.073,-1.396C4.332,-1.546 4.491,-1.822 4.491,-2.12L4.491,-19.71C4.491,-20.008 4.332,-20.284 4.073,-20.434L1.137,-22.128C0.741,-22.358 0.233,-22.224 0,-21.83" style="fill:white;fill-rule:nonzero;"/>
                </g>
            </g>
        </g>
    </g>
</svg>
