<?xml version="1.0" encoding="UTF-8" standalone="no"?>
<!DOCTYPE svg PUBLIC "-//W3C//DTD SVG 1.1//EN" "http://www.w3.org/Graphics/SVG/1.1/DTD/svg11.dtd">
<svg width="100%" height="100%" viewBox="0 0 154 155" version="1.1" xmlns="http://www.w3.org/2000/svg" xmlns:xlink="http://www.w3.org/1999/xlink" xml:space="preserve" xmlns:serif="http://www.serif.com/" style="fill-rule:evenodd;clip-rule:evenodd;stroke-linejoin:round;stroke-miterlimit:2;">
    <g transform="matrix(1,0,0,1,-1030,-346)">
        <g id="bk_Inventory" transform="matrix(4.166667,0,0,4.166667,1030.352977,346.569736)">
            <rect x="0" y="0" width="36.85" height="36.85" style="fill:none;"/>
            <g id="bk_Inventory1" serif:id="bk_Inventory">
                <g transform="matrix(0.210705,0,0,0.210705,-143.16316,-34.147377)">
                    <path d="M739.264,312.958C739.566,312.435 740.063,312.053 740.647,311.897C741.231,311.74 741.852,311.822 742.376,312.124C748.518,315.671 766.894,326.28 766.894,326.28L833.38,287.894L833.38,211.122C833.38,211.122 805.859,195.233 798.172,190.795C797.649,190.493 797.267,189.995 797.111,189.412C796.955,188.828 797.036,188.206 797.339,187.683C798.229,186.14 799.462,184.005 800.353,182.462C800.655,181.939 801.153,181.557 801.736,181.401C802.32,181.244 802.942,181.326 803.465,181.628C811.152,186.066 838.672,201.955 838.672,201.955C841.947,203.846 843.965,207.341 843.965,211.122L843.965,287.894C843.965,291.675 841.947,295.17 838.672,297.06L772.186,335.446C768.911,337.337 764.876,337.337 761.601,335.446C761.601,335.446 743.226,324.837 737.083,321.291C736.56,320.989 736.178,320.491 736.022,319.908C735.866,319.324 735.947,318.702 736.249,318.179C737.14,316.636 738.373,314.501 739.264,312.958Z" style="fill:white;"/>
                </g>
                <g transform="matrix(0.064038,0,0,0.064038,2.031552,2.162189)">
                    <path d="M256,73.32L74.6,155.1L156.9,192.2L330.1,106.7L256,73.32ZM351.4,116.3L178.2,201.8L256,236.9L437.4,155.1L351.4,116.3ZM61.7,169L61.7,351L247,434.6L247,252.6L61.7,169ZM450.3,169L265,252.6L265,434.6L450.3,351L450.3,169Z" style="fill:white;fill-rule:nonzero;"/>
                </g>
            </g>
        </g>
    </g>
</svg>
