<?xml version="1.0" encoding="UTF-8" standalone="no"?>
<!DOCTYPE svg PUBLIC "-//W3C//DTD SVG 1.1//EN" "http://www.w3.org/Graphics/SVG/1.1/DTD/svg11.dtd">
<svg width="100%" height="100%" viewBox="0 0 569 648" version="1.1" xmlns="http://www.w3.org/2000/svg" xmlns:xlink="http://www.w3.org/1999/xlink" xml:space="preserve" xmlns:serif="http://www.serif.com/" style="fill-rule:evenodd;clip-rule:evenodd;stroke-linejoin:round;stroke-miterlimit:2;">
    <g transform="matrix(1,0,0,1,0,-794.932425)">
        <g transform="matrix(0.23034,0,0,0.185262,0,794.932425)">
            <g transform="matrix(4.001847,0,0,2.801888,0,0)">
                <g transform="matrix(1.48541,0,0,2.637787,-1067.410199,-1642.057226)">
                    <path d="M1114.074,834.337L1114.074,750.539L1086.792,734.788L1086.792,712.286L1123.818,733.663C1129.847,737.144 1133.561,743.577 1133.561,750.539L1133.561,834.337L1114.074,834.337ZM738.083,893.614L738.083,967.618L767.113,984.378L767.113,1006.88L728.34,984.494C722.31,981.013 718.596,974.58 718.596,967.618L718.596,893.614L738.083,893.614ZM861.049,657.043L916.335,625.124C922.365,621.643 929.793,621.643 935.822,625.124L992.855,658.052L992.855,680.553L926.079,642L861.049,679.545L861.049,657.043ZM861.049,1038.613L926.079,1076.157L992.855,1037.604L992.855,1060.106L935.822,1093.034C929.793,1096.515 922.365,1096.515 916.335,1093.034L861.049,1061.114L861.049,1038.613Z" style="fill:white;"/>
                </g>
                <g transform="matrix(0.905613,1.608185,-0.509975,0.905613,81.397108,-3768.091793)">
                    <g transform="matrix(0.369711,0,0,0.656532,988.252342,1440.448888)">
                        <path d="M1514.181,1091.448L1465.833,1139.796C1460.894,1144.734 1452.876,1144.734 1447.938,1139.796L1376.361,1068.219C1371.423,1063.281 1371.423,1055.263 1376.361,1050.325L1424.71,1001.976L1406.959,984.226C1398.197,975.463 1393.274,963.578 1393.274,951.186L1393.274,846.516C1393.274,806.644 1425.644,774.274 1465.516,774.274L1669.642,774.274C1709.513,774.274 1741.884,806.644 1741.884,846.516L1741.884,1050.642C1741.884,1090.513 1709.513,1122.884 1669.642,1122.884L1564.972,1122.884C1552.579,1122.884 1540.694,1117.961 1531.931,1109.198L1514.181,1091.448ZM1547.222,1058.407L1564.972,1076.157L1669.642,1076.157C1683.724,1076.157 1695.157,1064.724 1695.157,1050.642L1695.157,846.516C1695.157,832.433 1683.724,821 1669.642,821L1465.516,821C1451.433,821 1440,832.433 1440,846.516L1440,951.186L1457.75,968.936L1469.16,957.526C1474.098,952.588 1482.116,952.588 1487.055,957.526L1558.632,1029.103C1563.57,1034.041 1563.57,1042.059 1558.632,1046.997L1547.222,1058.407Z" style="fill:white;"/>
                    </g>
                    <g transform="matrix(0.369711,0,0,-0.656532,988.252342,2964.691111)">
                        <path d="M1514.181,1091.448L1465.833,1139.796C1460.894,1144.734 1452.876,1144.734 1447.938,1139.796L1376.361,1068.219C1371.423,1063.281 1371.423,1055.263 1376.361,1050.325L1424.71,1001.976L1406.959,984.226C1398.197,975.463 1393.274,963.578 1393.274,951.186L1393.274,846.516C1393.274,806.644 1425.644,774.274 1465.516,774.274L1669.642,774.274C1709.513,774.274 1741.884,806.644 1741.884,846.516L1741.884,1050.642C1741.884,1090.513 1709.513,1122.884 1669.642,1122.884L1564.972,1122.884C1552.579,1122.884 1540.694,1117.961 1531.931,1109.198L1514.181,1091.448ZM1547.222,1058.407L1564.972,1076.157L1669.642,1076.157C1683.724,1076.157 1695.157,1064.724 1695.157,1050.642L1695.157,846.516C1695.157,832.433 1683.724,821 1669.642,821L1465.516,821C1451.433,821 1440,832.433 1440,846.516L1440,951.186L1457.75,968.936L1469.16,957.526C1474.098,952.588 1482.116,952.588 1487.055,957.526L1558.632,1029.103C1563.57,1034.041 1563.57,1042.059 1558.632,1046.997L1547.222,1058.407Z" style="fill:white;"/>
                    </g>
                    <g transform="matrix(-0.369711,0,0,0.656532,1993.27811,1440.448888)">
                        <path d="M1514.181,1091.448L1465.833,1139.796C1460.894,1144.734 1452.876,1144.734 1447.938,1139.796L1376.361,1068.219C1371.423,1063.281 1371.423,1055.263 1376.361,1050.325L1424.71,1001.976L1406.959,984.226C1398.197,975.463 1393.274,963.578 1393.274,951.186L1393.274,846.516C1393.274,806.644 1425.644,774.274 1465.516,774.274L1669.642,774.274C1709.513,774.274 1741.884,806.644 1741.884,846.516L1741.884,1050.642C1741.884,1090.513 1709.513,1122.884 1669.642,1122.884L1564.972,1122.884C1552.579,1122.884 1540.694,1117.961 1531.931,1109.198L1514.181,1091.448ZM1547.222,1058.407L1564.972,1076.157L1669.642,1076.157C1683.724,1076.157 1695.157,1064.724 1695.157,1050.642L1695.157,846.516C1695.157,832.433 1683.724,821 1669.642,821L1465.516,821C1451.433,821 1440,832.433 1440,846.516L1440,951.186L1457.75,968.936L1469.16,957.526C1474.098,952.588 1482.116,952.588 1487.055,957.526L1558.632,1029.103C1563.57,1034.041 1563.57,1042.059 1558.632,1046.997L1547.222,1058.407Z" style="fill:white;"/>
                    </g>
                    <g transform="matrix(-0.369711,0,0,-0.656532,1993.27811,2964.691111)">
                        <path d="M1514.181,1091.448L1465.833,1139.796C1460.894,1144.734 1452.876,1144.734 1447.938,1139.796L1376.361,1068.219C1371.423,1063.281 1371.423,1055.263 1376.361,1050.325L1424.71,1001.976L1406.959,984.226C1398.197,975.463 1393.274,963.578 1393.274,951.186L1393.274,846.516C1393.274,806.644 1425.644,774.274 1465.516,774.274L1669.642,774.274C1709.513,774.274 1741.884,806.644 1741.884,846.516L1741.884,1050.642C1741.884,1090.513 1709.513,1122.884 1669.642,1122.884L1564.972,1122.884C1552.579,1122.884 1540.694,1117.961 1531.931,1109.198L1514.181,1091.448ZM1547.222,1058.407L1564.972,1076.157L1669.642,1076.157C1683.724,1076.157 1695.157,1064.724 1695.157,1050.642L1695.157,846.516C1695.157,832.433 1683.724,821 1669.642,821L1465.516,821C1451.433,821 1440,832.433 1440,846.516L1440,951.186L1457.75,968.936L1469.16,957.526C1474.098,952.588 1482.116,952.588 1487.055,957.526L1558.632,1029.103C1563.57,1034.041 1563.57,1042.059 1558.632,1046.997L1547.222,1058.407Z" style="fill:white;"/>
                    </g>
                </g>
            </g>
        </g>
    </g>
</svg>
