<?xml version="1.0" encoding="UTF-8" standalone="no"?>
<!DOCTYPE svg PUBLIC "-//W3C//DTD SVG 1.1//EN" "http://www.w3.org/Graphics/SVG/1.1/DTD/svg11.dtd">
<svg width="100%" height="100%" viewBox="0 0 154 155" version="1.1" xmlns="http://www.w3.org/2000/svg" xmlns:xlink="http://www.w3.org/1999/xlink" xml:space="preserve" xmlns:serif="http://www.serif.com/" style="fill-rule:evenodd;clip-rule:evenodd;stroke-linejoin:round;stroke-miterlimit:2;">
    <g transform="matrix(1,0,0,1,-517,-175)">
        <g id="bk_LUCK" transform="matrix(4.166667,0,0,4.166667,517.389303,175.840689)">
            <rect x="0" y="0" width="36.85" height="36.85" style="fill:none;"/>
            <g id="bk_LUCK1" serif:id="bk_LUCK" transform="matrix(0.052434,0,0,0.029527,2.265168,0)">
                <g transform="matrix(1.48541,0,0,2.637787,-1067.410199,-1642.057226)">
                    <path d="M1114.327,835.127C1112.65,835.196 1111.018,834.578 1109.807,833.416C1108.596,832.254 1107.912,830.648 1107.912,828.969C1107.912,809.939 1107.912,755.161 1107.912,755.161C1107.912,755.161 1092.649,746.439 1085.339,742.261C1083.056,740.956 1081.852,738.346 1082.342,735.763C1083.096,731.784 1084.237,725.764 1085.175,720.817C1085.546,718.855 1086.846,717.195 1088.661,716.363C1090.476,715.53 1092.582,715.629 1094.311,716.628C1105.134,722.876 1123.818,733.663 1123.818,733.663C1129.847,737.144 1133.561,743.577 1133.561,750.539L1133.561,828.422C1133.561,831.727 1130.954,834.444 1127.651,834.58C1123.667,834.743 1118.413,834.959 1114.327,835.127ZM744.246,892.143L744.246,962.996C744.246,962.996 760.845,972.482 768.518,976.867C770.796,978.169 772,980.772 771.517,983.352C770.772,987.334 769.643,993.366 768.714,998.325C768.346,1000.29 767.048,1001.955 765.232,1002.79C763.415,1003.625 761.307,1003.528 759.575,1002.528C748.297,996.017 728.34,984.494 728.34,984.494C722.31,981.013 718.596,974.58 718.596,967.618L718.596,893.614L744.246,892.143ZM861.321,660.888C861.155,658.536 862.345,656.295 864.387,655.116C876.345,648.212 916.335,625.124 916.335,625.124C922.365,621.643 929.793,621.643 935.822,625.124C935.822,625.124 977.296,649.069 989.51,656.12C991.556,657.302 992.746,659.548 992.575,661.905C992.274,666.044 991.784,672.783 991.376,678.397C991.222,680.509 989.995,682.394 988.127,683.389C986.258,684.385 984.009,684.352 982.171,683.301C964.64,673.282 926.079,651.244 926.079,651.244C926.079,651.244 888.877,672.505 871.695,682.325C869.855,683.376 867.603,683.409 865.734,682.41C863.864,681.412 862.639,679.523 862.489,677.409C862.091,671.782 861.614,665.03 861.321,660.888ZM862.489,1040.749C862.639,1038.635 863.864,1036.746 865.734,1035.747C867.603,1034.749 869.855,1034.781 871.695,1035.833C888.877,1045.652 926.079,1066.913 926.079,1066.913C926.079,1066.913 964.64,1044.876 982.171,1034.857C984.009,1033.806 986.258,1033.773 988.127,1034.768C989.995,1035.764 991.222,1037.649 991.376,1039.76C991.784,1045.374 992.274,1052.114 992.575,1056.253C992.746,1058.609 991.556,1060.856 989.51,1062.037C977.296,1069.088 935.822,1093.034 935.822,1093.034C929.793,1096.515 922.365,1096.515 916.335,1093.034C916.335,1093.034 876.345,1069.945 864.387,1063.041C862.345,1061.862 861.155,1059.621 861.321,1057.269C861.614,1053.128 862.091,1046.375 862.489,1040.749Z"/>
                </g>
                <g transform="matrix(0.905613,1.608185,-0.509975,0.905613,81.397108,-3768.091793)">
                    <g transform="matrix(0.369711,0,0,0.656532,988.252342,1440.448888)">
                        <path d="M1514.181,1091.448L1465.833,1139.796C1460.894,1144.734 1452.876,1144.734 1447.938,1139.796L1376.361,1068.219C1371.423,1063.281 1371.423,1055.263 1376.361,1050.325L1424.71,1001.976L1406.959,984.226C1398.197,975.463 1393.274,963.578 1393.274,951.186L1393.274,846.516C1393.274,806.644 1425.644,774.274 1465.516,774.274L1669.642,774.274C1709.513,774.274 1741.884,806.644 1741.884,846.516L1741.884,1050.642C1741.884,1090.513 1709.513,1122.884 1669.642,1122.884L1564.972,1122.884C1552.579,1122.884 1540.694,1117.961 1531.931,1109.198L1514.181,1091.448ZM1547.222,1058.407L1564.972,1076.157L1669.642,1076.157C1683.724,1076.157 1695.157,1064.724 1695.157,1050.642L1695.157,846.516C1695.157,832.433 1683.724,821 1669.642,821L1465.516,821C1451.433,821 1440,832.433 1440,846.516L1440,951.186L1457.75,968.936L1469.16,957.526C1474.098,952.588 1482.116,952.588 1487.055,957.526L1558.632,1029.103C1563.57,1034.041 1563.57,1042.059 1558.632,1046.997L1547.222,1058.407Z"/>
                    </g>
                    <g transform="matrix(0.369711,0,0,-0.656532,988.252342,2964.691111)">
                        <path d="M1514.181,1091.448L1465.833,1139.796C1460.894,1144.734 1452.876,1144.734 1447.938,1139.796L1376.361,1068.219C1371.423,1063.281 1371.423,1055.263 1376.361,1050.325L1424.71,1001.976L1406.959,984.226C1398.197,975.463 1393.274,963.578 1393.274,951.186L1393.274,846.516C1393.274,806.644 1425.644,774.274 1465.516,774.274L1669.642,774.274C1709.513,774.274 1741.884,806.644 1741.884,846.516L1741.884,1050.642C1741.884,1090.513 1709.513,1122.884 1669.642,1122.884L1564.972,1122.884C1552.579,1122.884 1540.694,1117.961 1531.931,1109.198L1514.181,1091.448ZM1547.222,1058.407L1564.972,1076.157L1669.642,1076.157C1683.724,1076.157 1695.157,1064.724 1695.157,1050.642L1695.157,846.516C1695.157,832.433 1683.724,821 1669.642,821L1465.516,821C1451.433,821 1440,832.433 1440,846.516L1440,951.186L1457.75,968.936L1469.16,957.526C1474.098,952.588 1482.116,952.588 1487.055,957.526L1558.632,1029.103C1563.57,1034.041 1563.57,1042.059 1558.632,1046.997L1547.222,1058.407Z"/>
                    </g>
                    <g transform="matrix(-0.369711,0,0,0.656532,1993.27811,1440.448888)">
                        <path d="M1514.181,1091.448L1465.833,1139.796C1460.894,1144.734 1452.876,1144.734 1447.938,1139.796L1376.361,1068.219C1371.423,1063.281 1371.423,1055.263 1376.361,1050.325L1424.71,1001.976L1406.959,984.226C1398.197,975.463 1393.274,963.578 1393.274,951.186L1393.274,846.516C1393.274,806.644 1425.644,774.274 1465.516,774.274L1669.642,774.274C1709.513,774.274 1741.884,806.644 1741.884,846.516L1741.884,1050.642C1741.884,1090.513 1709.513,1122.884 1669.642,1122.884L1564.972,1122.884C1552.579,1122.884 1540.694,1117.961 1531.931,1109.198L1514.181,1091.448ZM1547.222,1058.407L1564.972,1076.157L1669.642,1076.157C1683.724,1076.157 1695.157,1064.724 1695.157,1050.642L1695.157,846.516C1695.157,832.433 1683.724,821 1669.642,821L1465.516,821C1451.433,821 1440,832.433 1440,846.516L1440,951.186L1457.75,968.936L1469.16,957.526C1474.098,952.588 1482.116,952.588 1487.055,957.526L1558.632,1029.103C1563.57,1034.041 1563.57,1042.059 1558.632,1046.997L1547.222,1058.407Z"/>
                    </g>
                    <g transform="matrix(-0.369711,0,0,-0.656532,1993.27811,2964.691111)">
                        <path d="M1514.181,1091.448L1465.833,1139.796C1460.894,1144.734 1452.876,1144.734 1447.938,1139.796L1376.361,1068.219C1371.423,1063.281 1371.423,1055.263 1376.361,1050.325L1424.71,1001.976L1406.959,984.226C1398.197,975.463 1393.274,963.578 1393.274,951.186L1393.274,846.516C1393.274,806.644 1425.644,774.274 1465.516,774.274L1669.642,774.274C1709.513,774.274 1741.884,806.644 1741.884,846.516L1741.884,1050.642C1741.884,1090.513 1709.513,1122.884 1669.642,1122.884L1564.972,1122.884C1552.579,1122.884 1540.694,1117.961 1531.931,1109.198L1514.181,1091.448ZM1547.222,1058.407L1564.972,1076.157L1669.642,1076.157C1683.724,1076.157 1695.157,1064.724 1695.157,1050.642L1695.157,846.516C1695.157,832.433 1683.724,821 1669.642,821L1465.516,821C1451.433,821 1440,832.433 1440,846.516L1440,951.186L1457.75,968.936L1469.16,957.526C1474.098,952.588 1482.116,952.588 1487.055,957.526L1558.632,1029.103C1563.57,1034.041 1563.57,1042.059 1558.632,1046.997L1547.222,1058.407Z"/>
                    </g>
                </g>
            </g>
        </g>
    </g>
</svg>
