<?xml version="1.0" encoding="UTF-8" standalone="no"?>
<!DOCTYPE svg PUBLIC "-//W3C//DTD SVG 1.1//EN" "http://www.w3.org/Graphics/SVG/1.1/DTD/svg11.dtd">
<svg width="100%" height="100%" viewBox="0 0 155 155" version="1.1" xmlns="http://www.w3.org/2000/svg" xmlns:xlink="http://www.w3.org/1999/xlink" xml:space="preserve" xmlns:serif="http://www.serif.com/" style="fill-rule:evenodd;clip-rule:evenodd;stroke-linejoin:round;stroke-miterlimit:2;">
    <g transform="matrix(1,0,0,1,-858,-346)">
        <g id="bk_Overview" transform="matrix(4.166667,0,0,4.166667,858.667176,346.569736)">
            <rect x="0" y="0" width="36.85" height="36.85" style="fill:none;"/>
            <g id="bk_Overview1" serif:id="bk_Overview" transform="matrix(0.210705,0,0,0.210705,-143.16316,-34.147377)">
                <path d="M689.823,287.894L689.823,226.898C689.823,222.829 692.453,219.213 696.362,217.908L764.064,195.298C766.067,194.629 768.238,194.629 770.242,195.298L834.519,216.764L834.519,211.122L766.894,172.736L719.909,199.863L709.324,193.752L761.601,163.57C764.876,161.679 768.911,161.679 772.186,163.57L838.672,201.955C841.947,203.846 843.965,207.341 843.965,211.122L843.965,223.823C844.302,224.795 844.483,225.831 844.483,226.898L844.483,272.118C844.483,276.187 841.853,279.803 837.944,281.108L770.362,303.678C770.278,303.707 770.194,303.736 770.11,303.762C768.7,304.21 767.209,304.329 765.756,304.12C765.129,304.029 764.509,303.878 763.906,303.666L699.268,282.079L699.268,287.894L766.894,326.28L813.878,299.153L824.463,305.264L772.186,335.446C768.911,337.337 764.876,337.337 761.601,335.446L695.115,297.06C691.84,295.17 689.823,291.675 689.823,287.894ZM834.519,226.786L790.474,212.076L799.274,219.814C801.322,221.615 802.493,224.192 802.493,226.898L802.493,272.118C802.493,274.824 801.322,277.401 799.274,279.202L790.474,286.939L834.855,272.118L834.519,226.786ZM743.831,212.076L699.451,226.898L699.451,272.118L743.831,286.939L735.032,279.202C732.984,277.401 731.813,274.824 731.813,272.118L731.813,226.898C731.813,224.192 732.984,221.615 735.032,219.814L743.831,212.076ZM767.153,204.288L741.441,226.898L741.441,272.118L767.153,294.728L792.865,272.118L792.865,226.898L767.153,204.288ZM776.777,232.509L777.005,240.881L777.009,241.136L777.009,257.88L777.005,258.134L776.777,266.507C776.638,271.648 772.37,275.744 767.153,275.744C761.936,275.744 757.668,271.648 757.528,266.507L757.301,258.134L757.297,257.88L757.297,241.136L757.301,240.881L757.528,232.509C757.668,227.368 761.936,223.272 767.153,223.272C772.37,223.272 776.638,227.368 776.777,232.509Z" style="fill:white;"/>
            </g>
        </g>
    </g>
</svg>
