<?xml version="1.0" encoding="UTF-8" standalone="no"?>
<!DOCTYPE svg PUBLIC "-//W3C//DTD SVG 1.1//EN" "http://www.w3.org/Graphics/SVG/1.1/DTD/svg11.dtd">
<svg width="100%" height="100%" viewBox="0 0 155 155" version="1.1" xmlns="http://www.w3.org/2000/svg" xmlns:xlink="http://www.w3.org/1999/xlink" xml:space="preserve" xmlns:serif="http://www.serif.com/" style="fill:#ffffff;fill-rule:evenodd;clip-rule:evenodd;stroke-linejoin:round;stroke-miterlimit:2;">
    <g transform="matrix(1,0,0,1,-858,-175)">
        <g id="wt_PSYCHE" transform="matrix(4.166667,0,0,4.166667,858.667176,175.840689)">
            <rect x="0" y="0" width="36.85" height="36.85" style="fill:none;"/>
            <g transform="matrix(0.210705,0,0,0.210705,-143.16316,-34.147377)">
                <path d="M723.797,310.989C723.495,311.513 722.997,311.894 722.413,312.051C721.83,312.207 721.208,312.125 720.685,311.823C714.38,308.183 695.13,297.069 695.115,297.06C695.115,297.06 695.115,297.06 695.115,297.06C691.84,295.17 689.823,291.675 689.823,287.894C689.823,287.894 689.823,256.783 689.823,248.015C689.823,246.757 690.843,245.737 692.101,245.737C693.882,245.737 696.348,245.737 698.129,245.737C699.387,245.737 700.407,246.757 700.407,248.015C700.407,255.707 700.407,280.572 700.407,286.579C700.407,287.392 700.842,288.144 701.546,288.551C705.774,290.992 720.594,299.549 725.977,302.656C726.5,302.959 726.882,303.456 727.039,304.04C727.195,304.623 727.113,305.245 726.811,305.768C725.92,307.311 724.687,309.446 723.797,310.989ZM749.796,319.039C750.425,317.949 751.819,317.576 752.908,318.205C756.284,320.154 763.063,324.068 765.755,325.622C766.459,326.029 767.328,326.029 768.033,325.622C770.724,324.068 777.504,320.154 780.879,318.205C781.969,317.576 783.362,317.949 783.991,319.039C784.882,320.582 786.115,322.717 787.005,324.26C787.634,325.349 787.261,326.743 786.172,327.372C781.904,329.835 772.186,335.446 772.186,335.446C768.911,337.337 764.876,337.337 761.601,335.446C761.601,335.446 751.885,329.837 747.616,327.372C746.526,326.743 746.153,325.349 746.782,324.26C747.673,322.717 748.905,320.582 749.796,319.039ZM816.204,191.614C816.506,191.09 817.003,190.709 817.587,190.552C818.17,190.396 818.792,190.478 819.315,190.78C824.597,193.829 838.672,201.955 838.672,201.955C841.947,203.846 843.965,207.341 843.965,211.122C843.965,211.122 843.965,214.532 843.965,216.917C843.965,217.522 843.725,218.101 843.297,218.528C842.87,218.956 842.291,219.196 841.687,219.196L835.658,219.196C835.054,219.196 834.474,218.956 834.047,218.528C833.62,218.101 833.38,217.522 833.38,216.917L833.38,212.437C833.38,211.623 832.946,210.871 832.241,210.464C824.2,205.822 776.074,178.036 768.033,173.394C767.328,172.987 766.459,172.987 765.755,173.394C757.714,178.036 709.587,205.822 701.546,210.464C700.842,210.871 700.407,211.623 700.407,212.437C700.407,213.648 700.407,215.47 700.407,216.917C700.407,217.522 700.167,218.101 699.74,218.528C699.313,218.956 698.734,219.196 698.129,219.196L692.101,219.196C691.497,219.196 690.917,218.956 690.49,218.528C690.063,218.101 689.823,217.522 689.823,216.917C689.823,214.532 689.823,211.122 689.823,211.122C689.823,207.34 691.84,203.846 695.115,201.955C695.115,201.955 709.188,193.83 714.472,190.78C714.995,190.478 715.617,190.396 716.2,190.552C716.784,190.709 717.282,191.09 717.584,191.614C717.613,191.664 717.642,191.715 717.672,191.766C717.974,192.289 718.471,192.671 719.055,192.828C719.639,192.984 720.26,192.902 720.784,192.6C725.128,190.092 735.479,184.116 739.823,181.607C740.346,181.305 740.728,180.808 740.885,180.224C741.041,179.641 740.959,179.019 740.657,178.496C740.628,178.445 740.598,178.394 740.569,178.343C739.94,177.253 740.313,175.86 741.403,175.231C746.831,172.097 761.601,163.57 761.601,163.57C764.876,161.679 768.911,161.679 772.186,163.57C772.186,163.57 786.956,172.097 792.384,175.231C793.474,175.86 793.847,177.253 793.218,178.343C793.189,178.394 793.16,178.445 793.13,178.496C792.828,179.019 792.746,179.641 792.903,180.224C793.059,180.808 793.441,181.305 793.964,181.607C798.308,184.116 808.659,190.092 813.004,192.6C813.527,192.902 814.149,192.984 814.732,192.828C815.316,192.671 815.813,192.289 816.115,191.766C816.145,191.715 816.174,191.664 816.204,191.614ZM806.976,305.768C806.674,305.245 806.592,304.623 806.749,304.04C806.905,303.456 807.287,302.959 807.81,302.656C813.193,299.549 828.014,290.992 832.241,288.551C832.946,288.144 833.38,287.392 833.38,286.579C833.38,280.572 833.38,255.707 833.38,248.015C833.38,246.757 834.4,245.737 835.658,245.737C837.44,245.737 839.905,245.737 841.687,245.737C842.945,245.737 843.965,246.757 843.965,248.015C843.965,256.783 843.965,287.894 843.965,287.894C843.965,291.675 841.947,295.17 838.672,297.06C838.672,297.06 819.41,308.182 813.103,311.823C812.579,312.125 811.957,312.207 811.374,312.051C810.79,311.894 810.293,311.513 809.991,310.989C809.1,309.446 807.867,307.311 806.976,305.768Z"/>
            </g>
            <g id="Brain" transform="matrix(0.053201,0,0,0.053201,-8.837916,-8.761957)">
                <path d="M611.932,684.291C613.424,686.041 615.419,690.334 613.416,691.03C612.634,691.301 584.042,690.911 581.488,690.876C577.69,690.825 576.376,687.806 573.616,684.408C544.963,649.117 540.942,633.745 516.251,617.811C512.895,615.434 508.444,613.673 507.347,614.067C488.161,620.952 457.991,620.394 436.307,607.828C411.904,593.686 406.647,569.153 405.809,566.396C405.141,564.197 402.783,564.559 390.5,564.475C375.515,564.372 346.735,568.731 323.562,543.442C307.124,525.503 310.952,512.476 308.393,509.603C295.793,495.453 296.292,472.819 300.205,465.353C302.145,461.651 302.245,461.626 301.976,457.464C301.751,453.998 300.368,432.601 320.158,418.047C325.111,414.405 323.82,413.419 325.835,409.672C331.346,399.427 344.057,394.445 346.3,393.162C354.125,388.686 348.707,380.511 372.332,368.172C390.219,358.829 407.073,344.545 434.548,341.959C442.446,341.216 443.04,343.168 449.759,338.904C464.548,329.518 492.919,330.393 506.51,334.468C513.471,336.555 513.326,333.799 520.456,332.281C544.487,327.163 561.2,338.042 564.177,339.98C569.818,343.651 570.467,340.487 580.512,341.37C623.583,345.157 640.211,371.448 642.95,375.161C645.622,378.784 647.033,377.064 659.569,387.414C675.756,400.779 679.338,412.629 681.279,417.589C683.302,422.757 707.646,432.42 710.243,463.523C710.465,466.176 713.067,466.937 715.368,469.618C717.936,472.611 727.322,483.55 727.149,517.501C727.062,534.572 721.818,535.061 721.939,539.496C721.997,541.625 722.319,553.415 715.014,565.199C702.926,584.702 691.751,581.71 690.991,586.566C690.529,589.516 688.086,605.133 677.057,621.184C660.791,644.858 645.293,654.569 600.463,655.232C599.364,655.248 599.536,655.637 598.916,655.908C598.278,655.626 598.595,654.848 596.587,654.88C593.617,654.926 593.636,654.278 590.731,654.827C582.681,650.612 577.939,654.452 566.383,640.569C558.512,631.112 551.061,629.909 556.489,627.477C559.962,625.921 565.658,627.614 564.395,624.529C563.555,622.479 556.569,605.422 547.502,602.596C545.83,602.075 546.113,603.664 546.079,603.691C549.508,606.35 554.497,608.985 559.164,618.651C563.019,626.636 546.375,624.684 550.499,630.501C553.272,634.411 555.754,631.701 565.794,643.182C577.269,656.303 588.503,656.366 590.762,656.378C600.775,661.007 606.156,677.515 611.932,684.291ZM547.459,357.536C546.421,355.834 551.2,343.183 531.537,349.618C512.973,355.693 521.918,366.005 520.605,378.51C518.961,394.168 504.24,395.182 500.701,417.792C499.564,425.055 502.928,442.051 499.533,442.688C497.388,443.09 497.575,441.625 496.272,415.611C495.295,400.981 516.203,388.019 512.403,373.51C510.431,365.981 510.186,355.847 510.14,355.62C509.576,352.846 479.513,347.876 465.672,353.899C459.943,356.392 461.1,359.598 456.437,358.847C452.65,358.236 432.058,354.919 409.792,369.936C397.761,378.05 399.374,381.011 392.441,382.015C371.653,385.023 371.669,398.017 369.529,399.534C365.446,402.429 360.48,405.252 361.397,411.49C362.645,419.969 357.889,418.583 349.527,420.572C345.404,422.045 333.11,424.787 324.898,441.692C318.331,455.211 325.363,457.922 320.616,467.562C314.205,480.581 321.096,499.12 328.068,505.939C332.95,510.713 326.689,516.714 336.565,528.446C351.913,546.677 370.263,545.092 374.497,545.077C410.304,544.95 411.451,545.738 413.435,543.459C415.014,539.844 415.514,538.996 415.731,538.628C437.156,502.296 454.844,513.857 458.084,496.417C459.168,490.581 461.728,498.95 476.571,502.168C503.11,507.922 501.214,489.995 501.261,488.495C501.394,484.197 506.107,488.809 506.706,489.128C522.136,497.359 533.964,482.003 537.783,470.647C538.232,469.312 539.695,464.807 541.337,466.643C542.742,468.214 539.633,472.411 541.422,477.738C545.221,477.788 556.187,474.456 570.422,476.893C573.901,477.489 586.903,480.612 587.237,480.863C595.736,487.255 551.068,473.298 520.4,499.381C500.609,516.212 488.737,509.507 475.48,508.973C469.039,508.713 453.073,513.997 441.466,524.464C383.26,576.954 452.538,623.68 504.476,601.202C509.006,599.241 511.653,599.491 518.666,596.963C556.82,583.211 585.478,594.574 614.588,583.736C632.416,577.099 632.442,576.398 651.498,576.365C668.557,576.335 670.062,576.414 672.752,569.608C666.718,557.627 650.669,554.722 648.832,553.126C643.997,548.927 658.91,551.943 677.593,567.13C678.848,567.598 685.5,570.079 693.293,561.311C706.121,546.879 700.353,538.956 705.206,531.309C712.014,520.58 706.19,486.568 698.694,476.373C694.397,470.528 694.543,470.465 692.316,463.56C685.6,442.74 669.407,434.392 665.789,431.159C662.015,427.786 662.789,409.296 632.728,393.08C623.828,388.279 626.139,376.207 603.416,365.681C581.929,355.728 560.452,361.515 559.479,361.693C558.186,363.489 557.861,363.698 559.099,365.5C563.651,372.127 562.686,390.829 545.679,400.761C538.607,404.268 541.004,411.214 538.309,413.248C535.193,415.6 536.788,408.046 536.885,407.589C538.56,399.656 539.598,400.078 545.447,394.444C553.87,386.331 557.3,373.668 547.459,357.536ZM594.574,637.118C606.484,632.744 605.639,643.99 632.63,637.886C636.511,637.009 654.314,626.975 666.522,595.509C667.661,592.573 668.658,591.09 665.545,591.037C661.703,590.973 623.569,590.33 617.514,591.57C613.855,592.319 594.624,604.536 566.255,599.318C581.573,617.764 568.512,646.69 594.574,637.118Z" style="fill:#ffffff;"/>
                <path d="M403.461,437.883C412.732,433.736 415.148,418.835 439.436,422.881C445.899,423.958 451.424,426.011 451.747,422.545C454.017,398.249 456.112,398.437 471.17,379.229C471.807,378.416 473.675,374.631 475.251,375.817C476.191,376.524 476.82,384.119 472.209,389.24C469.219,392.56 455.741,402.047 462.405,443.514C462.707,445.396 465.941,456.561 463.286,459.297C459.057,463.658 462.144,446.971 451.33,436.671C442.511,428.271 421.036,420.695 408.731,451.589C408.264,452.762 405.845,458.836 399.292,464.246C393.095,469.363 371.806,469.662 374.8,465.745C375.426,464.925 393.76,471.94 398.302,453.441C404.007,430.21 385.743,430.827 389.812,429.759C398.936,427.364 398.777,439.978 403.461,437.883Z" style="fill:#ffffff;"/>
                <path d="M622.594,502.65C646.538,485.979 645.583,460.944 646.647,456.554C646.709,456.302 649.188,453.354 649.237,458.511C649.613,498.361 618.893,509.66 616.61,508.284C614.2,506.83 619.76,504.234 622.594,502.65Z" style="fill:#ffffff;"/>
            </g>
        </g>
    </g>
</svg>
