<?xml version="1.0" encoding="UTF-8" standalone="no"?>
<!DOCTYPE svg PUBLIC "-//W3C//DTD SVG 1.1//EN" "http://www.w3.org/Graphics/SVG/1.1/DTD/svg11.dtd">
<svg width="100%" height="100%" viewBox="0 0 154 154" version="1.1" xmlns="http://www.w3.org/2000/svg" xmlns:xlink="http://www.w3.org/1999/xlink" xml:space="preserve" xmlns:serif="http://www.serif.com/" style="fill-rule:evenodd;clip-rule:evenodd;stroke-linejoin:round;stroke-miterlimit:2;">
    <g transform="matrix(1,0,0,1,0,-518)">
        <g id="wt_RFLX" transform="matrix(4.166667,0,0,4.166667,0,518.225044)">
            <rect x="0" y="0" width="36.85" height="36.85" style="fill:none;"/>
            <clipPath id="_clip1">
                <rect x="0" y="0" width="36.85" height="36.85"/>
            </clipPath>
            <g clip-path="url(#_clip1)">
                <g id="wt_RFLX1" serif:id="wt_RFLX">
                    <g>
                        <g transform="matrix(1,0,0,1,23.5702,27.0415)">
                            <path d="M0,-17.263L-1.068,-13.006C-1.167,-12.612 -1.63,-12.441 -1.961,-12.676L-8.163,-17.082C-8.551,-17.358 -8.455,-17.958 -8.001,-18.103C-5.365,-18.947 -2.449,-18.668 0,-17.263M5.006,-8.361L1.009,-7.291C0.624,-7.188 0.253,-7.498 0.285,-7.895L0.904,-15.501C0.943,-15.979 1.518,-16.208 1.868,-15.879C1.943,-15.808 2.018,-15.736 2.091,-15.662C4.103,-13.651 5.073,-10.996 5.006,-8.361M-0.203,0.144L-3.121,-2.773C-3.408,-3.059 -3.317,-3.545 -2.946,-3.708L3.882,-6.717C4.326,-6.912 4.797,-6.506 4.672,-6.037C4.235,-4.401 3.375,-2.854 2.091,-1.57C1.395,-0.874 0.62,-0.303 -0.203,0.144M-9.917,0.025L-8.752,-4.322C-8.644,-4.724 -8.158,-4.883 -7.834,-4.622L-2.109,-0.013C-1.742,0.282 -1.866,0.87 -2.321,0.994C-4.848,1.684 -7.594,1.36 -9.917,0.025M-14.914,-8.426L-10.61,-9.58C-10.216,-9.685 -9.84,-9.359 -9.889,-8.953L-10.777,-1.679C-10.834,-1.213 -11.396,-1.003 -11.739,-1.323C-11.827,-1.404 -11.913,-1.487 -11.998,-1.573C-13.895,-3.469 -14.866,-5.94 -14.914,-8.426M-11.998,-15.662C-11.528,-16.132 -11.022,-16.546 -10.489,-16.902C-10.259,-17.055 -9.953,-17.025 -9.758,-16.83L-6.969,-14.041C-6.684,-13.756 -6.772,-13.275 -7.139,-13.108L-13.897,-10.045C-14.329,-9.849 -14.797,-10.23 -14.699,-10.694C-14.312,-12.514 -13.412,-14.249 -11.998,-15.662" style="fill:white;"/>
                        </g>
                        <g transform="matrix(1,0,0,1,22.1797,4.33)">
                            <path d="M0,28.191L-3.211,30.045C-3.428,30.17 -3.695,30.17 -3.912,30.045L-17.199,22.374C-17.416,22.248 -17.55,22.017 -17.55,21.766L-17.55,6.424C-17.55,6.173 -17.416,5.942 -17.199,5.817L-3.912,-1.855C-3.695,-1.98 -3.428,-1.98 -3.211,-1.855L-0.047,-0.028C0.276,0.159 0.687,0.06 0.891,-0.251L1.253,-0.804C1.473,-1.141 1.365,-1.594 1.017,-1.795L-3.211,-4.236C-3.428,-4.361 -3.695,-4.361 -3.912,-4.236L-19.262,4.626C-19.479,4.751 -19.612,4.983 -19.612,5.233L-19.612,22.957C-19.612,23.208 -19.479,23.439 -19.262,23.564L-3.912,32.426C-3.695,32.552 -3.428,32.552 -3.211,32.426L1.063,29.959C1.412,29.757 1.52,29.304 1.299,28.967L0.937,28.414C0.734,28.103 0.322,28.005 0,28.191" style="fill:white;fill-rule:nonzero;"/>
                        </g>
                    </g>
                </g>
            </g>
        </g>
    </g>
</svg>
