<?xml version="1.0" encoding="UTF-8" standalone="no"?>
<!DOCTYPE svg PUBLIC "-//W3C//DTD SVG 1.1//EN" "http://www.w3.org/Graphics/SVG/1.1/DTD/svg11.dtd">
<svg width="100%" height="100%" viewBox="0 0 154 154" version="1.1" xmlns="http://www.w3.org/2000/svg" xmlns:xlink="http://www.w3.org/1999/xlink" xml:space="preserve" xmlns:serif="http://www.serif.com/" style="fill-rule:evenodd;clip-rule:evenodd;stroke-linejoin:round;stroke-miterlimit:2;">
    <g transform="matrix(1,0,0,1,-690,0)">
        <g id="bk_Skills" transform="matrix(4.166667,0,0,4.166667,690.121969,0)">
            <rect x="0" y="0" width="36.85" height="36.85" style="fill:none;"/>
            <g id="bk_Skills1" serif:id="bk_Skills">
                <g transform="matrix(0.210705,0,0,0.210705,-143.16316,-34.147377)">
                    <path d="M721.69,310.431C721.218,311.248 720.173,311.528 719.356,311.056C713.885,307.897 695.115,297.06 695.115,297.06C691.84,295.17 689.823,291.675 689.823,287.894L689.823,211.122C689.823,207.341 691.84,203.846 695.115,201.955C695.115,201.955 713.509,191.336 718.919,188.212C719.736,187.74 720.781,188.02 721.253,188.838C722.239,190.545 723.851,193.337 724.837,195.045C725.308,195.862 725.028,196.907 724.211,197.379C718.801,200.502 700.407,211.122 700.407,211.122L700.407,287.894C700.407,287.894 719.177,298.731 724.648,301.889C725.466,302.361 725.746,303.406 725.274,304.223C724.288,305.931 722.676,308.723 721.69,310.431ZM730.076,306.996C730.548,306.179 731.593,305.899 732.41,306.371C732.752,306.568 733.116,306.778 733.458,306.975C734.275,307.447 734.555,308.492 734.083,309.309C733.097,311.017 731.485,313.809 730.499,315.517C730.027,316.334 728.982,316.614 728.165,316.142C727.823,315.945 727.46,315.735 727.118,315.537C726.301,315.065 726.021,314.021 726.493,313.203C727.478,311.496 729.09,308.704 730.076,306.996ZM738.886,312.082C739.357,311.265 740.402,310.985 741.22,311.457C741.561,311.654 741.925,311.864 742.267,312.061C743.084,312.533 743.364,313.578 742.892,314.395C741.906,316.103 740.294,318.895 739.308,320.603C738.837,321.42 737.792,321.7 736.975,321.228C736.633,321.031 736.269,320.821 735.927,320.623C735.11,320.152 734.83,319.107 735.302,318.289C736.288,316.582 737.9,313.79 738.886,312.082ZM747.695,317.168C748.167,316.351 749.212,316.071 750.029,316.543C754.391,319.061 766.894,326.28 766.894,326.28C766.894,326.28 770.757,324.049 772.952,322.782C773.345,322.555 773.811,322.494 774.249,322.611C774.686,322.728 775.06,323.015 775.286,323.407C776.272,325.115 777.884,327.907 778.87,329.614C779.097,330.007 779.158,330.473 779.041,330.911C778.923,331.349 778.637,331.722 778.245,331.948C776.049,333.216 772.186,335.446 772.186,335.446C768.911,337.337 764.876,337.337 761.601,335.446C761.601,335.446 749.098,328.228 744.736,325.709C743.919,325.238 743.639,324.193 744.111,323.375C745.097,321.668 746.709,318.876 747.695,317.168ZM726.056,186.065C725.584,185.248 725.864,184.203 726.681,183.731C727.023,183.534 727.386,183.324 727.728,183.126C728.545,182.654 729.59,182.934 730.062,183.752C731.048,185.459 732.66,188.251 733.646,189.959C734.118,190.776 733.838,191.821 733.021,192.293C732.679,192.49 732.315,192.7 731.973,192.898C731.156,193.369 730.111,193.089 729.639,192.272C728.653,190.564 727.041,187.773 726.056,186.065ZM734.865,180.979C734.393,180.162 734.673,179.117 735.49,178.645C735.832,178.447 736.196,178.237 736.538,178.04C737.355,177.568 738.4,177.848 738.871,178.666C739.857,180.373 741.469,183.165 742.455,184.873C742.927,185.69 742.647,186.735 741.83,187.207C741.488,187.404 741.124,187.614 740.783,187.811C739.965,188.283 738.92,188.003 738.449,187.186C737.463,185.478 735.851,182.686 734.865,180.979ZM743.674,175.893C743.202,175.076 743.482,174.031 744.299,173.559C748.733,170.999 761.601,163.57 761.601,163.57C764.876,161.679 768.911,161.679 772.186,163.57L778.839,167.411C778.839,167.411 775.898,172.504 774.401,175.098C773.929,175.915 772.884,176.195 772.067,175.723C770.107,174.591 766.894,172.736 766.894,172.736C766.894,172.736 754.025,180.166 749.592,182.725C748.775,183.197 747.73,182.917 747.258,182.1C746.272,180.392 744.66,177.6 743.674,175.893ZM833.624,201.014C833.85,200.621 834.224,200.335 834.661,200.218C835.099,200.1 835.565,200.162 835.958,200.388C837.165,201.085 838.672,201.955 838.672,201.955C841.947,203.846 843.965,207.341 843.965,211.122L843.965,287.894C843.965,291.675 841.947,295.17 838.672,297.06C838.672,297.06 837.724,297.608 836.843,298.116C836.451,298.343 835.984,298.404 835.547,298.287C835.109,298.17 834.736,297.883 834.509,297.491C833.523,295.783 831.911,292.991 830.925,291.284C830.699,290.891 830.638,290.425 830.755,289.987C830.872,289.549 831.158,289.176 831.551,288.95C832.432,288.441 833.38,287.894 833.38,287.894L833.38,211.122C833.38,211.122 831.873,210.252 830.665,209.555C830.273,209.328 829.987,208.955 829.869,208.517C829.752,208.08 829.813,207.613 830.04,207.221C831.026,205.513 832.638,202.721 833.624,201.014Z"/>
                </g>
                <g transform="matrix(0.05722,0,0,0.05722,-7.725485,3.776949)">
                    <path d="M440,33C422.8,33 409,46.77 409,64C409,81.23 422.8,95 440,95C457.2,95 471,81.23 471,64C471,46.77 457.2,33 440,33ZM317.291,55C313.817,55 311,57.817 311,61.292C311,70.49 311,87.51 311,96.708C311,98.377 310.337,99.977 309.157,101.157C307.977,102.337 306.377,103 304.708,103C282.341,103 208,103 208,103L208,121L304.708,121C306.377,121 307.977,121.663 309.157,122.843C310.337,124.023 311,125.623 311,127.292C311,152.666 311,247.334 311,272.708C311,274.377 310.337,275.977 309.157,277.157C307.977,278.337 306.377,279 304.708,279C294.124,279 272.876,279 262.292,279C260.623,279 259.023,279.663 257.843,280.843C256.663,282.023 256,283.623 256,285.292C256,287.047 256,288.953 256,290.708C256,292.377 256.663,293.977 257.843,295.157C259.023,296.337 260.623,297 262.292,297C272.876,297 294.124,297 304.708,297C308.183,297 311,299.817 311,303.292C311,322.673 311,381.327 311,400.708C311,402.377 310.337,403.977 309.157,405.157C307.977,406.337 306.377,407 304.708,407C282.341,407 208,407 208,407L208,425L304.708,425C306.377,425 307.977,425.663 309.157,426.843C310.337,428.023 311,429.623 311,431.292C311,436.908 311,445.092 311,450.708C311,454.183 313.817,457 317.291,457C336.293,457 391.8,457 391.8,457C391.3,454.1 391,451.1 391,448C391,444.9 391.3,441.9 391.8,439L335.292,439C333.623,439 332.023,438.337 330.843,437.157C329.663,435.977 329,434.377 329,432.708C329,409.216 329,326.784 329,303.292C329,301.623 329.663,300.023 330.843,298.843C332.023,297.663 333.623,297 335.292,297C351.205,297 391.8,297 391.8,297C391.3,294.1 391,291.1 391,288C391,284.9 391.3,281.9 391.8,279L335.292,279C331.817,279 329,276.183 329,272.708C329,242.191 329,109.809 329,79.292C329,75.817 331.817,73 335.292,73C351.205,73 391.8,73 391.8,73C391.3,70.08 391,67.07 391,64C391,60.93 391.3,57.92 391.8,55L317.291,55ZM440,257C422.8,257 409,270.8 409,288C409,305.2 422.8,319 440,319C457.2,319 471,305.2 471,288C471,270.8 457.2,257 440,257ZM440,417C422.8,417 409,430.8 409,448C409,465.2 422.8,479 440,479C457.2,479 471,465.2 471,448C471,430.8 457.2,417 440,417Z" style="fill-rule:nonzero;"/>
                </g>
                <g transform="matrix(-0.05722,0,0,0.05722,48.752104,-0.599229)">
                    <path d="M391.8,279L256,279L256,297L304.708,297C308.183,297 311,299.817 311,303.292C311,328.895 311,425.105 311,450.708C311,454.183 313.817,457 317.291,457C336.293,457 391.8,457 391.8,457C391.3,454.1 391,451.1 391,448C391,444.9 391.3,441.9 391.8,439L335.292,439C333.623,439 332.023,438.337 330.843,437.157C329.663,435.977 329,434.377 329,432.708C329,409.216 329,326.784 329,303.292C329,301.623 329.663,300.023 330.843,298.843C332.023,297.663 333.623,297 335.292,297C351.205,297 391.8,297 391.8,297C391.3,294.1 391,291.1 391,288C391,284.9 391.3,281.9 391.8,279ZM440,257C422.8,257 409,270.8 409,288C409,305.2 422.8,319 440,319C457.2,319 471,305.2 471,288C471,270.8 457.2,257 440,257ZM440,417C422.8,417 409,430.8 409,448C409,465.2 422.8,479 440,479C457.2,479 471,465.2 471,448C471,430.8 457.2,417 440,417Z" style="fill-rule:nonzero;"/>
                </g>
            </g>
        </g>
    </g>
</svg>
