<?xml version="1.0" encoding="UTF-8" standalone="no"?>
<!DOCTYPE svg PUBLIC "-//W3C//DTD SVG 1.1//EN" "http://www.w3.org/Graphics/SVG/1.1/DTD/svg11.dtd">
<svg width="100%" height="100%" viewBox="0 0 154 155" version="1.1" xmlns="http://www.w3.org/2000/svg" xmlns:xlink="http://www.w3.org/1999/xlink" xml:space="preserve" xmlns:serif="http://www.serif.com/" style="fill:#ffffff;fill-rule:evenodd;clip-rule:evenodd;stroke-linejoin:round;stroke-miterlimit:2;">
    <g transform="matrix(1,0,0,1,-1202,-175)">
        <g id="wt_SWT" transform="matrix(4.166667,0,0,4.166667,1202.1042,175.840689)">
            <rect x="0" y="0" width="36.85" height="36.85" style="fill:none;"/>
            <g id="wt_SWT1" serif:id="wt_SWT">
                <g transform="matrix(0.210705,0,0,0.210705,-143.16316,-34.147377)">
                    <path d="M712.452,203.182C712.452,203.792 712.126,204.356 711.598,204.661C711.519,204.707 711.437,204.754 711.352,204.803C710.823,205.108 710.172,205.108 709.644,204.803C709.115,204.498 708.789,203.934 708.789,203.324C708.789,202.487 708.789,201.609 708.789,200.888C708.789,200.468 708.622,200.064 708.325,199.767C708.028,199.47 707.624,199.303 707.204,199.303C707.202,199.303 707.201,199.303 707.2,199.303C706.779,199.303 706.376,199.47 706.078,199.767C705.781,200.064 705.614,200.468 705.614,200.888C705.614,203.425 705.614,208.116 705.614,208.116C705.614,208.116 705.376,208.253 705.053,208.44C704.696,208.646 704.255,208.646 703.897,208.44C703.539,208.233 703.319,207.852 703.319,207.439C703.317,206.937 702.91,206.531 702.408,206.531C702.195,206.531 701.962,206.531 701.729,206.531C701.309,206.531 700.906,206.698 700.608,206.995C700.311,207.293 700.144,207.696 700.144,208.117C700.144,212.166 700.144,222.699 700.144,224.494C700.144,224.638 700.261,224.756 700.406,224.756C700.407,224.756 700.407,224.756 700.407,224.756L700.407,286.907C700.407,287.518 700.733,288.082 701.262,288.387C703.8,289.853 711.279,294.17 713.817,295.636C714.346,295.941 714.671,296.505 714.671,297.115C714.671,298.894 714.671,302.703 714.671,305.392C714.671,306.002 714.346,306.566 713.817,306.872C713.288,307.177 712.637,307.177 712.108,306.872C711.94,306.774 711.779,306.681 711.63,306.596C711.102,306.29 710.776,305.726 710.776,305.116C710.776,304.233 710.776,302.922 710.776,301.892C710.776,301.016 710.066,300.306 709.191,300.306C709.108,300.306 709.026,300.306 708.945,300.306C708.588,300.306 708.247,300.448 707.995,300.7C707.742,300.952 707.601,301.294 707.601,301.65C707.601,301.651 707.601,301.652 707.601,301.653C707.601,302.193 707.313,302.691 706.846,302.961C706.378,303.231 705.803,303.231 705.335,302.961C705.131,302.843 704.942,302.734 704.785,302.643C704.503,302.48 704.329,302.18 704.329,301.854C704.329,300.517 704.329,296.949 704.329,294.859C704.329,294.438 704.162,294.035 703.865,293.737C703.567,293.44 703.164,293.273 702.744,293.273C702.742,293.273 702.741,293.273 702.739,293.273C701.864,293.273 701.154,293.983 701.154,294.859L701.154,297.943C701.154,298.48 700.867,298.976 700.402,299.245C699.937,299.513 699.364,299.513 698.899,299.245C698.846,299.215 698.797,299.186 698.753,299.161C698.577,299.059 698.468,298.871 698.468,298.667C698.468,295.555 698.468,271.256 698.468,264.772C698.468,263.897 697.758,263.187 696.883,263.187L696.878,263.187C696.003,263.187 695.293,263.897 695.293,264.772C695.293,271.377 695.293,296.393 695.293,297.146C695.258,297.168 695.213,297.17 695.176,297.15C695.14,297.13 695.117,297.091 695.117,297.049C695.121,297.064 695.115,297.06 695.115,297.06C694.576,296.749 694.072,296.395 693.604,296.003C693.223,295.679 693.002,295.204 693.002,294.703C692.998,292.124 692.998,283.578 692.998,280.011C692.998,279.59 692.831,279.187 692.533,278.89C692.236,278.592 691.833,278.425 691.412,278.425C691.411,278.425 691.41,278.425 691.408,278.425C690.988,278.425 690.584,278.258 690.287,277.961C689.99,277.664 689.823,277.26 689.823,276.84C689.823,266.682 689.823,211.122 689.823,211.122C689.823,207.34 691.84,203.846 695.115,201.955C695.115,201.955 706.805,195.206 712.108,192.144C712.637,191.839 713.288,191.839 713.817,192.144C714.346,192.45 714.671,193.014 714.671,193.624C714.671,195.178 714.671,196.763 714.671,196.763L713.561,196.763C713.267,196.763 712.985,196.88 712.777,197.088C712.569,197.296 712.452,197.578 712.452,197.872C712.452,199.313 712.452,201.804 712.452,203.182ZM822.638,201.976C822.638,202.584 822.314,203.145 821.788,203.448C821.262,203.752 820.614,203.752 820.088,203.448C820.048,203.425 820.009,203.402 819.97,203.38C819.442,203.075 819.116,202.511 819.116,201.9C819.116,200.122 819.116,196.313 819.116,193.624C819.116,193.014 819.442,192.449 819.97,192.144C820.499,191.839 821.15,191.839 821.679,192.144C826.983,195.206 838.672,201.955 838.672,201.955C841.947,203.846 843.965,207.34 843.965,211.122C843.965,211.122 843.965,263.187 843.965,263.187L843.069,263.187C842.832,263.187 842.604,263.281 842.436,263.449C842.268,263.617 842.174,263.845 842.174,264.082C842.174,268.811 842.174,290.77 842.174,293.505C842.174,293.691 842.117,293.873 842.01,294.026C842.008,294.025 842.008,294.025 842.008,294.025C841.768,294.366 841.335,294.512 840.938,294.386C840.541,294.26 840.271,293.891 840.271,293.474C840.27,288.352 840.27,276.649 840.27,272.392C840.27,271.516 839.56,270.806 838.684,270.806C838.683,270.806 838.681,270.806 838.68,270.806C838.26,270.806 837.856,270.973 837.559,271.27C837.262,271.568 837.095,271.971 837.095,272.392C837.095,278.199 837.095,297.971 837.095,297.971C837.095,297.971 836.984,298.035 836.819,298.13C836.523,298.301 836.159,298.301 835.863,298.13C835.568,297.96 835.386,297.644 835.386,297.303C835.386,296.476 835.386,295.48 835.386,294.663C835.386,294.243 835.219,293.839 834.921,293.542C834.624,293.245 834.221,293.078 833.8,293.078C833.799,293.078 833.797,293.078 833.796,293.078C832.92,293.078 832.21,293.788 832.21,294.663C832.21,296.921 832.21,300.791 832.21,300.791C832.21,300.791 832.051,300.883 831.81,301.022C831.345,301.291 830.773,301.291 830.308,301.022C829.844,300.754 829.558,300.259 829.558,299.722C829.558,299 829.558,298.238 829.558,297.594C829.558,296.718 828.848,296.008 827.972,296.008L827.968,296.008C827.092,296.008 826.383,296.718 826.383,297.594C826.383,299.964 826.383,304.156 826.383,304.156C826.383,304.156 826.248,304.234 826.071,304.336C825.904,304.432 825.698,304.432 825.53,304.336C825.363,304.239 825.26,304.06 825.26,303.867C825.26,303.451 825.26,302.949 825.26,302.478C825.26,302.057 825.093,301.654 824.795,301.357C824.498,301.059 824.095,300.892 823.674,300.892C823.673,300.892 823.672,300.892 823.67,300.892C823.25,300.892 822.846,301.059 822.549,301.357C822.252,301.654 822.085,302.057 822.085,302.478C822.085,304.178 822.085,306.637 822.085,306.637C822.085,306.637 821.829,306.785 821.467,306.994C820.982,307.274 820.385,307.274 819.9,306.994C819.415,306.714 819.116,306.196 819.116,305.637C819.116,302.939 819.116,298.949 819.116,297.115C819.116,296.505 819.442,295.941 819.97,295.636C822.509,294.17 829.987,289.853 832.526,288.387C833.054,288.082 833.38,287.518 833.38,286.907C833.38,278.6 833.38,220.416 833.38,212.109C833.38,211.498 833.054,210.934 832.526,210.629C831.991,210.32 831.304,209.924 830.77,209.615C830.241,209.31 829.915,208.746 829.915,208.135C829.915,207.137 829.915,205.577 829.915,204.405C829.915,203.529 829.206,202.819 828.33,202.819C828.329,202.819 828.327,202.819 828.326,202.819C827.45,202.819 826.74,203.529 826.74,204.405C826.74,205.417 826.74,206.625 826.74,207.091C826.74,207.132 826.718,207.17 826.683,207.19C826.648,207.21 826.605,207.21 826.569,207.19C826.403,207.094 826.15,206.948 825.984,206.852C825.878,206.791 825.813,206.678 825.813,206.556C825.813,205.862 825.813,203.486 825.813,201.865C825.813,200.989 825.103,200.279 824.227,200.279C824.226,200.279 824.224,200.279 824.223,200.279C823.347,200.279 822.638,200.989 822.638,201.865L822.638,201.976Z"/>
                </g>
                <g transform="matrix(0.066732,0,0,0.066732,0.779762,1.385718)">
                    <path d="M264.438,19.406C219.9,19.406 179.113,44.904 148.875,87.719C118.637,130.533 99.531,190.439 99.531,256.779C99.531,323.121 118.638,382.997 148.876,425.812C179.114,468.626 219.901,494.124 264.439,494.124C270.006,494.124 275.502,493.717 280.939,492.936L275.719,492.936L275.719,391.906C272.627,391.786 269.533,391.723 266.439,391.718C223.799,391.718 188.555,402.43 176.845,416.778C164.598,384.978 208.695,371.996 256.782,371.498C259.989,371.465 263.214,371.485 266.44,371.561C279.838,371.878 296.064,372.925 311.252,375.373L311.252,278.873C303.449,274.567 298.012,268.769 296.752,261.717C331.562,273.557 391.984,265.094 402.032,258.184C395.757,284.284 358.444,291.474 329.94,285.497L329.94,379.372C345.06,383.582 356.82,389.872 359.877,399.216L360,399.216L360,399.59C360.856,402.447 360.906,405.585 360,409.027L360,450C367.074,442.715 373.763,434.643 380,425.812C410.238,382.998 429.313,323.122 429.313,256.782C429.313,190.44 410.238,130.534 380,87.719C349.762,44.903 308.975,19.405 264.437,19.405L264.438,19.406ZM180.03,196.094C211.562,196.094 237.787,217.484 243.375,245.75C230.389,233.6 206.715,223.712 179.655,220.562C157.705,218.008 137.973,220.416 124.375,226.282C135.553,208.222 156.288,196.094 180.031,196.094L180.03,196.094ZM116.937,269.406C130.117,281.139 153.277,290.616 179.657,293.686C202.084,296.298 222.161,293.71 235.781,287.563C224.617,305.713 203.841,317.938 180.031,317.938C148.931,317.938 122.997,297.106 116.938,269.406L116.937,269.406ZM294.407,393.312L294.407,490.187C310.99,485.787 326.754,477.807 341.313,466.687L341.313,405.594C329.613,399.864 313.305,395.514 294.406,393.314L294.407,393.312Z" style="fill-rule:nonzero;"/>
                </g>
            </g>
        </g>
    </g>
</svg>
